<svg width="185" height="72" viewBox="0 0 185 72" fill="none" xmlns="http://www.w3.org/2000/svg">
<g opacity="0.5">
<mask id="path-1-inside-1_309_7407" fill="white">
<path d="M5.85916 35.4435C4.00009 34.6759 1.97354 34.8685 2.28882e-05 35.1002C0.692291 34.8238 1.35944 34.5112 2.01263 34.2069C2.30014 34.0729 2.58765 33.939 2.87516 33.8078C5.42371 32.6521 7.92759 31.6891 10.5013 32.5795C13.5188 33.6235 16.1818 36.1218 18.1636 38.1791C18.2362 38.2544 18.292 38.3438 18.3535 38.4303C18.4707 38.5978 18.6158 38.8072 18.8224 38.997C22.5489 42.4109 29.9908 46.0564 35.2051 42.115C36.8995 40.8337 38.1165 39.0807 39.1215 37.5371C42.1641 32.8726 45.7622 28.8028 51.4427 30.5837C51.5767 30.6256 51.7162 30.6926 51.8781 30.7707C52.0652 30.86 52.2522 30.9494 52.4504 31.0192C52.5313 31.0471 52.6346 31.0889 52.7546 31.1364C53.4776 31.4239 54.0331 31.6221 54.5048 31.5551C54.8231 31.5104 55.0938 31.2983 55.2138 30.9996C55.5991 30.0533 54.7589 29.3024 54.3094 28.9005C54.2369 28.8363 54.1699 28.7777 54.1252 28.7302C53.8489 28.4287 53.5446 28.1943 53.2487 27.9654C52.9082 27.7002 52.5844 27.449 52.3973 27.1587C50.4099 24.0602 50.3596 21.0008 52.255 18.3155C55.1692 14.1787 62.2147 11.7446 67.6384 13.0007C70.2762 13.6092 73.5812 15.3231 74.3377 20.0183L74.8932 23.4684C74.9714 23.9597 75.4291 24.2975 75.926 24.2193C76.4173 24.144 76.7551 23.6834 76.6825 23.1921C76.2442 20.236 75.7474 16.8863 76.7411 13.9414C77.3747 12.0656 78.6644 10.2065 80.6909 8.2609C87.9709 1.26287 98.9941 -1.62622 108.77 0.902782C113.367 2.09192 117.13 4.53998 120.613 8.60425C122.855 11.2198 125.554 14.7509 126.537 18.8542C127.96 24.8167 125.479 31.5746 120.359 35.6724C115.569 39.5078 108.803 40.9342 102.263 39.4882C100.401 39.0779 98.7206 38.4554 97.2523 37.6627C96.4316 36.9565 95.5216 36.3088 94.5111 35.7394C94.3074 35.5524 94.1036 35.3654 93.9138 35.17C89.7462 30.807 90.3575 23.8564 93.3108 19.9206C95.9236 16.4453 99.7897 15.686 103.924 17.8382C105.211 18.5081 106.721 19.9457 106.989 21.5145C107.128 22.3351 106.897 23.0553 106.28 23.7169C105.939 24.0825 105.959 24.6548 106.324 24.9953C106.69 25.3359 107.262 25.3163 107.603 24.9507C108.605 23.8788 109.01 22.5836 108.772 21.2074C108.396 19.0189 106.486 17.1292 104.758 16.2303C99.8315 13.6678 95.0108 14.6392 91.8621 18.8319C88.9255 22.7427 88.0239 29.2522 90.9409 34.2069C88.1328 33.3388 84.811 33.0122 80.9477 33.5091C76.9532 34.0199 71.6273 36.401 69.7542 41.4227C67.7444 46.8101 70.9936 52.4571 75.0718 55.0363C77.76 56.7363 81.5423 57.1355 84.2695 56.0133C86.3491 55.1564 87.7113 53.5401 88.2137 51.3433C88.9925 47.9266 86.966 44.4095 83.7838 43.6642C82.028 43.2538 80.3811 43.5051 79.3762 44.3369C78.8402 44.7807 78.2177 45.6098 78.282 47.0446C78.321 47.9322 78.8319 48.8143 79.6162 49.3419C80.3364 49.8276 81.1822 49.956 81.9359 49.688C82.4076 49.5205 82.6561 49.0041 82.4886 48.5324C82.3211 48.0606 81.8047 47.815 81.3329 47.9797C81.0371 48.083 80.7412 47.9155 80.6267 47.8373C80.3141 47.6252 80.1019 47.2818 80.088 46.9608C80.0629 46.397 80.208 45.995 80.529 45.727C81.0817 45.2664 82.1955 45.1464 83.3651 45.4228C85.8271 46.0006 86.9437 48.7389 86.4412 50.9358C86.07 52.5576 85.1041 53.702 83.5717 54.3357C81.3553 55.2513 78.254 54.9079 76.0321 53.5038C72.5568 51.307 69.7682 46.5449 71.443 42.0535C73.0341 37.7883 77.6762 35.7506 81.171 35.3039C86.2905 34.648 90.3659 35.544 93.456 37.2412C94.2543 37.9446 95.1643 38.5671 96.1553 39.1226C97.9222 40.6662 99.1923 42.4974 99.9739 44.3481C102.408 50.0844 100.92 57.9477 96.8727 63.5026C96.7945 63.5277 96.7163 63.5612 96.6438 63.6115C96.4009 63.7762 96.2669 64.0358 96.253 64.3065C95.2592 65.5348 94.1343 66.6318 92.8893 67.5362C87.5019 71.4497 78.6225 72.3597 73.0927 69.5628C69.2183 67.6032 65.9914 64.0358 63.9286 59.4551C64.9251 59.1481 65.8267 58.7182 66.6055 58.1739C68.5372 56.82 69.7431 54.6623 69.7486 52.5464C69.7486 52.0467 69.3467 51.6392 68.847 51.6392H68.8442C68.3446 51.6392 67.9398 52.0439 67.9398 52.5408C67.9342 54.0789 67.0243 55.6672 65.5671 56.6916C64.2803 57.596 62.5413 58.1124 60.5426 58.1906C56.2495 58.3609 52.2717 56.5493 48.0065 52.5073C47.6436 52.164 47.0713 52.1779 46.728 52.5408C46.3847 52.9037 46.3986 53.4759 46.7615 53.8221C51.1524 57.984 55.4986 60.0134 60.0262 60.0134C60.2216 60.0134 60.417 60.0106 60.6124 60.0022C61.1093 59.9827 61.5866 59.9352 62.0556 59.8682C62.7115 62.8578 59.6885 65.7581 57.6647 67.0672C54.3346 69.2222 49.726 69.5851 45.6338 68.0107C41.8542 66.5564 38.5799 63.2012 36.397 58.5591C37.7732 57.007 38.3454 54.9302 38.1305 53.1326C37.8541 50.8129 36.1821 48.3035 32.316 48.2169C31.8443 48.2058 30.1862 48.2784 28.9021 49.6545C27.8442 50.7878 27.406 52.4096 27.5986 54.4725C27.646 54.9693 28.0954 55.335 28.5839 55.2904C29.0808 55.2429 29.4493 54.8018 29.4018 54.305C29.2594 52.7781 29.5386 51.6308 30.2253 50.8911C30.8394 50.2351 31.6963 50.0174 32.2741 50.0286C35.5903 50.1039 36.2184 52.3761 36.3328 53.3475C36.5896 55.4997 35.2498 58.1487 32.5672 58.8605C29.0752 59.7873 23.5231 58.5507 21.1365 55.2959C20.5754 54.5311 20.6703 53.9226 20.8155 52.9986C20.9327 52.2533 21.0639 51.4075 20.8071 50.4166C20.179 47.9936 17.9906 48.1137 16.687 48.1862C16.2599 48.2114 15.8663 48.2086 15.4113 48.2365C15.0903 48.256 14.7246 48.2784 14.5264 48.2169C12.726 47.681 12.2766 45.9392 11.7965 43.3432C11.6709 42.6621 11.5536 42.02 11.3833 41.4115C10.6213 38.6564 8.75943 36.6522 5.8508 35.4519L5.85916 35.4435Z"/>
</mask>
<path d="M5.85916 35.4435C4.00009 34.6759 1.97354 34.8685 2.28882e-05 35.1002C0.692291 34.8238 1.35944 34.5112 2.01263 34.2069C2.30014 34.0729 2.58765 33.939 2.87516 33.8078C5.42371 32.6521 7.92759 31.6891 10.5013 32.5795C13.5188 33.6235 16.1818 36.1218 18.1636 38.1791C18.2362 38.2544 18.292 38.3438 18.3535 38.4303C18.4707 38.5978 18.6158 38.8072 18.8224 38.997C22.5489 42.4109 29.9908 46.0564 35.2051 42.115C36.8995 40.8337 38.1165 39.0807 39.1215 37.5371C42.1641 32.8726 45.7622 28.8028 51.4427 30.5837C51.5767 30.6256 51.7162 30.6926 51.8781 30.7707C52.0652 30.86 52.2522 30.9494 52.4504 31.0192C52.5313 31.0471 52.6346 31.0889 52.7546 31.1364C53.4776 31.4239 54.0331 31.6221 54.5048 31.5551C54.8231 31.5104 55.0938 31.2983 55.2138 30.9996C55.5991 30.0533 54.7589 29.3024 54.3094 28.9005C54.2369 28.8363 54.1699 28.7777 54.1252 28.7302C53.8489 28.4287 53.5446 28.1943 53.2487 27.9654C52.9082 27.7002 52.5844 27.449 52.3973 27.1587C50.4099 24.0602 50.3596 21.0008 52.255 18.3155C55.1692 14.1787 62.2147 11.7446 67.6384 13.0007C70.2762 13.6092 73.5812 15.3231 74.3377 20.0183L74.8932 23.4684C74.9714 23.9597 75.4291 24.2975 75.926 24.2193C76.4173 24.144 76.7551 23.6834 76.6825 23.1921C76.2442 20.236 75.7474 16.8863 76.7411 13.9414C77.3747 12.0656 78.6644 10.2065 80.6909 8.2609C87.9709 1.26287 98.9941 -1.62622 108.77 0.902782C113.367 2.09192 117.13 4.53998 120.613 8.60425C122.855 11.2198 125.554 14.7509 126.537 18.8542C127.96 24.8167 125.479 31.5746 120.359 35.6724C115.569 39.5078 108.803 40.9342 102.263 39.4882C100.401 39.0779 98.7206 38.4554 97.2523 37.6627C96.4316 36.9565 95.5216 36.3088 94.5111 35.7394C94.3074 35.5524 94.1036 35.3654 93.9138 35.17C89.7462 30.807 90.3575 23.8564 93.3108 19.9206C95.9236 16.4453 99.7897 15.686 103.924 17.8382C105.211 18.5081 106.721 19.9457 106.989 21.5145C107.128 22.3351 106.897 23.0553 106.28 23.7169C105.939 24.0825 105.959 24.6548 106.324 24.9953C106.69 25.3359 107.262 25.3163 107.603 24.9507C108.605 23.8788 109.01 22.5836 108.772 21.2074C108.396 19.0189 106.486 17.1292 104.758 16.2303C99.8315 13.6678 95.0108 14.6392 91.8621 18.8319C88.9255 22.7427 88.0239 29.2522 90.9409 34.2069C88.1328 33.3388 84.811 33.0122 80.9477 33.5091C76.9532 34.0199 71.6273 36.401 69.7542 41.4227C67.7444 46.8101 70.9936 52.4571 75.0718 55.0363C77.76 56.7363 81.5423 57.1355 84.2695 56.0133C86.3491 55.1564 87.7113 53.5401 88.2137 51.3433C88.9925 47.9266 86.966 44.4095 83.7838 43.6642C82.028 43.2538 80.3811 43.5051 79.3762 44.3369C78.8402 44.7807 78.2177 45.6098 78.282 47.0446C78.321 47.9322 78.8319 48.8143 79.6162 49.3419C80.3364 49.8276 81.1822 49.956 81.9359 49.688C82.4076 49.5205 82.6561 49.0041 82.4886 48.5324C82.3211 48.0606 81.8047 47.815 81.3329 47.9797C81.0371 48.083 80.7412 47.9155 80.6267 47.8373C80.3141 47.6252 80.1019 47.2818 80.088 46.9608C80.0629 46.397 80.208 45.995 80.529 45.727C81.0817 45.2664 82.1955 45.1464 83.3651 45.4228C85.8271 46.0006 86.9437 48.7389 86.4412 50.9358C86.07 52.5576 85.1041 53.702 83.5717 54.3357C81.3553 55.2513 78.254 54.9079 76.0321 53.5038C72.5568 51.307 69.7682 46.5449 71.443 42.0535C73.0341 37.7883 77.6762 35.7506 81.171 35.3039C86.2905 34.648 90.3659 35.544 93.456 37.2412C94.2543 37.9446 95.1643 38.5671 96.1553 39.1226C97.9222 40.6662 99.1923 42.4974 99.9739 44.3481C102.408 50.0844 100.92 57.9477 96.8727 63.5026C96.7945 63.5277 96.7163 63.5612 96.6438 63.6115C96.4009 63.7762 96.2669 64.0358 96.253 64.3065C95.2592 65.5348 94.1343 66.6318 92.8893 67.5362C87.5019 71.4497 78.6225 72.3597 73.0927 69.5628C69.2183 67.6032 65.9914 64.0358 63.9286 59.4551C64.9251 59.1481 65.8267 58.7182 66.6055 58.1739C68.5372 56.82 69.7431 54.6623 69.7486 52.5464C69.7486 52.0467 69.3467 51.6392 68.847 51.6392H68.8442C68.3446 51.6392 67.9398 52.0439 67.9398 52.5408C67.9342 54.0789 67.0243 55.6672 65.5671 56.6916C64.2803 57.596 62.5413 58.1124 60.5426 58.1906C56.2495 58.3609 52.2717 56.5493 48.0065 52.5073C47.6436 52.164 47.0713 52.1779 46.728 52.5408C46.3847 52.9037 46.3986 53.4759 46.7615 53.8221C51.1524 57.984 55.4986 60.0134 60.0262 60.0134C60.2216 60.0134 60.417 60.0106 60.6124 60.0022C61.1093 59.9827 61.5866 59.9352 62.0556 59.8682C62.7115 62.8578 59.6885 65.7581 57.6647 67.0672C54.3346 69.2222 49.726 69.5851 45.6338 68.0107C41.8542 66.5564 38.5799 63.2012 36.397 58.5591C37.7732 57.007 38.3454 54.9302 38.1305 53.1326C37.8541 50.8129 36.1821 48.3035 32.316 48.2169C31.8443 48.2058 30.1862 48.2784 28.9021 49.6545C27.8442 50.7878 27.406 52.4096 27.5986 54.4725C27.646 54.9693 28.0954 55.335 28.5839 55.2904C29.0808 55.2429 29.4493 54.8018 29.4018 54.305C29.2594 52.7781 29.5386 51.6308 30.2253 50.8911C30.8394 50.2351 31.6963 50.0174 32.2741 50.0286C35.5903 50.1039 36.2184 52.3761 36.3328 53.3475C36.5896 55.4997 35.2498 58.1487 32.5672 58.8605C29.0752 59.7873 23.5231 58.5507 21.1365 55.2959C20.5754 54.5311 20.6703 53.9226 20.8155 52.9986C20.9327 52.2533 21.0639 51.4075 20.8071 50.4166C20.179 47.9936 17.9906 48.1137 16.687 48.1862C16.2599 48.2114 15.8663 48.2086 15.4113 48.2365C15.0903 48.256 14.7246 48.2784 14.5264 48.2169C12.726 47.681 12.2766 45.9392 11.7965 43.3432C11.6709 42.6621 11.5536 42.02 11.3833 41.4115C10.6213 38.6564 8.75943 36.6522 5.8508 35.4519L5.85916 35.4435Z" fill="url(#paint0_linear_309_7407)" fill-opacity="0.48" stroke="url(#paint1_linear_309_7407)" stroke-width="2.06799" mask="url(#path-1-inside-1_309_7407)"/>
<path d="M127.992 28.9807C126.751 32.2319 124.644 35.2204 121.813 37.4837C116.469 41.7635 108.969 43.3488 101.761 41.7552L101.759 41.7542C101.577 41.7135 101.398 41.6698 101.221 41.6253C101.567 42.2216 101.87 42.8268 102.128 43.4339C104.87 49.9017 103.371 58.3582 99.042 64.5003C100.478 66.2943 102.332 67.7657 104.332 68.4739C106.423 69.2144 108.679 69.1274 110.846 67.6946C111.402 67.3261 111.956 66.9148 112.407 66.5432C112.767 66.2467 113.037 65.9951 113.195 65.8216C113.197 65.429 113.357 65.0379 113.677 64.7581H113.678C114.267 64.2429 115.165 64.2972 115.684 64.8889C115.996 65.2438 116.298 65.5952 116.589 65.9397C118.247 67.8865 119.6 69.4651 121.981 70.4388C124.167 71.3325 126.74 71.6395 129.106 71.3001L129.576 71.2239C133.454 70.5154 135.558 68.6804 138.601 66.0091H138.602L139.779 64.9817C140.233 64.5891 140.716 64.1191 141.231 63.6067C139.239 64.5892 137.157 65.4245 134.973 65.7444V65.7454C134.04 65.8831 133.11 65.9485 132.192 65.9485C128.008 65.9485 124.032 64.5621 121.199 62.0052C120.615 61.4778 120.573 60.5783 121.098 59.9964C121.625 59.4121 122.524 59.3699 123.106 59.8948C125.902 62.4156 130.175 63.5731 134.562 62.9329C137.379 62.5217 140.187 60.9973 143.004 59.4593C146.609 57.4909 150.467 55.3794 154.711 55.597C155.4 55.5971 156.107 55.6589 156.84 55.7991H156.841C157.064 55.8423 157.263 55.9375 157.431 56.0657C157.884 56.1986 158.347 56.3509 158.822 56.554C160.668 57.3396 162.335 58.4329 163.908 59.4583H163.909C166.883 61.4021 169.532 63.11 172.948 62.9173C174.812 62.812 176.145 62.2037 177.219 61.1956C178.311 60.1707 179.164 58.7063 180.006 56.8352C180.359 56.0482 180.873 54.9024 181.631 53.8391C182.121 53.1514 182.726 52.4814 183.472 51.9583C183.113 51.9244 182.726 51.9136 182.286 51.927H182.285C181.838 51.9406 181.424 52.1008 180.83 52.3391V52.3401C180.591 52.4363 180.329 52.5414 180.061 52.6331V52.6341C179.413 52.8572 178.838 53.1122 178.26 53.3675V53.3684C176.769 54.0309 175.264 54.7029 172.942 54.5218L172.943 54.5208C171.618 54.4175 170.126 54.2622 168.765 53.5784C166.047 52.2135 164.446 49.8303 162.975 47.6585C161.871 46.0301 160.875 44.5701 159.538 43.4973L159.267 43.2884C155.833 40.7609 150.906 40.6344 147.429 42.9231C147.497 43.7677 147.49 44.6185 147.393 45.4651L147.339 45.8714C146.898 48.8086 145.314 51.5525 142.99 53.4036C140.884 55.0814 137.714 55.9612 134.654 55.9612C132.963 55.9612 131.274 55.694 129.79 55.1214L129.496 55.0022C126.736 53.8398 124.991 51.6798 124.617 48.9026L124.585 48.6321C124.177 44.5866 127.043 41.8762 129.825 41.0608L130.125 40.9798C133.115 40.2352 135.95 41.4686 137.456 44.1643L137.603 44.4388C137.958 45.1403 137.677 45.9959 136.976 46.3509V46.3499C136.276 46.7053 135.419 46.4242 135.064 45.7239C134.525 44.6593 133.779 44.0834 133.006 43.8147C132.319 43.5761 131.581 43.5704 130.908 43.719L130.624 43.7923C128.875 44.3041 127.172 45.9567 127.414 48.347C127.602 50.2047 128.64 51.5568 130.598 52.3802C132.189 53.0497 134.217 53.2573 136.181 53.0325C138.148 52.8073 139.986 52.1557 141.217 51.1761C142.871 49.8577 144.033 47.9377 144.448 45.8636L144.521 45.4466C144.884 43.0208 144.309 40.4615 143.192 38.1458C142.145 35.9752 140.637 34.0507 139.04 32.6897L138.72 32.4251C136.113 30.3424 132.33 29.1235 127.992 28.9807Z" fill="url(#paint2_linear_309_7407)" fill-opacity="0.48" stroke="url(#paint3_linear_309_7407)" stroke-width="1.03399"/>
</g>
<defs>
<linearGradient id="paint0_linear_309_7407" x1="126.934" y1="35.5928" x2="2.28882e-05" y2="35.5928" gradientUnits="userSpaceOnUse">
<stop stop-color="#FCF0D6"/>
<stop offset="1" stop-color="#FFC446"/>
</linearGradient>
<linearGradient id="paint1_linear_309_7407" x1="126.934" y1="35.5928" x2="2.28882e-05" y2="35.5928" gradientUnits="userSpaceOnUse">
<stop stop-color="#FCF0D6"/>
<stop offset="1" stop-color="#FFC446"/>
</linearGradient>
<linearGradient id="paint2_linear_309_7407" x1="185" y1="50.2015" x2="98.3969" y2="50.2015" gradientUnits="userSpaceOnUse">
<stop stop-color="#FCF0D6"/>
<stop offset="1" stop-color="#FFC446"/>
</linearGradient>
<linearGradient id="paint3_linear_309_7407" x1="185" y1="50.2015" x2="98.3969" y2="50.2015" gradientUnits="userSpaceOnUse">
<stop stop-color="#FCF0D6"/>
<stop offset="1" stop-color="#FFC446"/>
</linearGradient>
</defs>
</svg>
