<svg width="377" height="325" viewBox="0 0 377 325" fill="none" xmlns="http://www.w3.org/2000/svg">
<g opacity="0.35">
<g filter="url(#filter0_ii_842_422)">
<path d="M107.528 54.2667C107.48 54.2654 107.43 54.2651 107.379 54.2637V54.2364C107.43 54.2351 107.48 54.2337 107.528 54.2325V54.2667ZM159.029 2.22076C159.01 2.77208 158.98 3.42763 158.93 4.17194C158.761 6.66204 158.386 10.1383 157.557 14.0655C155.889 21.9595 152.434 31.471 145.358 38.546C138.895 45.0099 130.395 48.4558 122.938 50.2755C116.95 51.737 111.745 52.118 109.034 52.2149C109.054 51.664 109.083 51.0091 109.133 50.2657C109.301 47.7756 109.677 44.2993 110.507 40.3721C112.174 32.4783 115.629 22.9668 122.704 15.8917C129.779 8.81648 139.292 5.36054 147.186 3.69342C151.112 2.86414 154.588 2.48866 157.078 2.32037C157.822 2.27008 158.478 2.24047 159.029 2.22076ZM159.029 106.278C158.478 106.259 157.822 106.23 157.078 106.18C154.588 106.011 151.112 105.636 147.186 104.807C139.292 103.14 129.779 99.6839 122.704 92.6085C115.629 85.5332 112.174 76.021 110.507 68.127C109.677 64.1998 109.301 60.7235 109.133 58.2335C109.083 57.4898 109.054 56.8352 109.034 56.2842C111.745 56.3813 116.95 56.7631 122.938 58.2247C130.395 60.0443 138.895 63.4904 145.358 69.9542C152.434 77.0293 155.889 86.5407 157.557 94.4346C158.386 98.3618 158.761 101.838 158.93 104.328C158.98 105.072 159.01 105.727 159.029 106.278Z" stroke="url(#paint0_linear_842_422)" stroke-width="4"/>
<path d="M106.168 52.3274C103.458 52.2149 98.2547 51.8039 92.2738 50.3075C84.8283 48.4448 76.3482 44.9498 69.9221 38.4485C62.8881 31.3328 59.4881 21.8014 57.8666 13.8979C57.06 9.96605 56.7037 6.48764 56.5498 3.9966C56.5038 3.25203 56.479 2.5963 56.4625 2.04489C57.0135 2.06778 57.6685 2.1012 58.4121 2.15578C60.9012 2.33847 64.3752 2.73396 68.2975 3.58603C76.1817 5.29881 85.6729 8.80978 92.707 15.9257C99.7411 23.0417 103.142 32.5728 104.763 40.4763C105.57 44.4082 105.925 47.8866 106.079 50.3776C106.125 51.1214 106.151 51.7764 106.168 52.3274ZM106.144 56.3967C106.121 56.9475 106.088 57.6019 106.033 58.3453C105.85 60.8343 105.455 64.3084 104.603 68.2307C102.89 76.1149 99.3792 85.607 92.2632 92.6412C85.1472 99.6754 75.616 103.076 67.7126 104.698C63.7807 105.504 60.3023 105.86 57.8113 106.013C57.0671 106.059 56.4118 106.084 55.8606 106.101C55.8835 105.55 55.9159 104.895 55.9705 104.151C56.1532 101.662 56.5496 98.1881 57.4017 94.2657C59.1145 86.3816 62.6245 76.8903 69.7404 69.8562C76.2414 63.43 84.7613 60.0331 92.2278 58.2566C98.2255 56.8296 103.433 56.478 106.144 56.3967ZM107.812 54.3848C107.76 54.3858 107.709 54.3878 107.661 54.3888L107.661 54.3536L107.813 54.3584L107.812 54.3848Z" stroke="url(#paint1_linear_842_422)" stroke-width="4"/>
<path d="M214.528 162.267C214.48 162.265 214.43 162.265 214.379 162.264V162.236C214.43 162.235 214.48 162.234 214.528 162.232V162.267ZM266.029 110.221C266.01 110.772 265.98 111.428 265.93 112.172C265.761 114.662 265.386 118.138 264.557 122.065C262.889 129.959 259.434 139.471 252.358 146.546C245.895 153.01 237.395 156.456 229.938 158.275C223.95 159.737 218.745 160.118 216.034 160.215C216.054 159.664 216.083 159.009 216.133 158.266C216.301 155.776 216.677 152.299 217.507 148.372C219.174 140.478 222.629 130.967 229.704 123.892C236.779 116.816 246.292 113.36 254.186 111.693C258.112 110.864 261.588 110.489 264.078 110.32C264.822 110.27 265.478 110.24 266.029 110.221ZM266.029 214.278C265.478 214.259 264.822 214.23 264.078 214.18C261.588 214.011 258.112 213.636 254.186 212.807C246.292 211.14 236.779 207.684 229.704 200.608C222.629 193.533 219.174 184.021 217.507 176.127C216.677 172.2 216.301 168.723 216.133 166.233C216.083 165.49 216.054 164.835 216.034 164.284C218.745 164.381 223.95 164.763 229.938 166.225C237.395 168.044 245.895 171.49 252.358 177.954C259.434 185.029 262.889 194.541 264.557 202.435C265.386 206.362 265.761 209.838 265.93 212.328C265.98 213.072 266.01 213.727 266.029 214.278Z" stroke="url(#paint2_linear_842_422)" stroke-width="4"/>
<path d="M213.168 160.327C210.458 160.215 205.255 159.804 199.274 158.307C191.829 156.445 183.348 152.95 176.922 146.448C169.888 139.333 166.488 129.801 164.867 121.898C164.06 117.966 163.704 114.488 163.55 111.997C163.504 111.252 163.479 110.596 163.463 110.045C164.014 110.068 164.669 110.101 165.412 110.156C167.901 110.338 171.375 110.734 175.298 111.586C183.182 113.299 192.673 116.81 199.707 123.926C206.741 131.042 210.142 140.573 211.764 148.476C212.57 152.408 212.926 155.887 213.079 158.378C213.125 159.121 213.151 159.776 213.168 160.327ZM213.144 164.397C213.121 164.947 213.088 165.602 213.033 166.345C212.851 168.834 212.455 172.308 211.603 176.231C209.89 184.115 206.379 193.607 199.263 200.641C192.147 207.675 182.616 211.076 174.713 212.698C170.781 213.504 167.303 213.859 164.812 214.013C164.067 214.059 163.412 214.084 162.861 214.101C162.884 213.55 162.916 212.895 162.971 212.151C163.153 209.662 163.55 206.188 164.402 202.266C166.115 194.382 169.625 184.89 176.741 177.856C183.242 171.43 191.762 168.033 199.228 166.257C205.226 164.83 210.433 164.478 213.144 164.397ZM214.812 162.385C214.76 162.386 214.71 162.388 214.661 162.389L214.661 162.354L214.813 162.358L214.812 162.385Z" stroke="url(#paint3_linear_842_422)" stroke-width="4"/>
<path d="M214.53 270.272C214.482 270.271 214.432 270.271 214.381 270.269V270.242C214.432 270.241 214.482 270.239 214.53 270.238V270.272ZM266.031 218.226C266.012 218.778 265.982 219.433 265.932 220.177C265.763 222.668 265.388 226.144 264.559 230.071C262.891 237.965 259.435 247.477 252.36 254.552C245.897 261.015 237.397 264.461 229.94 266.281C223.952 267.743 218.747 268.124 216.036 268.22C216.056 267.67 216.085 267.015 216.135 266.271C216.303 263.781 216.679 260.305 217.509 256.378C219.176 248.484 222.631 238.972 229.706 231.897C236.781 224.822 246.294 221.366 254.188 219.699C258.114 218.87 261.59 218.494 264.08 218.326C264.824 218.276 265.48 218.246 266.031 218.226ZM266.031 322.284C265.48 322.264 264.824 322.236 264.08 322.185C261.59 322.017 258.114 321.642 254.188 320.812C246.294 319.145 236.781 315.689 229.706 308.614C222.631 301.539 219.176 292.027 217.509 284.133C216.679 280.205 216.303 276.729 216.135 274.239C216.085 273.495 216.056 272.841 216.036 272.29C218.747 272.387 223.952 272.769 229.94 274.23C237.397 276.05 245.897 279.496 252.36 285.96C259.435 293.035 262.891 302.546 264.559 310.44C265.388 314.367 265.763 317.844 265.932 320.334C265.982 321.078 266.012 321.733 266.031 322.284Z" stroke="url(#paint4_linear_842_422)" stroke-width="4"/>
<path d="M374.029 110.033C374.01 110.585 373.98 111.24 373.93 111.984C373.761 114.474 373.386 117.951 372.557 121.878C370.889 129.772 367.434 139.283 360.358 146.358C353.902 152.815 345.293 156.247 337.714 158.054C331.985 159.419 326.951 159.829 324.088 159.95C324.106 159.405 324.135 158.758 324.183 158.025C324.346 155.541 324.714 152.073 325.536 148.153C327.189 140.275 330.629 130.779 337.704 123.704C344.779 116.629 354.292 113.173 362.186 111.506C366.112 110.677 369.588 110.301 372.078 110.133C372.822 110.083 373.478 110.053 374.029 110.033Z" stroke="url(#paint5_linear_842_422)" stroke-width="4"/>
<path d="M321.536 162.079C321.584 162.078 321.634 162.077 321.686 162.076V162.049C321.634 162.048 321.584 162.046 321.536 162.045V162.079ZM270.035 110.033C270.055 110.585 270.084 111.24 270.135 111.984C270.303 114.474 270.678 117.951 271.508 121.878C273.175 129.772 276.631 139.283 283.706 146.358C290.17 152.822 298.67 156.268 306.126 158.088C312.115 159.549 317.319 159.93 320.03 160.027C320.011 159.476 319.982 158.822 319.932 158.078C319.763 155.588 319.387 152.112 318.558 148.185C316.89 140.291 313.435 130.779 306.36 123.704C299.285 116.629 289.773 113.173 281.879 111.506C277.952 110.677 274.476 110.301 271.986 110.133C271.242 110.083 270.586 110.053 270.035 110.033ZM270.035 214.091C270.586 214.071 271.242 214.042 271.986 213.992C274.476 213.824 277.952 213.448 281.879 212.619C289.773 210.952 299.285 207.496 306.36 200.421C313.436 193.346 316.89 183.833 318.558 175.939C319.387 172.012 319.763 168.536 319.932 166.046C319.982 165.302 320.011 164.648 320.03 164.097C317.319 164.194 312.115 164.576 306.126 166.037C298.67 167.857 290.17 171.303 283.706 177.767C276.631 184.842 273.175 194.353 271.508 202.247C270.678 206.174 270.303 209.651 270.135 212.141C270.084 212.885 270.055 213.54 270.035 214.091Z" stroke="url(#paint6_linear_842_422)" stroke-width="4"/>
<path d="M53.5342 108.079C53.5824 108.078 53.6322 108.077 53.6836 108.076V108.049C53.6322 108.048 53.5824 108.046 53.5342 108.045V108.079ZM2.0332 56.0332C2.05291 56.5845 2.08251 57.2401 2.13281 57.9844C2.30112 60.4745 2.67647 63.9508 3.50586 67.8779C5.17305 75.7719 8.62899 85.2834 15.7041 92.3584C22.1678 98.8223 30.6679 102.268 38.124 104.088C44.1127 105.549 49.3173 105.93 52.0283 106.027C52.0086 105.476 51.9799 104.822 51.9297 104.078C51.7614 101.588 51.3851 98.1117 50.5557 94.1846C48.8885 86.2907 45.4334 76.7793 38.3584 69.7041C31.2832 62.6289 21.771 59.173 13.877 57.5059C9.95005 56.6766 6.47435 56.3011 3.98438 56.1328C3.24008 56.0825 2.58451 56.0529 2.0332 56.0332ZM2.0332 160.091C2.58451 160.071 3.24009 160.042 3.98438 159.992C6.47434 159.824 9.95005 159.448 13.877 158.619C21.7709 156.952 31.2832 153.496 38.3584 146.421C45.4336 139.346 48.8885 129.833 50.5557 121.939C51.3851 118.012 51.7614 114.536 51.9297 112.046C51.9799 111.302 52.0086 110.648 52.0283 110.097C49.3172 110.194 44.1126 110.576 38.124 112.037C30.6679 113.857 22.1678 117.303 15.7041 123.767C8.62899 130.842 5.17304 140.353 3.50586 148.247C2.67646 152.174 2.30112 155.651 2.13281 158.141C2.08254 158.885 2.05291 159.54 2.0332 160.091Z" stroke="url(#paint7_linear_842_422)" stroke-width="4"/>
<path d="M158.73 214.328C156.02 214.215 150.817 213.804 144.837 212.308C137.391 210.445 128.911 206.95 122.485 200.449C115.451 193.333 112.051 183.802 110.429 175.898C109.623 171.966 109.266 168.488 109.113 165.997C109.067 165.252 109.042 164.597 109.025 164.045C109.576 164.068 110.231 164.102 110.975 164.156C113.464 164.339 116.938 164.734 120.86 165.586C128.744 167.299 138.236 170.81 145.27 177.926C152.304 185.042 155.705 194.573 157.326 202.477C158.133 206.409 158.488 209.887 158.642 212.378C158.688 213.122 158.714 213.777 158.73 214.328ZM158.707 218.397C158.684 218.948 158.65 219.602 158.596 220.346C158.413 222.835 158.018 226.309 157.166 230.231C155.453 238.115 151.942 247.607 144.826 254.641C137.71 261.676 128.179 265.077 120.275 266.698C116.343 267.505 112.865 267.86 110.374 268.014C109.63 268.06 108.975 268.085 108.423 268.101C108.446 267.55 108.479 266.895 108.533 266.151C108.716 263.662 109.112 260.188 109.964 256.266C111.677 248.382 115.187 238.891 122.303 231.857C128.804 225.43 137.324 222.033 144.791 220.257C150.788 218.83 155.995 218.478 158.707 218.397ZM160.375 216.385C160.323 216.386 160.272 216.388 160.223 216.389L160.224 216.354L160.376 216.359L160.375 216.385Z" stroke="url(#paint8_linear_842_422)" stroke-width="4"/>
</g>
<g filter="url(#filter1_ii_842_422)">
<path d="M107.528 54.2667C107.48 54.2654 107.43 54.2651 107.379 54.2637V54.2364C107.43 54.2351 107.48 54.2337 107.528 54.2325V54.2667ZM159.029 2.22076C159.01 2.77208 158.98 3.42763 158.93 4.17194C158.761 6.66204 158.386 10.1383 157.557 14.0655C155.889 21.9595 152.434 31.471 145.358 38.546C138.895 45.0099 130.395 48.4558 122.938 50.2755C116.95 51.737 111.745 52.118 109.034 52.2149C109.054 51.664 109.083 51.0091 109.133 50.2657C109.301 47.7756 109.677 44.2993 110.507 40.3721C112.174 32.4783 115.629 22.9668 122.704 15.8917C129.779 8.81648 139.292 5.36054 147.186 3.69342C151.112 2.86414 154.588 2.48866 157.078 2.32037C157.822 2.27008 158.478 2.24047 159.029 2.22076ZM159.029 106.278C158.478 106.259 157.822 106.23 157.078 106.18C154.588 106.011 151.112 105.636 147.186 104.807C139.292 103.14 129.779 99.6839 122.704 92.6085C115.629 85.5332 112.174 76.021 110.507 68.127C109.677 64.1998 109.301 60.7235 109.133 58.2335C109.083 57.4898 109.054 56.8352 109.034 56.2842C111.745 56.3813 116.95 56.7631 122.938 58.2247C130.395 60.0443 138.895 63.4904 145.358 69.9542C152.434 77.0293 155.889 86.5407 157.557 94.4346C158.386 98.3618 158.761 101.838 158.93 104.328C158.98 105.072 159.01 105.727 159.029 106.278Z" stroke="url(#paint9_linear_842_422)" stroke-width="4"/>
<path d="M106.168 52.3274C103.458 52.2149 98.2547 51.8039 92.2738 50.3075C84.8283 48.4448 76.3482 44.9498 69.9221 38.4485C62.8881 31.3328 59.4881 21.8014 57.8666 13.8979C57.06 9.96605 56.7037 6.48764 56.5498 3.9966C56.5038 3.25203 56.479 2.5963 56.4625 2.04489C57.0135 2.06778 57.6685 2.1012 58.4121 2.15578C60.9012 2.33847 64.3752 2.73396 68.2975 3.58603C76.1817 5.29881 85.6729 8.80978 92.707 15.9257C99.7411 23.0417 103.142 32.5728 104.763 40.4763C105.57 44.4082 105.925 47.8866 106.079 50.3776C106.125 51.1214 106.151 51.7764 106.168 52.3274ZM106.144 56.3967C106.121 56.9475 106.088 57.6019 106.033 58.3453C105.85 60.8343 105.455 64.3084 104.603 68.2307C102.89 76.1149 99.3792 85.607 92.2632 92.6412C85.1472 99.6754 75.616 103.076 67.7126 104.698C63.7807 105.504 60.3023 105.86 57.8113 106.013C57.0671 106.059 56.4118 106.084 55.8606 106.101C55.8835 105.55 55.9159 104.895 55.9705 104.151C56.1532 101.662 56.5496 98.1881 57.4017 94.2657C59.1145 86.3816 62.6245 76.8903 69.7404 69.8562C76.2414 63.43 84.7613 60.0331 92.2278 58.2566C98.2255 56.8296 103.433 56.478 106.144 56.3967ZM107.812 54.3848C107.76 54.3858 107.709 54.3878 107.661 54.3888L107.661 54.3536L107.813 54.3584L107.812 54.3848Z" stroke="url(#paint10_linear_842_422)" stroke-width="4"/>
<path d="M214.528 162.267C214.48 162.265 214.43 162.265 214.379 162.264V162.236C214.43 162.235 214.48 162.234 214.528 162.232V162.267ZM266.029 110.221C266.01 110.772 265.98 111.428 265.93 112.172C265.761 114.662 265.386 118.138 264.557 122.065C262.889 129.959 259.434 139.471 252.358 146.546C245.895 153.01 237.395 156.456 229.938 158.275C223.95 159.737 218.745 160.118 216.034 160.215C216.054 159.664 216.083 159.009 216.133 158.266C216.301 155.776 216.677 152.299 217.507 148.372C219.174 140.478 222.629 130.967 229.704 123.892C236.779 116.816 246.292 113.36 254.186 111.693C258.112 110.864 261.588 110.489 264.078 110.32C264.822 110.27 265.478 110.24 266.029 110.221ZM266.029 214.278C265.478 214.259 264.822 214.23 264.078 214.18C261.588 214.011 258.112 213.636 254.186 212.807C246.292 211.14 236.779 207.684 229.704 200.608C222.629 193.533 219.174 184.021 217.507 176.127C216.677 172.2 216.301 168.723 216.133 166.233C216.083 165.49 216.054 164.835 216.034 164.284C218.745 164.381 223.95 164.763 229.938 166.225C237.395 168.044 245.895 171.49 252.358 177.954C259.434 185.029 262.889 194.541 264.557 202.435C265.386 206.362 265.761 209.838 265.93 212.328C265.98 213.072 266.01 213.727 266.029 214.278Z" stroke="url(#paint11_linear_842_422)" stroke-width="4"/>
<path d="M213.168 160.327C210.458 160.215 205.255 159.804 199.274 158.307C191.829 156.445 183.348 152.95 176.922 146.448C169.888 139.333 166.488 129.801 164.867 121.898C164.06 117.966 163.704 114.488 163.55 111.997C163.504 111.252 163.479 110.596 163.463 110.045C164.014 110.068 164.669 110.101 165.412 110.156C167.901 110.338 171.375 110.734 175.298 111.586C183.182 113.299 192.673 116.81 199.707 123.926C206.741 131.042 210.142 140.573 211.764 148.476C212.57 152.408 212.926 155.887 213.079 158.378C213.125 159.121 213.151 159.776 213.168 160.327ZM213.144 164.397C213.121 164.947 213.088 165.602 213.033 166.345C212.851 168.834 212.455 172.308 211.603 176.231C209.89 184.115 206.379 193.607 199.263 200.641C192.147 207.675 182.616 211.076 174.713 212.698C170.781 213.504 167.303 213.859 164.812 214.013C164.067 214.059 163.412 214.084 162.861 214.101C162.884 213.55 162.916 212.895 162.971 212.151C163.153 209.662 163.55 206.188 164.402 202.266C166.115 194.382 169.625 184.89 176.741 177.856C183.242 171.43 191.762 168.033 199.228 166.257C205.226 164.83 210.433 164.478 213.144 164.397ZM214.812 162.385C214.76 162.386 214.71 162.388 214.661 162.389L214.661 162.354L214.813 162.358L214.812 162.385Z" stroke="url(#paint12_linear_842_422)" stroke-width="4"/>
<path d="M214.53 270.272C214.482 270.271 214.432 270.271 214.381 270.269V270.242C214.432 270.241 214.482 270.239 214.53 270.238V270.272ZM266.031 218.226C266.012 218.778 265.982 219.433 265.932 220.177C265.763 222.668 265.388 226.144 264.559 230.071C262.891 237.965 259.435 247.477 252.36 254.552C245.897 261.015 237.397 264.461 229.94 266.281C223.952 267.743 218.747 268.124 216.036 268.22C216.056 267.67 216.085 267.015 216.135 266.271C216.303 263.781 216.679 260.305 217.509 256.378C219.176 248.484 222.631 238.972 229.706 231.897C236.781 224.822 246.294 221.366 254.188 219.699C258.114 218.87 261.59 218.494 264.08 218.326C264.824 218.276 265.48 218.246 266.031 218.226ZM266.031 322.284C265.48 322.264 264.824 322.236 264.08 322.185C261.59 322.017 258.114 321.642 254.188 320.812C246.294 319.145 236.781 315.689 229.706 308.614C222.631 301.539 219.176 292.027 217.509 284.133C216.679 280.205 216.303 276.729 216.135 274.239C216.085 273.495 216.056 272.841 216.036 272.29C218.747 272.387 223.952 272.769 229.94 274.23C237.397 276.05 245.897 279.496 252.36 285.96C259.435 293.035 262.891 302.546 264.559 310.44C265.388 314.367 265.763 317.844 265.932 320.334C265.982 321.078 266.012 321.733 266.031 322.284Z" stroke="url(#paint13_linear_842_422)" stroke-width="4"/>
<path d="M374.029 110.033C374.01 110.585 373.98 111.24 373.93 111.984C373.761 114.474 373.386 117.951 372.557 121.878C370.889 129.772 367.434 139.283 360.358 146.358C353.902 152.815 345.293 156.247 337.714 158.054C331.985 159.419 326.951 159.829 324.088 159.95C324.106 159.405 324.135 158.758 324.183 158.025C324.346 155.541 324.714 152.073 325.536 148.153C327.189 140.275 330.629 130.779 337.704 123.704C344.779 116.629 354.292 113.173 362.186 111.506C366.112 110.677 369.588 110.301 372.078 110.133C372.822 110.083 373.478 110.053 374.029 110.033Z" stroke="url(#paint14_linear_842_422)" stroke-width="4"/>
<path d="M321.536 162.079C321.584 162.078 321.634 162.077 321.686 162.076V162.049C321.634 162.048 321.584 162.046 321.536 162.045V162.079ZM270.035 110.033C270.055 110.585 270.084 111.24 270.135 111.984C270.303 114.474 270.678 117.951 271.508 121.878C273.175 129.772 276.631 139.283 283.706 146.358C290.17 152.822 298.67 156.268 306.126 158.088C312.115 159.549 317.319 159.93 320.03 160.027C320.011 159.476 319.982 158.822 319.932 158.078C319.763 155.588 319.387 152.112 318.558 148.185C316.89 140.291 313.435 130.779 306.36 123.704C299.285 116.629 289.773 113.173 281.879 111.506C277.952 110.677 274.476 110.301 271.986 110.133C271.242 110.083 270.586 110.053 270.035 110.033ZM270.035 214.091C270.586 214.071 271.242 214.042 271.986 213.992C274.476 213.824 277.952 213.448 281.879 212.619C289.773 210.952 299.285 207.496 306.36 200.421C313.436 193.346 316.89 183.833 318.558 175.939C319.387 172.012 319.763 168.536 319.932 166.046C319.982 165.302 320.011 164.648 320.03 164.097C317.319 164.194 312.115 164.576 306.126 166.037C298.67 167.857 290.17 171.303 283.706 177.767C276.631 184.842 273.175 194.353 271.508 202.247C270.678 206.174 270.303 209.651 270.135 212.141C270.084 212.885 270.055 213.54 270.035 214.091Z" stroke="url(#paint15_linear_842_422)" stroke-width="4"/>
<path d="M53.5342 108.079C53.5824 108.078 53.6322 108.077 53.6836 108.076V108.049C53.6322 108.048 53.5824 108.046 53.5342 108.045V108.079ZM2.0332 56.0332C2.05291 56.5845 2.08251 57.2401 2.13281 57.9844C2.30112 60.4745 2.67647 63.9508 3.50586 67.8779C5.17305 75.7719 8.62899 85.2834 15.7041 92.3584C22.1678 98.8223 30.6679 102.268 38.124 104.088C44.1127 105.549 49.3173 105.93 52.0283 106.027C52.0086 105.476 51.9799 104.822 51.9297 104.078C51.7614 101.588 51.3851 98.1117 50.5557 94.1846C48.8885 86.2907 45.4334 76.7793 38.3584 69.7041C31.2832 62.6289 21.771 59.173 13.877 57.5059C9.95005 56.6766 6.47435 56.3011 3.98438 56.1328C3.24008 56.0825 2.58451 56.0529 2.0332 56.0332ZM2.0332 160.091C2.58451 160.071 3.24009 160.042 3.98438 159.992C6.47434 159.824 9.95005 159.448 13.877 158.619C21.7709 156.952 31.2832 153.496 38.3584 146.421C45.4336 139.346 48.8885 129.833 50.5557 121.939C51.3851 118.012 51.7614 114.536 51.9297 112.046C51.9799 111.302 52.0086 110.648 52.0283 110.097C49.3172 110.194 44.1126 110.576 38.124 112.037C30.6679 113.857 22.1678 117.303 15.7041 123.767C8.62899 130.842 5.17304 140.353 3.50586 148.247C2.67646 152.174 2.30112 155.651 2.13281 158.141C2.08254 158.885 2.05291 159.54 2.0332 160.091Z" stroke="url(#paint16_linear_842_422)" stroke-width="4"/>
<path d="M158.73 214.328C156.02 214.215 150.817 213.804 144.837 212.308C137.391 210.445 128.911 206.95 122.485 200.449C115.451 193.333 112.051 183.802 110.429 175.898C109.623 171.966 109.266 168.488 109.113 165.997C109.067 165.252 109.042 164.597 109.025 164.045C109.576 164.068 110.231 164.102 110.975 164.156C113.464 164.339 116.938 164.734 120.86 165.586C128.744 167.299 138.236 170.81 145.27 177.926C152.304 185.042 155.705 194.573 157.326 202.477C158.133 206.409 158.488 209.887 158.642 212.378C158.688 213.122 158.714 213.777 158.73 214.328ZM158.707 218.397C158.684 218.948 158.65 219.602 158.596 220.346C158.413 222.835 158.018 226.309 157.166 230.231C155.453 238.115 151.942 247.607 144.826 254.641C137.71 261.676 128.179 265.077 120.275 266.698C116.343 267.505 112.865 267.86 110.374 268.014C109.63 268.06 108.975 268.085 108.423 268.101C108.446 267.55 108.479 266.895 108.533 266.151C108.716 263.662 109.112 260.188 109.964 256.266C111.677 248.382 115.187 238.891 122.303 231.857C128.804 225.43 137.324 222.033 144.791 220.257C150.788 218.83 155.995 218.478 158.707 218.397ZM160.375 216.385C160.323 216.386 160.272 216.388 160.223 216.389L160.224 216.354L160.376 216.359L160.375 216.385Z" stroke="url(#paint17_linear_842_422)" stroke-width="4"/>
</g>
</g>
<defs>
<filter id="filter0_ii_842_422" x="0" y="-0.797925" width="376.062" height="325.116" filterUnits="userSpaceOnUse" color-interpolation-filters="sRGB">
<feFlood flood-opacity="0" result="BackgroundImageFix"/>
<feBlend mode="normal" in="SourceGraphic" in2="BackgroundImageFix" result="shape"/>
<feColorMatrix in="SourceAlpha" type="matrix" values="0 0 0 0 0 0 0 0 0 0 0 0 0 0 0 0 0 0 127 0" result="hardAlpha"/>
<feOffset dy="-1"/>
<feGaussianBlur stdDeviation="0.4"/>
<feComposite in2="hardAlpha" operator="arithmetic" k2="-1" k3="1"/>
<feColorMatrix type="matrix" values="0 0 0 0 0.984314 0 0 0 0 0.521569 0 0 0 0 0.00392157 0 0 0 1 0"/>
<feBlend mode="normal" in2="shape" result="effect1_innerShadow_842_422"/>
<feColorMatrix in="SourceAlpha" type="matrix" values="0 0 0 0 0 0 0 0 0 0 0 0 0 0 0 0 0 0 127 0" result="hardAlpha"/>
<feOffset dy="1"/>
<feComposite in2="hardAlpha" operator="arithmetic" k2="-1" k3="1"/>
<feColorMatrix type="matrix" values="0 0 0 0 1 0 0 0 0 1 0 0 0 0 1 0 0 0 1 0"/>
<feBlend mode="normal" in2="effect1_innerShadow_842_422" result="effect2_innerShadow_842_422"/>
</filter>
<filter id="filter1_ii_842_422" x="0" y="-0.797925" width="376.062" height="325.116" filterUnits="userSpaceOnUse" color-interpolation-filters="sRGB">
<feFlood flood-opacity="0" result="BackgroundImageFix"/>
<feBlend mode="normal" in="SourceGraphic" in2="BackgroundImageFix" result="shape"/>
<feColorMatrix in="SourceAlpha" type="matrix" values="0 0 0 0 0 0 0 0 0 0 0 0 0 0 0 0 0 0 127 0" result="hardAlpha"/>
<feOffset dy="-1"/>
<feGaussianBlur stdDeviation="0.4"/>
<feComposite in2="hardAlpha" operator="arithmetic" k2="-1" k3="1"/>
<feColorMatrix type="matrix" values="0 0 0 0 0.984314 0 0 0 0 0.521569 0 0 0 0 0.00392157 0 0 0 1 0"/>
<feBlend mode="normal" in2="shape" result="effect1_innerShadow_842_422"/>
<feColorMatrix in="SourceAlpha" type="matrix" values="0 0 0 0 0 0 0 0 0 0 0 0 0 0 0 0 0 0 127 0" result="hardAlpha"/>
<feOffset dy="1"/>
<feComposite in2="hardAlpha" operator="arithmetic" k2="-1" k3="1"/>
<feColorMatrix type="matrix" values="0 0 0 0 1 0 0 0 0 1 0 0 0 0 1 0 0 0 1 0"/>
<feBlend mode="normal" in2="effect1_innerShadow_842_422" result="effect2_innerShadow_842_422"/>
</filter>
<linearGradient id="paint0_linear_842_422" x1="134.031" y1="0.187561" x2="134.031" y2="108.312" gradientUnits="userSpaceOnUse">
<stop stop-color="#FFC446"/>
<stop offset="1" stop-color="#FCF0D6"/>
</linearGradient>
<linearGradient id="paint1_linear_842_422" x1="81.4709" y1="0.156317" x2="80.8455" y2="108.279" gradientUnits="userSpaceOnUse">
<stop stop-color="#FFC446"/>
<stop offset="1" stop-color="#FCF0D6"/>
</linearGradient>
<linearGradient id="paint2_linear_842_422" x1="241.031" y1="108.188" x2="241.031" y2="216.312" gradientUnits="userSpaceOnUse">
<stop stop-color="#FFC446"/>
<stop offset="1" stop-color="#FCF0D6"/>
</linearGradient>
<linearGradient id="paint3_linear_842_422" x1="188.471" y1="108.156" x2="187.846" y2="216.279" gradientUnits="userSpaceOnUse">
<stop stop-color="#FFC446"/>
<stop offset="1" stop-color="#FCF0D6"/>
</linearGradient>
<linearGradient id="paint4_linear_842_422" x1="241.033" y1="216.193" x2="241.033" y2="324.318" gradientUnits="userSpaceOnUse">
<stop stop-color="#FFC446"/>
<stop offset="1" stop-color="#FCF0D6"/>
</linearGradient>
<linearGradient id="paint5_linear_842_422" x1="349.06" y1="108" x2="349.06" y2="162" gradientUnits="userSpaceOnUse">
<stop stop-color="#FFC446"/>
<stop offset="1" stop-color="#FCF0D6"/>
</linearGradient>
<linearGradient id="paint6_linear_842_422" x1="295.033" y1="108" x2="295.033" y2="216.125" gradientUnits="userSpaceOnUse">
<stop stop-color="#FFC446"/>
<stop offset="1" stop-color="#FCF0D6"/>
</linearGradient>
<linearGradient id="paint7_linear_842_422" x1="27.0312" y1="54" x2="27.0312" y2="162.125" gradientUnits="userSpaceOnUse">
<stop stop-color="#FFC446"/>
<stop offset="1" stop-color="#FCF0D6"/>
</linearGradient>
<linearGradient id="paint8_linear_842_422" x1="134.034" y1="162.157" x2="133.408" y2="270.28" gradientUnits="userSpaceOnUse">
<stop stop-color="#FFC446"/>
<stop offset="1" stop-color="#FCF0D6"/>
</linearGradient>
<linearGradient id="paint9_linear_842_422" x1="134.031" y1="0.187561" x2="134.031" y2="108.312" gradientUnits="userSpaceOnUse">
<stop stop-color="#FFC446"/>
<stop offset="1" stop-color="#FCF0D6"/>
</linearGradient>
<linearGradient id="paint10_linear_842_422" x1="81.4709" y1="0.156317" x2="80.8455" y2="108.279" gradientUnits="userSpaceOnUse">
<stop stop-color="#FFC446"/>
<stop offset="1" stop-color="#FCF0D6"/>
</linearGradient>
<linearGradient id="paint11_linear_842_422" x1="241.031" y1="108.188" x2="241.031" y2="216.312" gradientUnits="userSpaceOnUse">
<stop stop-color="#FFC446"/>
<stop offset="1" stop-color="#FCF0D6"/>
</linearGradient>
<linearGradient id="paint12_linear_842_422" x1="188.471" y1="108.156" x2="187.846" y2="216.279" gradientUnits="userSpaceOnUse">
<stop stop-color="#FFC446"/>
<stop offset="1" stop-color="#FCF0D6"/>
</linearGradient>
<linearGradient id="paint13_linear_842_422" x1="241.033" y1="216.193" x2="241.033" y2="324.318" gradientUnits="userSpaceOnUse">
<stop stop-color="#FFC446"/>
<stop offset="1" stop-color="#FCF0D6"/>
</linearGradient>
<linearGradient id="paint14_linear_842_422" x1="349.06" y1="108" x2="349.06" y2="162" gradientUnits="userSpaceOnUse">
<stop stop-color="#FFC446"/>
<stop offset="1" stop-color="#FCF0D6"/>
</linearGradient>
<linearGradient id="paint15_linear_842_422" x1="295.033" y1="108" x2="295.033" y2="216.125" gradientUnits="userSpaceOnUse">
<stop stop-color="#FFC446"/>
<stop offset="1" stop-color="#FCF0D6"/>
</linearGradient>
<linearGradient id="paint16_linear_842_422" x1="27.0312" y1="54" x2="27.0312" y2="162.125" gradientUnits="userSpaceOnUse">
<stop stop-color="#FFC446"/>
<stop offset="1" stop-color="#FCF0D6"/>
</linearGradient>
<linearGradient id="paint17_linear_842_422" x1="134.034" y1="162.157" x2="133.408" y2="270.28" gradientUnits="userSpaceOnUse">
<stop stop-color="#FFC446"/>
<stop offset="1" stop-color="#FCF0D6"/>
</linearGradient>
</defs>
</svg>
