<svg width="113" height="55" viewBox="0 0 113 55" fill="none" xmlns="http://www.w3.org/2000/svg">
<g filter="url(#filter0_ii_309_6966)">
<circle cx="5.3999" cy="27.4998" r="4.5" fill="url(#paint0_linear_309_6966)"/>
</g>
<circle cx="5.3999" cy="27.4998" r="4.5" stroke="url(#paint1_linear_309_6966)" stroke-width="1.8"/>
<g filter="url(#filter1_ii_309_6966)">
<circle cx="107.4" cy="27.4998" r="4.5" fill="url(#paint2_linear_309_6966)"/>
</g>
<circle cx="107.4" cy="27.4998" r="4.5" stroke="url(#paint3_linear_309_6966)" stroke-width="1.8"/>
<mask id="path-3-inside-1_309_6966" fill="white">
<path d="M52.4427 52.3291C52.4427 52.8068 53.1584 53.6137 54.0321 54.1223C56.3655 55.4785 57.4218 55.3099 59.2547 53.2882C61.1202 51.2303 60.5417 50.9402 57.8795 52.6001C56.4427 53.4958 55.7061 53.494 54.2592 52.592C53.2601 51.9692 52.4427 51.8513 52.4427 52.3291Z"/>
<path d="M52.3737 50.8496C53.2983 50.6084 54.3292 50.8541 54.6643 51.3962C55.4309 52.6337 57.8923 52.6935 57.8923 51.4751C57.8923 50.9765 58.4808 50.5685 59.2011 50.5685C61.0312 50.5685 61.9168 48.817 61.6761 45.6685C61.3691 41.6461 59.8532 40.1856 57.8559 41.9888C56.5989 43.1247 56.1638 43.1773 55.7878 42.2381C55.5035 41.531 55.2692 41.7839 55.2074 42.8627C55.1139 44.49 54.974 44.4438 53.8414 42.4094L52.5798 40.143L51.5371 42.8627C50.9631 44.3585 50.7215 46.7247 51.0003 48.1208C51.3101 49.6728 51.1593 50.4443 50.6125 50.1071C50.1202 49.8034 49.657 48.2532 49.5817 46.6621C49.4491 43.8436 49.4354 43.8345 49.0621 46.3167C48.5971 49.4027 50.0894 51.4452 52.3737 50.8496Z"/>
<path d="M63.6016 46.9423C63.3237 47.6902 62.7206 49.118 62.261 50.1152C61.4381 51.8994 61.4481 51.9003 62.8378 50.1687C63.6143 49.2005 64.2174 47.7727 64.1783 46.9957C64.1166 45.7746 64.0376 45.7673 63.6016 46.9423Z"/>
<path d="M46.539 46.0357C45.7896 46.0357 45.1766 46.6476 45.1766 47.3955C45.1766 48.1435 45.7896 48.7554 46.539 48.7554C47.2883 48.7554 47.9014 48.1435 47.9014 47.3955C47.9014 46.6476 47.2883 46.0357 46.539 46.0357Z"/>
<path d="M66.5962 46.0357C65.8051 46.0357 65.1584 46.6812 65.1584 47.4708C65.1584 49.0718 67.1139 48.7935 67.6752 47.1118C67.8732 46.5198 67.3873 46.0357 66.5962 46.0357Z"/>
<path d="M38.8905 40.3053C38.8514 41.3913 39.4436 42.9035 40.2075 43.6659C41.5935 45.0502 47.2111 45.3168 46.3737 43.9588C46.1312 43.5644 45.2175 43.4683 44.3446 43.7448C42.7552 44.2488 40.4309 42.3179 39.4627 39.6897C39.1266 38.7759 38.9386 38.9771 38.8905 40.3053Z"/>
<path d="M64.7224 43.316C64.8859 44.0639 65.0503 44.7783 65.0884 44.9025C65.3427 45.7293 66.0221 44.9079 65.8396 43.9959C65.7151 43.3722 66.4309 42.8473 67.4299 42.8292C70.3255 42.7748 71.5162 41.5899 71.5162 38.7614C71.5162 37.0824 70.8777 35.786 69.7551 35.1859C67.8232 34.1542 67.0766 34.787 67.4572 37.1341C67.6279 38.1884 67.2664 38.4903 66.2819 38.1132C65.3509 37.756 65.0848 37.931 65.5108 38.6191C65.9495 39.328 65.6516 39.474 64.5934 39.0687C63.3282 38.5837 63.1611 38.8049 63.726 40.2119C64.1111 41.171 64.5589 42.5681 64.7224 43.316Z"/>
<path d="M68.3019 43.8808C67.4844 43.568 67.1166 43.7176 67.4354 44.2325C68.3273 45.674 71.1093 45.2669 72.7524 43.4547C73.9749 42.1066 74.1084 41.0922 73.439 38.2419L72.607 34.7036L72.5153 38.4459C72.4181 42.462 70.627 44.7719 68.3019 43.8808Z"/>
<path d="M41.0094 38.6744C40.7615 40.0179 41.1902 41.2545 42.1466 41.9525C44.1575 43.4202 48.261 42.316 48.6698 40.1974C48.8632 39.1956 48.6007 38.8049 47.9886 39.183C47.4409 39.5202 46.9931 39.3407 46.9931 38.7832C46.9931 38.2256 46.6307 37.9935 46.1875 38.2664C45.7442 38.5402 45.4382 38.0543 45.5063 37.1876C45.5844 36.194 44.875 35.5041 43.5871 35.321C42.4627 35.1614 41.5135 35.3654 41.4763 35.7733C41.4391 36.1822 41.2292 37.4877 41.0094 38.6744Z"/>
<path d="M36.5481 36.0634C35.7988 36.0634 35.1857 36.6754 35.1857 37.4233C35.1857 38.1712 35.7988 38.7832 36.5481 38.7832C37.2974 38.7832 37.9105 38.1712 37.9105 37.4233C37.9105 36.6754 37.2974 36.0634 36.5481 36.0634Z"/>
<path d="M76.162 36.0634C74.8559 36.0634 74.459 36.4814 74.8359 37.4614C75.4308 39.0089 77.1057 38.8185 77.6661 37.1396C77.8659 36.5421 77.1965 36.0634 76.162 36.0634Z"/>
<path d="M39.717 35.6165C39.2229 35.9211 38.8187 36.5539 38.8187 37.0235C38.8187 38.3271 39.4699 38.0398 40.0739 36.4696C40.3837 35.6627 40.2311 35.2992 39.717 35.6165Z"/>
<path d="M35.6671 34.0336C34.4336 33.7979 33.6398 33.9548 33.9041 34.3809C34.3691 35.1324 37.9105 35.5104 37.9105 34.8097C37.9105 34.6184 36.9014 34.2693 35.6671 34.0336Z"/>
<path d="M80.8795 30.4781C79.9058 32.1996 78.1256 33.7118 76.5117 34.1887C74.2392 34.8595 74.1284 35.0073 75.8468 35.0753C78.0539 35.1623 84.2319 29.5452 84.2319 27.4511C84.2319 25.3569 78.0539 19.7398 75.8468 19.8268C74.1366 19.8948 74.2501 20.0435 76.5153 20.7017C78.2165 21.1957 79.8595 22.6381 80.8822 24.5328C82.4635 27.4628 82.4635 27.6759 80.8795 30.4781Z"/>
<path d="M71.5299 31.9884C72.5362 32.3066 73.1611 32.8878 72.9195 33.2785C72.677 33.6683 73.5907 33.7898 74.9495 33.5477C77.3509 33.1189 81.4417 29.2778 81.4417 27.4511C81.4417 25.6243 77.3509 21.7832 74.9495 21.3544C73.5907 21.1123 72.667 21.2166 72.8959 21.5865C73.1248 21.9564 72.4999 22.4713 71.5062 22.7306C70.429 23.0116 69.6997 23.968 69.6997 25.0994C69.6997 26.5327 70.311 27.0313 72.1974 27.1338L74.6951 27.2697L72.1974 27.6469C69.1983 28.1002 68.736 31.1036 71.5299 31.9884Z"/>
<path d="M32.5726 29.5643C33.2583 30.8951 34.2302 32.284 34.7297 32.6502C37.0194 34.3255 41.7279 32.5659 42.1384 29.8806C42.3927 28.2162 41.9749 27.8817 39.4945 27.7593L36.5481 27.6142L39.4854 27.2498C41.8787 26.9525 42.3691 26.5291 42.1293 24.9643C41.8378 23.056 39.7597 21.7442 36.8369 21.6218C35.9967 21.5874 34.4127 22.8149 33.3165 24.3515C31.5254 26.8627 31.45 27.3885 32.5726 29.5643Z"/>
<path d="M30.6444 24.0351C28.4046 25.9489 28.3138 28.6124 30.4173 30.6576C31.291 31.5079 32.1839 32.0455 32.4 31.8515C32.6171 31.6584 32.3101 31.0175 31.7188 30.4273C30.4091 29.12 30.3038 25.5019 31.5526 24.7314C32.0522 24.4231 32.4609 23.7912 32.4609 23.3271C32.4609 22.8629 31.6434 23.1811 30.6444 24.0351Z"/>
<path d="M36.6789 19.932C35.7515 19.7353 34.5962 19.971 34.1121 20.4542C33.5435 21.0217 34.1403 21.1486 35.7979 20.8104C37.6989 20.4242 37.9277 20.1958 36.6789 19.932Z"/>
<path d="M41.5363 19.456C42.7288 19.6373 43.9105 19.9927 44.163 20.2447C44.9586 21.038 46.2138 17.9675 45.5399 16.8787C45.1421 16.2368 45.2974 16.0863 45.9441 16.4861C46.5208 16.8415 46.9931 16.6765 46.9931 16.119C46.9931 15.5614 47.4409 15.3819 47.9886 15.7192C48.6007 16.0972 48.8632 15.7065 48.6698 14.7047C47.9958 11.2135 40.2038 11.8481 40.6834 15.3556C40.7751 16.0247 40.796 17.1842 40.7288 17.9321C40.6207 19.1405 40.5008 19.1405 39.6443 17.9321C38.8959 16.8769 38.7579 16.8578 39.0249 17.8487C39.2138 18.5513 40.3446 19.2747 41.5363 19.456Z"/>
<path d="M67.4672 17.7009C67.3255 18.5758 67.3863 19.5993 67.6016 19.9746C67.8169 20.3499 68.786 20.233 69.7551 19.7162C71.6643 18.6954 72.1811 14.4255 70.5871 12.8345C69.1338 11.384 64.4744 12.4447 63.9785 14.3385C63.5435 15.9975 65.5208 17.4697 66.9767 16.5704C67.3882 16.3175 67.6079 16.8261 67.4672 17.7009Z"/>
<path d="M68.3237 11.0123C70.8568 10.0422 73.2383 13.1472 72.8232 16.8769L72.4526 20.1985L73.3618 16.6602C74.1084 13.751 74.0003 12.8236 72.7524 11.4474C71.1093 9.63517 68.3273 9.22815 67.4354 10.6696C67.1148 11.1872 67.489 11.3323 68.3237 11.0123Z"/>
<path d="M36.5481 16.119C35.7988 16.119 35.1857 16.7309 35.1857 17.4788C35.1857 18.2267 35.7988 18.8387 36.5481 18.8387C37.2974 18.8387 37.9105 18.2267 37.9105 17.4788C37.9105 16.7309 37.2974 16.119 36.5481 16.119Z"/>
<path d="M77.6661 17.7617C77.1057 16.0836 75.4308 15.8932 74.8359 17.4407C74.459 18.4207 74.8559 18.8387 76.162 18.8387C77.1965 18.8387 77.8659 18.36 77.6661 17.7617Z"/>
<path d="M44.8087 10.8201C43.2193 8.25177 38.7742 11.083 38.8759 14.5968C38.9323 16.5251 38.9522 16.5278 39.6834 14.7274C40.7252 12.1609 43.0703 10.394 44.3691 11.1945C45.0576 11.6197 45.2193 11.4819 44.8087 10.8201Z"/>
<path d="M53.242 4.41063C50.4191 6.41777 50.0512 8.2146 51.6461 12.2071L52.6652 14.7591L53.8759 12.0394C55.0676 9.3605 55.0875 9.35324 55.2338 11.5861C55.3727 13.7093 55.4263 13.6803 56.0757 11.1328C56.5907 9.11391 56.7969 8.90992 56.8768 10.3423C57.024 12.9913 59.1566 14.7065 60.4081 13.1835C61.2837 12.1192 61.8605 8.92444 61.6261 6.43954C61.5707 5.85299 60.2501 4.73791 58.6915 3.96188C56.0412 2.64283 55.6897 2.67184 53.242 4.41063Z"/>
<path d="M50.3991 4.21755C49.4182 4.98632 48.8614 6.54743 48.9459 8.2971L49.0821 11.1328L49.4799 8.41314C49.6997 6.9173 50.3537 5.0815 50.9332 4.33358C51.8514 3.15051 51.7824 3.13511 50.3991 4.21755Z"/>
<path d="M46.539 6.14671C45.7896 6.14671 45.1766 6.75865 45.1766 7.50657C45.1766 8.25449 45.7896 8.86642 46.539 8.86642C47.2883 8.86642 47.9014 8.25449 47.9014 7.50657C47.9014 6.75865 47.2883 6.14671 46.539 6.14671Z"/>
<path d="M62.9004 4.73339C61.6652 3.12333 61.6343 3.22485 62.5353 5.92007C63.5635 8.99606 64.2501 9.70138 64.2501 7.67973C64.2501 7.027 63.6425 5.7016 62.9004 4.73339Z"/>
<path d="M66.1348 6.32076C65.598 6.14217 65.1584 6.67525 65.1584 7.50657C65.1584 8.33789 65.598 8.87096 66.1348 8.69237C66.6716 8.51378 67.1111 7.9798 67.1111 7.50657C67.1111 7.03334 66.6716 6.49936 66.1348 6.32076Z"/>
<path d="M54.7097 0.544136C53.4627 1.11074 52.4427 1.99554 52.4427 2.50866C52.4427 3.08342 53.142 3.00637 54.2592 2.31013C55.7197 1.39903 56.449 1.40992 57.9803 2.36544C60.548 3.96553 61.0657 3.20673 58.8024 1.16242C57.2928 -0.201057 56.5835 -0.308037 54.7097 0.544136Z"/>
<path fill-rule="evenodd" clip-rule="evenodd" d="M48.9967 36.5349C43.2374 31.6974 42.9631 24.4929 48.3364 19.1297C50.9386 16.5324 51.9577 16.1235 55.7578 16.1507C60.9504 16.1888 63.7106 17.5259 66.1157 21.1658C69.5398 26.3514 67.5998 34.5993 62.261 37.5566C58.5907 39.59 52.033 39.085 48.9967 36.5349ZM64.7042 27.4511C64.7042 30.9685 64.2719 32.0591 62.1557 33.8759C56.5453 38.6925 47.9014 34.9157 47.9014 27.6469C47.9014 19.883 56.2874 15.9884 62.1557 21.0262C64.2719 22.843 64.7042 23.9336 64.7042 27.4511ZM52.7342 34.079C50.0167 32.7681 48.2937 28.3649 49.3455 25.4194C51.3319 19.8531 57.439 18.3863 61.548 22.4876C63.6833 24.6189 63.964 27.1791 61.9795 26.4194C61.0948 26.0803 60.6171 26.442 60.6171 27.4511C60.6171 28.4601 61.0948 28.8218 61.9795 28.4827C65.0666 27.3006 62.9631 32.1171 59.6434 33.8306C56.6806 35.3599 55.4781 35.4035 52.7342 34.079ZM51.6707 27.4511C51.6707 26.9778 51.2311 26.4438 50.6943 26.2653C50.1575 26.0867 49.7179 26.6197 49.7179 27.4511C49.7179 28.2824 50.1575 28.8155 50.6943 28.6369C51.2311 28.4583 51.6707 27.9243 51.6707 27.4511ZM51.5344 31.0021C51.5344 29.4011 53.4899 29.6794 54.0512 31.3602C54.2492 31.9531 53.7633 32.4372 52.9722 32.4372C52.1811 32.4372 51.5344 31.7917 51.5344 31.0021ZM57.1202 32.8905C57.1202 32.4172 56.6806 31.8833 56.1439 31.7047C55.6071 31.5261 55.1675 32.0591 55.1675 32.8905C55.1675 33.7218 55.6071 34.2549 56.1439 34.0763C56.6806 33.8977 57.1202 33.3637 57.1202 32.8905ZM56.1439 26.2653C56.6806 26.4438 57.1202 26.9778 57.1202 27.4511C57.1202 27.9243 56.6806 28.4583 56.1439 28.6369C55.6071 28.8155 55.1675 28.2824 55.1675 27.4511C55.1675 26.6197 55.6071 26.0867 56.1439 26.2653ZM61.3509 31.4626C61.172 30.9268 60.637 30.4881 60.1629 30.4881C59.6888 30.4881 59.1538 30.9268 58.9749 31.4626C58.796 31.9984 59.33 32.4372 60.1629 32.4372C60.9958 32.4372 61.5299 31.9984 61.3509 31.4626ZM60.1629 22.4649C60.9122 22.4649 61.5253 22.8484 61.5253 23.318C61.5253 24.4612 60.1066 25.2798 59.3809 24.5555C58.3582 23.5347 58.7587 22.4649 60.1629 22.4649ZM57.6843 22.2945C57.123 20.6137 55.1675 20.3354 55.1675 21.9364C55.1675 22.726 55.8142 23.3715 56.6053 23.3715C57.3964 23.3715 57.8823 22.8874 57.6843 22.2945ZM52.5108 22.639C53.0476 22.8176 53.4872 23.3516 53.4872 23.8248C53.4872 24.298 53.0476 24.832 52.5108 25.0106C51.974 25.1892 51.5344 24.6561 51.5344 23.8248C51.5344 22.9935 51.974 22.4604 52.5108 22.639Z"/>
</mask>
<path d="M52.4427 52.3291C52.4427 52.8068 53.1584 53.6137 54.0321 54.1223C56.3655 55.4785 57.4218 55.3099 59.2547 53.2882C61.1202 51.2303 60.5417 50.9402 57.8795 52.6001C56.4427 53.4958 55.7061 53.494 54.2592 52.592C53.2601 51.9692 52.4427 51.8513 52.4427 52.3291Z" fill="url(#paint4_linear_309_6966)" fill-opacity="0.4"/>
<path d="M52.3737 50.8496C53.2983 50.6084 54.3292 50.8541 54.6643 51.3962C55.4309 52.6337 57.8923 52.6935 57.8923 51.4751C57.8923 50.9765 58.4808 50.5685 59.2011 50.5685C61.0312 50.5685 61.9168 48.817 61.6761 45.6685C61.3691 41.6461 59.8532 40.1856 57.8559 41.9888C56.5989 43.1247 56.1638 43.1773 55.7878 42.2381C55.5035 41.531 55.2692 41.7839 55.2074 42.8627C55.1139 44.49 54.974 44.4438 53.8414 42.4094L52.5798 40.143L51.5371 42.8627C50.9631 44.3585 50.7215 46.7247 51.0003 48.1208C51.3101 49.6728 51.1593 50.4443 50.6125 50.1071C50.1202 49.8034 49.657 48.2532 49.5817 46.6621C49.4491 43.8436 49.4354 43.8345 49.0621 46.3167C48.5971 49.4027 50.0894 51.4452 52.3737 50.8496Z" fill="url(#paint5_linear_309_6966)" fill-opacity="0.4"/>
<path d="M63.6016 46.9423C63.3237 47.6902 62.7206 49.118 62.261 50.1152C61.4381 51.8994 61.4481 51.9003 62.8378 50.1687C63.6143 49.2005 64.2174 47.7727 64.1783 46.9957C64.1166 45.7746 64.0376 45.7673 63.6016 46.9423Z" fill="url(#paint6_linear_309_6966)" fill-opacity="0.4"/>
<path d="M46.539 46.0357C45.7896 46.0357 45.1766 46.6476 45.1766 47.3955C45.1766 48.1435 45.7896 48.7554 46.539 48.7554C47.2883 48.7554 47.9014 48.1435 47.9014 47.3955C47.9014 46.6476 47.2883 46.0357 46.539 46.0357Z" fill="url(#paint7_linear_309_6966)" fill-opacity="0.4"/>
<path d="M66.5962 46.0357C65.8051 46.0357 65.1584 46.6812 65.1584 47.4708C65.1584 49.0718 67.1139 48.7935 67.6752 47.1118C67.8732 46.5198 67.3873 46.0357 66.5962 46.0357Z" fill="url(#paint8_linear_309_6966)" fill-opacity="0.4"/>
<path d="M38.8905 40.3053C38.8514 41.3913 39.4436 42.9035 40.2075 43.6659C41.5935 45.0502 47.2111 45.3168 46.3737 43.9588C46.1312 43.5644 45.2175 43.4683 44.3446 43.7448C42.7552 44.2488 40.4309 42.3179 39.4627 39.6897C39.1266 38.7759 38.9386 38.9771 38.8905 40.3053Z" fill="url(#paint9_linear_309_6966)" fill-opacity="0.4"/>
<path d="M64.7224 43.316C64.8859 44.0639 65.0503 44.7783 65.0884 44.9025C65.3427 45.7293 66.0221 44.9079 65.8396 43.9959C65.7151 43.3722 66.4309 42.8473 67.4299 42.8292C70.3255 42.7748 71.5162 41.5899 71.5162 38.7614C71.5162 37.0824 70.8777 35.786 69.7551 35.1859C67.8232 34.1542 67.0766 34.787 67.4572 37.1341C67.6279 38.1884 67.2664 38.4903 66.2819 38.1132C65.3509 37.756 65.0848 37.931 65.5108 38.6191C65.9495 39.328 65.6516 39.474 64.5934 39.0687C63.3282 38.5837 63.1611 38.8049 63.726 40.2119C64.1111 41.171 64.5589 42.5681 64.7224 43.316Z" fill="url(#paint10_linear_309_6966)" fill-opacity="0.4"/>
<path d="M68.3019 43.8808C67.4844 43.568 67.1166 43.7176 67.4354 44.2325C68.3273 45.674 71.1093 45.2669 72.7524 43.4547C73.9749 42.1066 74.1084 41.0922 73.439 38.2419L72.607 34.7036L72.5153 38.4459C72.4181 42.462 70.627 44.7719 68.3019 43.8808Z" fill="url(#paint11_linear_309_6966)" fill-opacity="0.4"/>
<path d="M41.0094 38.6744C40.7615 40.0179 41.1902 41.2545 42.1466 41.9525C44.1575 43.4202 48.261 42.316 48.6698 40.1974C48.8632 39.1956 48.6007 38.8049 47.9886 39.183C47.4409 39.5202 46.9931 39.3407 46.9931 38.7832C46.9931 38.2256 46.6307 37.9935 46.1875 38.2664C45.7442 38.5402 45.4382 38.0543 45.5063 37.1876C45.5844 36.194 44.875 35.5041 43.5871 35.321C42.4627 35.1614 41.5135 35.3654 41.4763 35.7733C41.4391 36.1822 41.2292 37.4877 41.0094 38.6744Z" fill="url(#paint12_linear_309_6966)" fill-opacity="0.4"/>
<path d="M36.5481 36.0634C35.7988 36.0634 35.1857 36.6754 35.1857 37.4233C35.1857 38.1712 35.7988 38.7832 36.5481 38.7832C37.2974 38.7832 37.9105 38.1712 37.9105 37.4233C37.9105 36.6754 37.2974 36.0634 36.5481 36.0634Z" fill="url(#paint13_linear_309_6966)" fill-opacity="0.4"/>
<path d="M76.162 36.0634C74.8559 36.0634 74.459 36.4814 74.8359 37.4614C75.4308 39.0089 77.1057 38.8185 77.6661 37.1396C77.8659 36.5421 77.1965 36.0634 76.162 36.0634Z" fill="url(#paint14_linear_309_6966)" fill-opacity="0.4"/>
<path d="M39.717 35.6165C39.2229 35.9211 38.8187 36.5539 38.8187 37.0235C38.8187 38.3271 39.4699 38.0398 40.0739 36.4696C40.3837 35.6627 40.2311 35.2992 39.717 35.6165Z" fill="url(#paint15_linear_309_6966)" fill-opacity="0.4"/>
<path d="M35.6671 34.0336C34.4336 33.7979 33.6398 33.9548 33.9041 34.3809C34.3691 35.1324 37.9105 35.5104 37.9105 34.8097C37.9105 34.6184 36.9014 34.2693 35.6671 34.0336Z" fill="url(#paint16_linear_309_6966)" fill-opacity="0.4"/>
<path d="M80.8795 30.4781C79.9058 32.1996 78.1256 33.7118 76.5117 34.1887C74.2392 34.8595 74.1284 35.0073 75.8468 35.0753C78.0539 35.1623 84.2319 29.5452 84.2319 27.4511C84.2319 25.3569 78.0539 19.7398 75.8468 19.8268C74.1366 19.8948 74.2501 20.0435 76.5153 20.7017C78.2165 21.1957 79.8595 22.6381 80.8822 24.5328C82.4635 27.4628 82.4635 27.6759 80.8795 30.4781Z" fill="url(#paint17_linear_309_6966)" fill-opacity="0.4"/>
<path d="M71.5299 31.9884C72.5362 32.3066 73.1611 32.8878 72.9195 33.2785C72.677 33.6683 73.5907 33.7898 74.9495 33.5477C77.3509 33.1189 81.4417 29.2778 81.4417 27.4511C81.4417 25.6243 77.3509 21.7832 74.9495 21.3544C73.5907 21.1123 72.667 21.2166 72.8959 21.5865C73.1248 21.9564 72.4999 22.4713 71.5062 22.7306C70.429 23.0116 69.6997 23.968 69.6997 25.0994C69.6997 26.5327 70.311 27.0313 72.1974 27.1338L74.6951 27.2697L72.1974 27.6469C69.1983 28.1002 68.736 31.1036 71.5299 31.9884Z" fill="url(#paint18_linear_309_6966)" fill-opacity="0.4"/>
<path d="M32.5726 29.5643C33.2583 30.8951 34.2302 32.284 34.7297 32.6502C37.0194 34.3255 41.7279 32.5659 42.1384 29.8806C42.3927 28.2162 41.9749 27.8817 39.4945 27.7593L36.5481 27.6142L39.4854 27.2498C41.8787 26.9525 42.3691 26.5291 42.1293 24.9643C41.8378 23.056 39.7597 21.7442 36.8369 21.6218C35.9967 21.5874 34.4127 22.8149 33.3165 24.3515C31.5254 26.8627 31.45 27.3885 32.5726 29.5643Z" fill="url(#paint19_linear_309_6966)" fill-opacity="0.4"/>
<path d="M30.6444 24.0351C28.4046 25.9489 28.3138 28.6124 30.4173 30.6576C31.291 31.5079 32.1839 32.0455 32.4 31.8515C32.6171 31.6584 32.3101 31.0175 31.7188 30.4273C30.4091 29.12 30.3038 25.5019 31.5526 24.7314C32.0522 24.4231 32.4609 23.7912 32.4609 23.3271C32.4609 22.8629 31.6434 23.1811 30.6444 24.0351Z" fill="url(#paint20_linear_309_6966)" fill-opacity="0.4"/>
<path d="M36.6789 19.932C35.7515 19.7353 34.5962 19.971 34.1121 20.4542C33.5435 21.0217 34.1403 21.1486 35.7979 20.8104C37.6989 20.4242 37.9277 20.1958 36.6789 19.932Z" fill="url(#paint21_linear_309_6966)" fill-opacity="0.4"/>
<path d="M41.5363 19.456C42.7288 19.6373 43.9105 19.9927 44.163 20.2447C44.9586 21.038 46.2138 17.9675 45.5399 16.8787C45.1421 16.2368 45.2974 16.0863 45.9441 16.4861C46.5208 16.8415 46.9931 16.6765 46.9931 16.119C46.9931 15.5614 47.4409 15.3819 47.9886 15.7192C48.6007 16.0972 48.8632 15.7065 48.6698 14.7047C47.9958 11.2135 40.2038 11.8481 40.6834 15.3556C40.7751 16.0247 40.796 17.1842 40.7288 17.9321C40.6207 19.1405 40.5008 19.1405 39.6443 17.9321C38.8959 16.8769 38.7579 16.8578 39.0249 17.8487C39.2138 18.5513 40.3446 19.2747 41.5363 19.456Z" fill="url(#paint22_linear_309_6966)" fill-opacity="0.4"/>
<path d="M67.4672 17.7009C67.3255 18.5758 67.3863 19.5993 67.6016 19.9746C67.8169 20.3499 68.786 20.233 69.7551 19.7162C71.6643 18.6954 72.1811 14.4255 70.5871 12.8345C69.1338 11.384 64.4744 12.4447 63.9785 14.3385C63.5435 15.9975 65.5208 17.4697 66.9767 16.5704C67.3882 16.3175 67.6079 16.8261 67.4672 17.7009Z" fill="url(#paint23_linear_309_6966)" fill-opacity="0.4"/>
<path d="M68.3237 11.0123C70.8568 10.0422 73.2383 13.1472 72.8232 16.8769L72.4526 20.1985L73.3618 16.6602C74.1084 13.751 74.0003 12.8236 72.7524 11.4474C71.1093 9.63517 68.3273 9.22815 67.4354 10.6696C67.1148 11.1872 67.489 11.3323 68.3237 11.0123Z" fill="url(#paint24_linear_309_6966)" fill-opacity="0.4"/>
<path d="M36.5481 16.119C35.7988 16.119 35.1857 16.7309 35.1857 17.4788C35.1857 18.2267 35.7988 18.8387 36.5481 18.8387C37.2974 18.8387 37.9105 18.2267 37.9105 17.4788C37.9105 16.7309 37.2974 16.119 36.5481 16.119Z" fill="url(#paint25_linear_309_6966)" fill-opacity="0.4"/>
<path d="M77.6661 17.7617C77.1057 16.0836 75.4308 15.8932 74.8359 17.4407C74.459 18.4207 74.8559 18.8387 76.162 18.8387C77.1965 18.8387 77.8659 18.36 77.6661 17.7617Z" fill="url(#paint26_linear_309_6966)" fill-opacity="0.4"/>
<path d="M44.8087 10.8201C43.2193 8.25177 38.7742 11.083 38.8759 14.5968C38.9323 16.5251 38.9522 16.5278 39.6834 14.7274C40.7252 12.1609 43.0703 10.394 44.3691 11.1945C45.0576 11.6197 45.2193 11.4819 44.8087 10.8201Z" fill="url(#paint27_linear_309_6966)" fill-opacity="0.4"/>
<path d="M53.242 4.41063C50.4191 6.41777 50.0512 8.2146 51.6461 12.2071L52.6652 14.7591L53.8759 12.0394C55.0676 9.3605 55.0875 9.35324 55.2338 11.5861C55.3727 13.7093 55.4263 13.6803 56.0757 11.1328C56.5907 9.11391 56.7969 8.90992 56.8768 10.3423C57.024 12.9913 59.1566 14.7065 60.4081 13.1835C61.2837 12.1192 61.8605 8.92444 61.6261 6.43954C61.5707 5.85299 60.2501 4.73791 58.6915 3.96188C56.0412 2.64283 55.6897 2.67184 53.242 4.41063Z" fill="url(#paint28_linear_309_6966)" fill-opacity="0.4"/>
<path d="M50.3991 4.21755C49.4182 4.98632 48.8614 6.54743 48.9459 8.2971L49.0821 11.1328L49.4799 8.41314C49.6997 6.9173 50.3537 5.0815 50.9332 4.33358C51.8514 3.15051 51.7824 3.13511 50.3991 4.21755Z" fill="url(#paint29_linear_309_6966)" fill-opacity="0.4"/>
<path d="M46.539 6.14671C45.7896 6.14671 45.1766 6.75865 45.1766 7.50657C45.1766 8.25449 45.7896 8.86642 46.539 8.86642C47.2883 8.86642 47.9014 8.25449 47.9014 7.50657C47.9014 6.75865 47.2883 6.14671 46.539 6.14671Z" fill="url(#paint30_linear_309_6966)" fill-opacity="0.4"/>
<path d="M62.9004 4.73339C61.6652 3.12333 61.6343 3.22485 62.5353 5.92007C63.5635 8.99606 64.2501 9.70138 64.2501 7.67973C64.2501 7.027 63.6425 5.7016 62.9004 4.73339Z" fill="url(#paint31_linear_309_6966)" fill-opacity="0.4"/>
<path d="M66.1348 6.32076C65.598 6.14217 65.1584 6.67525 65.1584 7.50657C65.1584 8.33789 65.598 8.87096 66.1348 8.69237C66.6716 8.51378 67.1111 7.9798 67.1111 7.50657C67.1111 7.03334 66.6716 6.49936 66.1348 6.32076Z" fill="url(#paint32_linear_309_6966)" fill-opacity="0.4"/>
<path d="M54.7097 0.544136C53.4627 1.11074 52.4427 1.99554 52.4427 2.50866C52.4427 3.08342 53.142 3.00637 54.2592 2.31013C55.7197 1.39903 56.449 1.40992 57.9803 2.36544C60.548 3.96553 61.0657 3.20673 58.8024 1.16242C57.2928 -0.201057 56.5835 -0.308037 54.7097 0.544136Z" fill="url(#paint33_linear_309_6966)" fill-opacity="0.4"/>
<path fill-rule="evenodd" clip-rule="evenodd" d="M48.9967 36.5349C43.2374 31.6974 42.9631 24.4929 48.3364 19.1297C50.9386 16.5324 51.9577 16.1235 55.7578 16.1507C60.9504 16.1888 63.7106 17.5259 66.1157 21.1658C69.5398 26.3514 67.5998 34.5993 62.261 37.5566C58.5907 39.59 52.033 39.085 48.9967 36.5349ZM64.7042 27.4511C64.7042 30.9685 64.2719 32.0591 62.1557 33.8759C56.5453 38.6925 47.9014 34.9157 47.9014 27.6469C47.9014 19.883 56.2874 15.9884 62.1557 21.0262C64.2719 22.843 64.7042 23.9336 64.7042 27.4511ZM52.7342 34.079C50.0167 32.7681 48.2937 28.3649 49.3455 25.4194C51.3319 19.8531 57.439 18.3863 61.548 22.4876C63.6833 24.6189 63.964 27.1791 61.9795 26.4194C61.0948 26.0803 60.6171 26.442 60.6171 27.4511C60.6171 28.4601 61.0948 28.8218 61.9795 28.4827C65.0666 27.3006 62.9631 32.1171 59.6434 33.8306C56.6806 35.3599 55.4781 35.4035 52.7342 34.079ZM51.6707 27.4511C51.6707 26.9778 51.2311 26.4438 50.6943 26.2653C50.1575 26.0867 49.7179 26.6197 49.7179 27.4511C49.7179 28.2824 50.1575 28.8155 50.6943 28.6369C51.2311 28.4583 51.6707 27.9243 51.6707 27.4511ZM51.5344 31.0021C51.5344 29.4011 53.4899 29.6794 54.0512 31.3602C54.2492 31.9531 53.7633 32.4372 52.9722 32.4372C52.1811 32.4372 51.5344 31.7917 51.5344 31.0021ZM57.1202 32.8905C57.1202 32.4172 56.6806 31.8833 56.1439 31.7047C55.6071 31.5261 55.1675 32.0591 55.1675 32.8905C55.1675 33.7218 55.6071 34.2549 56.1439 34.0763C56.6806 33.8977 57.1202 33.3637 57.1202 32.8905ZM56.1439 26.2653C56.6806 26.4438 57.1202 26.9778 57.1202 27.4511C57.1202 27.9243 56.6806 28.4583 56.1439 28.6369C55.6071 28.8155 55.1675 28.2824 55.1675 27.4511C55.1675 26.6197 55.6071 26.0867 56.1439 26.2653ZM61.3509 31.4626C61.172 30.9268 60.637 30.4881 60.1629 30.4881C59.6888 30.4881 59.1538 30.9268 58.9749 31.4626C58.796 31.9984 59.33 32.4372 60.1629 32.4372C60.9958 32.4372 61.5299 31.9984 61.3509 31.4626ZM60.1629 22.4649C60.9122 22.4649 61.5253 22.8484 61.5253 23.318C61.5253 24.4612 60.1066 25.2798 59.3809 24.5555C58.3582 23.5347 58.7587 22.4649 60.1629 22.4649ZM57.6843 22.2945C57.123 20.6137 55.1675 20.3354 55.1675 21.9364C55.1675 22.726 55.8142 23.3715 56.6053 23.3715C57.3964 23.3715 57.8823 22.8874 57.6843 22.2945ZM52.5108 22.639C53.0476 22.8176 53.4872 23.3516 53.4872 23.8248C53.4872 24.298 53.0476 24.832 52.5108 25.0106C51.974 25.1892 51.5344 24.6561 51.5344 23.8248C51.5344 22.9935 51.974 22.4604 52.5108 22.639Z" fill="url(#paint34_linear_309_6966)" fill-opacity="0.4"/>
<path d="M52.4427 52.3291C52.4427 52.8068 53.1584 53.6137 54.0321 54.1223C56.3655 55.4785 57.4218 55.3099 59.2547 53.2882C61.1202 51.2303 60.5417 50.9402 57.8795 52.6001C56.4427 53.4958 55.7061 53.494 54.2592 52.592C53.2601 51.9692 52.4427 51.8513 52.4427 52.3291Z" stroke="url(#paint35_linear_309_6966)" stroke-width="2.97148" mask="url(#path-3-inside-1_309_6966)"/>
<path d="M52.3737 50.8496C53.2983 50.6084 54.3292 50.8541 54.6643 51.3962C55.4309 52.6337 57.8923 52.6935 57.8923 51.4751C57.8923 50.9765 58.4808 50.5685 59.2011 50.5685C61.0312 50.5685 61.9168 48.817 61.6761 45.6685C61.3691 41.6461 59.8532 40.1856 57.8559 41.9888C56.5989 43.1247 56.1638 43.1773 55.7878 42.2381C55.5035 41.531 55.2692 41.7839 55.2074 42.8627C55.1139 44.49 54.974 44.4438 53.8414 42.4094L52.5798 40.143L51.5371 42.8627C50.9631 44.3585 50.7215 46.7247 51.0003 48.1208C51.3101 49.6728 51.1593 50.4443 50.6125 50.1071C50.1202 49.8034 49.657 48.2532 49.5817 46.6621C49.4491 43.8436 49.4354 43.8345 49.0621 46.3167C48.5971 49.4027 50.0894 51.4452 52.3737 50.8496Z" stroke="url(#paint36_linear_309_6966)" stroke-width="2.97148" mask="url(#path-3-inside-1_309_6966)"/>
<path d="M63.6016 46.9423C63.3237 47.6902 62.7206 49.118 62.261 50.1152C61.4381 51.8994 61.4481 51.9003 62.8378 50.1687C63.6143 49.2005 64.2174 47.7727 64.1783 46.9957C64.1166 45.7746 64.0376 45.7673 63.6016 46.9423Z" stroke="url(#paint37_linear_309_6966)" stroke-width="2.97148" mask="url(#path-3-inside-1_309_6966)"/>
<path d="M46.539 46.0357C45.7896 46.0357 45.1766 46.6476 45.1766 47.3955C45.1766 48.1435 45.7896 48.7554 46.539 48.7554C47.2883 48.7554 47.9014 48.1435 47.9014 47.3955C47.9014 46.6476 47.2883 46.0357 46.539 46.0357Z" stroke="url(#paint38_linear_309_6966)" stroke-width="2.97148" mask="url(#path-3-inside-1_309_6966)"/>
<path d="M66.5962 46.0357C65.8051 46.0357 65.1584 46.6812 65.1584 47.4708C65.1584 49.0718 67.1139 48.7935 67.6752 47.1118C67.8732 46.5198 67.3873 46.0357 66.5962 46.0357Z" stroke="url(#paint39_linear_309_6966)" stroke-width="2.97148" mask="url(#path-3-inside-1_309_6966)"/>
<path d="M38.8905 40.3053C38.8514 41.3913 39.4436 42.9035 40.2075 43.6659C41.5935 45.0502 47.2111 45.3168 46.3737 43.9588C46.1312 43.5644 45.2175 43.4683 44.3446 43.7448C42.7552 44.2488 40.4309 42.3179 39.4627 39.6897C39.1266 38.7759 38.9386 38.9771 38.8905 40.3053Z" stroke="url(#paint40_linear_309_6966)" stroke-width="2.97148" mask="url(#path-3-inside-1_309_6966)"/>
<path d="M64.7224 43.316C64.8859 44.0639 65.0503 44.7783 65.0884 44.9025C65.3427 45.7293 66.0221 44.9079 65.8396 43.9959C65.7151 43.3722 66.4309 42.8473 67.4299 42.8292C70.3255 42.7748 71.5162 41.5899 71.5162 38.7614C71.5162 37.0824 70.8777 35.786 69.7551 35.1859C67.8232 34.1542 67.0766 34.787 67.4572 37.1341C67.6279 38.1884 67.2664 38.4903 66.2819 38.1132C65.3509 37.756 65.0848 37.931 65.5108 38.6191C65.9495 39.328 65.6516 39.474 64.5934 39.0687C63.3282 38.5837 63.1611 38.8049 63.726 40.2119C64.1111 41.171 64.5589 42.5681 64.7224 43.316Z" stroke="url(#paint41_linear_309_6966)" stroke-width="2.97148" mask="url(#path-3-inside-1_309_6966)"/>
<path d="M68.3019 43.8808C67.4844 43.568 67.1166 43.7176 67.4354 44.2325C68.3273 45.674 71.1093 45.2669 72.7524 43.4547C73.9749 42.1066 74.1084 41.0922 73.439 38.2419L72.607 34.7036L72.5153 38.4459C72.4181 42.462 70.627 44.7719 68.3019 43.8808Z" stroke="url(#paint42_linear_309_6966)" stroke-width="2.97148" mask="url(#path-3-inside-1_309_6966)"/>
<path d="M41.0094 38.6744C40.7615 40.0179 41.1902 41.2545 42.1466 41.9525C44.1575 43.4202 48.261 42.316 48.6698 40.1974C48.8632 39.1956 48.6007 38.8049 47.9886 39.183C47.4409 39.5202 46.9931 39.3407 46.9931 38.7832C46.9931 38.2256 46.6307 37.9935 46.1875 38.2664C45.7442 38.5402 45.4382 38.0543 45.5063 37.1876C45.5844 36.194 44.875 35.5041 43.5871 35.321C42.4627 35.1614 41.5135 35.3654 41.4763 35.7733C41.4391 36.1822 41.2292 37.4877 41.0094 38.6744Z" stroke="url(#paint43_linear_309_6966)" stroke-width="2.97148" mask="url(#path-3-inside-1_309_6966)"/>
<path d="M36.5481 36.0634C35.7988 36.0634 35.1857 36.6754 35.1857 37.4233C35.1857 38.1712 35.7988 38.7832 36.5481 38.7832C37.2974 38.7832 37.9105 38.1712 37.9105 37.4233C37.9105 36.6754 37.2974 36.0634 36.5481 36.0634Z" stroke="url(#paint44_linear_309_6966)" stroke-width="2.97148" mask="url(#path-3-inside-1_309_6966)"/>
<path d="M76.162 36.0634C74.8559 36.0634 74.459 36.4814 74.8359 37.4614C75.4308 39.0089 77.1057 38.8185 77.6661 37.1396C77.8659 36.5421 77.1965 36.0634 76.162 36.0634Z" stroke="url(#paint45_linear_309_6966)" stroke-width="2.97148" mask="url(#path-3-inside-1_309_6966)"/>
<path d="M39.717 35.6165C39.2229 35.9211 38.8187 36.5539 38.8187 37.0235C38.8187 38.3271 39.4699 38.0398 40.0739 36.4696C40.3837 35.6627 40.2311 35.2992 39.717 35.6165Z" stroke="url(#paint46_linear_309_6966)" stroke-width="2.97148" mask="url(#path-3-inside-1_309_6966)"/>
<path d="M35.6671 34.0336C34.4336 33.7979 33.6398 33.9548 33.9041 34.3809C34.3691 35.1324 37.9105 35.5104 37.9105 34.8097C37.9105 34.6184 36.9014 34.2693 35.6671 34.0336Z" stroke="url(#paint47_linear_309_6966)" stroke-width="2.97148" mask="url(#path-3-inside-1_309_6966)"/>
<path d="M80.8795 30.4781C79.9058 32.1996 78.1256 33.7118 76.5117 34.1887C74.2392 34.8595 74.1284 35.0073 75.8468 35.0753C78.0539 35.1623 84.2319 29.5452 84.2319 27.4511C84.2319 25.3569 78.0539 19.7398 75.8468 19.8268C74.1366 19.8948 74.2501 20.0435 76.5153 20.7017C78.2165 21.1957 79.8595 22.6381 80.8822 24.5328C82.4635 27.4628 82.4635 27.6759 80.8795 30.4781Z" stroke="url(#paint48_linear_309_6966)" stroke-width="2.97148" mask="url(#path-3-inside-1_309_6966)"/>
<path d="M71.5299 31.9884C72.5362 32.3066 73.1611 32.8878 72.9195 33.2785C72.677 33.6683 73.5907 33.7898 74.9495 33.5477C77.3509 33.1189 81.4417 29.2778 81.4417 27.4511C81.4417 25.6243 77.3509 21.7832 74.9495 21.3544C73.5907 21.1123 72.667 21.2166 72.8959 21.5865C73.1248 21.9564 72.4999 22.4713 71.5062 22.7306C70.429 23.0116 69.6997 23.968 69.6997 25.0994C69.6997 26.5327 70.311 27.0313 72.1974 27.1338L74.6951 27.2697L72.1974 27.6469C69.1983 28.1002 68.736 31.1036 71.5299 31.9884Z" stroke="url(#paint49_linear_309_6966)" stroke-width="2.97148" mask="url(#path-3-inside-1_309_6966)"/>
<path d="M32.5726 29.5643C33.2583 30.8951 34.2302 32.284 34.7297 32.6502C37.0194 34.3255 41.7279 32.5659 42.1384 29.8806C42.3927 28.2162 41.9749 27.8817 39.4945 27.7593L36.5481 27.6142L39.4854 27.2498C41.8787 26.9525 42.3691 26.5291 42.1293 24.9643C41.8378 23.056 39.7597 21.7442 36.8369 21.6218C35.9967 21.5874 34.4127 22.8149 33.3165 24.3515C31.5254 26.8627 31.45 27.3885 32.5726 29.5643Z" stroke="url(#paint50_linear_309_6966)" stroke-width="2.97148" mask="url(#path-3-inside-1_309_6966)"/>
<path d="M30.6444 24.0351C28.4046 25.9489 28.3138 28.6124 30.4173 30.6576C31.291 31.5079 32.1839 32.0455 32.4 31.8515C32.6171 31.6584 32.3101 31.0175 31.7188 30.4273C30.4091 29.12 30.3038 25.5019 31.5526 24.7314C32.0522 24.4231 32.4609 23.7912 32.4609 23.3271C32.4609 22.8629 31.6434 23.1811 30.6444 24.0351Z" stroke="url(#paint51_linear_309_6966)" stroke-width="2.97148" mask="url(#path-3-inside-1_309_6966)"/>
<path d="M36.6789 19.932C35.7515 19.7353 34.5962 19.971 34.1121 20.4542C33.5435 21.0217 34.1403 21.1486 35.7979 20.8104C37.6989 20.4242 37.9277 20.1958 36.6789 19.932Z" stroke="url(#paint52_linear_309_6966)" stroke-width="2.97148" mask="url(#path-3-inside-1_309_6966)"/>
<path d="M41.5363 19.456C42.7288 19.6373 43.9105 19.9927 44.163 20.2447C44.9586 21.038 46.2138 17.9675 45.5399 16.8787C45.1421 16.2368 45.2974 16.0863 45.9441 16.4861C46.5208 16.8415 46.9931 16.6765 46.9931 16.119C46.9931 15.5614 47.4409 15.3819 47.9886 15.7192C48.6007 16.0972 48.8632 15.7065 48.6698 14.7047C47.9958 11.2135 40.2038 11.8481 40.6834 15.3556C40.7751 16.0247 40.796 17.1842 40.7288 17.9321C40.6207 19.1405 40.5008 19.1405 39.6443 17.9321C38.8959 16.8769 38.7579 16.8578 39.0249 17.8487C39.2138 18.5513 40.3446 19.2747 41.5363 19.456Z" stroke="url(#paint53_linear_309_6966)" stroke-width="2.97148" mask="url(#path-3-inside-1_309_6966)"/>
<path d="M67.4672 17.7009C67.3255 18.5758 67.3863 19.5993 67.6016 19.9746C67.8169 20.3499 68.786 20.233 69.7551 19.7162C71.6643 18.6954 72.1811 14.4255 70.5871 12.8345C69.1338 11.384 64.4744 12.4447 63.9785 14.3385C63.5435 15.9975 65.5208 17.4697 66.9767 16.5704C67.3882 16.3175 67.6079 16.8261 67.4672 17.7009Z" stroke="url(#paint54_linear_309_6966)" stroke-width="2.97148" mask="url(#path-3-inside-1_309_6966)"/>
<path d="M68.3237 11.0123C70.8568 10.0422 73.2383 13.1472 72.8232 16.8769L72.4526 20.1985L73.3618 16.6602C74.1084 13.751 74.0003 12.8236 72.7524 11.4474C71.1093 9.63517 68.3273 9.22815 67.4354 10.6696C67.1148 11.1872 67.489 11.3323 68.3237 11.0123Z" stroke="url(#paint55_linear_309_6966)" stroke-width="2.97148" mask="url(#path-3-inside-1_309_6966)"/>
<path d="M36.5481 16.119C35.7988 16.119 35.1857 16.7309 35.1857 17.4788C35.1857 18.2267 35.7988 18.8387 36.5481 18.8387C37.2974 18.8387 37.9105 18.2267 37.9105 17.4788C37.9105 16.7309 37.2974 16.119 36.5481 16.119Z" stroke="url(#paint56_linear_309_6966)" stroke-width="2.97148" mask="url(#path-3-inside-1_309_6966)"/>
<path d="M77.6661 17.7617C77.1057 16.0836 75.4308 15.8932 74.8359 17.4407C74.459 18.4207 74.8559 18.8387 76.162 18.8387C77.1965 18.8387 77.8659 18.36 77.6661 17.7617Z" stroke="url(#paint57_linear_309_6966)" stroke-width="2.97148" mask="url(#path-3-inside-1_309_6966)"/>
<path d="M44.8087 10.8201C43.2193 8.25177 38.7742 11.083 38.8759 14.5968C38.9323 16.5251 38.9522 16.5278 39.6834 14.7274C40.7252 12.1609 43.0703 10.394 44.3691 11.1945C45.0576 11.6197 45.2193 11.4819 44.8087 10.8201Z" stroke="url(#paint58_linear_309_6966)" stroke-width="2.97148" mask="url(#path-3-inside-1_309_6966)"/>
<path d="M53.242 4.41063C50.4191 6.41777 50.0512 8.2146 51.6461 12.2071L52.6652 14.7591L53.8759 12.0394C55.0676 9.3605 55.0875 9.35324 55.2338 11.5861C55.3727 13.7093 55.4263 13.6803 56.0757 11.1328C56.5907 9.11391 56.7969 8.90992 56.8768 10.3423C57.024 12.9913 59.1566 14.7065 60.4081 13.1835C61.2837 12.1192 61.8605 8.92444 61.6261 6.43954C61.5707 5.85299 60.2501 4.73791 58.6915 3.96188C56.0412 2.64283 55.6897 2.67184 53.242 4.41063Z" stroke="url(#paint59_linear_309_6966)" stroke-width="2.97148" mask="url(#path-3-inside-1_309_6966)"/>
<path d="M50.3991 4.21755C49.4182 4.98632 48.8614 6.54743 48.9459 8.2971L49.0821 11.1328L49.4799 8.41314C49.6997 6.9173 50.3537 5.0815 50.9332 4.33358C51.8514 3.15051 51.7824 3.13511 50.3991 4.21755Z" stroke="url(#paint60_linear_309_6966)" stroke-width="2.97148" mask="url(#path-3-inside-1_309_6966)"/>
<path d="M46.539 6.14671C45.7896 6.14671 45.1766 6.75865 45.1766 7.50657C45.1766 8.25449 45.7896 8.86642 46.539 8.86642C47.2883 8.86642 47.9014 8.25449 47.9014 7.50657C47.9014 6.75865 47.2883 6.14671 46.539 6.14671Z" stroke="url(#paint61_linear_309_6966)" stroke-width="2.97148" mask="url(#path-3-inside-1_309_6966)"/>
<path d="M62.9004 4.73339C61.6652 3.12333 61.6343 3.22485 62.5353 5.92007C63.5635 8.99606 64.2501 9.70138 64.2501 7.67973C64.2501 7.027 63.6425 5.7016 62.9004 4.73339Z" stroke="url(#paint62_linear_309_6966)" stroke-width="2.97148" mask="url(#path-3-inside-1_309_6966)"/>
<path d="M66.1348 6.32076C65.598 6.14217 65.1584 6.67525 65.1584 7.50657C65.1584 8.33789 65.598 8.87096 66.1348 8.69237C66.6716 8.51378 67.1111 7.9798 67.1111 7.50657C67.1111 7.03334 66.6716 6.49936 66.1348 6.32076Z" stroke="url(#paint63_linear_309_6966)" stroke-width="2.97148" mask="url(#path-3-inside-1_309_6966)"/>
<path d="M54.7097 0.544136C53.4627 1.11074 52.4427 1.99554 52.4427 2.50866C52.4427 3.08342 53.142 3.00637 54.2592 2.31013C55.7197 1.39903 56.449 1.40992 57.9803 2.36544C60.548 3.96553 61.0657 3.20673 58.8024 1.16242C57.2928 -0.201057 56.5835 -0.308037 54.7097 0.544136Z" stroke="url(#paint64_linear_309_6966)" stroke-width="2.97148" mask="url(#path-3-inside-1_309_6966)"/>
<path fill-rule="evenodd" clip-rule="evenodd" d="M48.9967 36.5349C43.2374 31.6974 42.9631 24.4929 48.3364 19.1297C50.9386 16.5324 51.9577 16.1235 55.7578 16.1507C60.9504 16.1888 63.7106 17.5259 66.1157 21.1658C69.5398 26.3514 67.5998 34.5993 62.261 37.5566C58.5907 39.59 52.033 39.085 48.9967 36.5349ZM64.7042 27.4511C64.7042 30.9685 64.2719 32.0591 62.1557 33.8759C56.5453 38.6925 47.9014 34.9157 47.9014 27.6469C47.9014 19.883 56.2874 15.9884 62.1557 21.0262C64.2719 22.843 64.7042 23.9336 64.7042 27.4511ZM52.7342 34.079C50.0167 32.7681 48.2937 28.3649 49.3455 25.4194C51.3319 19.8531 57.439 18.3863 61.548 22.4876C63.6833 24.6189 63.964 27.1791 61.9795 26.4194C61.0948 26.0803 60.6171 26.442 60.6171 27.4511C60.6171 28.4601 61.0948 28.8218 61.9795 28.4827C65.0666 27.3006 62.9631 32.1171 59.6434 33.8306C56.6806 35.3599 55.4781 35.4035 52.7342 34.079ZM51.6707 27.4511C51.6707 26.9778 51.2311 26.4438 50.6943 26.2653C50.1575 26.0867 49.7179 26.6197 49.7179 27.4511C49.7179 28.2824 50.1575 28.8155 50.6943 28.6369C51.2311 28.4583 51.6707 27.9243 51.6707 27.4511ZM51.5344 31.0021C51.5344 29.4011 53.4899 29.6794 54.0512 31.3602C54.2492 31.9531 53.7633 32.4372 52.9722 32.4372C52.1811 32.4372 51.5344 31.7917 51.5344 31.0021ZM57.1202 32.8905C57.1202 32.4172 56.6806 31.8833 56.1439 31.7047C55.6071 31.5261 55.1675 32.0591 55.1675 32.8905C55.1675 33.7218 55.6071 34.2549 56.1439 34.0763C56.6806 33.8977 57.1202 33.3637 57.1202 32.8905ZM56.1439 26.2653C56.6806 26.4438 57.1202 26.9778 57.1202 27.4511C57.1202 27.9243 56.6806 28.4583 56.1439 28.6369C55.6071 28.8155 55.1675 28.2824 55.1675 27.4511C55.1675 26.6197 55.6071 26.0867 56.1439 26.2653ZM61.3509 31.4626C61.172 30.9268 60.637 30.4881 60.1629 30.4881C59.6888 30.4881 59.1538 30.9268 58.9749 31.4626C58.796 31.9984 59.33 32.4372 60.1629 32.4372C60.9958 32.4372 61.5299 31.9984 61.3509 31.4626ZM60.1629 22.4649C60.9122 22.4649 61.5253 22.8484 61.5253 23.318C61.5253 24.4612 60.1066 25.2798 59.3809 24.5555C58.3582 23.5347 58.7587 22.4649 60.1629 22.4649ZM57.6843 22.2945C57.123 20.6137 55.1675 20.3354 55.1675 21.9364C55.1675 22.726 55.8142 23.3715 56.6053 23.3715C57.3964 23.3715 57.8823 22.8874 57.6843 22.2945ZM52.5108 22.639C53.0476 22.8176 53.4872 23.3516 53.4872 23.8248C53.4872 24.298 53.0476 24.832 52.5108 25.0106C51.974 25.1892 51.5344 24.6561 51.5344 23.8248C51.5344 22.9935 51.974 22.4604 52.5108 22.639Z" stroke="url(#paint65_linear_309_6966)" stroke-width="2.97148" mask="url(#path-3-inside-1_309_6966)"/>
<defs>
<filter id="filter0_ii_309_6966" x="0" y="22.0997" width="10.7998" height="10.8" filterUnits="userSpaceOnUse" color-interpolation-filters="sRGB">
<feFlood flood-opacity="0" result="BackgroundImageFix"/>
<feBlend mode="normal" in="SourceGraphic" in2="BackgroundImageFix" result="shape"/>
<feColorMatrix in="SourceAlpha" type="matrix" values="0 0 0 0 0 0 0 0 0 0 0 0 0 0 0 0 0 0 127 0" result="hardAlpha"/>
<feOffset dx="-0.9" dy="-2.7"/>
<feComposite in2="hardAlpha" operator="arithmetic" k2="-1" k3="1"/>
<feColorMatrix type="matrix" values="0 0 0 0 0 0 0 0 0 0 0 0 0 0 0 0 0 0 0.5 0"/>
<feBlend mode="normal" in2="shape" result="effect1_innerShadow_309_6966"/>
<feColorMatrix in="SourceAlpha" type="matrix" values="0 0 0 0 0 0 0 0 0 0 0 0 0 0 0 0 0 0 127 0" result="hardAlpha"/>
<feOffset dx="0.9" dy="2.7"/>
<feComposite in2="hardAlpha" operator="arithmetic" k2="-1" k3="1"/>
<feColorMatrix type="matrix" values="0 0 0 0 1 0 0 0 0 1 0 0 0 0 1 0 0 0 0.5 0"/>
<feBlend mode="normal" in2="effect1_innerShadow_309_6966" result="effect2_innerShadow_309_6966"/>
</filter>
<filter id="filter1_ii_309_6966" x="102" y="22.0997" width="10.7998" height="10.8" filterUnits="userSpaceOnUse" color-interpolation-filters="sRGB">
<feFlood flood-opacity="0" result="BackgroundImageFix"/>
<feBlend mode="normal" in="SourceGraphic" in2="BackgroundImageFix" result="shape"/>
<feColorMatrix in="SourceAlpha" type="matrix" values="0 0 0 0 0 0 0 0 0 0 0 0 0 0 0 0 0 0 127 0" result="hardAlpha"/>
<feOffset dx="-0.9" dy="-2.7"/>
<feComposite in2="hardAlpha" operator="arithmetic" k2="-1" k3="1"/>
<feColorMatrix type="matrix" values="0 0 0 0 0 0 0 0 0 0 0 0 0 0 0 0 0 0 0.5 0"/>
<feBlend mode="normal" in2="shape" result="effect1_innerShadow_309_6966"/>
<feColorMatrix in="SourceAlpha" type="matrix" values="0 0 0 0 0 0 0 0 0 0 0 0 0 0 0 0 0 0 127 0" result="hardAlpha"/>
<feOffset dx="0.9" dy="2.7"/>
<feComposite in2="hardAlpha" operator="arithmetic" k2="-1" k3="1"/>
<feColorMatrix type="matrix" values="0 0 0 0 1 0 0 0 0 1 0 0 0 0 1 0 0 0 0.5 0"/>
<feBlend mode="normal" in2="effect1_innerShadow_309_6966" result="effect2_innerShadow_309_6966"/>
</filter>
<linearGradient id="paint0_linear_309_6966" x1="5.3999" y1="22.9998" x2="5.3999" y2="31.9998" gradientUnits="userSpaceOnUse">
<stop stop-color="#FCF0D6"/>
<stop offset="1" stop-color="#FFC446"/>
</linearGradient>
<linearGradient id="paint1_linear_309_6966" x1="5.3999" y1="22.9998" x2="5.3999" y2="31.9998" gradientUnits="userSpaceOnUse">
<stop stop-color="#FCF0D6"/>
<stop offset="1" stop-color="#FFC446"/>
</linearGradient>
<linearGradient id="paint2_linear_309_6966" x1="107.4" y1="22.9998" x2="107.4" y2="31.9998" gradientUnits="userSpaceOnUse">
<stop stop-color="#FCF0D6"/>
<stop offset="1" stop-color="#FFC446"/>
</linearGradient>
<linearGradient id="paint3_linear_309_6966" x1="107.4" y1="22.9998" x2="107.4" y2="31.9998" gradientUnits="userSpaceOnUse">
<stop stop-color="#FCF0D6"/>
<stop offset="1" stop-color="#FFC446"/>
</linearGradient>
<linearGradient id="paint4_linear_309_6966" x1="28.8999" y1="27.5" x2="84.2319" y2="27.5" gradientUnits="userSpaceOnUse">
<stop stop-color="#FCF0D6"/>
<stop offset="1" stop-color="#FFC446"/>
</linearGradient>
<linearGradient id="paint5_linear_309_6966" x1="28.8999" y1="27.5" x2="84.2319" y2="27.5" gradientUnits="userSpaceOnUse">
<stop stop-color="#FCF0D6"/>
<stop offset="1" stop-color="#FFC446"/>
</linearGradient>
<linearGradient id="paint6_linear_309_6966" x1="28.8999" y1="27.5" x2="84.2319" y2="27.5" gradientUnits="userSpaceOnUse">
<stop stop-color="#FCF0D6"/>
<stop offset="1" stop-color="#FFC446"/>
</linearGradient>
<linearGradient id="paint7_linear_309_6966" x1="28.8999" y1="27.5" x2="84.2319" y2="27.5" gradientUnits="userSpaceOnUse">
<stop stop-color="#FCF0D6"/>
<stop offset="1" stop-color="#FFC446"/>
</linearGradient>
<linearGradient id="paint8_linear_309_6966" x1="28.8999" y1="27.5" x2="84.2319" y2="27.5" gradientUnits="userSpaceOnUse">
<stop stop-color="#FCF0D6"/>
<stop offset="1" stop-color="#FFC446"/>
</linearGradient>
<linearGradient id="paint9_linear_309_6966" x1="28.8999" y1="27.5" x2="84.2319" y2="27.5" gradientUnits="userSpaceOnUse">
<stop stop-color="#FCF0D6"/>
<stop offset="1" stop-color="#FFC446"/>
</linearGradient>
<linearGradient id="paint10_linear_309_6966" x1="28.8999" y1="27.5" x2="84.2319" y2="27.5" gradientUnits="userSpaceOnUse">
<stop stop-color="#FCF0D6"/>
<stop offset="1" stop-color="#FFC446"/>
</linearGradient>
<linearGradient id="paint11_linear_309_6966" x1="28.8999" y1="27.5" x2="84.2319" y2="27.5" gradientUnits="userSpaceOnUse">
<stop stop-color="#FCF0D6"/>
<stop offset="1" stop-color="#FFC446"/>
</linearGradient>
<linearGradient id="paint12_linear_309_6966" x1="28.8999" y1="27.5" x2="84.2319" y2="27.5" gradientUnits="userSpaceOnUse">
<stop stop-color="#FCF0D6"/>
<stop offset="1" stop-color="#FFC446"/>
</linearGradient>
<linearGradient id="paint13_linear_309_6966" x1="28.8999" y1="27.5" x2="84.2319" y2="27.5" gradientUnits="userSpaceOnUse">
<stop stop-color="#FCF0D6"/>
<stop offset="1" stop-color="#FFC446"/>
</linearGradient>
<linearGradient id="paint14_linear_309_6966" x1="28.8999" y1="27.5" x2="84.2319" y2="27.5" gradientUnits="userSpaceOnUse">
<stop stop-color="#FCF0D6"/>
<stop offset="1" stop-color="#FFC446"/>
</linearGradient>
<linearGradient id="paint15_linear_309_6966" x1="28.8999" y1="27.5" x2="84.2319" y2="27.5" gradientUnits="userSpaceOnUse">
<stop stop-color="#FCF0D6"/>
<stop offset="1" stop-color="#FFC446"/>
</linearGradient>
<linearGradient id="paint16_linear_309_6966" x1="28.8999" y1="27.5" x2="84.2319" y2="27.5" gradientUnits="userSpaceOnUse">
<stop stop-color="#FCF0D6"/>
<stop offset="1" stop-color="#FFC446"/>
</linearGradient>
<linearGradient id="paint17_linear_309_6966" x1="28.8999" y1="27.5" x2="84.2319" y2="27.5" gradientUnits="userSpaceOnUse">
<stop stop-color="#FCF0D6"/>
<stop offset="1" stop-color="#FFC446"/>
</linearGradient>
<linearGradient id="paint18_linear_309_6966" x1="28.8999" y1="27.5" x2="84.2319" y2="27.5" gradientUnits="userSpaceOnUse">
<stop stop-color="#FCF0D6"/>
<stop offset="1" stop-color="#FFC446"/>
</linearGradient>
<linearGradient id="paint19_linear_309_6966" x1="28.8999" y1="27.5" x2="84.2319" y2="27.5" gradientUnits="userSpaceOnUse">
<stop stop-color="#FCF0D6"/>
<stop offset="1" stop-color="#FFC446"/>
</linearGradient>
<linearGradient id="paint20_linear_309_6966" x1="28.8999" y1="27.5" x2="84.2319" y2="27.5" gradientUnits="userSpaceOnUse">
<stop stop-color="#FCF0D6"/>
<stop offset="1" stop-color="#FFC446"/>
</linearGradient>
<linearGradient id="paint21_linear_309_6966" x1="28.8999" y1="27.5" x2="84.2319" y2="27.5" gradientUnits="userSpaceOnUse">
<stop stop-color="#FCF0D6"/>
<stop offset="1" stop-color="#FFC446"/>
</linearGradient>
<linearGradient id="paint22_linear_309_6966" x1="28.8999" y1="27.5" x2="84.2319" y2="27.5" gradientUnits="userSpaceOnUse">
<stop stop-color="#FCF0D6"/>
<stop offset="1" stop-color="#FFC446"/>
</linearGradient>
<linearGradient id="paint23_linear_309_6966" x1="28.8999" y1="27.5" x2="84.2319" y2="27.5" gradientUnits="userSpaceOnUse">
<stop stop-color="#FCF0D6"/>
<stop offset="1" stop-color="#FFC446"/>
</linearGradient>
<linearGradient id="paint24_linear_309_6966" x1="28.8999" y1="27.5" x2="84.2319" y2="27.5" gradientUnits="userSpaceOnUse">
<stop stop-color="#FCF0D6"/>
<stop offset="1" stop-color="#FFC446"/>
</linearGradient>
<linearGradient id="paint25_linear_309_6966" x1="28.8999" y1="27.5" x2="84.2319" y2="27.5" gradientUnits="userSpaceOnUse">
<stop stop-color="#FCF0D6"/>
<stop offset="1" stop-color="#FFC446"/>
</linearGradient>
<linearGradient id="paint26_linear_309_6966" x1="28.8999" y1="27.5" x2="84.2319" y2="27.5" gradientUnits="userSpaceOnUse">
<stop stop-color="#FCF0D6"/>
<stop offset="1" stop-color="#FFC446"/>
</linearGradient>
<linearGradient id="paint27_linear_309_6966" x1="28.8999" y1="27.5" x2="84.2319" y2="27.5" gradientUnits="userSpaceOnUse">
<stop stop-color="#FCF0D6"/>
<stop offset="1" stop-color="#FFC446"/>
</linearGradient>
<linearGradient id="paint28_linear_309_6966" x1="28.8999" y1="27.5" x2="84.2319" y2="27.5" gradientUnits="userSpaceOnUse">
<stop stop-color="#FCF0D6"/>
<stop offset="1" stop-color="#FFC446"/>
</linearGradient>
<linearGradient id="paint29_linear_309_6966" x1="28.8999" y1="27.5" x2="84.2319" y2="27.5" gradientUnits="userSpaceOnUse">
<stop stop-color="#FCF0D6"/>
<stop offset="1" stop-color="#FFC446"/>
</linearGradient>
<linearGradient id="paint30_linear_309_6966" x1="28.8999" y1="27.5" x2="84.2319" y2="27.5" gradientUnits="userSpaceOnUse">
<stop stop-color="#FCF0D6"/>
<stop offset="1" stop-color="#FFC446"/>
</linearGradient>
<linearGradient id="paint31_linear_309_6966" x1="28.8999" y1="27.5" x2="84.2319" y2="27.5" gradientUnits="userSpaceOnUse">
<stop stop-color="#FCF0D6"/>
<stop offset="1" stop-color="#FFC446"/>
</linearGradient>
<linearGradient id="paint32_linear_309_6966" x1="28.8999" y1="27.5" x2="84.2319" y2="27.5" gradientUnits="userSpaceOnUse">
<stop stop-color="#FCF0D6"/>
<stop offset="1" stop-color="#FFC446"/>
</linearGradient>
<linearGradient id="paint33_linear_309_6966" x1="28.8999" y1="27.5" x2="84.2319" y2="27.5" gradientUnits="userSpaceOnUse">
<stop stop-color="#FCF0D6"/>
<stop offset="1" stop-color="#FFC446"/>
</linearGradient>
<linearGradient id="paint34_linear_309_6966" x1="28.8999" y1="27.5" x2="84.2319" y2="27.5" gradientUnits="userSpaceOnUse">
<stop stop-color="#FCF0D6"/>
<stop offset="1" stop-color="#FFC446"/>
</linearGradient>
<linearGradient id="paint35_linear_309_6966" x1="28.8999" y1="27.5" x2="84.2319" y2="27.5" gradientUnits="userSpaceOnUse">
<stop stop-color="#FCF0D6"/>
<stop offset="1" stop-color="#FFC446"/>
</linearGradient>
<linearGradient id="paint36_linear_309_6966" x1="28.8999" y1="27.5" x2="84.2319" y2="27.5" gradientUnits="userSpaceOnUse">
<stop stop-color="#FCF0D6"/>
<stop offset="1" stop-color="#FFC446"/>
</linearGradient>
<linearGradient id="paint37_linear_309_6966" x1="28.8999" y1="27.5" x2="84.2319" y2="27.5" gradientUnits="userSpaceOnUse">
<stop stop-color="#FCF0D6"/>
<stop offset="1" stop-color="#FFC446"/>
</linearGradient>
<linearGradient id="paint38_linear_309_6966" x1="28.8999" y1="27.5" x2="84.2319" y2="27.5" gradientUnits="userSpaceOnUse">
<stop stop-color="#FCF0D6"/>
<stop offset="1" stop-color="#FFC446"/>
</linearGradient>
<linearGradient id="paint39_linear_309_6966" x1="28.8999" y1="27.5" x2="84.2319" y2="27.5" gradientUnits="userSpaceOnUse">
<stop stop-color="#FCF0D6"/>
<stop offset="1" stop-color="#FFC446"/>
</linearGradient>
<linearGradient id="paint40_linear_309_6966" x1="28.8999" y1="27.5" x2="84.2319" y2="27.5" gradientUnits="userSpaceOnUse">
<stop stop-color="#FCF0D6"/>
<stop offset="1" stop-color="#FFC446"/>
</linearGradient>
<linearGradient id="paint41_linear_309_6966" x1="28.8999" y1="27.5" x2="84.2319" y2="27.5" gradientUnits="userSpaceOnUse">
<stop stop-color="#FCF0D6"/>
<stop offset="1" stop-color="#FFC446"/>
</linearGradient>
<linearGradient id="paint42_linear_309_6966" x1="28.8999" y1="27.5" x2="84.2319" y2="27.5" gradientUnits="userSpaceOnUse">
<stop stop-color="#FCF0D6"/>
<stop offset="1" stop-color="#FFC446"/>
</linearGradient>
<linearGradient id="paint43_linear_309_6966" x1="28.8999" y1="27.5" x2="84.2319" y2="27.5" gradientUnits="userSpaceOnUse">
<stop stop-color="#FCF0D6"/>
<stop offset="1" stop-color="#FFC446"/>
</linearGradient>
<linearGradient id="paint44_linear_309_6966" x1="28.8999" y1="27.5" x2="84.2319" y2="27.5" gradientUnits="userSpaceOnUse">
<stop stop-color="#FCF0D6"/>
<stop offset="1" stop-color="#FFC446"/>
</linearGradient>
<linearGradient id="paint45_linear_309_6966" x1="28.8999" y1="27.5" x2="84.2319" y2="27.5" gradientUnits="userSpaceOnUse">
<stop stop-color="#FCF0D6"/>
<stop offset="1" stop-color="#FFC446"/>
</linearGradient>
<linearGradient id="paint46_linear_309_6966" x1="28.8999" y1="27.5" x2="84.2319" y2="27.5" gradientUnits="userSpaceOnUse">
<stop stop-color="#FCF0D6"/>
<stop offset="1" stop-color="#FFC446"/>
</linearGradient>
<linearGradient id="paint47_linear_309_6966" x1="28.8999" y1="27.5" x2="84.2319" y2="27.5" gradientUnits="userSpaceOnUse">
<stop stop-color="#FCF0D6"/>
<stop offset="1" stop-color="#FFC446"/>
</linearGradient>
<linearGradient id="paint48_linear_309_6966" x1="28.8999" y1="27.5" x2="84.2319" y2="27.5" gradientUnits="userSpaceOnUse">
<stop stop-color="#FCF0D6"/>
<stop offset="1" stop-color="#FFC446"/>
</linearGradient>
<linearGradient id="paint49_linear_309_6966" x1="28.8999" y1="27.5" x2="84.2319" y2="27.5" gradientUnits="userSpaceOnUse">
<stop stop-color="#FCF0D6"/>
<stop offset="1" stop-color="#FFC446"/>
</linearGradient>
<linearGradient id="paint50_linear_309_6966" x1="28.8999" y1="27.5" x2="84.2319" y2="27.5" gradientUnits="userSpaceOnUse">
<stop stop-color="#FCF0D6"/>
<stop offset="1" stop-color="#FFC446"/>
</linearGradient>
<linearGradient id="paint51_linear_309_6966" x1="28.8999" y1="27.5" x2="84.2319" y2="27.5" gradientUnits="userSpaceOnUse">
<stop stop-color="#FCF0D6"/>
<stop offset="1" stop-color="#FFC446"/>
</linearGradient>
<linearGradient id="paint52_linear_309_6966" x1="28.8999" y1="27.5" x2="84.2319" y2="27.5" gradientUnits="userSpaceOnUse">
<stop stop-color="#FCF0D6"/>
<stop offset="1" stop-color="#FFC446"/>
</linearGradient>
<linearGradient id="paint53_linear_309_6966" x1="28.8999" y1="27.5" x2="84.2319" y2="27.5" gradientUnits="userSpaceOnUse">
<stop stop-color="#FCF0D6"/>
<stop offset="1" stop-color="#FFC446"/>
</linearGradient>
<linearGradient id="paint54_linear_309_6966" x1="28.8999" y1="27.5" x2="84.2319" y2="27.5" gradientUnits="userSpaceOnUse">
<stop stop-color="#FCF0D6"/>
<stop offset="1" stop-color="#FFC446"/>
</linearGradient>
<linearGradient id="paint55_linear_309_6966" x1="28.8999" y1="27.5" x2="84.2319" y2="27.5" gradientUnits="userSpaceOnUse">
<stop stop-color="#FCF0D6"/>
<stop offset="1" stop-color="#FFC446"/>
</linearGradient>
<linearGradient id="paint56_linear_309_6966" x1="28.8999" y1="27.5" x2="84.2319" y2="27.5" gradientUnits="userSpaceOnUse">
<stop stop-color="#FCF0D6"/>
<stop offset="1" stop-color="#FFC446"/>
</linearGradient>
<linearGradient id="paint57_linear_309_6966" x1="28.8999" y1="27.5" x2="84.2319" y2="27.5" gradientUnits="userSpaceOnUse">
<stop stop-color="#FCF0D6"/>
<stop offset="1" stop-color="#FFC446"/>
</linearGradient>
<linearGradient id="paint58_linear_309_6966" x1="28.8999" y1="27.5" x2="84.2319" y2="27.5" gradientUnits="userSpaceOnUse">
<stop stop-color="#FCF0D6"/>
<stop offset="1" stop-color="#FFC446"/>
</linearGradient>
<linearGradient id="paint59_linear_309_6966" x1="28.8999" y1="27.5" x2="84.2319" y2="27.5" gradientUnits="userSpaceOnUse">
<stop stop-color="#FCF0D6"/>
<stop offset="1" stop-color="#FFC446"/>
</linearGradient>
<linearGradient id="paint60_linear_309_6966" x1="28.8999" y1="27.5" x2="84.2319" y2="27.5" gradientUnits="userSpaceOnUse">
<stop stop-color="#FCF0D6"/>
<stop offset="1" stop-color="#FFC446"/>
</linearGradient>
<linearGradient id="paint61_linear_309_6966" x1="28.8999" y1="27.5" x2="84.2319" y2="27.5" gradientUnits="userSpaceOnUse">
<stop stop-color="#FCF0D6"/>
<stop offset="1" stop-color="#FFC446"/>
</linearGradient>
<linearGradient id="paint62_linear_309_6966" x1="28.8999" y1="27.5" x2="84.2319" y2="27.5" gradientUnits="userSpaceOnUse">
<stop stop-color="#FCF0D6"/>
<stop offset="1" stop-color="#FFC446"/>
</linearGradient>
<linearGradient id="paint63_linear_309_6966" x1="28.8999" y1="27.5" x2="84.2319" y2="27.5" gradientUnits="userSpaceOnUse">
<stop stop-color="#FCF0D6"/>
<stop offset="1" stop-color="#FFC446"/>
</linearGradient>
<linearGradient id="paint64_linear_309_6966" x1="28.8999" y1="27.5" x2="84.2319" y2="27.5" gradientUnits="userSpaceOnUse">
<stop stop-color="#FCF0D6"/>
<stop offset="1" stop-color="#FFC446"/>
</linearGradient>
<linearGradient id="paint65_linear_309_6966" x1="28.8999" y1="27.5" x2="84.2319" y2="27.5" gradientUnits="userSpaceOnUse">
<stop stop-color="#FCF0D6"/>
<stop offset="1" stop-color="#FFC446"/>
</linearGradient>
</defs>
</svg>
