<svg width="1920" height="1016" viewBox="0 0 1920 1016" fill="none" xmlns="http://www.w3.org/2000/svg">
<path d="M-106.809 962.67C-124.723 971.829 -143.263 981.308 -164.251 983.322L-164.255 983.343C-175.871 984.448 -188.308 982.059 -198.559 976.079C-196.042 981.035 -192.921 985.664 -188.871 990.128C-170.006 1010.91 -141.378 1005.89 -113.666 1001.03L-113.529 1001C-110.075 1000.4 -106.705 999.81 -103.386 999.27C-55.6716 991.565 -8.36518 1002.81 26.362 1030.07C40.6463 1041.28 53.2973 1054.48 65.5451 1067.26L65.6421 1067.36C83.0938 1085.58 99.5821 1102.78 120.599 1115.13C180.748 1150.44 255.313 1127.32 312.052 1101.89C387.742 1067.97 467.46 1078.81 584.861 1132.45C603.94 1141.16 623.185 1150.63 641.804 1159.8L642.462 1160.13C683.71 1180.45 736.523 1204.64 783.304 1213.42C832.229 1222.6 873.584 1217.26 920.967 1207.72C793.895 1214.66 732.031 1160.8 718.887 1152.14C692.264 1134.58 664.724 1116.43 636.604 1100.88C611.539 1087.01 585.241 1075.76 558.485 1067.46C512.943 1053.33 464.654 1047.32 414.931 1049.58C391.346 1050.64 366.597 1053.82 341.42 1059C335.821 1060.17 330.308 1061.41 324.838 1062.64L324.365 1062.74C297.215 1068.88 271.491 1074.64 242.674 1068.91C217.47 1063.88 194.63 1050.76 174.754 1029.93C167.074 1021.87 160.663 1012.41 154.45 1003.25L154.332 1003.08C145.799 990.474 137.721 978.58 126.807 970.179C113.84 960.209 92.7071 956.682 78.7001 962.156C69.9392 965.584 64.6626 972.119 63.0529 981.564C62.2814 986.104 63.5558 990.999 66.4146 994.326C67.9669 996.116 70.7065 998.27 74.923 998.188C76.624 998.145 78.5152 997.636 78.6197 996.84C79.0172 993.652 81.9249 991.364 85.1329 991.765C88.3776 992.194 90.6082 995.071 90.207 998.279C89.3595 1005.17 83.4431 1009.72 75.1185 1009.87C68.3055 1009.97 62.0515 1007.15 57.5579 1001.92C53.4992 997.157 51.2801 990.918 51.1962 984.548C51.0238 984.349 50.8162 984.227 50.6879 984.016C36.9115 962.066 24.1798 949.903 9.41105 944.619C-13.3751 936.44 -40.7014 937.272 -71.7456 947.079C-83.6147 950.812 -94.8121 956.537 -106.644 962.586L-106.776 962.653L-106.809 962.67Z" fill="url(#paint0_linear_309_9078)"/>
<path d="M-557.285 1142.62C-587.675 1169.35 -619.125 1197.01 -659.044 1211.32L-659.041 1211.36C-681.139 1219.27 -706.567 1220.77 -729.512 1214.19C-722.151 1222.6 -713.775 1230.08 -703.669 1236.78C-656.602 1267.96 -603.28 1243.99 -551.665 1220.79L-551.41 1220.68C-544.972 1217.8 -538.697 1214.98 -532.496 1212.28C-443.292 1173.64 -345.505 1172.13 -264.31 1208.09C-230.912 1222.87 -199.715 1242.34 -169.511 1261.2L-169.272 1261.34C-126.233 1288.21 -85.575 1313.58 -38.4906 1327.25C96.2511 1366.32 203.196 1293.79 301.22 1216.14C431.984 1112.55 707.352 1265.27 904.026 1211.03C808.749 1226.33 763.079 1236.23 575.292 1143.59C522.221 1117.41 470.103 1102.23 423.83 1095.67C404.178 1092.88 350.667 1099.25 333.99 1105.14C286.11 1122.03 270.179 1134.76 237.492 1142.26C200.2 1150.81 136.726 1156.16 53.749 1132.25C35.4268 1126.97 18.022 1118.69 3.10255 1106.82C-7.05749 1098.73 -16.8044 1090.07 -26.3754 1081.57L-26.6927 1081.29C-49.5668 1060.94 -72.7099 1052.58 -98.1463 1041.61C-128.361 1028.59 -171.304 1032.18 -195.9 1049.78C-211.282 1060.8 -218.334 1076.15 -216.796 1095.36C-216.052 1104.6 -211.144 1113.51 -203.925 1118.58C-200.012 1121.3 -193.605 1124.14 -185.425 1121.9C-182.131 1120.97 -178.696 1119.04 -178.887 1117.44C-179.69 1111.03 -175.154 1105.13 -168.701 1104.32C-162.164 1103.55 -156.391 1108.05 -155.585 1114.51C-153.827 1128.35 -163.105 1140.17 -179.263 1144.57C-192.491 1148.15 -206.08 1145.74 -217.432 1137.76C-227.701 1130.49 -235.115 1119.43 -238.432 1107.05C-238.867 1106.75 -239.332 1106.61 -239.687 1106.27C-277.41 1070.3 -308.251 1052.89 -339.658 1049.9C-388.128 1045.23 -440.987 1060.39 -496.651 1094.87C-517.942 1108.03 -536.937 1124.73 -557.009 1142.38L-557.231 1142.57L-557.285 1142.62Z" fill="url(#paint1_linear_309_9078)"/>
<path d="M-557.285 1142.62C-587.675 1169.35 -619.125 1197.01 -659.044 1211.32L-659.041 1211.36C-681.139 1219.27 -706.567 1220.77 -729.512 1214.19C-722.151 1222.6 -713.775 1230.08 -703.669 1236.78C-656.602 1267.96 -603.28 1243.99 -551.665 1220.79L-551.41 1220.68C-544.972 1217.8 -538.697 1214.98 -532.496 1212.28C-443.292 1173.64 -345.505 1172.13 -264.31 1208.09C-230.912 1222.87 -199.715 1242.34 -169.511 1261.2L-169.272 1261.34C-126.233 1288.21 -85.575 1313.58 -38.4906 1327.25C96.2511 1366.32 203.196 1293.79 301.22 1216.14C431.984 1112.55 707.352 1265.27 904.026 1211.03C808.749 1226.33 763.079 1236.23 575.292 1143.59C522.221 1117.41 470.103 1102.23 423.83 1095.67C404.178 1092.88 350.667 1099.25 333.99 1105.14C286.11 1122.03 270.179 1134.76 237.492 1142.26C200.2 1150.81 136.726 1156.16 53.749 1132.25C35.4268 1126.97 18.022 1118.69 3.10255 1106.82C-7.05749 1098.73 -16.8044 1090.07 -26.3754 1081.57L-26.6927 1081.29C-49.5668 1060.94 -72.7099 1052.58 -98.1463 1041.61C-128.361 1028.59 -171.304 1032.18 -195.9 1049.78C-211.282 1060.8 -218.334 1076.15 -216.796 1095.36C-216.052 1104.6 -211.144 1113.51 -203.925 1118.58C-200.012 1121.3 -193.605 1124.14 -185.425 1121.9C-182.131 1120.97 -178.696 1119.04 -178.887 1117.44C-179.69 1111.03 -175.154 1105.13 -168.701 1104.32C-162.164 1103.55 -156.391 1108.05 -155.585 1114.51C-153.827 1128.35 -163.105 1140.17 -179.263 1144.57C-192.491 1148.15 -206.08 1145.74 -217.432 1137.76C-227.701 1130.49 -235.115 1119.43 -238.432 1107.05C-238.867 1106.75 -239.332 1106.61 -239.687 1106.27C-277.41 1070.3 -308.251 1052.89 -339.658 1049.9C-388.128 1045.23 -440.987 1060.39 -496.651 1094.87C-517.942 1108.03 -536.937 1124.73 -557.009 1142.38L-557.231 1142.57L-557.285 1142.62Z" fill="url(#paint2_linear_309_9078)"/>
<path d="M815.877 1174.63C845.51 1188.44 875.95 1198.19 906.341 1203.78C914.773 1205.32 923.183 1206.54 931.588 1207.43C922.369 1209.14 913.419 1210.53 904.774 1211.05C875.112 1212.88 848.059 1206.56 809.149 1191.69C794.496 1185.32 779.739 1177.46 765.301 1168.33C751.987 1159.91 738.452 1150.98 725.364 1142.35C698.554 1124.67 670.831 1106.39 642.312 1090.62C616.544 1076.37 589.511 1064.8 562.005 1056.26C515.179 1041.72 465.544 1035.52 414.447 1037.86C390.226 1038.97 364.881 1042.22 339.097 1047.51C333.273 1048.72 327.539 1050.01 321.825 1051.3C295.916 1057.16 271.305 1062.67 244.992 1057.42C230.131 1054.46 216.154 1048.28 203.167 1039.1C202.908 1038.8 202.622 1038.54 202.312 1038.29C183.618 1024.22 179.137 987.4 184.384 969.196C188.142 956.132 193.743 945.101 201.043 936.429C219.37 914.609 251.554 904.97 279.217 913C304.064 920.198 322.399 947.375 319.251 972.36C317.452 986.703 310.684 999.423 301.148 1006.39C293.155 1012.23 283.334 1014.15 271.929 1012.06C271.181 1011.92 270.444 1011.95 269.752 1012.07C260.031 1006.96 252.163 999.499 250.778 990.089C249.742 983.21 253.712 974.115 259.584 969.801C261.713 968.227 267.945 967.073 272.228 968.675C274.67 969.605 274.973 970.914 275.103 971.461C275.797 974.619 278.925 976.594 282.063 975.896C285.202 975.197 287.197 972.073 286.499 968.935C285.34 963.747 281.742 959.784 276.347 957.747C268.916 954.961 258.526 956.104 252.702 960.385C243.358 967.217 237.574 980.724 239.232 991.835C243.101 1017.88 276.683 1031.01 298.177 1031.66C315.388 1032.18 331.793 1027.19 347.666 1022.37C354.063 1020.44 360.086 1018.6 366.172 1017.1C395.724 1009.84 418.496 1005.81 440.004 1003.99C497.687 999.144 552.598 1007 607.865 1028.04C649.676 1043.94 682.13 1072.54 716.493 1102.8C746.698 1129.42 777.949 1156.94 815.881 1174.61L815.877 1174.63Z" fill="url(#paint3_linear_309_9078)"/>
<path d="M815.877 1174.63C845.51 1188.44 875.95 1198.19 906.341 1203.78C914.773 1205.32 923.183 1206.54 931.588 1207.43C922.369 1209.14 913.419 1210.53 904.774 1211.05C875.112 1212.88 848.059 1206.56 809.149 1191.69C794.496 1185.32 779.739 1177.46 765.301 1168.33C751.987 1159.91 738.452 1150.98 725.364 1142.35C698.554 1124.67 670.831 1106.39 642.312 1090.62C616.544 1076.37 589.511 1064.8 562.005 1056.26C515.179 1041.72 465.544 1035.52 414.447 1037.86C390.226 1038.97 364.881 1042.22 339.097 1047.51C333.273 1048.72 327.539 1050.01 321.825 1051.3C295.916 1057.16 271.305 1062.67 244.992 1057.42C230.131 1054.46 216.154 1048.28 203.167 1039.1C202.908 1038.8 202.622 1038.54 202.312 1038.29C183.618 1024.22 179.137 987.4 184.384 969.196C188.142 956.132 193.743 945.101 201.043 936.429C219.37 914.609 251.554 904.97 279.217 913C304.064 920.198 322.399 947.375 319.251 972.36C317.452 986.703 310.684 999.423 301.148 1006.39C293.155 1012.23 283.334 1014.15 271.929 1012.06C271.181 1011.92 270.444 1011.95 269.752 1012.07C260.031 1006.96 252.163 999.499 250.778 990.089C249.742 983.21 253.712 974.115 259.584 969.801C261.713 968.227 267.945 967.073 272.228 968.675C274.67 969.605 274.973 970.914 275.103 971.461C275.797 974.619 278.925 976.594 282.063 975.896C285.202 975.197 287.197 972.073 286.499 968.935C285.34 963.747 281.742 959.784 276.347 957.747C268.916 954.961 258.526 956.104 252.702 960.385C243.358 967.217 237.574 980.724 239.232 991.835C243.101 1017.88 276.683 1031.01 298.177 1031.66C315.388 1032.18 331.793 1027.19 347.666 1022.37C354.063 1020.44 360.086 1018.6 366.172 1017.1C395.724 1009.84 418.496 1005.81 440.004 1003.99C497.687 999.144 552.598 1007 607.865 1028.04C649.676 1043.94 682.13 1072.54 716.493 1102.8C746.698 1129.42 777.949 1156.94 815.881 1174.61L815.877 1174.63Z" fill="url(#paint4_linear_309_9078)"/>
<path d="M1674.78 772.685C1692.69 781.844 1711.23 791.323 1732.22 793.337L1732.23 793.357C1743.84 794.463 1756.28 792.074 1766.53 786.093C1764.01 791.05 1760.89 795.678 1756.84 800.143C1737.98 820.93 1709.35 815.905 1681.64 811.041L1681.5 811.017C1678.05 810.418 1674.68 809.825 1671.36 809.285C1623.64 801.58 1576.34 812.821 1541.61 840.083C1527.32 851.296 1514.67 864.497 1502.43 877.277L1502.33 877.378C1484.88 895.592 1468.39 912.794 1447.37 925.141C1387.22 960.46 1312.66 937.332 1255.92 911.908C1180.23 877.989 1100.51 888.827 983.11 942.46C964.031 951.172 944.786 960.648 926.167 969.817L925.509 970.141C884.261 990.47 831.448 1014.66 784.667 1023.43C735.742 1032.61 694.387 1027.27 647.003 1017.73C774.076 1024.68 835.94 970.815 849.084 962.15C875.707 944.592 903.247 926.448 931.367 910.893C956.432 897.028 982.73 885.78 1009.49 877.478C1055.03 863.342 1103.32 857.334 1153.04 859.591C1176.62 860.65 1201.37 863.837 1226.55 869.015C1232.15 870.181 1237.66 871.422 1243.13 872.653L1243.61 872.759C1270.76 878.891 1296.48 884.658 1325.3 878.925C1350.5 873.897 1373.34 860.776 1393.22 839.942C1400.9 831.884 1407.31 822.429 1413.52 813.266L1413.64 813.093C1422.17 800.489 1430.25 788.595 1441.16 780.194C1454.13 770.224 1475.26 766.697 1489.27 772.171C1498.03 775.599 1503.31 782.133 1504.92 791.578C1505.69 796.119 1504.42 801.014 1501.56 804.34C1500 806.13 1497.26 808.285 1493.05 808.203C1491.35 808.16 1489.46 807.65 1489.35 806.854C1488.95 803.667 1486.05 801.379 1482.84 801.78C1479.59 802.209 1477.36 805.085 1477.76 808.293C1478.61 815.182 1484.53 819.739 1492.85 819.881C1499.67 819.988 1505.92 817.167 1510.41 811.931C1514.47 807.172 1516.69 800.933 1516.77 794.563C1516.95 794.364 1517.15 794.242 1517.28 794.031C1531.06 772.081 1543.79 759.918 1558.56 754.633C1581.35 746.455 1608.67 747.287 1639.72 757.093C1651.59 760.827 1662.78 766.552 1674.62 772.601L1674.75 772.668L1674.78 772.685Z" fill="url(#paint5_linear_309_9078)"/>
<path d="M2125.26 952.637C2155.65 979.363 2187.1 1007.02 2227.01 1021.34L2227.01 1021.38C2249.11 1029.28 2274.54 1030.78 2297.48 1024.2C2290.12 1032.62 2281.75 1040.09 2271.64 1046.79C2224.57 1077.98 2171.25 1054.01 2119.63 1030.81L2119.38 1030.69C2112.94 1027.81 2106.67 1024.99 2100.47 1022.29C2011.26 983.652 1913.48 982.147 1832.28 1018.1C1798.88 1032.89 1767.68 1052.36 1737.48 1071.21L1737.24 1071.36C1694.2 1098.23 1653.55 1123.6 1606.46 1137.26C1471.72 1176.34 1364.77 1103.81 1266.75 1026.16C1135.99 922.56 860.618 1075.29 663.944 1021.05C759.221 1036.35 804.891 1046.25 992.679 953.604C1045.75 927.423 1097.87 912.243 1144.14 905.684C1163.79 902.899 1217.3 909.266 1233.98 915.151C1281.86 932.045 1297.79 944.776 1330.48 952.274C1367.77 960.828 1431.24 966.179 1514.22 942.264C1532.54 936.984 1549.95 928.705 1564.87 916.831C1575.03 908.745 1584.77 900.088 1594.35 891.587L1594.66 891.306C1617.54 870.959 1640.68 862.598 1666.12 851.623C1696.33 838.606 1739.27 842.192 1763.87 859.798C1779.25 870.818 1786.3 886.169 1784.77 905.378C1784.02 914.612 1779.11 923.524 1771.89 928.593C1767.98 931.314 1761.57 934.159 1753.4 931.911C1750.1 930.985 1746.67 929.055 1746.86 927.452C1747.66 921.041 1743.12 915.142 1736.67 914.336C1730.13 913.565 1724.36 918.068 1723.56 924.521C1721.8 938.369 1731.08 950.181 1747.23 954.581C1760.46 958.162 1774.05 955.759 1785.4 947.776C1795.67 940.508 1803.09 929.443 1806.4 917.067C1806.84 916.764 1807.3 916.63 1807.66 916.28C1845.38 880.311 1876.22 862.903 1907.63 859.912C1956.1 855.249 2008.96 870.4 2064.62 904.885C2085.91 918.04 2104.91 934.744 2124.98 952.394L2125.2 952.59L2125.26 952.637Z" fill="url(#paint6_linear_309_9078)"/>
<path d="M2125.26 952.637C2155.65 979.363 2187.1 1007.02 2227.01 1021.34L2227.01 1021.38C2249.11 1029.28 2274.54 1030.78 2297.48 1024.2C2290.12 1032.62 2281.75 1040.09 2271.64 1046.79C2224.57 1077.98 2171.25 1054.01 2119.63 1030.81L2119.38 1030.69C2112.94 1027.81 2106.67 1024.99 2100.47 1022.29C2011.26 983.652 1913.48 982.147 1832.28 1018.1C1798.88 1032.89 1767.68 1052.36 1737.48 1071.21L1737.24 1071.36C1694.2 1098.23 1653.55 1123.6 1606.46 1137.26C1471.72 1176.34 1364.77 1103.81 1266.75 1026.16C1135.99 922.56 860.618 1075.29 663.944 1021.05C759.221 1036.35 804.891 1046.25 992.679 953.604C1045.75 927.423 1097.87 912.243 1144.14 905.684C1163.79 902.899 1217.3 909.266 1233.98 915.151C1281.86 932.045 1297.79 944.776 1330.48 952.274C1367.77 960.828 1431.24 966.179 1514.22 942.264C1532.54 936.984 1549.95 928.705 1564.87 916.831C1575.03 908.745 1584.77 900.088 1594.35 891.587L1594.66 891.306C1617.54 870.959 1640.68 862.598 1666.12 851.623C1696.33 838.606 1739.27 842.192 1763.87 859.798C1779.25 870.818 1786.3 886.169 1784.77 905.378C1784.02 914.612 1779.11 923.524 1771.89 928.593C1767.98 931.314 1761.57 934.159 1753.4 931.911C1750.1 930.985 1746.67 929.055 1746.86 927.452C1747.66 921.041 1743.12 915.142 1736.67 914.336C1730.13 913.565 1724.36 918.068 1723.56 924.521C1721.8 938.369 1731.08 950.181 1747.23 954.581C1760.46 958.162 1774.05 955.759 1785.4 947.776C1795.67 940.508 1803.09 929.443 1806.4 917.067C1806.84 916.764 1807.3 916.63 1807.66 916.28C1845.38 880.311 1876.22 862.903 1907.63 859.912C1956.1 855.249 2008.96 870.4 2064.62 904.885C2085.91 918.04 2104.91 934.744 2124.98 952.394L2125.2 952.59L2125.26 952.637Z" fill="url(#paint7_linear_309_9078)"/>
<path d="M752.093 984.651C722.46 998.456 692.02 1008.21 661.63 1013.79C653.198 1015.34 644.788 1016.55 636.382 1017.45C645.601 1019.16 654.552 1020.55 663.197 1021.07C692.858 1022.9 719.911 1016.58 758.822 1001.7C773.474 995.334 788.231 987.481 802.669 978.348C815.983 969.924 829.519 960.999 842.606 952.366C869.417 934.69 897.14 916.407 925.658 900.633C951.427 886.388 978.46 874.816 1005.97 866.272C1052.79 851.733 1102.43 845.54 1153.52 847.879C1177.74 848.989 1203.09 852.234 1228.87 857.53C1234.7 858.739 1240.43 860.026 1246.15 861.318C1272.05 867.176 1296.67 872.688 1322.98 867.436C1337.84 864.475 1351.82 858.291 1364.8 849.112C1365.06 848.814 1365.35 848.552 1365.66 848.307C1384.35 834.233 1388.83 797.416 1383.59 779.212C1379.83 766.149 1374.23 755.117 1366.93 746.446C1348.6 724.625 1316.42 714.986 1288.75 723.016C1263.91 730.215 1245.57 757.391 1248.72 782.377C1250.52 796.72 1257.29 809.439 1266.82 816.403C1274.82 822.251 1284.64 824.167 1296.04 822.072C1296.79 821.935 1297.53 821.966 1298.22 822.09C1307.94 816.981 1315.81 809.515 1317.19 800.105C1318.23 793.226 1314.26 784.132 1308.39 779.817C1306.26 778.244 1300.03 777.089 1295.74 778.691C1293.3 779.621 1293 780.931 1292.87 781.477C1292.17 784.636 1289.05 786.611 1285.91 785.912C1282.77 785.214 1280.77 782.09 1281.47 778.951C1282.63 773.764 1286.23 769.8 1291.62 767.764C1299.05 764.977 1309.44 766.12 1315.27 770.401C1324.61 777.233 1330.4 790.74 1328.74 801.851C1324.87 827.896 1291.29 841.026 1269.79 841.672C1252.58 842.201 1236.18 837.209 1220.3 832.391C1213.91 830.452 1207.88 828.611 1201.8 827.117C1172.25 819.858 1149.47 815.827 1127.97 814.009C1070.28 809.16 1015.37 817.012 960.105 838.055C918.294 853.952 885.84 882.552 851.477 912.819C821.272 939.438 790.021 966.96 752.089 984.631L752.093 984.651Z" fill="url(#paint8_linear_309_9078)"/>
<path d="M752.093 984.651C722.46 998.456 692.02 1008.21 661.63 1013.79C653.198 1015.34 644.788 1016.55 636.382 1017.45C645.601 1019.16 654.552 1020.55 663.197 1021.07C692.858 1022.9 719.911 1016.58 758.822 1001.7C773.474 995.334 788.231 987.481 802.669 978.348C815.983 969.924 829.519 960.999 842.606 952.366C869.417 934.69 897.14 916.407 925.658 900.633C951.427 886.388 978.46 874.816 1005.97 866.272C1052.79 851.733 1102.43 845.54 1153.52 847.879C1177.74 848.989 1203.09 852.234 1228.87 857.53C1234.7 858.739 1240.43 860.026 1246.15 861.318C1272.05 867.176 1296.67 872.688 1322.98 867.436C1337.84 864.475 1351.82 858.291 1364.8 849.112C1365.06 848.814 1365.35 848.552 1365.66 848.307C1384.35 834.233 1388.83 797.416 1383.59 779.212C1379.83 766.149 1374.23 755.117 1366.93 746.446C1348.6 724.625 1316.42 714.986 1288.75 723.016C1263.91 730.215 1245.57 757.391 1248.72 782.377C1250.52 796.72 1257.29 809.439 1266.82 816.403C1274.82 822.251 1284.64 824.167 1296.04 822.072C1296.79 821.935 1297.53 821.966 1298.22 822.09C1307.94 816.981 1315.81 809.515 1317.19 800.105C1318.23 793.226 1314.26 784.132 1308.39 779.817C1306.26 778.244 1300.03 777.089 1295.74 778.691C1293.3 779.621 1293 780.931 1292.87 781.477C1292.17 784.636 1289.05 786.611 1285.91 785.912C1282.77 785.214 1280.77 782.09 1281.47 778.951C1282.63 773.764 1286.23 769.8 1291.62 767.764C1299.05 764.977 1309.44 766.12 1315.27 770.401C1324.61 777.233 1330.4 790.74 1328.74 801.851C1324.87 827.896 1291.29 841.026 1269.79 841.672C1252.58 842.201 1236.18 837.209 1220.3 832.391C1213.91 830.452 1207.88 828.611 1201.8 827.117C1172.25 819.858 1149.47 815.827 1127.97 814.009C1070.28 809.16 1015.37 817.012 960.105 838.055C918.294 853.952 885.84 882.552 851.477 912.819C821.272 939.438 790.021 966.96 752.089 984.631L752.093 984.651Z" fill="url(#paint9_linear_309_9078)"/>
<defs>
<linearGradient id="paint0_linear_309_9078" x1="932.476" y1="1192.41" x2="-200.077" y2="984.341" gradientUnits="userSpaceOnUse">
<stop stop-color="#FCF0D6"/>
<stop offset="1" stop-color="#FFC446"/>
</linearGradient>
<linearGradient id="paint1_linear_309_9078" x1="898.081" y1="1122.43" x2="-728.346" y2="1231.56" gradientUnits="userSpaceOnUse">
<stop stop-color="#FCF0D6"/>
<stop offset="1" stop-color="#FFC446"/>
</linearGradient>
<linearGradient id="paint2_linear_309_9078" x1="898.081" y1="1122.43" x2="-728.346" y2="1231.56" gradientUnits="userSpaceOnUse">
<stop stop-color="#3C3024"/>
<stop offset="1" stop-color="#BD7B49"/>
</linearGradient>
<linearGradient id="paint3_linear_309_9078" x1="945.948" y1="1129.27" x2="180.6" y2="988.661" gradientUnits="userSpaceOnUse">
<stop stop-color="#FCF0D6"/>
<stop offset="1" stop-color="#FFC446"/>
</linearGradient>
<linearGradient id="paint4_linear_309_9078" x1="945.948" y1="1129.27" x2="180.6" y2="988.661" gradientUnits="userSpaceOnUse">
<stop stop-color="#3C3024"/>
<stop offset="1" stop-color="#BD7B49"/>
</linearGradient>
<linearGradient id="paint5_linear_309_9078" x1="635.495" y1="1002.43" x2="1768.05" y2="794.356" gradientUnits="userSpaceOnUse">
<stop stop-color="#FCF0D6"/>
<stop offset="1" stop-color="#FFC446"/>
</linearGradient>
<linearGradient id="paint6_linear_309_9078" x1="669.889" y1="932.445" x2="2296.32" y2="1041.58" gradientUnits="userSpaceOnUse">
<stop stop-color="#FCF0D6"/>
<stop offset="1" stop-color="#FFC446"/>
</linearGradient>
<linearGradient id="paint7_linear_309_9078" x1="669.889" y1="932.445" x2="2296.32" y2="1041.58" gradientUnits="userSpaceOnUse">
<stop stop-color="#3C3024"/>
<stop offset="1" stop-color="#BD7B49"/>
</linearGradient>
<linearGradient id="paint8_linear_309_9078" x1="622.022" y1="939.287" x2="1387.37" y2="798.677" gradientUnits="userSpaceOnUse">
<stop stop-color="#FCF0D6"/>
<stop offset="1" stop-color="#FFC446"/>
</linearGradient>
<linearGradient id="paint9_linear_309_9078" x1="622.022" y1="939.287" x2="1387.37" y2="798.677" gradientUnits="userSpaceOnUse">
<stop stop-color="#3C3024"/>
<stop offset="1" stop-color="#BD7B49"/>
</linearGradient>
</defs>
</svg>
