<svg xmlns="http://www.w3.org/2000/svg" width="1920" height="1016" fill="none" viewBox="0 0 1920 1016"><path fill="url(#a)" d="M-106.81 962.67c-17.91 9.16-36.45 18.64-57.44 20.65v.02c-11.62 1.11-24.06-1.28-34.31-7.26a63.6 63.6 0 0 0 9.69 14.05c18.86 20.78 47.49 15.76 75.2 10.9l.14-.03c3.45-.6 6.83-1.19 10.14-1.73 47.72-7.7 95.02 3.54 129.75 30.8 14.29 11.21 26.94 24.41 39.19 37.19l.09.1c17.45 18.22 33.94 35.42 54.96 47.77 60.15 35.31 134.71 12.19 191.45-13.24 75.69-33.92 155.41-23.08 272.81 30.56 19.08 8.71 38.32 18.18 56.94 27.35l.66.33c41.25 20.32 94.06 44.51 140.84 53.29 48.93 9.18 90.28 3.84 137.67-5.7-127.08 6.94-188.94-46.92-202.08-55.58-26.63-17.56-54.17-35.71-82.29-51.26-25.06-13.87-51.36-25.12-78.11-33.42-45.55-14.13-93.84-20.14-143.56-17.88-23.58 1.06-48.33 4.24-73.51 9.42-5.6 1.17-11.11 2.41-16.58 3.64l-.47.1c-27.16 6.14-52.88 11.9-81.7 6.17-25.2-5.03-48.04-18.15-67.92-38.98-7.68-8.06-14.09-17.52-20.3-26.68l-.12-.17c-8.53-12.61-16.61-24.5-27.52-32.9-12.97-9.97-34.1-13.5-48.11-8.02-8.76 3.42-14.04 9.96-15.65 19.4-.77 4.54.51 9.44 3.36 12.77 1.56 1.79 4.3 3.94 8.51 3.86 1.7-.05 3.6-.55 3.7-1.35.4-3.19 3.3-5.48 6.51-5.08 3.25.43 5.48 3.31 5.08 6.52-.85 6.89-6.77 11.44-15.09 11.59-6.81.1-13.07-2.72-17.56-7.95-4.06-4.76-6.28-11-6.36-17.37-.18-.2-.38-.32-.51-.53-13.78-21.95-26.51-34.12-41.28-39.4-22.79-8.18-50.11-7.35-81.16 2.46-11.86 3.73-23.06 9.46-34.89 15.51l-.14.06z"/><path fill="url(#b)" d="M-557.28 1142.62c-30.39 26.73-61.85 54.39-101.76 68.7v.04c-22.1 7.91-47.53 9.41-70.47 2.83 7.36 8.41 15.74 15.89 25.84 22.59 47.07 31.18 100.39 7.21 152.01-15.99l.25-.11c6.44-2.88 12.71-5.7 18.91-8.4 89.21-38.64 187-40.15 268.19-4.19 33.4 14.78 64.59 34.25 94.8 53.11l.24.14c43.04 26.87 83.69 52.24 130.78 65.91 134.74 39.07 241.69-33.46 339.71-111.11 130.76-103.59 406.13 49.13 602.81-5.11-95.28 15.3-140.95 25.2-328.74-67.44-53.07-26.18-105.19-41.36-151.46-47.92-19.65-2.79-73.16 3.58-89.84 9.47-47.88 16.89-63.81 29.62-96.5 37.12-37.29 8.55-100.76 13.9-183.74-10.01-18.32-5.28-35.73-13.56-50.65-25.43-10.16-8.09-19.9-16.75-29.48-25.25l-.31-.28c-22.88-20.35-46.02-28.71-71.46-39.68-30.21-13.02-73.15-9.43-97.75 8.17-15.38 11.02-22.43 26.37-20.9 45.58.75 9.24 5.66 18.15 12.87 23.22 3.92 2.72 10.33 5.56 18.5 3.32 3.3-.93 6.73-2.86 6.54-4.46-.8-6.41 3.74-12.31 10.19-13.12 6.54-.77 12.31 3.73 13.11 10.19 1.76 13.84-7.51 25.66-23.67 30.06-13.23 3.58-26.82 1.17-38.17-6.81-10.27-7.27-17.69-18.33-21-30.71-.44-.3-.9-.44-1.26-.78-37.72-35.97-68.56-53.38-99.97-56.37-48.47-4.67-101.33 10.49-156.99 44.97-21.29 13.16-40.29 29.86-60.36 47.51l-.22.19z"/><path fill="url(#c)" d="M-557.28 1142.62c-30.39 26.73-61.85 54.39-101.76 68.7v.04c-22.1 7.91-47.53 9.41-70.47 2.83 7.36 8.41 15.74 15.89 25.84 22.59 47.07 31.18 100.39 7.21 152.01-15.99l.25-.11c6.44-2.88 12.71-5.7 18.91-8.4 89.21-38.64 187-40.15 268.19-4.19 33.4 14.78 64.59 34.25 94.8 53.11l.24.14c43.04 26.87 83.69 52.24 130.78 65.91 134.74 39.07 241.69-33.46 339.71-111.11 130.76-103.59 406.13 49.13 602.81-5.11-95.28 15.3-140.95 25.2-328.74-67.44-53.07-26.18-105.19-41.36-151.46-47.92-19.65-2.79-73.16 3.58-89.84 9.47-47.88 16.89-63.81 29.62-96.5 37.12-37.29 8.55-100.76 13.9-183.74-10.01-18.32-5.28-35.73-13.56-50.65-25.43-10.16-8.09-19.9-16.75-29.48-25.25l-.31-.28c-22.88-20.35-46.02-28.71-71.46-39.68-30.21-13.02-73.15-9.43-97.75 8.17-15.38 11.02-22.43 26.37-20.9 45.58.75 9.24 5.66 18.15 12.87 23.22 3.92 2.72 10.33 5.56 18.5 3.32 3.3-.93 6.73-2.86 6.54-4.46-.8-6.41 3.74-12.31 10.19-13.12 6.54-.77 12.31 3.73 13.11 10.19 1.76 13.84-7.51 25.66-23.67 30.06-13.23 3.58-26.82 1.17-38.17-6.81-10.27-7.27-17.69-18.33-21-30.71-.44-.3-.9-.44-1.26-.78-37.72-35.97-68.56-53.38-99.97-56.37-48.47-4.67-101.33 10.49-156.99 44.97-21.29 13.16-40.29 29.86-60.36 47.51l-.22.19z"/><path fill="url(#d)" d="M815.88 1174.63c29.63 13.81 60.07 23.56 90.46 29.15a339 339 0 0 0 25.25 3.65c-9.22 1.71-18.17 3.1-26.82 3.62-29.66 1.83-56.71-4.49-95.62-19.36-14.65-6.37-29.41-14.23-43.85-23.36-13.31-8.42-26.85-17.35-39.94-25.98-26.81-17.68-54.53-35.96-83.05-51.73-25.77-14.25-52.8-25.82-80.31-34.36-46.82-14.54-96.46-20.74-147.55-18.4-24.22 1.11-49.57 4.36-75.35 9.65-5.83 1.21-11.56 2.5-17.28 3.79-25.9 5.86-50.51 11.37-76.83 6.12-14.86-2.96-28.84-9.14-41.82-18.32-.26-.3-.55-.56-.86-.81-18.69-14.07-23.17-50.89-17.93-69.09 3.76-13.07 9.36-24.1 16.66-32.77 18.33-21.82 50.51-31.46 78.18-23.43 24.84 7.2 43.18 34.38 40.03 59.36-1.8 14.34-8.57 27.06-18.1 34.03-8 5.84-17.82 7.76-29.22 5.67-.75-.14-1.49-.11-2.18.01-9.72-5.11-17.59-12.57-18.97-21.98-1.04-6.88 2.93-15.97 8.8-20.29 2.13-1.57 8.36-2.73 12.65-1.13 2.44.94 2.74 2.24 2.87 2.79.7 3.16 3.83 5.13 6.96 4.44 3.14-.7 5.14-3.83 4.44-6.97-1.16-5.18-4.76-9.15-10.15-11.18-7.43-2.79-17.82-1.65-23.65 2.63-9.34 6.84-15.13 20.34-13.47 31.46 3.87 26.04 37.45 39.17 58.95 39.82 17.21.52 33.61-4.47 49.49-9.29 6.39-1.93 12.42-3.77 18.5-5.27 29.55-7.26 52.33-11.29 73.83-13.11 57.69-4.85 112.6 3.01 167.87 24.05 41.81 15.9 74.26 44.5 108.62 74.76 30.21 26.62 61.46 54.14 99.39 71.81z"/><path fill="url(#e)" d="M815.88 1174.63c29.63 13.81 60.07 23.56 90.46 29.15a339 339 0 0 0 25.25 3.65c-9.22 1.71-18.17 3.1-26.82 3.62-29.66 1.83-56.71-4.49-95.62-19.36-14.65-6.37-29.41-14.23-43.85-23.36-13.31-8.42-26.85-17.35-39.94-25.98-26.81-17.68-54.53-35.96-83.05-51.73-25.77-14.25-52.8-25.82-80.31-34.36-46.82-14.54-96.46-20.74-147.55-18.4-24.22 1.11-49.57 4.36-75.35 9.65-5.83 1.21-11.56 2.5-17.28 3.79-25.9 5.86-50.51 11.37-76.83 6.12-14.86-2.96-28.84-9.14-41.82-18.32-.26-.3-.55-.56-.86-.81-18.69-14.07-23.17-50.89-17.93-69.09 3.76-13.07 9.36-24.1 16.66-32.77 18.33-21.82 50.51-31.46 78.18-23.43 24.84 7.2 43.18 34.38 40.03 59.36-1.8 14.34-8.57 27.06-18.1 34.03-8 5.84-17.82 7.76-29.22 5.67-.75-.14-1.49-.11-2.18.01-9.72-5.11-17.59-12.57-18.97-21.98-1.04-6.88 2.93-15.97 8.8-20.29 2.13-1.57 8.36-2.73 12.65-1.13 2.44.94 2.74 2.24 2.87 2.79.7 3.16 3.83 5.13 6.96 4.44 3.14-.7 5.14-3.83 4.44-6.97-1.16-5.18-4.76-9.15-10.15-11.18-7.43-2.79-17.82-1.65-23.65 2.63-9.34 6.84-15.13 20.34-13.47 31.46 3.87 26.04 37.45 39.17 58.95 39.82 17.21.52 33.61-4.47 49.49-9.29 6.39-1.93 12.42-3.77 18.5-5.27 29.55-7.26 52.33-11.29 73.83-13.11 57.69-4.85 112.6 3.01 167.87 24.05 41.81 15.9 74.26 44.5 108.62 74.76 30.21 26.62 61.46 54.14 99.39 71.81z"/><path fill="url(#f)" d="M1674.78 772.68c17.91 9.16 36.45 18.64 57.44 20.66l.01.02c11.61 1.1 24.05-1.29 34.3-7.27a63.2 63.2 0 0 1-9.69 14.05c-18.86 20.79-47.49 15.76-75.2 10.9l-.14-.02c-3.45-.6-6.82-1.19-10.14-1.74-47.72-7.7-95.02 3.54-129.75 30.8-14.29 11.22-26.94 24.42-39.18 37.2l-.1.1c-17.45 18.21-33.94 35.41-54.96 47.76-60.15 35.32-134.71 12.19-191.45-13.23-75.69-33.92-155.41-23.08-272.81 30.55-19.08 8.71-38.32 18.19-56.94 27.36l-.66.32c-41.25 20.33-94.06 44.52-140.84 53.29-48.93 9.18-90.28 3.84-137.67-5.7 127.08 6.95 188.94-46.91 202.08-55.58 26.63-17.56 54.17-35.7 82.29-51.26 25.06-13.86 51.36-25.11 78.12-33.41 45.54-14.14 93.83-20.15 143.55-17.89 23.58 1.06 48.33 4.25 73.51 9.42 5.6 1.17 11.11 2.41 16.58 3.64l.48.11c27.15 6.13 52.87 11.9 81.69 6.16 25.2-5.02 48.04-18.14 67.92-38.98 7.68-8.06 14.09-17.51 20.3-26.67l.12-.18c8.53-12.6 16.61-24.49 27.52-32.9 12.97-9.97 34.1-13.49 48.11-8.02 8.76 3.43 14.04 9.96 15.65 19.41.77 4.54-.5 9.43-3.36 12.76-1.56 1.79-4.3 3.94-8.51 3.86-1.7-.04-3.59-.55-3.7-1.35-.4-3.18-3.3-5.47-6.51-5.07-3.25.43-5.48 3.31-5.08 6.51.85 6.89 6.77 11.45 15.09 11.59 6.82.11 13.07-2.71 17.56-7.95 4.06-4.76 6.28-11 6.36-17.37.18-.2.38-.32.51-.53 13.78-21.95 26.51-34.11 41.28-39.4 22.79-8.17 50.11-7.34 81.16 2.46 11.87 3.74 23.06 9.46 34.9 15.51l.13.07z"/><path fill="url(#g)" d="M2125.26 952.64c30.39 26.72 61.84 54.38 101.75 68.7v.04c22.1 7.9 47.53 9.4 70.47 2.82-7.36 8.42-15.73 15.89-25.84 22.59-47.07 31.19-100.39 7.22-152.01-15.98l-.25-.12c-6.44-2.88-12.71-5.7-18.91-8.4-89.21-38.64-186.99-40.14-268.19-4.19-33.4 14.79-64.6 34.26-94.8 53.11l-.24.15c-43.04 26.87-83.69 52.24-130.78 65.9-134.74 39.08-241.69-33.45-339.71-111.1-130.76-103.6-406.13 49.13-602.81-5.11 95.28 15.3 140.95 25.2 328.74-67.45 53.07-26.18 105.19-41.36 151.46-47.92 19.65-2.78 73.16 3.59 89.84 9.47 47.88 16.89 63.81 29.63 96.5 37.12 37.29 8.56 100.76 13.91 183.74-10.01 18.32-5.28 35.73-13.55 50.65-25.43 10.16-8.08 19.9-16.74 29.48-25.24l.31-.28c22.88-20.35 46.02-28.71 71.46-39.69 30.21-13.01 73.15-9.43 97.75 8.18 15.38 11.02 22.43 26.37 20.9 45.58-.75 9.23-5.66 18.14-12.88 23.21-3.91 2.72-10.32 5.57-18.49 3.32-3.3-.92-6.73-2.86-6.54-4.46.8-6.41-3.74-12.31-10.19-13.11-6.54-.77-12.31 3.73-13.11 10.18-1.76 13.85 7.52 25.66 23.67 30.06 13.23 3.58 26.82 1.18 38.17-6.8 10.27-7.27 17.69-18.34 21-30.71.44-.31.9-.44 1.26-.79 37.72-35.97 68.56-53.38 99.97-56.37 48.47-4.66 101.33 10.49 156.99 44.97 21.29 13.16 40.29 29.86 60.36 47.51l.22.2z"/><path fill="url(#h)" d="M2125.26 952.64c30.39 26.72 61.84 54.38 101.75 68.7v.04c22.1 7.9 47.53 9.4 70.47 2.82-7.36 8.42-15.73 15.89-25.84 22.59-47.07 31.19-100.39 7.22-152.01-15.98l-.25-.12c-6.44-2.88-12.71-5.7-18.91-8.4-89.21-38.64-186.99-40.14-268.19-4.19-33.4 14.79-64.6 34.26-94.8 53.11l-.24.15c-43.04 26.87-83.69 52.24-130.78 65.9-134.74 39.08-241.69-33.45-339.71-111.1-130.76-103.6-406.13 49.13-602.81-5.11 95.28 15.3 140.95 25.2 328.74-67.45 53.07-26.18 105.19-41.36 151.46-47.92 19.65-2.78 73.16 3.59 89.84 9.47 47.88 16.89 63.81 29.63 96.5 37.12 37.29 8.56 100.76 13.91 183.74-10.01 18.32-5.28 35.73-13.55 50.65-25.43 10.16-8.08 19.9-16.74 29.48-25.24l.31-.28c22.88-20.35 46.02-28.71 71.46-39.69 30.21-13.01 73.15-9.43 97.75 8.18 15.38 11.02 22.43 26.37 20.9 45.58-.75 9.23-5.66 18.14-12.88 23.21-3.91 2.72-10.32 5.57-18.49 3.32-3.3-.92-6.73-2.86-6.54-4.46.8-6.41-3.74-12.31-10.19-13.11-6.54-.77-12.31 3.73-13.11 10.18-1.76 13.85 7.52 25.66 23.67 30.06 13.23 3.58 26.82 1.18 38.17-6.8 10.27-7.27 17.69-18.34 21-30.71.44-.31.9-.44 1.26-.79 37.72-35.97 68.56-53.38 99.97-56.37 48.47-4.66 101.33 10.49 156.99 44.97 21.29 13.16 40.29 29.86 60.36 47.51l.22.2z"/><path fill="url(#i)" d="M752.09 984.65c-29.63 13.81-60.07 23.56-90.46 29.14a339 339 0 0 1-25.25 3.66c9.22 1.71 18.17 3.1 26.82 3.62 29.66 1.83 56.71-4.49 95.62-19.37 14.65-6.37 29.41-14.22 43.85-23.35 13.31-8.43 26.85-17.35 39.94-25.98 26.81-17.68 54.53-35.96 83.05-51.74 25.77-14.24 52.8-25.81 80.31-34.36 46.82-14.54 96.46-20.73 147.55-18.39 24.22 1.11 49.57 4.35 75.35 9.65 5.83 1.21 11.56 2.5 17.28 3.79 25.9 5.86 50.52 11.37 76.83 6.12 14.86-2.96 28.84-9.15 41.82-18.33.26-.3.55-.56.86-.8 18.69-14.08 23.17-50.89 17.93-69.1-3.76-13.06-9.36-24.09-16.66-32.76-18.33-21.82-50.51-31.46-78.18-23.43-24.84 7.2-43.18 34.37-40.03 59.36 1.8 14.34 8.57 27.06 18.1 34.02 8 5.85 17.82 7.77 29.22 5.67.75-.14 1.49-.1 2.18.02 9.72-5.11 17.59-12.58 18.97-21.98 1.04-6.88-2.93-15.98-8.8-20.29-2.13-1.58-8.36-2.73-12.65-1.13-2.44.93-2.74 2.24-2.87 2.79a5.825 5.825 0 0 1-6.96 4.43c-3.14-.7-5.14-3.82-4.44-6.96 1.16-5.19 4.76-9.15 10.15-11.19 7.43-2.78 17.82-1.64 23.65 2.64 9.34 6.83 15.13 20.34 13.47 31.45-3.87 26.05-37.45 39.18-58.95 39.82-17.21.53-33.61-4.46-49.49-9.28-6.39-1.94-12.42-3.78-18.5-5.27-29.55-7.26-52.33-11.29-73.83-13.11-57.69-4.85-112.6 3-167.86 24.04-41.82 15.9-74.27 44.5-108.63 74.77-30.21 26.62-61.46 54.14-99.39 71.81z"/><path fill="url(#j)" d="M752.09 984.65c-29.63 13.81-60.07 23.56-90.46 29.14a339 339 0 0 1-25.25 3.66c9.22 1.71 18.17 3.1 26.82 3.62 29.66 1.83 56.71-4.49 95.62-19.37 14.65-6.37 29.41-14.22 43.85-23.35 13.31-8.43 26.85-17.35 39.94-25.98 26.81-17.68 54.53-35.96 83.05-51.74 25.77-14.24 52.8-25.81 80.31-34.36 46.82-14.54 96.46-20.73 147.55-18.39 24.22 1.11 49.57 4.35 75.35 9.65 5.83 1.21 11.56 2.5 17.28 3.79 25.9 5.86 50.52 11.37 76.83 6.12 14.86-2.96 28.84-9.15 41.82-18.33.26-.3.55-.56.86-.8 18.69-14.08 23.17-50.89 17.93-69.1-3.76-13.06-9.36-24.09-16.66-32.76-18.33-21.82-50.51-31.46-78.18-23.43-24.84 7.2-43.18 34.37-40.03 59.36 1.8 14.34 8.57 27.06 18.1 34.02 8 5.85 17.82 7.77 29.22 5.67.75-.14 1.49-.1 2.18.02 9.72-5.11 17.59-12.58 18.97-21.98 1.04-6.88-2.93-15.98-8.8-20.29-2.13-1.58-8.36-2.73-12.65-1.13-2.44.93-2.74 2.24-2.87 2.79a5.825 5.825 0 0 1-6.96 4.43c-3.14-.7-5.14-3.82-4.44-6.96 1.16-5.19 4.76-9.15 10.15-11.19 7.43-2.78 17.82-1.64 23.65 2.64 9.34 6.83 15.13 20.34 13.47 31.45-3.87 26.05-37.45 39.18-58.95 39.82-17.21.53-33.61-4.46-49.49-9.28-6.39-1.94-12.42-3.78-18.5-5.27-29.55-7.26-52.33-11.29-73.83-13.11-57.69-4.85-112.6 3-167.86 24.04-41.82 15.9-74.27 44.5-108.63 74.77-30.21 26.62-61.46 54.14-99.39 71.81z"/><defs><linearGradient id="a" x1="932.48" x2="-200.08" y1="1192.41" y2="984.34" gradientUnits="userSpaceOnUse"><stop stop-color="#fcf0d6"/><stop offset="1" stop-color="#ffc446"/></linearGradient><linearGradient id="b" x1="898.08" x2="-728.35" y1="1122.43" y2="1231.56" gradientUnits="userSpaceOnUse"><stop stop-color="#fcf0d6"/><stop offset="1" stop-color="#ffc446"/></linearGradient><linearGradient id="c" x1="898.08" x2="-728.35" y1="1122.43" y2="1231.56" gradientUnits="userSpaceOnUse"><stop stop-color="#3c3024"/><stop offset="1" stop-color="#bd7b49"/></linearGradient><linearGradient id="d" x1="945.95" x2="180.6" y1="1129.27" y2="988.66" gradientUnits="userSpaceOnUse"><stop stop-color="#fcf0d6"/><stop offset="1" stop-color="#ffc446"/></linearGradient><linearGradient id="e" x1="945.95" x2="180.6" y1="1129.27" y2="988.66" gradientUnits="userSpaceOnUse"><stop stop-color="#3c3024"/><stop offset="1" stop-color="#bd7b49"/></linearGradient><linearGradient id="f" x1="635.5" x2="1768.05" y1="1002.43" y2="794.36" gradientUnits="userSpaceOnUse"><stop stop-color="#fcf0d6"/><stop offset="1" stop-color="#ffc446"/></linearGradient><linearGradient id="g" x1="669.89" x2="2296.32" y1="932.45" y2="1041.58" gradientUnits="userSpaceOnUse"><stop stop-color="#fcf0d6"/><stop offset="1" stop-color="#ffc446"/></linearGradient><linearGradient id="h" x1="669.89" x2="2296.32" y1="932.45" y2="1041.58" gradientUnits="userSpaceOnUse"><stop stop-color="#3c3024"/><stop offset="1" stop-color="#bd7b49"/></linearGradient><linearGradient id="i" x1="622.02" x2="1387.37" y1="939.29" y2="798.68" gradientUnits="userSpaceOnUse"><stop stop-color="#fcf0d6"/><stop offset="1" stop-color="#ffc446"/></linearGradient><linearGradient id="j" x1="622.02" x2="1387.37" y1="939.29" y2="798.68" gradientUnits="userSpaceOnUse"><stop stop-color="#3c3024"/><stop offset="1" stop-color="#bd7b49"/></linearGradient></defs></svg>