<svg xmlns="http://www.w3.org/2000/svg" width="113" height="55" fill="none" viewBox="0 0 113 55"><g filter="url(#a)"><circle cx="5.4" cy="27.5" r="4.5" fill="url(#b)"/></g><circle cx="5.4" cy="27.5" r="4.5" stroke="url(#c)" stroke-width="1.8"/><g filter="url(#d)"><circle cx="107.4" cy="27.5" r="4.5" fill="url(#e)"/></g><circle cx="107.4" cy="27.5" r="4.5" stroke="url(#f)" stroke-width="1.8"/><mask id="M" fill="#fff"><path d="M52.44 52.33c0 .48.72 1.28 1.59 1.79 2.34 1.36 3.39 1.19 5.22-.83 1.87-2.06 1.29-2.35-1.37-.69-1.44.9-2.17.89-3.62-.01-1-.62-1.82-.74-1.82-.26"/><path d="M52.37 50.85c.93-.24 1.96 0 2.29.55.77 1.23 3.23 1.29 3.23.08 0-.5.59-.91 1.31-.91 1.83 0 2.72-1.75 2.48-4.9-.31-4.02-1.83-5.48-3.82-3.68-1.26 1.13-1.7 1.19-2.07.25-.29-.71-.52-.46-.58.62-.1 1.63-.24 1.58-1.37-.45l-1.26-2.27-1.04 2.72c-.58 1.5-.82 3.86-.54 5.26.31 1.55.16 2.32-.39 1.99-.49-.31-.95-1.86-1.03-3.45-.13-2.82-.14-2.83-.52-.34-.46 3.08 1.03 5.13 3.31 4.53m11.23-3.91c-.28.75-.88 2.18-1.34 3.18-.82 1.78-.81 1.78.58.05.77-.97 1.38-2.4 1.34-3.17-.06-1.23-.14-1.23-.58-.06m-17.06-.9c-.75 0-1.36.61-1.36 1.36 0 .74.61 1.36 1.36 1.36s1.36-.62 1.36-1.36c0-.75-.61-1.36-1.36-1.36m20.06 0c-.79 0-1.44.64-1.44 1.43 0 1.6 1.95 1.32 2.52-.36.19-.59-.29-1.07-1.08-1.07m-27.71-5.73c-.04 1.08.55 2.59 1.32 3.36 1.38 1.38 7 1.65 6.16.29-.24-.4-1.15-.49-2.03-.22-1.58.51-3.91-1.42-4.88-4.05-.33-.91-.52-.71-.57.62m25.83 3.01c.17.74.33 1.46.37 1.58.25.83.93.01.75-.9-.12-.63.59-1.15 1.59-1.17 2.9-.06 4.09-1.24 4.09-4.07 0-1.68-.64-2.97-1.76-3.57-1.94-1.04-2.68-.4-2.3 1.94.17 1.06-.19 1.36-1.18.98-.93-.35-1.2-.18-.77.51.44.71.14.85-.92.45-1.26-.49-1.43-.27-.86 1.14.38.96.83 2.36.99 3.11"/><path d="M68.3 43.88c-.82-.31-1.18-.16-.86.35.89 1.44 3.67 1.04 5.31-.78 1.22-1.34 1.36-2.36.69-5.21l-.83-3.54-.09 3.75c-.1 4.01-1.89 6.32-4.22 5.43m-27.29-5.21c-.25 1.35.18 2.58 1.14 3.28 2.01 1.47 6.11.37 6.52-1.75.19-1-.07-1.4-.68-1.02-.55.34-1 .16-1-.4 0-.55-.36-.79-.8-.51-.45.27-.75-.22-.68-1.08.07-1-.63-1.69-1.92-1.87-1.13-.16-2.08.05-2.11.45-.04.41-.25 1.72-.47 2.9m-4.46-2.61c-.75 0-1.36.62-1.36 1.36 0 .75.61 1.36 1.36 1.36s1.36-.61 1.36-1.36c0-.74-.61-1.36-1.36-1.36m39.61 0c-1.3 0-1.7.42-1.32 1.4.59 1.55 2.27 1.36 2.83-.32.2-.6-.47-1.08-1.51-1.08m-36.44-.44c-.5.3-.9.93-.9 1.4 0 1.31.65 1.02 1.25-.55.31-.81.16-1.17-.35-.85m-4.05-1.59c-1.24-.23-2.03-.08-1.77.35.47.75 4.01 1.13 4.01.43 0-.19-1.01-.54-2.24-.78m45.21-3.55c-.97 1.72-2.75 3.23-4.37 3.71-2.27.67-2.38.82-.66.89 2.2.08 8.38-5.53 8.38-7.63 0-2.09-6.18-7.71-8.38-7.62-1.71.06-1.6.21.67.87 1.7.5 3.34 1.94 4.36 3.83 1.58 2.93 1.58 3.15 0 5.95"/><path d="M71.53 31.99c1.01.32 1.63.9 1.39 1.29s.67.51 2.03.27c2.4-.43 6.49-4.27 6.49-6.1s-4.09-5.67-6.49-6.1c-1.36-.24-2.28-.13-2.05.24.22.37-.4.88-1.39 1.14-1.08.28-1.81 1.24-1.81 2.37 0 1.43.61 1.93 2.5 2.03l2.5.14-2.5.38c-3 .45-3.46 3.45-.67 4.34m-38.96-2.43c.69 1.34 1.66 2.72 2.16 3.09 2.29 1.68 7-.08 7.41-2.77.25-1.66-.17-2-2.65-2.12l-2.94-.15 2.94-.36c2.39-.3 2.88-.72 2.64-2.29-.29-1.9-2.37-3.22-5.29-3.34-.84-.03-2.43 1.19-3.52 2.73-1.79 2.51-1.87 3.04-.75 5.21"/><path d="M30.64 24.04c-2.24 1.91-2.33 4.57-.22 6.62.87.85 1.76 1.39 1.98 1.19.22-.19-.09-.83-.68-1.42-1.31-1.31-1.42-4.93-.17-5.7.5-.31.91-.94.91-1.4 0-.47-.82-.15-1.82.71m6.04-4.11c-.93-.19-2.08.04-2.57.52-.57.57.03.7 1.69.36 1.9-.39 2.13-.61.88-.88m4.86-.47c1.19.18 2.37.53 2.62.78.8.8 2.05-2.27 1.38-3.36-.4-.64-.24-.79.4-.39.58.35 1.05.19 1.05-.37s.45-.74 1-.4c.61.38.87-.01.68-1.02-.67-3.49-8.47-2.85-7.99.66.1.66.12 1.82.05 2.57-.11 1.21-.23 1.21-1.09 0-.74-1.05-.88-1.07-.62-.08.19.7 1.32 1.42 2.52 1.61m25.93-1.76c-.14.88-.08 1.9.13 2.27.22.38 1.19.26 2.16-.25 1.9-1.02 2.42-5.29.83-6.89-1.46-1.45-6.12-.39-6.61 1.51-.44 1.66 1.54 3.13 3 2.23.41-.25.63.26.49 1.13"/><path d="M68.32 11.01c2.54-.97 4.92 2.14 4.5 5.87l-.37 3.32.91-3.54c.75-2.91.64-3.84-.61-5.21-1.64-1.81-4.42-2.22-5.31-.78-.33.52.05.66.88.34m-31.77 5.11c-.75 0-1.36.61-1.36 1.36s.61 1.36 1.36 1.36 1.36-.61 1.36-1.36-.61-1.36-1.36-1.36m41.12 1.64c-.56-1.68-2.24-1.87-2.83-.32-.38.98.02 1.4 1.32 1.4 1.04 0 1.71-.48 1.51-1.08m-32.86-6.94c-1.59-2.57-6.04.26-5.93 3.78.05 1.93.07 1.93.8.13 1.05-2.57 3.39-4.34 4.69-3.54.69.43.85.29.44-.37m8.43-6.41c-2.82 2.01-3.19 3.8-1.59 7.8l1.02 2.55 1.21-2.72c1.19-2.68 1.21-2.69 1.35-.45.14 2.12.2 2.09.85-.46.51-2.02.72-2.22.8-.79.14 2.65 2.28 4.37 3.53 2.84.87-1.06 1.45-4.26 1.22-6.74-.06-.59-1.38-1.7-2.94-2.48-2.65-1.32-3-1.29-5.45.45"/><path d="M50.4 4.22c-.98.77-1.54 2.33-1.45 4.08l.13 2.83.4-2.72c.22-1.49.87-3.33 1.45-4.08.92-1.18.85-1.19-.53-.11m-3.86 1.93c-.75 0-1.36.61-1.36 1.36 0 .74.61 1.36 1.36 1.36s1.36-.62 1.36-1.36c0-.75-.61-1.36-1.36-1.36M62.9 4.73c-1.23-1.61-1.27-1.51-.36 1.19C63.56 9 64.25 9.7 64.25 7.68c0-.65-.61-1.98-1.35-2.95m3.23 1.59c-.53-.18-.97.36-.97 1.19s.44 1.36.97 1.18c.54-.18.98-.71.98-1.18 0-.48-.44-1.01-.98-1.19M54.71.54c-1.25.57-2.27 1.46-2.27 1.97 0 .57.7.5 1.82-.2 1.46-.91 2.19-.9 3.72.06 2.57 1.6 3.09.84.82-1.21C57.29-.2 56.58-.31 54.71.54"/><path fill-rule="evenodd" d="M49 36.53c-5.76-4.83-6.04-12.04-.66-17.4 2.6-2.6 3.62-3.01 7.42-2.98 5.19.04 7.95 1.38 10.36 5.02 3.42 5.18 1.48 13.43-3.86 16.39-3.67 2.03-10.23 1.53-13.26-1.03m15.7-9.08c0 3.52-.43 4.61-2.54 6.43-5.61 4.81-14.26 1.04-14.26-6.23 0-7.77 8.39-11.66 14.26-6.62 2.11 1.81 2.54 2.9 2.54 6.42m-11.97 6.63c-2.71-1.31-4.44-5.72-3.38-8.66 1.98-5.57 8.09-7.03 12.2-2.93 2.13 2.13 2.41 4.69.43 3.93-.89-.34-1.36.02-1.36 1.03s.47 1.37 1.36 1.03c3.09-1.18.98 3.64-2.34 5.35-2.96 1.53-4.16 1.57-6.91.25m-1.06-6.63c0-.47-.44-1.01-.98-1.18-.53-.18-.97.35-.97 1.18s.44 1.37.97 1.19c.54-.18.98-.72.98-1.19M51.53 31c0-1.6 1.96-1.32 2.52.36.2.59-.29 1.08-1.08 1.08s-1.44-.65-1.44-1.44m5.59 1.89c0-.47-.44-1.01-.98-1.19-.53-.17-.97.36-.97 1.19s.44 1.36.97 1.19c.54-.18.98-.72.98-1.19m-.98-6.62c.54.17.98.71.98 1.18s-.44 1.01-.98 1.19c-.53.18-.97-.36-.97-1.19s.44-1.36.97-1.18m5.21 5.19c-.18-.53-.71-.97-1.19-.97-.47 0-1.01.44-1.19.97-.17.54.36.98 1.19.98.84 0 1.37-.44 1.19-.98m-1.19-9c.75 0 1.37.39 1.37.86 0 1.14-1.42 1.96-2.15 1.24-1.02-1.03-.62-2.1.78-2.1m-2.48-.17c-.56-1.68-2.51-1.95-2.51-.35 0 .79.64 1.43 1.44 1.43.79 0 1.27-.48 1.07-1.08m-5.17.35c.54.18.98.71.98 1.18 0 .48-.44 1.01-.98 1.19s-.98-.35-.98-1.19c0-.83.44-1.36.98-1.18" clip-rule="evenodd"/></mask><path fill="url(#g)" fill-opacity=".4" d="M52.44 52.33c0 .48.72 1.28 1.59 1.79 2.34 1.36 3.39 1.19 5.22-.83 1.87-2.06 1.29-2.35-1.37-.69-1.44.9-2.17.89-3.62-.01-1-.62-1.82-.74-1.82-.26"/><path fill="url(#h)" fill-opacity=".4" d="M52.37 50.85c.93-.24 1.96 0 2.29.55.77 1.23 3.23 1.29 3.23.08 0-.5.59-.91 1.31-.91 1.83 0 2.72-1.75 2.48-4.9-.31-4.02-1.83-5.48-3.82-3.68-1.26 1.13-1.7 1.19-2.07.25-.29-.71-.52-.46-.58.62-.1 1.63-.24 1.58-1.37-.45l-1.26-2.27-1.04 2.72c-.58 1.5-.82 3.86-.54 5.26.31 1.55.16 2.32-.39 1.99-.49-.31-.95-1.86-1.03-3.45-.13-2.82-.14-2.83-.52-.34-.46 3.08 1.03 5.13 3.31 4.53"/><path fill="url(#i)" fill-opacity=".4" d="M63.6 46.94c-.28.75-.88 2.18-1.34 3.18-.82 1.78-.81 1.78.58.05.77-.97 1.38-2.4 1.34-3.17-.06-1.23-.14-1.23-.58-.06"/><path fill="url(#j)" fill-opacity=".4" d="M46.54 46.04c-.75 0-1.36.61-1.36 1.36 0 .74.61 1.36 1.36 1.36s1.36-.62 1.36-1.36c0-.75-.61-1.36-1.36-1.36"/><path fill="url(#k)" fill-opacity=".4" d="M66.6 46.04c-.79 0-1.44.64-1.44 1.43 0 1.6 1.95 1.32 2.52-.36.19-.59-.29-1.07-1.08-1.07"/><path fill="url(#l)" fill-opacity=".4" d="M38.89 40.31c-.04 1.08.55 2.59 1.32 3.36 1.38 1.38 7 1.65 6.16.29-.24-.4-1.15-.49-2.03-.22-1.58.51-3.91-1.42-4.88-4.05-.33-.91-.52-.71-.57.62"/><path fill="url(#m)" fill-opacity=".4" d="M64.72 43.32c.17.74.33 1.46.37 1.58.25.83.93.01.75-.9-.12-.63.59-1.15 1.59-1.17 2.9-.06 4.09-1.24 4.09-4.07 0-1.68-.64-2.97-1.76-3.57-1.94-1.04-2.68-.4-2.3 1.94.17 1.06-.19 1.36-1.18.98-.93-.35-1.2-.18-.77.51.44.71.14.85-.92.45-1.26-.49-1.43-.27-.86 1.14.38.96.83 2.36.99 3.11"/><path fill="url(#n)" fill-opacity=".4" d="M68.3 43.88c-.82-.31-1.18-.16-.86.35.89 1.44 3.67 1.04 5.31-.78 1.22-1.34 1.36-2.36.69-5.21l-.83-3.54-.09 3.75c-.1 4.01-1.89 6.32-4.22 5.43"/><path fill="url(#o)" fill-opacity=".4" d="M41.01 38.67c-.25 1.35.18 2.58 1.14 3.28 2.01 1.47 6.11.37 6.52-1.75.19-1-.07-1.4-.68-1.02-.55.34-1 .16-1-.4 0-.55-.36-.79-.8-.51-.45.27-.75-.22-.68-1.08.07-1-.63-1.69-1.92-1.87-1.13-.16-2.08.05-2.11.45-.04.41-.25 1.72-.47 2.9"/><path fill="url(#p)" fill-opacity=".4" d="M36.55 36.06c-.75 0-1.36.62-1.36 1.36 0 .75.61 1.36 1.36 1.36s1.36-.61 1.36-1.36c0-.74-.61-1.36-1.36-1.36"/><path fill="url(#q)" fill-opacity=".4" d="M76.16 36.06c-1.3 0-1.7.42-1.32 1.4.59 1.55 2.27 1.36 2.83-.32.2-.6-.47-1.08-1.51-1.08"/><path fill="url(#r)" fill-opacity=".4" d="M39.72 35.62c-.5.3-.9.93-.9 1.4 0 1.31.65 1.02 1.25-.55.31-.81.16-1.17-.35-.85"/><path fill="url(#s)" fill-opacity=".4" d="M35.67 34.03c-1.24-.23-2.03-.08-1.77.35.47.75 4.01 1.13 4.01.43 0-.19-1.01-.54-2.24-.78"/><path fill="url(#t)" fill-opacity=".4" d="M80.88 30.48c-.97 1.72-2.75 3.23-4.37 3.71-2.27.67-2.38.82-.66.89 2.2.08 8.38-5.53 8.38-7.63 0-2.09-6.18-7.71-8.38-7.62-1.71.06-1.6.21.67.87 1.7.5 3.34 1.94 4.36 3.83 1.58 2.93 1.58 3.15 0 5.95"/><path fill="url(#u)" fill-opacity=".4" d="M71.53 31.99c1.01.32 1.63.9 1.39 1.29s.67.51 2.03.27c2.4-.43 6.49-4.27 6.49-6.1s-4.09-5.67-6.49-6.1c-1.36-.24-2.28-.13-2.05.24.22.37-.4.88-1.39 1.14-1.08.28-1.81 1.24-1.81 2.37 0 1.43.61 1.93 2.5 2.03l2.5.14-2.5.38c-3 .45-3.46 3.45-.67 4.34"/><path fill="url(#v)" fill-opacity=".4" d="M32.57 29.56c.69 1.34 1.66 2.72 2.16 3.09 2.29 1.68 7-.08 7.41-2.77.25-1.66-.17-2-2.65-2.12l-2.94-.15 2.94-.36c2.39-.3 2.88-.72 2.64-2.29-.29-1.9-2.37-3.22-5.29-3.34-.84-.03-2.43 1.19-3.52 2.73-1.79 2.51-1.87 3.04-.75 5.21"/><path fill="url(#w)" fill-opacity=".4" d="M30.64 24.04c-2.24 1.91-2.33 4.57-.22 6.62.87.85 1.76 1.39 1.98 1.19.22-.19-.09-.83-.68-1.42-1.31-1.31-1.42-4.93-.17-5.7.5-.31.91-.94.91-1.4 0-.47-.82-.15-1.82.71"/><path fill="url(#x)" fill-opacity=".4" d="M36.68 19.93c-.93-.19-2.08.04-2.57.52-.57.57.03.7 1.69.36 1.9-.39 2.13-.61.88-.88"/><path fill="url(#y)" fill-opacity=".4" d="M41.54 19.46c1.19.18 2.37.53 2.62.78.8.8 2.05-2.27 1.38-3.36-.4-.64-.24-.79.4-.39.58.35 1.05.19 1.05-.37s.45-.74 1-.4c.61.38.87-.01.68-1.02-.67-3.49-8.47-2.85-7.99.66.1.66.12 1.82.05 2.57-.11 1.21-.23 1.21-1.09 0-.74-1.05-.88-1.07-.62-.08.19.7 1.32 1.42 2.52 1.61"/><path fill="url(#z)" fill-opacity=".4" d="M67.47 17.7c-.14.88-.08 1.9.13 2.27.22.38 1.19.26 2.16-.25 1.9-1.02 2.42-5.29.83-6.89-1.46-1.45-6.12-.39-6.61 1.51-.44 1.66 1.54 3.13 3 2.23.41-.25.63.26.49 1.13"/><path fill="url(#A)" fill-opacity=".4" d="M68.32 11.01c2.54-.97 4.92 2.14 4.5 5.87l-.37 3.32.91-3.54c.75-2.91.64-3.84-.61-5.21-1.64-1.81-4.42-2.22-5.31-.78-.33.52.05.66.88.34"/><path fill="url(#B)" fill-opacity=".4" d="M36.55 16.12c-.75 0-1.36.61-1.36 1.36s.61 1.36 1.36 1.36 1.36-.61 1.36-1.36-.61-1.36-1.36-1.36"/><path fill="url(#C)" fill-opacity=".4" d="M77.67 17.76c-.56-1.68-2.24-1.87-2.83-.32-.38.98.02 1.4 1.32 1.4 1.04 0 1.71-.48 1.51-1.08"/><path fill="url(#D)" fill-opacity=".4" d="M44.81 10.82c-1.59-2.57-6.04.26-5.93 3.78.05 1.93.07 1.93.8.13 1.05-2.57 3.39-4.34 4.69-3.54.69.43.85.29.44-.37"/><path fill="url(#E)" fill-opacity=".4" d="M53.24 4.41c-2.82 2.01-3.19 3.8-1.59 7.8l1.02 2.55 1.21-2.72c1.19-2.68 1.21-2.69 1.35-.45.14 2.12.2 2.09.85-.46.51-2.02.72-2.22.8-.79.14 2.65 2.28 4.37 3.53 2.84.87-1.06 1.45-4.26 1.22-6.74-.06-.59-1.38-1.7-2.94-2.48-2.65-1.32-3-1.29-5.45.45"/><path fill="url(#F)" fill-opacity=".4" d="M50.4 4.22c-.98.77-1.54 2.33-1.45 4.08l.13 2.83.4-2.72c.22-1.49.87-3.33 1.45-4.08.92-1.18.85-1.19-.53-.11"/><path fill="url(#G)" fill-opacity=".4" d="M46.54 6.15c-.75 0-1.36.61-1.36 1.36 0 .74.61 1.36 1.36 1.36s1.36-.62 1.36-1.36c0-.75-.61-1.36-1.36-1.36"/><path fill="url(#H)" fill-opacity=".4" d="M62.9 4.73c-1.23-1.61-1.27-1.51-.36 1.19C63.56 9 64.25 9.7 64.25 7.68c0-.65-.61-1.98-1.35-2.95"/><path fill="url(#I)" fill-opacity=".4" d="M66.13 6.32c-.53-.18-.97.36-.97 1.19s.44 1.36.97 1.18c.54-.18.98-.71.98-1.18 0-.48-.44-1.01-.98-1.19"/><path fill="url(#J)" fill-opacity=".4" d="M54.71.54c-1.25.57-2.27 1.46-2.27 1.97 0 .57.7.5 1.82-.2 1.46-.91 2.19-.9 3.72.06 2.57 1.6 3.09.84.82-1.21C57.29-.2 56.58-.31 54.71.54"/><path fill="url(#K)" fill-opacity=".4" fill-rule="evenodd" d="M49 36.53c-5.76-4.83-6.04-12.04-.66-17.4 2.6-2.6 3.62-3.01 7.42-2.98 5.19.04 7.95 1.38 10.36 5.02 3.42 5.18 1.48 13.43-3.86 16.39-3.67 2.03-10.23 1.53-13.26-1.03m15.7-9.08c0 3.52-.43 4.61-2.54 6.43-5.61 4.81-14.26 1.04-14.26-6.23 0-7.77 8.39-11.66 14.26-6.62 2.11 1.81 2.54 2.9 2.54 6.42m-11.97 6.63c-2.71-1.31-4.44-5.72-3.38-8.66 1.98-5.57 8.09-7.03 12.2-2.93 2.13 2.13 2.41 4.69.43 3.93-.89-.34-1.36.02-1.36 1.03s.47 1.37 1.36 1.03c3.09-1.18.98 3.64-2.34 5.35-2.96 1.53-4.16 1.57-6.91.25m-1.06-6.63c0-.47-.44-1.01-.98-1.18-.53-.18-.97.35-.97 1.18s.44 1.37.97 1.19c.54-.18.98-.72.98-1.19M51.53 31c0-1.6 1.96-1.32 2.52.36.2.59-.29 1.08-1.08 1.08s-1.44-.65-1.44-1.44m5.59 1.89c0-.47-.44-1.01-.98-1.19-.53-.17-.97.36-.97 1.19s.44 1.36.97 1.19c.54-.18.98-.72.98-1.19m-.98-6.62c.54.17.98.71.98 1.18s-.44 1.01-.98 1.19c-.53.18-.97-.36-.97-1.19s.44-1.36.97-1.18m5.21 5.19c-.18-.53-.71-.97-1.19-.97-.47 0-1.01.44-1.19.97-.17.54.36.98 1.19.98.84 0 1.37-.44 1.19-.98m-1.19-9c.75 0 1.37.39 1.37.86 0 1.14-1.42 1.96-2.15 1.24-1.02-1.03-.62-2.1.78-2.1m-2.48-.17c-.56-1.68-2.51-1.95-2.51-.35 0 .79.64 1.43 1.44 1.43.79 0 1.27-.48 1.07-1.08m-5.17.35c.54.18.98.71.98 1.18 0 .48-.44 1.01-.98 1.19s-.98-.35-.98-1.19c0-.83.44-1.36.98-1.18" clip-rule="evenodd"/><path stroke="url(#L)" stroke-width="2.97" d="M52.44 52.33c0 .48.72 1.28 1.59 1.79 2.34 1.36 3.39 1.19 5.22-.83 1.87-2.06 1.29-2.35-1.37-.69-1.44.9-2.17.89-3.62-.01-1-.62-1.82-.74-1.82-.26Z" mask="url(#M)"/><path stroke="url(#N)" stroke-width="2.97" d="M52.37 50.85c.93-.24 1.96 0 2.29.55.77 1.23 3.23 1.29 3.23.08 0-.5.59-.91 1.31-.91 1.83 0 2.72-1.75 2.48-4.9-.31-4.02-1.83-5.48-3.82-3.68-1.26 1.13-1.7 1.19-2.07.25-.29-.71-.52-.46-.58.62-.1 1.63-.24 1.58-1.37-.45l-1.26-2.27-1.04 2.72c-.58 1.5-.82 3.86-.54 5.26.31 1.55.16 2.32-.39 1.99-.49-.31-.95-1.86-1.03-3.45-.13-2.82-.14-2.83-.52-.34-.46 3.08 1.03 5.13 3.31 4.53Z" mask="url(#M)"/><path stroke="url(#O)" stroke-width="2.97" d="M63.6 46.94c-.28.75-.88 2.18-1.34 3.18-.82 1.78-.81 1.78.58.05.77-.97 1.38-2.4 1.34-3.17-.06-1.23-.14-1.23-.58-.06Z" mask="url(#M)"/><path stroke="url(#P)" stroke-width="2.97" d="M46.54 46.04c-.75 0-1.36.61-1.36 1.36 0 .74.61 1.36 1.36 1.36s1.36-.62 1.36-1.36c0-.75-.61-1.36-1.36-1.36Z" mask="url(#M)"/><path stroke="url(#Q)" stroke-width="2.97" d="M66.6 46.04c-.79 0-1.44.64-1.44 1.43 0 1.6 1.95 1.32 2.52-.36.19-.59-.29-1.07-1.08-1.07Z" mask="url(#M)"/><path stroke="url(#R)" stroke-width="2.97" d="M38.89 40.31c-.04 1.08.55 2.59 1.32 3.36 1.38 1.38 7 1.65 6.16.29-.24-.4-1.15-.49-2.03-.22-1.58.51-3.91-1.42-4.88-4.05-.33-.91-.52-.71-.57.62Z" mask="url(#M)"/><path stroke="url(#S)" stroke-width="2.97" d="M64.72 43.32c.17.74.33 1.46.37 1.58.25.83.93.01.75-.9-.12-.63.59-1.15 1.59-1.17 2.9-.06 4.09-1.24 4.09-4.07 0-1.68-.64-2.97-1.76-3.57-1.94-1.04-2.68-.4-2.3 1.94.17 1.06-.19 1.36-1.18.98-.93-.35-1.2-.18-.77.51.44.71.14.85-.92.45-1.26-.49-1.43-.27-.86 1.14.38.96.83 2.36.99 3.11Z" mask="url(#M)"/><path stroke="url(#T)" stroke-width="2.97" d="M68.3 43.88c-.82-.31-1.18-.16-.86.35.89 1.44 3.67 1.04 5.31-.78 1.22-1.34 1.36-2.36.69-5.21l-.83-3.54-.09 3.75c-.1 4.01-1.89 6.32-4.22 5.43Z" mask="url(#M)"/><path stroke="url(#U)" stroke-width="2.97" d="M41.01 38.67c-.25 1.35.18 2.58 1.14 3.28 2.01 1.47 6.11.37 6.52-1.75.19-1-.07-1.4-.68-1.02-.55.34-1 .16-1-.4 0-.55-.36-.79-.8-.51-.45.27-.75-.22-.68-1.08.07-1-.63-1.69-1.92-1.87-1.13-.16-2.08.05-2.11.45-.04.41-.25 1.72-.47 2.9Z" mask="url(#M)"/><path stroke="url(#V)" stroke-width="2.97" d="M36.55 36.06c-.75 0-1.36.62-1.36 1.36 0 .75.61 1.36 1.36 1.36s1.36-.61 1.36-1.36c0-.74-.61-1.36-1.36-1.36Z" mask="url(#M)"/><path stroke="url(#W)" stroke-width="2.97" d="M76.16 36.06c-1.3 0-1.7.42-1.32 1.4.59 1.55 2.27 1.36 2.83-.32.2-.6-.47-1.08-1.51-1.08Z" mask="url(#M)"/><path stroke="url(#X)" stroke-width="2.97" d="M39.72 35.62c-.5.3-.9.93-.9 1.4 0 1.31.65 1.02 1.25-.55.31-.81.16-1.17-.35-.85Z" mask="url(#M)"/><path stroke="url(#Y)" stroke-width="2.97" d="M35.67 34.03c-1.24-.23-2.03-.08-1.77.35.47.75 4.01 1.13 4.01.43 0-.19-1.01-.54-2.24-.78Z" mask="url(#M)"/><path stroke="url(#Z)" stroke-width="2.97" d="M80.88 30.48c-.97 1.72-2.75 3.23-4.37 3.71-2.27.67-2.38.82-.66.89 2.2.08 8.38-5.53 8.38-7.63 0-2.09-6.18-7.71-8.38-7.62-1.71.06-1.6.21.67.87 1.7.5 3.34 1.94 4.36 3.83 1.58 2.93 1.58 3.15 0 5.95Z" mask="url(#M)"/><path stroke="url(#aa)" stroke-width="2.97" d="M71.53 31.99c1.01.32 1.63.9 1.39 1.29s.67.51 2.03.27c2.4-.43 6.49-4.27 6.49-6.1s-4.09-5.67-6.49-6.1c-1.36-.24-2.28-.13-2.05.24.22.37-.4.88-1.39 1.14-1.08.28-1.81 1.24-1.81 2.37 0 1.43.61 1.93 2.5 2.03l2.5.14-2.5.38c-3 .45-3.46 3.45-.67 4.34Z" mask="url(#M)"/><path stroke="url(#ab)" stroke-width="2.97" d="M32.57 29.56c.69 1.34 1.66 2.72 2.16 3.09 2.29 1.68 7-.08 7.41-2.77.25-1.66-.17-2-2.65-2.12l-2.94-.15 2.94-.36c2.39-.3 2.88-.72 2.64-2.29-.29-1.9-2.37-3.22-5.29-3.34-.84-.03-2.43 1.19-3.52 2.73-1.79 2.51-1.87 3.04-.75 5.21Z" mask="url(#M)"/><path stroke="url(#ac)" stroke-width="2.97" d="M30.64 24.04c-2.24 1.91-2.33 4.57-.22 6.62.87.85 1.76 1.39 1.98 1.19.22-.19-.09-.83-.68-1.42-1.31-1.31-1.42-4.93-.17-5.7.5-.31.91-.94.91-1.4 0-.47-.82-.15-1.82.71Z" mask="url(#M)"/><path stroke="url(#ad)" stroke-width="2.97" d="M36.68 19.93c-.93-.19-2.08.04-2.57.52-.57.57.03.7 1.69.36 1.9-.39 2.13-.61.88-.88Z" mask="url(#M)"/><path stroke="url(#ae)" stroke-width="2.97" d="M41.54 19.46c1.19.18 2.37.53 2.62.78.8.8 2.05-2.27 1.38-3.36-.4-.64-.24-.79.4-.39.58.35 1.05.19 1.05-.37s.45-.74 1-.4c.61.38.87-.01.68-1.02-.67-3.49-8.47-2.85-7.99.66.1.66.12 1.82.05 2.57-.11 1.21-.23 1.21-1.09 0-.74-1.05-.88-1.07-.62-.08.19.7 1.32 1.42 2.52 1.61Z" mask="url(#M)"/><path stroke="url(#af)" stroke-width="2.97" d="M67.47 17.7c-.14.88-.08 1.9.13 2.27.22.38 1.19.26 2.16-.25 1.9-1.02 2.42-5.29.83-6.89-1.46-1.45-6.12-.39-6.61 1.51-.44 1.66 1.54 3.13 3 2.23.41-.25.63.26.49 1.13Z" mask="url(#M)"/><path stroke="url(#ag)" stroke-width="2.97" d="M68.32 11.01c2.54-.97 4.92 2.14 4.5 5.87l-.37 3.32.91-3.54c.75-2.91.64-3.84-.61-5.21-1.64-1.81-4.42-2.22-5.31-.78-.33.52.05.66.88.34Z" mask="url(#M)"/><path stroke="url(#ah)" stroke-width="2.97" d="M36.55 16.12c-.75 0-1.36.61-1.36 1.36s.61 1.36 1.36 1.36 1.36-.61 1.36-1.36-.61-1.36-1.36-1.36Z" mask="url(#M)"/><path stroke="url(#ai)" stroke-width="2.97" d="M77.67 17.76c-.56-1.68-2.24-1.87-2.83-.32-.38.98.02 1.4 1.32 1.4 1.04 0 1.71-.48 1.51-1.08Z" mask="url(#M)"/><path stroke="url(#aj)" stroke-width="2.97" d="M44.81 10.82c-1.59-2.57-6.04.26-5.93 3.78.05 1.93.07 1.93.8.13 1.05-2.57 3.39-4.34 4.69-3.54.69.43.85.29.44-.37Z" mask="url(#M)"/><path stroke="url(#ak)" stroke-width="2.97" d="M53.24 4.41c-2.82 2.01-3.19 3.8-1.59 7.8l1.02 2.55 1.21-2.72c1.19-2.68 1.21-2.69 1.35-.45.14 2.12.2 2.09.85-.46.51-2.02.72-2.22.8-.79.14 2.65 2.28 4.37 3.53 2.84.87-1.06 1.45-4.26 1.22-6.74-.06-.59-1.38-1.7-2.94-2.48-2.65-1.32-3-1.29-5.45.45Z" mask="url(#M)"/><path stroke="url(#al)" stroke-width="2.97" d="M50.4 4.22c-.98.77-1.54 2.33-1.45 4.08l.13 2.83.4-2.72c.22-1.49.87-3.33 1.45-4.08.92-1.18.85-1.19-.53-.11Z" mask="url(#M)"/><path stroke="url(#am)" stroke-width="2.97" d="M46.54 6.15c-.75 0-1.36.61-1.36 1.36 0 .74.61 1.36 1.36 1.36s1.36-.62 1.36-1.36c0-.75-.61-1.36-1.36-1.36Z" mask="url(#M)"/><path stroke="url(#an)" stroke-width="2.97" d="M62.9 4.73c-1.23-1.61-1.27-1.51-.36 1.19C63.56 9 64.25 9.7 64.25 7.68c0-.65-.61-1.98-1.35-2.95Z" mask="url(#M)"/><path stroke="url(#ao)" stroke-width="2.97" d="M66.13 6.32c-.53-.18-.97.36-.97 1.19s.44 1.36.97 1.18c.54-.18.98-.71.98-1.18 0-.48-.44-1.01-.98-1.19Z" mask="url(#M)"/><path stroke="url(#ap)" stroke-width="2.97" d="M54.71.54c-1.25.57-2.27 1.46-2.27 1.97 0 .57.7.5 1.82-.2 1.46-.91 2.19-.9 3.72.06 2.57 1.6 3.09.84.82-1.21C57.29-.2 56.58-.31 54.71.54Z" mask="url(#M)"/><path stroke="url(#aq)" stroke-width="2.97" d="M49 36.53c-5.76-4.83-6.04-12.04-.66-17.4 2.6-2.6 3.62-3.01 7.42-2.98 5.19.04 7.95 1.38 10.36 5.02 3.42 5.18 1.48 13.43-3.86 16.39-3.67 2.03-10.23 1.53-13.26-1.03Zm15.7-9.08c0 3.52-.43 4.61-2.54 6.43-5.61 4.81-14.26 1.04-14.26-6.23 0-7.77 8.39-11.66 14.26-6.62 2.11 1.81 2.54 2.9 2.54 6.42Zm-11.97 6.63c-2.71-1.31-4.44-5.72-3.38-8.66 1.98-5.57 8.09-7.03 12.2-2.93 2.13 2.13 2.41 4.69.43 3.93-.89-.34-1.36.02-1.36 1.03s.47 1.37 1.36 1.03c3.09-1.18.98 3.64-2.34 5.35-2.96 1.53-4.16 1.57-6.91.25Zm-1.06-6.63c0-.47-.44-1.01-.98-1.18-.53-.18-.97.35-.97 1.18s.44 1.37.97 1.19c.54-.18.98-.72.98-1.19ZM51.53 31c0-1.6 1.96-1.32 2.52.36.2.59-.29 1.08-1.08 1.08s-1.44-.65-1.44-1.44Zm5.59 1.89c0-.47-.44-1.01-.98-1.19-.53-.17-.97.36-.97 1.19s.44 1.36.97 1.19c.54-.18.98-.72.98-1.19Zm-.98-6.62c.54.17.98.71.98 1.18s-.44 1.01-.98 1.19c-.53.18-.97-.36-.97-1.19s.44-1.36.97-1.18Zm5.21 5.19c-.18-.53-.71-.97-1.19-.97-.47 0-1.01.44-1.19.97-.17.54.36.98 1.19.98.84 0 1.37-.44 1.19-.98Zm-1.19-9c.75 0 1.37.39 1.37.86 0 1.14-1.42 1.96-2.15 1.24-1.02-1.03-.62-2.1.78-2.1Zm-2.48-.17c-.56-1.68-2.51-1.95-2.51-.35 0 .79.64 1.43 1.44 1.43.79 0 1.27-.48 1.07-1.08Zm-5.17.35c.54.18.98.71.98 1.18 0 .48-.44 1.01-.98 1.19s-.98-.35-.98-1.19c0-.83.44-1.36.98-1.18Z" clip-rule="evenodd" mask="url(#M)"/><defs><linearGradient id="b" x1="5.4" x2="5.4" y1="23" y2="32" gradientUnits="userSpaceOnUse"><stop stop-color="#fcf0d6"/><stop offset="1" stop-color="#ffc446"/></linearGradient><linearGradient id="c" x1="5.4" x2="5.4" y1="23" y2="32" gradientUnits="userSpaceOnUse"><stop stop-color="#fcf0d6"/><stop offset="1" stop-color="#ffc446"/></linearGradient><linearGradient id="e" x1="107.4" x2="107.4" y1="23" y2="32" gradientUnits="userSpaceOnUse"><stop stop-color="#fcf0d6"/><stop offset="1" stop-color="#ffc446"/></linearGradient><linearGradient id="f" x1="107.4" x2="107.4" y1="23" y2="32" gradientUnits="userSpaceOnUse"><stop stop-color="#fcf0d6"/><stop offset="1" stop-color="#ffc446"/></linearGradient><linearGradient id="g" x1="28.9" x2="84.23" y1="27.5" y2="27.5" gradientUnits="userSpaceOnUse"><stop stop-color="#fcf0d6"/><stop offset="1" stop-color="#ffc446"/></linearGradient><linearGradient id="h" x1="28.9" x2="84.23" y1="27.5" y2="27.5" gradientUnits="userSpaceOnUse"><stop stop-color="#fcf0d6"/><stop offset="1" stop-color="#ffc446"/></linearGradient><linearGradient id="i" x1="28.9" x2="84.23" y1="27.5" y2="27.5" gradientUnits="userSpaceOnUse"><stop stop-color="#fcf0d6"/><stop offset="1" stop-color="#ffc446"/></linearGradient><linearGradient id="j" x1="28.9" x2="84.23" y1="27.5" y2="27.5" gradientUnits="userSpaceOnUse"><stop stop-color="#fcf0d6"/><stop offset="1" stop-color="#ffc446"/></linearGradient><linearGradient id="k" x1="28.9" x2="84.23" y1="27.5" y2="27.5" gradientUnits="userSpaceOnUse"><stop stop-color="#fcf0d6"/><stop offset="1" stop-color="#ffc446"/></linearGradient><linearGradient id="l" x1="28.9" x2="84.23" y1="27.5" y2="27.5" gradientUnits="userSpaceOnUse"><stop stop-color="#fcf0d6"/><stop offset="1" stop-color="#ffc446"/></linearGradient><linearGradient id="m" x1="28.9" x2="84.23" y1="27.5" y2="27.5" gradientUnits="userSpaceOnUse"><stop stop-color="#fcf0d6"/><stop offset="1" stop-color="#ffc446"/></linearGradient><linearGradient id="n" x1="28.9" x2="84.23" y1="27.5" y2="27.5" gradientUnits="userSpaceOnUse"><stop stop-color="#fcf0d6"/><stop offset="1" stop-color="#ffc446"/></linearGradient><linearGradient id="o" x1="28.9" x2="84.23" y1="27.5" y2="27.5" gradientUnits="userSpaceOnUse"><stop stop-color="#fcf0d6"/><stop offset="1" stop-color="#ffc446"/></linearGradient><linearGradient id="p" x1="28.9" x2="84.23" y1="27.5" y2="27.5" gradientUnits="userSpaceOnUse"><stop stop-color="#fcf0d6"/><stop offset="1" stop-color="#ffc446"/></linearGradient><linearGradient id="q" x1="28.9" x2="84.23" y1="27.5" y2="27.5" gradientUnits="userSpaceOnUse"><stop stop-color="#fcf0d6"/><stop offset="1" stop-color="#ffc446"/></linearGradient><linearGradient id="r" x1="28.9" x2="84.23" y1="27.5" y2="27.5" gradientUnits="userSpaceOnUse"><stop stop-color="#fcf0d6"/><stop offset="1" stop-color="#ffc446"/></linearGradient><linearGradient id="s" x1="28.9" x2="84.23" y1="27.5" y2="27.5" gradientUnits="userSpaceOnUse"><stop stop-color="#fcf0d6"/><stop offset="1" stop-color="#ffc446"/></linearGradient><linearGradient id="t" x1="28.9" x2="84.23" y1="27.5" y2="27.5" gradientUnits="userSpaceOnUse"><stop stop-color="#fcf0d6"/><stop offset="1" stop-color="#ffc446"/></linearGradient><linearGradient id="u" x1="28.9" x2="84.23" y1="27.5" y2="27.5" gradientUnits="userSpaceOnUse"><stop stop-color="#fcf0d6"/><stop offset="1" stop-color="#ffc446"/></linearGradient><linearGradient id="v" x1="28.9" x2="84.23" y1="27.5" y2="27.5" gradientUnits="userSpaceOnUse"><stop stop-color="#fcf0d6"/><stop offset="1" stop-color="#ffc446"/></linearGradient><linearGradient id="w" x1="28.9" x2="84.23" y1="27.5" y2="27.5" gradientUnits="userSpaceOnUse"><stop stop-color="#fcf0d6"/><stop offset="1" stop-color="#ffc446"/></linearGradient><linearGradient id="x" x1="28.9" x2="84.23" y1="27.5" y2="27.5" gradientUnits="userSpaceOnUse"><stop stop-color="#fcf0d6"/><stop offset="1" stop-color="#ffc446"/></linearGradient><linearGradient id="y" x1="28.9" x2="84.23" y1="27.5" y2="27.5" gradientUnits="userSpaceOnUse"><stop stop-color="#fcf0d6"/><stop offset="1" stop-color="#ffc446"/></linearGradient><linearGradient id="z" x1="28.9" x2="84.23" y1="27.5" y2="27.5" gradientUnits="userSpaceOnUse"><stop stop-color="#fcf0d6"/><stop offset="1" stop-color="#ffc446"/></linearGradient><linearGradient id="A" x1="28.9" x2="84.23" y1="27.5" y2="27.5" gradientUnits="userSpaceOnUse"><stop stop-color="#fcf0d6"/><stop offset="1" stop-color="#ffc446"/></linearGradient><linearGradient id="B" x1="28.9" x2="84.23" y1="27.5" y2="27.5" gradientUnits="userSpaceOnUse"><stop stop-color="#fcf0d6"/><stop offset="1" stop-color="#ffc446"/></linearGradient><linearGradient id="C" x1="28.9" x2="84.23" y1="27.5" y2="27.5" gradientUnits="userSpaceOnUse"><stop stop-color="#fcf0d6"/><stop offset="1" stop-color="#ffc446"/></linearGradient><linearGradient id="D" x1="28.9" x2="84.23" y1="27.5" y2="27.5" gradientUnits="userSpaceOnUse"><stop stop-color="#fcf0d6"/><stop offset="1" stop-color="#ffc446"/></linearGradient><linearGradient id="E" x1="28.9" x2="84.23" y1="27.5" y2="27.5" gradientUnits="userSpaceOnUse"><stop stop-color="#fcf0d6"/><stop offset="1" stop-color="#ffc446"/></linearGradient><linearGradient id="F" x1="28.9" x2="84.23" y1="27.5" y2="27.5" gradientUnits="userSpaceOnUse"><stop stop-color="#fcf0d6"/><stop offset="1" stop-color="#ffc446"/></linearGradient><linearGradient id="G" x1="28.9" x2="84.23" y1="27.5" y2="27.5" gradientUnits="userSpaceOnUse"><stop stop-color="#fcf0d6"/><stop offset="1" stop-color="#ffc446"/></linearGradient><linearGradient id="H" x1="28.9" x2="84.23" y1="27.5" y2="27.5" gradientUnits="userSpaceOnUse"><stop stop-color="#fcf0d6"/><stop offset="1" stop-color="#ffc446"/></linearGradient><linearGradient id="I" x1="28.9" x2="84.23" y1="27.5" y2="27.5" gradientUnits="userSpaceOnUse"><stop stop-color="#fcf0d6"/><stop offset="1" stop-color="#ffc446"/></linearGradient><linearGradient id="J" x1="28.9" x2="84.23" y1="27.5" y2="27.5" gradientUnits="userSpaceOnUse"><stop stop-color="#fcf0d6"/><stop offset="1" stop-color="#ffc446"/></linearGradient><linearGradient id="K" x1="28.9" x2="84.23" y1="27.5" y2="27.5" gradientUnits="userSpaceOnUse"><stop stop-color="#fcf0d6"/><stop offset="1" stop-color="#ffc446"/></linearGradient><linearGradient id="L" x1="28.9" x2="84.23" y1="27.5" y2="27.5" gradientUnits="userSpaceOnUse"><stop stop-color="#fcf0d6"/><stop offset="1" stop-color="#ffc446"/></linearGradient><linearGradient id="N" x1="28.9" x2="84.23" y1="27.5" y2="27.5" gradientUnits="userSpaceOnUse"><stop stop-color="#fcf0d6"/><stop offset="1" stop-color="#ffc446"/></linearGradient><linearGradient id="O" x1="28.9" x2="84.23" y1="27.5" y2="27.5" gradientUnits="userSpaceOnUse"><stop stop-color="#fcf0d6"/><stop offset="1" stop-color="#ffc446"/></linearGradient><linearGradient id="P" x1="28.9" x2="84.23" y1="27.5" y2="27.5" gradientUnits="userSpaceOnUse"><stop stop-color="#fcf0d6"/><stop offset="1" stop-color="#ffc446"/></linearGradient><linearGradient id="Q" x1="28.9" x2="84.23" y1="27.5" y2="27.5" gradientUnits="userSpaceOnUse"><stop stop-color="#fcf0d6"/><stop offset="1" stop-color="#ffc446"/></linearGradient><linearGradient id="R" x1="28.9" x2="84.23" y1="27.5" y2="27.5" gradientUnits="userSpaceOnUse"><stop stop-color="#fcf0d6"/><stop offset="1" stop-color="#ffc446"/></linearGradient><linearGradient id="S" x1="28.9" x2="84.23" y1="27.5" y2="27.5" gradientUnits="userSpaceOnUse"><stop stop-color="#fcf0d6"/><stop offset="1" stop-color="#ffc446"/></linearGradient><linearGradient id="T" x1="28.9" x2="84.23" y1="27.5" y2="27.5" gradientUnits="userSpaceOnUse"><stop stop-color="#fcf0d6"/><stop offset="1" stop-color="#ffc446"/></linearGradient><linearGradient id="U" x1="28.9" x2="84.23" y1="27.5" y2="27.5" gradientUnits="userSpaceOnUse"><stop stop-color="#fcf0d6"/><stop offset="1" stop-color="#ffc446"/></linearGradient><linearGradient id="V" x1="28.9" x2="84.23" y1="27.5" y2="27.5" gradientUnits="userSpaceOnUse"><stop stop-color="#fcf0d6"/><stop offset="1" stop-color="#ffc446"/></linearGradient><linearGradient id="W" x1="28.9" x2="84.23" y1="27.5" y2="27.5" gradientUnits="userSpaceOnUse"><stop stop-color="#fcf0d6"/><stop offset="1" stop-color="#ffc446"/></linearGradient><linearGradient id="X" x1="28.9" x2="84.23" y1="27.5" y2="27.5" gradientUnits="userSpaceOnUse"><stop stop-color="#fcf0d6"/><stop offset="1" stop-color="#ffc446"/></linearGradient><linearGradient id="Y" x1="28.9" x2="84.23" y1="27.5" y2="27.5" gradientUnits="userSpaceOnUse"><stop stop-color="#fcf0d6"/><stop offset="1" stop-color="#ffc446"/></linearGradient><linearGradient id="Z" x1="28.9" x2="84.23" y1="27.5" y2="27.5" gradientUnits="userSpaceOnUse"><stop stop-color="#fcf0d6"/><stop offset="1" stop-color="#ffc446"/></linearGradient><linearGradient id="aa" x1="28.9" x2="84.23" y1="27.5" y2="27.5" gradientUnits="userSpaceOnUse"><stop stop-color="#fcf0d6"/><stop offset="1" stop-color="#ffc446"/></linearGradient><linearGradient id="ab" x1="28.9" x2="84.23" y1="27.5" y2="27.5" gradientUnits="userSpaceOnUse"><stop stop-color="#fcf0d6"/><stop offset="1" stop-color="#ffc446"/></linearGradient><linearGradient id="ac" x1="28.9" x2="84.23" y1="27.5" y2="27.5" gradientUnits="userSpaceOnUse"><stop stop-color="#fcf0d6"/><stop offset="1" stop-color="#ffc446"/></linearGradient><linearGradient id="ad" x1="28.9" x2="84.23" y1="27.5" y2="27.5" gradientUnits="userSpaceOnUse"><stop stop-color="#fcf0d6"/><stop offset="1" stop-color="#ffc446"/></linearGradient><linearGradient id="ae" x1="28.9" x2="84.23" y1="27.5" y2="27.5" gradientUnits="userSpaceOnUse"><stop stop-color="#fcf0d6"/><stop offset="1" stop-color="#ffc446"/></linearGradient><linearGradient id="af" x1="28.9" x2="84.23" y1="27.5" y2="27.5" gradientUnits="userSpaceOnUse"><stop stop-color="#fcf0d6"/><stop offset="1" stop-color="#ffc446"/></linearGradient><linearGradient id="ag" x1="28.9" x2="84.23" y1="27.5" y2="27.5" gradientUnits="userSpaceOnUse"><stop stop-color="#fcf0d6"/><stop offset="1" stop-color="#ffc446"/></linearGradient><linearGradient id="ah" x1="28.9" x2="84.23" y1="27.5" y2="27.5" gradientUnits="userSpaceOnUse"><stop stop-color="#fcf0d6"/><stop offset="1" stop-color="#ffc446"/></linearGradient><linearGradient id="ai" x1="28.9" x2="84.23" y1="27.5" y2="27.5" gradientUnits="userSpaceOnUse"><stop stop-color="#fcf0d6"/><stop offset="1" stop-color="#ffc446"/></linearGradient><linearGradient id="aj" x1="28.9" x2="84.23" y1="27.5" y2="27.5" gradientUnits="userSpaceOnUse"><stop stop-color="#fcf0d6"/><stop offset="1" stop-color="#ffc446"/></linearGradient><linearGradient id="ak" x1="28.9" x2="84.23" y1="27.5" y2="27.5" gradientUnits="userSpaceOnUse"><stop stop-color="#fcf0d6"/><stop offset="1" stop-color="#ffc446"/></linearGradient><linearGradient id="al" x1="28.9" x2="84.23" y1="27.5" y2="27.5" gradientUnits="userSpaceOnUse"><stop stop-color="#fcf0d6"/><stop offset="1" stop-color="#ffc446"/></linearGradient><linearGradient id="am" x1="28.9" x2="84.23" y1="27.5" y2="27.5" gradientUnits="userSpaceOnUse"><stop stop-color="#fcf0d6"/><stop offset="1" stop-color="#ffc446"/></linearGradient><linearGradient id="an" x1="28.9" x2="84.23" y1="27.5" y2="27.5" gradientUnits="userSpaceOnUse"><stop stop-color="#fcf0d6"/><stop offset="1" stop-color="#ffc446"/></linearGradient><linearGradient id="ao" x1="28.9" x2="84.23" y1="27.5" y2="27.5" gradientUnits="userSpaceOnUse"><stop stop-color="#fcf0d6"/><stop offset="1" stop-color="#ffc446"/></linearGradient><linearGradient id="ap" x1="28.9" x2="84.23" y1="27.5" y2="27.5" gradientUnits="userSpaceOnUse"><stop stop-color="#fcf0d6"/><stop offset="1" stop-color="#ffc446"/></linearGradient><linearGradient id="aq" x1="28.9" x2="84.23" y1="27.5" y2="27.5" gradientUnits="userSpaceOnUse"><stop stop-color="#fcf0d6"/><stop offset="1" stop-color="#ffc446"/></linearGradient><filter id="a" width="10.8" height="10.8" x="0" y="22.1" color-interpolation-filters="sRGB" filterUnits="userSpaceOnUse"><feFlood flood-opacity="0" result="BackgroundImageFix"/><feBlend in="SourceGraphic" in2="BackgroundImageFix" result="shape"/><feColorMatrix in="SourceAlpha" result="hardAlpha" values="0 0 0 0 0 0 0 0 0 0 0 0 0 0 0 0 0 0 127 0"/><feOffset dx="-.9" dy="-2.7"/><feComposite in2="hardAlpha" k2="-1" k3="1" operator="arithmetic"/><feColorMatrix values="0 0 0 0 0 0 0 0 0 0 0 0 0 0 0 0 0 0 0.50 0"/><feBlend in2="shape" result="effect1_innerShadow_309_6966"/><feColorMatrix in="SourceAlpha" result="hardAlpha" values="0 0 0 0 0 0 0 0 0 0 0 0 0 0 0 0 0 0 127 0"/><feOffset dx=".9" dy="2.7"/><feComposite in2="hardAlpha" k2="-1" k3="1" operator="arithmetic"/><feColorMatrix values="0 0 0 0 1 0 0 0 0 1 0 0 0 0 1 0 0 0 0.50 0"/><feBlend in2="effect1_innerShadow_309_6966" result="effect2_innerShadow_309_6966"/></filter><filter id="d" width="10.8" height="10.8" x="102" y="22.1" color-interpolation-filters="sRGB" filterUnits="userSpaceOnUse"><feFlood flood-opacity="0" result="BackgroundImageFix"/><feBlend in="SourceGraphic" in2="BackgroundImageFix" result="shape"/><feColorMatrix in="SourceAlpha" result="hardAlpha" values="0 0 0 0 0 0 0 0 0 0 0 0 0 0 0 0 0 0 127 0"/><feOffset dx="-.9" dy="-2.7"/><feComposite in2="hardAlpha" k2="-1" k3="1" operator="arithmetic"/><feColorMatrix values="0 0 0 0 0 0 0 0 0 0 0 0 0 0 0 0 0 0 0.50 0"/><feBlend in2="shape" result="effect1_innerShadow_309_6966"/><feColorMatrix in="SourceAlpha" result="hardAlpha" values="0 0 0 0 0 0 0 0 0 0 0 0 0 0 0 0 0 0 127 0"/><feOffset dx=".9" dy="2.7"/><feComposite in2="hardAlpha" k2="-1" k3="1" operator="arithmetic"/><feColorMatrix values="0 0 0 0 1 0 0 0 0 1 0 0 0 0 1 0 0 0 0.50 0"/><feBlend in2="effect1_innerShadow_309_6966" result="effect2_innerShadow_309_6966"/></filter></defs></svg>