<svg width="287" height="325" viewBox="0 0 287 325" fill="none" xmlns="http://www.w3.org/2000/svg">
<g opacity="0.35">
<g opacity="0.6">
<path fill-rule="evenodd" clip-rule="evenodd" d="M254.772 14.4774C239.846 -0.44932 215.004 0.191569 215.004 0.191569C215.004 0.191569 214.363 25.0335 229.29 39.96C242.933 53.6037 264.86 54.2415 268.53 54.25C264.86 54.259 242.933 54.8967 229.29 68.54C214.363 83.4667 215.004 108.308 215.004 108.308C215.004 108.308 239.846 108.95 254.772 94.0224C269.699 79.0957 269.058 54.254 269.058 54.254C269.058 54.254 268.93 54.2505 268.688 54.25C268.93 54.2495 269.058 54.246 269.058 54.246C269.058 54.246 269.699 29.4043 254.772 14.4774Z" fill="url(#paint0_linear_309_6971)"/>
<path fill-rule="evenodd" clip-rule="evenodd" d="M322.244 108.119C322.244 108.119 297.406 108.904 282.393 94.0633C267.38 79.2232 267.878 54.3782 267.878 54.3782C267.878 54.3782 268.005 54.3739 268.248 54.372C268.146 54.3726 268.064 54.3721 268.003 54.372C267.92 54.3714 267.878 54.3702 267.878 54.3702C267.878 54.3702 267.093 29.5326 281.933 14.5196C296.773 -0.493195 321.618 0.00398273 321.618 0.00398273C321.618 0.00398273 322.403 24.8418 307.563 39.8544C293.999 53.5768 272.076 54.3414 268.406 54.3711C272.076 54.3589 294.006 54.8698 307.728 68.4339C322.741 83.274 322.244 108.119 322.244 108.119Z" fill="url(#paint1_linear_309_6971)"/>
<path fill-rule="evenodd" clip-rule="evenodd" d="M147.772 122.477C132.846 107.551 108.004 108.192 108.004 108.192C108.004 108.192 107.363 133.033 122.29 147.96C135.933 161.604 157.86 162.241 161.53 162.25C157.86 162.259 135.933 162.897 122.29 176.54C107.363 191.467 108.004 216.308 108.004 216.308C108.004 216.308 132.846 216.95 147.772 202.022C162.699 187.096 162.058 162.254 162.058 162.254C162.058 162.254 161.93 162.25 161.688 162.25C161.93 162.249 162.058 162.246 162.058 162.246C162.058 162.246 162.699 137.404 147.772 122.477Z" fill="url(#paint2_linear_309_6971)"/>
<path fill-rule="evenodd" clip-rule="evenodd" d="M215.244 216.119C215.244 216.119 190.406 216.904 175.393 202.063C160.38 187.223 160.878 162.378 160.878 162.378C160.878 162.378 161.005 162.374 161.248 162.372C161.146 162.373 161.064 162.372 161.003 162.372C160.92 162.371 160.878 162.37 160.878 162.37C160.878 162.37 160.093 137.533 174.933 122.52C189.773 107.507 214.618 108.004 214.618 108.004C214.618 108.004 215.403 132.842 200.563 147.854C186.999 161.577 165.076 162.341 161.406 162.371C165.076 162.359 187.006 162.87 200.728 176.434C215.741 191.274 215.244 216.119 215.244 216.119Z" fill="url(#paint3_linear_309_6971)"/>
<path fill-rule="evenodd" clip-rule="evenodd" d="M147.77 230.483C132.843 215.556 108.002 216.197 108.002 216.197C108.002 216.197 107.361 241.039 122.288 255.966C135.931 269.609 157.858 270.247 161.528 270.256C157.858 270.265 135.931 270.902 122.288 284.546C107.361 299.472 108.002 324.314 108.002 324.314C108.002 324.314 132.843 324.955 147.77 310.028C162.697 295.101 162.056 270.26 162.056 270.26C162.056 270.26 161.928 270.256 161.685 270.256C161.928 270.255 162.056 270.252 162.056 270.252C162.056 270.252 162.697 245.41 147.77 230.483Z" fill="url(#paint4_linear_309_6971)"/>
<path d="M0.00400536 108.004C0.00400536 108.004 24.8457 107.363 39.7724 122.29C54.6992 137.217 54 162 54 162C50.3303 161.991 27.9333 161.416 14.29 147.772C-0.636738 132.846 0.00400536 108.004 0.00400536 108.004Z" fill="url(#paint5_linear_309_6971)"/>
<path fill-rule="evenodd" clip-rule="evenodd" d="M68.2884 122.29C83.2151 107.363 108.057 108.004 108.057 108.004C108.057 108.004 108.698 132.846 93.7708 147.772C80.1275 161.416 58.2007 162.054 54.531 162.062C58.2007 162.071 80.1275 162.709 93.7708 176.352C108.698 191.279 108.057 216.121 108.057 216.121C108.057 216.121 83.2151 216.762 68.2884 201.835C53.3616 186.908 54.0024 162.066 54.0024 162.066C54.0024 162.066 54.1305 162.063 54.3733 162.062C54.1305 162.062 54.0024 162.058 54.0024 162.058C54.0024 162.058 53.3616 137.217 68.2884 122.29Z" fill="url(#paint6_linear_309_6971)"/>
<path fill-rule="evenodd" clip-rule="evenodd" d="M269.681 270.119C269.681 270.119 244.843 270.904 229.83 256.064C214.818 241.223 215.315 216.378 215.315 216.378C215.315 216.378 215.443 216.374 215.686 216.372C215.583 216.373 215.501 216.372 215.44 216.372C215.357 216.372 215.315 216.37 215.315 216.37C215.315 216.37 214.53 191.533 229.37 176.52C244.211 161.507 269.056 162.004 269.056 162.004C269.056 162.004 269.84 186.842 255 201.855C241.436 215.577 219.513 216.342 215.844 216.371C219.513 216.359 241.443 216.87 255.165 230.434C270.178 245.274 269.681 270.119 269.681 270.119Z" fill="url(#paint7_linear_309_6971)"/>
</g>
<g filter="url(#filter0_ii_309_6971)">
<path d="M268.534 54.2667C268.582 54.2654 268.632 54.2651 268.684 54.2637V54.2364C268.632 54.2351 268.582 54.2337 268.534 54.2325V54.2667ZM217.033 2.22076C217.053 2.77208 217.083 3.42763 217.133 4.17194C217.301 6.66204 217.676 10.1383 218.506 14.0655C220.173 21.9595 223.629 31.471 230.704 38.546C237.168 45.0099 245.668 48.4558 253.124 50.2755C259.113 51.737 264.317 52.118 267.028 52.2149C267.009 51.664 266.98 51.0091 266.93 50.2657C266.761 47.7756 266.385 44.2993 265.556 40.3721C263.888 32.4783 260.433 22.9668 253.358 15.8917C246.283 8.81648 236.771 5.36054 228.877 3.69342C224.95 2.86414 221.474 2.48866 218.984 2.32037C218.24 2.27008 217.585 2.24047 217.033 2.22076ZM217.033 106.278C217.585 106.259 218.24 106.23 218.984 106.18C221.474 106.011 224.95 105.636 228.877 104.807C236.771 103.14 246.283 99.6839 253.358 92.6085C260.434 85.5332 263.888 76.021 265.556 68.127C266.385 64.1998 266.761 60.7235 266.93 58.2335C266.98 57.4898 267.009 56.8352 267.028 56.2842C264.317 56.3813 259.113 56.7631 253.124 58.2247C245.668 60.0443 237.168 63.4904 230.704 69.9542C223.629 77.0293 220.173 86.5407 218.506 94.4346C217.676 98.3618 217.301 101.838 217.133 104.328C217.083 105.072 217.053 105.727 217.033 106.278Z" stroke="url(#paint8_linear_309_6971)" stroke-width="4"/>
<path d="M269.895 52.3274C272.605 52.2149 277.808 51.8039 283.789 50.3075C291.234 48.4448 299.714 44.9498 306.14 38.4485C313.174 31.3328 316.574 21.8014 318.196 13.8979C319.003 9.96605 319.359 6.48764 319.513 3.9966C319.559 3.25203 319.583 2.5963 319.6 2.04489C319.049 2.06778 318.394 2.1012 317.65 2.15578C315.161 2.33847 311.687 2.73396 307.765 3.58603C299.881 5.29881 290.39 8.80978 283.355 15.9257C276.321 23.0417 272.92 32.5728 271.299 40.4763C270.492 44.4082 270.137 47.8866 269.983 50.3776C269.937 51.1214 269.911 51.7764 269.895 52.3274ZM269.918 56.3967C269.941 56.9475 269.975 57.6019 270.029 58.3453C270.212 60.8343 270.608 64.3084 271.46 68.2307C273.172 76.1149 276.683 85.607 283.799 92.6412C290.915 99.6754 300.446 103.076 308.35 104.698C312.282 105.504 315.76 105.86 318.251 106.013C318.995 106.059 319.651 106.084 320.202 106.101C320.179 105.55 320.147 104.895 320.092 104.151C319.909 101.662 319.513 98.1881 318.661 94.2657C316.948 86.3816 313.438 76.8903 306.322 69.8562C299.821 63.43 291.301 60.0331 283.835 58.2566C277.837 56.8296 272.63 56.478 269.918 56.3967ZM268.251 54.3848C268.303 54.3858 268.353 54.3878 268.402 54.3888L268.402 54.3536L268.249 54.3584L268.251 54.3848Z" stroke="url(#paint9_linear_309_6971)" stroke-width="4"/>
<path d="M161.534 162.267C161.582 162.265 161.632 162.265 161.684 162.264V162.236C161.632 162.235 161.582 162.234 161.534 162.232V162.267ZM110.033 110.221C110.053 110.772 110.083 111.428 110.133 112.172C110.301 114.662 110.676 118.138 111.506 122.065C113.173 129.959 116.629 139.471 123.704 146.546C130.168 153.01 138.668 156.456 146.124 158.275C152.113 159.737 157.317 160.118 160.028 160.215C160.009 159.664 159.98 159.009 159.93 158.266C159.761 155.776 159.385 152.299 158.556 148.372C156.888 140.478 153.433 130.967 146.358 123.892C139.283 116.816 129.771 113.36 121.877 111.693C117.95 110.864 114.474 110.489 111.984 110.32C111.24 110.27 110.585 110.24 110.033 110.221ZM110.033 214.278C110.585 214.259 111.24 214.23 111.984 214.18C114.474 214.011 117.95 213.636 121.877 212.807C129.771 211.14 139.283 207.684 146.358 200.608C153.434 193.533 156.888 184.021 158.556 176.127C159.385 172.2 159.761 168.723 159.93 166.233C159.98 165.49 160.009 164.835 160.028 164.284C157.317 164.381 152.113 164.763 146.124 166.225C138.668 168.044 130.168 171.49 123.704 177.954C116.629 185.029 113.173 194.541 111.506 202.435C110.676 206.362 110.301 209.838 110.133 212.328C110.083 213.072 110.053 213.727 110.033 214.278Z" stroke="url(#paint10_linear_309_6971)" stroke-width="4"/>
<path d="M162.895 160.327C165.605 160.215 170.808 159.804 176.789 158.307C184.234 156.445 192.714 152.95 199.14 146.448C206.174 139.333 209.574 129.801 211.196 121.898C212.003 117.966 212.359 114.488 212.513 111.997C212.559 111.252 212.583 110.596 212.6 110.045C212.049 110.068 211.394 110.101 210.65 110.156C208.161 110.338 204.687 110.734 200.765 111.586C192.881 113.299 183.39 116.81 176.355 123.926C169.321 131.042 165.92 140.573 164.299 148.476C163.492 152.408 163.137 155.887 162.983 158.378C162.937 159.121 162.911 159.776 162.895 160.327ZM162.918 164.397C162.941 164.947 162.975 165.602 163.029 166.345C163.212 168.834 163.608 172.308 164.46 176.231C166.172 184.115 169.683 193.607 176.799 200.641C183.915 207.675 193.446 211.076 201.35 212.698C205.282 213.504 208.76 213.859 211.251 214.013C211.995 214.059 212.651 214.084 213.202 214.101C213.179 213.55 213.147 212.895 213.092 212.151C212.909 209.662 212.513 206.188 211.661 202.266C209.948 194.382 206.438 184.89 199.322 177.856C192.821 171.43 184.301 168.033 176.835 166.257C170.837 164.83 165.63 164.478 162.918 164.397ZM161.251 162.385C161.303 162.386 161.353 162.388 161.402 162.389L161.402 162.354L161.249 162.358L161.251 162.385Z" stroke="url(#paint11_linear_309_6971)" stroke-width="4"/>
<path d="M161.532 270.272C161.58 270.271 161.63 270.271 161.681 270.269V270.242C161.63 270.241 161.58 270.239 161.532 270.238V270.272ZM110.031 218.226C110.051 218.778 110.08 219.433 110.131 220.177C110.299 222.668 110.674 226.144 111.504 230.071C113.171 237.965 116.627 247.477 123.702 254.552C130.166 261.015 138.666 264.461 146.122 266.281C152.111 267.743 157.315 268.124 160.026 268.22C160.006 267.67 159.978 267.015 159.927 266.271C159.759 263.781 159.383 260.305 158.553 256.378C156.886 248.484 153.431 238.972 146.356 231.897C139.281 224.822 129.769 221.366 121.875 219.699C117.948 218.87 114.472 218.494 111.982 218.326C111.238 218.276 110.582 218.246 110.031 218.226ZM110.031 322.284C110.582 322.264 111.238 322.236 111.982 322.185C114.472 322.017 117.948 321.642 121.875 320.812C129.769 319.145 139.281 315.689 146.356 308.614C153.431 301.539 156.886 292.027 158.553 284.133C159.383 280.205 159.759 276.729 159.927 274.239C159.978 273.495 160.006 272.841 160.026 272.29C157.315 272.387 152.11 272.769 146.122 274.23C138.666 276.05 130.166 279.496 123.702 285.96C116.627 293.035 113.171 302.546 111.504 310.44C110.674 314.367 110.299 317.844 110.131 320.334C110.08 321.078 110.051 321.733 110.031 322.284Z" stroke="url(#paint12_linear_309_6971)" stroke-width="4"/>
<path d="M2.0332 110.033C2.05291 110.585 2.08251 111.24 2.13281 111.984C2.30112 114.474 2.67647 117.951 3.50586 121.878C5.17305 129.772 8.62899 139.283 15.7041 146.358C22.1607 152.815 30.7699 156.247 38.3486 158.054C44.0775 159.419 49.1116 159.829 51.9746 159.95C51.9561 159.405 51.928 158.758 51.8799 158.025C51.7169 155.541 51.3485 152.073 50.5264 148.153C48.8739 140.275 45.433 130.779 38.3584 123.704C31.2832 116.629 21.771 113.173 13.877 111.506C9.95005 110.677 6.47435 110.301 3.98438 110.133C3.24008 110.083 2.58451 110.053 2.0332 110.033Z" stroke="url(#paint13_linear_309_6971)" stroke-width="4"/>
<path d="M54.5266 162.079C54.4784 162.078 54.4286 162.077 54.3772 162.076V162.049C54.4286 162.048 54.4784 162.046 54.5266 162.045V162.079ZM106.028 110.033C106.008 110.585 105.978 111.24 105.928 111.984C105.76 114.474 105.384 117.951 104.555 121.878C102.888 129.772 99.4318 139.283 92.3567 146.358C85.893 152.822 77.3929 156.268 69.9368 158.088C63.948 159.549 58.7435 159.93 56.0325 160.027C56.0522 159.476 56.0809 158.822 56.1311 158.078C56.2994 155.588 56.6757 152.112 57.5051 148.185C59.1723 140.291 62.6274 130.779 69.7024 123.704C76.7776 116.629 86.2898 113.173 94.1838 111.506C98.1107 110.677 101.586 110.301 104.076 110.133C104.821 110.083 105.476 110.053 106.028 110.033ZM106.028 214.091C105.476 214.071 104.821 214.042 104.076 213.992C101.586 213.824 98.1107 213.448 94.1838 212.619C86.2899 210.952 76.7776 207.496 69.7024 200.421C62.6272 193.346 59.1723 183.833 57.5051 175.939C56.6757 172.012 56.2994 168.536 56.1311 166.046C56.0808 165.302 56.0522 164.648 56.0325 164.097C58.7436 164.194 63.9481 164.576 69.9368 166.037C77.3929 167.857 85.893 171.303 92.3567 177.767C99.4318 184.842 102.888 194.353 104.555 202.247C105.384 206.174 105.76 209.651 105.928 212.141C105.978 212.885 106.008 213.54 106.028 214.091Z" stroke="url(#paint14_linear_309_6971)" stroke-width="4"/>
<path d="M217.332 214.328C220.042 214.215 225.245 213.804 231.226 212.308C238.671 210.445 247.152 206.95 253.578 200.449C260.612 193.333 264.012 183.802 265.633 175.898C266.44 171.966 266.796 168.488 266.95 165.997C266.996 165.252 267.021 164.597 267.037 164.045C266.486 164.068 265.831 164.102 265.088 164.156C262.599 164.339 259.125 164.734 255.202 165.586C247.318 167.299 237.827 170.81 230.793 177.926C223.759 185.042 220.358 194.573 218.736 202.477C217.93 206.409 217.574 209.887 217.421 212.378C217.375 213.122 217.349 213.777 217.332 214.328ZM217.356 218.397C217.379 218.948 217.412 219.602 217.467 220.346C217.649 222.835 218.045 226.309 218.897 230.231C220.61 238.115 224.121 247.607 231.237 254.641C238.353 261.676 247.884 265.077 255.787 266.698C259.719 267.505 263.197 267.86 265.688 268.014C266.433 268.06 267.088 268.085 267.639 268.101C267.616 267.55 267.584 266.895 267.529 266.151C267.347 263.662 266.95 260.188 266.098 256.266C264.385 248.382 260.875 238.891 253.759 231.857C247.258 225.43 238.738 222.033 231.272 220.257C225.274 218.83 220.067 218.478 217.356 218.397ZM215.688 216.385C215.74 216.386 215.79 216.388 215.839 216.389L215.839 216.354L215.687 216.359L215.688 216.385Z" stroke="url(#paint15_linear_309_6971)" stroke-width="4"/>
</g>
<g filter="url(#filter1_ii_309_6971)">
<path d="M268.534 54.2667C268.582 54.2654 268.632 54.2651 268.684 54.2637V54.2364C268.632 54.2351 268.582 54.2337 268.534 54.2325V54.2667ZM217.033 2.22076C217.053 2.77208 217.083 3.42763 217.133 4.17194C217.301 6.66204 217.676 10.1383 218.506 14.0655C220.173 21.9595 223.629 31.471 230.704 38.546C237.168 45.0099 245.668 48.4558 253.124 50.2755C259.113 51.737 264.317 52.118 267.028 52.2149C267.009 51.664 266.98 51.0091 266.93 50.2657C266.761 47.7756 266.385 44.2993 265.556 40.3721C263.888 32.4783 260.433 22.9668 253.358 15.8917C246.283 8.81648 236.771 5.36054 228.877 3.69342C224.95 2.86414 221.474 2.48866 218.984 2.32037C218.24 2.27008 217.585 2.24047 217.033 2.22076ZM217.033 106.278C217.585 106.259 218.24 106.23 218.984 106.18C221.474 106.011 224.95 105.636 228.877 104.807C236.771 103.14 246.283 99.6839 253.358 92.6085C260.434 85.5332 263.888 76.021 265.556 68.127C266.385 64.1998 266.761 60.7235 266.93 58.2335C266.98 57.4898 267.009 56.8352 267.028 56.2842C264.317 56.3813 259.113 56.7631 253.124 58.2247C245.668 60.0443 237.168 63.4904 230.704 69.9542C223.629 77.0293 220.173 86.5407 218.506 94.4346C217.676 98.3618 217.301 101.838 217.133 104.328C217.083 105.072 217.053 105.727 217.033 106.278Z" stroke="url(#paint16_linear_309_6971)" stroke-width="4"/>
<path d="M269.895 52.3274C272.605 52.2149 277.808 51.8039 283.789 50.3075C291.234 48.4448 299.714 44.9498 306.14 38.4485C313.174 31.3328 316.574 21.8014 318.196 13.8979C319.003 9.96605 319.359 6.48764 319.513 3.9966C319.559 3.25203 319.583 2.5963 319.6 2.04489C319.049 2.06778 318.394 2.1012 317.65 2.15578C315.161 2.33847 311.687 2.73396 307.765 3.58603C299.881 5.29881 290.39 8.80978 283.355 15.9257C276.321 23.0417 272.92 32.5728 271.299 40.4763C270.492 44.4082 270.137 47.8866 269.983 50.3776C269.937 51.1214 269.911 51.7764 269.895 52.3274ZM269.918 56.3967C269.941 56.9475 269.975 57.6019 270.029 58.3453C270.212 60.8343 270.608 64.3084 271.46 68.2307C273.172 76.1149 276.683 85.607 283.799 92.6412C290.915 99.6754 300.446 103.076 308.35 104.698C312.282 105.504 315.76 105.86 318.251 106.013C318.995 106.059 319.651 106.084 320.202 106.101C320.179 105.55 320.147 104.895 320.092 104.151C319.909 101.662 319.513 98.1881 318.661 94.2657C316.948 86.3816 313.438 76.8903 306.322 69.8562C299.821 63.43 291.301 60.0331 283.835 58.2566C277.837 56.8296 272.63 56.478 269.918 56.3967ZM268.251 54.3848C268.303 54.3858 268.353 54.3878 268.402 54.3888L268.402 54.3536L268.249 54.3584L268.251 54.3848Z" stroke="url(#paint17_linear_309_6971)" stroke-width="4"/>
<path d="M161.534 162.267C161.582 162.265 161.632 162.265 161.684 162.264V162.236C161.632 162.235 161.582 162.234 161.534 162.232V162.267ZM110.033 110.221C110.053 110.772 110.083 111.428 110.133 112.172C110.301 114.662 110.676 118.138 111.506 122.065C113.173 129.959 116.629 139.471 123.704 146.546C130.168 153.01 138.668 156.456 146.124 158.275C152.113 159.737 157.317 160.118 160.028 160.215C160.009 159.664 159.98 159.009 159.93 158.266C159.761 155.776 159.385 152.299 158.556 148.372C156.888 140.478 153.433 130.967 146.358 123.892C139.283 116.816 129.771 113.36 121.877 111.693C117.95 110.864 114.474 110.489 111.984 110.32C111.24 110.27 110.585 110.24 110.033 110.221ZM110.033 214.278C110.585 214.259 111.24 214.23 111.984 214.18C114.474 214.011 117.95 213.636 121.877 212.807C129.771 211.14 139.283 207.684 146.358 200.608C153.434 193.533 156.888 184.021 158.556 176.127C159.385 172.2 159.761 168.723 159.93 166.233C159.98 165.49 160.009 164.835 160.028 164.284C157.317 164.381 152.113 164.763 146.124 166.225C138.668 168.044 130.168 171.49 123.704 177.954C116.629 185.029 113.173 194.541 111.506 202.435C110.676 206.362 110.301 209.838 110.133 212.328C110.083 213.072 110.053 213.727 110.033 214.278Z" stroke="url(#paint18_linear_309_6971)" stroke-width="4"/>
<path d="M162.895 160.327C165.605 160.215 170.808 159.804 176.789 158.307C184.234 156.445 192.714 152.95 199.14 146.448C206.174 139.333 209.574 129.801 211.196 121.898C212.003 117.966 212.359 114.488 212.513 111.997C212.559 111.252 212.583 110.596 212.6 110.045C212.049 110.068 211.394 110.101 210.65 110.156C208.161 110.338 204.687 110.734 200.765 111.586C192.881 113.299 183.39 116.81 176.355 123.926C169.321 131.042 165.92 140.573 164.299 148.476C163.492 152.408 163.137 155.887 162.983 158.378C162.937 159.121 162.911 159.776 162.895 160.327ZM162.918 164.397C162.941 164.947 162.975 165.602 163.029 166.345C163.212 168.834 163.608 172.308 164.46 176.231C166.172 184.115 169.683 193.607 176.799 200.641C183.915 207.675 193.446 211.076 201.35 212.698C205.282 213.504 208.76 213.859 211.251 214.013C211.995 214.059 212.651 214.084 213.202 214.101C213.179 213.55 213.147 212.895 213.092 212.151C212.909 209.662 212.513 206.188 211.661 202.266C209.948 194.382 206.438 184.89 199.322 177.856C192.821 171.43 184.301 168.033 176.835 166.257C170.837 164.83 165.63 164.478 162.918 164.397ZM161.251 162.385C161.303 162.386 161.353 162.388 161.402 162.389L161.402 162.354L161.249 162.358L161.251 162.385Z" stroke="url(#paint19_linear_309_6971)" stroke-width="4"/>
<path d="M161.532 270.272C161.58 270.271 161.63 270.271 161.681 270.269V270.242C161.63 270.241 161.58 270.239 161.532 270.238V270.272ZM110.031 218.226C110.051 218.778 110.08 219.433 110.131 220.177C110.299 222.668 110.674 226.144 111.504 230.071C113.171 237.965 116.627 247.477 123.702 254.552C130.166 261.015 138.666 264.461 146.122 266.281C152.111 267.743 157.315 268.124 160.026 268.22C160.006 267.67 159.978 267.015 159.927 266.271C159.759 263.781 159.383 260.305 158.553 256.378C156.886 248.484 153.431 238.972 146.356 231.897C139.281 224.822 129.769 221.366 121.875 219.699C117.948 218.87 114.472 218.494 111.982 218.326C111.238 218.276 110.582 218.246 110.031 218.226ZM110.031 322.284C110.582 322.264 111.238 322.236 111.982 322.185C114.472 322.017 117.948 321.642 121.875 320.812C129.769 319.145 139.281 315.689 146.356 308.614C153.431 301.539 156.886 292.027 158.553 284.133C159.383 280.205 159.759 276.729 159.927 274.239C159.978 273.495 160.006 272.841 160.026 272.29C157.315 272.387 152.11 272.769 146.122 274.23C138.666 276.05 130.166 279.496 123.702 285.96C116.627 293.035 113.171 302.546 111.504 310.44C110.674 314.367 110.299 317.844 110.131 320.334C110.08 321.078 110.051 321.733 110.031 322.284Z" stroke="url(#paint20_linear_309_6971)" stroke-width="4"/>
<path d="M2.0332 110.033C2.05291 110.585 2.08251 111.24 2.13281 111.984C2.30112 114.474 2.67647 117.951 3.50586 121.878C5.17305 129.772 8.62899 139.283 15.7041 146.358C22.1607 152.815 30.7699 156.247 38.3486 158.054C44.0775 159.419 49.1116 159.829 51.9746 159.95C51.9561 159.405 51.928 158.758 51.8799 158.025C51.7169 155.541 51.3485 152.073 50.5264 148.153C48.8739 140.275 45.433 130.779 38.3584 123.704C31.2832 116.629 21.771 113.173 13.877 111.506C9.95005 110.677 6.47435 110.301 3.98438 110.133C3.24008 110.083 2.58451 110.053 2.0332 110.033Z" stroke="url(#paint21_linear_309_6971)" stroke-width="4"/>
<path d="M54.5266 162.079C54.4784 162.078 54.4286 162.077 54.3772 162.076V162.049C54.4286 162.048 54.4784 162.046 54.5266 162.045V162.079ZM106.028 110.033C106.008 110.585 105.978 111.24 105.928 111.984C105.76 114.474 105.384 117.951 104.555 121.878C102.888 129.772 99.4318 139.283 92.3567 146.358C85.893 152.822 77.3929 156.268 69.9368 158.088C63.948 159.549 58.7435 159.93 56.0325 160.027C56.0522 159.476 56.0809 158.822 56.1311 158.078C56.2994 155.588 56.6757 152.112 57.5051 148.185C59.1723 140.291 62.6274 130.779 69.7024 123.704C76.7776 116.629 86.2898 113.173 94.1838 111.506C98.1107 110.677 101.586 110.301 104.076 110.133C104.821 110.083 105.476 110.053 106.028 110.033ZM106.028 214.091C105.476 214.071 104.821 214.042 104.076 213.992C101.586 213.824 98.1107 213.448 94.1838 212.619C86.2899 210.952 76.7776 207.496 69.7024 200.421C62.6272 193.346 59.1723 183.833 57.5051 175.939C56.6757 172.012 56.2994 168.536 56.1311 166.046C56.0808 165.302 56.0522 164.648 56.0325 164.097C58.7436 164.194 63.9481 164.576 69.9368 166.037C77.3929 167.857 85.893 171.303 92.3567 177.767C99.4318 184.842 102.888 194.353 104.555 202.247C105.384 206.174 105.76 209.651 105.928 212.141C105.978 212.885 106.008 213.54 106.028 214.091Z" stroke="url(#paint22_linear_309_6971)" stroke-width="4"/>
<path d="M217.332 214.328C220.042 214.215 225.245 213.804 231.226 212.308C238.671 210.445 247.152 206.95 253.578 200.449C260.612 193.333 264.012 183.802 265.633 175.898C266.44 171.966 266.796 168.488 266.95 165.997C266.996 165.252 267.021 164.597 267.037 164.045C266.486 164.068 265.831 164.102 265.088 164.156C262.599 164.339 259.125 164.734 255.202 165.586C247.318 167.299 237.827 170.81 230.793 177.926C223.759 185.042 220.358 194.573 218.736 202.477C217.93 206.409 217.574 209.887 217.421 212.378C217.375 213.122 217.349 213.777 217.332 214.328ZM217.356 218.397C217.379 218.948 217.412 219.602 217.467 220.346C217.649 222.835 218.045 226.309 218.897 230.231C220.61 238.115 224.121 247.607 231.237 254.641C238.353 261.676 247.884 265.077 255.787 266.698C259.719 267.505 263.197 267.86 265.688 268.014C266.433 268.06 267.088 268.085 267.639 268.101C267.616 267.55 267.584 266.895 267.529 266.151C267.347 263.662 266.95 260.188 266.098 256.266C264.385 248.382 260.875 238.891 253.759 231.857C247.258 225.43 238.738 222.033 231.272 220.257C225.274 218.83 220.067 218.478 217.356 218.397ZM215.688 216.385C215.74 216.386 215.79 216.388 215.839 216.389L215.839 216.354L215.687 216.359L215.688 216.385Z" stroke="url(#paint23_linear_309_6971)" stroke-width="4"/>
</g>
</g>
<defs>
<filter id="filter0_ii_309_6971" x="0" y="-0.797925" width="376.062" height="325.116" filterUnits="userSpaceOnUse" color-interpolation-filters="sRGB">
<feFlood flood-opacity="0" result="BackgroundImageFix"/>
<feBlend mode="normal" in="SourceGraphic" in2="BackgroundImageFix" result="shape"/>
<feColorMatrix in="SourceAlpha" type="matrix" values="0 0 0 0 0 0 0 0 0 0 0 0 0 0 0 0 0 0 127 0" result="hardAlpha"/>
<feOffset dy="-1"/>
<feGaussianBlur stdDeviation="0.4"/>
<feComposite in2="hardAlpha" operator="arithmetic" k2="-1" k3="1"/>
<feColorMatrix type="matrix" values="0 0 0 0 0.984314 0 0 0 0 0.521569 0 0 0 0 0.00392157 0 0 0 1 0"/>
<feBlend mode="normal" in2="shape" result="effect1_innerShadow_309_6971"/>
<feColorMatrix in="SourceAlpha" type="matrix" values="0 0 0 0 0 0 0 0 0 0 0 0 0 0 0 0 0 0 127 0" result="hardAlpha"/>
<feOffset dy="1"/>
<feComposite in2="hardAlpha" operator="arithmetic" k2="-1" k3="1"/>
<feColorMatrix type="matrix" values="0 0 0 0 1 0 0 0 0 1 0 0 0 0 1 0 0 0 1 0"/>
<feBlend mode="normal" in2="effect1_innerShadow_309_6971" result="effect2_innerShadow_309_6971"/>
</filter>
<filter id="filter1_ii_309_6971" x="0" y="-0.797925" width="376.062" height="325.116" filterUnits="userSpaceOnUse" color-interpolation-filters="sRGB">
<feFlood flood-opacity="0" result="BackgroundImageFix"/>
<feBlend mode="normal" in="SourceGraphic" in2="BackgroundImageFix" result="shape"/>
<feColorMatrix in="SourceAlpha" type="matrix" values="0 0 0 0 0 0 0 0 0 0 0 0 0 0 0 0 0 0 127 0" result="hardAlpha"/>
<feOffset dy="-1"/>
<feGaussianBlur stdDeviation="0.4"/>
<feComposite in2="hardAlpha" operator="arithmetic" k2="-1" k3="1"/>
<feColorMatrix type="matrix" values="0 0 0 0 0.984314 0 0 0 0 0.521569 0 0 0 0 0.00392157 0 0 0 1 0"/>
<feBlend mode="normal" in2="shape" result="effect1_innerShadow_309_6971"/>
<feColorMatrix in="SourceAlpha" type="matrix" values="0 0 0 0 0 0 0 0 0 0 0 0 0 0 0 0 0 0 127 0" result="hardAlpha"/>
<feOffset dy="1"/>
<feComposite in2="hardAlpha" operator="arithmetic" k2="-1" k3="1"/>
<feColorMatrix type="matrix" values="0 0 0 0 1 0 0 0 0 1 0 0 0 0 1 0 0 0 1 0"/>
<feBlend mode="normal" in2="effect1_innerShadow_309_6971" result="effect2_innerShadow_309_6971"/>
</filter>
<linearGradient id="paint0_linear_309_6971" x1="242.031" y1="0.187561" x2="242.031" y2="108.312" gradientUnits="userSpaceOnUse">
<stop stop-color="#FCF0D6"/>
<stop offset="1" stop-color="#FFC446"/>
</linearGradient>
<linearGradient id="paint1_linear_309_6971" x1="294.592" y1="0.156317" x2="295.217" y2="108.279" gradientUnits="userSpaceOnUse">
<stop stop-color="#FCF0D6"/>
<stop offset="1" stop-color="#FFC446"/>
</linearGradient>
<linearGradient id="paint2_linear_309_6971" x1="135.031" y1="108.188" x2="135.031" y2="216.312" gradientUnits="userSpaceOnUse">
<stop stop-color="#FCF0D6"/>
<stop offset="1" stop-color="#FFC446"/>
</linearGradient>
<linearGradient id="paint3_linear_309_6971" x1="187.592" y1="108.156" x2="188.217" y2="216.279" gradientUnits="userSpaceOnUse">
<stop stop-color="#FCF0D6"/>
<stop offset="1" stop-color="#FFC446"/>
</linearGradient>
<linearGradient id="paint4_linear_309_6971" x1="135.029" y1="216.193" x2="135.029" y2="324.318" gradientUnits="userSpaceOnUse">
<stop stop-color="#FCF0D6"/>
<stop offset="1" stop-color="#FFC446"/>
</linearGradient>
<linearGradient id="paint5_linear_309_6971" x1="27.0026" y1="108" x2="27.0026" y2="162" gradientUnits="userSpaceOnUse">
<stop stop-color="#FCF0D6"/>
<stop offset="1" stop-color="#FFC446"/>
</linearGradient>
<linearGradient id="paint6_linear_309_6971" x1="81.0296" y1="108" x2="81.0296" y2="216.125" gradientUnits="userSpaceOnUse">
<stop stop-color="#FCF0D6"/>
<stop offset="1" stop-color="#FFC446"/>
</linearGradient>
<linearGradient id="paint7_linear_309_6971" x1="242.029" y1="162.157" x2="242.654" y2="270.28" gradientUnits="userSpaceOnUse">
<stop stop-color="#FCF0D6"/>
<stop offset="1" stop-color="#FFC446"/>
</linearGradient>
<linearGradient id="paint8_linear_309_6971" x1="242.031" y1="0.187561" x2="242.031" y2="108.312" gradientUnits="userSpaceOnUse">
<stop stop-color="#FFC446"/>
<stop offset="1" stop-color="#FCF0D6"/>
</linearGradient>
<linearGradient id="paint9_linear_309_6971" x1="294.592" y1="0.156317" x2="295.217" y2="108.279" gradientUnits="userSpaceOnUse">
<stop stop-color="#FFC446"/>
<stop offset="1" stop-color="#FCF0D6"/>
</linearGradient>
<linearGradient id="paint10_linear_309_6971" x1="135.031" y1="108.188" x2="135.031" y2="216.312" gradientUnits="userSpaceOnUse">
<stop stop-color="#FFC446"/>
<stop offset="1" stop-color="#FCF0D6"/>
</linearGradient>
<linearGradient id="paint11_linear_309_6971" x1="187.592" y1="108.156" x2="188.217" y2="216.279" gradientUnits="userSpaceOnUse">
<stop stop-color="#FFC446"/>
<stop offset="1" stop-color="#FCF0D6"/>
</linearGradient>
<linearGradient id="paint12_linear_309_6971" x1="135.029" y1="216.193" x2="135.029" y2="324.318" gradientUnits="userSpaceOnUse">
<stop stop-color="#FFC446"/>
<stop offset="1" stop-color="#FCF0D6"/>
</linearGradient>
<linearGradient id="paint13_linear_309_6971" x1="27.0026" y1="108" x2="27.0026" y2="162" gradientUnits="userSpaceOnUse">
<stop stop-color="#FFC446"/>
<stop offset="1" stop-color="#FCF0D6"/>
</linearGradient>
<linearGradient id="paint14_linear_309_6971" x1="81.0296" y1="108" x2="81.0296" y2="216.125" gradientUnits="userSpaceOnUse">
<stop stop-color="#FFC446"/>
<stop offset="1" stop-color="#FCF0D6"/>
</linearGradient>
<linearGradient id="paint15_linear_309_6971" x1="242.029" y1="162.157" x2="242.654" y2="270.28" gradientUnits="userSpaceOnUse">
<stop stop-color="#FFC446"/>
<stop offset="1" stop-color="#FCF0D6"/>
</linearGradient>
<linearGradient id="paint16_linear_309_6971" x1="242.031" y1="0.187561" x2="242.031" y2="108.312" gradientUnits="userSpaceOnUse">
<stop stop-color="#FFC446"/>
<stop offset="1" stop-color="#FCF0D6"/>
</linearGradient>
<linearGradient id="paint17_linear_309_6971" x1="294.592" y1="0.156317" x2="295.217" y2="108.279" gradientUnits="userSpaceOnUse">
<stop stop-color="#FFC446"/>
<stop offset="1" stop-color="#FCF0D6"/>
</linearGradient>
<linearGradient id="paint18_linear_309_6971" x1="135.031" y1="108.188" x2="135.031" y2="216.312" gradientUnits="userSpaceOnUse">
<stop stop-color="#FFC446"/>
<stop offset="1" stop-color="#FCF0D6"/>
</linearGradient>
<linearGradient id="paint19_linear_309_6971" x1="187.592" y1="108.156" x2="188.217" y2="216.279" gradientUnits="userSpaceOnUse">
<stop stop-color="#FFC446"/>
<stop offset="1" stop-color="#FCF0D6"/>
</linearGradient>
<linearGradient id="paint20_linear_309_6971" x1="135.029" y1="216.193" x2="135.029" y2="324.318" gradientUnits="userSpaceOnUse">
<stop stop-color="#FFC446"/>
<stop offset="1" stop-color="#FCF0D6"/>
</linearGradient>
<linearGradient id="paint21_linear_309_6971" x1="27.0026" y1="108" x2="27.0026" y2="162" gradientUnits="userSpaceOnUse">
<stop stop-color="#FFC446"/>
<stop offset="1" stop-color="#FCF0D6"/>
</linearGradient>
<linearGradient id="paint22_linear_309_6971" x1="81.0296" y1="108" x2="81.0296" y2="216.125" gradientUnits="userSpaceOnUse">
<stop stop-color="#FFC446"/>
<stop offset="1" stop-color="#FCF0D6"/>
</linearGradient>
<linearGradient id="paint23_linear_309_6971" x1="242.029" y1="162.157" x2="242.654" y2="270.28" gradientUnits="userSpaceOnUse">
<stop stop-color="#FFC446"/>
<stop offset="1" stop-color="#FCF0D6"/>
</linearGradient>
</defs>
</svg>
