<svg width="313" height="325" viewBox="0 0 313 325" fill="none" xmlns="http://www.w3.org/2000/svg">
<g opacity="0.35">
<g opacity="0.6">
<path fill-rule="evenodd" clip-rule="evenodd" d="M190.772 14.4773C175.846 -0.449381 151.004 0.191508 151.004 0.191508C151.004 0.191508 150.363 25.0334 165.29 39.9599C178.933 53.6037 200.86 54.2414 204.53 54.2499C200.86 54.2589 178.933 54.8967 165.29 68.5399C150.363 83.4667 151.004 108.308 151.004 108.308C151.004 108.308 175.846 108.95 190.772 94.0224C205.699 79.0956 205.058 54.2539 205.058 54.2539C205.058 54.2539 204.93 54.2504 204.688 54.2499C204.93 54.2494 205.058 54.2459 205.058 54.2459C205.058 54.2459 205.699 29.4042 190.772 14.4773Z" fill="url(#paint0_linear_309_7809)"/>
<path fill-rule="evenodd" clip-rule="evenodd" d="M258.244 108.119C258.244 108.119 233.406 108.904 218.393 94.0632C203.38 79.2231 203.878 54.3781 203.878 54.3781C203.878 54.3781 204.005 54.3739 204.248 54.372C204.146 54.3726 204.064 54.372 204.003 54.3719C203.92 54.3714 203.878 54.3701 203.878 54.3701C203.878 54.3701 203.093 29.5326 217.933 14.5195C232.773 -0.493257 257.618 0.00392169 257.618 0.00392169C257.618 0.00392169 258.403 24.8417 243.563 39.8543C229.999 53.5768 208.076 54.3413 204.406 54.3711C208.076 54.3588 230.006 54.8697 243.728 68.4338C258.741 83.274 258.244 108.119 258.244 108.119Z" fill="url(#paint1_linear_309_7809)"/>
<path fill-rule="evenodd" clip-rule="evenodd" d="M83.7724 122.477C68.8457 107.551 44.004 108.192 44.004 108.192C44.004 108.192 43.3633 133.033 58.29 147.96C71.9333 161.604 93.8601 162.241 97.5298 162.25C93.8601 162.259 71.9333 162.897 58.29 176.54C43.3633 191.467 44.004 216.308 44.004 216.308C44.004 216.308 68.8457 216.95 83.7724 202.022C98.6992 187.096 98.0584 162.254 98.0584 162.254C98.0584 162.254 97.9303 162.25 97.6875 162.25C97.9303 162.249 98.0584 162.246 98.0584 162.246C98.0584 162.246 98.6992 137.404 83.7724 122.477Z" fill="url(#paint2_linear_309_7809)"/>
<path fill-rule="evenodd" clip-rule="evenodd" d="M151.244 216.119C151.244 216.119 126.406 216.904 111.393 202.063C96.3804 187.223 96.8776 162.378 96.8776 162.378C96.8776 162.378 97.0055 162.374 97.2485 162.372C97.1458 162.373 97.0637 162.372 97.0031 162.372C96.9202 162.371 96.8775 162.37 96.8775 162.37C96.8775 162.37 96.0929 137.533 110.933 122.52C125.773 107.507 150.618 108.004 150.618 108.004C150.618 108.004 151.403 132.842 136.563 147.854C122.999 161.577 101.076 162.341 97.4063 162.371C101.076 162.359 123.006 162.87 136.728 176.434C151.741 191.274 151.244 216.119 151.244 216.119Z" fill="url(#paint3_linear_309_7809)"/>
<path fill-rule="evenodd" clip-rule="evenodd" d="M83.7702 230.483C68.8435 215.556 44.0018 216.197 44.0018 216.197C44.0018 216.197 43.3611 241.039 58.2878 255.966C71.9311 269.609 93.8579 270.247 97.5276 270.256C93.8579 270.265 71.9311 270.902 58.2878 284.546C43.3611 299.472 44.0018 324.314 44.0018 324.314C44.0018 324.314 68.8435 324.955 83.7702 310.028C98.697 295.101 98.0562 270.26 98.0562 270.26C98.0562 270.26 97.9281 270.256 97.6853 270.256C97.9281 270.255 98.0562 270.252 98.0562 270.252C98.0562 270.252 98.697 245.41 83.7702 230.483Z" fill="url(#paint4_linear_309_7809)"/>
<path fill-rule="evenodd" clip-rule="evenodd" d="M4.28836 122.29C19.2151 107.363 44.0568 108.004 44.0568 108.004C44.0568 108.004 44.6975 132.846 29.7708 147.772C16.1275 161.416 -5.79929 162.054 -9.46903 162.062C-5.79929 162.071 16.1275 162.709 29.7708 176.352C44.6975 191.279 44.0568 216.121 44.0568 216.121C44.0568 216.121 19.2151 216.762 4.28836 201.835C-10.6384 186.908 -9.99764 162.066 -9.99764 162.066C-9.99764 162.066 -9.86949 162.063 -9.62671 162.062C-9.86949 162.062 -9.99764 162.058 -9.99764 162.058C-9.99764 162.058 -10.6384 137.217 4.28836 122.29Z" fill="url(#paint5_linear_309_7809)"/>
<path fill-rule="evenodd" clip-rule="evenodd" d="M272.29 68.2898C287.217 53.3631 312.058 54.004 312.058 54.004C312.058 54.004 312.699 78.8459 297.773 93.7724C284.129 107.416 262.202 108.054 258.533 108.062C262.202 108.071 284.129 108.709 297.773 122.352C312.699 137.279 312.058 162.121 312.058 162.121C312.058 162.121 287.217 162.762 272.29 147.835C257.363 132.908 258.004 108.066 258.004 108.066C258.004 108.066 258.132 108.063 258.375 108.062C258.132 108.062 258.004 108.058 258.004 108.058C258.004 108.058 257.363 83.2167 272.29 68.2898Z" fill="url(#paint6_linear_309_7809)"/>
<path fill-rule="evenodd" clip-rule="evenodd" d="M205.681 270.119C205.681 270.119 180.843 270.904 165.83 256.064C150.818 241.223 151.315 216.378 151.315 216.378C151.315 216.378 151.443 216.374 151.686 216.372C151.583 216.373 151.501 216.372 151.44 216.372C151.357 216.372 151.315 216.37 151.315 216.37C151.315 216.37 150.53 191.533 165.37 176.52C180.211 161.507 205.056 162.004 205.056 162.004C205.056 162.004 205.84 186.842 191 201.855C177.436 215.577 155.513 216.342 151.844 216.371C155.513 216.359 177.443 216.87 191.165 230.434C206.178 245.274 205.681 270.119 205.681 270.119Z" fill="url(#paint7_linear_309_7809)"/>
</g>
<g filter="url(#filter0_ii_309_7809)">
<path d="M204.534 54.2666C204.582 54.2654 204.632 54.265 204.684 54.2637V54.2363C204.632 54.235 204.582 54.2337 204.534 54.2324V54.2666ZM153.033 2.2207C153.053 2.77202 153.083 3.42757 153.133 4.17188C153.301 6.66198 153.676 10.1383 154.506 14.0654C156.173 21.9594 159.629 31.4709 166.704 38.5459C173.168 45.0098 181.668 48.4557 189.124 50.2754C195.113 51.7369 200.317 52.118 203.028 52.2148C203.009 51.6639 202.98 51.0091 202.93 50.2656C202.761 47.7755 202.385 44.2992 201.556 40.3721C199.888 32.4782 196.433 22.9668 189.358 15.8916C182.283 8.81642 172.771 5.36048 164.877 3.69336C160.95 2.86408 157.474 2.4886 154.984 2.32031C154.24 2.27001 153.585 2.24041 153.033 2.2207ZM153.033 106.278C153.585 106.259 154.24 106.23 154.984 106.18C157.474 106.011 160.95 105.636 164.877 104.807C172.771 103.14 182.283 99.6838 189.358 92.6084C196.434 85.5332 199.888 76.021 201.556 68.127C202.385 64.1997 202.761 60.7235 202.93 58.2334C202.98 57.4898 203.009 56.8352 203.028 56.2842C200.317 56.3812 195.113 56.7631 189.124 58.2246C181.668 60.0443 173.168 63.4904 166.704 69.9541C159.629 77.0292 156.173 86.5406 154.506 94.4346C153.676 98.3618 153.301 101.838 153.133 104.328C153.083 105.072 153.053 105.727 153.033 106.278Z" stroke="url(#paint8_linear_309_7809)" stroke-width="4"/>
<path d="M205.895 52.3273C208.605 52.2148 213.808 51.8038 219.789 50.3075C227.234 48.4447 235.714 44.9497 242.14 38.4485C249.174 31.3327 252.574 21.8013 254.196 13.8979C255.003 9.96599 255.359 6.48757 255.513 3.99654C255.559 3.25197 255.583 2.59624 255.6 2.04483C255.049 2.06772 254.394 2.10114 253.65 2.15572C251.161 2.33841 247.687 2.7339 243.765 3.58597C235.881 5.29875 226.39 8.80972 219.355 15.9256C212.321 23.0416 208.92 32.5728 207.299 40.4762C206.492 44.4081 206.137 47.8865 205.983 50.3776C205.937 51.1213 205.911 51.7763 205.895 52.3273ZM205.918 56.3966C205.941 56.9475 205.975 57.6019 206.029 58.3452C206.212 60.8342 206.608 64.3083 207.46 68.2307C209.172 76.1149 212.683 85.607 219.799 92.6411C226.915 99.6753 236.446 103.076 244.35 104.698C248.282 105.504 251.76 105.859 254.251 106.013C254.995 106.059 255.651 106.084 256.202 106.101C256.179 105.55 256.147 104.895 256.092 104.151C255.909 101.662 255.513 98.188 254.661 94.2657C252.948 86.3816 249.438 76.8902 242.322 69.8562C235.821 63.4299 227.301 60.0331 219.835 58.2566C213.837 56.8295 208.63 56.4779 205.918 56.3966ZM204.251 54.3847C204.303 54.3858 204.353 54.3878 204.402 54.3887L204.402 54.3536L204.249 54.3584L204.251 54.3847Z" stroke="url(#paint9_linear_309_7809)" stroke-width="4"/>
<path d="M97.5342 162.267C97.5824 162.265 97.6322 162.265 97.6836 162.264V162.236C97.6322 162.235 97.5824 162.234 97.5342 162.232V162.267ZM46.0332 110.221C46.0529 110.772 46.0825 111.428 46.1328 112.172C46.3011 114.662 46.6765 118.138 47.5059 122.065C49.173 129.959 52.629 139.471 59.7041 146.546C66.1678 153.01 74.6679 156.456 82.124 158.275C88.1127 159.737 93.3173 160.118 96.0283 160.215C96.0086 159.664 95.9799 159.009 95.9297 158.266C95.7614 155.776 95.3851 152.299 94.5557 148.372C92.8885 140.478 89.4334 130.967 82.3584 123.892C75.2832 116.816 65.771 113.36 57.877 111.693C53.9501 110.864 50.4743 110.489 47.9844 110.32C47.2401 110.27 46.5845 110.24 46.0332 110.221ZM46.0332 214.278C46.5845 214.259 47.2401 214.23 47.9844 214.18C50.4743 214.011 53.9501 213.636 57.877 212.807C65.7709 211.14 75.2832 207.684 82.3584 200.608C89.4336 193.533 92.8885 184.021 94.5557 176.127C95.3851 172.2 95.7614 168.723 95.9297 166.233C95.9799 165.49 96.0086 164.835 96.0283 164.284C93.3172 164.381 88.1126 164.763 82.124 166.225C74.6679 168.044 66.1678 171.49 59.7041 177.954C52.629 185.029 49.173 194.541 47.5059 202.435C46.6765 206.362 46.3011 209.838 46.1328 212.328C46.0825 213.072 46.0529 213.727 46.0332 214.278Z" stroke="url(#paint10_linear_309_7809)" stroke-width="4"/>
<path d="M98.8949 160.327C101.605 160.215 106.808 159.804 112.789 158.307C120.234 156.445 128.714 152.95 135.14 146.448C142.174 139.333 145.574 129.801 147.196 121.898C148.003 117.966 148.359 114.488 148.513 111.997C148.559 111.252 148.583 110.596 148.6 110.045C148.049 110.068 147.394 110.101 146.65 110.156C144.161 110.338 140.687 110.734 136.765 111.586C128.881 113.299 119.39 116.81 112.355 123.926C105.321 131.042 101.92 140.573 100.299 148.476C99.4924 152.408 99.1371 155.887 98.9833 158.378C98.9373 159.121 98.9114 159.776 98.8949 160.327ZM98.9185 164.397C98.9413 164.947 98.9748 165.602 99.0293 166.345C99.212 168.834 99.6075 172.308 100.46 176.231C102.172 184.115 105.683 193.607 112.799 200.641C119.915 207.675 129.446 211.076 137.35 212.698C141.282 213.504 144.76 213.859 147.251 214.013C147.995 214.059 148.651 214.084 149.202 214.101C149.179 213.55 149.147 212.895 149.092 212.151C148.909 209.662 148.513 206.188 147.661 202.266C145.948 194.382 142.438 184.89 135.322 177.856C128.821 171.43 120.301 168.033 112.835 166.257C106.837 164.83 101.63 164.478 98.9185 164.397ZM97.2505 162.385C97.3027 162.386 97.3531 162.388 97.4019 162.389L97.4017 162.354L97.2494 162.358L97.2505 162.385Z" stroke="url(#paint11_linear_309_7809)" stroke-width="4"/>
<path d="M97.532 270.272C97.5802 270.271 97.63 270.271 97.6814 270.269V270.242C97.63 270.241 97.5802 270.239 97.532 270.238V270.272ZM46.031 218.226C46.0507 218.778 46.0803 219.433 46.1306 220.177C46.2989 222.668 46.6743 226.144 47.5037 230.071C49.1709 237.965 52.6268 247.477 59.7019 254.552C66.1656 261.015 74.6657 264.461 82.1218 266.281C88.1105 267.743 93.3151 268.124 96.0261 268.22C96.0064 267.67 95.9777 267.015 95.9275 266.271C95.7592 263.781 95.3829 260.305 94.5535 256.378C92.8863 248.484 89.4312 238.972 82.3562 231.897C75.281 224.822 65.7688 221.366 57.8748 219.699C53.9479 218.87 50.4721 218.494 47.9822 218.326C47.2379 218.276 46.5823 218.246 46.031 218.226ZM46.031 322.284C46.5823 322.264 47.2379 322.236 47.9822 322.185C50.4721 322.017 53.9479 321.642 57.8748 320.812C65.7687 319.145 75.281 315.689 82.3562 308.614C89.4314 301.539 92.8863 292.027 94.5535 284.133C95.3829 280.205 95.7592 276.729 95.9275 274.239C95.9777 273.495 96.0064 272.841 96.0261 272.29C93.315 272.387 88.1105 272.769 82.1218 274.23C74.6657 276.05 66.1656 279.496 59.7019 285.96C52.6268 293.035 49.1708 302.546 47.5037 310.44C46.6743 314.367 46.2989 317.844 46.1306 320.334C46.0803 321.078 46.0507 321.733 46.031 322.284Z" stroke="url(#paint12_linear_309_7809)" stroke-width="4"/>
<path d="M-9.47339 162.079C-9.52159 162.078 -9.5714 162.077 -9.6228 162.076V162.049C-9.57139 162.048 -9.5216 162.046 -9.47339 162.045V162.079ZM42.0276 110.033C42.0079 110.585 41.9783 111.24 41.928 111.984C41.7597 114.474 41.3843 117.951 40.5549 121.878C38.8877 129.772 35.4318 139.283 28.3567 146.358C21.893 152.822 13.3929 156.268 5.93677 158.088C-0.0519506 159.549 -5.25653 159.93 -7.96753 160.027C-7.94782 159.476 -7.91914 158.822 -7.8689 158.078C-7.70059 155.588 -7.32426 152.112 -6.49487 148.185C-4.82768 140.291 -1.37258 130.779 5.70239 123.704C12.7776 116.629 22.2898 113.173 30.1838 111.506C34.1107 110.677 37.5864 110.301 40.0764 110.133C40.8207 110.083 41.4763 110.053 42.0276 110.033ZM42.0276 214.091C41.4763 214.071 40.8207 214.042 40.0764 213.992C37.5864 213.824 34.1107 213.448 30.1838 212.619C22.2899 210.952 12.7776 207.496 5.70239 200.421C-1.37282 193.346 -4.82771 183.833 -6.49487 175.939C-7.32427 172.012 -7.70061 168.536 -7.8689 166.046C-7.91915 165.302 -7.94782 164.648 -7.96753 164.097C-5.25636 164.194 -0.0518582 164.576 5.93677 166.037C13.3929 167.857 21.893 171.303 28.3567 177.767C35.4318 184.842 38.8877 194.353 40.5549 202.247C41.3843 206.174 41.7597 209.651 41.928 212.141C41.9783 212.885 42.0079 213.54 42.0276 214.091Z" stroke="url(#paint13_linear_309_7809)" stroke-width="4"/>
<path d="M258.528 108.079C258.48 108.078 258.43 108.077 258.379 108.076V108.049C258.43 108.048 258.48 108.046 258.528 108.045V108.079ZM310.029 56.0332C310.01 56.5845 309.98 57.2401 309.93 57.9844C309.761 60.4745 309.386 63.9508 308.557 67.8779C306.889 75.7719 303.434 85.2834 296.358 92.3584C289.895 98.8223 281.395 102.268 273.938 104.088C267.95 105.549 262.745 105.93 260.034 106.027C260.054 105.476 260.083 104.822 260.133 104.078C260.301 101.588 260.677 98.1117 261.507 94.1846C263.174 86.2907 266.629 76.7793 273.704 69.7041C280.779 62.6289 290.292 59.173 298.186 57.5059C302.112 56.6766 305.588 56.3011 308.078 56.1328C308.822 56.0825 309.478 56.0529 310.029 56.0332ZM310.029 160.091C309.478 160.071 308.822 160.042 308.078 159.992C305.588 159.824 302.112 159.448 298.186 158.619C290.292 156.952 280.779 153.496 273.704 146.421C266.629 139.346 263.174 129.833 261.507 121.939C260.677 118.012 260.301 114.536 260.133 112.046C260.083 111.302 260.054 110.648 260.034 110.097C262.745 110.194 267.95 110.576 273.938 112.037C281.395 113.857 289.895 117.303 296.358 123.767C303.434 130.842 306.889 140.353 308.557 148.247C309.386 152.174 309.761 155.651 309.93 158.141C309.98 158.885 310.01 159.54 310.029 160.091Z" stroke="url(#paint14_linear_309_7809)" stroke-width="4"/>
<path d="M153.332 214.328C156.042 214.215 161.245 213.804 167.226 212.308C174.671 210.445 183.152 206.95 189.578 200.449C196.612 193.333 200.012 183.802 201.633 175.898C202.44 171.966 202.796 168.488 202.95 165.997C202.996 165.252 203.021 164.597 203.037 164.045C202.486 164.068 201.831 164.102 201.088 164.156C198.599 164.339 195.125 164.734 191.202 165.586C183.318 167.299 173.827 170.81 166.793 177.926C159.759 185.042 156.358 194.573 154.736 202.477C153.93 206.409 153.574 209.887 153.421 212.378C153.375 213.122 153.349 213.777 153.332 214.328ZM153.356 218.397C153.379 218.948 153.412 219.602 153.467 220.346C153.649 222.835 154.045 226.309 154.897 230.231C156.61 238.115 160.121 247.607 167.237 254.641C174.353 261.676 183.884 265.077 191.787 266.698C195.719 267.505 199.197 267.86 201.688 268.014C202.433 268.06 203.088 268.085 203.639 268.101C203.616 267.55 203.584 266.895 203.529 266.151C203.347 263.662 202.95 260.188 202.098 256.266C200.385 248.382 196.875 238.891 189.759 231.857C183.258 225.43 174.738 222.033 167.272 220.257C161.274 218.83 156.067 218.478 153.356 218.397ZM151.688 216.385C151.74 216.386 151.79 216.388 151.839 216.389L151.839 216.354L151.687 216.359L151.688 216.385Z" stroke="url(#paint15_linear_309_7809)" stroke-width="4"/>
</g>
<g filter="url(#filter1_ii_309_7809)">
<path d="M204.534 54.2666C204.582 54.2654 204.632 54.265 204.684 54.2637V54.2363C204.632 54.235 204.582 54.2337 204.534 54.2324V54.2666ZM153.033 2.2207C153.053 2.77202 153.083 3.42757 153.133 4.17188C153.301 6.66198 153.676 10.1383 154.506 14.0654C156.173 21.9594 159.629 31.4709 166.704 38.5459C173.168 45.0098 181.668 48.4557 189.124 50.2754C195.113 51.7369 200.317 52.118 203.028 52.2148C203.009 51.6639 202.98 51.0091 202.93 50.2656C202.761 47.7755 202.385 44.2992 201.556 40.3721C199.888 32.4782 196.433 22.9668 189.358 15.8916C182.283 8.81642 172.771 5.36048 164.877 3.69336C160.95 2.86408 157.474 2.4886 154.984 2.32031C154.24 2.27001 153.585 2.24041 153.033 2.2207ZM153.033 106.278C153.585 106.259 154.24 106.23 154.984 106.18C157.474 106.011 160.95 105.636 164.877 104.807C172.771 103.14 182.283 99.6838 189.358 92.6084C196.434 85.5332 199.888 76.021 201.556 68.127C202.385 64.1997 202.761 60.7235 202.93 58.2334C202.98 57.4898 203.009 56.8352 203.028 56.2842C200.317 56.3812 195.113 56.7631 189.124 58.2246C181.668 60.0443 173.168 63.4904 166.704 69.9541C159.629 77.0292 156.173 86.5406 154.506 94.4346C153.676 98.3618 153.301 101.838 153.133 104.328C153.083 105.072 153.053 105.727 153.033 106.278Z" stroke="url(#paint16_linear_309_7809)" stroke-width="4"/>
<path d="M205.895 52.3273C208.605 52.2148 213.808 51.8038 219.789 50.3075C227.234 48.4447 235.714 44.9497 242.14 38.4485C249.174 31.3327 252.574 21.8013 254.196 13.8979C255.003 9.96599 255.359 6.48757 255.513 3.99654C255.559 3.25197 255.583 2.59624 255.6 2.04483C255.049 2.06772 254.394 2.10114 253.65 2.15572C251.161 2.33841 247.687 2.7339 243.765 3.58597C235.881 5.29875 226.39 8.80972 219.355 15.9256C212.321 23.0416 208.92 32.5728 207.299 40.4762C206.492 44.4081 206.137 47.8865 205.983 50.3776C205.937 51.1213 205.911 51.7763 205.895 52.3273ZM205.918 56.3966C205.941 56.9475 205.975 57.6019 206.029 58.3452C206.212 60.8342 206.608 64.3083 207.46 68.2307C209.172 76.1149 212.683 85.607 219.799 92.6411C226.915 99.6753 236.446 103.076 244.35 104.698C248.282 105.504 251.76 105.859 254.251 106.013C254.995 106.059 255.651 106.084 256.202 106.101C256.179 105.55 256.147 104.895 256.092 104.151C255.909 101.662 255.513 98.188 254.661 94.2657C252.948 86.3816 249.438 76.8902 242.322 69.8562C235.821 63.4299 227.301 60.0331 219.835 58.2566C213.837 56.8295 208.63 56.4779 205.918 56.3966ZM204.251 54.3847C204.303 54.3858 204.353 54.3878 204.402 54.3887L204.402 54.3536L204.249 54.3584L204.251 54.3847Z" stroke="url(#paint17_linear_309_7809)" stroke-width="4"/>
<path d="M97.5342 162.267C97.5824 162.265 97.6322 162.265 97.6836 162.264V162.236C97.6322 162.235 97.5824 162.234 97.5342 162.232V162.267ZM46.0332 110.221C46.0529 110.772 46.0825 111.428 46.1328 112.172C46.3011 114.662 46.6765 118.138 47.5059 122.065C49.173 129.959 52.629 139.471 59.7041 146.546C66.1678 153.01 74.6679 156.456 82.124 158.275C88.1127 159.737 93.3173 160.118 96.0283 160.215C96.0086 159.664 95.9799 159.009 95.9297 158.266C95.7614 155.776 95.3851 152.299 94.5557 148.372C92.8885 140.478 89.4334 130.967 82.3584 123.892C75.2832 116.816 65.771 113.36 57.877 111.693C53.9501 110.864 50.4743 110.489 47.9844 110.32C47.2401 110.27 46.5845 110.24 46.0332 110.221ZM46.0332 214.278C46.5845 214.259 47.2401 214.23 47.9844 214.18C50.4743 214.011 53.9501 213.636 57.877 212.807C65.7709 211.14 75.2832 207.684 82.3584 200.608C89.4336 193.533 92.8885 184.021 94.5557 176.127C95.3851 172.2 95.7614 168.723 95.9297 166.233C95.9799 165.49 96.0086 164.835 96.0283 164.284C93.3172 164.381 88.1126 164.763 82.124 166.225C74.6679 168.044 66.1678 171.49 59.7041 177.954C52.629 185.029 49.173 194.541 47.5059 202.435C46.6765 206.362 46.3011 209.838 46.1328 212.328C46.0825 213.072 46.0529 213.727 46.0332 214.278Z" stroke="url(#paint18_linear_309_7809)" stroke-width="4"/>
<path d="M98.8949 160.327C101.605 160.215 106.808 159.804 112.789 158.307C120.234 156.445 128.714 152.95 135.14 146.448C142.174 139.333 145.574 129.801 147.196 121.898C148.003 117.966 148.359 114.488 148.513 111.997C148.559 111.252 148.583 110.596 148.6 110.045C148.049 110.068 147.394 110.101 146.65 110.156C144.161 110.338 140.687 110.734 136.765 111.586C128.881 113.299 119.39 116.81 112.355 123.926C105.321 131.042 101.92 140.573 100.299 148.476C99.4924 152.408 99.1371 155.887 98.9833 158.378C98.9373 159.121 98.9114 159.776 98.8949 160.327ZM98.9185 164.397C98.9413 164.947 98.9748 165.602 99.0293 166.345C99.212 168.834 99.6075 172.308 100.46 176.231C102.172 184.115 105.683 193.607 112.799 200.641C119.915 207.675 129.446 211.076 137.35 212.698C141.282 213.504 144.76 213.859 147.251 214.013C147.995 214.059 148.651 214.084 149.202 214.101C149.179 213.55 149.147 212.895 149.092 212.151C148.909 209.662 148.513 206.188 147.661 202.266C145.948 194.382 142.438 184.89 135.322 177.856C128.821 171.43 120.301 168.033 112.835 166.257C106.837 164.83 101.63 164.478 98.9185 164.397ZM97.2505 162.385C97.3027 162.386 97.3531 162.388 97.4019 162.389L97.4017 162.354L97.2494 162.358L97.2505 162.385Z" stroke="url(#paint19_linear_309_7809)" stroke-width="4"/>
<path d="M97.532 270.272C97.5802 270.271 97.63 270.271 97.6814 270.269V270.242C97.63 270.241 97.5802 270.239 97.532 270.238V270.272ZM46.031 218.226C46.0507 218.778 46.0803 219.433 46.1306 220.177C46.2989 222.668 46.6743 226.144 47.5037 230.071C49.1709 237.965 52.6268 247.477 59.7019 254.552C66.1656 261.015 74.6657 264.461 82.1218 266.281C88.1105 267.743 93.3151 268.124 96.0261 268.22C96.0064 267.67 95.9777 267.015 95.9275 266.271C95.7592 263.781 95.3829 260.305 94.5535 256.378C92.8863 248.484 89.4312 238.972 82.3562 231.897C75.281 224.822 65.7688 221.366 57.8748 219.699C53.9479 218.87 50.4721 218.494 47.9822 218.326C47.2379 218.276 46.5823 218.246 46.031 218.226ZM46.031 322.284C46.5823 322.264 47.2379 322.236 47.9822 322.185C50.4721 322.017 53.9479 321.642 57.8748 320.812C65.7687 319.145 75.281 315.689 82.3562 308.614C89.4314 301.539 92.8863 292.027 94.5535 284.133C95.3829 280.205 95.7592 276.729 95.9275 274.239C95.9777 273.495 96.0064 272.841 96.0261 272.29C93.315 272.387 88.1105 272.769 82.1218 274.23C74.6657 276.05 66.1656 279.496 59.7019 285.96C52.6268 293.035 49.1708 302.546 47.5037 310.44C46.6743 314.367 46.2989 317.844 46.1306 320.334C46.0803 321.078 46.0507 321.733 46.031 322.284Z" stroke="url(#paint20_linear_309_7809)" stroke-width="4"/>
<path d="M-9.47339 162.079C-9.52159 162.078 -9.5714 162.077 -9.6228 162.076V162.049C-9.57139 162.048 -9.5216 162.046 -9.47339 162.045V162.079ZM42.0276 110.033C42.0079 110.585 41.9783 111.24 41.928 111.984C41.7597 114.474 41.3843 117.951 40.5549 121.878C38.8877 129.772 35.4318 139.283 28.3567 146.358C21.893 152.822 13.3929 156.268 5.93677 158.088C-0.0519506 159.549 -5.25653 159.93 -7.96753 160.027C-7.94782 159.476 -7.91914 158.822 -7.8689 158.078C-7.70059 155.588 -7.32426 152.112 -6.49487 148.185C-4.82768 140.291 -1.37258 130.779 5.70239 123.704C12.7776 116.629 22.2898 113.173 30.1838 111.506C34.1107 110.677 37.5864 110.301 40.0764 110.133C40.8207 110.083 41.4763 110.053 42.0276 110.033ZM42.0276 214.091C41.4763 214.071 40.8207 214.042 40.0764 213.992C37.5864 213.824 34.1107 213.448 30.1838 212.619C22.2899 210.952 12.7776 207.496 5.70239 200.421C-1.37282 193.346 -4.82771 183.833 -6.49487 175.939C-7.32427 172.012 -7.70061 168.536 -7.8689 166.046C-7.91915 165.302 -7.94782 164.648 -7.96753 164.097C-5.25636 164.194 -0.0518582 164.576 5.93677 166.037C13.3929 167.857 21.893 171.303 28.3567 177.767C35.4318 184.842 38.8877 194.353 40.5549 202.247C41.3843 206.174 41.7597 209.651 41.928 212.141C41.9783 212.885 42.0079 213.54 42.0276 214.091Z" stroke="url(#paint21_linear_309_7809)" stroke-width="4"/>
<path d="M258.528 108.079C258.48 108.078 258.43 108.077 258.379 108.076V108.049C258.43 108.048 258.48 108.046 258.528 108.045V108.079ZM310.029 56.0332C310.01 56.5845 309.98 57.2401 309.93 57.9844C309.761 60.4745 309.386 63.9508 308.557 67.8779C306.889 75.7719 303.434 85.2834 296.358 92.3584C289.895 98.8223 281.395 102.268 273.938 104.088C267.95 105.549 262.745 105.93 260.034 106.027C260.054 105.476 260.083 104.822 260.133 104.078C260.301 101.588 260.677 98.1117 261.507 94.1846C263.174 86.2907 266.629 76.7793 273.704 69.7041C280.779 62.6289 290.292 59.173 298.186 57.5059C302.112 56.6766 305.588 56.3011 308.078 56.1328C308.822 56.0825 309.478 56.0529 310.029 56.0332ZM310.029 160.091C309.478 160.071 308.822 160.042 308.078 159.992C305.588 159.824 302.112 159.448 298.186 158.619C290.292 156.952 280.779 153.496 273.704 146.421C266.629 139.346 263.174 129.833 261.507 121.939C260.677 118.012 260.301 114.536 260.133 112.046C260.083 111.302 260.054 110.648 260.034 110.097C262.745 110.194 267.95 110.576 273.938 112.037C281.395 113.857 289.895 117.303 296.358 123.767C303.434 130.842 306.889 140.353 308.557 148.247C309.386 152.174 309.761 155.651 309.93 158.141C309.98 158.885 310.01 159.54 310.029 160.091Z" stroke="url(#paint22_linear_309_7809)" stroke-width="4"/>
<path d="M153.332 214.328C156.042 214.215 161.245 213.804 167.226 212.308C174.671 210.445 183.152 206.95 189.578 200.449C196.612 193.333 200.012 183.802 201.633 175.898C202.44 171.966 202.796 168.488 202.95 165.997C202.996 165.252 203.021 164.597 203.037 164.045C202.486 164.068 201.831 164.102 201.088 164.156C198.599 164.339 195.125 164.734 191.202 165.586C183.318 167.299 173.827 170.81 166.793 177.926C159.759 185.042 156.358 194.573 154.736 202.477C153.93 206.409 153.574 209.887 153.421 212.378C153.375 213.122 153.349 213.777 153.332 214.328ZM153.356 218.397C153.379 218.948 153.412 219.602 153.467 220.346C153.649 222.835 154.045 226.309 154.897 230.231C156.61 238.115 160.121 247.607 167.237 254.641C174.353 261.676 183.884 265.077 191.787 266.698C195.719 267.505 199.197 267.86 201.688 268.014C202.433 268.06 203.088 268.085 203.639 268.101C203.616 267.55 203.584 266.895 203.529 266.151C203.347 263.662 202.95 260.188 202.098 256.266C200.385 248.382 196.875 238.891 189.759 231.857C183.258 225.43 174.738 222.033 167.272 220.257C161.274 218.83 156.067 218.478 153.356 218.397ZM151.688 216.385C151.74 216.386 151.79 216.388 151.839 216.389L151.839 216.354L151.687 216.359L151.688 216.385Z" stroke="url(#paint23_linear_309_7809)" stroke-width="4"/>
</g>
</g>
<defs>
<filter id="filter0_ii_309_7809" x="-64" y="-0.798047" width="376.062" height="325.116" filterUnits="userSpaceOnUse" color-interpolation-filters="sRGB">
<feFlood flood-opacity="0" result="BackgroundImageFix"/>
<feBlend mode="normal" in="SourceGraphic" in2="BackgroundImageFix" result="shape"/>
<feColorMatrix in="SourceAlpha" type="matrix" values="0 0 0 0 0 0 0 0 0 0 0 0 0 0 0 0 0 0 127 0" result="hardAlpha"/>
<feOffset dy="-1"/>
<feGaussianBlur stdDeviation="0.4"/>
<feComposite in2="hardAlpha" operator="arithmetic" k2="-1" k3="1"/>
<feColorMatrix type="matrix" values="0 0 0 0 0.984314 0 0 0 0 0.521569 0 0 0 0 0.00392157 0 0 0 1 0"/>
<feBlend mode="normal" in2="shape" result="effect1_innerShadow_309_7809"/>
<feColorMatrix in="SourceAlpha" type="matrix" values="0 0 0 0 0 0 0 0 0 0 0 0 0 0 0 0 0 0 127 0" result="hardAlpha"/>
<feOffset dy="1"/>
<feComposite in2="hardAlpha" operator="arithmetic" k2="-1" k3="1"/>
<feColorMatrix type="matrix" values="0 0 0 0 1 0 0 0 0 1 0 0 0 0 1 0 0 0 1 0"/>
<feBlend mode="normal" in2="effect1_innerShadow_309_7809" result="effect2_innerShadow_309_7809"/>
</filter>
<filter id="filter1_ii_309_7809" x="-64" y="-0.798047" width="376.062" height="325.116" filterUnits="userSpaceOnUse" color-interpolation-filters="sRGB">
<feFlood flood-opacity="0" result="BackgroundImageFix"/>
<feBlend mode="normal" in="SourceGraphic" in2="BackgroundImageFix" result="shape"/>
<feColorMatrix in="SourceAlpha" type="matrix" values="0 0 0 0 0 0 0 0 0 0 0 0 0 0 0 0 0 0 127 0" result="hardAlpha"/>
<feOffset dy="-1"/>
<feGaussianBlur stdDeviation="0.4"/>
<feComposite in2="hardAlpha" operator="arithmetic" k2="-1" k3="1"/>
<feColorMatrix type="matrix" values="0 0 0 0 0.984314 0 0 0 0 0.521569 0 0 0 0 0.00392157 0 0 0 1 0"/>
<feBlend mode="normal" in2="shape" result="effect1_innerShadow_309_7809"/>
<feColorMatrix in="SourceAlpha" type="matrix" values="0 0 0 0 0 0 0 0 0 0 0 0 0 0 0 0 0 0 127 0" result="hardAlpha"/>
<feOffset dy="1"/>
<feComposite in2="hardAlpha" operator="arithmetic" k2="-1" k3="1"/>
<feColorMatrix type="matrix" values="0 0 0 0 1 0 0 0 0 1 0 0 0 0 1 0 0 0 1 0"/>
<feBlend mode="normal" in2="effect1_innerShadow_309_7809" result="effect2_innerShadow_309_7809"/>
</filter>
<linearGradient id="paint0_linear_309_7809" x1="178.031" y1="0.1875" x2="178.031" y2="108.312" gradientUnits="userSpaceOnUse">
<stop stop-color="#FCF0D6"/>
<stop offset="1" stop-color="#FFC446"/>
</linearGradient>
<linearGradient id="paint1_linear_309_7809" x1="230.592" y1="0.156256" x2="231.217" y2="108.279" gradientUnits="userSpaceOnUse">
<stop stop-color="#FCF0D6"/>
<stop offset="1" stop-color="#FFC446"/>
</linearGradient>
<linearGradient id="paint2_linear_309_7809" x1="71.0312" y1="108.188" x2="71.0312" y2="216.312" gradientUnits="userSpaceOnUse">
<stop stop-color="#FCF0D6"/>
<stop offset="1" stop-color="#FFC446"/>
</linearGradient>
<linearGradient id="paint3_linear_309_7809" x1="123.592" y1="108.156" x2="124.217" y2="216.279" gradientUnits="userSpaceOnUse">
<stop stop-color="#FCF0D6"/>
<stop offset="1" stop-color="#FFC446"/>
</linearGradient>
<linearGradient id="paint4_linear_309_7809" x1="71.029" y1="216.193" x2="71.029" y2="324.318" gradientUnits="userSpaceOnUse">
<stop stop-color="#FCF0D6"/>
<stop offset="1" stop-color="#FFC446"/>
</linearGradient>
<linearGradient id="paint5_linear_309_7809" x1="17.0296" y1="108" x2="17.0296" y2="216.125" gradientUnits="userSpaceOnUse">
<stop stop-color="#FCF0D6"/>
<stop offset="1" stop-color="#FFC446"/>
</linearGradient>
<linearGradient id="paint6_linear_309_7809" x1="285.031" y1="54" x2="285.031" y2="162.125" gradientUnits="userSpaceOnUse">
<stop stop-color="#FCF0D6"/>
<stop offset="1" stop-color="#FFC446"/>
</linearGradient>
<linearGradient id="paint7_linear_309_7809" x1="178.029" y1="162.157" x2="178.654" y2="270.28" gradientUnits="userSpaceOnUse">
<stop stop-color="#FCF0D6"/>
<stop offset="1" stop-color="#FFC446"/>
</linearGradient>
<linearGradient id="paint8_linear_309_7809" x1="178.031" y1="0.1875" x2="178.031" y2="108.312" gradientUnits="userSpaceOnUse">
<stop stop-color="#FFC446"/>
<stop offset="1" stop-color="#FCF0D6"/>
</linearGradient>
<linearGradient id="paint9_linear_309_7809" x1="230.592" y1="0.156256" x2="231.217" y2="108.279" gradientUnits="userSpaceOnUse">
<stop stop-color="#FFC446"/>
<stop offset="1" stop-color="#FCF0D6"/>
</linearGradient>
<linearGradient id="paint10_linear_309_7809" x1="71.0312" y1="108.188" x2="71.0312" y2="216.312" gradientUnits="userSpaceOnUse">
<stop stop-color="#FFC446"/>
<stop offset="1" stop-color="#FCF0D6"/>
</linearGradient>
<linearGradient id="paint11_linear_309_7809" x1="123.592" y1="108.156" x2="124.217" y2="216.279" gradientUnits="userSpaceOnUse">
<stop stop-color="#FFC446"/>
<stop offset="1" stop-color="#FCF0D6"/>
</linearGradient>
<linearGradient id="paint12_linear_309_7809" x1="71.029" y1="216.193" x2="71.029" y2="324.318" gradientUnits="userSpaceOnUse">
<stop stop-color="#FFC446"/>
<stop offset="1" stop-color="#FCF0D6"/>
</linearGradient>
<linearGradient id="paint13_linear_309_7809" x1="17.0296" y1="108" x2="17.0296" y2="216.125" gradientUnits="userSpaceOnUse">
<stop stop-color="#FFC446"/>
<stop offset="1" stop-color="#FCF0D6"/>
</linearGradient>
<linearGradient id="paint14_linear_309_7809" x1="285.031" y1="54" x2="285.031" y2="162.125" gradientUnits="userSpaceOnUse">
<stop stop-color="#FFC446"/>
<stop offset="1" stop-color="#FCF0D6"/>
</linearGradient>
<linearGradient id="paint15_linear_309_7809" x1="178.029" y1="162.157" x2="178.654" y2="270.28" gradientUnits="userSpaceOnUse">
<stop stop-color="#FFC446"/>
<stop offset="1" stop-color="#FCF0D6"/>
</linearGradient>
<linearGradient id="paint16_linear_309_7809" x1="178.031" y1="0.1875" x2="178.031" y2="108.312" gradientUnits="userSpaceOnUse">
<stop stop-color="#FFC446"/>
<stop offset="1" stop-color="#FCF0D6"/>
</linearGradient>
<linearGradient id="paint17_linear_309_7809" x1="230.592" y1="0.156256" x2="231.217" y2="108.279" gradientUnits="userSpaceOnUse">
<stop stop-color="#FFC446"/>
<stop offset="1" stop-color="#FCF0D6"/>
</linearGradient>
<linearGradient id="paint18_linear_309_7809" x1="71.0312" y1="108.188" x2="71.0312" y2="216.312" gradientUnits="userSpaceOnUse">
<stop stop-color="#FFC446"/>
<stop offset="1" stop-color="#FCF0D6"/>
</linearGradient>
<linearGradient id="paint19_linear_309_7809" x1="123.592" y1="108.156" x2="124.217" y2="216.279" gradientUnits="userSpaceOnUse">
<stop stop-color="#FFC446"/>
<stop offset="1" stop-color="#FCF0D6"/>
</linearGradient>
<linearGradient id="paint20_linear_309_7809" x1="71.029" y1="216.193" x2="71.029" y2="324.318" gradientUnits="userSpaceOnUse">
<stop stop-color="#FFC446"/>
<stop offset="1" stop-color="#FCF0D6"/>
</linearGradient>
<linearGradient id="paint21_linear_309_7809" x1="17.0296" y1="108" x2="17.0296" y2="216.125" gradientUnits="userSpaceOnUse">
<stop stop-color="#FFC446"/>
<stop offset="1" stop-color="#FCF0D6"/>
</linearGradient>
<linearGradient id="paint22_linear_309_7809" x1="285.031" y1="54" x2="285.031" y2="162.125" gradientUnits="userSpaceOnUse">
<stop stop-color="#FFC446"/>
<stop offset="1" stop-color="#FCF0D6"/>
</linearGradient>
<linearGradient id="paint23_linear_309_7809" x1="178.029" y1="162.157" x2="178.654" y2="270.28" gradientUnits="userSpaceOnUse">
<stop stop-color="#FFC446"/>
<stop offset="1" stop-color="#FCF0D6"/>
</linearGradient>
</defs>
</svg>
