<svg xmlns="http://www.w3.org/2000/svg" width="448" height="448" fill="none" viewBox="0 0 448 448"><g filter="url(#a)"><path fill="url(#b)" d="m73.13 312.14-8.28-18.98-8.26-18.92 22.78-20.53c-1-5.31-1.79-10.5-2.39-15.8L49.2 224.95l4.6-40.98 30.06-6.48c1.63-5.03 3.6-9.91 5.83-14.82l-17.7-25.16 24.51-33.22 29.2 9.52c3.89-3.57 8.13-6.95 12.59-10.06l-2.85-30.56 37.81-16.54 20.56 22.83c.43-.1 11.04-1.9 15.85-2.35l12.88-27.86 41.04 4.53L270 83.93c5.08 1.67 10 3.58 14.73 5.76l25.31-17.7 33.22 24.51-9.54 29.25c3.55 3.99 6.9 8.15 9.96 12.47l30.63-2.74 15.67 35.86-21.91 22.52a147 147 0 0 1 2.3 15.84l27.98 12.82-4.63 41.14-30.16 6.42c-1.6 5.01-3.52 9.94-5.77 14.81L375.53 310l-24.55 33.24-29.17-9.47c-4.04 3.61-8.11 6.93-12.51 9.99l2.77 30.63-18.93 8.22-18.9 8.29-20.52-22.95c-5.28 1.22-10.62 2.03-15.88 2.48l-12.93 27.92-41.05-4.63-6.41-30.06a138 138 0 0 1-14.83-5.82l-25.12 17.77-33.28-24.56 9.39-29.25c-3.39-3.95-6.75-8.12-9.95-12.49zm59.57-48.39c21.91 50.15 80.46 73.07 130.88 50.97 50.33-21.92 73.16-80.53 51.14-130.64-21.87-50.25-80.36-73.37-130.62-51.43-50.41 22.1-73.31 80.65-51.4 131.1"/><g filter="url(#c)"><path stroke="url(#d)" stroke-linejoin="round" stroke-width="16.14" d="m73.13 312.14-8.28-18.98-8.26-18.92 22.78-20.53c-1-5.31-1.79-10.5-2.39-15.8L49.2 224.95l4.6-40.98 30.06-6.48c1.63-5.03 3.6-9.91 5.83-14.82l-17.7-25.16 24.51-33.22 29.2 9.52c3.89-3.57 8.13-6.95 12.59-10.06l-2.85-30.56 37.81-16.54 20.56 22.83c.43-.1 11.04-1.9 15.85-2.35l12.88-27.86 41.04 4.53L270 83.93c5.08 1.67 10 3.58 14.73 5.76l25.31-17.7 33.22 24.51-9.54 29.25c3.55 3.99 6.9 8.15 9.96 12.47l30.63-2.74 15.67 35.86-21.91 22.52a147 147 0 0 1 2.3 15.84l27.98 12.82-4.63 41.14-30.16 6.42c-1.6 5.01-3.52 9.94-5.77 14.81L375.53 310l-24.55 33.24-29.17-9.47c-4.04 3.61-8.11 6.93-12.51 9.99l2.77 30.63-18.93 8.22-18.9 8.29-20.52-22.95c-5.28 1.22-10.62 2.03-15.88 2.48l-12.93 27.92-41.05-4.63-6.41-30.06a138 138 0 0 1-14.83-5.82l-25.12 17.77-33.28-24.56 9.39-29.25c-3.39-3.95-6.75-8.12-9.95-12.49zm59.57-48.39c21.91 50.15 80.46 73.07 130.88 50.97 50.33-21.92 73.16-80.53 51.14-130.64-21.87-50.25-80.36-73.37-130.62-51.43-50.41 22.1-73.31 80.65-51.4 131.1Z"/></g></g><defs><linearGradient id="b" x1="161.05" x2="286.5" y1="384.83" y2="62.72" gradientUnits="userSpaceOnUse"><stop stop-color="#fcf0d6"/><stop offset="1" stop-color="#ffc446"/></linearGradient><linearGradient id="d" x1="161.05" x2="286.5" y1="384.83" y2="62.72" gradientUnits="userSpaceOnUse"><stop stop-color="#fcf0d6"/><stop offset="1" stop-color="#ffc446"/></linearGradient><filter id="a" width="406.43" height="406.36" x="36.52" y="33.93" color-interpolation-filters="sRGB" filterUnits="userSpaceOnUse"><feFlood flood-opacity="0" result="BackgroundImageFix"/><feColorMatrix in="SourceAlpha" result="hardAlpha" values="0 0 0 0 0 0 0 0 0 0 0 0 0 0 0 0 0 0 127 0"/><feOffset dx="15.96" dy="13.3"/><feGaussianBlur stdDeviation="10.29"/><feComposite in2="hardAlpha" operator="out"/><feColorMatrix values="0 0 0 0 0 0 0 0 0 0 0 0 0 0 0 0 0 0 0.25 0"/><feBlend in2="BackgroundImageFix" result="effect1_dropShadow_445_2663"/><feBlend in="SourceGraphic" in2="effect1_dropShadow_445_2663" result="shape"/></filter><filter id="c" width="365.29" height="365.22" x="41.13" y="41.2" color-interpolation-filters="sRGB" filterUnits="userSpaceOnUse"><feFlood flood-opacity="0" result="BackgroundImageFix"/><feBlend in="SourceGraphic" in2="BackgroundImageFix" result="shape"/><feColorMatrix in="SourceAlpha" result="hardAlpha" values="0 0 0 0 0 0 0 0 0 0 0 0 0 0 0 0 0 0 127 0"/><feOffset dx="1.77" dy="-9.75"/><feComposite in2="hardAlpha" k2="-1" k3="1" operator="arithmetic"/><feColorMatrix values="0 0 0 0 0 0 0 0 0 0 0 0 0 0 0 0 0 0 0.25 0"/><feBlend in2="shape" mode="overlay" result="effect1_innerShadow_445_2663"/><feColorMatrix in="SourceAlpha" result="hardAlpha" values="0 0 0 0 0 0 0 0 0 0 0 0 0 0 0 0 0 0 127 0"/><feOffset dx="-1.77" dy="9.75"/><feComposite in2="hardAlpha" k2="-1" k3="1" operator="arithmetic"/><feColorMatrix values="0 0 0 0 1 0 0 0 0 1 0 0 0 0 1 0 0 0 0.25 0"/><feBlend in2="effect1_innerShadow_445_2663" mode="overlay" result="effect2_innerShadow_445_2663"/></filter></defs></svg>