<svg xmlns="http://www.w3.org/2000/svg" width="907" height="360" fill="none" viewBox="0 0 907 360"><path fill="url(#a)" d="M-173.81 283.52c-17.91 9.16-36.45 18.64-57.44 20.65v.02c-11.62 1.11-24.06-1.28-34.31-7.26a63.6 63.6 0 0 0 9.69 14.05c18.86 20.78 47.49 15.76 75.2 10.89l.14-.02c3.46-.6 6.82-1.19 10.14-1.73 47.72-7.71 95.02 3.53 129.75 30.8 14.29 11.21 26.94 24.41 39.19 37.19l.09.1c17.45 18.22 33.94 35.42 54.96 47.76 60.15 35.32 134.71 12.2 191.45-13.23 75.69-33.92 155.41-23.08 272.81 30.55 19.08 8.71 38.32 18.19 56.94 27.36l.66.32c41.25 20.33 94.06 44.52 140.84 53.3 48.93 9.18 90.28 3.84 137.67-5.71-127.08 6.95-188.94-46.91-202.08-55.58-26.63-17.55-54.17-35.7-82.29-51.25-25.06-13.87-51.36-25.12-78.11-33.42-45.55-14.13-93.84-20.14-143.56-17.89-23.58 1.06-48.33 4.25-73.51 9.43-5.6 1.16-11.11 2.4-16.58 3.64l-.47.1c-27.15 6.13-52.88 11.9-81.7 6.17-25.2-5.03-48.04-18.15-67.92-38.99-7.68-8.05-14.09-17.51-20.3-26.67l-.12-.17c-8.53-12.61-16.61-24.5-27.52-32.9-12.97-9.97-34.1-13.5-48.11-8.03-8.76 3.43-14.04 9.97-15.65 19.41-.77 4.54.51 9.44 3.36 12.76 1.56 1.79 4.3 3.95 8.51 3.87 1.7-.05 3.6-.56 3.7-1.35.4-3.19 3.3-5.48 6.51-5.08 3.25.43 5.48 3.31 5.08 6.52-.85 6.88-6.77 11.44-15.09 11.58-6.81.11-13.07-2.71-17.56-7.95-4.06-4.76-6.28-10.99-6.36-17.36-.18-.2-.38-.33-.51-.54-13.78-21.95-26.51-34.11-41.28-39.39-22.79-8.18-50.11-7.35-81.16 2.46-11.87 3.73-23.06 9.45-34.89 15.5l-.14.07z"/><path fill="url(#b)" d="M-624.28 463.47c-30.39 26.73-61.85 54.38-101.76 68.7v.04c-22.1 7.91-47.53 9.41-70.47 2.82 7.36 8.42 15.74 15.9 25.84 22.6 47.07 31.18 100.39 7.21 152.01-15.99l.25-.12c6.44-2.87 12.71-5.7 18.91-8.39 89.21-38.64 187-40.15 268.19-4.2 33.4 14.79 64.6 34.26 94.8 53.11l.24.15c43.04 26.87 83.7 52.24 130.78 65.91 134.74 39.07 241.69-33.46 339.71-111.11 130.76-103.6 406.13 49.13 602.81-5.11-95.28 15.3-140.95 25.2-328.74-67.44-53.07-26.19-105.19-41.36-151.46-47.92-19.65-2.79-73.16 3.58-89.84 9.46-47.88 16.9-63.81 29.63-96.5 37.13-37.29 8.55-100.76 13.9-183.74-10.01-18.32-5.28-35.73-13.56-50.65-25.44-10.16-8.08-19.9-16.74-29.48-25.24l-.31-.28c-22.88-20.35-46.02-28.71-71.46-39.68-30.21-13.02-73.15-9.44-97.75 8.17-15.38 11.02-22.43 26.37-20.9 45.58.75 9.23 5.66 18.15 12.87 23.22 3.92 2.72 10.32 5.56 18.5 3.31 3.3-.92 6.73-2.85 6.54-4.45-.8-6.42 3.74-12.32 10.19-13.12 6.54-.77 12.31 3.73 13.11 10.18 1.76 13.85-7.51 25.66-23.67 30.06-13.23 3.59-26.82 1.18-38.17-6.8-10.27-7.27-17.69-18.33-21-30.71-.44-.3-.9-.44-1.26-.79-37.72-35.97-68.56-53.37-99.97-56.36-48.47-4.67-101.33 10.48-156.99 44.97-21.29 13.15-40.29 29.86-60.36 47.51l-.22.19z"/><path fill="url(#c)" d="M-624.28 463.47c-30.39 26.73-61.85 54.38-101.76 68.7v.04c-22.1 7.91-47.53 9.41-70.47 2.82 7.36 8.42 15.74 15.9 25.84 22.6 47.07 31.18 100.39 7.21 152.01-15.99l.25-.12c6.44-2.87 12.71-5.7 18.91-8.39 89.21-38.64 187-40.15 268.19-4.2 33.4 14.79 64.6 34.26 94.8 53.11l.24.15c43.04 26.87 83.7 52.24 130.78 65.91 134.74 39.07 241.69-33.46 339.71-111.11 130.76-103.6 406.13 49.13 602.81-5.11-95.28 15.3-140.95 25.2-328.74-67.44-53.07-26.19-105.19-41.36-151.46-47.92-19.65-2.79-73.16 3.58-89.84 9.46-47.88 16.9-63.81 29.63-96.5 37.13-37.29 8.55-100.76 13.9-183.74-10.01-18.32-5.28-35.73-13.56-50.65-25.44-10.16-8.08-19.9-16.74-29.48-25.24l-.31-.28c-22.88-20.35-46.02-28.71-71.46-39.68-30.21-13.02-73.15-9.44-97.75 8.17-15.38 11.02-22.43 26.37-20.9 45.58.75 9.23 5.66 18.15 12.87 23.22 3.92 2.72 10.32 5.56 18.5 3.31 3.3-.92 6.73-2.85 6.54-4.45-.8-6.42 3.74-12.32 10.19-13.12 6.54-.77 12.31 3.73 13.11 10.18 1.76 13.85-7.51 25.66-23.67 30.06-13.23 3.59-26.82 1.18-38.17-6.8-10.27-7.27-17.69-18.33-21-30.71-.44-.3-.9-.44-1.26-.79-37.72-35.97-68.56-53.37-99.97-56.36-48.47-4.67-101.33 10.48-156.99 44.97-21.29 13.15-40.29 29.86-60.36 47.51l-.22.19z"/><path fill="url(#d)" d="M748.88 495.48c29.63 13.81 60.07 23.56 90.46 29.14a339 339 0 0 0 25.25 3.66c-9.22 1.71-18.17 3.1-26.82 3.62-29.66 1.83-56.71-4.49-95.62-19.36-14.65-6.37-29.41-14.23-43.85-23.36-13.31-8.42-26.85-17.35-39.94-25.98-26.81-17.68-54.53-35.96-83.05-51.74-25.77-14.24-52.8-25.81-80.31-34.36-46.82-14.54-96.46-20.73-147.55-18.39-24.22 1.11-49.57 4.36-75.35 9.65-5.83 1.21-11.56 2.5-17.28 3.79-25.9 5.86-50.51 11.37-76.83 6.12-14.86-2.96-28.84-9.15-41.82-18.33-.26-.3-.55-.56-.86-.8-18.69-14.08-23.17-50.89-17.93-69.1 3.76-13.06 9.36-24.09 16.66-32.76 18.33-21.82 50.51-31.46 78.18-23.43 24.84 7.2 43.18 34.37 40.03 59.36-1.8 14.34-8.57 27.06-18.1 34.03-7.99 5.84-17.82 7.76-29.22 5.66-.75-.13-1.49-.1-2.18.02-9.72-5.11-17.59-12.57-18.97-21.98-1.04-6.88 2.93-15.98 8.8-20.29 2.13-1.58 8.36-2.73 12.65-1.13 2.44.93 2.74 2.24 2.87 2.79a5.83 5.83 0 0 0 6.96 4.43c3.14-.69 5.14-3.82 4.44-6.96-1.16-5.18-4.76-9.15-10.15-11.18-7.43-2.79-17.82-1.65-23.65 2.63-9.34 6.83-15.13 20.34-13.47 31.45 3.87 26.05 37.45 39.18 58.95 39.82 17.21.53 33.61-4.46 49.49-9.28 6.39-1.94 12.42-3.78 18.5-5.27 29.55-7.26 52.33-11.29 73.83-13.11 57.69-4.85 112.6 3 167.87 24.05 41.81 15.89 74.26 44.49 108.62 74.76 30.21 26.62 61.46 54.14 99.39 71.81z"/><path fill="url(#e)" d="M748.88 495.48c29.63 13.81 60.07 23.56 90.46 29.14a339 339 0 0 0 25.25 3.66c-9.22 1.71-18.17 3.1-26.82 3.62-29.66 1.83-56.71-4.49-95.62-19.36-14.65-6.37-29.41-14.23-43.85-23.36-13.31-8.42-26.85-17.35-39.94-25.98-26.81-17.68-54.53-35.96-83.05-51.74-25.77-14.24-52.8-25.81-80.31-34.36-46.82-14.54-96.46-20.73-147.55-18.39-24.22 1.11-49.57 4.36-75.35 9.65-5.83 1.21-11.56 2.5-17.28 3.79-25.9 5.86-50.51 11.37-76.83 6.12-14.86-2.96-28.84-9.15-41.82-18.33-.26-.3-.55-.56-.86-.8-18.69-14.08-23.17-50.89-17.93-69.1 3.76-13.06 9.36-24.09 16.66-32.76 18.33-21.82 50.51-31.46 78.18-23.43 24.84 7.2 43.18 34.37 40.03 59.36-1.8 14.34-8.57 27.06-18.1 34.03-7.99 5.84-17.82 7.76-29.22 5.66-.75-.13-1.49-.1-2.18.02-9.72-5.11-17.59-12.57-18.97-21.98-1.04-6.88 2.93-15.98 8.8-20.29 2.13-1.58 8.36-2.73 12.65-1.13 2.44.93 2.74 2.24 2.87 2.79a5.83 5.83 0 0 0 6.96 4.43c3.14-.69 5.14-3.82 4.44-6.96-1.16-5.18-4.76-9.15-10.15-11.18-7.43-2.79-17.82-1.65-23.65 2.63-9.34 6.83-15.13 20.34-13.47 31.45 3.87 26.05 37.45 39.18 58.95 39.82 17.21.53 33.61-4.46 49.49-9.28 6.39-1.94 12.42-3.78 18.5-5.27 29.55-7.26 52.33-11.29 73.83-13.11 57.69-4.85 112.6 3 167.87 24.05 41.81 15.89 74.26 44.49 108.62 74.76 30.21 26.62 61.46 54.14 99.39 71.81z"/><defs><linearGradient id="a" x1="865.48" x2="-267.08" y1="513.26" y2="305.19" gradientUnits="userSpaceOnUse"><stop stop-color="#fcf0d6"/><stop offset="1" stop-color="#ffc446"/></linearGradient><linearGradient id="b" x1="831.08" x2="-795.35" y1="443.28" y2="552.41" gradientUnits="userSpaceOnUse"><stop stop-color="#fcf0d6"/><stop offset="1" stop-color="#ffc446"/></linearGradient><linearGradient id="c" x1="831.08" x2="-795.35" y1="443.28" y2="552.41" gradientUnits="userSpaceOnUse"><stop stop-color="#3c3024"/><stop offset="1" stop-color="#bd7b49"/></linearGradient><linearGradient id="d" x1="878.95" x2="113.6" y1="450.12" y2="309.51" gradientUnits="userSpaceOnUse"><stop stop-color="#fcf0d6"/><stop offset="1" stop-color="#ffc446"/></linearGradient><linearGradient id="e" x1="878.95" x2="113.6" y1="450.12" y2="309.51" gradientUnits="userSpaceOnUse"><stop stop-color="#3c3024"/><stop offset="1" stop-color="#bd7b49"/></linearGradient></defs></svg>