<svg width="1258" height="397" viewBox="0 0 1258 397" fill="none" xmlns="http://www.w3.org/2000/svg">
<path fill-rule="evenodd" clip-rule="evenodd" d="M308.438 771.992L368.134 755.904L191.361 475.612C191.361 475.612 172.688 439.019 153.928 439.07C137.865 439.113 123.571 450.909 122.352 467.131L158.154 521.686L129.687 500.146C165.829 601.762 308.438 771.992 308.438 771.992Z" fill="url(#paint0_linear_309_9042)"/>
<path fill-rule="evenodd" clip-rule="evenodd" d="M308.438 771.992L368.134 755.904L191.361 475.612C191.361 475.612 172.688 439.019 153.928 439.07C137.865 439.113 123.571 450.909 122.352 467.131L158.154 521.686L129.687 500.146C165.829 601.762 308.438 771.992 308.438 771.992Z" fill="url(#paint1_linear_309_9042)"/>
<g filter="url(#filter1_d_309_9042)">
<path fill-rule="evenodd" clip-rule="evenodd" d="M307.261 761.034L361.903 755.782L224.671 434.082C224.671 434.082 210.699 392.916 193.902 389.419C179.407 386.402 165.627 396 163.482 412.693L172.709 446.004C173.808 449.971 173.899 454.15 172.974 458.162L171.666 463.831C202.858 577.442 307.261 761.034 307.261 761.034Z" fill="url(#paint2_linear_309_9042)"/>
<path fill-rule="evenodd" clip-rule="evenodd" d="M307.261 761.034L361.903 755.782L224.671 434.082C224.671 434.082 210.699 392.916 193.902 389.419C179.407 386.402 165.627 396 163.482 412.693L172.709 446.004C173.808 449.971 173.899 454.15 172.974 458.162L171.666 463.831C202.858 577.442 307.261 761.034 307.261 761.034Z" fill="url(#paint3_linear_309_9042)"/>
</g>
<g filter="url(#filter2_d_309_9042)">
<path d="M385.609 797.645L419.997 772.213L261.341 383.669C261.341 383.669 247.563 342.432 229.939 339.06C212.548 335.732 195.762 348.967 196.981 370.335C202.775 471.883 385.609 797.645 385.609 797.645Z" fill="url(#paint4_linear_309_9042)"/>
<path d="M385.609 797.645L419.997 772.213L261.341 383.669C261.341 383.669 247.563 342.432 229.939 339.06C212.548 335.732 195.762 348.967 196.981 370.335C202.775 471.883 385.609 797.645 385.609 797.645Z" fill="url(#paint5_linear_309_9042)"/>
</g>
<g filter="url(#filter3_d_309_9042)">
<path fill-rule="evenodd" clip-rule="evenodd" d="M411.538 769.776L458.9 718.688L312.899 341.605C312.899 341.605 301.186 299.72 281.194 295.933C272.233 294.235 263.069 295.987 255.664 300.427L254.207 316.299C253.737 321.418 251.017 326.063 246.782 328.976L240.004 333.641C243.78 443.673 411.538 769.776 411.538 769.776Z" fill="url(#paint6_linear_309_9042)"/>
<path fill-rule="evenodd" clip-rule="evenodd" d="M411.538 769.776L458.9 718.688L312.899 341.605C312.899 341.605 301.186 299.72 281.194 295.933C272.233 294.235 263.069 295.987 255.664 300.427L254.207 316.299C253.737 321.418 251.017 326.063 246.782 328.976L240.004 333.641C243.78 443.673 411.538 769.776 411.538 769.776Z" fill="url(#paint7_linear_309_9042)"/>
</g>
<g filter="url(#filter4_d_309_9042)">
<path d="M360.448 289.086C400.55 392.495 475.741 662.527 475.741 662.527L443.382 707.817C443.382 707.817 316.4 402.283 300.972 326.765C294.025 292.758 296.15 248.504 324.014 249.747C344.465 250.659 352.661 269.008 360.448 289.086Z" fill="url(#paint8_linear_309_9042)"/>
<path d="M360.448 289.086C400.55 392.495 475.741 662.527 475.741 662.527L443.382 707.817C443.382 707.817 316.4 402.283 300.972 326.765C294.025 292.758 296.15 248.504 324.014 249.747C344.465 250.659 352.661 269.008 360.448 289.086Z" fill="url(#paint9_linear_309_9042)"/>
</g>
<path d="M535.695 818.859C535.415 819.856 539.032 823.77 536.626 824.935C532.007 827.193 528.264 824.536 523.772 823.371C501.684 778.9 459.767 729.89 438.602 655.761C395.512 504.846 319.954 379.318 368.153 385.452C381.209 387.113 442.499 633.932 480.373 700.939C487.823 714.121 498.78 742.403 503.886 754.156C511.106 770.774 522.403 788.371 530.474 804.921C532.654 809.379 537.542 812.749 535.743 818.841L535.695 818.859Z" fill="url(#paint10_linear_309_9042)"/>
<path d="M535.695 818.859C535.415 819.856 539.032 823.77 536.626 824.935C532.007 827.193 528.264 824.536 523.772 823.371C501.684 778.9 459.767 729.89 438.602 655.761C395.512 504.846 319.954 379.318 368.153 385.452C381.209 387.113 442.499 633.932 480.373 700.939C487.823 714.121 498.78 742.403 503.886 754.156C511.106 770.774 522.403 788.371 530.474 804.921C532.654 809.379 537.542 812.749 535.743 818.841L535.695 818.859Z" fill="#BE8B26"/>
<g filter="url(#filter5_d_309_9042)">
<path fill-rule="evenodd" clip-rule="evenodd" d="M500.395 664.186C500.395 664.186 443.83 364.83 413.857 258.289C408.037 237.602 401.8 218.513 384.433 214.143C365.883 209.476 359.672 234.465 360.044 261.847L391.501 271.857L362.035 273.157C362.258 279.456 360.916 278.374 361.731 284.463C371.826 359.904 478.115 710.114 478.115 710.114L500.395 664.186Z" fill="url(#paint11_linear_309_9042)"/>
<path fill-rule="evenodd" clip-rule="evenodd" d="M500.395 664.186C500.395 664.186 443.83 364.83 413.857 258.289C408.037 237.602 401.8 218.513 384.433 214.143C365.883 209.476 359.672 234.465 360.044 261.847L391.501 271.857L362.035 273.157C362.258 279.456 360.916 278.374 361.731 284.463C371.826 359.904 478.115 710.114 478.115 710.114L500.395 664.186Z" fill="url(#paint12_linear_309_9042)"/>
</g>
<path d="M560.624 762.656C560.133 763.687 564.029 767.66 560.889 768.897C554.855 771.295 550.62 768.618 545.243 767.491C524.447 722.057 473.329 673.327 464.491 596.286C453.458 500.107 375.062 325.524 416.598 369.298C431.002 384.478 472.485 573.751 509.491 642.136C516.771 655.589 526.18 684.531 530.772 696.549C537.267 713.543 548.653 731.48 556.208 748.391C558.251 752.946 563.796 756.337 560.686 762.637L560.624 762.656Z" fill="url(#paint13_linear_309_9042)"/>
<g filter="url(#filter6_d_309_9042)">
<path d="M480.023 238.163C501.138 332.349 538.071 663.515 538.071 663.515L499.784 659.886C499.784 659.886 430.716 350.67 426.254 269.942C424.244 233.59 437.791 169.55 461.636 194.221C472.995 205.974 475.923 219.875 480.023 238.163Z" fill="url(#paint14_linear_309_9042)"/>
<path d="M480.023 238.163C501.138 332.349 538.071 663.515 538.071 663.515L499.784 659.886C499.784 659.886 430.716 350.67 426.254 269.942C424.244 233.59 437.791 169.55 461.636 194.221C472.995 205.974 475.923 219.875 480.023 238.163Z" fill="url(#paint15_linear_309_9042)"/>
</g>
<path d="M565.054 752.691C564.628 753.617 567.358 758.166 564.921 758.843C560.236 760.164 557.18 756.826 553.179 754.809C539.897 706.817 509.802 666.635 500.455 588.412C488.097 484.996 430.753 337.949 471.056 317.355C485.265 310.095 493.693 547.653 532.862 626.069C539.643 639.644 543.206 670.39 546.033 682.931C550.032 700.663 557.675 720.15 562.479 737.981C563.779 742.786 567.786 747.047 565.101 752.683L565.054 752.691Z" fill="url(#paint16_linear_309_9042)"/>
<g filter="url(#filter7_d_309_9042)">
<path fill-rule="evenodd" clip-rule="evenodd" d="M558.783 664.099C558.783 664.099 587.261 334.346 545.16 216.792C545.017 216.391 545.095 215.944 545.062 215.523C543.541 195.787 542.376 180.684 532.909 166.403C527.24 157.85 521.256 157.364 515.551 161.944L508.869 187.128C507.885 190.834 506.053 194.261 503.517 197.138L493.179 208.865C490.251 220.158 488.222 231.744 487.474 241.691C480.891 329.218 521.288 653.609 521.288 653.609L558.783 664.099Z" fill="url(#paint17_linear_309_9042)"/>
<path fill-rule="evenodd" clip-rule="evenodd" d="M558.783 664.099C558.783 664.099 587.261 334.346 545.16 216.792C545.017 216.391 545.095 215.944 545.062 215.523C543.541 195.787 542.376 180.684 532.909 166.403C527.24 157.85 521.256 157.364 515.551 161.944L508.869 187.128C507.885 190.834 506.053 194.261 503.517 197.138L493.179 208.865C490.251 220.158 488.222 231.744 487.474 241.691C480.891 329.218 521.288 653.609 521.288 653.609L558.783 664.099Z" fill="url(#paint18_linear_309_9042)"/>
</g>
<path fill-rule="evenodd" clip-rule="evenodd" d="M572.227 786.624C572.089 785.736 571.971 784.976 572.185 784.686L572.24 784.685C575.043 780.997 573.974 777.497 572.906 774.001C572.475 772.589 572.044 771.178 571.868 769.756C570.907 761.901 569.423 753.669 567.932 745.399C565.94 734.353 563.937 723.241 563.152 712.873C562.182 700.05 557.424 667.798 554.615 652.846C546.395 609.091 547.643 538.216 548.626 482.399C549.35 441.262 542.923 314.317 539.463 306.424C531.804 288.951 526.59 297.332 523.267 319.197L529.826 349.231C530.334 351.558 527.581 353.188 525.785 351.622L520.423 346.949C516.898 398.203 525.37 570.261 529.021 612.637C533.25 661.727 540.947 696.621 547.773 727.566C552.157 747.442 556.182 765.689 558.698 785.022C559.725 785.674 560.67 786.4 561.598 787.111C564.351 789.224 566.938 791.21 570.981 790.751C572.835 790.548 572.494 788.345 572.227 786.624Z" fill="url(#paint19_linear_309_9042)"/>
<g filter="url(#filter8_d_309_9042)">
<path d="M535.751 656.758L559.526 664.331C559.526 664.331 682.652 249.019 646.112 142.524C628.379 90.8423 576.943 140.392 566.453 191.54C556.75 238.853 535.751 656.758 535.751 656.758Z" fill="url(#paint20_linear_309_9042)"/>
<path d="M535.751 656.758L559.526 664.331C559.526 664.331 682.652 249.019 646.112 142.524C628.379 90.8423 576.943 140.392 566.453 191.54C556.75 238.853 535.751 656.758 535.751 656.758Z" fill="url(#paint21_linear_309_9042)"/>
</g>
<path fill-rule="evenodd" clip-rule="evenodd" d="M571.836 770.408C571.81 769.508 571.788 768.738 572.07 768.484L572.131 768.491C575.811 765.282 575.118 761.651 574.425 758.024C574.146 756.559 573.866 755.095 573.875 753.66C573.933 745.736 573.459 737.357 572.983 728.939C572.347 717.696 571.707 706.385 572.327 696.002C573.095 683.162 572.423 650.499 571.435 635.263C568.544 590.674 594.386 435.644 603.567 380.565C610.334 339.971 615.755 307.449 613.014 299.095C608.543 285.464 605.966 281.336 601.832 283.905L603.512 347.162C603.592 350.19 599.204 350.68 598.614 347.709L589.931 303.988C573.533 351.82 550.103 565.937 547.62 617.777C544.256 687.991 544.32 708.063 544.437 744.813C544.455 750.389 544.474 756.35 544.483 762.928C548.681 766.128 563.688 774.055 569.841 774.297C571.951 774.386 571.887 772.153 571.836 770.408Z" fill="url(#paint22_linear_309_9042)"/>
<g filter="url(#filter9_d_309_9042)">
<path fill-rule="evenodd" clip-rule="evenodd" d="M539.95 664.616L595.073 672.83C673.224 326.723 748.787 121.777 781.389 68.9709C797.593 42.7254 763.242 65.6129 733.13 96.319C728.435 121.461 728.7 135.165 731.469 159.348L719.285 116.582C699.492 142.183 671.349 190.4 663.736 216.723C615.084 384.955 539.95 664.616 539.95 664.616Z" fill="url(#paint23_linear_309_9042)"/>
<path fill-rule="evenodd" clip-rule="evenodd" d="M539.95 664.616L595.073 672.83C673.224 326.723 748.787 121.777 781.389 68.9709C797.593 42.7254 763.242 65.6129 733.13 96.319C728.435 121.461 728.7 135.165 731.469 159.348L719.285 116.582C699.492 142.183 671.349 190.4 663.736 216.723C615.084 384.955 539.95 664.616 539.95 664.616Z" fill="url(#paint24_linear_309_9042)"/>
</g>
<path d="M590.881 742.673C589.809 743.245 591.258 748.786 587.508 748.002C580.292 746.512 557.219 730.285 552.686 726.25C559.033 676.576 570.966 641.462 585.931 561.811C600.003 486.909 647.29 276.254 662.88 361.944C666.956 384.346 606.853 539.742 602.808 617.799C602.012 633.155 603.062 658.012 600.506 670.629C596.895 688.469 597.454 709.912 594.914 728.294C594.236 733.25 597.616 739.26 590.952 742.692L590.881 742.673Z" fill="url(#paint25_linear_309_9042)"/>
<g filter="url(#filter10_d_309_9042)">
<path fill-rule="evenodd" clip-rule="evenodd" d="M646.244 695.09L646.278 694.956C718.037 413.581 772.674 199.342 925.207 57.5153C951.989 28.6752 901.111 43.7745 846.057 81.7697C825.766 108.1 816.928 123.415 811.999 153.24L808.615 111.084C789.687 127.948 772.356 147.108 759.943 167.614C654.621 341.595 585.93 666.364 585.93 666.364L646.244 695.09Z" fill="url(#paint26_linear_309_9042)"/>
<path fill-rule="evenodd" clip-rule="evenodd" d="M646.244 695.09L646.278 694.956C718.037 413.581 772.674 199.342 925.207 57.5153C951.989 28.6752 901.111 43.7745 846.057 81.7697C825.766 108.1 816.928 123.415 811.999 153.24L808.615 111.084C789.687 127.948 772.356 147.108 759.943 167.614C654.621 341.595 585.93 666.364 585.93 666.364L646.244 695.09Z" fill="url(#paint27_linear_309_9042)"/>
</g>
<path d="M593.357 743.183C592.215 743.691 592.542 749.801 589.086 748.581C582.431 746.253 580.894 740.982 577.311 736.185C592.987 683.358 598.502 631.008 623.444 548.027C672.211 385.777 686.506 400.75 728.136 346.153C746.887 321.561 653.612 518.462 634.68 602.068C630.955 618.515 621.388 653.287 616.498 666.609C609.586 685.447 605.993 708.582 600.007 728.112C598.401 733.378 600.494 740.185 593.422 743.211L593.357 743.183Z" fill="url(#paint28_linear_309_9042)"/>
<g filter="url(#filter11_d_309_9042)">
<path fill-rule="evenodd" clip-rule="evenodd" d="M928.654 242.314C930.811 240.142 930.914 240.058 931.161 239.857C931.329 239.719 931.564 239.528 932.556 238.589L933.645 237.549C939.647 231.782 947.945 225.272 955.827 219.087C960.773 215.206 965.556 211.453 969.505 208.093C1065.8 138.664 1043.68 122.999 993.785 137.611C980.085 157.037 958.177 173.859 917.923 203.431L977.097 142.167C944.31 153.508 906.164 172.489 882.496 192.178C766.714 288.496 636.563 517.043 602.043 727.264C600.69 734.484 612.932 728.88 625.218 723.255C637.463 717.65 649.751 712.025 648.663 719.058C648.663 719.058 745.911 426.39 928.654 242.314Z" fill="url(#paint29_linear_309_9042)"/>
<path fill-rule="evenodd" clip-rule="evenodd" d="M928.654 242.314C930.811 240.142 930.914 240.058 931.161 239.857C931.329 239.719 931.564 239.528 932.556 238.589L933.645 237.549C939.647 231.782 947.945 225.272 955.827 219.087C960.773 215.206 965.556 211.453 969.505 208.093C1065.8 138.664 1043.68 122.999 993.785 137.611C980.085 157.037 958.177 173.859 917.923 203.431L977.097 142.167C944.31 153.508 906.164 172.489 882.496 192.178C766.714 288.496 636.563 517.043 602.043 727.264C600.69 734.484 612.932 728.88 625.218 723.255C637.463 717.65 649.751 712.025 648.663 719.058C648.663 719.058 745.911 426.39 928.654 242.314Z" fill="url(#paint30_linear_309_9042)"/>
<path fill-rule="evenodd" clip-rule="evenodd" d="M928.654 242.314L932.556 238.589C931.564 239.528 931.329 239.719 931.161 239.857C930.914 240.058 930.811 240.142 928.654 242.314Z" fill="url(#paint31_linear_309_9042)"/>
<path fill-rule="evenodd" clip-rule="evenodd" d="M928.654 242.314L932.556 238.589C931.564 239.528 931.329 239.719 931.161 239.857C930.914 240.058 930.811 240.142 928.654 242.314Z" fill="url(#paint32_linear_309_9042)"/>
</g>
<path d="M616.972 748.215C615.695 748.527 615.503 754.783 611.884 752.928C604.914 749.378 603.726 743.757 600.288 738.25C621.903 687.457 638.122 637.72 666.809 555.607C694.427 476.553 813.192 286.046 806.612 355.725C795.436 380.824 701.98 531.002 674.112 612.437C668.63 628.457 655.214 662.023 648.753 674.666C639.619 692.542 633.683 715.37 625.486 734.114C623.285 739.169 624.936 746.449 617.039 748.255L616.972 748.215Z" fill="url(#paint33_linear_309_9042)"/>
<g filter="url(#filter12_d_309_9042)">
<path fill-rule="evenodd" clip-rule="evenodd" d="M1082.36 188.744C1081.19 167.627 1021.7 177.567 952.197 243.219C908.874 284.14 820.424 367.26 773.397 441.828C715.238 524.783 571.543 873.786 694.633 663.953C794.807 515.966 882.604 382.903 969.348 289.227L981.444 276.899C1011.71 249.771 1016.72 245.465 1028.59 235.603C1049.35 218.345 1082.64 193.741 1082.36 188.744Z" fill="url(#paint34_linear_309_9042)"/>
<path fill-rule="evenodd" clip-rule="evenodd" d="M1082.36 188.744C1081.19 167.627 1021.7 177.567 952.197 243.219C908.874 284.14 820.424 367.26 773.397 441.828C715.238 524.783 571.543 873.786 694.633 663.953C794.807 515.966 882.604 382.903 969.348 289.227L981.444 276.899C1011.71 249.771 1016.72 245.465 1028.59 235.603C1049.35 218.345 1082.64 193.741 1082.36 188.744Z" fill="url(#paint35_linear_309_9042)"/>
<path fill-rule="evenodd" clip-rule="evenodd" d="M1082.36 188.744C1081.19 167.627 1021.7 177.567 952.197 243.219C908.874 284.14 820.424 367.26 773.397 441.828C715.238 524.783 571.543 873.786 694.633 663.953C794.807 515.966 882.604 382.903 969.348 289.227L981.444 276.899C1011.71 249.771 1016.72 245.465 1028.59 235.603C1049.35 218.345 1082.64 193.741 1082.36 188.744Z" fill="url(#paint36_linear_309_9042)"/>
</g>
<path d="M635.369 739.361C634.06 739.48 632.947 745.639 629.641 743.271C623.271 738.731 622.926 732.995 620.34 727.041C649.215 679.996 672.598 633.198 713.092 556.219C731.094 521.996 816.862 445.83 815.655 416.894C828.758 369.892 888.285 341.381 865.755 388.255C850.997 411.43 751.51 537.075 711.926 613.504C704.139 628.539 685.915 659.758 677.659 671.308C665.987 687.64 656.745 709.342 645.872 726.67C642.948 731.345 643.507 738.789 635.429 739.41L635.369 739.361Z" fill="url(#paint37_linear_309_9042)"/>
<g filter="url(#filter13_d_309_9042)">
<path d="M946.234 406.744C849.376 542.548 658.478 714.707 653.034 717.351C653.034 717.351 769.559 518.432 867.437 409.354C933.936 335.246 1068.87 193.779 1052.97 234.469C1037.07 275.158 992.19 342.309 946.234 406.744Z" fill="url(#paint38_linear_309_9042)"/>
<path d="M946.234 406.744C849.376 542.548 658.478 714.707 653.034 717.351C653.034 717.351 769.559 518.432 867.437 409.354C933.936 335.246 1068.87 193.779 1052.97 234.469C1037.07 275.158 992.19 342.309 946.234 406.744Z" fill="url(#paint39_linear_309_9042)"/>
</g>
<path d="M682.807 706.627C681.495 706.545 679.455 712.463 676.549 709.617C670.947 704.159 671.481 698.438 669.832 692.159C705.546 650.069 727.812 600.698 787.558 537.485C830.234 492.333 968.882 337.522 914.227 417.207C896.106 437.86 828.447 524.426 777.667 593.922C767.678 607.593 744.904 635.666 734.983 645.822C720.956 660.182 708.512 680.221 695.123 695.687C691.52 699.861 690.936 707.303 682.859 706.685L682.807 706.627Z" fill="url(#paint40_linear_309_9042)"/>
<g filter="url(#filter14_d_309_9042)">
<path d="M785.514 561.009C894.049 449.145 986.781 295.106 1120.62 335.445C1127.66 337.567 1142.5 358.444 1135.84 361.547C1027.76 411.865 815.159 595.726 815.159 595.726C815.159 595.726 655.452 746.762 652.616 725.132C649.879 704.252 728.084 620.199 785.514 561.009Z" fill="url(#paint41_linear_309_9042)"/>
<path d="M785.514 561.009C894.049 449.145 986.781 295.106 1120.62 335.445C1127.66 337.567 1142.5 358.444 1135.84 361.547C1027.76 411.865 815.159 595.726 815.159 595.726C815.159 595.726 655.452 746.762 652.616 725.132C649.879 704.252 728.084 620.199 785.514 561.009Z" fill="url(#paint42_linear_309_9042)"/>
</g>
<path d="M680.356 701.975C679.127 701.777 675.72 706.946 673.659 704.092C669.675 698.615 671.6 693.481 671.585 687.634C716.005 652.87 755.32 612.327 818.968 550.076C864.922 505.13 984.745 379.741 970.142 435.203C947.778 452.204 871.97 531.03 806.423 589.206C793.528 600.651 757.041 643.544 745.081 651.808C728.172 663.495 711.365 680.477 694.789 693.226C690.326 696.668 687.928 703.358 680.391 702.032L680.356 701.975Z" fill="url(#paint43_linear_309_9042)"/>
<path d="M1084.18 486.186C1083.05 491.274 1045.7 503.124 1027.59 508.772C1009.49 514.421 925.204 535.988 848.987 591.947C731.598 678.134 611.467 809.828 611.467 809.828L631.883 771.016C631.883 771.016 936.094 416.04 1022.87 472.718C1044.61 486.924 1085.34 480.915 1084.18 486.186Z" fill="url(#paint44_linear_309_9042)"/>
<path d="M1084.18 486.186C1083.05 491.274 1045.7 503.124 1027.59 508.772C1009.49 514.421 925.204 535.988 848.987 591.947C731.598 678.134 611.467 809.828 611.467 809.828L631.883 771.016C631.883 771.016 936.094 416.04 1022.87 472.718C1044.61 486.924 1085.34 480.915 1084.18 486.186Z" fill="url(#paint45_linear_309_9042)"/>
<defs>
<filter id="filter1_d_309_9042" x="142.957" y="370.816" width="239.471" height="413.216" filterUnits="userSpaceOnUse" color-interpolation-filters="sRGB">
<feFlood flood-opacity="0" result="BackgroundImageFix"/>
<feColorMatrix in="SourceAlpha" type="matrix" values="0 0 0 0 0 0 0 0 0 0 0 0 0 0 0 0 0 0 127 0" result="hardAlpha"/>
<feOffset dy="2.47287"/>
<feGaussianBlur stdDeviation="10.2624"/>
<feComposite in2="hardAlpha" operator="out"/>
<feColorMatrix type="matrix" values="0 0 0 0 0 0 0 0 0 0 0 0 0 0 0 0 0 0 0.31 0"/>
<feBlend mode="normal" in2="BackgroundImageFix" result="effect1_dropShadow_309_9042"/>
<feBlend mode="normal" in="SourceGraphic" in2="effect1_dropShadow_309_9042" result="shape"/>
</filter>
<filter id="filter2_d_309_9042" x="176.394" y="320.497" width="264.128" height="500.145" filterUnits="userSpaceOnUse" color-interpolation-filters="sRGB">
<feFlood flood-opacity="0" result="BackgroundImageFix"/>
<feColorMatrix in="SourceAlpha" type="matrix" values="0 0 0 0 0 0 0 0 0 0 0 0 0 0 0 0 0 0 127 0" result="hardAlpha"/>
<feOffset dy="2.47287"/>
<feGaussianBlur stdDeviation="10.2624"/>
<feComposite in2="hardAlpha" operator="out"/>
<feColorMatrix type="matrix" values="0 0 0 0 0 0 0 0 0 0 0 0 0 0 0 0 0 0 0.31 0"/>
<feBlend mode="normal" in2="BackgroundImageFix" result="effect1_dropShadow_309_9042"/>
<feBlend mode="normal" in="SourceGraphic" in2="effect1_dropShadow_309_9042" result="shape"/>
</filter>
<filter id="filter3_d_309_9042" x="219.479" y="277.242" width="259.945" height="515.531" filterUnits="userSpaceOnUse" color-interpolation-filters="sRGB">
<feFlood flood-opacity="0" result="BackgroundImageFix"/>
<feColorMatrix in="SourceAlpha" type="matrix" values="0 0 0 0 0 0 0 0 0 0 0 0 0 0 0 0 0 0 127 0" result="hardAlpha"/>
<feOffset dy="2.47287"/>
<feGaussianBlur stdDeviation="10.2624"/>
<feComposite in2="hardAlpha" operator="out"/>
<feColorMatrix type="matrix" values="0 0 0 0 0 0 0 0 0 0 0 0 0 0 0 0 0 0 0.31 0"/>
<feBlend mode="normal" in2="BackgroundImageFix" result="effect1_dropShadow_309_9042"/>
<feBlend mode="normal" in="SourceGraphic" in2="effect1_dropShadow_309_9042" result="shape"/>
</filter>
<filter id="filter4_d_309_9042" x="277.095" y="231.669" width="219.171" height="499.145" filterUnits="userSpaceOnUse" color-interpolation-filters="sRGB">
<feFlood flood-opacity="0" result="BackgroundImageFix"/>
<feColorMatrix in="SourceAlpha" type="matrix" values="0 0 0 0 0 0 0 0 0 0 0 0 0 0 0 0 0 0 127 0" result="hardAlpha"/>
<feOffset dy="2.47287"/>
<feGaussianBlur stdDeviation="10.2624"/>
<feComposite in2="hardAlpha" operator="out"/>
<feColorMatrix type="matrix" values="0 0 0 0 0 0 0 0 0 0 0 0 0 0 0 0 0 0 0.31 0"/>
<feBlend mode="normal" in2="BackgroundImageFix" result="effect1_dropShadow_309_9042"/>
<feBlend mode="normal" in="SourceGraphic" in2="effect1_dropShadow_309_9042" result="shape"/>
</filter>
<filter id="filter5_d_309_9042" x="339.503" y="195.526" width="181.417" height="537.586" filterUnits="userSpaceOnUse" color-interpolation-filters="sRGB">
<feFlood flood-opacity="0" result="BackgroundImageFix"/>
<feColorMatrix in="SourceAlpha" type="matrix" values="0 0 0 0 0 0 0 0 0 0 0 0 0 0 0 0 0 0 127 0" result="hardAlpha"/>
<feOffset dy="2.47287"/>
<feGaussianBlur stdDeviation="10.2624"/>
<feComposite in2="hardAlpha" operator="out"/>
<feColorMatrix type="matrix" values="0 0 0 0 0 0 0 0 0 0 0 0 0 0 0 0 0 0 0.31 0"/>
<feBlend mode="normal" in2="BackgroundImageFix" result="effect1_dropShadow_309_9042"/>
<feBlend mode="normal" in="SourceGraphic" in2="effect1_dropShadow_309_9042" result="shape"/>
</filter>
<filter id="filter6_d_309_9042" x="405.533" y="170.657" width="153.063" height="515.855" filterUnits="userSpaceOnUse" color-interpolation-filters="sRGB">
<feFlood flood-opacity="0" result="BackgroundImageFix"/>
<feColorMatrix in="SourceAlpha" type="matrix" values="0 0 0 0 0 0 0 0 0 0 0 0 0 0 0 0 0 0 127 0" result="hardAlpha"/>
<feOffset dy="2.47287"/>
<feGaussianBlur stdDeviation="10.2624"/>
<feComposite in2="hardAlpha" operator="out"/>
<feColorMatrix type="matrix" values="0 0 0 0 0 0 0 0 0 0 0 0 0 0 0 0 0 0 0.31 0"/>
<feBlend mode="normal" in2="BackgroundImageFix" result="effect1_dropShadow_309_9042"/>
<feBlend mode="normal" in="SourceGraphic" in2="effect1_dropShadow_309_9042" result="shape"/>
</filter>
<filter id="filter7_d_309_9042" x="466.223" y="141.019" width="122.499" height="546.078" filterUnits="userSpaceOnUse" color-interpolation-filters="sRGB">
<feFlood flood-opacity="0" result="BackgroundImageFix"/>
<feColorMatrix in="SourceAlpha" type="matrix" values="0 0 0 0 0 0 0 0 0 0 0 0 0 0 0 0 0 0 127 0" result="hardAlpha"/>
<feOffset dy="2.47287"/>
<feGaussianBlur stdDeviation="10.2624"/>
<feComposite in2="hardAlpha" operator="out"/>
<feColorMatrix type="matrix" values="0 0 0 0 0 0 0 0 0 0 0 0 0 0 0 0 0 0 0.31 0"/>
<feBlend mode="normal" in2="BackgroundImageFix" result="effect1_dropShadow_309_9042"/>
<feBlend mode="normal" in="SourceGraphic" in2="effect1_dropShadow_309_9042" result="shape"/>
</filter>
<filter id="filter8_d_309_9042" x="515.226" y="102.601" width="158.188" height="584.727" filterUnits="userSpaceOnUse" color-interpolation-filters="sRGB">
<feFlood flood-opacity="0" result="BackgroundImageFix"/>
<feColorMatrix in="SourceAlpha" type="matrix" values="0 0 0 0 0 0 0 0 0 0 0 0 0 0 0 0 0 0 127 0" result="hardAlpha"/>
<feOffset dy="2.47287"/>
<feGaussianBlur stdDeviation="10.2624"/>
<feComposite in2="hardAlpha" operator="out"/>
<feColorMatrix type="matrix" values="0 0 0 0 0 0 0 0 0 0 0 0 0 0 0 0 0 0 0.31 0"/>
<feBlend mode="normal" in2="BackgroundImageFix" result="effect1_dropShadow_309_9042"/>
<feBlend mode="normal" in="SourceGraphic" in2="effect1_dropShadow_309_9042" result="shape"/>
</filter>
<filter id="filter9_d_309_9042" x="519.426" y="39.4437" width="286.645" height="656.384" filterUnits="userSpaceOnUse" color-interpolation-filters="sRGB">
<feFlood flood-opacity="0" result="BackgroundImageFix"/>
<feColorMatrix in="SourceAlpha" type="matrix" values="0 0 0 0 0 0 0 0 0 0 0 0 0 0 0 0 0 0 127 0" result="hardAlpha"/>
<feOffset dy="2.47287"/>
<feGaussianBlur stdDeviation="10.2624"/>
<feComposite in2="hardAlpha" operator="out"/>
<feColorMatrix type="matrix" values="0 0 0 0 0 0 0 0 0 0 0 0 0 0 0 0 0 0 0.31 0"/>
<feBlend mode="normal" in2="BackgroundImageFix" result="effect1_dropShadow_309_9042"/>
<feBlend mode="normal" in="SourceGraphic" in2="effect1_dropShadow_309_9042" result="shape"/>
</filter>
<filter id="filter10_d_309_9042" x="565.406" y="24.4178" width="387.686" height="693.669" filterUnits="userSpaceOnUse" color-interpolation-filters="sRGB">
<feFlood flood-opacity="0" result="BackgroundImageFix"/>
<feColorMatrix in="SourceAlpha" type="matrix" values="0 0 0 0 0 0 0 0 0 0 0 0 0 0 0 0 0 0 127 0" result="hardAlpha"/>
<feOffset dy="2.47287"/>
<feGaussianBlur stdDeviation="10.2624"/>
<feComposite in2="hardAlpha" operator="out"/>
<feColorMatrix type="matrix" values="0 0 0 0 0 0 0 0 0 0 0 0 0 0 0 0 0 0 0.31 0"/>
<feBlend mode="normal" in2="BackgroundImageFix" result="effect1_dropShadow_309_9042"/>
<feBlend mode="normal" in="SourceGraphic" in2="effect1_dropShadow_309_9042" result="shape"/>
</filter>
<filter id="filter11_d_309_9042" x="581.415" y="114.561" width="475.579" height="639.121" filterUnits="userSpaceOnUse" color-interpolation-filters="sRGB">
<feFlood flood-opacity="0" result="BackgroundImageFix"/>
<feColorMatrix in="SourceAlpha" type="matrix" values="0 0 0 0 0 0 0 0 0 0 0 0 0 0 0 0 0 0 127 0" result="hardAlpha"/>
<feOffset dy="2.47287"/>
<feGaussianBlur stdDeviation="10.2624"/>
<feComposite in2="hardAlpha" operator="out"/>
<feColorMatrix type="matrix" values="0 0 0 0 0 0 0 0 0 0 0 0 0 0 0 0 0 0 0.31 0"/>
<feBlend mode="normal" in2="BackgroundImageFix" result="effect1_dropShadow_309_9042"/>
<feBlend mode="normal" in="SourceGraphic" in2="effect1_dropShadow_309_9042" result="shape"/>
</filter>
<filter id="filter12_d_309_9042" x="625.719" y="160.736" width="477.172" height="592.375" filterUnits="userSpaceOnUse" color-interpolation-filters="sRGB">
<feFlood flood-opacity="0" result="BackgroundImageFix"/>
<feColorMatrix in="SourceAlpha" type="matrix" values="0 0 0 0 0 0 0 0 0 0 0 0 0 0 0 0 0 0 127 0" result="hardAlpha"/>
<feOffset dy="2.47287"/>
<feGaussianBlur stdDeviation="10.2624"/>
<feComposite in2="hardAlpha" operator="out"/>
<feColorMatrix type="matrix" values="0 0 0 0 0 0 0 0 0 0 0 0 0 0 0 0 0 0 0.31 0"/>
<feBlend mode="normal" in2="BackgroundImageFix" result="effect1_dropShadow_309_9042"/>
<feBlend mode="normal" in="SourceGraphic" in2="effect1_dropShadow_309_9042" result="shape"/>
</filter>
<filter id="filter13_d_309_9042" x="632.509" y="209.205" width="442.276" height="531.144" filterUnits="userSpaceOnUse" color-interpolation-filters="sRGB">
<feFlood flood-opacity="0" result="BackgroundImageFix"/>
<feColorMatrix in="SourceAlpha" type="matrix" values="0 0 0 0 0 0 0 0 0 0 0 0 0 0 0 0 0 0 127 0" result="hardAlpha"/>
<feOffset dy="2.47287"/>
<feGaussianBlur stdDeviation="10.2624"/>
<feComposite in2="hardAlpha" operator="out"/>
<feColorMatrix type="matrix" values="0 0 0 0 0 0 0 0 0 0 0 0 0 0 0 0 0 0 0.31 0"/>
<feBlend mode="normal" in2="BackgroundImageFix" result="effect1_dropShadow_309_9042"/>
<feBlend mode="normal" in="SourceGraphic" in2="effect1_dropShadow_309_9042" result="shape"/>
</filter>
<filter id="filter14_d_309_9042" x="632.022" y="310.821" width="526.023" height="439.428" filterUnits="userSpaceOnUse" color-interpolation-filters="sRGB">
<feFlood flood-opacity="0" result="BackgroundImageFix"/>
<feColorMatrix in="SourceAlpha" type="matrix" values="0 0 0 0 0 0 0 0 0 0 0 0 0 0 0 0 0 0 127 0" result="hardAlpha"/>
<feOffset dy="2.47287"/>
<feGaussianBlur stdDeviation="10.2624"/>
<feComposite in2="hardAlpha" operator="out"/>
<feColorMatrix type="matrix" values="0 0 0 0 0 0 0 0 0 0 0 0 0 0 0 0 0 0 0.31 0"/>
<feBlend mode="normal" in2="BackgroundImageFix" result="effect1_dropShadow_309_9042"/>
<feBlend mode="normal" in="SourceGraphic" in2="effect1_dropShadow_309_9042" result="shape"/>
</filter>
<linearGradient id="paint0_linear_309_9042" x1="160.71" y1="432.886" x2="316.389" y2="779.167" gradientUnits="userSpaceOnUse">
<stop stop-color="#FCF0D6"/>
<stop offset="0.432692" stop-color="#FFC446"/>
<stop offset="1" stop-color="#3C3024"/>
</linearGradient>
<linearGradient id="paint1_linear_309_9042" x1="160.71" y1="432.886" x2="290.23" y2="731.478" gradientUnits="userSpaceOnUse">
<stop stop-color="#FCF0D6"/>
<stop offset="1" stop-color="#FFC446"/>
</linearGradient>
<linearGradient id="paint2_linear_309_9042" x1="200.436" y1="384.343" x2="313.841" y2="769.918" gradientUnits="userSpaceOnUse">
<stop stop-color="#FCF0D6"/>
<stop offset="0.432692" stop-color="#FFC446"/>
<stop offset="1" stop-color="#3C3024"/>
</linearGradient>
<linearGradient id="paint3_linear_309_9042" x1="200.436" y1="384.343" x2="316.16" y2="759.947" gradientUnits="userSpaceOnUse">
<stop stop-color="#FCF0D6"/>
<stop offset="1" stop-color="#FFC446"/>
</linearGradient>
<linearGradient id="paint4_linear_309_9042" x1="236.943" y1="333.905" x2="347.585" y2="720.282" gradientUnits="userSpaceOnUse">
<stop stop-color="#FCF0D6"/>
<stop offset="0.432692" stop-color="#FFC446"/>
<stop offset="1" stop-color="#3C3024"/>
</linearGradient>
<linearGradient id="paint5_linear_309_9042" x1="237.362" y1="333.785" x2="350.738" y2="698.9" gradientUnits="userSpaceOnUse">
<stop stop-color="#FCF0D6"/>
<stop offset="1" stop-color="#FFC446"/>
</linearGradient>
<linearGradient id="paint6_linear_309_9042" x1="289.8" y1="290.889" x2="378.246" y2="682.943" gradientUnits="userSpaceOnUse">
<stop stop-color="#FCF0D6"/>
<stop offset="0.432692" stop-color="#FFC446"/>
<stop offset="1" stop-color="#3C3024"/>
</linearGradient>
<linearGradient id="paint7_linear_309_9042" x1="294.597" y1="289.807" x2="406.268" y2="673.595" gradientUnits="userSpaceOnUse">
<stop stop-color="#FCF0D6"/>
<stop offset="1" stop-color="#FFC446"/>
</linearGradient>
<linearGradient id="paint8_linear_309_9042" x1="303.218" y1="317.304" x2="483.491" y2="658.432" gradientUnits="userSpaceOnUse">
<stop stop-color="#FCF0D6"/>
<stop offset="0.432692" stop-color="#FFC446"/>
<stop offset="1" stop-color="#3C3024"/>
</linearGradient>
<linearGradient id="paint9_linear_309_9042" x1="300.354" y1="318.818" x2="460.821" y2="652.334" gradientUnits="userSpaceOnUse">
<stop stop-color="#FCF0D6"/>
<stop offset="1" stop-color="#FFC446"/>
</linearGradient>
<linearGradient id="paint10_linear_309_9042" x1="422.07" y1="615.415" x2="455.846" y2="602.631" gradientUnits="userSpaceOnUse">
<stop stop-color="#8B643D"/>
<stop offset="1"/>
</linearGradient>
<linearGradient id="paint11_linear_309_9042" x1="367.448" y1="301.91" x2="507.155" y2="661.56" gradientUnits="userSpaceOnUse">
<stop stop-color="#FCF0D6"/>
<stop offset="0.432692" stop-color="#FFC446"/>
<stop offset="1" stop-color="#3C3024"/>
</linearGradient>
<linearGradient id="paint12_linear_309_9042" x1="368.105" y1="301.655" x2="482.666" y2="632.947" gradientUnits="userSpaceOnUse">
<stop stop-color="#FCF0D6"/>
<stop offset="1" stop-color="#FFC446"/>
</linearGradient>
<linearGradient id="paint13_linear_309_9042" x1="454.009" y1="575.03" x2="499.62" y2="560.694" gradientUnits="userSpaceOnUse">
<stop stop-color="#8B643D"/>
<stop offset="1"/>
</linearGradient>
<linearGradient id="paint14_linear_309_9042" x1="430.905" y1="258.944" x2="545.96" y2="661.26" gradientUnits="userSpaceOnUse">
<stop stop-color="#FCF0D6"/>
<stop offset="0.432692" stop-color="#FFC446"/>
<stop offset="1" stop-color="#3C3024"/>
</linearGradient>
<linearGradient id="paint15_linear_309_9042" x1="434.484" y1="257.92" x2="368.512" y2="585.204" gradientUnits="userSpaceOnUse">
<stop stop-color="#FCF0D6"/>
<stop offset="1" stop-color="#FFC446"/>
</linearGradient>
<linearGradient id="paint16_linear_309_9042" x1="487.393" y1="543.542" x2="528.244" y2="536.256" gradientUnits="userSpaceOnUse">
<stop stop-color="#8B643D"/>
<stop offset="1"/>
</linearGradient>
<linearGradient id="paint17_linear_309_9042" x1="507.699" y1="211.405" x2="566.918" y2="663.033" gradientUnits="userSpaceOnUse">
<stop stop-color="#FCF0D6"/>
<stop offset="0.432692" stop-color="#FFC446"/>
<stop offset="1" stop-color="#3C3024"/>
</linearGradient>
<linearGradient id="paint18_linear_309_9042" x1="509.992" y1="280.276" x2="561.402" y2="605.468" gradientUnits="userSpaceOnUse">
<stop stop-color="#FCF0D6"/>
<stop offset="1" stop-color="#FFC446"/>
</linearGradient>
<linearGradient id="paint19_linear_309_9042" x1="523.146" y1="544.61" x2="568.158" y2="543.49" gradientUnits="userSpaceOnUse">
<stop stop-color="#8B643D"/>
<stop offset="1"/>
</linearGradient>
<linearGradient id="paint20_linear_309_9042" x1="578.946" y1="164.856" x2="606.856" y2="661.671" gradientUnits="userSpaceOnUse">
<stop stop-color="#FCF0D6"/>
<stop offset="0.432692" stop-color="#FFC446"/>
<stop offset="1" stop-color="#3C3024"/>
</linearGradient>
<linearGradient id="paint21_linear_309_9042" x1="589.019" y1="233.291" x2="589.749" y2="590.723" gradientUnits="userSpaceOnUse">
<stop stop-color="#FCF0D6"/>
<stop offset="1" stop-color="#FFC446"/>
</linearGradient>
<linearGradient id="paint22_linear_309_9042" x1="555.742" y1="525.079" x2="602.297" y2="530.553" gradientUnits="userSpaceOnUse">
<stop stop-color="#8B643D"/>
<stop offset="1"/>
</linearGradient>
<linearGradient id="paint23_linear_309_9042" x1="739.625" y1="631.649" x2="591.578" y2="111.991" gradientUnits="userSpaceOnUse">
<stop stop-color="#3C3024"/>
<stop offset="0.567308" stop-color="#FFC446"/>
<stop offset="1" stop-color="#FCF0D6"/>
</linearGradient>
<linearGradient id="paint24_linear_309_9042" x1="597.152" y1="643.841" x2="678.284" y2="188.44" gradientUnits="userSpaceOnUse">
<stop stop-color="#FFC446"/>
<stop offset="1" stop-color="#FCF0D6"/>
</linearGradient>
<linearGradient id="paint25_linear_309_9042" x1="586.704" y1="535.614" x2="646.129" y2="551.963" gradientUnits="userSpaceOnUse">
<stop stop-color="#8B643D"/>
<stop offset="1"/>
</linearGradient>
<linearGradient id="paint26_linear_309_9042" x1="844.65" y1="634.239" x2="685.513" y2="115.367" gradientUnits="userSpaceOnUse">
<stop stop-color="#3C3024"/>
<stop offset="0.567308" stop-color="#FFC446"/>
<stop offset="1" stop-color="#FCF0D6"/>
</linearGradient>
<linearGradient id="paint27_linear_309_9042" x1="640.263" y1="679.02" x2="761.986" y2="189.268" gradientUnits="userSpaceOnUse">
<stop stop-color="#FFC446"/>
<stop offset="1" stop-color="#FCF0D6"/>
</linearGradient>
<linearGradient id="paint28_linear_309_9042" x1="621.899" y1="529.841" x2="678.441" y2="554.501" gradientUnits="userSpaceOnUse">
<stop stop-color="#8B643D"/>
<stop offset="1"/>
</linearGradient>
<linearGradient id="paint29_linear_309_9042" x1="895.332" y1="648.785" x2="767.845" y2="201.297" gradientUnits="userSpaceOnUse">
<stop stop-color="#3C3024"/>
<stop offset="0.567308" stop-color="#FFC446"/>
<stop offset="1" stop-color="#FCF0D6"/>
</linearGradient>
<linearGradient id="paint30_linear_309_9042" x1="650.352" y1="681.128" x2="852.552" y2="218.019" gradientUnits="userSpaceOnUse">
<stop stop-color="#FFC446"/>
<stop offset="0.996786" stop-color="#FCF0D6"/>
</linearGradient>
<linearGradient id="paint31_linear_309_9042" x1="895.332" y1="648.785" x2="767.845" y2="201.297" gradientUnits="userSpaceOnUse">
<stop stop-color="#3C3024"/>
<stop offset="0.567308" stop-color="#FFC446"/>
<stop offset="1" stop-color="#FCF0D6"/>
</linearGradient>
<linearGradient id="paint32_linear_309_9042" x1="650.352" y1="681.128" x2="852.552" y2="218.019" gradientUnits="userSpaceOnUse">
<stop stop-color="#FFC446"/>
<stop offset="0.996786" stop-color="#FCF0D6"/>
</linearGradient>
<linearGradient id="paint33_linear_309_9042" x1="672.954" y1="526.227" x2="731.867" y2="561.419" gradientUnits="userSpaceOnUse">
<stop stop-color="#8B643D"/>
<stop offset="1"/>
</linearGradient>
<linearGradient id="paint34_linear_309_9042" x1="930.133" y1="643.035" x2="802.954" y2="272.447" gradientUnits="userSpaceOnUse">
<stop stop-color="#3C3024"/>
<stop offset="0.567308" stop-color="#FFC446"/>
<stop offset="1" stop-color="#FCF0D6"/>
</linearGradient>
<linearGradient id="paint35_linear_309_9042" x1="930.184" y1="643.01" x2="800.962" y2="266.47" gradientUnits="userSpaceOnUse">
<stop stop-color="#FFC446"/>
<stop offset="1" stop-color="#FCF0D6"/>
</linearGradient>
<linearGradient id="paint36_linear_309_9042" x1="932.23" y1="781.15" x2="1093.67" y2="326.443" gradientUnits="userSpaceOnUse">
<stop stop-color="#FFC446"/>
<stop offset="1" stop-color="#FCF0D6"/>
</linearGradient>
<linearGradient id="paint37_linear_309_9042" x1="716.189" y1="527.503" x2="773.915" y2="574.82" gradientUnits="userSpaceOnUse">
<stop stop-color="#8B643D"/>
<stop offset="1"/>
</linearGradient>
<linearGradient id="paint38_linear_309_9042" x1="825.297" y1="257.014" x2="881.726" y2="687.364" gradientUnits="userSpaceOnUse">
<stop stop-color="#FCF0D6"/>
<stop offset="0.432692" stop-color="#FFC446"/>
<stop offset="1" stop-color="#3C3024"/>
</linearGradient>
<linearGradient id="paint39_linear_309_9042" x1="934.878" y1="343.435" x2="792.282" y2="648.364" gradientUnits="userSpaceOnUse">
<stop stop-color="#FCF0D6"/>
<stop offset="1" stop-color="#FFC446"/>
</linearGradient>
<linearGradient id="paint40_linear_309_9042" x1="777.959" y1="525.968" x2="827.24" y2="580.923" gradientUnits="userSpaceOnUse">
<stop stop-color="#8B643D"/>
<stop offset="1"/>
</linearGradient>
<linearGradient id="paint41_linear_309_9042" x1="902.597" y1="695.822" x2="858.357" y2="358.436" gradientUnits="userSpaceOnUse">
<stop stop-color="#FCF0D6"/>
<stop offset="0.432692" stop-color="#FFC446"/>
<stop offset="1" stop-color="#3C3024"/>
</linearGradient>
<linearGradient id="paint42_linear_309_9042" x1="787.725" y1="649.921" x2="1012.02" y2="367.533" gradientUnits="userSpaceOnUse">
<stop stop-color="#FFC446"/>
<stop offset="1" stop-color="#FCF0D6"/>
</linearGradient>
<linearGradient id="paint43_linear_309_9042" x1="796.766" y1="522.374" x2="846.3" y2="603.365" gradientUnits="userSpaceOnUse">
<stop stop-color="#8B643D"/>
<stop offset="1"/>
</linearGradient>
<linearGradient id="paint44_linear_309_9042" x1="1001.38" y1="461.756" x2="982.063" y2="548.944" gradientUnits="userSpaceOnUse">
<stop stop-color="#FCF0D6"/>
<stop offset="0.432692" stop-color="#FFC446"/>
<stop offset="1" stop-color="#3C3024"/>
</linearGradient>
<linearGradient id="paint45_linear_309_9042" x1="702.999" y1="694.567" x2="1071.03" y2="490.492" gradientUnits="userSpaceOnUse">
<stop stop-color="#FFC446"/>
<stop offset="1" stop-color="#FCF0D6"/>
</linearGradient>
</defs>
</svg>
