<svg xmlns="http://www.w3.org/2000/svg" width="569" height="260" fill="none" viewBox="0 0 569 260"><path fill="url(#a)" fill-opacity=".4" stroke="url(#b)" stroke-width="3" d="M245.01 75.01c-2.87-.05-5.58-.85-7.54-2.27-2.38-1.74-3.63-4.32-3.59-7.89.02-1.58.65-3.07 1.52-3.9.46-.43 1.05-.75 1.82-.57.03 0 .06.01.09.02.21 1.68 1.41 3.28 3.31 3.41h.01c2.2.13 3.68-1.75 3.77-3.7.19-3.63-2.1-6.57-5.66-7.41-2.9-.68-5.77.18-8 2.3v.01c-1.87 1.78-3.13 4.28-3.68 6.96v.01c-6.14 7.86-11.06 11.52-15.99 12.46-7.96 1.54-17.03-.68-27.02-6.9v-.01c-3.77-2.34-7.21-5.44-10.98-8.84-5.35-4.83-11.13-10.06-18.19-12.72v-.04l-1.02-.34c-2.83-.94-5.91-1.25-8.91-.82.41-.43.84-.86 1.3-1.27 3.55-3.18 7.45-3.85 11.7-3.21 3.79.56 7.76 2.15 11.85 3.92l1.77.77 1.73.75c.57.24 1.14.49 1.7.73h.01c16.52 6.91 34.22 5.86 48.49-2.96 5.09-3.14 9.82-7.01 14.32-10.82l1.92-1.62c7.27-6.17 13.94-11.81 21.8-15.18 22.28-9.53 41.22 3.29 59.42 18.02C345.29 53.59 378.5 56.85 422 44.36l2.08-.6c7.31-2.17 14.73-4.64 21.86-7.01 15.68-5.23 31.77-10.57 47.63-13.07 11.34-1.79 22.46-1.1 33.6 2.13-.72-.02-1.44-.03-2.17-.03-6.62 0-13.58.99-20.83 2.97-5.81 1.58-11.74 3.79-17.62 6.57-3.91 1.85-7.88 3.81-11.78 5.75L470.89 43c-10.4 5.18-21.09 10.51-31.8 14.73-9.5 3.75-19.26 6.34-28.98 7.71-16.55 2.33-33.53 1.18-50.51-3.43-8.04-2.18-16.37-5.32-24.73-9.29-1.91-.92-3.79-1.86-5.67-2.8-9.01-4.53-17.92-9.01-28.74-8.83-9.5.17-18.62 4-27.08 11.21-3.32 2.83-6.25 6.35-9 9.63-3.82 4.56-7.23 8.6-11.31 11.07-2.3 1.38-5.19 2.07-8.06 2.01Z"/><path fill="url(#c)" fill-opacity=".4" stroke="url(#d)" stroke-width="3" d="M303.06 107.64c-9.41 1.12-19.43-4.8-24.18-14.62-1.77-3.66-2.95-8.06-3.47-13.11l-.09-1.03c-.31-3.66.45-9.09 2.22-14.14 1.79-5.11 4.47-9.46 7.7-11.36l.02-.01.01-.01c.14-.08.27-.18.41-.29 4.88-2.63 9.86-4.01 14.91-4.1 9.06-.17 16.95 3.74 25.65 8.12l2.88 1.43c.96.48 1.93.96 2.92 1.43l1.63.77c8.16 3.77 16.3 6.78 24.23 8.94 17.26 4.69 34.58 5.98 51.5 3.82l1.64-.22c9.6-1.36 19.22-3.84 28.61-7.39l1.87-.72c11.01-4.34 21.89-9.77 32.34-14.98 5.11-2.55 10.38-5.18 15.53-7.62 5.19-2.45 10.4-4.42 15.49-5.88l1.02-.29c12.5-3.4 23.82-3.62 33.71-.74.18.05.35.11.53.16h-.03c-11.09 0-22.46 1.73-33.79 5.19l-1.06.32v.02c-14.16 4.57-26.67 13.4-38.55 21.79-13.73 9.68-26.42 18.61-41.33 22.02l-.71.16c-19.7 4.27-38.47 3.55-57.36-2.17l-1.83-.57c-7.26-2.32-14.85-5.64-24.62-10.81-1.98-1.04-3.91-2.23-6.03-3.51-5.16-3.13-10.79-6.57-17.14-7.71-4.04-.72-9.34-.32-14.06 1.63-4.74 1.96-9.04 5.56-10.71 11.29-.72 2.48-.74 5.33-.23 7.99.51 2.67 1.59 5.27 3.18 7.25 1.09 1.36 2.67 2.36 4.32 2.94 1.66.59 3.52.8 5.22.45v-.01c2.55-.54 4.45-2.28 5.35-4.77.66-1.82 0-4.11-1.84-5.03-1.99-.99-4.05.19-4.76 2.06-.03.01-.06.02-.11.03-.42.09-1.04.02-1.69-.22-.68-.25-1.07-.56-1.15-.66-.7-.87-1.26-2.18-1.55-3.64-.29-1.45-.27-2.89.05-3.97.86-2.97 3.37-5.1 6.62-6.4.22.05.46.08.71.08 3.68 0 6.53 1.35 8.64 3.96l.24.31c2.43 3.22 3.82 8.39 3.55 13.96-.23 4.88-2.25 9.62-5.29 13.27-3.05 3.66-7.03 6.11-11.12 6.59Z"/><path fill="url(#e)" fill-opacity=".4" stroke="url(#f)" stroke-width="4.06" d="M157.33 180.96c-3.8.84-7.62.65-10.66-.6-3.68-1.53-6.15-4.53-7.23-9.25-.48-2.08-.12-4.25.75-5.61.47-.72 1.15-1.33 2.22-1.34.04 0 .09.01.12.01.81 2.15 2.91 3.87 5.45 3.43h.02c2.93-.53 4.27-3.48 3.78-6.07-.92-4.85-4.85-7.98-9.82-7.96-4.03.02-7.53 2.08-9.8 5.58v.01c-1.89 2.95-2.76 6.63-2.62 10.33 0 .01 0 .01-.01.01-5.58 12.31-10.89 18.69-17.08 21.51-9.99 4.56-22.64 4.52-37.77-.5-5.71-1.89-11.23-4.88-17.28-8.15-8.57-4.65-17.85-9.7-27.99-10.96l-.01-.04-1.46-.13c-4.03-.34-8.17.24-11.99 1.75.31-.54.65-1.09 1.01-1.63l.3-.45c3.65-5.32 8.59-7.44 14.37-7.96 5.92-.53 12.56.63 19.43 1.84h.01l2.51.44c.83.14 1.66.28 2.48.42l1.12.17c23.55 3.45 46.05-3.6 61.79-19.5 6.52-6.58 12.11-14.26 17.43-21.55 7.37-10.11 14.16-19.39 23.01-26.26l.86-.66c26.3-19.65 55.31-8.8 83.96 4.81 38.92 18.48 84.5 11.69 138.92-19.84 8.94-5.18 17.92-10.79 26.56-16.19 18.98-11.87 38.46-24.03 58.54-32.37h.01c14.36-5.96 29.23-8.59 44.92-7.88-.95.19-1.91.41-2.87.64-8.72 2.11-17.57 5.63-26.49 10.54-7.14 3.93-14.24 8.73-21.09 14.26h-.01c-6.08 4.92-12.24 10.1-18.17 15.1-12.05 10.14-24.42 20.55-37.18 29.52-11.32 7.96-23.35 14.48-35.71 19.38-21.04 8.33-43.78 12.22-67.6 11.55-10.58-.29-21.75-1.61-33.22-3.89l-2.3-.47c-1.4-.3-2.8-.61-4.19-.93l-4.16-.95c-13.31-3.1-26.46-6.16-40.65-2.47-12.46 3.25-23.24 11.18-32.09 23.36v.01c-3.47 4.78-6.21 10.35-8.79 15.54-3.57 7.23-6.77 13.63-11.36 18.18-2.59 2.55-6.18 4.38-9.97 5.22Z"/><path fill="url(#g)" fill-opacity=".4" stroke="url(#h)" stroke-width="4.06" d="M244.15 205.44c-12.04 4.47-27.12-.14-36.5-11.56-3.73-4.53-6.83-10.39-9.19-17.47-1.57-4.73-2.29-12.12-1.57-19.34.73-7.3 2.87-13.87 6.52-17.4l.02-.02.02-.02c.15-.15.3-.32.45-.52 5.58-5.01 11.69-8.41 18.31-10.14 11.14-2.9 22.06-.77 33.97 1.97l2.39.56c2.81.65 5.66 1.31 8.54 1.92h.01c11.98 2.51 23.71 4.02 34.9 4.47l2.23.08 2.35.06c23.38.38 45.79-3.45 66.68-11.42l2.09-.8c12.62-5.01 24.87-11.61 36.44-19.61l1.12-.78c11.47-8.07 22.55-17.19 33.25-26.18l4.56-3.83c5.91-4.99 12.01-10.12 18.03-14.97 6.05-4.89 12.28-9.14 18.52-12.68l1.25-.7c15.37-8.47 30.21-12.36 44.14-11.71h.01l.74.04c-.01 0-.03.01-.04.01-14.6 3.53-29.02 9.42-42.83 17.59l-1.3.76.01.03c-17.2 10.52-30.85 26.13-43.83 40.95-15.23 17.39-29.3 33.42-48.29 42.59-25.37 12.27-51.13 17.24-78.81 15.23-10.29-.75-21.34-2.71-35.85-6.4-2.93-.74-5.86-1.68-9.05-2.69v-.01c-7.8-2.48-16.31-5.22-25.03-4.69-5.55.33-12.4 2.55-18 6.62-5.62 4.09-10.13 10.19-10.5 18.27-.16 3.5.71 7.25 2.24 10.6 1.52 3.34 3.77 6.43 6.5 8.53 1.86 1.44 4.25 2.25 6.62 2.5 2.37.24 4.88-.07 7.01-1.08 3.19-1.53 5.14-4.42 5.53-7.99.28-2.61-1.31-5.42-4.03-6.04-2.93-.67-5.27 1.54-5.61 4.23-.03.02-.07.04-.13.07-.53.25-1.37.36-2.3.25-.98-.11-1.59-.4-1.72-.5h-.01c-1.19-.92-2.35-2.47-3.19-4.3s-1.27-3.72-1.2-5.24v-.01c.18-4.18 2.81-7.79 6.67-10.52.31-.01.63-.04.96-.12 4.85-1.18 9.04-.32 12.64 2.46l.41.32c4.23 3.48 7.71 9.83 9.13 17.26 1.24 6.49.1 13.38-2.75 19.16-2.84 5.78-7.31 10.28-12.53 12.21Z"/><defs><linearGradient id="a" x1="541.12" x2="140.98" y1="43.81" y2="43.81" gradientUnits="userSpaceOnUse"><stop stop-color="#ffc446"/><stop offset="1" stop-color="#fcf0d6"/></linearGradient><linearGradient id="b" x1="541.12" x2="140.98" y1="43.81" y2="43.81" gradientUnits="userSpaceOnUse"><stop stop-color="#fcf0d6"/><stop offset="1" stop-color="#ffc446"/></linearGradient><linearGradient id="c" x1="549.13" x2="273.75" y1="70.71" y2="70.71" gradientUnits="userSpaceOnUse"><stop stop-color="#ffc446"/><stop offset="1" stop-color="#fcf0d6"/></linearGradient><linearGradient id="d" x1="549.13" x2="273.75" y1="70.71" y2="70.71" gradientUnits="userSpaceOnUse"><stop stop-color="#fcf0d6"/><stop offset="1" stop-color="#ffc446"/></linearGradient><linearGradient id="e" x1="537.27" x2="10.41" y1="45.62" y2="172.98" gradientUnits="userSpaceOnUse"><stop stop-color="#ffc446"/><stop offset="1" stop-color="#fcf0d6"/></linearGradient><linearGradient id="f" x1="537.27" x2="10.41" y1="45.62" y2="172.98" gradientUnits="userSpaceOnUse"><stop stop-color="#fcf0d6"/><stop offset="1" stop-color="#ffc446"/></linearGradient><linearGradient id="g" x1="556.38" x2="193.8" y1="78.49" y2="166.14" gradientUnits="userSpaceOnUse"><stop stop-color="#ffc446"/><stop offset="1" stop-color="#fcf0d6"/></linearGradient><linearGradient id="h" x1="556.38" x2="193.8" y1="78.49" y2="166.14" gradientUnits="userSpaceOnUse"><stop stop-color="#fcf0d6"/><stop offset="1" stop-color="#ffc446"/></linearGradient></defs></svg>