<svg xmlns="http://www.w3.org/2000/svg" width="569" height="260" fill="none" viewBox="0 0 569 260"><path fill="url(#a)" fill-opacity=".4" stroke="url(#b)" stroke-width="3" d="M323.65 75.01c2.86-.05 5.57-.85 7.54-2.27 2.37-1.74 3.62-4.32 3.58-7.89-.01-1.58-.65-3.07-1.51-3.9-.47-.43-1.06-.75-1.82-.57-.03 0-.06.01-.09.02-.21 1.68-1.41 3.28-3.31 3.41h-.02c-2.19.13-3.67-1.75-3.76-3.7-.19-3.63 2.09-6.57 5.66-7.41 2.9-.68 5.77.18 8 2.3v.01c1.87 1.78 3.13 4.28 3.67 6.96.01 0 .01 0 .01.01 6.14 7.86 11.06 11.52 15.99 12.46 7.96 1.54 17.03-.68 27.01-6.9v-.01c3.78-2.34 7.22-5.44 10.99-8.84 5.35-4.83 11.13-10.06 18.19-12.72v-.04l1.02-.34c2.83-.94 5.9-1.25 8.91-.82-.41-.43-.84-.86-1.3-1.27-3.55-3.18-7.46-3.85-11.7-3.21-3.79.56-7.76 2.15-11.86 3.92l-1.76.77-1.73.75c-.57.24-1.14.49-1.71.73-16.52 6.91-34.22 5.86-48.5-2.96-5.09-3.14-9.81-7.01-14.32-10.82l-1.91-1.62c-7.28-6.17-13.95-11.81-21.81-15.18-22.28-9.53-41.21 3.29-59.41 18.02-24.33 19.69-57.54 22.95-101.04 10.46l-2.08-.6c-7.31-2.17-14.73-4.64-21.87-7.01-15.68-5.23-31.76-10.57-47.62-13.07-11.34-1.79-22.47-1.1-33.6 2.13.71-.02 1.44-.03 2.16-.03 6.63 0 13.59.99 20.84 2.97 5.81 1.58 11.74 3.79 17.61 6.57 3.92 1.85 7.89 3.81 11.79 5.75L97.77 43c10.4 5.18 21.08 10.51 31.79 14.73 9.51 3.75 19.27 6.34 28.99 7.71 16.54 2.33 33.53 1.18 50.51-3.43 8.04-2.18 16.37-5.32 24.73-9.29 1.91-.92 3.79-1.86 5.67-2.8 9.01-4.53 17.91-9.01 28.73-8.83h.01c9.5.17 18.61 4 27.07 11.21 3.33 2.83 6.26 6.35 9.01 9.63 3.81 4.56 7.23 8.6 11.31 11.07h-.01c2.3 1.38 5.2 2.07 8.07 2.01Z"/><path fill="url(#c)" fill-opacity=".4" stroke="url(#d)" stroke-width="3" d="M265.6 107.64c9.41 1.12 19.43-4.8 24.18-14.62 1.77-3.66 2.94-8.06 3.46-13.11l.1-1.03c.31-3.66-.46-9.09-2.22-14.14-1.79-5.11-4.47-9.46-7.7-11.36l-.02-.01-.02-.01c-.13-.08-.26-.18-.4-.29-4.88-2.63-9.86-4.01-14.91-4.1-9.07-.17-16.95 3.74-25.65 8.12l-2.88 1.43c-.96.48-1.94.96-2.92 1.43l-1.63.77c-8.17 3.77-16.3 6.78-24.23 8.94-17.26 4.69-34.58 5.98-51.5 3.82l-1.64-.22c-9.6-1.36-19.22-3.84-28.61-7.39l-1.88-.72c-11-4.34-21.88-9.77-32.33-14.98-5.11-2.55-10.38-5.18-15.53-7.62-5.19-2.45-10.4-4.42-15.5-5.88l-1.01-.29c-12.5-3.4-23.83-3.62-33.71-.74-.18.05-.35.11-.53.16h.03c11.09 0 22.46 1.73 33.79 5.19l1.06.32v.02c14.16 4.57 26.67 13.4 38.55 21.79 13.73 9.68 26.42 18.61 41.33 22.02l.71.16c19.69 4.27 38.47 3.55 57.36-2.17l1.83-.57c7.26-2.32 14.84-5.64 24.62-10.81 1.97-1.04 3.91-2.23 6.02-3.51 5.17-3.13 10.8-6.57 17.15-7.71 4.03-.72 9.34-.32 14.06 1.63 4.74 1.96 9.04 5.56 10.71 11.29.72 2.48.74 5.33.23 7.99-.52 2.67-1.59 5.27-3.18 7.25-1.09 1.36-2.67 2.36-4.32 2.94-1.66.59-3.52.8-5.22.45v-.01c-2.55-.54-4.45-2.28-5.35-4.77-.66-1.82 0-4.11 1.84-5.03 1.99-.99 4.05.19 4.76 2.06.02.01.06.02.1.03.43.09 1.05.02 1.7-.22.68-.25 1.07-.56 1.15-.66.69-.87 1.26-2.18 1.55-3.64.29-1.45.26-2.89-.05-3.97-.86-2.97-3.38-5.1-6.62-6.4-.22.05-.46.08-.71.08-3.68 0-6.53 1.35-8.64 3.96l-.24.31c-2.43 3.22-3.82 8.39-3.55 13.96.23 4.88 2.25 9.62 5.29 13.27 3.05 3.66 7.03 6.11 11.12 6.59Z"/><path fill="url(#e)" fill-opacity=".4" stroke="url(#f)" stroke-width="4.06" d="M411.33 180.96c3.8.84 7.62.65 10.65-.6 3.69-1.53 6.15-4.53 7.24-9.25.48-2.08.12-4.25-.75-5.61-.48-.72-1.16-1.33-2.22-1.34-.05 0-.09.01-.13.01-.81 2.15-2.9 3.87-5.44 3.43h-.02c-2.93-.53-4.27-3.48-3.78-6.07.91-4.85 4.85-7.98 9.81-7.96h.01c4.03.02 7.53 2.08 9.79 5.58l.01.01c1.89 2.95 2.75 6.63 2.62 10.33v.01h.01c5.57 12.31 10.89 18.69 17.08 21.51 9.99 4.56 22.64 4.52 37.76-.5h.01c5.71-1.89 11.23-4.88 17.27-8.15 8.58-4.65 17.86-9.7 28-10.96l.01-.04 1.46-.13c4.02-.34 8.17.24 11.99 1.75-.32-.54-.65-1.09-1.01-1.63l-.3-.45c-3.66-5.32-8.59-7.44-14.38-7.96-5.91-.53-12.55.63-19.42 1.84h-.01l-2.51.44c-.83.14-1.66.28-2.48.42l-1.13.17c-23.54 3.45-46.05-3.6-61.79-19.5-6.51-6.58-12.11-14.26-17.42-21.55-7.38-10.11-14.16-19.39-23.01-26.26l-.87-.66c-26.29-19.65-55.3-8.8-83.96 4.81-38.92 18.48-84.49 11.69-138.91-19.84-8.94-5.18-17.92-10.79-26.56-16.19-18.98-11.87-38.46-24.03-58.55-32.37-14.36-5.96-29.23-8.59-44.93-7.88.96.19 1.91.41 2.87.64 8.72 2.11 17.58 5.63 26.49 10.54 7.15 3.93 14.25 8.73 21.1 14.26 6.09 4.92 12.24 10.1 18.18 15.1 12.04 10.14 24.42 20.55 37.18 29.52 11.32 7.96 23.34 14.48 35.71 19.38 21.04 8.33 43.78 12.22 67.6 11.55 10.58-.29 21.75-1.61 33.22-3.89l2.3-.47c1.4-.3 2.8-.61 4.19-.93l4.16-.95c13.31-3.1 26.46-6.16 40.65-2.47 12.46 3.25 23.24 11.18 32.09 23.36v.01c3.47 4.78 6.21 10.35 8.78 15.54h.01c3.57 7.23 6.77 13.63 11.36 18.18 2.59 2.55 6.18 4.38 9.97 5.22Z"/><path fill="url(#g)" fill-opacity=".4" stroke="url(#h)" stroke-width="4.06" d="M324.51 205.44c12.04 4.47 27.12-.14 36.5-11.56 3.73-4.53 6.83-10.39 9.19-17.47 1.57-4.73 2.29-12.12 1.57-19.34-.73-7.3-2.87-13.87-6.52-17.4l-.02-.02-.02-.02c-.15-.15-.3-.32-.45-.52-5.58-5.01-11.7-8.41-18.31-10.14-11.14-2.9-22.06-.77-33.97 1.97l-2.39.56c-2.82.65-5.66 1.31-8.54 1.92h-.01c-11.98 2.51-23.71 4.02-34.91 4.47l-2.23.08-2.34.06c-23.38.38-45.79-3.45-66.68-11.42l-2.09-.8c-12.62-5.01-24.88-11.61-36.44-19.61l-1.12-.78c-11.47-8.07-22.55-17.19-33.25-26.18l-4.56-3.83C112 70.42 105.9 65.29 99.89 60.44c-6.05-4.89-12.28-9.14-18.52-12.68l-1.25-.7C64.75 38.59 49.91 34.7 35.97 35.35l-.74.04c.01 0 .02.01.04.01 14.6 3.53 29.01 9.42 42.83 17.59l1.3.76-.01.03c17.19 10.52 30.85 26.13 43.82 40.95 15.24 17.39 29.31 33.42 48.3 42.59 25.36 12.27 51.13 17.24 78.8 15.23 10.3-.75 21.34-2.71 35.86-6.4 2.93-.74 5.86-1.68 9.05-2.69v-.01c7.8-2.48 16.31-5.22 25.03-4.69 5.54.33 12.4 2.55 17.99 6.62 5.62 4.09 10.14 10.19 10.51 18.27.16 3.5-.72 7.25-2.24 10.6-1.53 3.34-3.77 6.43-6.5 8.53-1.86 1.44-4.26 2.25-6.62 2.5-2.37.24-4.89-.07-7.01-1.08h-.01c-3.18-1.53-5.13-4.42-5.52-7.99-.28-2.61 1.31-5.42 4.03-6.04 2.93-.67 5.27 1.54 5.61 4.23.03.02.07.04.13.07.53.25 1.37.36 2.3.25.97-.11 1.59-.4 1.72-.5h.01c1.19-.92 2.35-2.47 3.19-4.3s1.27-3.72 1.2-5.24v-.01c-.19-4.18-2.81-7.79-6.67-10.52-.31-.01-.63-.04-.97-.12-4.84-1.18-9.03-.32-12.63 2.46l-.41.32c-4.23 3.48-7.71 9.83-9.13 17.26-1.24 6.49-.1 13.38 2.74 19.16 2.85 5.78 7.32 10.28 12.54 12.21Z"/><defs><linearGradient id="a" x1="27.54" x2="427.68" y1="43.81" y2="43.81" gradientUnits="userSpaceOnUse"><stop stop-color="#ffc446"/><stop offset="1" stop-color="#fcf0d6"/></linearGradient><linearGradient id="b" x1="27.54" x2="427.68" y1="43.81" y2="43.81" gradientUnits="userSpaceOnUse"><stop stop-color="#fcf0d6"/><stop offset="1" stop-color="#ffc446"/></linearGradient><linearGradient id="c" x1="19.53" x2="294.91" y1="70.71" y2="70.71" gradientUnits="userSpaceOnUse"><stop stop-color="#ffc446"/><stop offset="1" stop-color="#fcf0d6"/></linearGradient><linearGradient id="d" x1="19.53" x2="294.91" y1="70.71" y2="70.71" gradientUnits="userSpaceOnUse"><stop stop-color="#fcf0d6"/><stop offset="1" stop-color="#ffc446"/></linearGradient><linearGradient id="e" x1="31.39" x2="558.25" y1="45.62" y2="172.98" gradientUnits="userSpaceOnUse"><stop stop-color="#ffc446"/><stop offset="1" stop-color="#fcf0d6"/></linearGradient><linearGradient id="f" x1="31.39" x2="558.25" y1="45.62" y2="172.98" gradientUnits="userSpaceOnUse"><stop stop-color="#fcf0d6"/><stop offset="1" stop-color="#ffc446"/></linearGradient><linearGradient id="g" x1="12.28" x2="374.86" y1="78.49" y2="166.14" gradientUnits="userSpaceOnUse"><stop stop-color="#ffc446"/><stop offset="1" stop-color="#fcf0d6"/></linearGradient><linearGradient id="h" x1="12.28" x2="374.86" y1="78.49" y2="166.14" gradientUnits="userSpaceOnUse"><stop stop-color="#fcf0d6"/><stop offset="1" stop-color="#ffc446"/></linearGradient></defs></svg>