<svg xmlns="http://www.w3.org/2000/svg" width="1258" height="397" fill="none" viewBox="0 0 1258 397"><path fill="url(#a)" fill-rule="evenodd" d="m308.44 771.99 59.69-16.09-176.77-280.29s-18.67-36.59-37.43-36.54c-16.06.04-30.36 11.84-31.58 28.06l35.8 54.56-28.46-21.54c36.14 101.61 178.75 271.84 178.75 271.84" clip-rule="evenodd"/><path fill="url(#b)" fill-rule="evenodd" d="m308.44 771.99 59.69-16.09-176.77-280.29s-18.67-36.59-37.43-36.54c-16.06.04-30.36 11.84-31.58 28.06l35.8 54.56-28.46-21.54c36.14 101.61 178.75 271.84 178.75 271.84" clip-rule="evenodd"/><g fill-rule="evenodd" clip-rule="evenodd" filter="url(#c)"><path fill="url(#d)" d="m307.26 761.03 54.64-5.25-137.23-321.7s-13.97-41.16-30.77-44.66c-14.49-3.02-28.27 6.58-30.42 23.27l9.23 33.31c1.1 3.97 1.19 8.15.26 12.16l-1.3 5.67c31.19 113.61 135.59 297.2 135.59 297.2"/><path fill="url(#e)" d="m307.26 761.03 54.64-5.25-137.23-321.7s-13.97-41.16-30.77-44.66c-14.49-3.02-28.27 6.58-30.42 23.27l9.23 33.31c1.1 3.97 1.19 8.15.26 12.16l-1.3 5.67c31.19 113.61 135.59 297.2 135.59 297.2"/></g><g filter="url(#f)"><path fill="url(#g)" d="M385.61 797.64 420 772.21 261.34 383.67s-13.78-41.24-31.4-44.61c-17.39-3.33-34.18 9.91-32.96 31.27 5.8 101.55 188.63 427.31 188.63 427.31"/><path fill="url(#h)" d="M385.61 797.64 420 772.21 261.34 383.67s-13.78-41.24-31.4-44.61c-17.39-3.33-34.18 9.91-32.96 31.27 5.8 101.55 188.63 427.31 188.63 427.31"/></g><g fill-rule="evenodd" clip-rule="evenodd" filter="url(#i)"><path fill="url(#j)" d="m411.54 769.78 47.36-51.09-146-377.08s-11.71-41.89-31.71-45.68c-8.96-1.69-18.12.06-25.53 4.5l-1.45 15.87c-.47 5.12-3.19 9.76-7.43 12.68l-6.78 4.66c3.78 110.03 171.54 436.14 171.54 436.14"/><path fill="url(#k)" d="m411.54 769.78 47.36-51.09-146-377.08s-11.71-41.89-31.71-45.68c-8.96-1.69-18.12.06-25.53 4.5l-1.45 15.87c-.47 5.12-3.19 9.76-7.43 12.68l-6.78 4.66c3.78 110.03 171.54 436.14 171.54 436.14"/></g><g filter="url(#l)"><path fill="url(#m)" d="M360.45 289.09c40.1 103.41 115.29 373.44 115.29 373.44l-32.36 45.29S316.4 402.28 300.97 326.76c-6.95-34-4.82-78.26 23.04-77.01 20.45.91 28.65 19.26 36.44 39.34"/><path fill="url(#n)" d="M360.45 289.09c40.1 103.41 115.29 373.44 115.29 373.44l-32.36 45.29S316.4 402.28 300.97 326.76c-6.95-34-4.82-78.26 23.04-77.01 20.45.91 28.65 19.26 36.44 39.34"/></g><path fill="url(#o)" d="M535.7 818.86c-.29 1 3.33 4.91.93 6.07-4.62 2.26-8.37-.39-12.86-1.56-22.09-44.47-64-93.48-85.17-167.61-43.09-150.91-118.65-276.44-70.45-270.31 13.06 1.66 74.35 248.48 112.22 315.49 7.45 13.18 18.41 41.46 23.52 53.22 7.22 16.61 18.51 34.21 26.58 50.76 2.18 4.46 7.07 7.83 5.27 13.92z"/><path fill="#be8b26" d="M535.7 818.86c-.29 1 3.33 4.91.93 6.07-4.62 2.26-8.37-.39-12.86-1.56-22.09-44.47-64-93.48-85.17-167.61-43.09-150.91-118.65-276.44-70.45-270.31 13.06 1.66 74.35 248.48 112.22 315.49 7.45 13.18 18.41 41.46 23.52 53.22 7.22 16.61 18.51 34.21 26.58 50.76 2.18 4.46 7.07 7.83 5.27 13.92z"/><g fill-rule="evenodd" clip-rule="evenodd" filter="url(#p)"><path fill="url(#q)" d="M500.39 664.19s-56.56-299.36-86.53-405.9c-5.82-20.69-12.06-39.78-29.43-44.15-18.55-4.66-24.76 20.33-24.39 47.71l31.46 10.01-29.46 1.3c.22 6.3-1.12 5.21-.31 11.3 10.1 75.44 116.39 425.65 116.39 425.65z"/><path fill="url(#r)" d="M500.39 664.19s-56.56-299.36-86.53-405.9c-5.82-20.69-12.06-39.78-29.43-44.15-18.55-4.66-24.76 20.33-24.39 47.71l31.46 10.01-29.46 1.3c.22 6.3-1.12 5.21-.31 11.3 10.1 75.44 116.39 425.65 116.39 425.65z"/></g><path fill="url(#s)" d="M560.62 762.66c-.49 1.03 3.41 5 .27 6.24-6.03 2.39-10.27-.28-15.65-1.41-20.79-45.43-71.91-94.16-80.75-171.2-11.03-96.18-89.43-270.77-47.89-226.99 14.4 15.18 55.89 204.45 92.89 272.84 7.28 13.45 16.69 42.39 21.28 54.41 6.5 16.99 17.88 34.93 25.44 51.84 2.04 4.56 7.59 7.95 4.48 14.25z"/><g filter="url(#t)"><path fill="url(#u)" d="M480.02 238.16c21.12 94.19 58.05 425.35 58.05 425.35l-38.29-3.62s-69.06-309.22-73.53-389.95c-2.01-36.35 11.54-100.39 35.39-75.72 11.36 11.75 14.28 25.66 18.38 43.94"/><path fill="url(#v)" d="M480.02 238.16c21.12 94.19 58.05 425.35 58.05 425.35l-38.29-3.62s-69.06-309.22-73.53-389.95c-2.01-36.35 11.54-100.39 35.39-75.72 11.36 11.75 14.28 25.66 18.38 43.94"/></g><path fill="url(#w)" d="M565.05 752.69c-.42.93 2.31 5.48-.13 6.15-4.68 1.32-7.74-2.01-11.74-4.03-13.28-47.99-43.38-88.18-52.73-166.4-12.35-103.41-69.7-250.46-29.39-271.05 14.2-7.26 22.63 230.29 61.8 308.71 6.78 13.57 10.35 44.32 13.17 56.86 4 17.73 11.64 37.22 16.45 55.05 1.3 4.81 5.31 9.07 2.62 14.7z"/><g fill-rule="evenodd" clip-rule="evenodd" filter="url(#x)"><path fill="url(#y)" d="M558.78 664.1s28.48-329.75-13.62-447.31c-.14-.4-.06-.85-.1-1.27-1.52-19.73-2.68-34.84-12.15-49.12-5.67-8.55-11.65-9.04-17.36-4.46l-6.68 25.19a24.94 24.94 0 0 1-5.35 10.01l-10.34 11.73c-2.93 11.29-4.96 22.87-5.71 32.82-6.58 87.53 33.82 411.92 33.82 411.92z"/><path fill="url(#z)" d="M558.78 664.1s28.48-329.75-13.62-447.31c-.14-.4-.06-.85-.1-1.27-1.52-19.73-2.68-34.84-12.15-49.12-5.67-8.55-11.65-9.04-17.36-4.46l-6.68 25.19a24.94 24.94 0 0 1-5.35 10.01l-10.34 11.73c-2.93 11.29-4.96 22.87-5.71 32.82-6.58 87.53 33.82 411.92 33.82 411.92z"/></g><path fill="url(#A)" fill-rule="evenodd" d="M572.23 786.62c-.14-.88-.26-1.64-.05-1.93l.06-.01c2.8-3.68 1.73-7.18.67-10.68-.43-1.41-.87-2.82-1.04-4.24-.96-7.86-2.45-16.09-3.94-24.36-1.99-11.05-3.99-22.16-4.78-32.53-.97-12.82-5.73-45.07-8.53-60.02-8.23-43.76-6.98-114.63-5.99-170.45.72-41.14-5.71-168.08-9.17-175.98-7.66-17.47-12.87-9.09-16.19 12.78l6.56 30.03c.5 2.33-2.25 3.96-4.05 2.39l-5.36-4.67c-3.52 51.25 4.95 223.31 8.6 265.69 4.23 49.09 11.93 83.98 18.75 114.93 4.39 19.87 8.41 38.12 10.93 57.45 1.03.65 1.97 1.38 2.9 2.09 2.75 2.11 5.34 4.1 9.38 3.64 1.86-.2 1.51-2.4 1.25-4.13" clip-rule="evenodd"/><g filter="url(#B)"><path fill="url(#C)" d="m535.75 656.76 23.78 7.57s123.12-415.31 86.58-521.81c-17.73-51.68-69.17-2.13-79.66 49.02-9.7 47.31-30.7 465.22-30.7 465.22"/><path fill="url(#D)" d="m535.75 656.76 23.78 7.57s123.12-415.31 86.58-521.81c-17.73-51.68-69.17-2.13-79.66 49.02-9.7 47.31-30.7 465.22-30.7 465.22"/></g><path fill="url(#E)" fill-rule="evenodd" d="M571.84 770.41c-.03-.9-.05-1.67.23-1.93l.06.01c3.68-3.21 2.99-6.84 2.29-10.47-.27-1.46-.55-2.92-.54-4.36.05-7.92-.42-16.3-.9-24.72-.63-11.24-1.27-22.56-.65-32.94.77-12.84.09-45.5-.9-60.74-2.89-44.59 22.96-199.62 32.14-254.7 6.76-40.59 12.18-73.11 9.44-81.46-4.47-13.64-7.04-17.76-11.18-15.2l1.68 63.26c.08 3.03-4.31 3.52-4.9.55l-8.68-43.72c-16.4 47.83-39.83 261.95-42.31 313.79-3.36 70.21-3.3 90.28-3.18 127.03.02 5.58.03 11.54.04 18.12 4.2 3.2 19.21 11.12 25.36 11.37 2.11.09 2.05-2.15 2-3.89" clip-rule="evenodd"/><g fill-rule="evenodd" clip-rule="evenodd" filter="url(#F)"><path fill="url(#G)" d="m539.95 664.62 55.12 8.21c78.15-346.11 153.72-551.05 186.32-603.86 16.2-26.24-18.15-3.36-48.26 27.35-4.7 25.14-4.43 38.84-1.66 63.03l-12.19-42.77c-19.79 25.6-47.93 73.82-55.54 100.14-48.66 168.23-123.79 447.9-123.79 447.9"/><path fill="url(#H)" d="m539.95 664.62 55.12 8.21c78.15-346.11 153.72-551.05 186.32-603.86 16.2-26.24-18.15-3.36-48.26 27.35-4.7 25.14-4.43 38.84-1.66 63.03l-12.19-42.77c-19.79 25.6-47.93 73.82-55.54 100.14-48.66 168.23-123.79 447.9-123.79 447.9"/></g><path fill="url(#I)" d="M590.88 742.67c-1.07.58.38 6.12-3.37 5.33-7.22-1.49-30.29-17.72-34.82-21.75 6.34-49.67 18.28-84.79 33.24-164.44 14.07-74.9 61.36-285.56 76.95-199.87 4.08 22.41-56.03 177.8-60.07 255.86-.8 15.35.25 40.21-2.3 52.83-3.62 17.84-3.06 39.28-5.6 57.66-.67 4.96 2.71 10.97-3.96 14.4z"/><g fill-rule="evenodd" clip-rule="evenodd" filter="url(#J)"><path fill="url(#K)" d="m646.24 695.09.04-.13c71.76-281.38 126.39-495.62 278.93-637.44 26.78-28.84-24.1-13.75-79.15 24.25-20.29 26.33-29.13 41.65-34.06 71.47l-3.38-42.16c-18.93 16.87-36.26 36.03-48.68 56.53C654.62 341.6 585.93 666.36 585.93 666.36z"/><path fill="url(#L)" d="m646.24 695.09.04-.13c71.76-281.38 126.39-495.62 278.93-637.44 26.78-28.84-24.1-13.75-79.15 24.25-20.29 26.33-29.13 41.65-34.06 71.47l-3.38-42.16c-18.93 16.87-36.26 36.03-48.68 56.53C654.62 341.6 585.93 666.36 585.93 666.36z"/></g><path fill="url(#M)" d="M593.36 743.18c-1.14.51-.82 6.62-4.27 5.4-6.66-2.33-8.2-7.6-11.78-12.4 15.68-52.82 21.19-105.17 46.13-188.15 48.77-162.25 63.07-147.28 104.7-201.88 18.75-24.59-74.53 172.31-93.46 255.92-3.72 16.44-13.29 51.22-18.18 64.54-6.91 18.84-10.51 41.97-16.49 61.5-1.61 5.27.48 12.07-6.59 15.1z"/><g fill-rule="evenodd" clip-rule="evenodd" filter="url(#N)"><path fill="url(#O)" d="M928.65 242.31c2.16-2.17 2.26-2.25 2.51-2.45.17-.14.4-.33 1.4-1.27l1.08-1.04c6.01-5.77 14.31-12.28 22.19-18.46 4.94-3.88 9.73-7.64 13.67-11 96.3-69.43 74.18-85.09 24.28-70.48-13.69 19.43-35.6 36.25-75.86 65.82l59.18-61.26c-32.79 11.34-70.94 30.32-94.6 50.01-115.79 96.32-245.94 324.86-280.46 535.08-1.35 7.22 10.89 1.62 23.18-4.01 12.24-5.6 24.53-11.23 23.44-4.19 0 0 97.25-292.67 279.99-476.75"/><path fill="url(#P)" d="M928.65 242.31c2.16-2.17 2.26-2.25 2.51-2.45.17-.14.4-.33 1.4-1.27l1.08-1.04c6.01-5.77 14.31-12.28 22.19-18.46 4.94-3.88 9.73-7.64 13.67-11 96.3-69.43 74.18-85.09 24.28-70.48-13.69 19.43-35.6 36.25-75.86 65.82l59.18-61.26c-32.79 11.34-70.94 30.32-94.6 50.01-115.79 96.32-245.94 324.86-280.46 535.08-1.35 7.22 10.89 1.62 23.18-4.01 12.24-5.6 24.53-11.23 23.44-4.19 0 0 97.25-292.67 279.99-476.75"/><path fill="url(#Q)" d="m928.65 242.31 3.91-3.72c-1 .94-1.23 1.13-1.4 1.27-.25.2-.35.28-2.51 2.45"/><path fill="url(#R)" d="m928.65 242.31 3.91-3.72c-1 .94-1.23 1.13-1.4 1.27-.25.2-.35.28-2.51 2.45"/></g><path fill="url(#S)" d="M616.97 748.22c-1.27.31-1.47 6.56-5.09 4.71-6.97-3.55-8.15-9.17-11.59-14.68 21.61-50.79 37.83-100.53 66.52-182.64 27.62-79.06 146.38-269.56 139.8-199.88-11.17 25.09-104.63 175.27-132.5 256.71-5.48 16.02-18.9 49.58-25.36 62.23-9.13 17.87-15.07 40.7-23.26 59.44-2.21 5.06-.55 12.34-8.45 14.14z"/><g fill-rule="evenodd" clip-rule="evenodd" filter="url(#T)"><path fill="url(#U)" d="M1082.36 188.74c-1.17-21.11-60.66-11.17-130.16 54.48-43.33 40.92-131.78 124.04-178.8 198.61-58.16 82.95-201.86 431.96-78.77 222.12C794.81 515.97 882.6 382.9 969.35 289.23l12.09-12.33c30.27-27.13 35.28-31.43 47.15-41.3 20.76-17.26 54.05-41.86 53.77-46.86"/><path fill="url(#V)" d="M1082.36 188.74c-1.17-21.11-60.66-11.17-130.16 54.48-43.33 40.92-131.78 124.04-178.8 198.61-58.16 82.95-201.86 431.96-78.77 222.12C794.81 515.97 882.6 382.9 969.35 289.23l12.09-12.33c30.27-27.13 35.28-31.43 47.15-41.3 20.76-17.26 54.05-41.86 53.77-46.86"/><path fill="url(#W)" d="M1082.36 188.74c-1.17-21.11-60.66-11.17-130.16 54.48-43.33 40.92-131.78 124.04-178.8 198.61-58.16 82.95-201.86 431.96-78.77 222.12C794.81 515.97 882.6 382.9 969.35 289.23l12.09-12.33c30.27-27.13 35.28-31.43 47.15-41.3 20.76-17.26 54.05-41.86 53.77-46.86"/></g><path fill="url(#X)" d="M635.37 739.36c-1.31.12-2.42 6.28-5.73 3.91-6.37-4.54-6.71-10.27-9.3-16.23 28.88-47.04 52.26-93.84 92.75-170.82 18-34.22 103.77-110.39 102.56-139.33 13.11-47 72.63-75.51 50.1-28.64C851 411.43 751.51 537.08 711.93 613.5c-7.79 15.04-26.02 46.26-34.27 57.81-11.67 16.33-20.91 38.03-31.79 55.36-2.92 4.68-2.36 12.12-10.44 12.74z"/><g filter="url(#Y)"><path fill="url(#Z)" d="M946.23 406.74c-96.85 135.81-287.75 307.97-293.2 310.61 0 0 116.53-198.92 214.41-308 66.5-74.1 201.43-215.57 185.53-174.88s-60.78 107.84-106.74 172.27"/><path fill="url(#aa)" d="M946.23 406.74c-96.85 135.81-287.75 307.97-293.2 310.61 0 0 116.53-198.92 214.41-308 66.5-74.1 201.43-215.57 185.53-174.88s-60.78 107.84-106.74 172.27"/></g><path fill="url(#ab)" d="M682.81 706.63c-1.31-.09-3.35 5.83-6.26 2.99-5.6-5.46-5.07-11.18-6.72-17.46 35.72-42.09 57.98-91.46 117.73-154.67 42.67-45.16 181.32-199.97 126.67-120.28-18.12 20.65-85.78 107.22-136.56 176.71-9.99 13.67-32.77 41.75-42.69 51.9-14.02 14.36-26.47 34.4-39.86 49.87-3.6 4.17-4.18 11.61-12.26 10.99z"/><g filter="url(#ac)"><path fill="url(#ad)" d="M785.51 561.01c108.54-111.87 201.27-265.9 335.11-225.57 7.04 2.13 21.88 23 15.22 26.11-108.08 50.32-320.68 234.18-320.68 234.18s-159.71 151.03-162.54 129.4c-2.74-20.88 75.46-104.93 132.89-164.12"/><path fill="url(#ae)" d="M785.51 561.01c108.54-111.87 201.27-265.9 335.11-225.57 7.04 2.13 21.88 23 15.22 26.11-108.08 50.32-320.68 234.18-320.68 234.18s-159.71 151.03-162.54 129.4c-2.74-20.88 75.46-104.93 132.89-164.12"/></g><path fill="url(#af)" d="M680.36 701.98c-1.23-.2-4.64 4.97-6.7 2.11-3.99-5.47-2.06-10.61-2.07-16.46 44.41-34.76 83.73-75.3 147.38-137.55 45.95-44.95 165.78-170.34 151.17-114.88-22.36 17-98.17 95.83-163.72 154.01-12.89 11.44-49.38 54.33-61.34 62.6-16.91 11.69-33.71 28.67-50.29 41.42-4.46 3.44-6.86 10.13-14.4 8.8z"/><path fill="url(#ag)" d="M1084.18 486.19c-1.13 5.08-38.48 16.93-56.59 22.58-18.1 5.65-102.39 27.22-178.6 83.18-117.39 86.18-237.52 217.88-237.52 217.88l20.41-38.81s304.21-354.98 390.99-298.3c21.74 14.2 62.47 8.2 61.31 13.47"/><path fill="url(#ah)" d="M1084.18 486.19c-1.13 5.08-38.48 16.93-56.59 22.58-18.1 5.65-102.39 27.22-178.6 83.18-117.39 86.18-237.52 217.88-237.52 217.88l20.41-38.81s304.21-354.98 390.99-298.3c21.74 14.2 62.47 8.2 61.31 13.47"/><defs><linearGradient id="a" x1="160.71" x2="316.39" y1="432.89" y2="779.17" gradientUnits="userSpaceOnUse"><stop stop-color="#fcf0d6"/><stop offset=".43" stop-color="#ffc446"/><stop offset="1" stop-color="#3c3024"/></linearGradient><linearGradient id="b" x1="160.71" x2="290.23" y1="432.89" y2="731.48" gradientUnits="userSpaceOnUse"><stop stop-color="#fcf0d6"/><stop offset="1" stop-color="#ffc446"/></linearGradient><linearGradient id="d" x1="200.44" x2="313.84" y1="384.34" y2="769.92" gradientUnits="userSpaceOnUse"><stop stop-color="#fcf0d6"/><stop offset=".43" stop-color="#ffc446"/><stop offset="1" stop-color="#3c3024"/></linearGradient><linearGradient id="e" x1="200.44" x2="316.16" y1="384.34" y2="759.95" gradientUnits="userSpaceOnUse"><stop stop-color="#fcf0d6"/><stop offset="1" stop-color="#ffc446"/></linearGradient><linearGradient id="g" x1="236.94" x2="347.58" y1="333.9" y2="720.28" gradientUnits="userSpaceOnUse"><stop stop-color="#fcf0d6"/><stop offset=".43" stop-color="#ffc446"/><stop offset="1" stop-color="#3c3024"/></linearGradient><linearGradient id="h" x1="237.36" x2="350.74" y1="333.79" y2="698.9" gradientUnits="userSpaceOnUse"><stop stop-color="#fcf0d6"/><stop offset="1" stop-color="#ffc446"/></linearGradient><linearGradient id="j" x1="289.8" x2="378.25" y1="290.89" y2="682.94" gradientUnits="userSpaceOnUse"><stop stop-color="#fcf0d6"/><stop offset=".43" stop-color="#ffc446"/><stop offset="1" stop-color="#3c3024"/></linearGradient><linearGradient id="k" x1="294.6" x2="406.27" y1="289.81" y2="673.6" gradientUnits="userSpaceOnUse"><stop stop-color="#fcf0d6"/><stop offset="1" stop-color="#ffc446"/></linearGradient><linearGradient id="m" x1="303.22" x2="483.49" y1="317.3" y2="658.43" gradientUnits="userSpaceOnUse"><stop stop-color="#fcf0d6"/><stop offset=".43" stop-color="#ffc446"/><stop offset="1" stop-color="#3c3024"/></linearGradient><linearGradient id="n" x1="300.35" x2="460.82" y1="318.82" y2="652.33" gradientUnits="userSpaceOnUse"><stop stop-color="#fcf0d6"/><stop offset="1" stop-color="#ffc446"/></linearGradient><linearGradient id="o" x1="422.07" x2="455.85" y1="615.41" y2="602.63" gradientUnits="userSpaceOnUse"><stop stop-color="#8b643d"/><stop offset="1"/></linearGradient><linearGradient id="q" x1="367.45" x2="507.15" y1="301.91" y2="661.56" gradientUnits="userSpaceOnUse"><stop stop-color="#fcf0d6"/><stop offset=".43" stop-color="#ffc446"/><stop offset="1" stop-color="#3c3024"/></linearGradient><linearGradient id="r" x1="368.11" x2="482.67" y1="301.65" y2="632.95" gradientUnits="userSpaceOnUse"><stop stop-color="#fcf0d6"/><stop offset="1" stop-color="#ffc446"/></linearGradient><linearGradient id="s" x1="454.01" x2="499.62" y1="575.03" y2="560.69" gradientUnits="userSpaceOnUse"><stop stop-color="#8b643d"/><stop offset="1"/></linearGradient><linearGradient id="u" x1="430.9" x2="545.96" y1="258.94" y2="661.26" gradientUnits="userSpaceOnUse"><stop stop-color="#fcf0d6"/><stop offset=".43" stop-color="#ffc446"/><stop offset="1" stop-color="#3c3024"/></linearGradient><linearGradient id="v" x1="434.48" x2="368.51" y1="257.92" y2="585.2" gradientUnits="userSpaceOnUse"><stop stop-color="#fcf0d6"/><stop offset="1" stop-color="#ffc446"/></linearGradient><linearGradient id="w" x1="487.39" x2="528.24" y1="543.54" y2="536.26" gradientUnits="userSpaceOnUse"><stop stop-color="#8b643d"/><stop offset="1"/></linearGradient><linearGradient id="y" x1="507.7" x2="566.92" y1="211.41" y2="663.03" gradientUnits="userSpaceOnUse"><stop stop-color="#fcf0d6"/><stop offset=".43" stop-color="#ffc446"/><stop offset="1" stop-color="#3c3024"/></linearGradient><linearGradient id="z" x1="509.99" x2="561.4" y1="280.28" y2="605.47" gradientUnits="userSpaceOnUse"><stop stop-color="#fcf0d6"/><stop offset="1" stop-color="#ffc446"/></linearGradient><linearGradient id="A" x1="523.15" x2="568.16" y1="544.61" y2="543.49" gradientUnits="userSpaceOnUse"><stop stop-color="#8b643d"/><stop offset="1"/></linearGradient><linearGradient id="C" x1="578.95" x2="606.86" y1="164.86" y2="661.67" gradientUnits="userSpaceOnUse"><stop stop-color="#fcf0d6"/><stop offset=".43" stop-color="#ffc446"/><stop offset="1" stop-color="#3c3024"/></linearGradient><linearGradient id="D" x1="589.02" x2="589.75" y1="233.29" y2="590.72" gradientUnits="userSpaceOnUse"><stop stop-color="#fcf0d6"/><stop offset="1" stop-color="#ffc446"/></linearGradient><linearGradient id="E" x1="555.74" x2="602.3" y1="525.08" y2="530.55" gradientUnits="userSpaceOnUse"><stop stop-color="#8b643d"/><stop offset="1"/></linearGradient><linearGradient id="G" x1="739.63" x2="591.58" y1="631.65" y2="111.99" gradientUnits="userSpaceOnUse"><stop stop-color="#3c3024"/><stop offset=".57" stop-color="#ffc446"/><stop offset="1" stop-color="#fcf0d6"/></linearGradient><linearGradient id="H" x1="597.15" x2="678.28" y1="643.84" y2="188.44" gradientUnits="userSpaceOnUse"><stop stop-color="#ffc446"/><stop offset="1" stop-color="#fcf0d6"/></linearGradient><linearGradient id="I" x1="586.7" x2="646.13" y1="535.61" y2="551.96" gradientUnits="userSpaceOnUse"><stop stop-color="#8b643d"/><stop offset="1"/></linearGradient><linearGradient id="K" x1="844.65" x2="685.51" y1="634.24" y2="115.37" gradientUnits="userSpaceOnUse"><stop stop-color="#3c3024"/><stop offset=".57" stop-color="#ffc446"/><stop offset="1" stop-color="#fcf0d6"/></linearGradient><linearGradient id="L" x1="640.26" x2="761.99" y1="679.02" y2="189.27" gradientUnits="userSpaceOnUse"><stop stop-color="#ffc446"/><stop offset="1" stop-color="#fcf0d6"/></linearGradient><linearGradient id="M" x1="621.9" x2="678.44" y1="529.84" y2="554.5" gradientUnits="userSpaceOnUse"><stop stop-color="#8b643d"/><stop offset="1"/></linearGradient><linearGradient id="O" x1="895.33" x2="767.85" y1="648.78" y2="201.3" gradientUnits="userSpaceOnUse"><stop stop-color="#3c3024"/><stop offset=".57" stop-color="#ffc446"/><stop offset="1" stop-color="#fcf0d6"/></linearGradient><linearGradient id="P" x1="650.35" x2="852.55" y1="681.13" y2="218.02" gradientUnits="userSpaceOnUse"><stop stop-color="#ffc446"/><stop offset="1" stop-color="#fcf0d6"/></linearGradient><linearGradient id="Q" x1="895.33" x2="767.85" y1="648.78" y2="201.3" gradientUnits="userSpaceOnUse"><stop stop-color="#3c3024"/><stop offset=".57" stop-color="#ffc446"/><stop offset="1" stop-color="#fcf0d6"/></linearGradient><linearGradient id="R" x1="650.35" x2="852.55" y1="681.13" y2="218.02" gradientUnits="userSpaceOnUse"><stop stop-color="#ffc446"/><stop offset="1" stop-color="#fcf0d6"/></linearGradient><linearGradient id="S" x1="672.95" x2="731.87" y1="526.23" y2="561.42" gradientUnits="userSpaceOnUse"><stop stop-color="#8b643d"/><stop offset="1"/></linearGradient><linearGradient id="U" x1="930.13" x2="802.95" y1="643.03" y2="272.45" gradientUnits="userSpaceOnUse"><stop stop-color="#3c3024"/><stop offset=".57" stop-color="#ffc446"/><stop offset="1" stop-color="#fcf0d6"/></linearGradient><linearGradient id="V" x1="930.18" x2="800.96" y1="643.01" y2="266.47" gradientUnits="userSpaceOnUse"><stop stop-color="#ffc446"/><stop offset="1" stop-color="#fcf0d6"/></linearGradient><linearGradient id="W" x1="932.23" x2="1093.67" y1="781.15" y2="326.44" gradientUnits="userSpaceOnUse"><stop stop-color="#ffc446"/><stop offset="1" stop-color="#fcf0d6"/></linearGradient><linearGradient id="X" x1="716.19" x2="773.91" y1="527.5" y2="574.82" gradientUnits="userSpaceOnUse"><stop stop-color="#8b643d"/><stop offset="1"/></linearGradient><linearGradient id="Z" x1="825.3" x2="881.73" y1="257.01" y2="687.36" gradientUnits="userSpaceOnUse"><stop stop-color="#fcf0d6"/><stop offset=".43" stop-color="#ffc446"/><stop offset="1" stop-color="#3c3024"/></linearGradient><linearGradient id="aa" x1="934.88" x2="792.28" y1="343.44" y2="648.36" gradientUnits="userSpaceOnUse"><stop stop-color="#fcf0d6"/><stop offset="1" stop-color="#ffc446"/></linearGradient><linearGradient id="ab" x1="777.96" x2="827.24" y1="525.97" y2="580.92" gradientUnits="userSpaceOnUse"><stop stop-color="#8b643d"/><stop offset="1"/></linearGradient><linearGradient id="ad" x1="902.6" x2="858.36" y1="695.82" y2="358.44" gradientUnits="userSpaceOnUse"><stop stop-color="#fcf0d6"/><stop offset=".43" stop-color="#ffc446"/><stop offset="1" stop-color="#3c3024"/></linearGradient><linearGradient id="ae" x1="787.73" x2="1012.02" y1="649.92" y2="367.53" gradientUnits="userSpaceOnUse"><stop stop-color="#ffc446"/><stop offset="1" stop-color="#fcf0d6"/></linearGradient><linearGradient id="af" x1="796.77" x2="846.3" y1="522.37" y2="603.37" gradientUnits="userSpaceOnUse"><stop stop-color="#8b643d"/><stop offset="1"/></linearGradient><linearGradient id="ag" x1="1001.38" x2="982.06" y1="461.76" y2="548.94" gradientUnits="userSpaceOnUse"><stop stop-color="#fcf0d6"/><stop offset=".43" stop-color="#ffc446"/><stop offset="1" stop-color="#3c3024"/></linearGradient><linearGradient id="ah" x1="703" x2="1071.03" y1="694.57" y2="490.49" gradientUnits="userSpaceOnUse"><stop stop-color="#ffc446"/><stop offset="1" stop-color="#fcf0d6"/></linearGradient><filter id="c" width="239.47" height="413.22" x="142.96" y="370.82" color-interpolation-filters="sRGB" filterUnits="userSpaceOnUse"><feFlood flood-opacity="0" result="BackgroundImageFix"/><feColorMatrix in="SourceAlpha" result="hardAlpha" values="0 0 0 0 0 0 0 0 0 0 0 0 0 0 0 0 0 0 127 0"/><feOffset dy="2.47"/><feGaussianBlur stdDeviation="10.26"/><feComposite in2="hardAlpha" operator="out"/><feColorMatrix values="0 0 0 0 0 0 0 0 0 0 0 0 0 0 0 0 0 0 0.31 0"/><feBlend in2="BackgroundImageFix" result="effect1_dropShadow_309_9042"/><feBlend in="SourceGraphic" in2="effect1_dropShadow_309_9042" result="shape"/></filter><filter id="f" width="264.13" height="500.14" x="176.39" y="320.5" color-interpolation-filters="sRGB" filterUnits="userSpaceOnUse"><feFlood flood-opacity="0" result="BackgroundImageFix"/><feColorMatrix in="SourceAlpha" result="hardAlpha" values="0 0 0 0 0 0 0 0 0 0 0 0 0 0 0 0 0 0 127 0"/><feOffset dy="2.47"/><feGaussianBlur stdDeviation="10.26"/><feComposite in2="hardAlpha" operator="out"/><feColorMatrix values="0 0 0 0 0 0 0 0 0 0 0 0 0 0 0 0 0 0 0.31 0"/><feBlend in2="BackgroundImageFix" result="effect1_dropShadow_309_9042"/><feBlend in="SourceGraphic" in2="effect1_dropShadow_309_9042" result="shape"/></filter><filter id="i" width="259.94" height="515.53" x="219.48" y="277.24" color-interpolation-filters="sRGB" filterUnits="userSpaceOnUse"><feFlood flood-opacity="0" result="BackgroundImageFix"/><feColorMatrix in="SourceAlpha" result="hardAlpha" values="0 0 0 0 0 0 0 0 0 0 0 0 0 0 0 0 0 0 127 0"/><feOffset dy="2.47"/><feGaussianBlur stdDeviation="10.26"/><feComposite in2="hardAlpha" operator="out"/><feColorMatrix values="0 0 0 0 0 0 0 0 0 0 0 0 0 0 0 0 0 0 0.31 0"/><feBlend in2="BackgroundImageFix" result="effect1_dropShadow_309_9042"/><feBlend in="SourceGraphic" in2="effect1_dropShadow_309_9042" result="shape"/></filter><filter id="l" width="219.17" height="499.14" x="277.1" y="231.67" color-interpolation-filters="sRGB" filterUnits="userSpaceOnUse"><feFlood flood-opacity="0" result="BackgroundImageFix"/><feColorMatrix in="SourceAlpha" result="hardAlpha" values="0 0 0 0 0 0 0 0 0 0 0 0 0 0 0 0 0 0 127 0"/><feOffset dy="2.47"/><feGaussianBlur stdDeviation="10.26"/><feComposite in2="hardAlpha" operator="out"/><feColorMatrix values="0 0 0 0 0 0 0 0 0 0 0 0 0 0 0 0 0 0 0.31 0"/><feBlend in2="BackgroundImageFix" result="effect1_dropShadow_309_9042"/><feBlend in="SourceGraphic" in2="effect1_dropShadow_309_9042" result="shape"/></filter><filter id="p" width="181.42" height="537.59" x="339.5" y="195.53" color-interpolation-filters="sRGB" filterUnits="userSpaceOnUse"><feFlood flood-opacity="0" result="BackgroundImageFix"/><feColorMatrix in="SourceAlpha" result="hardAlpha" values="0 0 0 0 0 0 0 0 0 0 0 0 0 0 0 0 0 0 127 0"/><feOffset dy="2.47"/><feGaussianBlur stdDeviation="10.26"/><feComposite in2="hardAlpha" operator="out"/><feColorMatrix values="0 0 0 0 0 0 0 0 0 0 0 0 0 0 0 0 0 0 0.31 0"/><feBlend in2="BackgroundImageFix" result="effect1_dropShadow_309_9042"/><feBlend in="SourceGraphic" in2="effect1_dropShadow_309_9042" result="shape"/></filter><filter id="t" width="153.06" height="515.86" x="405.53" y="170.66" color-interpolation-filters="sRGB" filterUnits="userSpaceOnUse"><feFlood flood-opacity="0" result="BackgroundImageFix"/><feColorMatrix in="SourceAlpha" result="hardAlpha" values="0 0 0 0 0 0 0 0 0 0 0 0 0 0 0 0 0 0 127 0"/><feOffset dy="2.47"/><feGaussianBlur stdDeviation="10.26"/><feComposite in2="hardAlpha" operator="out"/><feColorMatrix values="0 0 0 0 0 0 0 0 0 0 0 0 0 0 0 0 0 0 0.31 0"/><feBlend in2="BackgroundImageFix" result="effect1_dropShadow_309_9042"/><feBlend in="SourceGraphic" in2="effect1_dropShadow_309_9042" result="shape"/></filter><filter id="x" width="122.5" height="546.08" x="466.22" y="141.02" color-interpolation-filters="sRGB" filterUnits="userSpaceOnUse"><feFlood flood-opacity="0" result="BackgroundImageFix"/><feColorMatrix in="SourceAlpha" result="hardAlpha" values="0 0 0 0 0 0 0 0 0 0 0 0 0 0 0 0 0 0 127 0"/><feOffset dy="2.47"/><feGaussianBlur stdDeviation="10.26"/><feComposite in2="hardAlpha" operator="out"/><feColorMatrix values="0 0 0 0 0 0 0 0 0 0 0 0 0 0 0 0 0 0 0.31 0"/><feBlend in2="BackgroundImageFix" result="effect1_dropShadow_309_9042"/><feBlend in="SourceGraphic" in2="effect1_dropShadow_309_9042" result="shape"/></filter><filter id="B" width="158.19" height="584.73" x="515.23" y="102.6" color-interpolation-filters="sRGB" filterUnits="userSpaceOnUse"><feFlood flood-opacity="0" result="BackgroundImageFix"/><feColorMatrix in="SourceAlpha" result="hardAlpha" values="0 0 0 0 0 0 0 0 0 0 0 0 0 0 0 0 0 0 127 0"/><feOffset dy="2.47"/><feGaussianBlur stdDeviation="10.26"/><feComposite in2="hardAlpha" operator="out"/><feColorMatrix values="0 0 0 0 0 0 0 0 0 0 0 0 0 0 0 0 0 0 0.31 0"/><feBlend in2="BackgroundImageFix" result="effect1_dropShadow_309_9042"/><feBlend in="SourceGraphic" in2="effect1_dropShadow_309_9042" result="shape"/></filter><filter id="F" width="286.64" height="656.38" x="519.43" y="39.44" color-interpolation-filters="sRGB" filterUnits="userSpaceOnUse"><feFlood flood-opacity="0" result="BackgroundImageFix"/><feColorMatrix in="SourceAlpha" result="hardAlpha" values="0 0 0 0 0 0 0 0 0 0 0 0 0 0 0 0 0 0 127 0"/><feOffset dy="2.47"/><feGaussianBlur stdDeviation="10.26"/><feComposite in2="hardAlpha" operator="out"/><feColorMatrix values="0 0 0 0 0 0 0 0 0 0 0 0 0 0 0 0 0 0 0.31 0"/><feBlend in2="BackgroundImageFix" result="effect1_dropShadow_309_9042"/><feBlend in="SourceGraphic" in2="effect1_dropShadow_309_9042" result="shape"/></filter><filter id="J" width="387.69" height="693.67" x="565.41" y="24.42" color-interpolation-filters="sRGB" filterUnits="userSpaceOnUse"><feFlood flood-opacity="0" result="BackgroundImageFix"/><feColorMatrix in="SourceAlpha" result="hardAlpha" values="0 0 0 0 0 0 0 0 0 0 0 0 0 0 0 0 0 0 127 0"/><feOffset dy="2.47"/><feGaussianBlur stdDeviation="10.26"/><feComposite in2="hardAlpha" operator="out"/><feColorMatrix values="0 0 0 0 0 0 0 0 0 0 0 0 0 0 0 0 0 0 0.31 0"/><feBlend in2="BackgroundImageFix" result="effect1_dropShadow_309_9042"/><feBlend in="SourceGraphic" in2="effect1_dropShadow_309_9042" result="shape"/></filter><filter id="N" width="475.58" height="639.12" x="581.41" y="114.56" color-interpolation-filters="sRGB" filterUnits="userSpaceOnUse"><feFlood flood-opacity="0" result="BackgroundImageFix"/><feColorMatrix in="SourceAlpha" result="hardAlpha" values="0 0 0 0 0 0 0 0 0 0 0 0 0 0 0 0 0 0 127 0"/><feOffset dy="2.47"/><feGaussianBlur stdDeviation="10.26"/><feComposite in2="hardAlpha" operator="out"/><feColorMatrix values="0 0 0 0 0 0 0 0 0 0 0 0 0 0 0 0 0 0 0.31 0"/><feBlend in2="BackgroundImageFix" result="effect1_dropShadow_309_9042"/><feBlend in="SourceGraphic" in2="effect1_dropShadow_309_9042" result="shape"/></filter><filter id="T" width="477.17" height="592.38" x="625.72" y="160.74" color-interpolation-filters="sRGB" filterUnits="userSpaceOnUse"><feFlood flood-opacity="0" result="BackgroundImageFix"/><feColorMatrix in="SourceAlpha" result="hardAlpha" values="0 0 0 0 0 0 0 0 0 0 0 0 0 0 0 0 0 0 127 0"/><feOffset dy="2.47"/><feGaussianBlur stdDeviation="10.26"/><feComposite in2="hardAlpha" operator="out"/><feColorMatrix values="0 0 0 0 0 0 0 0 0 0 0 0 0 0 0 0 0 0 0.31 0"/><feBlend in2="BackgroundImageFix" result="effect1_dropShadow_309_9042"/><feBlend in="SourceGraphic" in2="effect1_dropShadow_309_9042" result="shape"/></filter><filter id="Y" width="442.28" height="531.14" x="632.51" y="209.21" color-interpolation-filters="sRGB" filterUnits="userSpaceOnUse"><feFlood flood-opacity="0" result="BackgroundImageFix"/><feColorMatrix in="SourceAlpha" result="hardAlpha" values="0 0 0 0 0 0 0 0 0 0 0 0 0 0 0 0 0 0 127 0"/><feOffset dy="2.47"/><feGaussianBlur stdDeviation="10.26"/><feComposite in2="hardAlpha" operator="out"/><feColorMatrix values="0 0 0 0 0 0 0 0 0 0 0 0 0 0 0 0 0 0 0.31 0"/><feBlend in2="BackgroundImageFix" result="effect1_dropShadow_309_9042"/><feBlend in="SourceGraphic" in2="effect1_dropShadow_309_9042" result="shape"/></filter><filter id="ac" width="526.02" height="439.43" x="632.02" y="310.82" color-interpolation-filters="sRGB" filterUnits="userSpaceOnUse"><feFlood flood-opacity="0" result="BackgroundImageFix"/><feColorMatrix in="SourceAlpha" result="hardAlpha" values="0 0 0 0 0 0 0 0 0 0 0 0 0 0 0 0 0 0 127 0"/><feOffset dy="2.47"/><feGaussianBlur stdDeviation="10.26"/><feComposite in2="hardAlpha" operator="out"/><feColorMatrix values="0 0 0 0 0 0 0 0 0 0 0 0 0 0 0 0 0 0 0.31 0"/><feBlend in2="BackgroundImageFix" result="effect1_dropShadow_309_9042"/><feBlend in="SourceGraphic" in2="effect1_dropShadow_309_9042" result="shape"/></filter></defs></svg>