<svg width="1797" height="72" viewBox="0 0 1797 72" fill="none" xmlns="http://www.w3.org/2000/svg">
<g opacity="0.5">
<mask id="path-1-inside-1_2013_5" fill="white">
<path d="M5.85914 35.4435C4.00007 34.6758 1.97352 34.8684 0 35.1001C0.692268 34.8238 1.35942 34.5111 2.0126 34.2069C2.30012 34.0729 2.58762 33.9389 2.87514 33.8077C5.42368 32.6521 7.92757 31.689 10.5012 32.5795C13.5187 33.6235 16.1817 36.1218 18.1636 38.179C18.2362 38.2544 18.292 38.3437 18.3534 38.4303C18.4707 38.5977 18.6158 38.8071 18.8224 38.9969C22.5489 42.4108 29.9908 46.0564 35.2051 42.1149C36.8995 40.8337 38.1165 39.0807 39.1214 37.537C42.1641 32.8726 45.7622 28.8027 51.4426 30.5837C51.5766 30.6255 51.7162 30.6925 51.8781 30.7707C52.0651 30.86 52.2522 30.9493 52.4503 31.0191C52.5313 31.047 52.6346 31.0889 52.7546 31.1363C53.4776 31.4239 54.0331 31.622 54.5048 31.5551C54.823 31.5104 55.0938 31.2983 55.2138 30.9996C55.599 30.0533 54.7588 29.3024 54.3094 28.9004C54.2368 28.8362 54.1698 28.7776 54.1252 28.7302C53.8488 28.4287 53.5446 28.1942 53.2487 27.9653C52.9081 27.7001 52.5843 27.4489 52.3973 27.1586C50.4098 24.0602 50.3596 21.0008 52.2549 18.3155C55.1692 14.1786 62.2146 11.7445 67.6383 13.0007C70.2762 13.6092 73.5812 15.3231 74.3377 20.0182L74.8932 23.4684C74.9713 23.9597 75.4291 24.2974 75.926 24.2193C76.4173 24.1439 76.755 23.6833 76.6825 23.192C76.2442 20.2359 75.7473 16.8863 76.7411 13.9414C77.3747 12.0655 78.6643 10.2065 80.6909 8.26085C87.9709 1.26282 98.9941 -1.62627 108.77 0.902736C113.367 2.09187 117.13 4.53993 120.613 8.60421C122.855 11.2197 125.554 14.7509 126.537 18.8542C127.96 24.8166 125.479 31.5746 120.359 35.6724C115.569 39.5077 108.803 40.9341 102.263 39.4882C100.401 39.0779 98.7205 38.4554 97.2523 37.6626C96.4316 36.9564 95.5216 36.3088 94.5111 35.7394C94.3073 35.5523 94.1036 35.3653 93.9137 35.1699C89.7462 30.807 90.3575 23.8564 93.3108 19.9205C95.9235 16.4452 99.7896 15.686 103.924 17.8381C105.211 18.5081 106.721 19.9456 106.989 21.5144C107.128 22.3351 106.897 23.0553 106.28 23.7168C105.939 24.0825 105.959 24.6547 106.324 24.9953C106.69 25.3358 107.262 25.3163 107.603 24.9506C108.605 23.8787 109.01 22.5835 108.772 21.2073C108.396 19.0189 106.486 17.1291 104.758 16.2303C99.8315 13.6678 95.0108 14.6392 91.8621 18.8319C88.9255 22.7426 88.0239 29.2522 90.9409 34.2069C88.1328 33.3388 84.811 33.0122 80.9477 33.509C76.9532 34.0199 71.6272 36.4009 69.7542 41.4226C67.7444 46.81 70.9936 52.457 75.0718 55.0363C77.7599 56.7362 81.5423 57.1354 84.2695 56.0133C86.3491 55.1563 87.7113 53.5401 88.2137 51.3433C88.9925 47.9266 86.966 44.4094 83.7838 43.6641C82.028 43.2538 80.3811 43.505 79.3762 44.3369C78.8402 44.7807 78.2177 45.6097 78.2819 47.0445C78.321 47.9322 78.8318 48.8143 79.6162 49.3418C80.3364 49.8275 81.1822 49.9559 81.9359 49.688C82.4076 49.5205 82.656 49.0041 82.4886 48.5323C82.3211 48.0606 81.8047 47.8149 81.3329 47.9796C81.037 48.0829 80.7411 47.9154 80.6267 47.8373C80.3141 47.6251 80.1019 47.2818 80.088 46.9608C80.0628 46.3969 80.208 45.995 80.529 45.727C81.0817 45.2664 82.1955 45.1464 83.3651 45.4227C85.8271 46.0005 86.9436 48.7389 86.4412 50.9357C86.0699 52.5575 85.1041 53.702 83.5716 54.3356C81.3553 55.2512 78.254 54.9079 76.0321 53.5038C72.5568 51.307 69.7682 46.5448 71.443 42.0535C73.0341 37.7882 77.6762 35.7505 81.171 35.3039C86.2904 34.6479 90.3659 35.544 93.456 37.2411C94.2543 37.9446 95.1643 38.567 96.1552 39.1225C97.9222 40.6662 99.1923 42.4973 99.9739 44.348C102.408 50.0843 100.92 57.9477 96.8726 63.5026C96.7945 63.5277 96.7163 63.5612 96.6437 63.6114C96.4009 63.7761 96.2669 64.0357 96.2529 64.3065C95.2592 65.5347 94.1343 66.6317 92.8893 67.5362C87.5019 71.4497 78.6225 72.3597 73.0927 69.5627C69.2183 67.6032 65.9914 64.0357 63.9286 59.4551C64.9251 59.148 65.8267 58.7181 66.6055 58.1738C68.5372 56.82 69.743 54.6622 69.7486 52.5464C69.7486 52.0467 69.3467 51.6392 68.847 51.6392H68.8442C68.3446 51.6392 67.9398 52.0439 67.9398 52.5408C67.9342 54.0788 67.0242 55.6671 65.5671 56.6916C64.2803 57.596 62.5412 58.1124 60.5426 58.1906C56.2494 58.3608 52.2717 56.5492 48.0064 52.5073C47.6436 52.1639 47.0713 52.1779 46.728 52.5408C46.3846 52.9037 46.3986 53.4759 46.7615 53.822C51.1523 57.984 55.4986 60.0133 60.0262 60.0133C60.2216 60.0133 60.417 60.0106 60.6124 60.0022C61.1093 59.9826 61.5866 59.9352 62.0555 59.8682C62.7115 62.8578 59.6884 65.758 57.6647 67.0672C54.3345 69.2221 49.7259 69.585 45.6338 68.0107C41.8542 66.5564 38.5799 63.2011 36.397 58.559C37.7732 57.007 38.3454 54.9302 38.1305 53.1325C37.8541 50.8129 36.1821 48.3034 32.316 48.2169C31.8443 48.2057 30.1862 48.2783 28.9021 49.6545C27.8442 50.7878 27.4059 52.4096 27.5985 54.4724C27.646 54.9693 28.0954 55.335 28.5839 55.2903C29.0808 55.2429 29.4492 54.8018 29.4018 54.3049C29.2594 52.778 29.5386 51.6308 30.2253 50.8911C30.8394 50.2351 31.6963 50.0173 32.2741 50.0285C35.5903 50.1039 36.2184 52.3761 36.3328 53.3475C36.5896 55.4997 35.2497 58.1487 32.5672 58.8605C29.0752 59.7872 23.5231 58.5506 21.1364 55.2959C20.5754 54.531 20.6703 53.9225 20.8154 52.9986C20.9327 52.2533 21.0639 51.4075 20.8071 50.4165C20.179 47.9936 17.9906 48.1136 16.687 48.1862C16.2599 48.2113 15.8663 48.2085 15.4113 48.2364C15.0903 48.256 14.7246 48.2783 14.5264 48.2169C12.726 47.681 12.2766 45.9391 11.7964 43.3431C11.6708 42.662 11.5536 42.02 11.3833 41.4115C10.6213 38.6564 8.75941 36.6521 5.85078 35.4519L5.85914 35.4435Z"/>
</mask>
<path d="M5.85914 35.4435C4.00007 34.6758 1.97352 34.8684 0 35.1001C0.692268 34.8238 1.35942 34.5111 2.0126 34.2069C2.30012 34.0729 2.58762 33.9389 2.87514 33.8077C5.42368 32.6521 7.92757 31.689 10.5012 32.5795C13.5187 33.6235 16.1817 36.1218 18.1636 38.179C18.2362 38.2544 18.292 38.3437 18.3534 38.4303C18.4707 38.5977 18.6158 38.8071 18.8224 38.9969C22.5489 42.4108 29.9908 46.0564 35.2051 42.1149C36.8995 40.8337 38.1165 39.0807 39.1214 37.537C42.1641 32.8726 45.7622 28.8027 51.4426 30.5837C51.5766 30.6255 51.7162 30.6925 51.8781 30.7707C52.0651 30.86 52.2522 30.9493 52.4503 31.0191C52.5313 31.047 52.6346 31.0889 52.7546 31.1363C53.4776 31.4239 54.0331 31.622 54.5048 31.5551C54.823 31.5104 55.0938 31.2983 55.2138 30.9996C55.599 30.0533 54.7588 29.3024 54.3094 28.9004C54.2368 28.8362 54.1698 28.7776 54.1252 28.7302C53.8488 28.4287 53.5446 28.1942 53.2487 27.9653C52.9081 27.7001 52.5843 27.4489 52.3973 27.1586C50.4098 24.0602 50.3596 21.0008 52.2549 18.3155C55.1692 14.1786 62.2146 11.7445 67.6383 13.0007C70.2762 13.6092 73.5812 15.3231 74.3377 20.0182L74.8932 23.4684C74.9713 23.9597 75.4291 24.2974 75.926 24.2193C76.4173 24.1439 76.755 23.6833 76.6825 23.192C76.2442 20.2359 75.7473 16.8863 76.7411 13.9414C77.3747 12.0655 78.6643 10.2065 80.6909 8.26085C87.9709 1.26282 98.9941 -1.62627 108.77 0.902736C113.367 2.09187 117.13 4.53993 120.613 8.60421C122.855 11.2197 125.554 14.7509 126.537 18.8542C127.96 24.8166 125.479 31.5746 120.359 35.6724C115.569 39.5077 108.803 40.9341 102.263 39.4882C100.401 39.0779 98.7205 38.4554 97.2523 37.6626C96.4316 36.9564 95.5216 36.3088 94.5111 35.7394C94.3073 35.5523 94.1036 35.3653 93.9137 35.1699C89.7462 30.807 90.3575 23.8564 93.3108 19.9205C95.9235 16.4452 99.7896 15.686 103.924 17.8381C105.211 18.5081 106.721 19.9456 106.989 21.5144C107.128 22.3351 106.897 23.0553 106.28 23.7168C105.939 24.0825 105.959 24.6547 106.324 24.9953C106.69 25.3358 107.262 25.3163 107.603 24.9506C108.605 23.8787 109.01 22.5835 108.772 21.2073C108.396 19.0189 106.486 17.1291 104.758 16.2303C99.8315 13.6678 95.0108 14.6392 91.8621 18.8319C88.9255 22.7426 88.0239 29.2522 90.9409 34.2069C88.1328 33.3388 84.811 33.0122 80.9477 33.509C76.9532 34.0199 71.6272 36.4009 69.7542 41.4226C67.7444 46.81 70.9936 52.457 75.0718 55.0363C77.7599 56.7362 81.5423 57.1354 84.2695 56.0133C86.3491 55.1563 87.7113 53.5401 88.2137 51.3433C88.9925 47.9266 86.966 44.4094 83.7838 43.6641C82.028 43.2538 80.3811 43.505 79.3762 44.3369C78.8402 44.7807 78.2177 45.6097 78.2819 47.0445C78.321 47.9322 78.8318 48.8143 79.6162 49.3418C80.3364 49.8275 81.1822 49.9559 81.9359 49.688C82.4076 49.5205 82.656 49.0041 82.4886 48.5323C82.3211 48.0606 81.8047 47.8149 81.3329 47.9796C81.037 48.0829 80.7411 47.9154 80.6267 47.8373C80.3141 47.6251 80.1019 47.2818 80.088 46.9608C80.0628 46.3969 80.208 45.995 80.529 45.727C81.0817 45.2664 82.1955 45.1464 83.3651 45.4227C85.8271 46.0005 86.9436 48.7389 86.4412 50.9357C86.0699 52.5575 85.1041 53.702 83.5716 54.3356C81.3553 55.2512 78.254 54.9079 76.0321 53.5038C72.5568 51.307 69.7682 46.5448 71.443 42.0535C73.0341 37.7882 77.6762 35.7505 81.171 35.3039C86.2904 34.6479 90.3659 35.544 93.456 37.2411C94.2543 37.9446 95.1643 38.567 96.1552 39.1225C97.9222 40.6662 99.1923 42.4973 99.9739 44.348C102.408 50.0843 100.92 57.9477 96.8726 63.5026C96.7945 63.5277 96.7163 63.5612 96.6437 63.6114C96.4009 63.7761 96.2669 64.0357 96.2529 64.3065C95.2592 65.5347 94.1343 66.6317 92.8893 67.5362C87.5019 71.4497 78.6225 72.3597 73.0927 69.5627C69.2183 67.6032 65.9914 64.0357 63.9286 59.4551C64.9251 59.148 65.8267 58.7181 66.6055 58.1738C68.5372 56.82 69.743 54.6622 69.7486 52.5464C69.7486 52.0467 69.3467 51.6392 68.847 51.6392H68.8442C68.3446 51.6392 67.9398 52.0439 67.9398 52.5408C67.9342 54.0788 67.0242 55.6671 65.5671 56.6916C64.2803 57.596 62.5412 58.1124 60.5426 58.1906C56.2494 58.3608 52.2717 56.5492 48.0064 52.5073C47.6436 52.1639 47.0713 52.1779 46.728 52.5408C46.3846 52.9037 46.3986 53.4759 46.7615 53.822C51.1523 57.984 55.4986 60.0133 60.0262 60.0133C60.2216 60.0133 60.417 60.0106 60.6124 60.0022C61.1093 59.9826 61.5866 59.9352 62.0555 59.8682C62.7115 62.8578 59.6884 65.758 57.6647 67.0672C54.3345 69.2221 49.7259 69.585 45.6338 68.0107C41.8542 66.5564 38.5799 63.2011 36.397 58.559C37.7732 57.007 38.3454 54.9302 38.1305 53.1325C37.8541 50.8129 36.1821 48.3034 32.316 48.2169C31.8443 48.2057 30.1862 48.2783 28.9021 49.6545C27.8442 50.7878 27.4059 52.4096 27.5985 54.4724C27.646 54.9693 28.0954 55.335 28.5839 55.2903C29.0808 55.2429 29.4492 54.8018 29.4018 54.3049C29.2594 52.778 29.5386 51.6308 30.2253 50.8911C30.8394 50.2351 31.6963 50.0173 32.2741 50.0285C35.5903 50.1039 36.2184 52.3761 36.3328 53.3475C36.5896 55.4997 35.2497 58.1487 32.5672 58.8605C29.0752 59.7872 23.5231 58.5506 21.1364 55.2959C20.5754 54.531 20.6703 53.9225 20.8154 52.9986C20.9327 52.2533 21.0639 51.4075 20.8071 50.4165C20.179 47.9936 17.9906 48.1136 16.687 48.1862C16.2599 48.2113 15.8663 48.2085 15.4113 48.2364C15.0903 48.256 14.7246 48.2783 14.5264 48.2169C12.726 47.681 12.2766 45.9391 11.7964 43.3431C11.6708 42.662 11.5536 42.02 11.3833 41.4115C10.6213 38.6564 8.75941 36.6521 5.85078 35.4519L5.85914 35.4435Z" fill="url(#paint0_linear_2013_5)" fill-opacity="0.48" stroke="url(#paint1_linear_2013_5)" stroke-width="2.06799" mask="url(#path-1-inside-1_2013_5)"/>
<path d="M127.992 28.9807C126.752 32.2319 124.644 35.2204 121.814 37.4836C116.469 41.7635 108.969 43.3488 101.761 41.7551L101.759 41.7542C101.578 41.7135 101.398 41.6698 101.221 41.6252C101.567 42.2216 101.87 42.8268 102.128 43.4338C104.87 49.9017 103.371 58.3582 99.0421 64.5002C100.478 66.2942 102.332 67.7656 104.332 68.4739C106.423 69.2143 108.679 69.1274 110.846 67.6946C111.402 67.3261 111.956 66.9148 112.407 66.5432C112.768 66.2467 113.037 65.9951 113.195 65.8215C113.197 65.429 113.358 65.0379 113.677 64.7581H113.678C114.267 64.2429 115.165 64.2971 115.684 64.8889C115.996 65.2438 116.298 65.5952 116.589 65.9397C118.247 67.8864 119.6 69.465 121.982 70.4387C124.167 71.3325 126.741 71.6395 129.107 71.3L129.576 71.2239C133.454 70.5154 135.558 68.6804 138.601 66.009H138.602L139.779 64.9817C140.234 64.5891 140.716 64.1191 141.232 63.6067C139.239 64.5892 137.157 65.4245 134.973 65.7444V65.7454C134.04 65.8831 133.11 65.9485 132.192 65.9485C128.008 65.9485 124.032 64.5621 121.199 62.0051C120.615 61.4778 120.573 60.5783 121.098 59.9963C121.625 59.4121 122.524 59.3698 123.107 59.8948C125.902 62.4156 130.175 63.5731 134.563 62.9329C137.379 62.5217 140.187 60.9973 143.004 59.4592C146.609 57.4909 150.468 55.3794 154.711 55.5969C155.4 55.5971 156.107 55.6589 156.84 55.7991H156.841C157.064 55.8423 157.263 55.9375 157.431 56.0657C157.884 56.1986 158.348 56.3508 158.822 56.554C160.668 57.3396 162.335 58.4329 163.908 59.4583H163.909C166.883 61.4021 169.532 63.1099 172.948 62.9172C174.812 62.812 176.145 62.2037 177.219 61.1956C178.311 60.1707 179.164 58.7063 180.006 56.8352C180.359 56.0481 180.873 54.9024 181.631 53.8391C182.121 53.1514 182.726 52.4813 183.472 51.9583C183.113 51.9244 182.726 51.9136 182.286 51.927H182.285C181.838 51.9406 181.425 52.1008 180.83 52.3391V52.3401C180.591 52.4363 180.33 52.5413 180.061 52.6331V52.634C179.413 52.8572 178.838 53.1121 178.26 53.3674V53.3684C176.769 54.0309 175.264 54.7028 172.942 54.5217L172.943 54.5208C171.618 54.4175 170.126 54.2622 168.765 53.5784C166.047 52.2135 164.446 49.8303 162.975 47.6584C161.872 46.0301 160.875 44.5701 159.538 43.4973L159.267 43.2883C155.833 40.7608 150.906 40.6344 147.429 42.9231C147.497 43.7677 147.49 44.6184 147.393 45.4651L147.339 45.8713C146.898 48.8085 145.314 51.5524 142.99 53.4036C140.884 55.0813 137.714 55.9612 134.654 55.9612C132.963 55.9612 131.274 55.694 129.79 55.1213L129.496 55.0022C126.736 53.8398 124.991 51.6797 124.617 48.9026L124.585 48.6321C124.177 44.5866 127.043 41.8762 129.825 41.0608L130.125 40.9797C133.115 40.2352 135.95 41.4686 137.456 44.1643L137.603 44.4387C137.958 45.1403 137.677 45.9959 136.976 46.3508V46.3499C136.276 46.7053 135.419 46.4242 135.065 45.7239C134.525 44.6592 133.78 44.0834 133.006 43.8147C132.319 43.5761 131.581 43.5703 130.908 43.719L130.624 43.7922C128.875 44.3041 127.172 45.9566 127.414 48.3469C127.602 50.2047 128.641 51.5568 130.598 52.3801C132.189 53.0497 134.217 53.2572 136.181 53.0325C138.148 52.8073 139.986 52.1557 141.217 51.176C142.871 49.8576 144.033 47.9376 144.448 45.8635L144.522 45.4465C144.884 43.0208 144.309 40.4614 143.192 38.1458C142.145 35.9752 140.637 34.0507 139.04 32.6897L138.72 32.425C136.113 30.3424 132.33 29.1235 127.992 28.9807Z" fill="url(#paint2_linear_2013_5)" fill-opacity="0.48" stroke="url(#paint3_linear_2013_5)" stroke-width="1.03399"/>
</g>
<g opacity="0.5">
<mask id="path-3-inside-2_2013_5" fill="white">
<path d="M1791.14 35.4435C1793 34.6758 1795.03 34.8684 1797 35.1001C1796.31 34.8238 1795.64 34.5111 1794.99 34.2069C1794.7 34.0729 1794.41 33.9389 1794.13 33.8077C1791.58 32.6521 1789.07 31.689 1786.5 32.5795C1783.48 33.6235 1780.82 36.1218 1778.84 38.179C1778.76 38.2544 1778.71 38.3437 1778.65 38.4303C1778.53 38.5977 1778.38 38.8071 1778.18 38.9969C1774.45 42.4108 1767.01 46.0564 1761.8 42.1149C1760.1 40.8337 1758.88 39.0807 1757.88 37.537C1754.84 32.8726 1751.24 28.8027 1745.56 30.5837C1745.42 30.6255 1745.28 30.6925 1745.12 30.7707C1744.94 30.86 1744.75 30.9493 1744.55 31.0191C1744.47 31.047 1744.37 31.0889 1744.25 31.1363C1743.52 31.4239 1742.97 31.622 1742.5 31.5551C1742.18 31.5104 1741.91 31.2983 1741.79 30.9996C1741.4 30.0533 1742.24 29.3024 1742.69 28.9004C1742.76 28.8362 1742.83 28.7776 1742.88 28.7302C1743.15 28.4287 1743.46 28.1942 1743.75 27.9653C1744.09 27.7001 1744.42 27.4489 1744.6 27.1586C1746.59 24.0602 1746.64 21.0008 1744.75 18.3155C1741.83 14.1786 1734.79 11.7445 1729.36 13.0007C1726.72 13.6092 1723.42 15.3231 1722.66 20.0182L1722.11 23.4684C1722.03 23.9597 1721.57 24.2974 1721.07 24.2193C1720.58 24.1439 1720.25 23.6833 1720.32 23.192C1720.76 20.2359 1721.25 16.8863 1720.26 13.9414C1719.63 12.0655 1718.34 10.2065 1716.31 8.26085C1709.03 1.26282 1698.01 -1.62627 1688.23 0.902736C1683.63 2.09187 1679.87 4.53993 1676.39 8.60421C1674.15 11.2197 1671.45 14.7509 1670.46 18.8542C1669.04 24.8166 1671.52 31.5746 1676.64 35.6724C1681.43 39.5077 1688.2 40.9341 1694.74 39.4882C1696.6 39.0779 1698.28 38.4554 1699.75 37.6626C1700.57 36.9564 1701.48 36.3088 1702.49 35.7394C1702.69 35.5523 1702.9 35.3653 1703.09 35.1699C1707.25 30.807 1706.64 23.8564 1703.69 19.9205C1701.08 16.4452 1697.21 15.686 1693.08 17.8381C1691.79 18.5081 1690.28 19.9456 1690.01 21.5144C1689.87 22.3351 1690.1 23.0553 1690.72 23.7168C1691.06 24.0825 1691.04 24.6547 1690.68 24.9953C1690.31 25.3358 1689.74 25.3163 1689.4 24.9506C1688.4 23.8787 1687.99 22.5835 1688.23 21.2073C1688.6 19.0189 1690.51 17.1291 1692.24 16.2303C1697.17 13.6678 1701.99 14.6392 1705.14 18.8319C1708.07 22.7426 1708.98 29.2522 1706.06 34.2069C1708.87 33.3388 1712.19 33.0122 1716.05 33.509C1720.05 34.0199 1725.37 36.4009 1727.25 41.4226C1729.26 46.81 1726.01 52.457 1721.93 55.0363C1719.24 56.7362 1715.46 57.1354 1712.73 56.0133C1710.65 55.1563 1709.29 53.5401 1708.79 51.3433C1708.01 47.9266 1710.03 44.4094 1713.22 43.6641C1714.97 43.2538 1716.62 43.505 1717.62 44.3369C1718.16 44.7807 1718.78 45.6097 1718.72 47.0445C1718.68 47.9322 1718.17 48.8143 1717.38 49.3418C1716.66 49.8275 1715.82 49.9559 1715.06 49.688C1714.59 49.5205 1714.34 49.0041 1714.51 48.5323C1714.68 48.0606 1715.2 47.8149 1715.67 47.9796C1715.96 48.0829 1716.26 47.9154 1716.37 47.8373C1716.69 47.6251 1716.9 47.2818 1716.91 46.9608C1716.94 46.3969 1716.79 45.995 1716.47 45.727C1715.92 45.2664 1714.8 45.1464 1713.64 45.4227C1711.17 46.0005 1710.06 48.7389 1710.56 50.9357C1710.93 52.5575 1711.9 53.702 1713.43 54.3356C1715.64 55.2512 1718.75 54.9079 1720.97 53.5038C1724.44 51.307 1727.23 46.5448 1725.56 42.0535C1723.97 37.7882 1719.32 35.7505 1715.83 35.3039C1710.71 34.6479 1706.63 35.544 1703.54 37.2411C1702.75 37.9446 1701.84 38.567 1700.84 39.1225C1699.08 40.6662 1697.81 42.4973 1697.03 44.348C1694.59 50.0843 1696.08 57.9477 1700.13 63.5026C1700.21 63.5277 1700.28 63.5612 1700.36 63.6114C1700.6 63.7761 1700.73 64.0357 1700.75 64.3065C1701.74 65.5347 1702.87 66.6317 1704.11 67.5362C1709.5 71.4497 1718.38 72.3597 1723.91 69.5627C1727.78 67.6032 1731.01 64.0357 1733.07 59.4551C1732.08 59.148 1731.17 58.7181 1730.39 58.1738C1728.46 56.82 1727.26 54.6622 1727.25 52.5464C1727.25 52.0467 1727.65 51.6392 1728.15 51.6392H1728.16C1728.66 51.6392 1729.06 52.0439 1729.06 52.5408C1729.07 54.0788 1729.98 55.6671 1731.43 56.6916C1732.72 57.596 1734.46 58.1124 1736.46 58.1906C1740.75 58.3608 1744.73 56.5492 1748.99 52.5073C1749.36 52.1639 1749.93 52.1779 1750.27 52.5408C1750.62 52.9037 1750.6 53.4759 1750.24 53.822C1745.85 57.984 1741.5 60.0133 1736.97 60.0133C1736.78 60.0133 1736.58 60.0106 1736.39 60.0022C1735.89 59.9826 1735.41 59.9352 1734.94 59.8682C1734.29 62.8578 1737.31 65.758 1739.34 67.0672C1742.67 69.2221 1747.27 69.585 1751.37 68.0107C1755.15 66.5564 1758.42 63.2011 1760.6 58.559C1759.23 57.007 1758.65 54.9302 1758.87 53.1325C1759.15 50.8129 1760.82 48.3034 1764.68 48.2169C1765.16 48.2057 1766.81 48.2783 1768.1 49.6545C1769.16 50.7878 1769.59 52.4096 1769.4 54.4724C1769.35 54.9693 1768.9 55.335 1768.42 55.2903C1767.92 55.2429 1767.55 54.8018 1767.6 54.3049C1767.74 52.778 1767.46 51.6308 1766.77 50.8911C1766.16 50.2351 1765.3 50.0173 1764.73 50.0285C1761.41 50.1039 1760.78 52.3761 1760.67 53.3475C1760.41 55.4997 1761.75 58.1487 1764.43 58.8605C1767.93 59.7872 1773.48 58.5506 1775.86 55.2959C1776.42 54.531 1776.33 53.9225 1776.18 52.9986C1776.07 52.2533 1775.94 51.4075 1776.19 50.4165C1776.82 47.9936 1779.01 48.1136 1780.31 48.1862C1780.74 48.2113 1781.13 48.2085 1781.59 48.2364C1781.91 48.256 1782.28 48.2783 1782.47 48.2169C1784.27 47.681 1784.72 45.9391 1785.2 43.3431C1785.33 42.662 1785.45 42.02 1785.62 41.4115C1786.38 38.6564 1788.24 36.6521 1791.15 35.4519L1791.14 35.4435Z"/>
</mask>
<path d="M1791.14 35.4435C1793 34.6758 1795.03 34.8684 1797 35.1001C1796.31 34.8238 1795.64 34.5111 1794.99 34.2069C1794.7 34.0729 1794.41 33.9389 1794.13 33.8077C1791.58 32.6521 1789.07 31.689 1786.5 32.5795C1783.48 33.6235 1780.82 36.1218 1778.84 38.179C1778.76 38.2544 1778.71 38.3437 1778.65 38.4303C1778.53 38.5977 1778.38 38.8071 1778.18 38.9969C1774.45 42.4108 1767.01 46.0564 1761.8 42.1149C1760.1 40.8337 1758.88 39.0807 1757.88 37.537C1754.84 32.8726 1751.24 28.8027 1745.56 30.5837C1745.42 30.6255 1745.28 30.6925 1745.12 30.7707C1744.94 30.86 1744.75 30.9493 1744.55 31.0191C1744.47 31.047 1744.37 31.0889 1744.25 31.1363C1743.52 31.4239 1742.97 31.622 1742.5 31.5551C1742.18 31.5104 1741.91 31.2983 1741.79 30.9996C1741.4 30.0533 1742.24 29.3024 1742.69 28.9004C1742.76 28.8362 1742.83 28.7776 1742.88 28.7302C1743.15 28.4287 1743.46 28.1942 1743.75 27.9653C1744.09 27.7001 1744.42 27.4489 1744.6 27.1586C1746.59 24.0602 1746.64 21.0008 1744.75 18.3155C1741.83 14.1786 1734.79 11.7445 1729.36 13.0007C1726.72 13.6092 1723.42 15.3231 1722.66 20.0182L1722.11 23.4684C1722.03 23.9597 1721.57 24.2974 1721.07 24.2193C1720.58 24.1439 1720.25 23.6833 1720.32 23.192C1720.76 20.2359 1721.25 16.8863 1720.26 13.9414C1719.63 12.0655 1718.34 10.2065 1716.31 8.26085C1709.03 1.26282 1698.01 -1.62627 1688.23 0.902736C1683.63 2.09187 1679.87 4.53993 1676.39 8.60421C1674.15 11.2197 1671.45 14.7509 1670.46 18.8542C1669.04 24.8166 1671.52 31.5746 1676.64 35.6724C1681.43 39.5077 1688.2 40.9341 1694.74 39.4882C1696.6 39.0779 1698.28 38.4554 1699.75 37.6626C1700.57 36.9564 1701.48 36.3088 1702.49 35.7394C1702.69 35.5523 1702.9 35.3653 1703.09 35.1699C1707.25 30.807 1706.64 23.8564 1703.69 19.9205C1701.08 16.4452 1697.21 15.686 1693.08 17.8381C1691.79 18.5081 1690.28 19.9456 1690.01 21.5144C1689.87 22.3351 1690.1 23.0553 1690.72 23.7168C1691.06 24.0825 1691.04 24.6547 1690.68 24.9953C1690.31 25.3358 1689.74 25.3163 1689.4 24.9506C1688.4 23.8787 1687.99 22.5835 1688.23 21.2073C1688.6 19.0189 1690.51 17.1291 1692.24 16.2303C1697.17 13.6678 1701.99 14.6392 1705.14 18.8319C1708.07 22.7426 1708.98 29.2522 1706.06 34.2069C1708.87 33.3388 1712.19 33.0122 1716.05 33.509C1720.05 34.0199 1725.37 36.4009 1727.25 41.4226C1729.26 46.81 1726.01 52.457 1721.93 55.0363C1719.24 56.7362 1715.46 57.1354 1712.73 56.0133C1710.65 55.1563 1709.29 53.5401 1708.79 51.3433C1708.01 47.9266 1710.03 44.4094 1713.22 43.6641C1714.97 43.2538 1716.62 43.505 1717.62 44.3369C1718.16 44.7807 1718.78 45.6097 1718.72 47.0445C1718.68 47.9322 1718.17 48.8143 1717.38 49.3418C1716.66 49.8275 1715.82 49.9559 1715.06 49.688C1714.59 49.5205 1714.34 49.0041 1714.51 48.5323C1714.68 48.0606 1715.2 47.8149 1715.67 47.9796C1715.96 48.0829 1716.26 47.9154 1716.37 47.8373C1716.69 47.6251 1716.9 47.2818 1716.91 46.9608C1716.94 46.3969 1716.79 45.995 1716.47 45.727C1715.92 45.2664 1714.8 45.1464 1713.64 45.4227C1711.17 46.0005 1710.06 48.7389 1710.56 50.9357C1710.93 52.5575 1711.9 53.702 1713.43 54.3356C1715.64 55.2512 1718.75 54.9079 1720.97 53.5038C1724.44 51.307 1727.23 46.5448 1725.56 42.0535C1723.97 37.7882 1719.32 35.7505 1715.83 35.3039C1710.71 34.6479 1706.63 35.544 1703.54 37.2411C1702.75 37.9446 1701.84 38.567 1700.84 39.1225C1699.08 40.6662 1697.81 42.4973 1697.03 44.348C1694.59 50.0843 1696.08 57.9477 1700.13 63.5026C1700.21 63.5277 1700.28 63.5612 1700.36 63.6114C1700.6 63.7761 1700.73 64.0357 1700.75 64.3065C1701.74 65.5347 1702.87 66.6317 1704.11 67.5362C1709.5 71.4497 1718.38 72.3597 1723.91 69.5627C1727.78 67.6032 1731.01 64.0357 1733.07 59.4551C1732.08 59.148 1731.17 58.7181 1730.39 58.1738C1728.46 56.82 1727.26 54.6622 1727.25 52.5464C1727.25 52.0467 1727.65 51.6392 1728.15 51.6392H1728.16C1728.66 51.6392 1729.06 52.0439 1729.06 52.5408C1729.07 54.0788 1729.98 55.6671 1731.43 56.6916C1732.72 57.596 1734.46 58.1124 1736.46 58.1906C1740.75 58.3608 1744.73 56.5492 1748.99 52.5073C1749.36 52.1639 1749.93 52.1779 1750.27 52.5408C1750.62 52.9037 1750.6 53.4759 1750.24 53.822C1745.85 57.984 1741.5 60.0133 1736.97 60.0133C1736.78 60.0133 1736.58 60.0106 1736.39 60.0022C1735.89 59.9826 1735.41 59.9352 1734.94 59.8682C1734.29 62.8578 1737.31 65.758 1739.34 67.0672C1742.67 69.2221 1747.27 69.585 1751.37 68.0107C1755.15 66.5564 1758.42 63.2011 1760.6 58.559C1759.23 57.007 1758.65 54.9302 1758.87 53.1325C1759.15 50.8129 1760.82 48.3034 1764.68 48.2169C1765.16 48.2057 1766.81 48.2783 1768.1 49.6545C1769.16 50.7878 1769.59 52.4096 1769.4 54.4724C1769.35 54.9693 1768.9 55.335 1768.42 55.2903C1767.92 55.2429 1767.55 54.8018 1767.6 54.3049C1767.74 52.778 1767.46 51.6308 1766.77 50.8911C1766.16 50.2351 1765.3 50.0173 1764.73 50.0285C1761.41 50.1039 1760.78 52.3761 1760.67 53.3475C1760.41 55.4997 1761.75 58.1487 1764.43 58.8605C1767.93 59.7872 1773.48 58.5506 1775.86 55.2959C1776.42 54.531 1776.33 53.9225 1776.18 52.9986C1776.07 52.2533 1775.94 51.4075 1776.19 50.4165C1776.82 47.9936 1779.01 48.1136 1780.31 48.1862C1780.74 48.2113 1781.13 48.2085 1781.59 48.2364C1781.91 48.256 1782.28 48.2783 1782.47 48.2169C1784.27 47.681 1784.72 45.9391 1785.2 43.3431C1785.33 42.662 1785.45 42.02 1785.62 41.4115C1786.38 38.6564 1788.24 36.6521 1791.15 35.4519L1791.14 35.4435Z" fill="url(#paint4_linear_2013_5)" fill-opacity="0.48" stroke="url(#paint5_linear_2013_5)" stroke-width="2.06799" mask="url(#path-3-inside-2_2013_5)"/>
<path d="M1669.01 28.9807C1670.25 32.2319 1672.36 35.2204 1675.19 37.4836C1680.53 41.7635 1688.03 43.3488 1695.24 41.7551L1695.24 41.7542C1695.42 41.7135 1695.6 41.6698 1695.78 41.6252C1695.43 42.2216 1695.13 42.8268 1694.87 43.4338C1692.13 49.9017 1693.63 58.3582 1697.96 64.5002C1696.52 66.2942 1694.67 67.7656 1692.67 68.4739C1690.58 69.2143 1688.32 69.1274 1686.15 67.6946C1685.6 67.3261 1685.04 66.9148 1684.59 66.5432C1684.23 66.2467 1683.96 65.9951 1683.8 65.8215C1683.8 65.429 1683.64 65.0379 1683.32 64.7581H1683.32C1682.73 64.2429 1681.84 64.2971 1681.32 64.8889C1681 65.2438 1680.7 65.5952 1680.41 65.9397C1678.75 67.8864 1677.4 69.465 1675.02 70.4387C1672.83 71.3325 1670.26 71.6395 1667.89 71.3L1667.42 71.2239C1663.55 70.5154 1661.44 68.6804 1658.4 66.009H1658.4L1657.22 64.9817C1656.77 64.5891 1656.28 64.1191 1655.77 63.6067C1657.76 64.5892 1659.84 65.4245 1662.03 65.7444V65.7454C1662.96 65.8831 1663.89 65.9485 1664.81 65.9485C1668.99 65.9485 1672.97 64.5621 1675.8 62.0051C1676.38 61.4778 1676.43 60.5783 1675.9 59.9963C1675.38 59.4121 1674.48 59.3698 1673.89 59.8948C1671.1 62.4156 1666.83 63.5731 1662.44 62.9329C1659.62 62.5217 1656.81 60.9973 1654 59.4592C1650.39 57.4909 1646.53 55.3794 1642.29 55.5969C1641.6 55.5971 1640.89 55.6589 1640.16 55.7991H1640.16C1639.94 55.8423 1639.74 55.9375 1639.57 56.0657C1639.12 56.1986 1638.65 56.3508 1638.18 56.554C1636.33 57.3396 1634.66 58.4329 1633.09 59.4583H1633.09C1630.12 61.4021 1627.47 63.1099 1624.05 62.9172C1622.19 62.812 1620.86 62.2037 1619.78 61.1956C1618.69 60.1707 1617.84 58.7063 1616.99 56.8352C1616.64 56.0481 1616.13 54.9024 1615.37 53.8391C1614.88 53.1514 1614.27 52.4813 1613.53 51.9583C1613.89 51.9244 1614.27 51.9136 1614.71 51.927H1614.71C1615.16 51.9406 1615.58 52.1008 1616.17 52.3391V52.3401C1616.41 52.4363 1616.67 52.5413 1616.94 52.6331V52.634C1617.59 52.8572 1618.16 53.1121 1618.74 53.3674V53.3684C1620.23 54.0309 1621.74 54.7028 1624.06 54.5217L1624.06 54.5208C1625.38 54.4175 1626.87 54.2622 1628.24 53.5784C1630.95 52.2135 1632.55 49.8303 1634.03 47.6584C1635.13 46.0301 1636.13 44.5701 1637.46 43.4973L1637.73 43.2883C1641.17 40.7608 1646.09 40.6344 1649.57 42.9231C1649.5 43.7677 1649.51 44.6184 1649.61 45.4651L1649.66 45.8713C1650.1 48.8085 1651.69 51.5524 1654.01 53.4036C1656.12 55.0813 1659.29 55.9612 1662.35 55.9612C1664.04 55.9612 1665.73 55.694 1667.21 55.1213L1667.5 55.0022C1670.26 53.8398 1672.01 51.6797 1672.38 48.9026L1672.42 48.6321C1672.82 44.5866 1669.96 41.8762 1667.17 41.0608L1666.88 40.9797C1663.89 40.2352 1661.05 41.4686 1659.54 44.1643L1659.4 44.4387C1659.04 45.1403 1659.32 45.9959 1660.02 46.3508V46.3499C1660.72 46.7053 1661.58 46.4242 1661.94 45.7239C1662.47 44.6592 1663.22 44.0834 1663.99 43.8147C1664.68 43.5761 1665.42 43.5703 1666.09 43.719L1666.38 43.7922C1668.13 44.3041 1669.83 45.9566 1669.59 48.3469C1669.4 50.2047 1668.36 51.5568 1666.4 52.3801C1664.81 53.0497 1662.78 53.2572 1660.82 53.0325C1658.85 52.8073 1657.01 52.1557 1655.78 51.176C1654.13 49.8576 1652.97 47.9376 1652.55 45.8635L1652.48 45.4465C1652.12 43.0208 1652.69 40.4614 1653.81 38.1458C1654.85 35.9752 1656.36 34.0507 1657.96 32.6897L1658.28 32.425C1660.89 30.3424 1664.67 29.1235 1669.01 28.9807Z" fill="url(#paint6_linear_2013_5)" fill-opacity="0.48" stroke="url(#paint7_linear_2013_5)" stroke-width="1.03399"/>
</g>
<defs>
<linearGradient id="paint0_linear_2013_5" x1="126.934" y1="35.5927" x2="0" y2="35.5927" gradientUnits="userSpaceOnUse">
<stop stop-color="#FCF0D6"/>
<stop offset="1" stop-color="#FFC446"/>
</linearGradient>
<linearGradient id="paint1_linear_2013_5" x1="126.934" y1="35.5927" x2="0" y2="35.5927" gradientUnits="userSpaceOnUse">
<stop stop-color="#FCF0D6"/>
<stop offset="1" stop-color="#FFC446"/>
</linearGradient>
<linearGradient id="paint2_linear_2013_5" x1="185" y1="50.2015" x2="98.397" y2="50.2015" gradientUnits="userSpaceOnUse">
<stop stop-color="#FCF0D6"/>
<stop offset="1" stop-color="#FFC446"/>
</linearGradient>
<linearGradient id="paint3_linear_2013_5" x1="185" y1="50.2015" x2="98.397" y2="50.2015" gradientUnits="userSpaceOnUse">
<stop stop-color="#FCF0D6"/>
<stop offset="1" stop-color="#FFC446"/>
</linearGradient>
<linearGradient id="paint4_linear_2013_5" x1="1670.07" y1="35.5927" x2="1797" y2="35.5927" gradientUnits="userSpaceOnUse">
<stop stop-color="#FCF0D6"/>
<stop offset="1" stop-color="#FFC446"/>
</linearGradient>
<linearGradient id="paint5_linear_2013_5" x1="1670.07" y1="35.5927" x2="1797" y2="35.5927" gradientUnits="userSpaceOnUse">
<stop stop-color="#FCF0D6"/>
<stop offset="1" stop-color="#FFC446"/>
</linearGradient>
<linearGradient id="paint6_linear_2013_5" x1="1612" y1="50.2015" x2="1698.6" y2="50.2015" gradientUnits="userSpaceOnUse">
<stop stop-color="#FCF0D6"/>
<stop offset="1" stop-color="#FFC446"/>
</linearGradient>
<linearGradient id="paint7_linear_2013_5" x1="1612" y1="50.2015" x2="1698.6" y2="50.2015" gradientUnits="userSpaceOnUse">
<stop stop-color="#FCF0D6"/>
<stop offset="1" stop-color="#FFC446"/>
</linearGradient>
</defs>
</svg>
