<svg xmlns="http://www.w3.org/2000/svg" width="1797" height="72" fill="none" viewBox="0 0 1797 72"><g opacity=".5"><mask id="c" fill="#fff"><path d="M5.86 35.44C4 34.68 1.97 34.87 0 35.1c.69-.28 1.36-.59 2.01-.89.29-.14.58-.27.87-.4 2.54-1.16 5.05-2.12 7.62-1.23 3.02 1.04 5.68 3.54 7.66 5.6.08.07.13.16.19.25.12.17.27.38.47.57 3.73 3.41 11.17 7.06 16.39 3.11 1.69-1.28 2.91-3.03 3.91-4.57 3.04-4.67 6.64-8.74 12.32-6.96.14.05.28.11.44.19.19.09.37.18.57.25q.12.045.3.12c.73.28 1.28.48 1.75.42.32-.05.59-.26.71-.56.39-.95-.45-1.7-.9-2.1-.07-.06-.14-.12-.18-.17-.28-.3-.59-.54-.88-.76-.34-.27-.67-.52-.85-.81-1.99-3.1-2.04-6.16-.15-8.84 2.92-4.14 9.96-6.58 15.39-5.32 2.64.61 5.94 2.32 6.7 7.02l.55 3.45c.08.49.54.83 1.04.75a.91.91 0 0 0 .75-1.03c-.44-2.95-.93-6.3.06-9.25.63-1.87 1.92-3.73 3.95-5.68 7.28-7 18.3-9.89 28.08-7.36 4.6 1.19 8.36 3.64 11.84 7.7 2.25 2.62 4.94 6.15 5.93 10.25 1.42 5.97-1.06 12.72-6.18 16.82-4.79 3.84-11.56 5.26-18.1 3.82-1.86-.41-3.54-1.03-5.01-1.83-.82-.7-1.73-1.35-2.74-1.92-.2-.19-.41-.37-.6-.57-4.16-4.36-3.55-11.31-.6-15.25 2.61-3.47 6.48-4.23 10.61-2.08 1.29.67 2.8 2.11 3.07 3.67.14.83-.09 1.55-.71 2.21-.34.36-.32.93.04 1.28.37.34.94.32 1.28-.05 1.01-1.07 1.41-2.37 1.17-3.74-.37-2.19-2.28-4.08-4.01-4.98-4.93-2.56-9.75-1.59-12.9 2.6-2.93 3.91-3.84 10.42-.92 15.38-2.81-.87-6.13-1.2-9.99-.7-4 .51-9.32 2.89-11.2 7.91-2.01 5.39 1.24 11.04 5.32 13.62 2.69 1.7 6.47 2.1 9.2.97 2.08-.85 3.44-2.47 3.94-4.67.78-3.41-1.24-6.93-4.43-7.68-1.75-.41-3.4-.15-4.4.68-.54.44-1.16 1.27-1.1 2.7.04.89.55 1.77 1.34 2.3.72.49 1.56.62 2.32.35a.91.91 0 0 0 .55-1.16.91.91 0 0 0-1.16-.55c-.29.1-.59-.06-.7-.14-.32-.21-.53-.56-.54-.88-.03-.56.12-.97.44-1.23.55-.46 1.67-.58 2.84-.31 2.46.58 3.57 3.32 3.07 5.52-.37 1.62-1.34 2.76-2.87 3.4-2.21.91-5.32.57-7.54-.84-3.47-2.19-6.26-6.96-4.59-11.45 1.59-4.26 6.24-6.3 9.73-6.75 5.12-.65 9.2.24 12.29 1.94.79.7 1.7 1.33 2.7 1.88 1.76 1.55 3.03 3.38 3.81 5.23 2.44 5.73.95 13.6-3.1 19.15-.08.03-.15.06-.23.11-.24.17-.37.43-.39.7-.99 1.22-2.12 2.32-3.36 3.23-5.39 3.91-14.27 4.82-19.8 2.02-3.87-1.96-7.1-5.52-9.16-10.1 1-.31 1.9-.74 2.68-1.29 1.93-1.35 3.13-3.51 3.14-5.62 0-.5-.4-.91-.9-.91h-.01c-.5 0-.9.4-.9.9-.01 1.54-.92 3.13-2.37 4.15-1.29.91-3.03 1.42-5.03 1.5-4.29.17-8.27-1.64-12.53-5.68a.9.9 0 0 0-1.28.03c-.35.36-.33.94.03 1.28 4.39 4.16 8.74 6.19 13.27 6.19.19 0 .39 0 .58-.01.5-.02.98-.06 1.45-.13.65 2.99-2.37 5.89-4.4 7.2-3.33 2.15-7.93 2.51-12.03.94-3.78-1.45-7.05-4.81-9.23-9.45 1.37-1.55 1.95-3.63 1.73-5.43-.28-2.32-1.95-4.83-5.81-4.91-.48-.01-2.13.06-3.42 1.43-1.06 1.14-1.49 2.76-1.3 4.82.05.5.5.87.98.82.5-.05.87-.49.82-.99-.14-1.52.14-2.67.83-3.41.61-.65 1.47-.87 2.04-.86 3.32.07 3.95 2.35 4.06 3.32.26 2.15-1.08 4.8-3.76 5.51-3.49.93-9.05-.31-11.43-3.56-.56-.77-.47-1.38-.32-2.3.11-.75.24-1.59-.01-2.58-.63-2.43-2.82-2.31-4.12-2.23-.43.02-.82.02-1.28.05-.32.02-.69.04-.88-.02-1.8-.54-2.25-2.28-2.73-4.88-.13-.68-.25-1.32-.42-1.93-.76-2.75-2.62-4.76-5.53-5.96z"/></mask><path fill="url(#a)" fill-opacity=".48" stroke="url(#b)" stroke-width="2.07" d="M5.86 35.44C4 34.68 1.97 34.87 0 35.1c.69-.28 1.36-.59 2.01-.89.29-.14.58-.27.87-.4 2.54-1.16 5.05-2.12 7.62-1.23 3.02 1.04 5.68 3.54 7.66 5.6.08.07.13.16.19.25.12.17.27.38.47.57 3.73 3.41 11.17 7.06 16.39 3.11 1.69-1.28 2.91-3.03 3.91-4.57 3.04-4.67 6.64-8.74 12.32-6.96.14.05.28.11.44.19.19.09.37.18.57.25q.12.045.3.12c.73.28 1.28.48 1.75.42.32-.05.59-.26.71-.56.39-.95-.45-1.7-.9-2.1-.07-.06-.14-.12-.18-.17-.28-.3-.59-.54-.88-.76-.34-.27-.67-.52-.85-.81-1.99-3.1-2.04-6.16-.15-8.84 2.92-4.14 9.96-6.58 15.39-5.32 2.64.61 5.94 2.32 6.7 7.02l.55 3.45c.08.49.54.83 1.04.75a.91.91 0 0 0 .75-1.03c-.44-2.95-.93-6.3.06-9.25.63-1.87 1.92-3.73 3.95-5.68 7.28-7 18.3-9.89 28.08-7.36 4.6 1.19 8.36 3.64 11.84 7.7 2.25 2.62 4.94 6.15 5.93 10.25 1.42 5.97-1.06 12.72-6.18 16.82-4.79 3.84-11.56 5.26-18.1 3.82-1.86-.41-3.54-1.03-5.01-1.83-.82-.7-1.73-1.35-2.74-1.92-.2-.19-.41-.37-.6-.57-4.16-4.36-3.55-11.31-.6-15.25 2.61-3.47 6.48-4.23 10.61-2.08 1.29.67 2.8 2.11 3.07 3.67.14.83-.09 1.55-.71 2.21-.34.36-.32.93.04 1.28.37.34.94.32 1.28-.05 1.01-1.07 1.41-2.37 1.17-3.74-.37-2.19-2.28-4.08-4.01-4.98-4.93-2.56-9.75-1.59-12.9 2.6-2.93 3.91-3.84 10.42-.92 15.38-2.81-.87-6.13-1.2-9.99-.7-4 .51-9.32 2.89-11.2 7.91-2.01 5.39 1.24 11.04 5.32 13.62 2.69 1.7 6.47 2.1 9.2.97 2.08-.85 3.44-2.47 3.94-4.67.78-3.41-1.24-6.93-4.43-7.68-1.75-.41-3.4-.15-4.4.68-.54.44-1.16 1.27-1.1 2.7.04.89.55 1.77 1.34 2.3.72.49 1.56.62 2.32.35a.91.91 0 0 0 .55-1.16.91.91 0 0 0-1.16-.55c-.29.1-.59-.06-.7-.14-.32-.21-.53-.56-.54-.88-.03-.56.12-.97.44-1.23.55-.46 1.67-.58 2.84-.31 2.46.58 3.57 3.32 3.07 5.52-.37 1.62-1.34 2.76-2.87 3.4-2.21.91-5.32.57-7.54-.84-3.47-2.19-6.26-6.96-4.59-11.45 1.59-4.26 6.24-6.3 9.73-6.75 5.12-.65 9.2.24 12.29 1.94.79.7 1.7 1.33 2.7 1.88 1.76 1.55 3.03 3.38 3.81 5.23 2.44 5.73.95 13.6-3.1 19.15-.08.03-.15.06-.23.11-.24.17-.37.43-.39.7-.99 1.22-2.12 2.32-3.36 3.23-5.39 3.91-14.27 4.82-19.8 2.02-3.87-1.96-7.1-5.52-9.16-10.1 1-.31 1.9-.74 2.68-1.29 1.93-1.35 3.13-3.51 3.14-5.62 0-.5-.4-.91-.9-.91h-.01c-.5 0-.9.4-.9.9-.01 1.54-.92 3.13-2.37 4.15-1.29.91-3.03 1.42-5.03 1.5-4.29.17-8.27-1.64-12.53-5.68a.9.9 0 0 0-1.28.03c-.35.36-.33.94.03 1.28 4.39 4.16 8.74 6.19 13.27 6.19.19 0 .39 0 .58-.01.5-.02.98-.06 1.45-.13.65 2.99-2.37 5.89-4.4 7.2-3.33 2.15-7.93 2.51-12.03.94-3.78-1.45-7.05-4.81-9.23-9.45 1.37-1.55 1.95-3.63 1.73-5.43-.28-2.32-1.95-4.83-5.81-4.91-.48-.01-2.13.06-3.42 1.43-1.06 1.14-1.49 2.76-1.3 4.82.05.5.5.87.98.82.5-.05.87-.49.82-.99-.14-1.52.14-2.67.83-3.41.61-.65 1.47-.87 2.04-.86 3.32.07 3.95 2.35 4.06 3.32.26 2.15-1.08 4.8-3.76 5.51-3.49.93-9.05-.31-11.43-3.56-.56-.77-.47-1.38-.32-2.3.11-.75.24-1.59-.01-2.58-.63-2.43-2.82-2.31-4.12-2.23-.43.02-.82.02-1.28.05-.32.02-.69.04-.88-.02-1.8-.54-2.25-2.28-2.73-4.88-.13-.68-.25-1.32-.42-1.93-.76-2.75-2.62-4.76-5.53-5.96z" mask="url(#c)"/><path fill="url(#d)" fill-opacity=".48" stroke="url(#e)" stroke-width="1.03" d="M127.99 28.98c-1.24 3.25-3.35 6.24-6.18 8.5-5.34 4.28-12.84 5.87-20.05 4.28v-.01l-.54-.12c.35.59.65 1.2.91 1.8 2.74 6.47 1.24 14.93-3.09 21.07 1.44 1.79 3.29 3.27 5.29 3.97 2.09.74 4.35.66 6.52-.78.55-.36 1.11-.78 1.56-1.15.36-.29.63-.54.78-.72.01-.39.17-.78.49-1.06.59-.52 1.49-.46 2 .13.32.35.62.71.91 1.05 1.66 1.95 3.01 3.53 5.39 4.5 2.19.89 4.76 1.2 7.13.86l.47-.08c3.87-.7 5.98-2.54 9.02-5.21l1.18-1.03c.45-.39.94-.86 1.45-1.37-1.99.98-4.07 1.81-6.26 2.13v.01c-.93.13-1.86.2-2.78.2-4.18 0-8.16-1.39-10.99-3.94-.59-.53-.63-1.43-.1-2.01.53-.59 1.42-.63 2.01-.11 2.79 2.53 7.07 3.68 11.45 3.04 2.82-.41 5.63-1.93 8.44-3.47 3.61-1.97 7.47-4.08 11.71-3.86.69 0 1.4.06 2.13.2.22.04.42.14.59.27.45.13.92.28 1.39.48 1.85.79 3.52 1.88 5.09 2.91 2.97 1.94 5.62 3.65 9.04 3.46 1.86-.11 3.2-.72 4.27-1.72 1.09-1.03 1.94-2.49 2.79-4.36.35-.79.86-1.94 1.62-3 .49-.69 1.1-1.36 1.84-1.88-.36-.04-.74-.05-1.18-.03h-.01c-.44.01-.85.17-1.45.41-.24.1-.5.2-.77.29-.65.23-1.22.48-1.8.74-1.49.66-3 1.33-5.32 1.15-1.32-.1-2.81-.26-4.18-.94-2.71-1.37-4.31-3.75-5.79-5.92-1.1-1.63-2.09-3.09-3.43-4.16l-.27-.21c-3.44-2.53-8.36-2.66-11.84-.37.07.85.06 1.7-.04 2.55l-.05.4c-.44 2.94-2.03 5.68-4.35 7.53-2.11 1.68-5.28 2.56-8.34 2.56-1.69 0-3.38-.27-4.86-.84l-.29-.12c-2.76-1.16-4.51-3.32-4.88-6.1l-.04-.27c-.4-4.04 2.46-6.75 5.24-7.57l.31-.08c2.99-.74 5.82.49 7.33 3.18l.14.28c.36.7.08 1.56-.62 1.91-.7.36-1.56.07-1.92-.63-.53-1.06-1.28-1.64-2.05-1.91-.69-.23-1.43-.24-2.1-.09l-.29.07c-1.74.51-3.45 2.17-3.21 4.56.19 1.85 1.23 3.21 3.19 4.03 1.59.67 3.62.88 5.58.65 1.97-.22 3.81-.87 5.04-1.85a9.2 9.2 0 0 0 3.23-5.32l.07-.41c.36-2.43-.21-4.99-1.33-7.3-1.04-2.17-2.55-4.1-4.15-5.46l-.32-.27c-2.61-2.08-6.39-3.3-10.73-3.44Z"/></g><g opacity=".5"><mask id="h" fill="#fff"><path d="M1791.14 35.44c1.86-.76 3.89-.57 5.86-.34-.69-.28-1.36-.59-2.01-.89-.29-.14-.58-.27-.86-.4-2.55-1.16-5.06-2.12-7.63-1.23-3.02 1.04-5.68 3.54-7.66 5.6-.08.07-.13.16-.19.25-.12.17-.27.38-.47.57-3.73 3.41-11.17 7.06-16.38 3.11-1.7-1.28-2.92-3.03-3.92-4.57-3.04-4.67-6.64-8.74-12.32-6.96-.14.05-.28.11-.44.19-.18.09-.37.18-.57.25q-.12.045-.3.12c-.73.28-1.28.48-1.75.42a.91.91 0 0 1-.71-.56c-.39-.95.45-1.7.9-2.1.07-.06.14-.12.19-.17.27-.3.58-.54.87-.76.34-.27.67-.52.85-.81 1.99-3.1 2.04-6.16.15-8.84-2.92-4.14-9.96-6.58-15.39-5.32-2.64.61-5.94 2.32-6.7 7.02l-.55 3.45c-.08.49-.54.83-1.04.75a.91.91 0 0 1-.75-1.03c.44-2.95.93-6.3-.06-9.25-.63-1.87-1.92-3.73-3.95-5.68-7.28-7-18.3-9.89-28.08-7.36-4.6 1.19-8.36 3.64-11.84 7.7-2.24 2.62-4.94 6.15-5.93 10.25-1.42 5.97 1.06 12.72 6.18 16.82 4.79 3.84 11.56 5.26 18.1 3.82 1.86-.41 3.54-1.03 5.01-1.83.82-.7 1.73-1.35 2.74-1.92.2-.19.41-.37.6-.57 4.16-4.36 3.55-11.31.6-15.25-2.61-3.47-6.48-4.23-10.61-2.08-1.29.67-2.8 2.11-3.07 3.67-.14.83.09 1.55.71 2.21.34.36.32.93-.04 1.28-.37.34-.94.32-1.28-.05-1-1.07-1.41-2.37-1.17-3.74.37-2.19 2.28-4.08 4.01-4.98 4.93-2.56 9.75-1.59 12.9 2.6 2.93 3.91 3.84 10.42.92 15.38 2.81-.87 6.13-1.2 9.99-.7 4 .51 9.32 2.89 11.2 7.91 2.01 5.39-1.24 11.04-5.32 13.62-2.69 1.7-6.47 2.1-9.2.97-2.08-.85-3.44-2.47-3.94-4.67-.78-3.41 1.24-6.93 4.43-7.68 1.75-.41 3.4-.15 4.4.68.54.44 1.16 1.27 1.1 2.7-.04.89-.55 1.77-1.34 2.3-.72.49-1.56.62-2.32.35a.91.91 0 0 1-.55-1.16.91.91 0 0 1 1.16-.55c.29.1.59-.06.7-.14.32-.21.53-.56.54-.88.03-.56-.12-.97-.44-1.23-.55-.46-1.67-.58-2.83-.31-2.47.58-3.58 3.32-3.08 5.52.37 1.62 1.34 2.76 2.87 3.4 2.21.91 5.32.57 7.54-.84 3.47-2.19 6.26-6.96 4.59-11.45-1.59-4.26-6.24-6.3-9.73-6.75-5.12-.65-9.2.24-12.29 1.94-.79.7-1.7 1.33-2.7 1.88-1.76 1.55-3.03 3.38-3.81 5.23-2.44 5.73-.95 13.6 3.1 19.15.08.03.15.06.23.11.24.17.37.43.39.7.99 1.22 2.12 2.32 3.36 3.23 5.39 3.91 14.27 4.82 19.8 2.02 3.87-1.96 7.1-5.52 9.16-10.1-.99-.31-1.9-.74-2.68-1.29-1.93-1.35-3.13-3.51-3.14-5.62 0-.5.4-.91.9-.91h.01c.5 0 .9.4.9.9.01 1.54.92 3.13 2.37 4.15 1.29.91 3.03 1.42 5.03 1.5 4.29.17 8.27-1.64 12.53-5.68.37-.35.94-.33 1.28.03.35.36.33.94-.03 1.28-4.39 4.16-8.74 6.19-13.27 6.19-.19 0-.39 0-.58-.01-.5-.02-.98-.06-1.45-.13-.65 2.99 2.37 5.89 4.4 7.2 3.33 2.15 7.93 2.51 12.03.94 3.78-1.45 7.05-4.81 9.23-9.45-1.37-1.55-1.95-3.63-1.73-5.43.28-2.32 1.95-4.83 5.81-4.91.48-.01 2.13.06 3.42 1.43 1.06 1.14 1.49 2.76 1.3 4.82-.05.5-.5.87-.98.82a.91.91 0 0 1-.82-.99c.14-1.52-.14-2.67-.83-3.41-.61-.65-1.47-.87-2.04-.86-3.32.07-3.95 2.35-4.06 3.32-.26 2.15 1.08 4.8 3.76 5.51 3.5.93 9.05-.31 11.43-3.56.56-.77.47-1.38.32-2.3-.11-.75-.24-1.59.01-2.58.63-2.43 2.82-2.31 4.12-2.23.43.02.82.02 1.28.05.32.02.69.04.88-.02 1.8-.54 2.25-2.28 2.73-4.88.13-.68.25-1.32.42-1.93.76-2.75 2.62-4.76 5.53-5.96z"/></mask><path fill="url(#f)" fill-opacity=".48" stroke="url(#g)" stroke-width="2.07" d="M1791.14 35.44c1.86-.76 3.89-.57 5.86-.34-.69-.28-1.36-.59-2.01-.89-.29-.14-.58-.27-.86-.4-2.55-1.16-5.06-2.12-7.63-1.23-3.02 1.04-5.68 3.54-7.66 5.6-.08.07-.13.16-.19.25-.12.17-.27.38-.47.57-3.73 3.41-11.17 7.06-16.38 3.11-1.7-1.28-2.92-3.03-3.92-4.57-3.04-4.67-6.64-8.74-12.32-6.96-.14.05-.28.11-.44.19-.18.09-.37.18-.57.25q-.12.045-.3.12c-.73.28-1.28.48-1.75.42a.91.91 0 0 1-.71-.56c-.39-.95.45-1.7.9-2.1.07-.06.14-.12.19-.17.27-.3.58-.54.87-.76.34-.27.67-.52.85-.81 1.99-3.1 2.04-6.16.15-8.84-2.92-4.14-9.96-6.58-15.39-5.32-2.64.61-5.94 2.32-6.7 7.02l-.55 3.45c-.08.49-.54.83-1.04.75a.91.91 0 0 1-.75-1.03c.44-2.95.93-6.3-.06-9.25-.63-1.87-1.92-3.73-3.95-5.68-7.28-7-18.3-9.89-28.08-7.36-4.6 1.19-8.36 3.64-11.84 7.7-2.24 2.62-4.94 6.15-5.93 10.25-1.42 5.97 1.06 12.72 6.18 16.82 4.79 3.84 11.56 5.26 18.1 3.82 1.86-.41 3.54-1.03 5.01-1.83.82-.7 1.73-1.35 2.74-1.92.2-.19.41-.37.6-.57 4.16-4.36 3.55-11.31.6-15.25-2.61-3.47-6.48-4.23-10.61-2.08-1.29.67-2.8 2.11-3.07 3.67-.14.83.09 1.55.71 2.21.34.36.32.93-.04 1.28-.37.34-.94.32-1.28-.05-1-1.07-1.41-2.37-1.17-3.74.37-2.19 2.28-4.08 4.01-4.98 4.93-2.56 9.75-1.59 12.9 2.6 2.93 3.91 3.84 10.42.92 15.38 2.81-.87 6.13-1.2 9.99-.7 4 .51 9.32 2.89 11.2 7.91 2.01 5.39-1.24 11.04-5.32 13.62-2.69 1.7-6.47 2.1-9.2.97-2.08-.85-3.44-2.47-3.94-4.67-.78-3.41 1.24-6.93 4.43-7.68 1.75-.41 3.4-.15 4.4.68.54.44 1.16 1.27 1.1 2.7-.04.89-.55 1.77-1.34 2.3-.72.49-1.56.62-2.32.35a.91.91 0 0 1-.55-1.16.91.91 0 0 1 1.16-.55c.29.1.59-.06.7-.14.32-.21.53-.56.54-.88.03-.56-.12-.97-.44-1.23-.55-.46-1.67-.58-2.83-.31-2.47.58-3.58 3.32-3.08 5.52.37 1.62 1.34 2.76 2.87 3.4 2.21.91 5.32.57 7.54-.84 3.47-2.19 6.26-6.96 4.59-11.45-1.59-4.26-6.24-6.3-9.73-6.75-5.12-.65-9.2.24-12.29 1.94-.79.7-1.7 1.33-2.7 1.88-1.76 1.55-3.03 3.38-3.81 5.23-2.44 5.73-.95 13.6 3.1 19.15.08.03.15.06.23.11.24.17.37.43.39.7.99 1.22 2.12 2.32 3.36 3.23 5.39 3.91 14.27 4.82 19.8 2.02 3.87-1.96 7.1-5.52 9.16-10.1-.99-.31-1.9-.74-2.68-1.29-1.93-1.35-3.13-3.51-3.14-5.62 0-.5.4-.91.9-.91h.01c.5 0 .9.4.9.9.01 1.54.92 3.13 2.37 4.15 1.29.91 3.03 1.42 5.03 1.5 4.29.17 8.27-1.64 12.53-5.68.37-.35.94-.33 1.28.03.35.36.33.94-.03 1.28-4.39 4.16-8.74 6.19-13.27 6.19-.19 0-.39 0-.58-.01-.5-.02-.98-.06-1.45-.13-.65 2.99 2.37 5.89 4.4 7.2 3.33 2.15 7.93 2.51 12.03.94 3.78-1.45 7.05-4.81 9.23-9.45-1.37-1.55-1.95-3.63-1.73-5.43.28-2.32 1.95-4.83 5.81-4.91.48-.01 2.13.06 3.42 1.43 1.06 1.14 1.49 2.76 1.3 4.82-.05.5-.5.87-.98.82a.91.91 0 0 1-.82-.99c.14-1.52-.14-2.67-.83-3.41-.61-.65-1.47-.87-2.04-.86-3.32.07-3.95 2.35-4.06 3.32-.26 2.15 1.08 4.8 3.76 5.51 3.5.93 9.05-.31 11.43-3.56.56-.77.47-1.38.32-2.3-.11-.75-.24-1.59.01-2.58.63-2.43 2.82-2.31 4.12-2.23.43.02.82.02 1.28.05.32.02.69.04.88-.02 1.8-.54 2.25-2.28 2.73-4.88.13-.68.25-1.32.42-1.93.76-2.75 2.62-4.76 5.53-5.96z" mask="url(#h)"/><path fill="url(#i)" fill-opacity=".48" stroke="url(#j)" stroke-width="1.03" d="M1669.01 28.98c1.24 3.25 3.35 6.24 6.18 8.5 5.34 4.28 12.84 5.87 20.05 4.28v-.01l.54-.12c-.35.59-.65 1.2-.91 1.8-2.74 6.47-1.24 14.93 3.09 21.07-1.44 1.79-3.29 3.27-5.29 3.97-2.09.74-4.35.66-6.52-.78-.55-.36-1.11-.78-1.56-1.15-.36-.29-.63-.54-.79-.72 0-.39-.16-.78-.48-1.06-.59-.52-1.48-.46-2 .13-.32.35-.62.71-.91 1.05-1.66 1.95-3.01 3.53-5.39 4.5-2.19.89-4.76 1.2-7.13.86l-.47-.08c-3.87-.7-5.98-2.54-9.02-5.21l-1.18-1.03c-.45-.39-.94-.86-1.45-1.37 1.99.98 4.07 1.81 6.26 2.13v.01c.93.13 1.86.2 2.78.2 4.18 0 8.16-1.39 10.99-3.94.58-.53.63-1.43.1-2.01-.52-.59-1.42-.63-2.01-.11-2.79 2.53-7.06 3.68-11.45 3.04-2.82-.41-5.63-1.93-8.44-3.47-3.61-1.97-7.47-4.08-11.71-3.86-.69 0-1.4.06-2.13.2-.22.04-.42.14-.59.27-.45.13-.92.28-1.39.48-1.85.79-3.52 1.88-5.09 2.91-2.97 1.94-5.62 3.65-9.04 3.46-1.86-.11-3.19-.72-4.27-1.72-1.09-1.03-1.94-2.49-2.79-4.36-.35-.79-.86-1.94-1.62-3-.49-.69-1.1-1.36-1.84-1.88.36-.04.74-.05 1.18-.03.45.01.87.17 1.46.41.24.1.5.2.77.29.65.23 1.22.48 1.8.74 1.49.66 3 1.33 5.32 1.15 1.32-.1 2.81-.26 4.18-.94 2.71-1.37 4.31-3.75 5.79-5.92 1.1-1.63 2.1-3.09 3.43-4.16l.27-.21c3.44-2.53 8.36-2.66 11.84-.37-.07.85-.06 1.7.04 2.55l.05.4c.44 2.94 2.03 5.68 4.35 7.53 2.11 1.68 5.28 2.56 8.34 2.56 1.69 0 3.38-.27 4.86-.84l.29-.12c2.76-1.16 4.51-3.32 4.88-6.1l.04-.27c.4-4.04-2.46-6.75-5.25-7.57l-.29-.08c-2.99-.74-5.83.49-7.34 3.18l-.14.28c-.36.7-.08 1.56.62 1.91.7.36 1.56.07 1.92-.63.53-1.06 1.28-1.64 2.05-1.91.69-.23 1.43-.24 2.1-.09l.29.07c1.75.51 3.45 2.17 3.21 4.56-.19 1.85-1.23 3.21-3.19 4.03-1.59.67-3.62.88-5.58.65-1.97-.22-3.81-.87-5.04-1.85a9.2 9.2 0 0 1-3.23-5.32l-.07-.41c-.36-2.43.21-4.99 1.33-7.3 1.04-2.17 2.55-4.1 4.15-5.46l.32-.27c2.61-2.08 6.39-3.3 10.73-3.44Z"/></g><defs><linearGradient id="a" x1="126.93" x2="0" y1="35.59" y2="35.59" gradientUnits="userSpaceOnUse"><stop stop-color="#fcf0d6"/><stop offset="1" stop-color="#ffc446"/></linearGradient><linearGradient id="b" x1="126.93" x2="0" y1="35.59" y2="35.59" gradientUnits="userSpaceOnUse"><stop stop-color="#fcf0d6"/><stop offset="1" stop-color="#ffc446"/></linearGradient><linearGradient id="d" x1="185" x2="98.4" y1="50.2" y2="50.2" gradientUnits="userSpaceOnUse"><stop stop-color="#fcf0d6"/><stop offset="1" stop-color="#ffc446"/></linearGradient><linearGradient id="e" x1="185" x2="98.4" y1="50.2" y2="50.2" gradientUnits="userSpaceOnUse"><stop stop-color="#fcf0d6"/><stop offset="1" stop-color="#ffc446"/></linearGradient><linearGradient id="f" x1="1670.07" x2="1797" y1="35.59" y2="35.59" gradientUnits="userSpaceOnUse"><stop stop-color="#fcf0d6"/><stop offset="1" stop-color="#ffc446"/></linearGradient><linearGradient id="g" x1="1670.07" x2="1797" y1="35.59" y2="35.59" gradientUnits="userSpaceOnUse"><stop stop-color="#fcf0d6"/><stop offset="1" stop-color="#ffc446"/></linearGradient><linearGradient id="i" x1="1612" x2="1698.6" y1="50.2" y2="50.2" gradientUnits="userSpaceOnUse"><stop stop-color="#fcf0d6"/><stop offset="1" stop-color="#ffc446"/></linearGradient><linearGradient id="j" x1="1612" x2="1698.6" y1="50.2" y2="50.2" gradientUnits="userSpaceOnUse"><stop stop-color="#fcf0d6"/><stop offset="1" stop-color="#ffc446"/></linearGradient></defs></svg>