<svg xmlns="http://www.w3.org/2000/svg" width="531" height="207" fill="none" viewBox="0 0 531 207"><g opacity=".5"><mask id="c" fill="#fff"><path d="M16.82 101.73c-5.34-2.2-11.16-1.65-16.82-.98 1.99-.8 3.9-1.69 5.78-2.57.82-.38 1.65-.77 2.47-1.14 7.32-3.32 14.5-6.08 21.89-3.53 8.66 3 16.31 10.17 21.99 16.07.21.22.37.48.55.73.34.48.75 1.08 1.35 1.62 10.69 9.8 32.05 20.26 47.02 8.95 4.86-3.68 8.36-8.71 11.24-13.14 8.73-13.39 19.06-25.07 35.36-19.96.39.12.79.32 1.25.54.54.26 1.08.51 1.65.71.23.08.52.2.87.34 2.08.82 3.67 1.39 5.02 1.2a2.6 2.6 0 0 0 2.04-1.59c1.1-2.72-1.31-4.87-2.6-6.03-.21-.18-.4-.35-.53-.49-.79-.86-1.66-1.53-2.51-2.19-.98-.76-1.91-1.48-2.45-2.32-5.7-8.89-5.84-17.67-.4-25.38 8.36-11.87 28.58-18.86 44.15-15.25 7.57 1.74 17.06 6.66 19.23 20.14l1.59 9.9a2.6 2.6 0 0 0 5.14-.79c-1.26-8.49-2.69-18.1.17-26.55 1.82-5.39 5.52-10.72 11.33-16.31 20.9-20.09 52.54-28.38 80.6-21.12C325.39 6 336.19 13.03 346.19 24.7c6.44 7.5 14.19 17.64 17 29.42 4.09 17.11-3.03 36.51-17.73 48.27-13.74 11.01-33.17 15.1-51.94 10.95-5.34-1.18-10.16-2.96-14.38-5.24a49 49 0 0 0-7.87-5.52c-.58-.53-1.17-1.07-1.71-1.63-11.96-12.53-10.21-32.48-1.73-43.77 7.5-9.98 18.59-12.16 30.46-5.98 3.69 1.92 8.03 6.05 8.8 10.55.4 2.36-.27 4.42-2.04 6.32-.98 1.05-.92 2.7.13 3.67 1.05.98 2.69.92 3.67-.12 2.88-3.08 4.04-6.8 3.36-10.75-1.08-6.28-6.57-11.7-11.52-14.28-14.15-7.36-27.98-4.57-37.02 7.46-8.43 11.23-11.02 29.91-2.65 44.13-8.05-2.49-17.59-3.43-28.68-2-11.46 1.47-26.75 8.3-32.13 22.71-5.77 15.47 3.56 31.68 15.27 39.08 7.71 4.88 18.57 6.02 26.4 2.8 5.96-2.46 9.87-7.09 11.32-13.4 2.23-9.81-3.58-19.9-12.72-22.04-5.04-1.18-9.76-.46-12.65 1.93-1.54 1.27-3.32 3.65-3.14 7.77.11 2.55 1.58 5.08 3.83 6.59 2.07 1.4 4.49 1.77 6.66 1a2.59 2.59 0 0 0 1.58-3.32 2.593 2.593 0 0 0-3.31-1.58c-.85.29-1.7-.19-2.03-.41-.9-.61-1.51-1.6-1.55-2.52-.07-1.62.35-2.77 1.27-3.54 1.59-1.32 4.78-1.67 8.14-.87 7.07 1.65 10.27 9.51 8.83 15.82-1.07 4.65-3.84 7.94-8.24 9.76-6.36 2.63-15.26 1.64-21.64-2.39-9.97-6.31-17.98-19.97-13.17-32.87 4.57-12.24 17.89-18.09 27.92-19.37 14.7-1.88 26.4.69 35.26 5.56 2.3 2.02 4.91 3.81 7.75 5.4 5.07 4.43 8.72 9.69 10.96 15 6.99 16.47 2.72 39.04-8.9 54.98-.22.07-.45.17-.66.31-.69.48-1.08 1.22-1.12 2-2.85 3.52-6.08 6.67-9.65 9.27-15.47 11.23-40.95 13.84-56.82 5.81-11.12-5.62-20.39-15.86-26.31-29.01 2.86-.88 5.45-2.11 7.69-3.68 5.54-3.88 9-10.07 9.02-16.15a2.6 2.6 0 0 0-2.59-2.6h-.01a2.59 2.59 0 0 0-2.59 2.59c-.02 4.41-2.63 8.97-6.82 11.91-3.69 2.6-8.68 4.08-14.42 4.3-12.32.49-23.74-4.71-35.98-16.31a2.584 2.584 0 0 0-3.67.1c-.98 1.04-.94 2.68.1 3.67 12.6 11.95 25.08 17.77 38.07 17.77.56 0 1.12 0 1.68-.03 1.43-.05 2.8-.19 4.15-.38 1.88 8.58-6.8 16.9-12.61 20.66-9.55 6.19-22.78 7.23-34.53 2.71-10.85-4.18-20.25-13.81-26.51-27.13 3.95-4.45 5.59-10.42 4.97-15.58-.79-6.65-5.59-13.86-16.68-14.1-1.36-.04-6.12.17-9.8 4.12-3.04 3.26-4.3 7.91-3.74 13.83a2.61 2.61 0 0 0 2.82 2.35c1.43-.14 2.49-1.4 2.35-2.83-.41-4.38.39-7.68 2.36-9.8 1.77-1.88 4.23-2.51 5.89-2.48 9.51.22 11.32 6.74 11.64 9.53.74 6.18-3.1 13.78-10.8 15.83-10.03 2.66-25.96-.89-32.81-10.24-1.61-2.19-1.34-3.94-.92-6.59.33-2.14.71-4.57-.03-7.41-1.8-6.96-8.08-6.61-11.82-6.4-1.23.07-2.36.06-3.67.14-.92.06-1.97.12-2.54-.05-5.16-1.54-6.45-6.54-7.83-13.99-.36-1.96-.7-3.8-1.19-5.55-2.18-7.91-7.53-13.66-15.88-17.1z"/></mask><path fill="url(#a)" fill-opacity=".48" stroke="url(#b)" stroke-width="5.94" d="M16.82 101.73c-5.34-2.2-11.16-1.65-16.82-.98 1.99-.8 3.9-1.69 5.78-2.57.82-.38 1.65-.77 2.47-1.14 7.32-3.32 14.5-6.08 21.89-3.53 8.66 3 16.31 10.17 21.99 16.07.21.22.37.48.55.73.34.48.75 1.08 1.35 1.62 10.69 9.8 32.05 20.26 47.02 8.95 4.86-3.68 8.36-8.71 11.24-13.14 8.73-13.39 19.06-25.07 35.36-19.96.39.12.79.32 1.25.54.54.26 1.08.51 1.65.71.23.08.52.2.87.34 2.08.82 3.67 1.39 5.02 1.2a2.6 2.6 0 0 0 2.04-1.59c1.1-2.72-1.31-4.87-2.6-6.03-.21-.18-.4-.35-.53-.49-.79-.86-1.66-1.53-2.51-2.19-.98-.76-1.91-1.48-2.45-2.32-5.7-8.89-5.84-17.67-.4-25.38 8.36-11.87 28.58-18.86 44.15-15.25 7.57 1.74 17.06 6.66 19.23 20.14l1.59 9.9a2.6 2.6 0 0 0 5.14-.79c-1.26-8.49-2.69-18.1.17-26.55 1.82-5.39 5.52-10.72 11.33-16.31 20.9-20.09 52.54-28.38 80.6-21.12C325.39 6 336.19 13.03 346.19 24.7c6.44 7.5 14.19 17.64 17 29.42 4.09 17.11-3.03 36.51-17.73 48.27-13.74 11.01-33.17 15.1-51.94 10.95-5.34-1.18-10.16-2.96-14.38-5.24a49 49 0 0 0-7.87-5.52c-.58-.53-1.17-1.07-1.71-1.63-11.96-12.53-10.21-32.48-1.73-43.77 7.5-9.98 18.59-12.16 30.46-5.98 3.69 1.92 8.03 6.05 8.8 10.55.4 2.36-.27 4.42-2.04 6.32-.98 1.05-.92 2.7.13 3.67 1.05.98 2.69.92 3.67-.12 2.88-3.08 4.04-6.8 3.36-10.75-1.08-6.28-6.57-11.7-11.52-14.28-14.15-7.36-27.98-4.57-37.02 7.46-8.43 11.23-11.02 29.91-2.65 44.13-8.05-2.49-17.59-3.43-28.68-2-11.46 1.47-26.75 8.3-32.13 22.71-5.77 15.47 3.56 31.68 15.27 39.08 7.71 4.88 18.57 6.02 26.4 2.8 5.96-2.46 9.87-7.09 11.32-13.4 2.23-9.81-3.58-19.9-12.72-22.04-5.04-1.18-9.76-.46-12.65 1.93-1.54 1.27-3.32 3.65-3.14 7.77.11 2.55 1.58 5.08 3.83 6.59 2.07 1.4 4.49 1.77 6.66 1a2.59 2.59 0 0 0 1.58-3.32 2.593 2.593 0 0 0-3.31-1.58c-.85.29-1.7-.19-2.03-.41-.9-.61-1.51-1.6-1.55-2.52-.07-1.62.35-2.77 1.27-3.54 1.59-1.32 4.78-1.67 8.14-.87 7.07 1.65 10.27 9.51 8.83 15.82-1.07 4.65-3.84 7.94-8.24 9.76-6.36 2.63-15.26 1.64-21.64-2.39-9.97-6.31-17.98-19.97-13.17-32.87 4.57-12.24 17.89-18.09 27.92-19.37 14.7-1.88 26.4.69 35.26 5.56 2.3 2.02 4.91 3.81 7.75 5.4 5.07 4.43 8.72 9.69 10.96 15 6.99 16.47 2.72 39.04-8.9 54.98-.22.07-.45.17-.66.31-.69.48-1.08 1.22-1.12 2-2.85 3.52-6.08 6.67-9.65 9.27-15.47 11.23-40.95 13.84-56.82 5.81-11.12-5.62-20.39-15.86-26.31-29.01 2.86-.88 5.45-2.11 7.69-3.68 5.54-3.88 9-10.07 9.02-16.15a2.6 2.6 0 0 0-2.59-2.6h-.01a2.59 2.59 0 0 0-2.59 2.59c-.02 4.41-2.63 8.97-6.82 11.91-3.69 2.6-8.68 4.08-14.42 4.3-12.32.49-23.74-4.71-35.98-16.31a2.584 2.584 0 0 0-3.67.1c-.98 1.04-.94 2.68.1 3.67 12.6 11.95 25.08 17.77 38.07 17.77.56 0 1.12 0 1.68-.03 1.43-.05 2.8-.19 4.15-.38 1.88 8.58-6.8 16.9-12.61 20.66-9.55 6.19-22.78 7.23-34.53 2.71-10.85-4.18-20.25-13.81-26.51-27.13 3.95-4.45 5.59-10.42 4.97-15.58-.79-6.65-5.59-13.86-16.68-14.1-1.36-.04-6.12.17-9.8 4.12-3.04 3.26-4.3 7.91-3.74 13.83a2.61 2.61 0 0 0 2.82 2.35c1.43-.14 2.49-1.4 2.35-2.83-.41-4.38.39-7.68 2.36-9.8 1.77-1.88 4.23-2.51 5.89-2.48 9.51.22 11.32 6.74 11.64 9.53.74 6.18-3.1 13.78-10.8 15.83-10.03 2.66-25.96-.89-32.81-10.24-1.61-2.19-1.34-3.94-.92-6.59.33-2.14.71-4.57-.03-7.41-1.8-6.96-8.08-6.61-11.82-6.4-1.23.07-2.36.06-3.67.14-.92.06-1.97.12-2.54-.05-5.16-1.54-6.45-6.54-7.83-13.99-.36-1.96-.7-3.8-1.19-5.55-2.18-7.91-7.53-13.66-15.88-17.1z" mask="url(#c)"/><path fill="url(#d)" fill-opacity=".48" stroke="url(#e)" stroke-width="2.97" d="M367.38 83.18c-3.56 9.33-9.62 17.91-17.74 24.41-15.34 12.28-36.87 16.83-57.56 12.26-.52-.12-1.04-.24-1.55-.37a47 47 0 0 1 2.6 5.19c7.87 18.56 3.58 42.84-8.85 60.47 4.12 5.15 9.44 9.36 15.18 11.4 6 2.12 12.48 1.87 18.7-2.24 1.59-1.06 3.18-2.24 4.48-3.3 1.03-.85 1.8-1.57 2.25-2.07.01-1.12.48-2.25 1.39-3.05v-.01l.17-.13c1.63-1.29 4-1.15 5.45.36l.14.15c.9 1.02 1.77 2.03 2.6 3.01 4.76 5.59 8.65 10.12 15.48 12.92 6.69 2.73 14.65 3.56 21.8 2.25 11.13-2.03 17.17-7.3 25.9-14.97.55-.47 1.1-.96 1.66-1.45l1.72-1.5c1.31-1.13 2.71-2.47 4.19-3.95-5.72 2.82-11.71 5.23-17.98 6.15-2.68.39-5.35.58-7.98.58-12.01 0-23.42-3.98-31.55-11.32a4.08 4.08 0 0 1-.3-5.76c1.52-1.68 4.1-1.8 5.77-.29 8.02 7.23 20.29 10.55 32.88 8.71 8.09-1.18 16.14-5.55 24.23-9.96 10.36-5.66 21.44-11.73 33.64-11.09 1.96 0 3.98.18 6.07.58h.01c.64.12 1.22.4 1.7.77 1.3.38 2.62.82 3.98 1.4 5.3 2.25 10.09 5.39 14.6 8.33 8.54 5.58 16.14 10.48 25.95 9.93 5.35-.3 9.17-2.05 12.26-4.94 2.93-2.76 5.27-6.63 7.54-11.53l.46-.99c1.01-2.26 2.49-5.55 4.66-8.6 1.41-1.97 3.14-3.9 5.28-5.4-.74-.07-1.53-.1-2.39-.1l-1.01.02c-1.29.04-2.47.49-4.18 1.18-.69.28-1.44.58-2.21.84-1.86.65-3.51 1.38-5.17 2.11-4.28 1.9-8.59 3.83-15.26 3.31-3.8-.29-8.08-.74-11.99-2.71-7.8-3.91-12.4-10.75-16.62-16.99-3.38-4.98-6.4-9.42-10.64-12.54-9.86-7.26-24-7.62-33.98-1.05.23 2.81.17 5.65-.26 8.46-1.26 8.43-5.81 16.31-12.48 21.62-6.04 4.82-15.14 7.35-23.93 7.35-5.18-.01-10.35-.88-14.8-2.76-8.18-3.44-13.25-9.94-14.1-18.28-1.17-11.61 7.06-19.39 15.04-21.73 9.19-2.69 17.99 1.14 22.33 9.69 1.02 2.01.21 4.47-1.8 5.49a4.09 4.09 0 0 1-5.49-1.8c-1.55-3.06-3.69-4.71-5.91-5.48-2.25-.78-4.69-.69-6.83-.06-5.03 1.47-9.91 6.21-9.22 13.07.54 5.33 3.52 9.21 9.14 11.57 4.57 1.93 10.39 2.52 16.03 1.88 5.64-.65 10.92-2.52 14.45-5.33 4.91-3.91 8.31-9.66 9.39-15.85l.09-.6c1.05-6.96-.6-14.3-3.81-20.95-3.2-6.65-7.92-12.49-12.84-16.42-7.48-5.98-18.33-9.48-30.78-9.89Z"/></g><defs><linearGradient id="a" x1="364.33" x2="0" y1="102.16" y2="102.16" gradientUnits="userSpaceOnUse"><stop stop-color="#fcf0d6"/><stop offset="1" stop-color="#ffc446"/></linearGradient><linearGradient id="b" x1="364.33" x2="0" y1="102.16" y2="102.16" gradientUnits="userSpaceOnUse"><stop stop-color="#fcf0d6"/><stop offset="1" stop-color="#ffc446"/></linearGradient><linearGradient id="d" x1="531" x2="282.43" y1="144.09" y2="144.09" gradientUnits="userSpaceOnUse"><stop stop-color="#fcf0d6"/><stop offset="1" stop-color="#ffc446"/></linearGradient><linearGradient id="e" x1="531" x2="282.43" y1="144.09" y2="144.09" gradientUnits="userSpaceOnUse"><stop stop-color="#fcf0d6"/><stop offset="1" stop-color="#ffc446"/></linearGradient></defs></svg>