<svg xmlns="http://www.w3.org/2000/svg" width="1554" height="260" fill="none" xmlns:v="https://vecta.io/nano"><style><![CDATA[.B{fill-opacity:.4}.C{mask:url(#A)}.D{stroke-width:2.999}.E{stroke-width:4.062}.F{fill-rule:evenodd}.G{color-interpolation-filters:sRGB}]]></style><g class="D B"><path d="M1308.65 75.0146C1311.51 74.9593 1314.22 74.1633 1316.19 72.7363V72.7354C1318.57 71.002 1319.81 68.4239 1319.77 64.8477C1319.76 63.2679 1319.12 61.7752 1318.26 60.9531C1317.79 60.5156 1317.2 60.1966 1316.44 60.377C1316.41 60.3846 1316.38 60.3933 1316.35 60.4023C1316.14 62.083 1314.94 63.6833 1313.04 63.8115L1313.02 63.8125C1310.83 63.9425 1309.35 62.0553 1309.26 60.1074C1309.07 56.4759 1311.35 53.5419 1314.92 52.6973H1314.92C1317.82 52.0158 1320.68 52.8805 1322.92 55.0029L1322.92 55.0059C1324.79 56.7941 1326.05 59.2893 1326.59 61.9668C1326.6 61.9701 1326.6 61.9733 1326.6 61.9766L1326.6 61.9756C1332.74 69.8418 1337.66 73.4959 1342.59 74.4424H1342.59C1350.55 75.98 1359.62 73.7603 1369.6 67.5352L1369.6 67.5342C1373.38 65.1885 1376.82 62.0854 1380.59 58.6875C1385.94 53.865 1391.72 48.6277 1398.78 45.9688V45.9346L1399.8 45.5928C1402.63 44.6492 1405.7 44.3444 1408.71 44.7695C1408.3 44.3368 1407.86 43.9141 1407.41 43.5039C1403.86 40.3206 1399.95 39.6545 1395.71 40.2861C1391.92 40.8514 1387.95 42.441 1383.85 44.21L1382.09 44.9766L1382.09 44.9775L1380.36 45.7275C1379.79 45.9748 1379.22 46.2187 1378.65 46.4561L1378.65 46.457C1362.13 53.367 1344.43 52.3204 1330.15 43.501C1325.07 40.357 1320.34 36.4871 1315.83 32.6846L1313.92 31.0615C1306.64 24.8912 1299.97 19.2527 1292.11 15.8848C1269.83 6.34696 1250.9 19.1664 1232.7 33.8975C1208.37 53.5948 1175.16 56.8459 1131.66 44.3633L1129.58 43.7568C1122.27 41.5932 1114.85 39.1221 1107.71 36.7461C1092.03 31.5214 1075.95 26.1761 1060.09 23.6758C1048.75 21.8882 1037.62 22.5826 1026.49 25.8125C1027.2 25.7884 1027.93 25.7764 1028.65 25.7764C1035.28 25.7764 1042.24 26.7654 1049.49 28.7461C1055.3 30.3276 1061.23 32.5396 1067.1 35.3193H1067.1C1071.02 37.1723 1074.99 39.1261 1078.89 41.0654L1082.77 42.9961C1093.17 48.1841 1103.85 53.5078 1114.56 57.7305C1124.07 61.4777 1133.83 64.0729 1143.55 65.4414C1160.09 67.7721 1177.08 66.6177 1194.06 62.0068V62.0059C1202.1 59.8254 1210.43 56.6948 1218.79 52.7178C1220.7 51.8016 1222.58 50.8593 1224.46 49.918V49.917C1233.47 45.3902 1242.37 40.9068 1253.2 41.0938H1253.2C1262.7 41.2637 1271.81 45.087 1280.27 52.2969H1280.28C1283.6 55.1301 1286.53 58.6452 1289.28 61.9258L1289.28 61.9268C1293.09 66.4913 1296.51 70.5342 1300.59 72.9971L1300.58 72.998C1302.88 74.384 1305.78 75.0699 1308.65 75.0146Z" fill="url(#D)" stroke="url(#E)"/><path d="M1250.6 107.645C1260.01 108.764 1270.03 102.839 1274.78 93.0178L1274.78 93.0159C1276.55 89.3636 1277.72 84.9629 1278.24 79.9055L1278.34 78.885C1278.65 75.2225 1277.88 69.7946 1276.11 64.7356C1274.33 59.626 1271.65 55.2799 1268.42 53.3792L1268.4 53.3704L1268.38 53.3596C1268.25 53.2776 1268.11 53.1824 1267.98 53.0706C1263.1 50.4389 1258.12 49.0566 1253.07 48.968C1244.01 48.8047 1236.12 52.7137 1227.42 57.0872L1224.54 58.5247C1223.58 59.0028 1222.6 59.4788 1221.62 59.9485L1221.62 59.9495L1219.99 60.7161C1211.83 64.4942 1203.69 67.4987 1195.76 69.6555C1178.5 74.3528 1161.18 75.6393 1144.26 73.4797L1142.62 73.26C1133.02 71.9049 1123.4 69.4175 1114.01 65.8713L1112.13 65.1477C1101.13 60.8091 1090.25 55.382 1079.8 50.1702C1074.69 47.6204 1069.42 44.9931 1064.27 42.5549C1059.07 40.1016 1053.87 38.1264 1048.77 36.6692L1047.76 36.385C1035.26 32.9769 1023.93 32.7606 1014.05 35.6428H1014.05C1013.87 35.6939 1013.7 35.7472 1013.52 35.801C1013.53 35.801 1013.54 35.8 1013.55 35.8C1024.64 35.8001 1036.01 37.5263 1047.34 40.9885L1048.4 41.3127V41.3342C1062.56 45.9026 1075.07 54.733 1086.95 63.1184L1086.95 63.1174C1100.68 72.8017 1113.37 81.7342 1128.28 85.1448L1128.99 85.303C1148.68 89.5665 1167.46 88.8514 1186.35 83.1301L1188.18 82.5608C1195.44 80.2358 1203.02 76.9162 1212.8 71.7502C1214.77 70.7058 1216.71 69.524 1218.82 68.2434V68.2444C1223.99 65.1092 1229.62 61.669 1235.97 60.5334V60.5325C1240.01 59.8072 1245.31 60.2091 1250.03 62.1594C1254.77 64.12 1259.07 67.7154 1260.73 73.4514C1261.46 75.9335 1261.48 78.7757 1260.97 81.4417C1260.45 84.1057 1259.38 86.7118 1257.79 88.6917H1257.78C1256.7 90.0467 1255.12 91.0478 1253.47 91.6331C1251.81 92.219 1249.95 92.4336 1248.25 92.0754L1248.24 92.0745C1245.7 91.5321 1243.8 89.7944 1242.9 87.303L1242.9 87.302C1242.24 85.4806 1242.9 83.1871 1244.74 82.2698C1246.73 81.2795 1248.79 82.4633 1249.5 84.3323C1249.52 84.341 1249.56 84.3504 1249.6 84.3606C1250.03 84.448 1250.65 84.378 1251.3 84.1409C1251.98 83.8918 1252.37 83.579 1252.45 83.4827L1252.45 83.4788C1253.14 82.6123 1253.71 81.2982 1254 79.842C1254.28 78.3866 1254.26 76.9519 1253.95 75.8743L1253.95 75.8694C1253.09 72.9012 1250.57 70.7681 1247.33 69.4739C1247.11 69.5237 1246.87 69.5539 1246.62 69.554C1242.94 69.554 1240.09 70.8965 1237.98 73.511L1237.74 73.8176C1235.31 77.0449 1233.92 82.2074 1234.19 87.7815V87.7825C1234.42 92.6577 1236.44 97.4026 1239.48 101.053C1242.53 104.711 1246.51 107.161 1250.6 107.645H1250.6Z" fill="url(#F)" stroke="url(#G)"/></g><g class="E B"><path d="M1396.33 180.957C1400.13 181.798 1403.95 181.612 1406.98 180.358L1406.98 180.357C1410.67 178.832 1413.13 175.834 1414.22 171.113C1414.7 169.027 1414.34 166.861 1413.47 165.504C1412.99 164.779 1412.32 164.169 1411.25 164.164C1411.2 164.165 1411.16 164.167 1411.12 164.17C1410.31 166.316 1408.22 168.041 1405.68 167.605L1405.67 167.603L1405.66 167.602C1402.73 167.073 1401.39 164.12 1401.88 161.525C1402.79 156.685 1406.73 153.547 1411.69 153.57L1411.7 153.57C1415.73 153.595 1419.23 155.646 1421.49 159.151L1421.5 159.156C1423.39 162.106 1424.25 165.793 1424.12 169.491C1424.12 169.496 1424.12 169.5 1424.12 169.505L1424.13 169.504C1429.7 181.815 1435.02 188.193 1441.21 191.008L1441.21 191.009C1451.2 195.566 1463.85 195.53 1478.97 190.511L1478.98 190.511C1484.69 188.623 1490.21 185.634 1496.25 182.36L1496.25 182.359C1504.83 177.712 1514.11 172.655 1524.25 171.401L1524.26 171.356L1525.72 171.233C1529.74 170.89 1533.89 171.467 1537.71 172.984C1537.39 172.435 1537.06 171.89 1536.7 171.351L1536.4 170.903C1532.74 165.583 1527.81 163.462 1522.02 162.944C1516.11 162.414 1509.47 163.574 1502.6 164.784L1502.59 164.785L1500.08 165.221C1499.25 165.364 1498.42 165.505 1497.6 165.637L1497.6 165.638L1496.47 165.81C1472.92 169.257 1450.42 162.214 1434.68 146.31C1428.17 139.728 1422.57 132.048 1417.26 124.764L1417.26 124.763C1409.89 114.649 1403.1 105.374 1394.25 98.4979L1393.38 97.8402C1367.09 78.1912 1338.08 89.0445 1309.42 102.647C1270.51 121.126 1224.93 114.343 1170.51 82.8075C1161.57 77.6317 1152.59 72.0174 1143.95 66.6166L1143.95 66.6154C1124.97 54.7457 1105.49 42.5897 1085.4 34.249L1085.4 34.2488C1071.04 28.2857 1056.17 25.6576 1040.47 26.366C1041.43 26.5631 1042.38 26.7767 1043.34 27.0083C1052.06 29.1165 1060.92 32.6353 1069.83 37.5502L1069.83 37.5495C1076.98 41.4811 1084.08 46.2812 1090.93 51.8126L1090.93 51.8128C1097.02 56.7267 1103.18 61.9076 1109.11 66.9051L1109.11 66.9061C1121.15 77.047 1133.53 87.458 1146.29 96.4271C1157.61 104.386 1169.64 110.909 1182 115.805C1203.04 124.139 1225.77 128.026 1249.6 127.359L1249.6 127.358C1260.18 127.067 1271.35 125.754 1282.82 123.469L1285.12 122.999C1286.52 122.7 1287.92 122.39 1289.31 122.074L1293.47 121.116C1306.78 118.025 1319.93 114.956 1334.12 118.646L1334.12 118.647C1346.58 121.896 1357.36 129.829 1366.21 142.016L1366.21 142.016C1369.68 146.804 1372.42 152.365 1374.99 157.559L1374.99 157.561C1378.57 164.786 1381.77 171.196 1386.36 175.737C1388.95 178.294 1392.54 180.118 1396.33 180.957Z" fill="url(#H)" stroke="url(#I)"/><path d="M1309.51 205.444C1321.55 209.913 1336.63 205.304 1346.01 193.883L1346.01 193.882C1349.74 189.353 1352.84 183.487 1355.2 176.408L1355.2 176.408C1356.77 171.683 1357.49 164.293 1356.77 157.069C1356.04 149.772 1353.9 143.198 1350.25 139.666L1350.23 139.649L1350.21 139.63C1350.06 139.478 1349.91 139.306 1349.76 139.111C1344.18 134.098 1338.06 130.696 1331.45 128.973L1331.45 128.973C1320.31 126.066 1309.39 128.202 1297.48 130.944L1295.09 131.499C1292.27 132.154 1289.43 132.811 1286.55 133.422L1286.54 133.423C1274.56 135.934 1262.83 137.437 1251.64 137.894L1249.4 137.972L1247.06 138.025C1223.68 138.411 1201.27 134.578 1180.38 126.614L1178.29 125.805C1165.67 120.803 1153.41 114.203 1141.85 106.198L1140.73 105.419C1129.26 97.3549 1118.18 88.2254 1107.48 79.2433L1102.92 75.406C1097 70.4223 1090.9 65.2866 1084.89 60.4351C1078.84 55.5531 1072.61 51.2957 1066.37 47.7558L1065.12 47.0571C1049.75 38.5912 1034.91 34.7021 1020.97 35.351L1020.97 35.3514L1020.23 35.3906C1020.24 35.3937 1020.25 35.3958 1020.27 35.3989C1034.87 38.9289 1049.28 44.8204 1063.1 52.9857L1064.4 53.7497L1064.39 53.7753C1081.58 64.2983 1095.24 79.9077 1108.21 94.7305L1108.21 94.7298C1123.45 112.123 1137.52 128.152 1156.51 137.322L1156.51 137.323C1181.87 149.588 1207.64 154.556 1235.31 152.552L1235.31 152.551C1245.61 151.8 1256.65 149.843 1271.17 146.151C1274.1 145.405 1277.03 144.468 1280.22 143.455L1280.22 143.454C1288.02 140.971 1296.53 138.233 1305.25 138.758L1305.25 138.757C1310.79 139.087 1317.65 141.305 1323.24 145.375C1328.86 149.467 1333.38 155.568 1333.75 163.652L1333.74 163.653C1333.91 167.15 1333.03 170.899 1331.51 174.245C1329.98 177.589 1327.74 180.679 1325.01 182.779C1323.15 184.217 1320.75 185.032 1318.39 185.276C1316.02 185.52 1313.5 185.211 1311.38 184.198L1311.37 184.196C1308.19 182.671 1306.24 179.778 1305.85 176.211L1305.85 176.21C1305.57 173.603 1307.16 170.792 1309.88 170.17C1312.81 169.499 1315.15 171.714 1315.49 174.4C1315.52 174.419 1315.56 174.445 1315.62 174.472C1316.15 174.723 1316.99 174.826 1317.92 174.72C1318.89 174.609 1319.51 174.322 1319.64 174.22L1319.65 174.216C1320.84 173.296 1322 171.746 1322.84 169.92C1323.68 168.095 1324.11 166.199 1324.04 164.68L1324.04 164.674C1323.85 160.494 1321.22 156.882 1317.37 154.145C1317.06 154.142 1316.74 154.107 1316.4 154.026C1311.56 152.854 1307.37 153.713 1303.77 156.486L1303.77 156.487L1303.36 156.814C1299.13 160.289 1295.65 166.643 1294.23 174.069L1294.23 174.07C1292.99 180.563 1294.13 187.452 1296.97 193.226C1299.82 199.012 1304.29 203.507 1309.51 205.444L1309.51 205.444Z" fill="url(#J)" stroke="url(#K)"/></g><g class="D B"><path d="M245.012 75.1101C242.142 75.0548 239.433 74.2587 237.471 72.8318V72.8308C235.092 71.0975 233.844 68.5193 233.883 64.9431C233.901 63.3634 234.534 61.8706 235.397 61.0486C235.863 60.6111 236.453 60.292 237.22 60.4724C237.25 60.48 237.28 60.4887 237.309 60.4978C237.519 62.1784 238.72 63.7788 240.62 63.907L240.633 63.908C242.831 64.0379 244.305 62.1508 244.401 60.2029C244.584 56.5714 242.303 53.6373 238.738 52.7927H238.736C235.838 52.1113 232.972 52.976 230.739 55.0984L230.736 55.1013C228.866 56.8895 227.606 59.3848 227.063 62.0623C227.061 62.0655 227.058 62.0687 227.055 62.072L227.055 62.071C220.918 69.9372 215.997 73.5914 211.068 74.5378H211.066C203.109 76.0755 194.038 73.8558 184.054 67.6306L184.053 67.6296C180.28 65.284 176.837 62.1808 173.068 58.783C167.72 53.9604 161.94 48.7231 154.88 46.0642V46.03L153.855 45.6882C151.028 44.7446 147.953 44.4399 144.95 44.865C145.361 44.4323 145.792 44.0096 146.249 43.5994C149.795 40.4161 153.704 39.7499 157.945 40.3816C161.74 40.9468 165.707 42.5365 169.803 44.3054L171.566 45.072L171.569 45.073L173.298 45.823C173.87 46.0703 174.439 46.3142 175.005 46.5515L175.007 46.5525C191.529 53.4625 209.227 52.4159 223.503 43.5964C228.592 40.4524 233.32 36.5826 237.824 32.78L239.741 31.157C247.015 24.9867 253.683 19.3482 261.544 15.9802C283.822 6.44242 302.755 19.2619 320.956 33.9929C345.291 53.6903 378.498 56.9414 421.998 44.4587L424.078 43.8523C431.389 41.6887 438.805 39.2175 445.944 36.8416C461.623 31.6168 477.707 26.2716 493.568 23.7712C504.907 21.9836 516.033 22.678 527.171 25.908C526.453 25.8839 525.73 25.8718 525.004 25.8718C518.38 25.8719 511.415 26.8609 504.166 28.8416C498.356 30.4231 492.432 32.6351 486.554 35.4148H486.553C482.639 37.2678 478.67 39.2216 474.767 41.1609L470.89 43.0916C460.491 48.2796 449.803 53.6033 439.093 57.8259C429.587 61.5732 419.829 64.1684 410.107 65.5369C393.564 67.8676 376.576 66.7131 359.599 62.1023V62.1013C351.555 59.9208 343.228 56.7902 334.868 52.8132C332.956 51.8971 331.078 50.9548 329.2 50.0134V50.0125C320.189 45.4857 311.283 41.0023 300.462 41.1892H300.461C290.955 41.3591 281.844 45.1825 273.383 52.3923H273.382C270.06 55.2255 267.128 58.7406 264.381 62.0212L264.38 62.0222C260.563 66.5867 257.151 70.6297 253.071 73.0925L253.072 73.0935C250.773 74.4794 247.876 75.1653 245.012 75.1101Z" fill="url(#L)" stroke="url(#M)"/><path d="M303.061 107.74C293.65 108.859 283.627 102.935 278.877 93.1133L278.876 93.1113C277.105 89.459 275.933 85.0583 275.413 80.001L275.318 78.9805C275.008 75.318 275.772 69.89 277.542 64.8311C279.33 59.7215 282.008 55.3754 285.241 53.4746L285.258 53.4658L285.275 53.4551C285.406 53.3731 285.542 53.2779 285.679 53.166C290.557 50.5343 295.538 49.1521 300.587 49.0635C309.652 48.9002 317.538 52.8091 326.238 57.1826L329.114 58.6201C330.08 59.0982 331.052 59.5743 332.034 60.0439L332.037 60.0449L333.67 60.8115C341.832 64.5896 349.972 67.5942 357.897 69.751C375.162 74.4483 392.478 75.7348 409.399 73.5752L411.034 73.3555C420.635 72.0004 430.256 69.513 439.649 65.9668L441.524 65.2432C452.53 60.9045 463.407 55.4774 473.859 50.2656C478.968 47.7159 484.236 45.0885 489.392 42.6504C494.582 40.1971 499.79 38.2218 504.884 36.7646L505.901 36.4805C518.4 33.0723 529.723 32.8561 539.608 35.7383H539.609C539.785 35.7893 539.961 35.8427 540.138 35.8965C540.128 35.8965 540.118 35.8955 540.108 35.8955C529.017 35.8955 517.651 37.6217 506.319 41.084L505.258 41.4082V41.4297C491.095 45.998 478.59 54.8285 466.709 63.2139L466.708 63.2129C452.978 72.8972 440.288 81.8296 425.378 85.2402L424.666 85.3984C404.973 89.662 386.2 88.9468 367.306 83.2256L365.477 82.6562C358.218 80.3312 350.634 77.0116 340.86 71.8457C338.885 70.8013 336.946 69.6195 334.833 68.3389V68.3398C329.665 65.2047 324.036 61.7644 317.69 60.6289V60.6279C313.652 59.9026 308.348 60.3045 303.629 62.2549C298.886 64.2154 294.589 67.8109 292.922 73.5469C292.199 76.0289 292.175 78.8712 292.69 81.5371C293.203 84.2011 294.278 86.8073 295.871 88.7871H295.872C296.959 90.1421 298.536 91.1433 300.191 91.7285C301.847 92.3144 303.707 92.529 305.409 92.1709L305.412 92.1699C307.959 91.6276 309.859 89.8899 310.759 87.3984L310.76 87.3975C311.416 85.576 310.761 83.2825 308.919 82.3652C306.931 81.375 304.866 82.5588 304.159 84.4277C304.134 84.4365 304.099 84.4459 304.053 84.4561C303.627 84.5435 303.007 84.4735 302.359 84.2363C301.679 83.9873 301.286 83.6745 301.209 83.5781L301.207 83.5742C300.513 82.7078 299.948 81.3936 299.66 79.9375C299.372 78.4821 299.393 77.0474 299.708 75.9697L299.709 75.9648C300.568 72.9966 303.083 70.8635 306.328 69.5693C306.548 69.6192 306.784 69.6494 307.035 69.6494C310.718 69.6494 313.572 70.992 315.675 73.6064L315.914 73.9131C318.346 77.1404 319.74 82.3029 319.47 87.877V87.8779C319.236 92.7532 317.221 97.4981 314.179 101.148C311.131 104.806 307.148 107.257 303.062 107.74H303.061Z" fill="url(#N)" stroke="url(#O)"/></g><g class="E B"><path d="M157.326 181.053C153.53 181.893 149.71 181.707 146.673 180.453L146.672 180.452C142.987 178.927 140.523 175.929 139.436 171.208C138.957 169.123 139.316 166.956 140.19 165.599C140.665 164.874 141.342 164.264 142.411 164.26C142.453 164.26 142.494 164.263 142.533 164.265C143.344 166.411 145.435 168.136 147.978 167.7L147.986 167.698L147.995 167.697C150.931 167.168 152.27 164.215 151.777 161.62C150.863 156.78 146.926 153.642 141.962 153.665L141.959 153.665C137.926 153.69 134.429 155.741 132.165 159.247L132.161 159.252C130.268 162.201 129.403 165.888 129.54 169.586C129.538 169.591 129.535 169.595 129.533 169.6L129.531 169.6C123.955 181.911 118.638 188.288 112.45 191.103L112.449 191.104C102.46 195.662 89.81 195.625 74.6826 190.607L74.6804 190.606C68.9665 188.719 63.4457 185.73 57.4026 182.455L57.4024 182.454C48.8258 177.807 39.5478 172.75 29.4061 171.496L29.3953 171.452L27.9377 171.328C23.9134 170.985 19.7664 171.563 15.9471 173.079C16.2636 172.53 16.5977 171.985 16.9548 171.446L17.2565 170.998C20.9128 165.678 25.8476 163.557 31.6336 163.039C37.5504 162.509 44.1869 163.669 51.0601 164.879L51.0653 164.88L53.579 165.316C54.4117 165.46 55.2389 165.6 56.0587 165.733L56.0618 165.733L57.1837 165.906C80.732 169.352 103.234 162.309 118.974 146.405C125.489 139.823 131.083 132.144 136.396 124.859L136.396 124.858C143.772 114.745 150.558 105.469 159.41 98.5931L160.273 97.9354C186.57 78.2864 215.579 89.1397 244.232 102.743C283.152 121.221 328.725 114.438 383.149 82.9027C392.087 77.7269 401.065 72.1126 409.709 66.7118L409.709 66.7106C428.691 54.8409 448.166 42.6849 468.254 34.3442L468.255 34.344C482.617 28.3809 497.488 25.7528 513.183 26.4612C512.229 26.6583 511.272 26.8719 510.314 27.1035C501.593 29.2117 492.739 32.7306 483.824 37.6454L483.823 37.6447C476.676 41.5763 469.58 46.3764 462.724 51.9078L462.723 51.908C456.64 56.8219 450.482 62.0028 444.545 67.0003L444.545 67.0013C432.504 77.1422 420.126 87.5533 407.367 96.5223C396.045 104.482 384.022 111.004 371.656 115.9C350.616 124.234 327.882 128.121 304.061 127.454L304.06 127.453C293.479 127.162 282.306 125.85 270.838 123.564L268.54 123.094C267.136 122.796 265.742 122.485 264.352 122.17L260.185 121.212C246.879 118.12 233.727 115.052 219.54 118.742L219.539 118.742C207.077 121.991 196.295 129.924 187.45 142.111L187.45 142.112C183.978 146.899 181.236 152.461 178.663 157.655L178.662 157.657C175.09 164.881 171.885 171.291 167.296 175.832C164.71 178.389 161.115 180.214 157.326 181.053Z" fill="url(#P)" stroke="url(#Q)"/><path d="M244.144 205.54C232.109 210.008 217.025 205.399 207.646 193.978L207.644 193.977C203.917 189.448 200.815 183.582 198.461 176.504L198.461 176.503C196.888 171.779 196.166 164.389 196.887 157.164C197.614 149.868 199.757 143.293 203.41 139.761L203.429 139.744L203.446 139.725C203.596 139.573 203.749 139.401 203.896 139.206C209.478 134.193 215.593 130.791 222.21 129.068L222.211 129.068C233.352 126.161 244.268 128.298 256.175 131.039L258.569 131.595C261.384 132.249 264.225 132.906 267.111 133.517L267.116 133.518C279.101 136.03 290.828 137.532 302.022 137.989L304.253 138.067L306.595 138.12C329.976 138.506 352.387 134.673 373.282 126.709L375.367 125.9C387.984 120.898 400.243 114.298 411.811 106.294L412.929 105.514C424.401 97.4502 435.478 88.3206 446.175 79.3385L450.736 75.5012C456.652 70.5176 462.752 65.3818 468.765 60.5304C474.818 55.6483 481.047 51.3909 487.29 47.851L488.539 47.1523C503.911 38.6864 518.751 34.7973 532.683 35.4462L532.685 35.4467L533.429 35.4859C533.417 35.4889 533.404 35.491 533.391 35.4941C518.788 39.0241 504.372 44.9156 490.555 53.0809L489.26 53.8449L489.267 53.8705C472.072 64.3935 458.419 80.0029 445.444 94.8257L445.443 94.825C430.209 112.218 416.14 128.247 397.148 137.417L397.148 137.418C371.783 149.683 346.021 154.651 318.343 152.647L318.343 152.646C308.045 151.895 297.002 149.938 282.489 146.247C279.556 145.501 276.627 144.563 273.438 143.55L273.438 143.549C265.636 141.066 257.128 138.328 248.41 138.853L248.41 138.852C242.863 139.182 236.007 141.401 230.415 145.471C224.793 149.562 220.28 155.664 219.911 163.747L219.912 163.748C219.751 167.245 220.623 170.995 222.148 174.34C223.673 177.684 225.918 180.774 228.646 182.874C230.507 184.312 232.904 185.127 235.268 185.371C237.635 185.616 240.152 185.306 242.28 184.293L242.284 184.291C245.465 182.766 247.415 179.873 247.806 176.306L247.806 176.305C248.09 173.698 246.498 170.887 243.781 170.265C240.847 169.594 238.506 171.809 238.169 174.495C238.139 174.515 238.097 174.54 238.04 174.568C237.508 174.818 236.668 174.922 235.739 174.815C234.764 174.704 234.147 174.417 234.016 174.315L234.011 174.311C232.821 173.391 231.66 171.841 230.817 170.015C229.975 168.19 229.545 166.294 229.617 164.775L229.617 164.77C229.803 160.589 232.432 156.977 236.291 154.241C236.598 154.237 236.921 154.202 237.253 154.122C242.102 152.949 246.286 153.808 249.888 156.581L249.889 156.582L250.301 156.909C254.53 160.384 258.009 166.738 259.428 174.164L259.428 174.165C260.672 180.658 259.527 187.547 256.684 193.322C253.835 199.107 249.372 203.602 244.145 205.539L244.144 205.54Z" fill="url(#R)" stroke="url(#S)"/></g><g filter="url(#B)"><circle cx="726.5" cy="31.499" r="4.5" fill="url(#T)"/></g><circle cx="726.5" cy="31.499" r="4.5" stroke="url(#T)" stroke-width="1.8"/><g filter="url(#C)"><circle cx="828.5" cy="31.499" r="4.5" fill="url(#U)"/></g><circle cx="828.5" cy="31.499" r="4.5" stroke="url(#U)" stroke-width="1.8"/><mask id="A" fill="#fff"><path d="M773.543 56.328c0 .478.716 1.285 1.59 1.793 2.333 1.356 3.389 1.188 5.222-.834 1.866-2.058 1.287-2.348-1.375-.688-1.437.896-2.173.894-3.62-.008-.999-.623-1.817-.741-1.817-.263zm-.069-1.479c.925-.241 1.956.005 2.291.547.766 1.238 3.228 1.297 3.228.079 0-.499.588-.907 1.309-.907 1.83 0 2.715-1.751 2.475-4.9-.307-4.022-1.823-5.483-3.821-3.68-1.257 1.136-1.692 1.188-2.068.249-.284-.707-.518-.454-.58.625-.094 1.627-.234 1.581-1.366-.453l-1.262-2.266-1.042 2.72c-.574 1.496-.816 3.862-.537 5.258.31 1.552.159 2.324-.388 1.986-.492-.304-.955-1.854-1.031-3.445-.132-2.818-.146-2.828-.519-.345-.465 3.086 1.027 5.128 3.311 4.533zm11.228-3.907l-1.341 3.173c-.822 1.784-.812 1.785.577.053.777-.968 1.38-2.396 1.341-3.173-.062-1.221-.141-1.228-.577-.053zm-17.063-.907c-.749 0-1.362.612-1.362 1.36s.613 1.36 1.362 1.36 1.363-.612 1.363-1.36-.613-1.36-1.363-1.36zm20.058 0a1.44 1.44 0 0 0-1.438 1.435c0 1.601 1.955 1.323 2.517-.359.198-.592-.288-1.076-1.079-1.076zm-27.706-5.73c-.039 1.086.553 2.598 1.317 3.361 1.386 1.384 7.004 1.651 6.166.293-.242-.394-1.156-.49-2.029-.214-1.589.504-3.914-1.427-4.882-4.055-.336-.914-.524-.713-.572.615zm25.832 3.01l.366 1.586c.254.827.934.006.751-.907-.124-.624.591-1.149 1.59-1.167 2.896-.054 4.087-1.239 4.087-4.068 0-1.679-.639-2.975-1.761-3.575-1.932-1.032-2.679-.399-2.298 1.948.17 1.054-.191 1.356-1.176.979-.931-.357-1.197-.182-.771.506.439.709.141.855-.917.45-1.265-.485-1.432-.264-.867 1.143.385.959.832 2.356.996 3.104zm3.579.565c-.817-.313-1.185-.163-.866.352.892 1.441 3.674 1.034 5.317-.778 1.222-1.348 1.356-2.362.686-5.213l-.832-3.538-.091 3.742c-.097 4.016-1.889 6.326-4.214 5.435zm-27.292-5.206c-.248 1.344.181 2.58 1.137 3.278 2.011 1.468 6.115.364 6.523-1.755.194-1.002-.069-1.392-.681-1.014-.548.337-.995.158-.995-.4s-.363-.79-.806-.517-.749-.212-.681-1.079c.078-.994-.632-1.684-1.919-1.867-1.125-.16-2.074.044-2.111.452s-.247 1.714-.467 2.901zm-4.461-2.611c-.75 0-1.363.612-1.363 1.36s.613 1.36 1.363 1.36 1.362-.612 1.362-1.36-.613-1.36-1.362-1.36zm39.613 0c-1.306 0-1.703.418-1.326 1.398.595 1.547 2.27 1.357 2.831-.322.199-.597-.47-1.076-1.505-1.076zm-36.445-.447c-.494.305-.898.937-.898 1.407 0 1.304.651 1.016 1.255-.554.31-.807.158-1.17-.357-.853zm-4.049-1.583c-1.234-.236-2.028-.079-1.763.347.465.752 4.006 1.13 4.006.429 0-.191-1.009-.54-2.243-.776zm45.212-3.556c-.974 1.722-2.754 3.234-4.368 3.711-2.272.671-2.383.819-.665.887 2.207.087 8.385-5.53 8.385-7.624s-6.178-7.711-8.385-7.624c-1.71.068-1.596.217.669.875 1.701.494 3.344 1.936 4.367 3.831 1.581 2.93 1.581 3.143-.003 5.945z"/><path d="M792.63 35.988c1.007.318 1.632.899 1.39 1.29s.671.511 2.03.269c2.401-.429 6.492-4.27 6.492-6.097s-4.091-5.668-6.492-6.097c-1.359-.242-2.283-.138-2.054.232s-.396.885-1.389 1.144c-1.078.281-1.807 1.238-1.807 2.369 0 1.433.611 1.932 2.498 2.034l2.498.136-2.498.377c-2.999.453-3.462 3.457-.668 4.342zm-38.957-2.424c.686 1.331 1.658 2.72 2.157 3.086 2.29 1.675 6.998-.084 7.409-2.77.254-1.664-.164-1.999-2.644-2.121l-2.946-.145 2.937-.364c2.393-.297 2.884-.721 2.644-2.285-.292-1.908-2.37-3.22-5.293-3.343-.84-.034-2.424 1.193-3.52 2.73-1.791 2.511-1.867 3.037-.744 5.213zm-1.928-5.53c-2.24 1.914-2.331 4.577-.227 6.622.874.85 1.766 1.388 1.983 1.194s-.09-.834-.682-1.424c-1.309-1.307-1.415-4.925-.166-5.696.5-.308.908-.94.908-1.404s-.817-.146-1.816.708zm6.034-4.103c-.927-.197-2.082.039-2.566.522-.569.568.028.695 1.685.356 1.901-.386 2.13-.615.881-.878zm4.858-.476c1.192.181 2.374.537 2.626.789.796.793 2.051-2.277 1.377-3.366-.397-.642-.242-.792.405-.393.576.355 1.049.19 1.049-.367s.447-.737.995-.4c.612.378.875-.013.681-1.014-.674-3.491-8.466-2.857-7.986.651a13.83 13.83 0 0 1 .045 2.576c-.108 1.208-.228 1.208-1.084 0-.749-1.055-.887-1.074-.62-.084.189.703 1.32 1.426 2.512 1.607zm25.931-1.755c-.142.875-.081 1.898.134 2.274s1.184.258 2.154-.258c1.909-1.021 2.426-5.291.832-6.882-1.454-1.45-6.113-.39-6.609 1.504-.435 1.659 1.542 3.131 2.998 2.232.412-.253.631.256.491 1.13zm.856-6.688c2.533-.97 4.915 2.135 4.5 5.865l-.371 3.322.909-3.538c.747-2.909.639-3.837-.609-5.213-1.643-1.812-4.425-2.219-5.317-.778-.321.518.053.663.888.343zm-31.775 5.106c-.75 0-1.363.612-1.363 1.36s.613 1.36 1.363 1.36 1.362-.612 1.362-1.36-.613-1.36-1.362-1.36zm41.118 1.643c-.561-1.678-2.236-1.868-2.831-.321-.377.98.02 1.398 1.326 1.398 1.035 0 1.704-.479 1.505-1.077zm-32.858-6.942c-1.589-2.568-6.034.263-5.933 3.777.057 1.928.077 1.931.808.131 1.042-2.567 3.387-4.333 4.686-3.533.688.425.85.287.439-.374zm8.433-6.409c-2.822 2.007-3.19 3.804-1.595 7.796l1.019 2.552 1.21-2.72c1.192-2.679 1.212-2.686 1.358-.453.139 2.123.193 2.094.842-.453.515-2.019.721-2.223.801-.79.147 2.649 2.28 4.364 3.532 2.841.875-1.064 1.452-4.259 1.218-6.744-.056-.587-1.376-1.702-2.935-2.478-2.65-1.319-3.002-1.29-5.45.449zm-2.842-.193c-.981.769-1.538 2.33-1.454 4.08l.137 2.836.397-2.72c.22-1.496.874-3.332 1.454-4.08.918-1.183.849-1.198-.534-.116zm-3.861 1.929c-.749 0-1.362.612-1.362 1.36s.613 1.36 1.362 1.36 1.363-.612 1.363-1.36-.613-1.36-1.363-1.36zm16.362-1.413c-1.235-1.61-1.266-1.509-.365 1.187 1.028 3.076 1.715 3.781 1.715 1.76 0-.653-.608-1.978-1.35-2.946zm3.234 1.587c-.537-.179-.976.354-.976 1.186s.439 1.364.976 1.186.977-.712.977-1.186-.44-1.007-.977-1.186zM775.81 4.543c-1.247.567-2.267 1.451-2.267 1.965 0 .575.7.498 1.817-.199 1.46-.911 2.189-.9 3.721.055 2.567 1.6 3.085.841.822-1.203-1.51-1.363-2.219-1.47-4.093-.618z"/><path d="M770.097 40.534c-5.759-4.837-6.033-12.042-.66-17.405 2.602-2.597 3.621-3.006 7.421-2.979 5.193.038 7.953 1.375 10.358 5.015 3.424 5.186 1.484 13.433-3.855 16.391-3.67 2.034-10.227 1.529-13.264-1.022zm15.708-9.084c0 3.517-.433 4.608-2.549 6.425-5.61 4.817-14.254 1.04-14.254-6.229 0-7.764 8.386-11.658 14.254-6.621 2.116 1.817 2.549 2.907 2.549 6.425zm-11.97 6.628c-2.718-1.311-4.441-5.714-3.389-8.66 1.986-5.566 8.093-7.033 12.202-2.932 2.136 2.131 2.416 4.692.432 3.932-.885-.339-1.362.023-1.362 1.032s.477 1.371 1.362 1.032c3.087-1.182.984 3.634-2.336 5.348-2.963 1.529-4.165 1.573-6.909.248zm-1.064-6.628c0-.473-.439-1.007-.976-1.186s-.977.354-.977 1.186.44 1.364.977 1.186.976-.712.976-1.186zm-.136 3.551c0-1.601 1.955-1.323 2.517.358.198.593-.288 1.077-1.079 1.077a1.44 1.44 0 0 1-1.438-1.435zm5.586 1.888c0-.473-.44-1.007-.977-1.186s-.976.355-.976 1.186.44 1.364.976 1.186.977-.712.977-1.186zm-.977-6.625c.537.179.977.713.977 1.186s-.44 1.007-.977 1.186-.976-.355-.976-1.186.44-1.364.976-1.186zm5.207 5.197c-.179-.536-.713-.975-1.188-.975s-1.009.439-1.188.975.356.974 1.188.974 1.367-.439 1.188-.974zm-1.188-8.998c.75 0 1.363.383 1.363.853 0 1.143-1.419 1.962-2.145 1.237-1.022-1.021-.622-2.09.782-2.09zm-2.478-.17c-.562-1.681-2.517-1.959-2.517-.358a1.44 1.44 0 0 0 1.438 1.435c.791 0 1.277-.484 1.079-1.077zm-5.174.344c.537.179.977.713.977 1.186s-.44 1.007-.977 1.186-.976-.354-.976-1.186.439-1.364.976-1.186z" class="F"/></mask><path d="M773.543 56.328c0 .478.716 1.285 1.59 1.793 2.333 1.356 3.389 1.188 5.222-.834 1.866-2.058 1.287-2.348-1.375-.688-1.437.896-2.173.894-3.62-.008-.999-.623-1.817-.741-1.817-.263z" fill="url(#V)" class="B"/><path d="M773.474 54.849c.925-.241 1.956.005 2.291.547.766 1.238 3.228 1.297 3.228.079 0-.499.588-.907 1.309-.907 1.83 0 2.715-1.751 2.475-4.9-.307-4.022-1.823-5.483-3.821-3.68-1.257 1.136-1.692 1.188-2.068.249-.284-.707-.518-.454-.58.625-.094 1.627-.234 1.581-1.366-.453l-1.262-2.266-1.042 2.72c-.574 1.496-.816 3.862-.537 5.258.31 1.552.159 2.324-.388 1.986-.492-.304-.955-1.854-1.031-3.445-.132-2.818-.146-2.828-.519-.345-.465 3.086 1.027 5.128 3.311 4.533z" fill="url(#V)" class="B"/><path d="M784.702 50.942l-1.341 3.173c-.822 1.784-.812 1.785.577.053.777-.968 1.38-2.396 1.341-3.173-.062-1.221-.141-1.228-.577-.053z" fill="url(#V)" class="B"/><use href="#Y" fill="url(#V)" class="B"/><path d="M787.697 50.035a1.44 1.44 0 0 0-1.438 1.435c0 1.601 1.955 1.323 2.517-.359.198-.592-.288-1.076-1.079-1.076z" fill="url(#V)" class="B"/><path d="M759.991 44.305c-.039 1.086.553 2.598 1.317 3.361 1.386 1.384 7.004 1.651 6.166.293-.242-.394-1.156-.49-2.029-.214-1.589.504-3.914-1.427-4.882-4.055-.336-.914-.524-.713-.572.615z" fill="url(#V)" class="B"/><path d="M785.823 47.315l.366 1.586c.254.827.934.006.751-.907-.124-.624.591-1.149 1.59-1.167 2.896-.054 4.087-1.239 4.087-4.068 0-1.679-.639-2.975-1.761-3.575-1.932-1.032-2.679-.399-2.298 1.948.17 1.054-.191 1.356-1.176.979-.931-.357-1.197-.182-.771.506.439.709.141.855-.917.45-1.265-.485-1.432-.264-.867 1.143.385.959.832 2.356.996 3.104z" fill="url(#V)" class="B"/><path d="M789.402 47.88c-.817-.313-1.185-.163-.866.352.892 1.441 3.674 1.034 5.317-.778 1.222-1.348 1.356-2.362.686-5.213l-.832-3.538-.091 3.742c-.097 4.016-1.889 6.326-4.214 5.435z" fill="url(#V)" class="B"/><path d="M762.11 42.674c-.248 1.344.181 2.58 1.137 3.278 2.011 1.468 6.115.364 6.523-1.755.194-1.002-.069-1.392-.681-1.014-.548.337-.995.158-.995-.4s-.363-.79-.806-.517-.749-.212-.681-1.079c.078-.994-.632-1.684-1.919-1.867-1.125-.16-2.074.044-2.111.452s-.247 1.714-.467 2.901z" fill="url(#V)" class="B"/><use href="#Z" fill="url(#V)" class="B"/><path d="M797.262 40.063c-1.306 0-1.703.418-1.326 1.398.595 1.547 2.27 1.357 2.831-.322.199-.597-.47-1.076-1.505-1.076z" fill="url(#V)" class="B"/><path d="M760.817 39.616c-.494.305-.898.937-.898 1.407 0 1.304.651 1.016 1.255-.554.31-.807.158-1.17-.357-.853z" fill="url(#V)" class="B"/><path d="M756.768 38.033c-1.234-.236-2.028-.079-1.763.347.465.752 4.006 1.13 4.006.429 0-.191-1.009-.54-2.243-.776z" fill="url(#V)" class="B"/><path d="M801.98 34.477c-.974 1.722-2.754 3.234-4.368 3.711-2.272.671-2.383.819-.665.887 2.207.087 8.385-5.53 8.385-7.624s-6.178-7.711-8.385-7.624c-1.71.068-1.596.217.669.875 1.701.494 3.344 1.936 4.367 3.831 1.581 2.93 1.581 3.143-.003 5.945z" fill="url(#V)" class="B"/><path d="M792.63 35.988c1.007.318 1.632.899 1.39 1.29s.671.511 2.03.269c2.401-.429 6.492-4.27 6.492-6.097s-4.091-5.668-6.492-6.097c-1.359-.242-2.283-.138-2.054.232s-.396.885-1.389 1.144c-1.078.281-1.807 1.238-1.807 2.369 0 1.433.611 1.932 2.498 2.034l2.498.136-2.498.377c-2.999.453-3.462 3.457-.668 4.342z" fill="url(#V)" class="B"/><path d="M753.673 33.564c.686 1.331 1.658 2.72 2.157 3.086 2.29 1.675 6.998-.084 7.409-2.77.254-1.664-.164-1.999-2.644-2.121l-2.946-.145 2.937-.364c2.393-.297 2.884-.721 2.644-2.285-.292-1.908-2.37-3.22-5.293-3.343-.84-.034-2.424 1.193-3.52 2.73-1.791 2.511-1.867 3.037-.744 5.213z" fill="url(#V)" class="B"/><path d="M751.745 28.034c-2.24 1.914-2.331 4.577-.227 6.622.874.85 1.766 1.388 1.983 1.194s-.09-.834-.682-1.424c-1.309-1.307-1.415-4.925-.166-5.696.5-.308.908-.94.908-1.404s-.817-.146-1.816.708z" fill="url(#V)" class="B"/><path d="M757.779 23.931c-.927-.197-2.082.039-2.566.522-.569.568.028.695 1.685.356 1.901-.386 2.13-.615.881-.878z" fill="url(#V)" class="B"/><path d="M762.637 23.455c1.192.181 2.374.537 2.626.789.796.793 2.051-2.277 1.377-3.366-.397-.642-.242-.792.405-.393.576.355 1.049.19 1.049-.367s.447-.737.995-.4c.612.378.875-.013.681-1.014-.674-3.491-8.466-2.857-7.986.651a13.83 13.83 0 0 1 .045 2.576c-.108 1.208-.228 1.208-1.084 0-.749-1.055-.887-1.074-.62-.084.189.703 1.32 1.426 2.512 1.607z" fill="url(#V)" class="B"/><path d="M788.568 21.7c-.142.875-.081 1.898.134 2.274s1.184.258 2.154-.258c1.909-1.021 2.426-5.291.832-6.882-1.454-1.45-6.113-.39-6.609 1.504-.435 1.659 1.542 3.131 2.998 2.232.412-.253.631.256.491 1.13z" fill="url(#V)" class="B"/><path d="M789.424 15.012c2.533-.97 4.915 2.135 4.5 5.865l-.371 3.322.909-3.538c.747-2.909.639-3.837-.609-5.213-1.643-1.812-4.425-2.219-5.317-.778-.321.518.053.663.888.343z" fill="url(#V)" class="B"/><use href="#Z" y="-19.945" fill="url(#W)" class="B"/><path d="M798.767 21.761c-.561-1.678-2.236-1.868-2.831-.321-.377.98.02 1.398 1.326 1.398 1.035 0 1.704-.479 1.505-1.077z" fill="url(#V)" class="B"/><path d="M765.909 14.819c-1.589-2.568-6.034.263-5.933 3.777.057 1.928.077 1.931.808.131 1.042-2.567 3.387-4.333 4.686-3.533.688.425.85.287.439-.374z" fill="url(#V)" class="B"/><path d="M774.342 8.41c-2.822 2.007-3.19 3.804-1.595 7.796l1.019 2.552 1.21-2.72c1.192-2.679 1.212-2.686 1.358-.453.139 2.123.193 2.094.842-.453.515-2.019.721-2.223.801-.79.147 2.649 2.28 4.364 3.532 2.841.875-1.064 1.452-4.259 1.218-6.744-.056-.587-1.376-1.702-2.935-2.478-2.65-1.319-3.002-1.29-5.45.449z" fill="url(#V)" class="B"/><path d="M771.5 8.217c-.981.769-1.538 2.33-1.454 4.08l.137 2.836.397-2.72c.22-1.496.874-3.332 1.454-4.08.918-1.183.849-1.198-.534-.116z" fill="url(#V)" class="B"/><use href="#Y" y="-39.889" fill="url(#X)" class="B"/><path d="M784.001 8.733c-1.235-1.61-1.266-1.509-.365 1.187 1.028 3.076 1.715 3.781 1.715 1.76 0-.653-.608-1.978-1.35-2.946z" fill="url(#V)" class="B"/><path d="M787.235 10.32c-.537-.179-.976.354-.976 1.186s.439 1.364.976 1.186.977-.712.977-1.186-.44-1.007-.977-1.186z" fill="url(#V)" class="B"/><path d="M775.81 4.543c-1.247.567-2.267 1.451-2.267 1.965 0 .575.7.498 1.817-.199 1.46-.911 2.189-.9 3.721.055 2.567 1.6 3.085.841.822-1.203-1.51-1.363-2.219-1.47-4.093-.618z" fill="url(#V)" class="B"/><path d="M770.097 40.534c-5.759-4.837-6.033-12.042-.66-17.405 2.602-2.597 3.621-3.006 7.421-2.979 5.193.038 7.953 1.375 10.358 5.015 3.424 5.186 1.484 13.433-3.855 16.391-3.67 2.034-10.227 1.529-13.264-1.022zm15.708-9.084c0 3.517-.433 4.608-2.549 6.425-5.61 4.817-14.254 1.04-14.254-6.229 0-7.764 8.386-11.658 14.254-6.621 2.116 1.817 2.549 2.907 2.549 6.425zm-11.97 6.628c-2.718-1.311-4.441-5.714-3.389-8.66 1.986-5.566 8.093-7.033 12.202-2.932 2.136 2.131 2.416 4.692.432 3.932-.885-.339-1.362.023-1.362 1.032s.477 1.371 1.362 1.032c3.087-1.182.984 3.634-2.336 5.348-2.963 1.529-4.165 1.573-6.909.248zm-1.064-6.628c0-.473-.439-1.007-.976-1.186s-.977.354-.977 1.186.44 1.364.977 1.186.976-.712.976-1.186zm-.136 3.551c0-1.601 1.955-1.323 2.517.358.198.593-.288 1.077-1.079 1.077a1.44 1.44 0 0 1-1.438-1.435zm5.586 1.888c0-.473-.44-1.007-.977-1.186s-.976.355-.976 1.186.44 1.364.976 1.186.977-.712.977-1.186zm-.977-6.625c.537.179.977.713.977 1.186s-.44 1.007-.977 1.186-.976-.355-.976-1.186.44-1.364.976-1.186zm5.207 5.197c-.179-.536-.713-.975-1.188-.975s-1.009.439-1.188.975.356.974 1.188.974 1.367-.439 1.188-.974zm-1.188-8.998c.75 0 1.363.383 1.363.853 0 1.143-1.419 1.962-2.145 1.237-1.022-1.021-.622-2.09.782-2.09zm-2.478-.17c-.562-1.681-2.517-1.959-2.517-.358a1.44 1.44 0 0 0 1.438 1.435c.791 0 1.277-.484 1.079-1.077zm-5.174.344c.537.179.977.713.977 1.186s-.44 1.007-.977 1.186-.976-.354-.976-1.186.439-1.364.976-1.186z" fill="url(#V)" class="B F"/><g stroke-width="2.971" class="C"><path d="M773.543 56.3283C773.543 56.8061 774.259 57.613 775.133 58.1216C777.466 59.4778 778.522 59.3091 780.355 57.2875C782.221 55.2296 781.642 54.9395 778.98 56.5994C777.543 57.4951 776.807 57.4933 775.36 56.5913C774.361 55.9684 773.543 55.8506 773.543 56.3283Z" stroke="url(#V)"/><path d="M773.474 54.8488C774.399 54.6077 775.43 54.8534 775.765 55.3955C776.531 56.633 778.993 56.6928 778.993 55.4744C778.993 54.9758 779.581 54.5678 780.302 54.5678C782.132 54.5678 783.017 52.8163 782.777 49.6678C782.47 45.6454 780.954 44.1849 778.956 45.9881C777.699 47.124 777.264 47.1766 776.888 46.2374C776.604 45.5302 776.37 45.7832 776.308 46.862C776.214 48.4893 776.074 48.443 774.942 46.4087L773.68 44.1423L772.638 46.862C772.064 48.3578 771.822 50.7239 772.101 52.1201C772.411 53.6721 772.26 54.4436 771.713 54.1064C771.221 53.8027 770.758 52.2524 770.682 50.6614C770.55 47.8429 770.536 47.8338 770.163 50.316C769.698 53.4019 771.19 55.4444 773.474 54.8488Z" stroke="url(#V)"/><path d="M784.702 50.9415C784.424 51.6894 783.821 53.1173 783.361 54.1145C782.539 55.8986 782.549 55.8995 783.938 54.168C784.715 53.1998 785.318 51.7719 785.279 50.995C785.217 49.7739 785.138 49.7666 784.702 50.9415Z" stroke="url(#V)"/><path d="M767.639 50.035C766.89 50.035 766.277 50.6469 766.277 51.3948C766.277 52.1427 766.89 52.7547 767.639 52.7547C768.389 52.7547 769.002 52.1427 769.002 51.3948C769.002 50.6469 768.389 50.035 767.639 50.035Z" stroke="url(#V)"/><path d="M787.697 50.035C786.906 50.035 786.259 50.6804 786.259 51.4701C786.259 53.0711 788.214 52.7927 788.776 51.1111C788.974 50.5191 788.488 50.035 787.697 50.035Z" stroke="url(#V)"/><path d="M759.991 44.3045C759.952 45.3906 760.544 46.9028 761.308 47.6652C762.694 49.0495 768.312 49.3161 767.474 47.958C767.232 47.5637 766.318 47.4676 765.445 47.7441C763.856 48.2481 761.531 46.3171 760.563 43.689C760.227 42.7752 760.039 42.9764 759.991 44.3045Z" stroke="url(#V)"/><path d="M785.823 47.3153C785.986 48.0632 786.151 48.7775 786.189 48.9017C786.443 49.7285 787.123 48.9072 786.94 47.9952C786.816 47.3715 787.531 46.8466 788.53 46.8284C791.426 46.774 792.617 45.5892 792.617 42.7607C792.617 41.0817 791.978 39.7853 790.856 39.1852C788.924 38.1535 788.177 38.7863 788.558 41.1334C788.728 42.1877 788.367 42.4896 787.382 42.1125C786.451 41.7553 786.185 41.9302 786.611 42.6183C787.05 43.3273 786.752 43.4732 785.694 43.068C784.429 42.583 784.262 42.8042 784.827 44.2112C785.212 45.1703 785.659 46.5673 785.823 47.3153Z" stroke="url(#V)"/><path d="M789.402 47.88C788.585 47.5673 788.217 47.7169 788.536 48.2318C789.428 49.6732 792.21 49.2662 793.853 47.454C795.075 46.1059 795.209 45.0915 794.539 42.2412L793.707 38.7029L793.616 42.4452C793.519 46.4613 791.727 48.7712 789.402 47.88Z" stroke="url(#V)"/><path d="M762.11 42.6736C761.862 44.0172 762.291 45.2537 763.247 45.9518C765.258 47.4195 769.362 46.3153 769.77 44.1967C769.964 43.1949 769.701 42.8042 769.089 43.1822C768.541 43.5195 768.094 43.34 768.094 42.7824C768.094 42.2249 767.731 41.9928 767.288 42.2657C766.845 42.5395 766.539 42.0535 766.607 41.1869C766.685 40.1933 765.975 39.5034 764.688 39.3202C763.563 39.1607 762.614 39.3647 762.577 39.7726C762.54 40.1815 762.33 41.4869 762.11 42.6736Z" stroke="url(#V)"/><path d="M757.649 40.0627C756.899 40.0627 756.286 40.6746 756.286 41.4226C756.286 42.1705 756.899 42.7824 757.649 42.7824C758.398 42.7824 759.011 42.1705 759.011 41.4226C759.011 40.6746 758.398 40.0627 757.649 40.0627Z" stroke="url(#V)"/><path d="M797.262 40.0627C795.956 40.0627 795.559 40.4806 795.936 41.4606C796.531 43.0081 798.206 42.8178 798.767 41.1388C798.966 40.5414 798.297 40.0627 797.262 40.0627Z" stroke="url(#V)"/><path d="M760.817 39.6158C760.323 39.9204 759.919 40.5532 759.919 41.0228C759.919 42.3264 760.57 42.039 761.174 40.4689C761.484 39.662 761.332 39.2985 760.817 39.6158Z" stroke="url(#V)"/><path d="M756.768 38.0329C755.534 37.7972 754.74 37.9541 755.005 38.3801C755.47 39.1317 759.011 39.5097 759.011 38.8089C759.011 38.6177 758.002 38.2686 756.768 38.0329Z" stroke="url(#V)"/><path d="M801.98 34.4773C801.006 36.1989 799.226 37.7111 797.612 38.1879C795.34 38.8588 795.229 39.0066 796.947 39.0746C799.154 39.1616 805.332 33.5445 805.332 31.4503C805.332 29.3562 799.154 23.7391 796.947 23.8261C795.237 23.8941 795.351 24.0428 797.616 24.7009C799.317 25.195 800.96 26.6374 801.983 28.5321C803.564 31.4621 803.564 31.6751 801.98 34.4773Z" stroke="url(#V)"/><path d="M792.63 35.9877C793.637 36.3059 794.262 36.887 794.02 37.2777C793.777 37.6676 794.691 37.789 796.05 37.547C798.451 37.1182 802.542 33.2771 802.542 31.4503C802.542 29.6236 798.451 25.7825 796.05 25.3536C794.691 25.1116 793.767 25.2159 793.996 25.5857C794.225 25.9556 793.6 26.4705 792.607 26.7298C791.529 27.0109 790.8 27.9673 790.8 29.0987C790.8 30.532 791.411 31.0306 793.298 31.133L795.796 31.269L793.298 31.6461C790.299 32.0994 789.836 35.1029 792.63 35.9877Z" stroke="url(#V)"/><path d="M753.673 33.5635C754.359 34.8944 755.331 36.2832 755.83 36.6495C758.12 38.3248 762.828 36.5652 763.239 33.8799C763.493 32.2155 763.075 31.8809 760.595 31.7586L757.649 31.6135L760.586 31.2491C762.979 30.9517 763.47 30.5283 763.23 28.9636C762.938 27.0553 760.86 25.7435 757.937 25.6211C757.097 25.5866 755.513 26.8141 754.417 28.3508C752.626 30.862 752.55 31.3878 753.673 33.5635Z" stroke="url(#V)"/><path d="M751.745 28.0344C749.505 29.9481 749.414 32.6116 751.518 34.6568C752.392 35.5072 753.284 36.0448 753.501 35.8508C753.718 35.6577 753.411 35.0168 752.819 34.4266C751.51 33.1193 751.404 29.5012 752.653 28.7306C753.153 28.4224 753.561 27.7905 753.561 27.3263C753.561 26.8622 752.744 27.1804 751.745 28.0344Z" stroke="url(#V)"/><path d="M757.779 23.9312C756.852 23.7345 755.697 23.9702 755.213 24.4534C754.644 25.021 755.241 25.1479 756.898 24.8097C758.799 24.4235 759.028 24.1951 757.779 23.9312Z" stroke="url(#V)"/><path d="M762.637 23.4553C763.829 23.6366 765.011 23.992 765.263 24.244C766.059 25.0373 767.314 21.9667 766.64 20.8779C766.243 20.2361 766.398 20.0856 767.045 20.4854C767.621 20.8408 768.094 20.6758 768.094 20.1182C768.094 19.5607 768.541 19.3812 769.089 19.7184C769.701 20.0965 769.964 19.7057 769.77 18.704C769.096 15.2128 761.304 15.8474 761.784 19.3549C761.876 20.0239 761.896 21.1834 761.829 21.9314C761.721 23.1398 761.601 23.1398 760.745 21.9314C759.996 20.8761 759.858 20.8571 760.125 21.8479C760.314 22.5505 761.445 23.274 762.637 23.4553Z" stroke="url(#V)"/><path d="M788.568 21.7002C788.426 22.575 788.487 23.5985 788.702 23.9739C788.917 24.3492 789.886 24.2322 790.856 23.7155C792.765 22.6947 793.282 18.4248 791.688 16.8337C790.234 15.3832 785.575 16.4439 785.079 18.3377C784.644 19.9968 786.621 21.469 788.077 20.5697C788.489 20.3168 788.708 20.8253 788.568 21.7002Z" stroke="url(#V)"/><path d="M789.424 15.0115C791.957 14.0415 794.339 17.1465 793.924 20.8761L793.553 24.1978L794.462 20.6594C795.209 17.7503 795.101 16.8228 793.853 15.4467C792.21 13.6344 789.428 13.2274 788.536 14.6689C788.215 15.1865 788.589 15.3316 789.424 15.0115Z" stroke="url(#V)"/><path d="M757.649 20.1182C756.899 20.1182 756.286 20.7302 756.286 21.4781C756.286 22.226 756.899 22.8379 757.649 22.8379C758.398 22.8379 759.011 22.226 759.011 21.4781C759.011 20.7302 758.398 20.1182 757.649 20.1182Z" stroke="url(#V)"/><path d="M798.767 21.7609C798.206 20.0829 796.531 19.8925 795.936 21.44C795.559 22.42 795.956 22.8379 797.262 22.8379C798.297 22.8379 798.966 22.3593 798.767 21.7609Z" stroke="url(#V)"/><path d="M765.909 14.8193C764.32 12.251 759.875 15.0823 759.976 18.5961C760.033 20.5244 760.053 20.5271 760.784 18.7266C761.826 16.1601 764.171 14.3932 765.47 15.1937C766.158 15.6189 766.32 15.4811 765.909 14.8193Z" stroke="url(#V)"/><path d="M774.342 8.4099C771.52 10.417 771.152 12.2139 772.747 16.2064L773.766 18.7584L774.976 16.0387C776.168 13.3598 776.188 13.3525 776.334 15.5854C776.473 17.7086 776.527 17.6796 777.176 15.1321C777.691 13.1132 777.897 12.9092 777.977 14.3416C778.124 16.9906 780.257 18.7058 781.509 17.1828C782.384 16.1184 782.961 12.9237 782.727 10.4388C782.671 9.85226 781.351 8.73717 779.792 7.96115C777.142 6.6421 776.79 6.6711 774.342 8.4099Z" stroke="url(#V)"/><path d="M771.5 8.21682C770.519 8.98559 769.962 10.5467 770.046 12.2964L770.183 15.1321L770.58 12.4124C770.8 10.9166 771.454 9.08076 772.034 8.33285C772.952 7.14978 772.883 7.13438 771.5 8.21682Z" stroke="url(#V)"/><path d="M767.639 10.146C766.89 10.146 766.277 10.7579 766.277 11.5058C766.277 12.2538 766.89 12.8657 767.639 12.8657C768.389 12.8657 769.002 12.2538 769.002 11.5058C769.002 10.7579 768.389 10.146 767.639 10.146Z" stroke="url(#V)"/><path d="M784.001 8.73265C782.766 7.12259 782.735 7.22412 783.636 9.91934C784.664 12.9953 785.351 13.7006 785.351 11.679C785.351 11.0263 784.743 9.70087 784.001 8.73265Z" stroke="url(#V)"/><path d="M787.235 10.32C786.698 10.1414 786.259 10.6745 786.259 11.5058C786.259 12.3372 786.698 12.8702 787.235 12.6916C787.772 12.513 788.212 11.9791 788.212 11.5058C788.212 11.0326 787.772 10.4986 787.235 10.32Z" stroke="url(#V)"/><path d="M775.81 4.5434C774.563 5.11001 773.543 5.99481 773.543 6.50793C773.543 7.08269 774.243 7.00564 775.36 6.3094C776.82 5.3983 777.549 5.40918 779.081 6.3647C781.648 7.96479 782.166 7.206 779.903 5.16169C778.393 3.79821 777.684 3.69123 775.81 4.5434Z" stroke="url(#V)"/><path d="M770.097 40.5341C764.338 35.6967 764.064 28.4922 769.437 23.129C772.039 20.5316 773.058 20.1228 776.858 20.15C782.051 20.188 784.811 21.5252 787.216 25.1651C790.64 30.3506 788.7 38.5986 783.361 41.5558C779.691 43.5893 773.134 43.0843 770.097 40.5341ZM785.805 31.4503C785.805 34.9678 785.372 36.0584 783.256 37.8752C777.646 42.6918 769.002 38.915 769.002 31.6461C769.002 23.8823 777.388 19.9877 783.256 25.0255C785.372 26.8422 785.805 27.9328 785.805 31.4503ZM773.835 38.0782C771.117 36.7673 769.394 32.3641 770.446 29.4187C772.432 23.8524 778.539 22.3855 782.648 26.4869C784.784 28.6182 785.064 31.1784 783.08 30.4187C782.195 30.0796 781.718 30.4413 781.718 31.4503C781.718 32.4593 782.195 32.8211 783.08 32.482C786.167 31.2998 784.064 36.1164 780.744 37.8298C777.781 39.3592 776.579 39.4027 773.835 38.0782ZM772.771 31.4503C772.771 30.9771 772.332 30.4431 771.795 30.2645C771.258 30.0859 770.818 30.619 770.818 31.4503C770.818 32.2816 771.258 32.8147 771.795 32.6361C772.332 32.4575 772.771 31.9236 772.771 31.4503ZM772.635 35.0013C772.635 33.4003 774.59 33.6787 775.152 35.3595C775.35 35.9523 774.864 36.4364 774.073 36.4364C773.282 36.4364 772.635 35.791 772.635 35.0013ZM778.221 36.8897C778.221 36.4165 777.781 35.8825 777.244 35.7039C776.708 35.5253 776.268 36.0584 776.268 36.8897C776.268 37.7211 776.708 38.2541 777.244 38.0755C777.781 37.8969 778.221 37.363 778.221 36.8897ZM777.244 30.2645C777.781 30.4431 778.221 30.9771 778.221 31.4503C778.221 31.9236 777.781 32.4575 777.244 32.6361C776.708 32.8147 776.268 32.2816 776.268 31.4503C776.268 30.619 776.708 30.0859 777.244 30.2645ZM782.451 35.4619C782.272 34.9261 781.738 34.4873 781.263 34.4873C780.789 34.4873 780.254 34.9261 780.075 35.4619C779.896 35.9977 780.431 36.4364 781.263 36.4364C782.096 36.4364 782.63 35.9977 782.451 35.4619ZM781.263 26.4642C782.013 26.4642 782.626 26.8477 782.626 27.3173C782.626 28.4605 781.207 29.2791 780.481 28.5547C779.459 27.534 779.859 26.4642 781.263 26.4642ZM778.785 26.2938C778.223 24.613 776.268 24.3347 776.268 25.9357C776.268 26.7253 776.915 27.3708 777.706 27.3708C778.497 27.3708 778.983 26.8867 778.785 26.2938ZM773.611 26.6382C774.148 26.8168 774.588 27.3508 774.588 27.8241C774.588 28.2973 774.148 28.8313 773.611 29.0099C773.074 29.1884 772.635 28.6554 772.635 27.8241C772.635 26.9927 773.074 26.4597 773.611 26.6382Z" stroke="url(#V)"/></g><defs><filter id="B" x="721.1" y="26.099" width="10.8" height="10.8" filterUnits="userSpaceOnUse" class="G"><feFlood flood-opacity="0"/><feBlend in="SourceGraphic" result="B"/><feColorMatrix in="SourceAlpha" values="0 0 0 0 0 0 0 0 0 0 0 0 0 0 0 0 0 0 127 0" result="C"/><feOffset dx="-0.9" dy="-2.7"/><feComposite in2="C" operator="arithmetic" k2="-1" k3="1"/><feColorMatrix values="0 0 0 0 0 0 0 0 0 0 0 0 0 0 0 0 0 0 0.5 0"/><feBlend in2="B" result="D"/><feColorMatrix in="SourceAlpha" values="0 0 0 0 0 0 0 0 0 0 0 0 0 0 0 0 0 0 127 0" result="C"/><feOffset dx="0.9" dy="2.7"/><feComposite in2="C" operator="arithmetic" k2="-1" k3="1"/><feColorMatrix values="0 0 0 0 1 0 0 0 0 1 0 0 0 0 1 0 0 0 0.5 0"/><feBlend in2="D"/></filter><filter id="C" x="823.1" y="26.099" width="10.8" height="10.8" filterUnits="userSpaceOnUse" class="G"><feFlood flood-opacity="0"/><feBlend in="SourceGraphic" result="B"/><feColorMatrix in="SourceAlpha" values="0 0 0 0 0 0 0 0 0 0 0 0 0 0 0 0 0 0 127 0" result="C"/><feOffset dx="-0.9" dy="-2.7"/><feComposite in2="C" operator="arithmetic" k2="-1" k3="1"/><feColorMatrix values="0 0 0 0 0 0 0 0 0 0 0 0 0 0 0 0 0 0 0.5 0"/><feBlend in2="B" result="D"/><feColorMatrix in="SourceAlpha" values="0 0 0 0 0 0 0 0 0 0 0 0 0 0 0 0 0 0 127 0" result="C"/><feOffset dx="0.9" dy="2.7"/><feComposite in2="C" operator="arithmetic" k2="-1" k3="1"/><feColorMatrix values="0 0 0 0 1 0 0 0 0 1 0 0 0 0 1 0 0 0 0.5 0"/><feBlend in2="D"/></filter><linearGradient id="D" x1="1012.54" y1="43.806" x2="1412.68" y2="43.806" href="#a"><stop stop-color="#ffc446"/><stop offset="1" stop-color="#fcf0d6"/></linearGradient><linearGradient id="E" x1="1012.54" y1="43.806" x2="1412.68" y2="43.806" href="#a"><stop stop-color="#fcf0d6"/><stop offset="1" stop-color="#ffc446"/></linearGradient><linearGradient id="F" x1="1004.53" y1="70.711" x2="1279.91" y2="70.711" href="#a"><stop stop-color="#ffc446"/><stop offset="1" stop-color="#fcf0d6"/></linearGradient><linearGradient id="G" x1="1004.53" y1="70.711" x2="1279.91" y2="70.711" href="#a"><stop stop-color="#fcf0d6"/><stop offset="1" stop-color="#ffc446"/></linearGradient><linearGradient id="H" x1="1016.39" y1="45.619" x2="1543.25" y2="172.98" href="#a"><stop stop-color="#ffc446"/><stop offset="1" stop-color="#fcf0d6"/></linearGradient><linearGradient id="I" x1="1016.39" y1="45.619" x2="1543.25" y2="172.98" href="#a"><stop stop-color="#fcf0d6"/><stop offset="1" stop-color="#ffc446"/></linearGradient><linearGradient id="J" x1="997.276" y1="78.494" x2="1359.86" y2="166.143" href="#a"><stop stop-color="#ffc446"/><stop offset="1" stop-color="#fcf0d6"/></linearGradient><linearGradient id="K" x1="997.276" y1="78.494" x2="1359.86" y2="166.143" href="#a"><stop stop-color="#fcf0d6"/><stop offset="1" stop-color="#ffc446"/></linearGradient><linearGradient id="L" x1="541.119" y1="43.902" x2="140.976" y2="43.902" href="#a"><stop stop-color="#ffc446"/><stop offset="1" stop-color="#fcf0d6"/></linearGradient><linearGradient id="M" x1="541.119" y1="43.902" x2="140.976" y2="43.902" href="#a"><stop stop-color="#fcf0d6"/><stop offset="1" stop-color="#ffc446"/></linearGradient><linearGradient id="N" x1="549.129" y1="70.806" x2="273.751" y2="70.806" href="#a"><stop stop-color="#ffc446"/><stop offset="1" stop-color="#fcf0d6"/></linearGradient><linearGradient id="O" x1="549.129" y1="70.806" x2="273.751" y2="70.806" href="#a"><stop stop-color="#fcf0d6"/><stop offset="1" stop-color="#ffc446"/></linearGradient><linearGradient id="P" x1="537.271" y1="45.714" x2="10.411" y2="173.075" href="#a"><stop stop-color="#ffc446"/><stop offset="1" stop-color="#fcf0d6"/></linearGradient><linearGradient id="Q" x1="537.271" y1="45.714" x2="10.411" y2="173.075" href="#a"><stop stop-color="#fcf0d6"/><stop offset="1" stop-color="#ffc446"/></linearGradient><linearGradient id="R" x1="556.381" y1="78.589" x2="193.797" y2="166.239" href="#a"><stop stop-color="#ffc446"/><stop offset="1" stop-color="#fcf0d6"/></linearGradient><linearGradient id="S" x1="556.381" y1="78.589" x2="193.797" y2="166.239" href="#a"><stop stop-color="#fcf0d6"/><stop offset="1" stop-color="#ffc446"/></linearGradient><linearGradient id="T" x1="726.5" y1="26.999" x2="726.5" y2="35.999" href="#a"><stop stop-color="#fcf0d6"/><stop offset="1" stop-color="#ffc446"/></linearGradient><linearGradient id="U" x1="828.5" y1="26.999" x2="828.5" y2="35.999" href="#a"><stop stop-color="#fcf0d6"/><stop offset="1" stop-color="#ffc446"/></linearGradient><linearGradient id="V" x1="750" y1="31.499" x2="805.332" y2="31.499" href="#a"><stop stop-color="#fcf0d6"/><stop offset="1" stop-color="#ffc446"/></linearGradient><linearGradient id="W" x1="750" y1="51.444" x2="805.332" y2="51.444" href="#a"><stop stop-color="#fcf0d6"/><stop offset="1" stop-color="#ffc446"/></linearGradient><linearGradient id="X" x1="750" y1="71.388" x2="805.332" y2="71.388" href="#a"><stop stop-color="#fcf0d6"/><stop offset="1" stop-color="#ffc446"/></linearGradient><path id="Y" d="M767.639 50.035c-.749 0-1.362.612-1.362 1.36s.613 1.36 1.362 1.36 1.363-.612 1.363-1.36-.613-1.36-1.363-1.36z"/><path id="Z" d="M757.649 40.063c-.75 0-1.363.612-1.363 1.36s.613 1.36 1.363 1.36 1.362-.612 1.362-1.36-.613-1.36-1.362-1.36z"/><linearGradient id="a" gradientUnits="userSpaceOnUse"/></defs></svg>