<svg xmlns="http://www.w3.org/2000/svg" width="1554" height="260" fill="none" viewBox="0 0 1554 260"><path fill="url(#a)" fill-opacity=".4" stroke="url(#b)" stroke-width="3" d="M1308.65 75.01c2.86-.05 5.57-.85 7.54-2.27 2.38-1.74 3.62-4.32 3.58-7.89-.01-1.58-.65-3.07-1.51-3.9-.47-.43-1.06-.75-1.82-.57-.03 0-.06.01-.09.02-.21 1.68-1.41 3.28-3.31 3.41h-.02c-2.19.13-3.67-1.75-3.76-3.7-.19-3.63 2.09-6.57 5.66-7.41 2.9-.68 5.76.18 8 2.3v.01c1.87 1.78 3.13 4.28 3.67 6.96.01 0 .01 0 .01.01 6.14 7.86 11.06 11.52 15.99 12.46 7.96 1.54 17.03-.68 27.01-6.9v-.01c3.78-2.34 7.22-5.44 10.99-8.84 5.35-4.82 11.13-10.06 18.19-12.72v-.04l1.02-.34c2.83-.94 5.9-1.25 8.91-.82-.41-.43-.85-.86-1.3-1.27-3.55-3.18-7.46-3.85-11.7-3.21-3.79.56-7.76 2.15-11.86 3.92l-1.76.77-1.73.75c-.57.24-1.14.49-1.71.73-16.52 6.91-34.22 5.86-48.5-2.96-5.08-3.14-9.81-7.01-14.32-10.82l-1.91-1.62c-7.28-6.17-13.95-11.81-21.81-15.18-22.28-9.53-41.21 3.29-59.41 18.02-24.33 19.69-57.54 22.95-101.04 10.46l-2.08-.6c-7.31-2.17-14.73-4.64-21.87-7.01-15.68-5.23-31.76-10.57-47.62-13.07-11.34-1.79-22.47-1.1-33.6 2.13.71-.02 1.44-.03 2.16-.03 6.63 0 13.59.99 20.84 2.97 5.81 1.58 11.74 3.79 17.61 6.57 3.92 1.85 7.89 3.81 11.79 5.75l3.88 1.93c10.4 5.18 21.08 10.51 31.79 14.73 9.51 3.75 19.27 6.34 28.99 7.71 16.54 2.33 33.53 1.18 50.51-3.43 8.04-2.18 16.37-5.32 24.73-9.29 1.91-.92 3.79-1.86 5.67-2.8 9.01-4.53 17.91-9.01 28.74-8.83 9.5.17 18.61 4 27.07 11.21h.01c3.32 2.83 6.25 6.35 9 9.63 3.81 4.56 7.23 8.6 11.31 11.07h-.01c2.3 1.38 5.2 2.07 8.07 2.01Z"/><path fill="url(#c)" fill-opacity=".4" stroke="url(#d)" stroke-width="3" d="M1250.6 107.64c9.41 1.12 19.43-4.8 24.18-14.62 1.77-3.66 2.94-8.06 3.46-13.11l.1-1.02c.31-3.67-.46-9.1-2.23-14.15-1.78-5.11-4.46-9.46-7.69-11.36l-.02-.01-.02-.01c-.13-.08-.27-.18-.4-.29-4.88-2.63-9.86-4.01-14.91-4.1-9.06-.17-16.95 3.74-25.65 8.12l-2.88 1.43c-.96.48-1.94.96-2.92 1.43l-1.63.77c-8.16 3.77-16.3 6.78-24.23 8.94-17.26 4.69-34.58 5.98-51.5 3.82l-1.64-.22c-9.6-1.36-19.22-3.84-28.61-7.39l-1.88-.72c-11-4.34-21.88-9.77-32.33-14.98-5.11-2.55-10.38-5.18-15.53-7.62-5.2-2.45-10.4-4.42-15.5-5.88l-1.01-.29c-12.5-3.4-23.83-3.62-33.71-.74-.18.05-.35.11-.53.16h.03c11.09 0 22.46 1.73 33.79 5.19l1.06.32v.02c14.16 4.57 26.67 13.4 38.55 21.79 13.73 9.68 26.42 18.61 41.33 22.02l.71.16c19.69 4.27 38.47 3.55 57.36-2.17l1.83-.57c7.26-2.32 14.84-5.64 24.62-10.81 1.97-1.04 3.91-2.23 6.02-3.51 5.17-3.13 10.8-6.57 17.15-7.71 4.04-.72 9.34-.32 14.06 1.63 4.74 1.96 9.04 5.56 10.7 11.29.73 2.48.75 5.33.24 7.99-.52 2.67-1.59 5.27-3.18 7.25h-.01c-1.08 1.36-2.66 2.36-4.31 2.94-1.66.59-3.52.8-5.22.45l-.01-.01c-2.54-.54-4.44-2.28-5.34-4.77-.66-1.82 0-4.11 1.84-5.03 1.99-.99 4.05.19 4.76 2.06.02.01.06.02.1.03.43.09 1.05.02 1.7-.22.68-.25 1.07-.56 1.15-.66.69-.87 1.26-2.18 1.55-3.64.28-1.45.26-2.89-.05-3.97-.86-2.97-3.38-5.1-6.62-6.4-.22.05-.46.08-.71.08-3.68 0-6.53 1.35-8.64 3.96l-.24.31c-2.43 3.22-3.82 8.39-3.55 13.96.23 4.88 2.25 9.62 5.29 13.27 3.05 3.66 7.03 6.11 11.12 6.59Z"/><path fill="url(#e)" fill-opacity=".4" stroke="url(#f)" stroke-width="4.06" d="M1396.33 180.96c3.8.84 7.62.65 10.65-.6 3.69-1.53 6.15-4.53 7.24-9.25.48-2.08.12-4.25-.75-5.61-.48-.72-1.15-1.33-2.22-1.34-.05 0-.09.01-.13.01-.81 2.15-2.9 3.87-5.44 3.43h-.02c-2.93-.53-4.27-3.48-3.78-6.07.91-4.84 4.85-7.98 9.81-7.96h.01c4.03.02 7.53 2.08 9.79 5.58l.01.01c1.89 2.95 2.75 6.63 2.62 10.33v.01h.01c5.57 12.31 10.89 18.69 17.08 21.51 9.99 4.56 22.64 4.52 37.76-.5h.01c5.71-1.89 11.23-4.88 17.27-8.15 8.58-4.65 17.86-9.7 28-10.96l.01-.04 1.46-.13c4.02-.34 8.17.24 11.99 1.75-.32-.54-.65-1.09-1.01-1.63l-.3-.45c-3.66-5.32-8.59-7.44-14.38-7.96-5.91-.53-12.55.63-19.42 1.84h-.01l-2.51.44c-.83.14-1.66.28-2.48.42l-1.13.17c-23.55 3.45-46.05-3.6-61.79-19.5-6.51-6.58-12.11-14.26-17.42-21.55-7.37-10.11-14.16-19.39-23.01-26.26l-.87-.66c-26.29-19.65-55.3-8.8-83.96 4.81-38.91 18.48-84.49 11.69-138.91-19.84-8.94-5.18-17.92-10.79-26.56-16.19-18.98-11.87-38.46-24.03-58.55-32.37-14.36-5.96-29.23-8.59-44.93-7.88.96.19 1.91.41 2.87.64 8.72 2.11 17.58 5.63 26.49 10.54 7.15 3.93 14.25 8.73 21.1 14.26 6.09 4.92 12.25 10.1 18.18 15.1 12.04 10.14 24.42 20.55 37.18 29.52 11.32 7.96 23.35 14.48 35.71 19.38 21.04 8.33 43.77 12.22 67.6 11.55 10.58-.29 21.75-1.61 33.22-3.89l2.3-.47c1.4-.3 2.8-.61 4.19-.93l4.16-.95c13.31-3.09 26.46-6.16 40.65-2.47 12.46 3.25 23.24 11.18 32.09 23.37 3.47 4.78 6.21 10.35 8.78 15.54 3.58 7.23 6.78 13.64 11.37 18.18 2.59 2.55 6.18 4.38 9.97 5.22Z"/><path fill="url(#g)" fill-opacity=".4" stroke="url(#h)" stroke-width="4.06" d="M1309.51 205.44c12.04 4.47 27.12-.14 36.5-11.56 3.73-4.53 6.83-10.39 9.19-17.47 1.57-4.73 2.29-12.12 1.57-19.34-.73-7.3-2.87-13.87-6.52-17.4l-.02-.02-.02-.02c-.15-.15-.3-.32-.45-.52-5.58-5.01-11.7-8.41-18.31-10.14-11.14-2.9-22.06-.77-33.97 1.97l-2.39.56c-2.82.65-5.66 1.31-8.54 1.92h-.01c-11.98 2.51-23.71 4.02-34.9 4.47l-2.24.08-2.34.06c-23.38.38-45.79-3.45-66.68-11.42l-2.09-.8c-12.62-5.01-24.88-11.61-36.44-19.61l-1.12-.78c-11.47-8.07-22.55-17.19-33.25-26.18l-4.56-3.83c-5.92-4.99-12.02-10.12-18.03-14.97-6.05-4.89-12.28-9.14-18.52-12.68l-1.25-.7c-15.37-8.47-30.21-12.36-44.15-11.71l-.74.04c.01 0 .02.01.04.01 14.6 3.53 29.01 9.42 42.83 17.59l1.3.76-.01.03c17.19 10.52 30.85 26.13 43.82 40.95 15.24 17.39 29.31 33.42 48.3 42.59 25.36 12.27 51.13 17.24 78.8 15.23 10.3-.75 21.34-2.71 35.86-6.4 2.93-.74 5.86-1.68 9.05-2.69v-.01c7.8-2.48 16.31-5.22 25.03-4.69 5.54.33 12.4 2.55 17.99 6.62 5.62 4.09 10.14 10.19 10.51 18.27h-.01c.17 3.5-.71 7.25-2.23 10.6-1.53 3.34-3.77 6.43-6.5 8.53-1.86 1.44-4.26 2.25-6.62 2.5-2.37.24-4.89-.07-7.01-1.08h-.01c-3.18-1.53-5.13-4.42-5.52-7.99-.28-2.61 1.31-5.42 4.03-6.04 2.93-.67 5.27 1.54 5.61 4.23.03.02.07.04.13.07.53.25 1.37.36 2.3.25.97-.11 1.59-.4 1.72-.5h.01c1.19-.92 2.35-2.47 3.19-4.3s1.27-3.72 1.2-5.24v-.01c-.19-4.18-2.82-7.79-6.67-10.52-.31-.01-.63-.04-.97-.12-4.84-1.18-9.03-.32-12.63 2.46l-.41.32c-4.23 3.48-7.71 9.83-9.13 17.26-1.24 6.49-.1 13.38 2.74 19.16 2.85 5.78 7.32 10.28 12.54 12.21Z"/><path fill="url(#i)" fill-opacity=".4" stroke="url(#j)" stroke-width="3" d="M245.01 75.11c-2.87-.06-5.58-.85-7.54-2.28-2.38-1.73-3.63-4.31-3.59-7.89.02-1.58.65-3.07 1.52-3.89.46-.44 1.05-.76 1.82-.58l.09.03c.21 1.68 1.41 3.28 3.31 3.41h.01c2.2.13 3.68-1.76 3.77-3.71.18-3.63-2.1-6.56-5.66-7.41-2.9-.68-5.77.19-8 2.31-1.87 1.79-3.13 4.28-3.68 6.96v.01c-6.14 7.87-11.06 11.52-15.99 12.47-7.96 1.54-17.03-.68-27.02-6.91-3.77-2.35-7.21-5.45-10.98-8.85-5.35-4.82-11.13-10.06-18.19-12.72v-.03l-1.03-.34c-2.82-.95-5.9-1.25-8.9-.82.41-.44.84-.86 1.3-1.27 3.54-3.18 7.45-3.85 11.69-3.22 3.8.57 7.77 2.16 11.86 3.93l1.77.76 1.73.75c.57.25 1.14.49 1.7.73h.01c16.52 6.91 34.22 5.87 48.49-2.95 5.09-3.15 9.82-7.02 14.32-10.82l1.92-1.62c7.27-6.17 13.94-11.81 21.8-15.18 22.28-9.54 41.21 3.28 59.42 18.01C345.29 53.69 378.5 56.94 422 44.46l2.08-.61c7.31-2.16 14.73-4.63 21.86-7.01 15.68-5.22 31.77-10.57 47.63-13.07 11.34-1.79 22.46-1.09 33.6 2.14-.72-.03-1.44-.04-2.17-.04-6.62 0-13.58.99-20.83 2.97-5.81 1.58-11.74 3.8-17.62 6.57-3.91 1.86-7.88 3.81-11.78 5.75l-3.88 1.93c-10.4 5.19-21.09 10.51-31.8 14.74-9.5 3.74-19.26 6.34-28.98 7.71-16.55 2.33-33.53 1.17-50.51-3.44-8.04-2.18-16.37-5.31-24.73-9.29-1.91-.91-3.79-1.86-5.67-2.8-9.01-4.52-17.92-9.01-28.74-8.82-9.51.17-18.62 3.99-27.08 11.2-3.32 2.84-6.25 6.35-9 9.63-3.82 4.57-7.23 8.61-11.31 11.07-2.3 1.39-5.19 2.08-8.06 2.02Z"/><path fill="url(#k)" fill-opacity=".4" stroke="url(#l)" stroke-width="3" d="M303.06 107.74c-9.41 1.12-19.43-4.8-24.18-14.63-1.77-3.65-2.95-8.05-3.47-13.11l-.09-1.02c-.31-3.66.45-9.09 2.22-14.15 1.79-5.11 4.47-9.45 7.7-11.36h.02l.01-.01c.14-.09.27-.18.41-.29 4.88-2.64 9.86-4.02 14.91-4.11 9.06-.16 16.95 3.75 25.65 8.12l2.87 1.44c.97.48 1.94.95 2.92 1.42h.01l1.63.77c8.16 3.78 16.3 6.78 24.23 8.94 17.26 4.7 34.58 5.98 51.5 3.83l1.63-.22c9.6-1.36 19.23-3.85 28.62-7.39l1.87-.73c11.01-4.34 21.89-9.76 32.34-14.97 5.11-2.55 10.38-5.18 15.53-7.62 5.19-2.45 10.4-4.43 15.49-5.89l1.02-.28c12.5-3.41 23.82-3.62 33.71-.74.17.05.35.1.53.16h-.03c-11.09 0-22.46 1.72-33.79 5.18l-1.06.33v.02c-14.16 4.57-26.67 13.4-38.55 21.78-13.73 9.69-26.42 18.62-41.33 22.03l-.71.16c-19.7 4.26-38.47 3.55-57.36-2.17l-1.83-.57c-7.26-2.33-14.85-5.65-24.62-10.81-1.98-1.05-3.91-2.23-6.03-3.51-5.16-3.14-10.79-6.58-17.14-7.71-4.04-.73-9.34-.33-14.06 1.62-4.74 1.97-9.04 5.56-10.71 11.3-.72 2.48-.74 5.32-.23 7.99.51 2.66 1.59 5.27 3.18 7.25 1.09 1.35 2.67 2.35 4.32 2.94 1.66.58 3.52.8 5.22.44 2.55-.54 4.45-2.28 5.35-4.77.66-1.82 0-4.12-1.84-5.03-1.99-.99-4.05.19-4.76 2.06-.03.01-.06.02-.11.03-.42.08-1.04.01-1.69-.22-.68-.25-1.07-.57-1.15-.66v-.01c-.7-.86-1.26-2.18-1.55-3.63-.29-1.46-.27-2.89.05-3.97v-.01c.86-2.96 3.37-5.1 6.62-6.39.22.05.45.08.71.08 3.68 0 6.53 1.34 8.64 3.96l.23.3c2.44 3.23 3.83 8.39 3.56 13.97-.23 4.87-2.25 9.62-5.29 13.27-3.05 3.66-7.03 6.11-11.12 6.59Z"/><path fill="url(#m)" fill-opacity=".4" stroke="url(#n)" stroke-width="4.06" d="M157.33 181.05c-3.8.84-7.62.66-10.66-.6-3.68-1.52-6.15-4.52-7.23-9.24-.48-2.09-.12-4.25.75-5.61.47-.73 1.15-1.34 2.22-1.34h.12c.81 2.15 2.91 3.88 5.45 3.44h.02c2.93-.53 4.27-3.48 3.78-6.08-.92-4.84-4.85-7.98-9.82-7.96-4.03.03-7.53 2.08-9.8 5.59-1.89 2.95-2.76 6.64-2.62 10.34 0 0-.01 0-.01.01-5.58 12.31-10.89 18.69-17.08 21.5-9.99 4.56-22.64 4.53-37.77-.49-5.71-1.89-11.23-4.88-17.28-8.15v-.01c-8.57-4.64-17.85-9.7-27.99-10.95l-.01-.05-1.46-.12c-4.03-.34-8.17.23-11.99 1.75.31-.55.65-1.09 1-1.63l.31-.45c3.65-5.32 8.59-7.44 14.37-7.96 5.92-.53 12.56.63 19.43 1.84h.01l2.51.44c.83.14 1.66.28 2.48.41l1.12.18c23.55 3.44 46.05-3.6 61.79-19.5 6.52-6.59 12.11-14.27 17.43-21.55 7.37-10.11 14.16-19.39 23.01-26.27l.86-.65c26.3-19.65 55.31-8.8 83.96 4.8 38.92 18.48 84.5 11.7 138.92-19.84 8.94-5.17 17.91-10.79 26.56-16.19 18.98-11.87 38.46-24.03 58.54-32.37 14.37-5.96 29.24-8.59 44.93-7.88-.95.2-1.91.41-2.87.64-8.72 2.11-17.57 5.63-26.49 10.55v-.01c-7.14 3.94-14.24 8.74-21.1 14.27C456.64 56.82 450.48 62 444.55 67c-12.05 10.14-24.42 20.55-37.18 29.52-11.32 7.96-23.35 14.48-35.71 19.38-21.04 8.33-43.78 12.22-67.6 11.55-10.58-.29-21.75-1.6-33.22-3.89l-2.3-.47c-1.4-.29-2.8-.61-4.19-.92l-4.16-.96c-13.31-3.09-26.46-6.16-40.65-2.47-12.46 3.25-23.25 11.18-32.09 23.37-3.47 4.79-6.21 10.35-8.79 15.55-3.57 7.22-6.78 13.63-11.36 18.17-2.59 2.56-6.18 4.38-9.97 5.22Z"/><path fill="url(#o)" fill-opacity=".4" stroke="url(#p)" stroke-width="4.06" d="M244.14 205.54c-12.03 4.47-27.11-.14-36.49-11.56h-.01c-3.72-4.53-6.83-10.4-9.18-17.48-1.57-4.72-2.29-12.11-1.57-19.34.72-7.29 2.87-13.87 6.52-17.4l.02-.02.02-.02q.225-.225.45-.51c5.58-5.02 11.69-8.42 18.31-10.14 11.14-2.91 22.06-.77 33.97 1.97l2.39.55c2.81.66 5.66 1.32 8.54 1.93h.01c11.98 2.51 23.71 4.01 34.9 4.47l2.23.08 2.35.05c23.38.39 45.79-3.45 66.68-11.41l2.09-.81c12.61-5 24.87-11.6 36.44-19.61l1.12-.78c11.47-8.06 22.55-17.19 33.25-26.17l4.56-3.84c5.91-4.98 12.01-10.12 18.02-14.97 6.06-4.88 12.29-9.14 18.53-12.68l1.25-.7c15.37-8.46 30.21-12.35 44.14-11.7l.75.04h-.04c-14.6 3.53-29.02 9.43-42.83 17.59l-1.3.76.01.03c-17.2 10.52-30.85 26.13-43.83 40.96-15.23 17.39-29.3 33.42-48.29 42.59-25.37 12.26-51.13 17.23-78.81 15.23-10.29-.75-21.34-2.71-35.85-6.4-2.93-.75-5.86-1.69-9.05-2.7-7.8-2.48-16.31-5.22-25.03-4.7-5.55.33-12.4 2.55-18 6.62-5.62 4.09-10.13 10.19-10.5 18.28-.16 3.5.71 7.25 2.24 10.59 1.52 3.34 3.77 6.43 6.5 8.53 1.86 1.44 4.25 2.26 6.62 2.5 2.36.25 4.88-.06 7.01-1.08 3.19-1.52 5.13-4.42 5.53-7.98.28-2.61-1.31-5.42-4.03-6.05-2.93-.67-5.27 1.55-5.61 4.24-.03.01-.07.04-.13.07-.53.25-1.37.35-2.3.24-.98-.11-1.59-.39-1.72-.5h-.01c-1.19-.92-2.35-2.47-3.19-4.3-.85-1.82-1.28-3.72-1.2-5.23v-.01c.18-4.18 2.81-7.79 6.67-10.53q.465 0 .96-.12c4.85-1.17 9.04-.31 12.64 2.46l.41.33c4.23 3.47 7.71 9.83 9.13 17.25 1.24 6.5.1 13.39-2.75 19.16-2.84 5.79-7.31 10.28-12.53 12.22z"/><g filter="url(#q)"><circle cx="726.5" cy="31.5" r="4.5" fill="url(#r)"/></g><circle cx="726.5" cy="31.5" r="4.5" stroke="url(#s)" stroke-width="1.8"/><g filter="url(#t)"><circle cx="828.5" cy="31.5" r="4.5" fill="url(#u)"/></g><circle cx="828.5" cy="31.5" r="4.5" stroke="url(#v)" stroke-width="1.8"/><mask id="ac" fill="#fff"><path d="M773.54 56.33c0 .48.72 1.28 1.59 1.79 2.34 1.36 3.39 1.19 5.23-.83 1.86-2.06 1.28-2.35-1.38-.69-1.44.9-2.17.89-3.62-.01-1-.62-1.82-.74-1.82-.26"/><path d="M773.47 54.85c.93-.24 1.96 0 2.29.55.77 1.23 3.23 1.29 3.23.07 0-.49.59-.9 1.31-.9 1.83 0 2.72-1.75 2.48-4.9-.31-4.02-1.83-5.49-3.82-3.68-1.26 1.13-1.7 1.19-2.07.25-.29-.71-.52-.46-.58.62-.1 1.63-.24 1.58-1.37-.45l-1.26-2.27-1.04 2.72c-.58 1.5-.82 3.86-.54 5.26.31 1.55.16 2.32-.39 1.99-.49-.31-.95-1.86-1.03-3.45-.13-2.82-.14-2.83-.52-.34-.46 3.08 1.03 5.12 3.31 4.53m11.23-3.91c-.28.75-.88 2.18-1.34 3.17-.82 1.79-.81 1.79.58.06.78-.97 1.38-2.4 1.34-3.18-.06-1.22-.14-1.22-.58-.05m-17.06-.91c-.75 0-1.36.62-1.36 1.36 0 .75.61 1.36 1.36 1.36s1.36-.61 1.36-1.36c0-.74-.61-1.36-1.36-1.36m20.06 0c-.79 0-1.44.65-1.44 1.44 0 1.6 1.95 1.32 2.52-.36.19-.59-.29-1.08-1.08-1.08m-27.71-5.73c-.04 1.09.55 2.6 1.32 3.37 1.38 1.38 7 1.65 6.16.29-.24-.4-1.15-.49-2.02-.22-1.59.51-3.92-1.42-4.89-4.05-.33-.91-.52-.71-.57.61m25.83 3.02c.17.74.33 1.46.37 1.58.25.83.93.01.75-.9-.12-.63.59-1.15 1.59-1.17 2.9-.06 4.09-1.24 4.09-4.07 0-1.68-.64-2.97-1.76-3.57-1.94-1.04-2.68-.4-2.3 1.94.17 1.06-.19 1.36-1.18.98-.93-.35-1.2-.18-.77.51.44.71.14.85-.92.45-1.26-.49-1.43-.27-.86 1.14.38.96.83 2.36.99 3.11"/><path d="M789.4 47.88c-.81-.31-1.18-.16-.86.35.89 1.44 3.67 1.04 5.31-.78 1.23-1.34 1.36-2.36.69-5.21l-.83-3.54-.09 3.75c-.1 4.01-1.89 6.32-4.22 5.43m-27.29-5.21c-.25 1.35.18 2.58 1.14 3.28 2.01 1.47 6.11.37 6.52-1.75.19-1.01-.07-1.4-.68-1.02-.55.34-1 .16-1-.4s-.36-.79-.8-.51c-.44.27-.75-.22-.68-1.08.07-1-.63-1.69-1.92-1.87-1.13-.16-2.08.04-2.11.45-.04.41-.25 1.72-.47 2.9m-4.46-2.61c-.75 0-1.36.61-1.36 1.36s.61 1.36 1.36 1.36 1.36-.61 1.36-1.36-.61-1.36-1.36-1.36m39.61 0c-1.3 0-1.7.42-1.32 1.4.59 1.55 2.27 1.36 2.83-.32.2-.6-.47-1.08-1.51-1.08m-36.44-.44c-.5.3-.9.93-.9 1.4 0 1.31.65 1.02 1.25-.55.31-.81.16-1.17-.35-.85m-4.05-1.59c-1.24-.23-2.03-.08-1.77.35.47.75 4.01 1.13 4.01.43 0-.19-1.01-.54-2.24-.78m45.21-3.55c-.97 1.72-2.75 3.23-4.37 3.71-2.27.67-2.38.82-.66.88 2.2.09 8.38-5.53 8.38-7.62s-6.18-7.71-8.38-7.62c-1.71.06-1.6.21.67.87 1.7.5 3.34 1.94 4.36 3.83 1.58 2.93 1.58 3.15 0 5.95"/><path d="M792.63 35.99c1.01.32 1.63.9 1.39 1.29s.67.51 2.03.27c2.4-.43 6.49-4.27 6.49-6.1s-4.09-5.67-6.49-6.1c-1.36-.24-2.28-.13-2.05.24s-.4.88-1.39 1.14c-1.08.28-1.81 1.24-1.81 2.37 0 1.43.61 1.93 2.5 2.03l2.5.14-2.5.38c-3 .45-3.46 3.45-.67 4.34m-38.96-2.43c.69 1.33 1.66 2.72 2.16 3.09 2.29 1.67 7-.08 7.41-2.77.25-1.66-.16-2-2.64-2.12l-2.95-.15 2.94-.36c2.39-.3 2.88-.72 2.64-2.29-.29-1.9-2.37-3.22-5.29-3.34-.84-.03-2.43 1.19-3.52 2.73-1.79 2.51-1.87 3.04-.75 5.21"/><path d="M751.75 28.03c-2.25 1.92-2.34 4.58-.23 6.63.87.85 1.76 1.38 1.98 1.19s-.09-.83-.68-1.42c-1.31-1.31-1.42-4.93-.17-5.7.5-.31.91-.94.91-1.4 0-.47-.82-.15-1.81.7m6.03-4.1c-.93-.2-2.08.04-2.57.52-.57.57.03.7 1.69.36 1.9-.39 2.13-.61.88-.88m4.86-.47c1.19.18 2.37.53 2.62.78.8.8 2.05-2.27 1.38-3.36-.4-.64-.24-.79.4-.39.58.35 1.05.19 1.05-.37s.45-.74 1-.4c.61.38.87-.01.68-1.02-.67-3.49-8.47-2.85-7.99.65.1.67.12 1.83.05 2.58-.11 1.21-.23 1.21-1.08 0-.75-1.05-.89-1.07-.62-.08.18.7 1.32 1.42 2.51 1.61m25.93-1.76c-.14.87-.08 1.9.13 2.27.22.38 1.19.26 2.16-.25 1.9-1.03 2.42-5.3.83-6.89-1.46-1.45-6.11-.39-6.61 1.51-.44 1.66 1.54 3.13 3 2.23.41-.25.63.26.49 1.13"/><path d="M789.42 15.01c2.54-.97 4.92 2.14 4.5 5.87l-.37 3.32.91-3.54c.75-2.91.64-3.84-.61-5.21-1.64-1.82-4.42-2.22-5.31-.78-.32.52.05.66.88.34m-31.77 5.11c-.75 0-1.36.61-1.36 1.36s.61 1.36 1.36 1.36 1.36-.61 1.36-1.36-.61-1.36-1.36-1.36m41.12 1.64c-.56-1.68-2.24-1.87-2.83-.32-.38.98.02 1.4 1.32 1.4 1.04 0 1.71-.48 1.51-1.08m-32.86-6.94c-1.59-2.57-6.03.26-5.93 3.78.05 1.92.07 1.93.8.13 1.05-2.57 3.39-4.34 4.69-3.54.69.43.85.29.44-.37m8.43-6.41c-2.82 2.01-3.19 3.8-1.59 7.8l1.02 2.55 1.21-2.72c1.19-2.68 1.21-2.69 1.35-.45.14 2.12.2 2.09.85-.46.51-2.02.72-2.22.8-.79.14 2.65 2.28 4.37 3.53 2.84.87-1.06 1.45-4.26 1.22-6.74-.06-.59-1.38-1.7-2.94-2.48-2.65-1.32-3-1.29-5.45.45"/><path d="M771.5 8.22c-.98.77-1.54 2.33-1.45 4.08l.13 2.83.4-2.72c.22-1.49.87-3.33 1.45-4.08.92-1.18.85-1.2-.53-.11m-3.86 1.93c-.75 0-1.36.61-1.36 1.36 0 .74.61 1.36 1.36 1.36s1.36-.62 1.36-1.36c0-.75-.61-1.36-1.36-1.36M784 8.73c-1.23-1.61-1.26-1.51-.36 1.19 1.02 3.08 1.71 3.78 1.71 1.76 0-.65-.61-1.98-1.35-2.95m3.24 1.59c-.54-.18-.98.35-.98 1.19 0 .83.44 1.36.98 1.18.53-.18.97-.71.97-1.18 0-.48-.44-1.01-.97-1.19m-11.43-5.78c-1.25.57-2.27 1.45-2.27 1.97 0 .57.7.5 1.82-.2 1.46-.91 2.19-.9 3.72.05 2.57 1.6 3.09.85.82-1.2-1.51-1.36-2.22-1.47-4.09-.62"/><path fill-rule="evenodd" d="M770.1 40.53c-5.76-4.83-6.04-12.04-.66-17.4 2.6-2.6 3.62-3.01 7.42-2.98 5.19.04 7.95 1.38 10.36 5.02 3.42 5.18 1.48 13.43-3.86 16.39-3.67 2.03-10.23 1.52-13.26-1.03m15.7-9.08c0 3.52-.43 4.61-2.54 6.43-5.61 4.81-14.26 1.03-14.26-6.23 0-7.77 8.39-11.66 14.26-6.62 2.11 1.81 2.54 2.9 2.54 6.42m-11.96 6.63c-2.72-1.31-4.45-5.72-3.39-8.66 1.98-5.57 8.09-7.03 12.2-2.93 2.13 2.13 2.41 4.69.43 3.93-.88-.34-1.36.02-1.36 1.03s.48 1.37 1.36 1.03c3.09-1.18.98 3.64-2.34 5.35-2.96 1.53-4.16 1.57-6.9.25m-1.07-6.63c0-.47-.44-1.01-.98-1.19-.53-.17-.97.36-.97 1.19s.44 1.36.97 1.19c.54-.18.98-.72.98-1.19m-.14 3.55c0-1.6 1.96-1.32 2.52.36.2.59-.29 1.08-1.08 1.08s-1.44-.65-1.44-1.44m5.59 1.89c0-.47-.44-1.01-.98-1.19-.53-.17-.97.36-.97 1.19s.44 1.36.97 1.19c.54-.18.98-.72.98-1.19m-.98-6.63c.54.18.98.72.98 1.19s-.44 1.01-.98 1.19c-.53.17-.97-.36-.97-1.19s.44-1.36.97-1.19m5.21 5.2c-.18-.53-.71-.97-1.19-.97-.47 0-1.01.44-1.18.97-.18.54.35.98 1.18.98.84 0 1.37-.44 1.19-.98m-1.19-9c.75 0 1.37.39 1.37.86 0 1.14-1.42 1.96-2.15 1.23-1.02-1.02-.62-2.09.78-2.09m-2.48-.17c-.56-1.68-2.51-1.96-2.51-.35 0 .79.64 1.43 1.44 1.43.79 0 1.27-.48 1.07-1.08m-5.17.35c.54.18.98.71.98 1.18 0 .48-.44 1.01-.98 1.19s-.98-.35-.98-1.19c0-.83.44-1.36.98-1.18" clip-rule="evenodd"/></mask><path fill="url(#w)" fill-opacity=".4" d="M773.54 56.33c0 .48.72 1.28 1.59 1.79 2.34 1.36 3.39 1.19 5.23-.83 1.86-2.06 1.28-2.35-1.38-.69-1.44.9-2.17.89-3.62-.01-1-.62-1.82-.74-1.82-.26"/><path fill="url(#x)" fill-opacity=".4" d="M773.47 54.85c.93-.24 1.96 0 2.29.55.77 1.23 3.23 1.29 3.23.07 0-.49.59-.9 1.31-.9 1.83 0 2.72-1.75 2.48-4.9-.31-4.02-1.83-5.49-3.82-3.68-1.26 1.13-1.7 1.19-2.07.25-.29-.71-.52-.46-.58.62-.1 1.63-.24 1.58-1.37-.45l-1.26-2.27-1.04 2.72c-.58 1.5-.82 3.86-.54 5.26.31 1.55.16 2.32-.39 1.99-.49-.31-.95-1.86-1.03-3.45-.13-2.82-.14-2.83-.52-.34-.46 3.08 1.03 5.12 3.31 4.53"/><path fill="url(#y)" fill-opacity=".4" d="M784.7 50.94c-.28.75-.88 2.18-1.34 3.17-.82 1.79-.81 1.79.58.06.78-.97 1.38-2.4 1.34-3.18-.06-1.22-.14-1.22-.58-.05"/><path fill="url(#z)" fill-opacity=".4" d="M767.64 50.03c-.75 0-1.36.62-1.36 1.36 0 .75.61 1.36 1.36 1.36s1.36-.61 1.36-1.36c0-.74-.61-1.36-1.36-1.36"/><path fill="url(#A)" fill-opacity=".4" d="M787.7 50.03c-.79 0-1.44.65-1.44 1.44 0 1.6 1.95 1.32 2.52-.36.19-.59-.29-1.08-1.08-1.08"/><path fill="url(#B)" fill-opacity=".4" d="M759.99 44.3c-.04 1.09.55 2.6 1.32 3.37 1.38 1.38 7 1.65 6.16.29-.24-.4-1.15-.49-2.02-.22-1.59.51-3.92-1.42-4.89-4.05-.33-.91-.52-.71-.57.61"/><path fill="url(#C)" fill-opacity=".4" d="M785.82 47.32c.17.74.33 1.46.37 1.58.25.83.93.01.75-.9-.12-.63.59-1.15 1.59-1.17 2.9-.06 4.09-1.24 4.09-4.07 0-1.68-.64-2.97-1.76-3.57-1.94-1.04-2.68-.4-2.3 1.94.17 1.06-.19 1.36-1.18.98-.93-.35-1.2-.18-.77.51.44.71.14.85-.92.45-1.26-.49-1.43-.27-.86 1.14.38.96.83 2.36.99 3.11"/><path fill="url(#D)" fill-opacity=".4" d="M789.4 47.88c-.81-.31-1.18-.16-.86.35.89 1.44 3.67 1.04 5.31-.78 1.23-1.34 1.36-2.36.69-5.21l-.83-3.54-.09 3.75c-.1 4.01-1.89 6.32-4.22 5.43"/><path fill="url(#E)" fill-opacity=".4" d="M762.11 42.67c-.25 1.35.18 2.58 1.14 3.28 2.01 1.47 6.11.37 6.52-1.75.19-1.01-.07-1.4-.68-1.02-.55.34-1 .16-1-.4s-.36-.79-.8-.51c-.44.27-.75-.22-.68-1.08.07-1-.63-1.69-1.92-1.87-1.13-.16-2.08.04-2.11.45-.04.41-.25 1.72-.47 2.9"/><path fill="url(#F)" fill-opacity=".4" d="M757.65 40.06c-.75 0-1.36.61-1.36 1.36s.61 1.36 1.36 1.36 1.36-.61 1.36-1.36-.61-1.36-1.36-1.36"/><path fill="url(#G)" fill-opacity=".4" d="M797.26 40.06c-1.3 0-1.7.42-1.32 1.4.59 1.55 2.27 1.36 2.83-.32.2-.6-.47-1.08-1.51-1.08"/><path fill="url(#H)" fill-opacity=".4" d="M760.82 39.62c-.5.3-.9.93-.9 1.4 0 1.31.65 1.02 1.25-.55.31-.81.16-1.17-.35-.85"/><path fill="url(#I)" fill-opacity=".4" d="M756.77 38.03c-1.24-.23-2.03-.08-1.77.35.47.75 4.01 1.13 4.01.43 0-.19-1.01-.54-2.24-.78"/><path fill="url(#J)" fill-opacity=".4" d="M801.98 34.48c-.97 1.72-2.75 3.23-4.37 3.71-2.27.67-2.38.82-.66.88 2.2.09 8.38-5.53 8.38-7.62s-6.18-7.71-8.38-7.62c-1.71.06-1.6.21.67.87 1.7.5 3.34 1.94 4.36 3.83 1.58 2.93 1.58 3.15 0 5.95"/><path fill="url(#K)" fill-opacity=".4" d="M792.63 35.99c1.01.32 1.63.9 1.39 1.29s.67.51 2.03.27c2.4-.43 6.49-4.27 6.49-6.1s-4.09-5.67-6.49-6.1c-1.36-.24-2.28-.13-2.05.24s-.4.88-1.39 1.14c-1.08.28-1.81 1.24-1.81 2.37 0 1.43.61 1.93 2.5 2.03l2.5.14-2.5.38c-3 .45-3.46 3.45-.67 4.34"/><path fill="url(#L)" fill-opacity=".4" d="M753.67 33.56c.69 1.33 1.66 2.72 2.16 3.09 2.29 1.67 7-.08 7.41-2.77.25-1.66-.16-2-2.64-2.12l-2.95-.15 2.94-.36c2.39-.3 2.88-.72 2.64-2.29-.29-1.9-2.37-3.22-5.29-3.34-.84-.03-2.43 1.19-3.52 2.73-1.79 2.51-1.87 3.04-.75 5.21"/><path fill="url(#M)" fill-opacity=".4" d="M751.75 28.03c-2.25 1.92-2.34 4.58-.23 6.63.87.85 1.76 1.38 1.98 1.19s-.09-.83-.68-1.42c-1.31-1.31-1.42-4.93-.17-5.7.5-.31.91-.94.91-1.4 0-.47-.82-.15-1.81.7"/><path fill="url(#N)" fill-opacity=".4" d="M757.78 23.93c-.93-.2-2.08.04-2.57.52-.57.57.03.7 1.69.36 1.9-.39 2.13-.61.88-.88"/><path fill="url(#O)" fill-opacity=".4" d="M762.64 23.46c1.19.18 2.37.53 2.62.78.8.8 2.05-2.27 1.38-3.36-.4-.64-.24-.79.4-.39.58.35 1.05.19 1.05-.37s.45-.74 1-.4c.61.38.87-.01.68-1.02-.67-3.49-8.47-2.85-7.99.65.1.67.12 1.83.05 2.58-.11 1.21-.23 1.21-1.08 0-.75-1.05-.89-1.07-.62-.08.18.7 1.32 1.42 2.51 1.61"/><path fill="url(#P)" fill-opacity=".4" d="M788.57 21.7c-.14.87-.08 1.9.13 2.27.22.38 1.19.26 2.16-.25 1.9-1.03 2.42-5.3.83-6.89-1.46-1.45-6.11-.39-6.61 1.51-.44 1.66 1.54 3.13 3 2.23.41-.25.63.26.49 1.13"/><path fill="url(#Q)" fill-opacity=".4" d="M789.42 15.01c2.54-.97 4.92 2.14 4.5 5.87l-.37 3.32.91-3.54c.75-2.91.64-3.84-.61-5.21-1.64-1.82-4.42-2.22-5.31-.78-.32.52.05.66.88.34"/><path fill="url(#R)" fill-opacity=".4" d="M757.65 20.12c-.75 0-1.36.61-1.36 1.36s.61 1.36 1.36 1.36 1.36-.61 1.36-1.36-.61-1.36-1.36-1.36"/><path fill="url(#S)" fill-opacity=".4" d="M798.77 21.76c-.56-1.68-2.24-1.87-2.83-.32-.38.98.02 1.4 1.32 1.4 1.04 0 1.71-.48 1.51-1.08"/><path fill="url(#T)" fill-opacity=".4" d="M765.91 14.82c-1.59-2.57-6.03.26-5.93 3.78.05 1.92.07 1.93.8.13 1.05-2.57 3.39-4.34 4.69-3.54.69.43.85.29.44-.37"/><path fill="url(#U)" fill-opacity=".4" d="M774.34 8.41c-2.82 2.01-3.19 3.8-1.59 7.8l1.02 2.55 1.21-2.72c1.19-2.68 1.21-2.69 1.35-.45.14 2.12.2 2.09.85-.46.51-2.02.72-2.22.8-.79.14 2.65 2.28 4.37 3.53 2.84.87-1.06 1.45-4.26 1.22-6.74-.06-.59-1.38-1.7-2.94-2.48-2.65-1.32-3-1.29-5.45.45"/><path fill="url(#V)" fill-opacity=".4" d="M771.5 8.22c-.98.77-1.54 2.33-1.45 4.08l.13 2.83.4-2.72c.22-1.49.87-3.33 1.45-4.08.92-1.18.85-1.2-.53-.11"/><path fill="url(#W)" fill-opacity=".4" d="M767.64 10.15c-.75 0-1.36.61-1.36 1.36 0 .74.61 1.36 1.36 1.36s1.36-.62 1.36-1.36c0-.75-.61-1.36-1.36-1.36"/><path fill="url(#X)" fill-opacity=".4" d="M784 8.73c-1.23-1.61-1.26-1.51-.36 1.19 1.02 3.08 1.71 3.78 1.71 1.76 0-.65-.61-1.98-1.35-2.95"/><path fill="url(#Y)" fill-opacity=".4" d="M787.24 10.32c-.54-.18-.98.35-.98 1.19 0 .83.44 1.36.98 1.18.53-.18.97-.71.97-1.18 0-.48-.44-1.01-.97-1.19"/><path fill="url(#Z)" fill-opacity=".4" d="M775.81 4.54c-1.25.57-2.27 1.45-2.27 1.97 0 .57.7.5 1.82-.2 1.46-.91 2.19-.9 3.72.05 2.57 1.6 3.09.85.82-1.2-1.51-1.36-2.22-1.47-4.09-.62"/><path fill="url(#aa)" fill-opacity=".4" fill-rule="evenodd" d="M770.1 40.53c-5.76-4.83-6.04-12.04-.66-17.4 2.6-2.6 3.62-3.01 7.42-2.98 5.19.04 7.95 1.38 10.36 5.02 3.42 5.18 1.48 13.43-3.86 16.39-3.67 2.03-10.23 1.52-13.26-1.03m15.7-9.08c0 3.52-.43 4.61-2.54 6.43-5.61 4.81-14.26 1.03-14.26-6.23 0-7.77 8.39-11.66 14.26-6.62 2.11 1.81 2.54 2.9 2.54 6.42m-11.96 6.63c-2.72-1.31-4.45-5.72-3.39-8.66 1.98-5.57 8.09-7.03 12.2-2.93 2.13 2.13 2.41 4.69.43 3.93-.88-.34-1.36.02-1.36 1.03s.48 1.37 1.36 1.03c3.09-1.18.98 3.64-2.34 5.35-2.96 1.53-4.16 1.57-6.9.25m-1.07-6.63c0-.47-.44-1.01-.98-1.19-.53-.17-.97.36-.97 1.19s.44 1.36.97 1.19c.54-.18.98-.72.98-1.19m-.14 3.55c0-1.6 1.96-1.32 2.52.36.2.59-.29 1.08-1.08 1.08s-1.44-.65-1.44-1.44m5.59 1.89c0-.47-.44-1.01-.98-1.19-.53-.17-.97.36-.97 1.19s.44 1.36.97 1.19c.54-.18.98-.72.98-1.19m-.98-6.63c.54.18.98.72.98 1.19s-.44 1.01-.98 1.19c-.53.17-.97-.36-.97-1.19s.44-1.36.97-1.19m5.21 5.2c-.18-.53-.71-.97-1.19-.97-.47 0-1.01.44-1.18.97-.18.54.35.98 1.18.98.84 0 1.37-.44 1.19-.98m-1.19-9c.75 0 1.37.39 1.37.86 0 1.14-1.42 1.96-2.15 1.23-1.02-1.02-.62-2.09.78-2.09m-2.48-.17c-.56-1.68-2.51-1.96-2.51-.35 0 .79.64 1.43 1.44 1.43.79 0 1.27-.48 1.07-1.08m-5.17.35c.54.18.98.71.98 1.18 0 .48-.44 1.01-.98 1.19s-.98-.35-.98-1.19c0-.83.44-1.36.98-1.18" clip-rule="evenodd"/><path stroke="url(#ab)" stroke-width="2.97" d="M773.54 56.33c0 .48.72 1.28 1.59 1.79 2.34 1.36 3.39 1.19 5.23-.83 1.86-2.06 1.28-2.35-1.38-.69-1.44.9-2.17.89-3.62-.01-1-.62-1.82-.74-1.82-.26Z" mask="url(#ac)"/><path stroke="url(#ad)" stroke-width="2.97" d="M773.47 54.85c.93-.24 1.96 0 2.29.55.77 1.23 3.23 1.29 3.23.07 0-.49.59-.9 1.31-.9 1.83 0 2.72-1.75 2.48-4.9-.31-4.02-1.83-5.49-3.82-3.68-1.26 1.13-1.7 1.19-2.07.25-.29-.71-.52-.46-.58.62-.1 1.63-.24 1.58-1.37-.45l-1.26-2.27-1.04 2.72c-.58 1.5-.82 3.86-.54 5.26.31 1.55.16 2.32-.39 1.99-.49-.31-.95-1.86-1.03-3.45-.13-2.82-.14-2.83-.52-.34-.46 3.08 1.03 5.12 3.31 4.53Z" mask="url(#ac)"/><path stroke="url(#ae)" stroke-width="2.97" d="M784.7 50.94c-.28.75-.88 2.18-1.34 3.17-.82 1.79-.81 1.79.58.06.78-.97 1.38-2.4 1.34-3.18-.06-1.22-.14-1.22-.58-.05Z" mask="url(#ac)"/><path stroke="url(#af)" stroke-width="2.97" d="M767.64 50.03c-.75 0-1.36.62-1.36 1.36 0 .75.61 1.36 1.36 1.36s1.36-.61 1.36-1.36c0-.74-.61-1.36-1.36-1.36Z" mask="url(#ac)"/><path stroke="url(#ag)" stroke-width="2.97" d="M787.7 50.03c-.79 0-1.44.65-1.44 1.44 0 1.6 1.95 1.32 2.52-.36.19-.59-.29-1.08-1.08-1.08Z" mask="url(#ac)"/><path stroke="url(#ah)" stroke-width="2.97" d="M759.99 44.3c-.04 1.09.55 2.6 1.32 3.37 1.38 1.38 7 1.65 6.16.29-.24-.4-1.15-.49-2.02-.22-1.59.51-3.92-1.42-4.89-4.05-.33-.91-.52-.71-.57.61Z" mask="url(#ac)"/><path stroke="url(#ai)" stroke-width="2.97" d="M785.82 47.32c.17.74.33 1.46.37 1.58.25.83.93.01.75-.9-.12-.63.59-1.15 1.59-1.17 2.9-.06 4.09-1.24 4.09-4.07 0-1.68-.64-2.97-1.76-3.57-1.94-1.04-2.68-.4-2.3 1.94.17 1.06-.19 1.36-1.18.98-.93-.35-1.2-.18-.77.51.44.71.14.85-.92.45-1.26-.49-1.43-.27-.86 1.14.38.96.83 2.36.99 3.11Z" mask="url(#ac)"/><path stroke="url(#aj)" stroke-width="2.97" d="M789.4 47.88c-.81-.31-1.18-.16-.86.35.89 1.44 3.67 1.04 5.31-.78 1.23-1.34 1.36-2.36.69-5.21l-.83-3.54-.09 3.75c-.1 4.01-1.89 6.32-4.22 5.43Z" mask="url(#ac)"/><path stroke="url(#ak)" stroke-width="2.97" d="M762.11 42.67c-.25 1.35.18 2.58 1.14 3.28 2.01 1.47 6.11.37 6.52-1.75.19-1.01-.07-1.4-.68-1.02-.55.34-1 .16-1-.4s-.36-.79-.8-.51c-.44.27-.75-.22-.68-1.08.07-1-.63-1.69-1.92-1.87-1.13-.16-2.08.04-2.11.45-.04.41-.25 1.72-.47 2.9Z" mask="url(#ac)"/><path stroke="url(#al)" stroke-width="2.97" d="M757.65 40.06c-.75 0-1.36.61-1.36 1.36s.61 1.36 1.36 1.36 1.36-.61 1.36-1.36-.61-1.36-1.36-1.36Z" mask="url(#ac)"/><path stroke="url(#am)" stroke-width="2.97" d="M797.26 40.06c-1.3 0-1.7.42-1.32 1.4.59 1.55 2.27 1.36 2.83-.32.2-.6-.47-1.08-1.51-1.08Z" mask="url(#ac)"/><path stroke="url(#an)" stroke-width="2.97" d="M760.82 39.62c-.5.3-.9.93-.9 1.4 0 1.31.65 1.02 1.25-.55.31-.81.16-1.17-.35-.85Z" mask="url(#ac)"/><path stroke="url(#ao)" stroke-width="2.97" d="M756.77 38.03c-1.24-.23-2.03-.08-1.77.35.47.75 4.01 1.13 4.01.43 0-.19-1.01-.54-2.24-.78Z" mask="url(#ac)"/><path stroke="url(#ap)" stroke-width="2.97" d="M801.98 34.48c-.97 1.72-2.75 3.23-4.37 3.71-2.27.67-2.38.82-.66.88 2.2.09 8.38-5.53 8.38-7.62s-6.18-7.71-8.38-7.62c-1.71.06-1.6.21.67.87 1.7.5 3.34 1.94 4.36 3.83 1.58 2.93 1.58 3.15 0 5.95Z" mask="url(#ac)"/><path stroke="url(#aq)" stroke-width="2.97" d="M792.63 35.99c1.01.32 1.63.9 1.39 1.29s.67.51 2.03.27c2.4-.43 6.49-4.27 6.49-6.1s-4.09-5.67-6.49-6.1c-1.36-.24-2.28-.13-2.05.24s-.4.88-1.39 1.14c-1.08.28-1.81 1.24-1.81 2.37 0 1.43.61 1.93 2.5 2.03l2.5.14-2.5.38c-3 .45-3.46 3.45-.67 4.34Z" mask="url(#ac)"/><path stroke="url(#ar)" stroke-width="2.97" d="M753.67 33.56c.69 1.33 1.66 2.72 2.16 3.09 2.29 1.67 7-.08 7.41-2.77.25-1.66-.16-2-2.64-2.12l-2.95-.15 2.94-.36c2.39-.3 2.88-.72 2.64-2.29-.29-1.9-2.37-3.22-5.29-3.34-.84-.03-2.43 1.19-3.52 2.73-1.79 2.51-1.87 3.04-.75 5.21Z" mask="url(#ac)"/><path stroke="url(#as)" stroke-width="2.97" d="M751.75 28.03c-2.25 1.92-2.34 4.58-.23 6.63.87.85 1.76 1.38 1.98 1.19s-.09-.83-.68-1.42c-1.31-1.31-1.42-4.93-.17-5.7.5-.31.91-.94.91-1.4 0-.47-.82-.15-1.81.7Z" mask="url(#ac)"/><path stroke="url(#at)" stroke-width="2.97" d="M757.78 23.93c-.93-.2-2.08.04-2.57.52-.57.57.03.7 1.69.36 1.9-.39 2.13-.61.88-.88Z" mask="url(#ac)"/><path stroke="url(#au)" stroke-width="2.97" d="M762.64 23.46c1.19.18 2.37.53 2.62.78.8.8 2.05-2.27 1.38-3.36-.4-.64-.24-.79.4-.39.58.35 1.05.19 1.05-.37s.45-.74 1-.4c.61.38.87-.01.68-1.02-.67-3.49-8.47-2.85-7.99.65.1.67.12 1.83.05 2.58-.11 1.21-.23 1.21-1.08 0-.75-1.05-.89-1.07-.62-.08.18.7 1.32 1.42 2.51 1.61Z" mask="url(#ac)"/><path stroke="url(#av)" stroke-width="2.97" d="M788.57 21.7c-.14.87-.08 1.9.13 2.27.22.38 1.19.26 2.16-.25 1.9-1.03 2.42-5.3.83-6.89-1.46-1.45-6.11-.39-6.61 1.51-.44 1.66 1.54 3.13 3 2.23.41-.25.63.26.49 1.13Z" mask="url(#ac)"/><path stroke="url(#aw)" stroke-width="2.97" d="M789.42 15.01c2.54-.97 4.92 2.14 4.5 5.87l-.37 3.32.91-3.54c.75-2.91.64-3.84-.61-5.21-1.64-1.82-4.42-2.22-5.31-.78-.32.52.05.66.88.34Z" mask="url(#ac)"/><path stroke="url(#ax)" stroke-width="2.97" d="M757.65 20.12c-.75 0-1.36.61-1.36 1.36s.61 1.36 1.36 1.36 1.36-.61 1.36-1.36-.61-1.36-1.36-1.36Z" mask="url(#ac)"/><path stroke="url(#ay)" stroke-width="2.97" d="M798.77 21.76c-.56-1.68-2.24-1.87-2.83-.32-.38.98.02 1.4 1.32 1.4 1.04 0 1.71-.48 1.51-1.08Z" mask="url(#ac)"/><path stroke="url(#az)" stroke-width="2.97" d="M765.91 14.82c-1.59-2.57-6.03.26-5.93 3.78.05 1.92.07 1.93.8.13 1.05-2.57 3.39-4.34 4.69-3.54.69.43.85.29.44-.37Z" mask="url(#ac)"/><path stroke="url(#aA)" stroke-width="2.97" d="M774.34 8.41c-2.82 2.01-3.19 3.8-1.59 7.8l1.02 2.55 1.21-2.72c1.19-2.68 1.21-2.69 1.35-.45.14 2.12.2 2.09.85-.46.51-2.02.72-2.22.8-.79.14 2.65 2.28 4.37 3.53 2.84.87-1.06 1.45-4.26 1.22-6.74-.06-.59-1.38-1.7-2.94-2.48-2.65-1.32-3-1.29-5.45.45Z" mask="url(#ac)"/><path stroke="url(#aB)" stroke-width="2.97" d="M771.5 8.22c-.98.77-1.54 2.33-1.45 4.08l.13 2.83.4-2.72c.22-1.49.87-3.33 1.45-4.08.92-1.18.85-1.2-.53-.11Z" mask="url(#ac)"/><path stroke="url(#aC)" stroke-width="2.97" d="M767.64 10.15c-.75 0-1.36.61-1.36 1.36 0 .74.61 1.36 1.36 1.36s1.36-.62 1.36-1.36c0-.75-.61-1.36-1.36-1.36Z" mask="url(#ac)"/><path stroke="url(#aD)" stroke-width="2.97" d="M784 8.73c-1.23-1.61-1.26-1.51-.36 1.19 1.02 3.08 1.71 3.78 1.71 1.76 0-.65-.61-1.98-1.35-2.95Z" mask="url(#ac)"/><path stroke="url(#aE)" stroke-width="2.97" d="M787.24 10.32c-.54-.18-.98.35-.98 1.19 0 .83.44 1.36.98 1.18.53-.18.97-.71.97-1.18 0-.48-.44-1.01-.97-1.19Z" mask="url(#ac)"/><path stroke="url(#aF)" stroke-width="2.97" d="M775.81 4.54c-1.25.57-2.27 1.45-2.27 1.97 0 .57.7.5 1.82-.2 1.46-.91 2.19-.9 3.72.05 2.57 1.6 3.09.85.82-1.2-1.51-1.36-2.22-1.47-4.09-.62Z" mask="url(#ac)"/><path stroke="url(#aG)" stroke-width="2.97" d="M770.1 40.53c-5.76-4.83-6.04-12.04-.66-17.4 2.6-2.6 3.62-3.01 7.42-2.98 5.19.04 7.95 1.38 10.36 5.02 3.42 5.18 1.48 13.43-3.86 16.39-3.67 2.03-10.23 1.52-13.26-1.03Zm15.7-9.08c0 3.52-.43 4.61-2.54 6.43-5.61 4.81-14.26 1.03-14.26-6.23 0-7.77 8.39-11.66 14.26-6.62 2.11 1.81 2.54 2.9 2.54 6.42Zm-11.96 6.63c-2.72-1.31-4.45-5.72-3.39-8.66 1.98-5.57 8.09-7.03 12.2-2.93 2.13 2.13 2.41 4.69.43 3.93-.88-.34-1.36.02-1.36 1.03s.48 1.37 1.36 1.03c3.09-1.18.98 3.64-2.34 5.35-2.96 1.53-4.16 1.57-6.9.25Zm-1.07-6.63c0-.47-.44-1.01-.98-1.19-.53-.17-.97.36-.97 1.19s.44 1.36.97 1.19c.54-.18.98-.72.98-1.19Zm-.14 3.55c0-1.6 1.96-1.32 2.52.36.2.59-.29 1.08-1.08 1.08s-1.44-.65-1.44-1.44Zm5.59 1.89c0-.47-.44-1.01-.98-1.19-.53-.17-.97.36-.97 1.19s.44 1.36.97 1.19c.54-.18.98-.72.98-1.19Zm-.98-6.63c.54.18.98.72.98 1.19s-.44 1.01-.98 1.19c-.53.17-.97-.36-.97-1.19s.44-1.36.97-1.19Zm5.21 5.2c-.18-.53-.71-.97-1.19-.97-.47 0-1.01.44-1.18.97-.18.54.35.98 1.18.98.84 0 1.37-.44 1.19-.98Zm-1.19-9c.75 0 1.37.39 1.37.86 0 1.14-1.42 1.96-2.15 1.23-1.02-1.02-.62-2.09.78-2.09Zm-2.48-.17c-.56-1.68-2.51-1.96-2.51-.35 0 .79.64 1.43 1.44 1.43.79 0 1.27-.48 1.07-1.08Zm-5.17.35c.54.18.98.71.98 1.18 0 .48-.44 1.01-.98 1.19s-.98-.35-.98-1.19c0-.83.44-1.36.98-1.18Z" clip-rule="evenodd" mask="url(#ac)"/><defs><linearGradient id="a" x1="1012.54" x2="1412.68" y1="43.81" y2="43.81" gradientUnits="userSpaceOnUse"><stop stop-color="#ffc446"/><stop offset="1" stop-color="#fcf0d6"/></linearGradient><linearGradient id="b" x1="1012.54" x2="1412.68" y1="43.81" y2="43.81" gradientUnits="userSpaceOnUse"><stop stop-color="#fcf0d6"/><stop offset="1" stop-color="#ffc446"/></linearGradient><linearGradient id="c" x1="1004.53" x2="1279.91" y1="70.71" y2="70.71" gradientUnits="userSpaceOnUse"><stop stop-color="#ffc446"/><stop offset="1" stop-color="#fcf0d6"/></linearGradient><linearGradient id="d" x1="1004.53" x2="1279.91" y1="70.71" y2="70.71" gradientUnits="userSpaceOnUse"><stop stop-color="#fcf0d6"/><stop offset="1" stop-color="#ffc446"/></linearGradient><linearGradient id="e" x1="1016.39" x2="1543.25" y1="45.62" y2="172.98" gradientUnits="userSpaceOnUse"><stop stop-color="#ffc446"/><stop offset="1" stop-color="#fcf0d6"/></linearGradient><linearGradient id="f" x1="1016.39" x2="1543.25" y1="45.62" y2="172.98" gradientUnits="userSpaceOnUse"><stop stop-color="#fcf0d6"/><stop offset="1" stop-color="#ffc446"/></linearGradient><linearGradient id="g" x1="997.28" x2="1359.86" y1="78.49" y2="166.14" gradientUnits="userSpaceOnUse"><stop stop-color="#ffc446"/><stop offset="1" stop-color="#fcf0d6"/></linearGradient><linearGradient id="h" x1="997.28" x2="1359.86" y1="78.49" y2="166.14" gradientUnits="userSpaceOnUse"><stop stop-color="#fcf0d6"/><stop offset="1" stop-color="#ffc446"/></linearGradient><linearGradient id="i" x1="541.12" x2="140.98" y1="43.9" y2="43.9" gradientUnits="userSpaceOnUse"><stop stop-color="#ffc446"/><stop offset="1" stop-color="#fcf0d6"/></linearGradient><linearGradient id="j" x1="541.12" x2="140.98" y1="43.9" y2="43.9" gradientUnits="userSpaceOnUse"><stop stop-color="#fcf0d6"/><stop offset="1" stop-color="#ffc446"/></linearGradient><linearGradient id="k" x1="549.13" x2="273.75" y1="70.81" y2="70.81" gradientUnits="userSpaceOnUse"><stop stop-color="#ffc446"/><stop offset="1" stop-color="#fcf0d6"/></linearGradient><linearGradient id="l" x1="549.13" x2="273.75" y1="70.81" y2="70.81" gradientUnits="userSpaceOnUse"><stop stop-color="#fcf0d6"/><stop offset="1" stop-color="#ffc446"/></linearGradient><linearGradient id="m" x1="537.27" x2="10.41" y1="45.71" y2="173.07" gradientUnits="userSpaceOnUse"><stop stop-color="#ffc446"/><stop offset="1" stop-color="#fcf0d6"/></linearGradient><linearGradient id="n" x1="537.27" x2="10.41" y1="45.71" y2="173.07" gradientUnits="userSpaceOnUse"><stop stop-color="#fcf0d6"/><stop offset="1" stop-color="#ffc446"/></linearGradient><linearGradient id="o" x1="556.38" x2="193.8" y1="78.59" y2="166.24" gradientUnits="userSpaceOnUse"><stop stop-color="#ffc446"/><stop offset="1" stop-color="#fcf0d6"/></linearGradient><linearGradient id="p" x1="556.38" x2="193.8" y1="78.59" y2="166.24" gradientUnits="userSpaceOnUse"><stop stop-color="#fcf0d6"/><stop offset="1" stop-color="#ffc446"/></linearGradient><linearGradient id="r" x1="726.5" x2="726.5" y1="27" y2="36" gradientUnits="userSpaceOnUse"><stop stop-color="#fcf0d6"/><stop offset="1" stop-color="#ffc446"/></linearGradient><linearGradient id="s" x1="726.5" x2="726.5" y1="27" y2="36" gradientUnits="userSpaceOnUse"><stop stop-color="#fcf0d6"/><stop offset="1" stop-color="#ffc446"/></linearGradient><linearGradient id="u" x1="828.5" x2="828.5" y1="27" y2="36" gradientUnits="userSpaceOnUse"><stop stop-color="#fcf0d6"/><stop offset="1" stop-color="#ffc446"/></linearGradient><linearGradient id="v" x1="828.5" x2="828.5" y1="27" y2="36" gradientUnits="userSpaceOnUse"><stop stop-color="#fcf0d6"/><stop offset="1" stop-color="#ffc446"/></linearGradient><linearGradient id="w" x1="750" x2="805.33" y1="31.5" y2="31.5" gradientUnits="userSpaceOnUse"><stop stop-color="#fcf0d6"/><stop offset="1" stop-color="#ffc446"/></linearGradient><linearGradient id="x" x1="750" x2="805.33" y1="31.5" y2="31.5" gradientUnits="userSpaceOnUse"><stop stop-color="#fcf0d6"/><stop offset="1" stop-color="#ffc446"/></linearGradient><linearGradient id="y" x1="750" x2="805.33" y1="31.5" y2="31.5" gradientUnits="userSpaceOnUse"><stop stop-color="#fcf0d6"/><stop offset="1" stop-color="#ffc446"/></linearGradient><linearGradient id="z" x1="750" x2="805.33" y1="31.5" y2="31.5" gradientUnits="userSpaceOnUse"><stop stop-color="#fcf0d6"/><stop offset="1" stop-color="#ffc446"/></linearGradient><linearGradient id="A" x1="750" x2="805.33" y1="31.5" y2="31.5" gradientUnits="userSpaceOnUse"><stop stop-color="#fcf0d6"/><stop offset="1" stop-color="#ffc446"/></linearGradient><linearGradient id="B" x1="750" x2="805.33" y1="31.5" y2="31.5" gradientUnits="userSpaceOnUse"><stop stop-color="#fcf0d6"/><stop offset="1" stop-color="#ffc446"/></linearGradient><linearGradient id="C" x1="750" x2="805.33" y1="31.5" y2="31.5" gradientUnits="userSpaceOnUse"><stop stop-color="#fcf0d6"/><stop offset="1" stop-color="#ffc446"/></linearGradient><linearGradient id="D" x1="750" x2="805.33" y1="31.5" y2="31.5" gradientUnits="userSpaceOnUse"><stop stop-color="#fcf0d6"/><stop offset="1" stop-color="#ffc446"/></linearGradient><linearGradient id="E" x1="750" x2="805.33" y1="31.5" y2="31.5" gradientUnits="userSpaceOnUse"><stop stop-color="#fcf0d6"/><stop offset="1" stop-color="#ffc446"/></linearGradient><linearGradient id="F" x1="750" x2="805.33" y1="31.5" y2="31.5" gradientUnits="userSpaceOnUse"><stop stop-color="#fcf0d6"/><stop offset="1" stop-color="#ffc446"/></linearGradient><linearGradient id="G" x1="750" x2="805.33" y1="31.5" y2="31.5" gradientUnits="userSpaceOnUse"><stop stop-color="#fcf0d6"/><stop offset="1" stop-color="#ffc446"/></linearGradient><linearGradient id="H" x1="750" x2="805.33" y1="31.5" y2="31.5" gradientUnits="userSpaceOnUse"><stop stop-color="#fcf0d6"/><stop offset="1" stop-color="#ffc446"/></linearGradient><linearGradient id="I" x1="750" x2="805.33" y1="31.5" y2="31.5" gradientUnits="userSpaceOnUse"><stop stop-color="#fcf0d6"/><stop offset="1" stop-color="#ffc446"/></linearGradient><linearGradient id="J" x1="750" x2="805.33" y1="31.5" y2="31.5" gradientUnits="userSpaceOnUse"><stop stop-color="#fcf0d6"/><stop offset="1" stop-color="#ffc446"/></linearGradient><linearGradient id="K" x1="750" x2="805.33" y1="31.5" y2="31.5" gradientUnits="userSpaceOnUse"><stop stop-color="#fcf0d6"/><stop offset="1" stop-color="#ffc446"/></linearGradient><linearGradient id="L" x1="750" x2="805.33" y1="31.5" y2="31.5" gradientUnits="userSpaceOnUse"><stop stop-color="#fcf0d6"/><stop offset="1" stop-color="#ffc446"/></linearGradient><linearGradient id="M" x1="750" x2="805.33" y1="31.5" y2="31.5" gradientUnits="userSpaceOnUse"><stop stop-color="#fcf0d6"/><stop offset="1" stop-color="#ffc446"/></linearGradient><linearGradient id="N" x1="750" x2="805.33" y1="31.5" y2="31.5" gradientUnits="userSpaceOnUse"><stop stop-color="#fcf0d6"/><stop offset="1" stop-color="#ffc446"/></linearGradient><linearGradient id="O" x1="750" x2="805.33" y1="31.5" y2="31.5" gradientUnits="userSpaceOnUse"><stop stop-color="#fcf0d6"/><stop offset="1" stop-color="#ffc446"/></linearGradient><linearGradient id="P" x1="750" x2="805.33" y1="31.5" y2="31.5" gradientUnits="userSpaceOnUse"><stop stop-color="#fcf0d6"/><stop offset="1" stop-color="#ffc446"/></linearGradient><linearGradient id="Q" x1="750" x2="805.33" y1="31.5" y2="31.5" gradientUnits="userSpaceOnUse"><stop stop-color="#fcf0d6"/><stop offset="1" stop-color="#ffc446"/></linearGradient><linearGradient id="R" x1="750" x2="805.33" y1="31.5" y2="31.5" gradientUnits="userSpaceOnUse"><stop stop-color="#fcf0d6"/><stop offset="1" stop-color="#ffc446"/></linearGradient><linearGradient id="S" x1="750" x2="805.33" y1="31.5" y2="31.5" gradientUnits="userSpaceOnUse"><stop stop-color="#fcf0d6"/><stop offset="1" stop-color="#ffc446"/></linearGradient><linearGradient id="T" x1="750" x2="805.33" y1="31.5" y2="31.5" gradientUnits="userSpaceOnUse"><stop stop-color="#fcf0d6"/><stop offset="1" stop-color="#ffc446"/></linearGradient><linearGradient id="U" x1="750" x2="805.33" y1="31.5" y2="31.5" gradientUnits="userSpaceOnUse"><stop stop-color="#fcf0d6"/><stop offset="1" stop-color="#ffc446"/></linearGradient><linearGradient id="V" x1="750" x2="805.33" y1="31.5" y2="31.5" gradientUnits="userSpaceOnUse"><stop stop-color="#fcf0d6"/><stop offset="1" stop-color="#ffc446"/></linearGradient><linearGradient id="W" x1="750" x2="805.33" y1="31.5" y2="31.5" gradientUnits="userSpaceOnUse"><stop stop-color="#fcf0d6"/><stop offset="1" stop-color="#ffc446"/></linearGradient><linearGradient id="X" x1="750" x2="805.33" y1="31.5" y2="31.5" gradientUnits="userSpaceOnUse"><stop stop-color="#fcf0d6"/><stop offset="1" stop-color="#ffc446"/></linearGradient><linearGradient id="Y" x1="750" x2="805.33" y1="31.5" y2="31.5" gradientUnits="userSpaceOnUse"><stop stop-color="#fcf0d6"/><stop offset="1" stop-color="#ffc446"/></linearGradient><linearGradient id="Z" x1="750" x2="805.33" y1="31.5" y2="31.5" gradientUnits="userSpaceOnUse"><stop stop-color="#fcf0d6"/><stop offset="1" stop-color="#ffc446"/></linearGradient><linearGradient id="aa" x1="750" x2="805.33" y1="31.5" y2="31.5" gradientUnits="userSpaceOnUse"><stop stop-color="#fcf0d6"/><stop offset="1" stop-color="#ffc446"/></linearGradient><linearGradient id="ab" x1="750" x2="805.33" y1="31.5" y2="31.5" gradientUnits="userSpaceOnUse"><stop stop-color="#fcf0d6"/><stop offset="1" stop-color="#ffc446"/></linearGradient><linearGradient id="ad" x1="750" x2="805.33" y1="31.5" y2="31.5" gradientUnits="userSpaceOnUse"><stop stop-color="#fcf0d6"/><stop offset="1" stop-color="#ffc446"/></linearGradient><linearGradient id="ae" x1="750" x2="805.33" y1="31.5" y2="31.5" gradientUnits="userSpaceOnUse"><stop stop-color="#fcf0d6"/><stop offset="1" stop-color="#ffc446"/></linearGradient><linearGradient id="af" x1="750" x2="805.33" y1="31.5" y2="31.5" gradientUnits="userSpaceOnUse"><stop stop-color="#fcf0d6"/><stop offset="1" stop-color="#ffc446"/></linearGradient><linearGradient id="ag" x1="750" x2="805.33" y1="31.5" y2="31.5" gradientUnits="userSpaceOnUse"><stop stop-color="#fcf0d6"/><stop offset="1" stop-color="#ffc446"/></linearGradient><linearGradient id="ah" x1="750" x2="805.33" y1="31.5" y2="31.5" gradientUnits="userSpaceOnUse"><stop stop-color="#fcf0d6"/><stop offset="1" stop-color="#ffc446"/></linearGradient><linearGradient id="ai" x1="750" x2="805.33" y1="31.5" y2="31.5" gradientUnits="userSpaceOnUse"><stop stop-color="#fcf0d6"/><stop offset="1" stop-color="#ffc446"/></linearGradient><linearGradient id="aj" x1="750" x2="805.33" y1="31.5" y2="31.5" gradientUnits="userSpaceOnUse"><stop stop-color="#fcf0d6"/><stop offset="1" stop-color="#ffc446"/></linearGradient><linearGradient id="ak" x1="750" x2="805.33" y1="31.5" y2="31.5" gradientUnits="userSpaceOnUse"><stop stop-color="#fcf0d6"/><stop offset="1" stop-color="#ffc446"/></linearGradient><linearGradient id="al" x1="750" x2="805.33" y1="31.5" y2="31.5" gradientUnits="userSpaceOnUse"><stop stop-color="#fcf0d6"/><stop offset="1" stop-color="#ffc446"/></linearGradient><linearGradient id="am" x1="750" x2="805.33" y1="31.5" y2="31.5" gradientUnits="userSpaceOnUse"><stop stop-color="#fcf0d6"/><stop offset="1" stop-color="#ffc446"/></linearGradient><linearGradient id="an" x1="750" x2="805.33" y1="31.5" y2="31.5" gradientUnits="userSpaceOnUse"><stop stop-color="#fcf0d6"/><stop offset="1" stop-color="#ffc446"/></linearGradient><linearGradient id="ao" x1="750" x2="805.33" y1="31.5" y2="31.5" gradientUnits="userSpaceOnUse"><stop stop-color="#fcf0d6"/><stop offset="1" stop-color="#ffc446"/></linearGradient><linearGradient id="ap" x1="750" x2="805.33" y1="31.5" y2="31.5" gradientUnits="userSpaceOnUse"><stop stop-color="#fcf0d6"/><stop offset="1" stop-color="#ffc446"/></linearGradient><linearGradient id="aq" x1="750" x2="805.33" y1="31.5" y2="31.5" gradientUnits="userSpaceOnUse"><stop stop-color="#fcf0d6"/><stop offset="1" stop-color="#ffc446"/></linearGradient><linearGradient id="ar" x1="750" x2="805.33" y1="31.5" y2="31.5" gradientUnits="userSpaceOnUse"><stop stop-color="#fcf0d6"/><stop offset="1" stop-color="#ffc446"/></linearGradient><linearGradient id="as" x1="750" x2="805.33" y1="31.5" y2="31.5" gradientUnits="userSpaceOnUse"><stop stop-color="#fcf0d6"/><stop offset="1" stop-color="#ffc446"/></linearGradient><linearGradient id="at" x1="750" x2="805.33" y1="31.5" y2="31.5" gradientUnits="userSpaceOnUse"><stop stop-color="#fcf0d6"/><stop offset="1" stop-color="#ffc446"/></linearGradient><linearGradient id="au" x1="750" x2="805.33" y1="31.5" y2="31.5" gradientUnits="userSpaceOnUse"><stop stop-color="#fcf0d6"/><stop offset="1" stop-color="#ffc446"/></linearGradient><linearGradient id="av" x1="750" x2="805.33" y1="31.5" y2="31.5" gradientUnits="userSpaceOnUse"><stop stop-color="#fcf0d6"/><stop offset="1" stop-color="#ffc446"/></linearGradient><linearGradient id="aw" x1="750" x2="805.33" y1="31.5" y2="31.5" gradientUnits="userSpaceOnUse"><stop stop-color="#fcf0d6"/><stop offset="1" stop-color="#ffc446"/></linearGradient><linearGradient id="ax" x1="750" x2="805.33" y1="31.5" y2="31.5" gradientUnits="userSpaceOnUse"><stop stop-color="#fcf0d6"/><stop offset="1" stop-color="#ffc446"/></linearGradient><linearGradient id="ay" x1="750" x2="805.33" y1="31.5" y2="31.5" gradientUnits="userSpaceOnUse"><stop stop-color="#fcf0d6"/><stop offset="1" stop-color="#ffc446"/></linearGradient><linearGradient id="az" x1="750" x2="805.33" y1="31.5" y2="31.5" gradientUnits="userSpaceOnUse"><stop stop-color="#fcf0d6"/><stop offset="1" stop-color="#ffc446"/></linearGradient><linearGradient id="aA" x1="750" x2="805.33" y1="31.5" y2="31.5" gradientUnits="userSpaceOnUse"><stop stop-color="#fcf0d6"/><stop offset="1" stop-color="#ffc446"/></linearGradient><linearGradient id="aB" x1="750" x2="805.33" y1="31.5" y2="31.5" gradientUnits="userSpaceOnUse"><stop stop-color="#fcf0d6"/><stop offset="1" stop-color="#ffc446"/></linearGradient><linearGradient id="aC" x1="750" x2="805.33" y1="31.5" y2="31.5" gradientUnits="userSpaceOnUse"><stop stop-color="#fcf0d6"/><stop offset="1" stop-color="#ffc446"/></linearGradient><linearGradient id="aD" x1="750" x2="805.33" y1="31.5" y2="31.5" gradientUnits="userSpaceOnUse"><stop stop-color="#fcf0d6"/><stop offset="1" stop-color="#ffc446"/></linearGradient><linearGradient id="aE" x1="750" x2="805.33" y1="31.5" y2="31.5" gradientUnits="userSpaceOnUse"><stop stop-color="#fcf0d6"/><stop offset="1" stop-color="#ffc446"/></linearGradient><linearGradient id="aF" x1="750" x2="805.33" y1="31.5" y2="31.5" gradientUnits="userSpaceOnUse"><stop stop-color="#fcf0d6"/><stop offset="1" stop-color="#ffc446"/></linearGradient><linearGradient id="aG" x1="750" x2="805.33" y1="31.5" y2="31.5" gradientUnits="userSpaceOnUse"><stop stop-color="#fcf0d6"/><stop offset="1" stop-color="#ffc446"/></linearGradient><filter id="q" width="10.8" height="10.8" x="721.1" y="26.1" color-interpolation-filters="sRGB" filterUnits="userSpaceOnUse"><feFlood flood-opacity="0" result="BackgroundImageFix"/><feBlend in="SourceGraphic" in2="BackgroundImageFix" result="shape"/><feColorMatrix in="SourceAlpha" result="hardAlpha" values="0 0 0 0 0 0 0 0 0 0 0 0 0 0 0 0 0 0 127 0"/><feOffset dx="-.9" dy="-2.7"/><feComposite in2="hardAlpha" k2="-1" k3="1" operator="arithmetic"/><feColorMatrix values="0 0 0 0 0 0 0 0 0 0 0 0 0 0 0 0 0 0 0.50 0"/><feBlend in2="shape" result="effect1_innerShadow_24_8217"/><feColorMatrix in="SourceAlpha" result="hardAlpha" values="0 0 0 0 0 0 0 0 0 0 0 0 0 0 0 0 0 0 127 0"/><feOffset dx=".9" dy="2.7"/><feComposite in2="hardAlpha" k2="-1" k3="1" operator="arithmetic"/><feColorMatrix values="0 0 0 0 1 0 0 0 0 1 0 0 0 0 1 0 0 0 0.50 0"/><feBlend in2="effect1_innerShadow_24_8217" result="effect2_innerShadow_24_8217"/></filter><filter id="t" width="10.8" height="10.8" x="823.1" y="26.1" color-interpolation-filters="sRGB" filterUnits="userSpaceOnUse"><feFlood flood-opacity="0" result="BackgroundImageFix"/><feBlend in="SourceGraphic" in2="BackgroundImageFix" result="shape"/><feColorMatrix in="SourceAlpha" result="hardAlpha" values="0 0 0 0 0 0 0 0 0 0 0 0 0 0 0 0 0 0 127 0"/><feOffset dx="-.9" dy="-2.7"/><feComposite in2="hardAlpha" k2="-1" k3="1" operator="arithmetic"/><feColorMatrix values="0 0 0 0 0 0 0 0 0 0 0 0 0 0 0 0 0 0 0.50 0"/><feBlend in2="shape" result="effect1_innerShadow_24_8217"/><feColorMatrix in="SourceAlpha" result="hardAlpha" values="0 0 0 0 0 0 0 0 0 0 0 0 0 0 0 0 0 0 127 0"/><feOffset dx=".9" dy="2.7"/><feComposite in2="hardAlpha" k2="-1" k3="1" operator="arithmetic"/><feColorMatrix values="0 0 0 0 1 0 0 0 0 1 0 0 0 0 1 0 0 0 0.50 0"/><feBlend in2="effect1_innerShadow_24_8217" result="effect2_innerShadow_24_8217"/></filter></defs></svg>