<svg xmlns="http://www.w3.org/2000/svg" width="873" height="871" fill="none" viewBox="0 0 873 871"><path fill="url(#a)" stroke="#f2c78b" stroke-width=".41" d="M560.04 445.9v103.37h68.46l.31-103.37z"/><path fill="url(#b)" stroke="#f2c78b" stroke-width=".41" d="m503.73 451.35 55.9 47.71v-53.55h51.52v-22.97h-47.09l-.06-.05-58.37-53.63z"/><path fill="url(#c)" stroke="#f2c78b" stroke-width=".41" d="m466.14 444.45-.1 108.72h37.28V452.24l.02-7.79z"/><path fill="url(#d)" stroke="#f2c78b" stroke-width=".41" d="m353.99 490.02.02-.05 25.67-45.77-1.67-83.11-29.3 58.74.05 19.8.25 115.11 4.98.02z"/><path fill="url(#e)" stroke="#f2c78b" stroke-width=".41" d="m327.52 418.53 20.87 1.05 29.49-59.11-19.99-.11z"/><path fill="url(#f)" stroke="#f2c78b" stroke-width=".41" d="m322.79 437.91-.01.22-.21-.02-4.61-.33-.24-.01 1.09 116.91 29.8.07-.26-115.11-.04-19.66-25.01-1.26z"/><path fill="url(#g)" stroke="#f2c78b" stroke-width=".41" d="m289.96 437.42-.32 117.16 28.76.09-1.09-116.93-11.8-.79z"/><path fill="url(#h)" stroke="#f2c78b" stroke-width=".41" d="M354.39 490.12v83.87l27.09 2.3-1.79-131.28z"/><path fill="url(#i)" stroke="#f2c78b" stroke-width=".41" d="M389.35 168.97h.73v119.88l-.01.04-6.39 16.7 1.4 138.35 17.8-.36-.91-72.71.64-132.48.28-55.78.04-10.61-7.44-6.67z"/><path fill="url(#j)" stroke="#f2c78b" stroke-width=".41" d="m354.63 365.67 2.93-5.65.06-.11h.12l20.46.11.2.01v.19l1.68 83.79 4.6-.08-1.4-138.18-28.26-.28zm34.05-196.3-19.09 11.3-7.27 4.85.02 7.56.21 95.53h27.13V169.37z"/><path fill="url(#k)" stroke="#f2c78b" stroke-width=".41" d="m403.3 182.73-.21 39.67 25.55-26.17-17.63-18.65z"/><path fill="url(#l)" stroke="#f2c78b" stroke-width=".41" d="m480.92 166.12 16.53 27.07 35.8-27.85-15.91-28.06z"/><path fill="url(#m)" stroke="#f2c78b" stroke-width=".41" d="m489.66 123.02 11.64 15.8.13.17-.18.12-13.72 9.56-.16.11-.12-.15-11.68-15.13-7.55 5.61-7.09 5.26 19.75 21.42 36.41-28.84-21.08-18.64z"/><path fill="url(#n)" stroke="#f2c78b" stroke-width=".41" d="m466.9 115.92 20.54 33.1 13.42-10.11-20.52-33.01z"/><path fill="url(#o)" stroke="#f2c78b" stroke-width=".41" d="m426.64 116.83 9.57 4.91.06.02.03.05 12.53 21.13 21.45-14.93-6.25-9.96-3.05 2.28-.13.09-.12-.09-19.14-14.73z"/><path fill="url(#p)" stroke="#f2c78b" stroke-width=".41" d="m442.87 89.42 18.05 30.44 5.59-4.16 13.77-10.27 14.92-11.12-16.64-31.82z"/><path fill="url(#q)" stroke="#f2c78b" stroke-width=".41" d="m443.4 53.51-13.82 9.87-7.61 5.44 20.65 20.28 35.69-26.93-20.69-18.83z"/><path fill="url(#r)" stroke="#f2c78b" stroke-width=".41" d="m428.4 88.38 2.16-1.56.11-.09.12.08 9.54 6.2.04.02.02.04 5.5 9.07.09.16-.15.11-3.89 2.92 18.21 14.02-17.71-29.86-20.32-19.96z"/><path fill="url(#s)" stroke="#f2c78b" stroke-width=".41" d="m428.41 88.89-43.02 31.23 4.34 6.62 7.59 11.57 25.08-18.82 18.04-13.52 5-3.77-5.37-8.87-9.39-6.09z"/><path fill="url(#t)" stroke="#f2c78b" stroke-width=".41" d="m356.98 115.67-12.54 9.09-10.27 7.45 17.39 22.1 37.7-27.5-18.55-21.09z"/><path fill="url(#u)" stroke="#f2c78b" stroke-width=".41" d="m351.8 154.63 19.52 27.74 36.89-26.74-11.11-16.92-7.6-11.58z"/><path fill="url(#v)" stroke="#f2c78b" stroke-width=".41" d="m308.39 105.5 19.34 27.7 14.64-10.26-8.41-8.39-.17-.17.2-.14 12.81-9.14.15-.11.12.15 7.87 9.25 7.53-5.53-11.11-16.8-8.39-11.8z"/><path fill="url(#w)" stroke="#f2c78b" stroke-width=".41" d="m334.4 114.45 8.79 10.74 12.62-9.16-8.93-10.49z"/><path fill="url(#x)" stroke="#f2c78b" stroke-width=".41" d="m453.25 126.22 11.89 14.5 10.17-7.53-12.26-14.17z"/><path fill="url(#y)" stroke="#f2c78b" stroke-width=".41" d="m292.18 84.51 15.97 20.67 34.59-25.24-2.92-4.08-14.09-16.41z"/><path fill="url(#z)" stroke="#f2c78b" stroke-width=".41" d="m384.44 44.42-44.18 31.34 11.31 15.89 42.96-32.53 3.26-2.4-4.04-8.01-7.58-5.45z"/><path fill="url(#A)" stroke="#f2c78b" stroke-width=".41" d="m384.41 43.94 1.64-1.1.12-.08.12.08 7.73 5.57.04.03.03.04 4.13 8.21.08.15-.14.1-.68.49-2.5 1.86 15.67 13.29-16.02-27.7L376.5 25.8z"/><path fill="url(#B)" stroke="#f2c78b" stroke-width=".41" d="m376.18 24.86 18.64 19.64 35.13-25.43L412.09.27z"/><path fill="url(#C)" stroke="#f2c78b" stroke-width=".41" d="m395.06 44.83 16.42 28.38 14.32-9.74-4.64-6.09-.05-.07.01-.08.47-3.93.01-.09.08-.05 12.48-8.44.15-.1.12.13 7.03 8.08 5.62-4.46-16.89-28.97z"/><path fill="url(#D)" stroke="#f2c78b" stroke-width=".41" d="m421.99 53.44-.44 3.72 6.79 4.77h.01l.01.01 1.12 1.01 12.5-8.91-7.73-8.88z"/><path fill="url(#E)" stroke="#f2c78b" stroke-width=".41" d="m361.91 185.32 7.27-4.84-9.85-11.64-8.42 7.11 11 15.64z"/><path fill="url(#F)" stroke="#f2c78b" stroke-width=".41" d="m332.82 156.6 17.83 19.02 8.41-7.1-16.08-19.06z"/><path fill="url(#G)" stroke="#f2c78b" stroke-width=".41" d="m343.17 173.62 18.74 18.97v-.31l-11.44-16.25-16.75-17.88z"/><path fill="url(#H)" stroke="#f2c78b" stroke-width=".41" d="m343.18 149.07 16.33 19.34 8.88 10.5-17.03-24.2-16.2-20.58z"/><path fill="url(#I)" stroke="#f2c78b" stroke-width=".41" d="m469.27 162.83-43.37 29.91 5.68 7.03.02.01 6.03 8.7 28.24-18.61 13.93-9.25-2.94-4.86.3-.26 4.82 3.84 1.05-.68-5.36-9.33-6.68-7.68z"/><path fill="url(#J)" stroke="#f2c78b" stroke-width=".41" d="m469.24 162.35 1.67-1.14.15-.11.12.14 6.8 7.83.01.02.01.01 5.48 9.52.09.16-.16.11-1.11.72 14.19 12.8-15.99-26.21-19.14-20.75z"/><path fill="url(#K)" stroke="#f2c78b" stroke-width=".41" d="m431.71 199.96 5.85 8.59 30.04-19.8 15.43-10.09-5.27-9.16z"/><path fill="url(#L)" stroke="#f2c78b" stroke-width=".41" d="m403.13 217.52-.11 19.94 10.67 16.06 35.46-27.17-20.27-29.84z"/><path fill="url(#M)" stroke="#f2c78b" stroke-width=".41" d="m384.45 120.73 5.26 5.99v.01l.01.01 1.52 2.28 48.65-35.85-8.71-8.11z"/><path fill="url(#N)" stroke="#f2c78b" stroke-width=".41" d="m391.47 129.34 5.85 8.96 28.82-21.61 14.3-10.73 5-3.77-5.28-8.72z"/><path fill="url(#O)" stroke="#f2c78b" stroke-width=".41" d="m384.45 44.41-.01.01-44.18 31.34 5.07 7.13 42.87-30.46 5.38-3.87-6.72-6.1z"/><path fill="url(#P)" stroke="#f2c78b" stroke-width=".41" d="M560.04 549.67v56.61h68.3l.16-56.61z"/><path fill="url(#Q)" stroke="#f2c78b" stroke-width=".41" d="m319.3 628.98 24.45-4.31v-69.5l-24.93-.09z"/><path fill="url(#R)" stroke="#f2c78b" stroke-width=".41" d="M344.15 555.16v51.56l9.83.74v-52.3z"/><path fill="url(#S)" stroke="#f2c78b" stroke-width=".41" d="m289.5 623.25 29.39 5.72-.49-73.87-28.76-.12z"/><path fill="url(#T)" stroke="#f2c78b" stroke-width=".41" d="M305.72 419.84v16.73l16.67 1.12.5-18.97z"/><path fill="url(#U)" stroke="#f2c78b" stroke-width=".41" d="m362.48 289.02-7.35 16.05 28.21.28 6.25-16.33z"/><path fill="url(#V)" stroke="#f2c78b" stroke-width=".41" d="M393.17 529.05v17.15l93.06-1.26v-15.89z"/><path fill="url(#W)" stroke="#f2c78b" stroke-width=".41" d="M393.18 551.43v19.58l154.09-3.94v-18.44z"/><path fill="url(#X)" stroke="#f2c78b" stroke-width=".41" d="M393.17 577.36v21.28l191.8-5.6v-20.79z"/><path fill="url(#Y)" stroke="#f2c78b" stroke-width=".41" d="m354.39 593.99 38.38 4.63.07-20.09-38.45-4.12z"/><path fill="url(#Z)" stroke="#f2c78b" stroke-width=".41" d="M383.12 604.78v27.5l277.1-8.61v-22.04z"/><path fill="url(#aa)" stroke="#f2c78b" stroke-width=".41" d="m344.15 622.02 38.57 10.2v-27.08l-38.57-1.48z"/><path fill="url(#ab)" stroke="#f2c78b" stroke-width=".41" d="M372.72 645.01v32.62l362.75-22.07v-23.12z"/><path fill="url(#ac)" stroke="#f2c78b" stroke-width=".41" d="m289.45 646.07 27.04 6.89h.01l.02.01 55.79 24.55v-32.1l-53.24-16-29.55-.03z"/><path fill="url(#ad)" stroke="#f2c78b" stroke-width=".41" d="m199.1 637.78 89.95 8.24.04-22.4-90.06-4.77z"/><path fill="url(#ae)" stroke="#f2c78b" stroke-width=".41" d="m239.52 608.92 49.6 3.78.04-16.21-49.64-3.9z"/><path fill="url(#af)" stroke="#f2c78b" stroke-width=".41" d="m270.07 587.04 19.09 1.56.05-16.21-19.14-1.03z"/><path fill="url(#ag)" stroke="#f2c78b" stroke-width=".41" d="M393.17 529.05v5.44l97.5-1.45v-3.99z"/><path fill="url(#ah)" stroke="#f2c78b" stroke-width=".41" d="M393.18 551.43v4.18l159.7-2.17v-4.81z"/><path fill="url(#ai)" stroke="#f2c78b" stroke-width=".41" d="m389.66 577.38-.11 6.28 202.41-5.32v-6.09z"/><path fill="url(#aj)" stroke="#f2c78b" stroke-width=".41" d="m354.39 579.8 34.76 3.83.11-6.27-34.87-2.95z"/><path fill="url(#ak)" stroke="#f2c78b" stroke-width=".41" d="m381.08 609.59-.11 6.68 286.17-8.55v-6.09z"/><path fill="url(#al)" stroke="#f2c78b" stroke-width=".41" d="m342.98 609.63 37.59 6.59.11-6.67-37.7-5.82z"/><path fill="url(#am)" stroke="#f2c78b" stroke-width=".41" d="m369.44 645.24-.2 8.1 373.36-14.9v-6.07z"/><path fill="url(#an)" stroke="#f2c78b" stroke-width=".41" d="m289.52 629.02 28.97 6.51.01.01h.01l50.33 17.72.2-8.08-49.99-15.77-29.55-5.75z"/><path fill="url(#ao)" stroke="#f2c78b" stroke-width=".41" d="m195.01 620.93 94.1 8.03-.02-5.36-94.08-7.45z"/><path fill="url(#ap)" stroke="#f2c78b" stroke-width=".41" d="m236.17 595.8 53.01 4.44-.02-3.76-52.99-4.15z"/><path fill="url(#aq)" stroke="#f2c78b" stroke-width=".41" d="m266.07 574.16 23.16 2-.02-3.78-23.14-1.7z"/><path fill="url(#ar)" stroke="#f2c78b" stroke-width=".41" d="m660.63 624.06-.2.01L383 632.69l-13.21 12.13 370.48-12.77-79.64-10.1z"/><path fill="url(#as)" stroke="#f2c78b" stroke-width=".41" d="m319.81 629.22 49.38 15.59 13.32-12.23-38.56-10.2z"/><path fill="url(#at)" stroke="#f2c78b" stroke-width=".41" d="m196.3 615.85 92.79 7.35.02-10.09-43.13-3.21-.19-.02v-.07l-6.49-.5-.19-.01v-1.84z"/><path fill="url(#au)" stroke="#f2c78b" stroke-width=".41" d="m237.54 592.04 51.62 4.04v-7.07l-19.31-1.57-.19-.02v-1.28z"/><path fill="url(#av)" stroke="#f2c78b" stroke-width=".41" d="m267.44 570.38 21.77 1.7.02-5.68z"/><path fill="url(#aw)" stroke="#f2c78b" stroke-width=".41" d="M585.38 593.44h-.2l-192.13 5.61-11.61 10.12 282.94-7.87-79-8.65z"/><path fill="url(#ax)" stroke="#f2c78b" stroke-width=".41" d="m354.39 600.43-.14.04-10.51 2.97 37.08 5.74L392.49 599l-31.03-3.73-7.07-.87z"/><path fill="url(#ay)" stroke="#f2c78b" stroke-width=".41" d="m393.18 546.62.08 4.4 153.72-2.69-60.55-2.97z"/><path fill="url(#az)" stroke="#f2c78b" stroke-width=".41" d="m380.08 444.6 1.8 131.68 22.01-4.48v-20.54l-1-107.26z"/><path fill="url(#aA)" stroke="#f2c78b" stroke-width=".41" d="m547.67 567.46-.2.01-143.17 3.66v1l-.16.03-21.03 4.28 6.35.53 200.01-5.07-41.8-5.27z"/><path fill="url(#aB)" stroke="#f2c78b" stroke-width=".41" d="m421.54 57.2 5.67 7.44 2.24-1.67-7.51-9.14z"/><path fill="url(#aC)" stroke="#f2c78b" stroke-width=".41" d="m336.65 120.96 4.6 5.6 1.61-1.14-8.17-9.99z"/><path fill="url(#aD)" stroke="#f2c78b" stroke-width=".41" d="m456.01 132.99 7.48 8.97 1.33-.99-11.15-13.59z"/><path fill="url(#aE)" stroke="#f2c78b" stroke-width=".41" d="m464.36 117.8 15.66 24.95 7.15 5.73-20.59-32.33z"/><path fill="url(#aF)" stroke="#f2c78b" stroke-width=".41" d="m306.33 106.71 17.84 22.1-16.22-23.23-13.45-17.41z"/><path fill="url(#aG)" stroke="#f2c78b" stroke-width=".41" d="m403.02 239.46 6.78 8.96-6.78-10.21z"/><path fill="url(#aH)" stroke="#f2c78b" stroke-width=".41" d="m466.51 177.22-.37 266.84h37.35l1.75-75.66-.44-66.34-15.69-13.43-.07-.06v-.09l.19-106.31-11.43-12.69z"/><path fill="url(#aI)" stroke="#f2c78b" stroke-width=".41" d="m403.21 203.03 6.91-6.25-6.85-10.16z"/><path fill="url(#aJ)" stroke="#f2c78b" stroke-width=".41" d="m426.53 116.91 7.27 11.32 13.99 13.76-11.82-19.94-7.99-6.24z"/><path fill="url(#aK)" stroke="#f2c78b" stroke-width=".41" d="m428.32 115.56 7.81 6.1 13.29-10.05-7.83-6.01z"/><path fill="url(#aL)" stroke="#f2c78b" stroke-width=".41" d="m399.52 142.25 3.85 5.28 31.67-23.4-5.72-4.55z"/><path fill="url(#aM)" stroke="#f2c78b" stroke-width=".41" d="m403.61 147.86 3.44 5.25 19.54-14.43 8.85-6.67 3.06-2.29-3.18-5.29z"/><mask id="aO" width="590.48" height="551" x="292.05" y="329.01" fill="#000" maskUnits="userSpaceOnUse"><path fill="#fff" d="M292.05 329.01h590.48v551H292.05z"/><path d="M302.81 639.84c11.57 2.73 22.92 1.75 31.14-2.65 6.5-3.48 11.41-8.85 16.15-14.03 2.48-2.71 4.83-5.28 7.35-7.54 11.93-10.73 23.24-14.61 35.64-12.23 12.09 2.32 30.1 24.77 39.36 34.94 6.31 6.93 36.21-10.8 72.37-10.68 17.97.05 38.23 23.69 58.21 26.96 20.61 3.37 41.03-7.29 49.66-25.93 5.08-10.98 6.57-28.29-5.49-41.5-3.84-8.51-12.61-15.68-22.06-13.95-4.3.79-8.11 3.43-10.21 7.07-.81 1.41-.32 3.2 1.08 4.02h.01c1.41.82 3.22.33 4.03-1.09 1.25-2.15 3.54-3.72 6.15-4.2 6.44-1.18 12.41 4.37 15.23 9.8.08.54.32 1.06.7 1.51.13.32.27.64.37.96 1.25 3.63.88 7.29-1.08 10.88-2.85 5.21-9.03 9.77-15.38 11.33-11.36 2.81-24.09-1.74-31-11.05-1.99-2.69-2.99-5.69-2.55-7.65.3-1.37 1.34-2.77 2.45-4.24.97-1.3 1.98-2.65 2.69-4.23 3.18-6.93.15-12.69-2.53-17.77-.63-1.18-1.26-2.39-1.84-3.63-1.44-3.12-1.7-6.36-.78-9.63 1.85-6.58 8.06-11.75 14.75-12.29 1.29-.11 2.68 0 4.13.1 2.33.17 4.75.34 7.31-.25 2.64-.62 5.15-2.18 7.24-4.51 1.17-1.3 2.06-2.68 2.91-4.02.81-1.26 1.58-2.46 2.5-3.44 2.78-2.97 5.64-4.72 8.97-5.5 4.49-1.06 9.69-.34 14.63 2 4.17 2 6.98 5.41 9.95 9.01 2.58 3.13 5.24 6.37 8.96 8.86 6.41 4.32 12.32 2.95 17.53 1.75 3.67-.84 7.13-1.63 10.63-.48 2.48.83 4.96 2.56 7.14 5.01 2.69 3.02 4.96 6.69 6.39 10.34 3.06 7.72 1.59 14.66-3.93 18.57-2.7 1.91-6.56 2.47-10.32 1.51-3.8-.98-6.84-3.35-8.35-6.47-1.25-2.58.1-4.93 1.77-6.27 1.27-1.02 1.48-2.88.47-4.14a2.98 2.98 0 0 0-4.16-.48c-4.27 3.41-5.64 8.82-3.4 13.46 2.27 4.69 6.71 8.2 12.19 9.61 5.42 1.4 11.09.5 15.2-2.4 7.78-5.5 10.08-15.29 6.02-25.57-1.68-4.26-4.34-8.55-7.48-12.08-2.87-3.24-6.23-5.55-9.7-6.7-5.06-1.68-9.71-.62-13.8.32-4.83 1.11-8.66 1.96-12.93-.89-3-2.01-5.28-4.78-7.69-7.72-1.78-2.16-3.61-4.35-5.77-6.33.62-.4 1.09-1.01 1.27-1.77 3.41-14.06 18.62-24.76 34.64-24.36 7.68.19 14.07 1.81 22.09 4.56-1.49 5.6-1.16 12.85 3.33 21.92 6.17 12.44 18.94 22.02 32.55 24.39 7.68 1.35 15.4-1.6 19.66-7.49 3.86-5.34 4.2-12.21.89-18.38-2.62-4.89-8.53-9.45-14.08-10.84-3.72-.93-7.13-.45-9.88 1.38-1.36.9-1.72 2.73-.82 4.1.89 1.35 2.73 1.72 4.1.82 1.33-.9 3.07-1.07 5.16-.56 4.4 1.1 8.7 4.89 10.31 7.9 2.25 4.2 2.08 8.62-.46 12.13-2.95 4.07-8.39 6.1-13.85 5.14-11.64-2.03-23-10.56-28.27-21.2-5.54-11.19-4.48-20.57 3.09-27.12 12.67-10.98 39.24-11.32 54.69-.7 15.61 10.74 25.17 28.35 23.79 43.81-.07.79-.37 1.9-.69 3.08-1.01 3.71-2.88 10.6 3.81 12.89 10.53 3.59 18.32 13.19 20.9 25.67 2.04 9.86.22 19.57-4.52 24.65-3.88-3.37-8.26-6.21-12.99-8.24-7.97-3.42-16-2.53-22.6 2.5-7.25 5.53-11.34 15.11-10.14 23.85.78 5.74 3.72 10.42 8.39 13.61-5.64 5.64-15.87 4.74-24.33 3.25-27.47-4.81-62.66-7.09-91.25 18.12a2.97 2.97 0 0 0-.26 4.18c.21.25.46.44.72.6 1.07.62 2.46.52 3.44-.34 20.83-18.38 47.46-23.54 86.32-16.74 10.52 1.84 23.47 2.75 30.79-6.35 6.64 2.2 14.21.22 18.31-4.93 4.17-5.22 3.94-11.77-.56-16.29-1.14-1.15-3.02-1.15-4.17-.01a2.954 2.954 0 0 0-.01 4.18c3.53 3.54.99 7.35.13 8.43-2.68 3.36-8.03 4.56-12.47 2.8-6.72-2.68-8.72-7.63-9.22-11.31-.91-6.59 2.33-14.14 7.86-18.35 3.42-2.61 9.1-5.04 16.69-1.78 9.61 4.13 17.78 11.9 21.86 20.8 2.94 6.42 1.61 11.75.07 17.9-1.23 4.92-2.51 10.02-1.54 15.9.3 1.85.64 3.71.97 5.58 1.85 10.46 3.78 21.27 1.37 30.96-2.61 10.52-11.33 16.34-28.28 18.84-.82.12-1.56.58-2.02 1.27s-.61 1.54-.42 2.34l.13.54c2.06 8.54 4.4 18.21-3.39 24.02-6.09 4.54-10.97 5.88-23.51 7.86-5.4.86-9.5 4.44-13.47 7.89-3.34 2.91-6.5 5.66-10.16 6.62-13.43 3.49-24.2-4.24-30.87-11.33-5.47-5.84-10.96-16.32-10.33-24.27.27-3.4 1.59-5.97 4.04-7.87 5.5-4.27 15.41-.86 20.26 4.92 2.33 2.77 4.23 6.88.08 10.65a2.945 2.945 0 0 0-.2 4.17c1.1 1.21 2.96 1.3 4.17.2 5.05-4.58 5.76-10.76 2.11-16.59.31-.44.52-.97.55-1.56.71-13.51-5.71-23.3-21.03-31.76-13.03-7.22-30.46-7.84-47.82-1.7-.88.31-21.69 7.81-24.57 19.48-.68 2.79-.64 7.05 3.5 11.51a2.97 2.97 0 0 0 4.18.16c1.2-1.11 1.26-2.98.15-4.18-2.55-2.74-2.41-4.78-2.1-6.08.77-3.12 4.06-6.25 8.07-8.94.26-.03.51-.07.77-.18 6.15-2.38 15.17 4.26 17.16 8.66 3.09 6.76 1.19 12.19-5.6 16.13-1.07.61-2.18 1.18-3.29 1.75-2.54 1.3-5.16 2.65-7.47 4.59-2.14 1.8-3.35 4.16-4.52 6.45-1.74 3.4-3.25 6.35-7.72 7.79-7.1 2.31-9.94-.18-13.26-3.07-2.5-2.18-5.33-4.66-9.72-4.4-3.3.19-6.21 1.33-9.02 2.42-5.6 2.16-8.71 3.12-12.87-.74-5.45-5.06-2.83-10.5 1.78-18.23.51-.85 1.01-1.67 1.47-2.48 7.75-13.6-.13-29.69-11.92-38.56-6.23-4.68-13.17-7.5-20.08-8.12-4.71-.44-9.24.27-13.63.95-4.94.77-9.61 1.5-14.26.63-9.56-1.79-13.33-11.84-21.69-14.67-39.87-13.47-82.95 24-83.85 20.88-4.33-25.18-14.07-42-25.16-47.16-16.18-7.53-22.27-3.06-34.39 4.31-3.3 2.02-6.42 3.91-9.52 5.48-11.65 5.86-28.84 4.15-44.04-5.16 1.89.65 3.82 1.24 5.8 1.7zm246.06 20.55c.06.04.14.09.21.13 22.35 10.67 47.35 10.06 66.87-1.63 22.86-13.69 34.64-39.48 29.35-64.17a2.947 2.947 0 0 0-3.51-2.26 2.935 2.935 0 0 0-2.26 3.5c4.76 22.22-5.93 45.48-26.61 57.87-17.82 10.67-40.74 11.19-61.3 1.37a2.945 2.945 0 0 0-3.94 1.39c-.67 1.4-.14 3.06 1.18 3.82z"/></mask><path fill="url(#aN)" d="M302.81 639.84c11.57 2.73 22.92 1.75 31.14-2.65 6.5-3.48 11.41-8.85 16.15-14.03 2.48-2.71 4.83-5.28 7.35-7.54 11.93-10.73 23.24-14.61 35.64-12.23 12.09 2.32 30.1 24.77 39.36 34.94 6.31 6.93 36.21-10.8 72.37-10.68 17.97.05 38.23 23.69 58.21 26.96 20.61 3.37 41.03-7.29 49.66-25.93 5.08-10.98 6.57-28.29-5.49-41.5-3.84-8.51-12.61-15.68-22.06-13.95-4.3.79-8.11 3.43-10.21 7.07-.81 1.41-.32 3.2 1.08 4.02h.01c1.41.82 3.22.33 4.03-1.09 1.25-2.15 3.54-3.72 6.15-4.2 6.44-1.18 12.41 4.37 15.23 9.8.08.54.32 1.06.7 1.51.13.32.27.64.37.96 1.25 3.63.88 7.29-1.08 10.88-2.85 5.21-9.03 9.77-15.38 11.33-11.36 2.81-24.09-1.74-31-11.05-1.99-2.69-2.99-5.69-2.55-7.65.3-1.37 1.34-2.77 2.45-4.24.97-1.3 1.98-2.65 2.69-4.23 3.18-6.93.15-12.69-2.53-17.77-.63-1.18-1.26-2.39-1.84-3.63-1.44-3.12-1.7-6.36-.78-9.63 1.85-6.58 8.06-11.75 14.75-12.29 1.29-.11 2.68 0 4.13.1 2.33.17 4.75.34 7.31-.25 2.64-.62 5.15-2.18 7.24-4.51 1.17-1.3 2.06-2.68 2.91-4.02.81-1.26 1.58-2.46 2.5-3.44 2.78-2.97 5.64-4.72 8.97-5.5 4.49-1.06 9.69-.34 14.63 2 4.17 2 6.98 5.41 9.95 9.01 2.58 3.13 5.24 6.37 8.96 8.86 6.41 4.32 12.32 2.95 17.53 1.75 3.67-.84 7.13-1.63 10.63-.48 2.48.83 4.96 2.56 7.14 5.01 2.69 3.02 4.96 6.69 6.39 10.34 3.06 7.72 1.59 14.66-3.93 18.57-2.7 1.91-6.56 2.47-10.32 1.51-3.8-.98-6.84-3.35-8.35-6.47-1.25-2.58.1-4.93 1.77-6.27 1.27-1.02 1.48-2.88.47-4.14a2.98 2.98 0 0 0-4.16-.48c-4.27 3.41-5.64 8.82-3.4 13.46 2.27 4.69 6.71 8.2 12.19 9.61 5.42 1.4 11.09.5 15.2-2.4 7.78-5.5 10.08-15.29 6.02-25.57-1.68-4.26-4.34-8.55-7.48-12.08-2.87-3.24-6.23-5.55-9.7-6.7-5.06-1.68-9.71-.62-13.8.32-4.83 1.11-8.66 1.96-12.93-.89-3-2.01-5.28-4.78-7.69-7.72-1.78-2.16-3.61-4.35-5.77-6.33.62-.4 1.09-1.01 1.27-1.77 3.41-14.06 18.62-24.76 34.64-24.36 7.68.19 14.07 1.81 22.09 4.56-1.49 5.6-1.16 12.85 3.33 21.92 6.17 12.44 18.94 22.02 32.55 24.39 7.68 1.35 15.4-1.6 19.66-7.49 3.86-5.34 4.2-12.21.89-18.38-2.62-4.89-8.53-9.45-14.08-10.84-3.72-.93-7.13-.45-9.88 1.38-1.36.9-1.72 2.73-.82 4.1.89 1.35 2.73 1.72 4.1.82 1.33-.9 3.07-1.07 5.16-.56 4.4 1.1 8.7 4.89 10.31 7.9 2.25 4.2 2.08 8.62-.46 12.13-2.95 4.07-8.39 6.1-13.85 5.14-11.64-2.03-23-10.56-28.27-21.2-5.54-11.19-4.48-20.57 3.09-27.12 12.67-10.98 39.24-11.32 54.69-.7 15.61 10.74 25.17 28.35 23.79 43.81-.07.79-.37 1.9-.69 3.08-1.01 3.71-2.88 10.6 3.81 12.89 10.53 3.59 18.32 13.19 20.9 25.67 2.04 9.86.22 19.57-4.52 24.65-3.88-3.37-8.26-6.21-12.99-8.24-7.97-3.42-16-2.53-22.6 2.5-7.25 5.53-11.34 15.11-10.14 23.85.78 5.74 3.72 10.42 8.39 13.61-5.64 5.64-15.87 4.74-24.33 3.25-27.47-4.81-62.66-7.09-91.25 18.12a2.97 2.97 0 0 0-.26 4.18c.21.25.46.44.72.6 1.07.62 2.46.52 3.44-.34 20.83-18.38 47.46-23.54 86.32-16.74 10.52 1.84 23.47 2.75 30.79-6.35 6.64 2.2 14.21.22 18.31-4.93 4.17-5.22 3.94-11.77-.56-16.29-1.14-1.15-3.02-1.15-4.17-.01a2.954 2.954 0 0 0-.01 4.18c3.53 3.54.99 7.35.13 8.43-2.68 3.36-8.03 4.56-12.47 2.8-6.72-2.68-8.72-7.63-9.22-11.31-.91-6.59 2.33-14.14 7.86-18.35 3.42-2.61 9.1-5.04 16.69-1.78 9.61 4.13 17.78 11.9 21.86 20.8 2.94 6.42 1.61 11.75.07 17.9-1.23 4.92-2.51 10.02-1.54 15.9.3 1.85.64 3.71.97 5.58 1.85 10.46 3.78 21.27 1.37 30.96-2.61 10.52-11.33 16.34-28.28 18.84-.82.12-1.56.58-2.02 1.27s-.61 1.54-.42 2.34l.13.54c2.06 8.54 4.4 18.21-3.39 24.02-6.09 4.54-10.97 5.88-23.51 7.86-5.4.86-9.5 4.44-13.47 7.89-3.34 2.91-6.5 5.66-10.16 6.62-13.43 3.49-24.2-4.24-30.87-11.33-5.47-5.84-10.96-16.32-10.33-24.27.27-3.4 1.59-5.97 4.04-7.87 5.5-4.27 15.41-.86 20.26 4.92 2.33 2.77 4.23 6.88.08 10.65a2.945 2.945 0 0 0-.2 4.17c1.1 1.21 2.96 1.3 4.17.2 5.05-4.58 5.76-10.76 2.11-16.59.31-.44.52-.97.55-1.56.71-13.51-5.71-23.3-21.03-31.76-13.03-7.22-30.46-7.84-47.82-1.7-.88.31-21.69 7.81-24.57 19.48-.68 2.79-.64 7.05 3.5 11.51a2.97 2.97 0 0 0 4.18.16c1.2-1.11 1.26-2.98.15-4.18-2.55-2.74-2.41-4.78-2.1-6.08.77-3.12 4.06-6.25 8.07-8.94.26-.03.51-.07.77-.18 6.15-2.38 15.17 4.26 17.16 8.66 3.09 6.76 1.19 12.19-5.6 16.13-1.07.61-2.18 1.18-3.29 1.75-2.54 1.3-5.16 2.65-7.47 4.59-2.14 1.8-3.35 4.16-4.52 6.45-1.74 3.4-3.25 6.35-7.72 7.79-7.1 2.31-9.94-.18-13.26-3.07-2.5-2.18-5.33-4.66-9.72-4.4-3.3.19-6.21 1.33-9.02 2.42-5.6 2.16-8.71 3.12-12.87-.74-5.45-5.06-2.83-10.5 1.78-18.23.51-.85 1.01-1.67 1.47-2.48 7.75-13.6-.13-29.69-11.92-38.56-6.23-4.68-13.17-7.5-20.08-8.12-4.71-.44-9.24.27-13.63.95-4.94.77-9.61 1.5-14.26.63-9.56-1.79-13.33-11.84-21.69-14.67-39.87-13.47-82.95 24-83.85 20.88-4.33-25.18-14.07-42-25.16-47.16-16.18-7.53-22.27-3.06-34.39 4.31-3.3 2.02-6.42 3.91-9.52 5.48-11.65 5.86-28.84 4.15-44.04-5.16 1.89.65 3.82 1.24 5.8 1.7zm246.06 20.55c.06.04.14.09.21.13 22.35 10.67 47.35 10.06 66.87-1.63 22.86-13.69 34.64-39.48 29.35-64.17a2.947 2.947 0 0 0-3.51-2.26 2.935 2.935 0 0 0-2.26 3.5c4.76 22.22-5.93 45.48-26.61 57.87-17.82 10.67-40.74 11.19-61.3 1.37a2.945 2.945 0 0 0-3.94 1.39c-.67 1.4-.14 3.06 1.18 3.82z"/><path stroke="#000" stroke-width="12.15" d="M302.81 639.84c11.57 2.73 22.92 1.75 31.14-2.65 6.5-3.48 11.41-8.85 16.15-14.03 2.48-2.71 4.83-5.28 7.35-7.54 11.93-10.73 23.24-14.61 35.64-12.23 12.09 2.32 30.1 24.77 39.36 34.94 6.31 6.93 36.21-10.8 72.37-10.68 17.97.05 38.23 23.69 58.21 26.96 20.61 3.37 41.03-7.29 49.66-25.93 5.08-10.98 6.57-28.29-5.49-41.5-3.84-8.51-12.61-15.68-22.06-13.95-4.3.79-8.11 3.43-10.21 7.07-.81 1.41-.32 3.2 1.08 4.02h.01c1.41.82 3.22.33 4.03-1.09 1.25-2.15 3.54-3.72 6.15-4.2 6.44-1.18 12.41 4.37 15.23 9.8.08.54.32 1.06.7 1.51.13.32.27.64.37.96 1.25 3.63.88 7.29-1.08 10.88-2.85 5.21-9.03 9.77-15.38 11.33-11.36 2.81-24.09-1.74-31-11.05-1.99-2.69-2.99-5.69-2.55-7.65.3-1.37 1.34-2.77 2.45-4.24.97-1.3 1.98-2.65 2.69-4.23 3.18-6.93.15-12.69-2.53-17.77-.63-1.18-1.26-2.39-1.84-3.63-1.44-3.12-1.7-6.36-.78-9.63 1.85-6.58 8.06-11.75 14.75-12.29 1.29-.11 2.68 0 4.13.1 2.33.17 4.75.34 7.31-.25 2.64-.62 5.15-2.18 7.24-4.51 1.17-1.3 2.06-2.68 2.91-4.02.81-1.26 1.58-2.46 2.5-3.44 2.78-2.97 5.64-4.72 8.97-5.5 4.49-1.06 9.69-.34 14.63 2 4.17 2 6.98 5.41 9.95 9.01 2.58 3.13 5.24 6.37 8.96 8.86 6.41 4.32 12.32 2.95 17.53 1.75 3.67-.84 7.13-1.63 10.63-.48 2.48.83 4.96 2.56 7.14 5.01 2.69 3.02 4.96 6.69 6.39 10.34 3.06 7.72 1.59 14.66-3.93 18.57-2.7 1.91-6.56 2.47-10.32 1.51-3.8-.98-6.84-3.35-8.35-6.47-1.25-2.58.1-4.93 1.77-6.27 1.27-1.02 1.48-2.88.47-4.14a2.98 2.98 0 0 0-4.16-.48c-4.27 3.41-5.64 8.82-3.4 13.46 2.27 4.69 6.71 8.2 12.19 9.61 5.42 1.4 11.09.5 15.2-2.4 7.78-5.5 10.08-15.29 6.02-25.57-1.68-4.26-4.34-8.55-7.48-12.08-2.87-3.24-6.23-5.55-9.7-6.7-5.06-1.68-9.71-.62-13.8.32-4.83 1.11-8.66 1.96-12.93-.89-3-2.01-5.28-4.78-7.69-7.72-1.78-2.16-3.61-4.35-5.77-6.33.62-.4 1.09-1.01 1.27-1.77 3.41-14.06 18.62-24.76 34.64-24.36 7.68.19 14.07 1.81 22.09 4.56-1.49 5.6-1.16 12.85 3.33 21.92 6.17 12.44 18.94 22.02 32.55 24.39 7.68 1.35 15.4-1.6 19.66-7.49 3.86-5.34 4.2-12.21.89-18.38-2.62-4.89-8.53-9.45-14.08-10.84-3.72-.93-7.13-.45-9.88 1.38-1.36.9-1.72 2.73-.82 4.1.89 1.35 2.73 1.72 4.1.82 1.33-.9 3.07-1.07 5.16-.56 4.4 1.1 8.7 4.89 10.31 7.9 2.25 4.2 2.08 8.62-.46 12.13-2.95 4.07-8.39 6.1-13.85 5.14-11.64-2.03-23-10.56-28.27-21.2-5.54-11.19-4.48-20.57 3.09-27.12 12.67-10.98 39.24-11.32 54.69-.7 15.61 10.74 25.17 28.35 23.79 43.81-.07.79-.37 1.9-.69 3.08-1.01 3.71-2.88 10.6 3.81 12.89 10.53 3.59 18.32 13.19 20.9 25.67 2.04 9.86.22 19.57-4.52 24.65-3.88-3.37-8.26-6.21-12.99-8.24-7.97-3.42-16-2.53-22.6 2.5-7.25 5.53-11.34 15.11-10.14 23.85.78 5.74 3.72 10.42 8.39 13.61-5.64 5.64-15.87 4.74-24.33 3.25-27.47-4.81-62.66-7.09-91.25 18.12a2.97 2.97 0 0 0-.26 4.18c.21.25.46.44.72.6 1.07.62 2.46.52 3.44-.34 20.83-18.38 47.46-23.54 86.32-16.74 10.52 1.84 23.47 2.75 30.79-6.35 6.64 2.2 14.21.22 18.31-4.93 4.17-5.22 3.94-11.77-.56-16.29-1.14-1.15-3.02-1.15-4.17-.01a2.954 2.954 0 0 0-.01 4.18c3.53 3.54.99 7.35.13 8.43-2.68 3.36-8.03 4.56-12.47 2.8-6.72-2.68-8.72-7.63-9.22-11.31-.91-6.59 2.33-14.14 7.86-18.35 3.42-2.61 9.1-5.04 16.69-1.78 9.61 4.13 17.78 11.9 21.86 20.8 2.94 6.42 1.61 11.75.07 17.9-1.23 4.92-2.51 10.02-1.54 15.9.3 1.85.64 3.71.97 5.58 1.85 10.46 3.78 21.27 1.37 30.96-2.61 10.52-11.33 16.34-28.28 18.84-.82.12-1.56.58-2.02 1.27s-.61 1.54-.42 2.34l.13.54c2.06 8.54 4.4 18.21-3.39 24.02-6.09 4.54-10.97 5.88-23.51 7.86-5.4.86-9.5 4.44-13.47 7.89-3.34 2.91-6.5 5.66-10.16 6.62-13.43 3.49-24.2-4.24-30.87-11.33-5.47-5.84-10.96-16.32-10.33-24.27.27-3.4 1.59-5.97 4.04-7.87 5.5-4.27 15.41-.86 20.26 4.92 2.33 2.77 4.23 6.88.08 10.65a2.945 2.945 0 0 0-.2 4.17c1.1 1.21 2.96 1.3 4.17.2 5.05-4.58 5.76-10.76 2.11-16.59.31-.44.52-.97.55-1.56.71-13.51-5.71-23.3-21.03-31.76-13.03-7.22-30.46-7.84-47.82-1.7-.88.31-21.69 7.81-24.57 19.48-.68 2.79-.64 7.05 3.5 11.51a2.97 2.97 0 0 0 4.18.16c1.2-1.11 1.26-2.98.15-4.18-2.55-2.74-2.41-4.78-2.1-6.08.77-3.12 4.06-6.25 8.07-8.94.26-.03.51-.07.77-.18 6.15-2.38 15.17 4.26 17.16 8.66 3.09 6.76 1.19 12.19-5.6 16.13-1.07.61-2.18 1.18-3.29 1.75-2.54 1.3-5.16 2.65-7.47 4.59-2.14 1.8-3.35 4.16-4.52 6.45-1.74 3.4-3.25 6.35-7.72 7.79-7.1 2.31-9.94-.18-13.26-3.07-2.5-2.18-5.33-4.66-9.72-4.4-3.3.19-6.21 1.33-9.02 2.42-5.6 2.16-8.71 3.12-12.87-.74-5.45-5.06-2.83-10.5 1.78-18.23.51-.85 1.01-1.67 1.47-2.48 7.75-13.6-.13-29.69-11.92-38.56-6.23-4.68-13.17-7.5-20.08-8.12-4.71-.44-9.24.27-13.63.95-4.94.77-9.61 1.5-14.26.63-9.56-1.79-13.33-11.84-21.69-14.67-39.87-13.47-82.95 24-83.85 20.88-4.33-25.18-14.07-42-25.16-47.16-16.18-7.53-22.27-3.06-34.39 4.31-3.3 2.02-6.42 3.91-9.52 5.48-11.65 5.86-28.84 4.15-44.04-5.16 1.89.65 3.82 1.24 5.8 1.7zm246.06 20.55c.06.04.14.09.21.13 22.35 10.67 47.35 10.06 66.87-1.63 22.86-13.69 34.64-39.48 29.35-64.17a2.947 2.947 0 0 0-3.51-2.26 2.935 2.935 0 0 0-2.26 3.5c4.76 22.22-5.93 45.48-26.61 57.87-17.82 10.67-40.74 11.19-61.3 1.37a2.945 2.945 0 0 0-3.94 1.39c-.67 1.4-.14 3.06 1.18 3.82z" mask="url(#aO)"/><path stroke="#e8920d" stroke-width="12.15" d="M302.81 639.84c11.57 2.73 22.92 1.75 31.14-2.65 6.5-3.48 11.41-8.85 16.15-14.03 2.48-2.71 4.83-5.28 7.35-7.54 11.93-10.73 23.24-14.61 35.64-12.23 12.09 2.32 30.1 24.77 39.36 34.94 6.31 6.93 36.21-10.8 72.37-10.68 17.97.05 38.23 23.69 58.21 26.96 20.61 3.37 41.03-7.29 49.66-25.93 5.08-10.98 6.57-28.29-5.49-41.5-3.84-8.51-12.61-15.68-22.06-13.95-4.3.79-8.11 3.43-10.21 7.07-.81 1.41-.32 3.2 1.08 4.02h.01c1.41.82 3.22.33 4.03-1.09 1.25-2.15 3.54-3.72 6.15-4.2 6.44-1.18 12.41 4.37 15.23 9.8.08.54.32 1.06.7 1.51.13.32.27.64.37.96 1.25 3.63.88 7.29-1.08 10.88-2.85 5.21-9.03 9.77-15.38 11.33-11.36 2.81-24.09-1.74-31-11.05-1.99-2.69-2.99-5.69-2.55-7.65.3-1.37 1.34-2.77 2.45-4.24.97-1.3 1.98-2.65 2.69-4.23 3.18-6.93.15-12.69-2.53-17.77-.63-1.18-1.26-2.39-1.84-3.63-1.44-3.12-1.7-6.36-.78-9.63 1.85-6.58 8.06-11.75 14.75-12.29 1.29-.11 2.68 0 4.13.1 2.33.17 4.75.34 7.31-.25 2.64-.62 5.15-2.18 7.24-4.51 1.17-1.3 2.06-2.68 2.91-4.02.81-1.26 1.58-2.46 2.5-3.44 2.78-2.97 5.64-4.72 8.97-5.5 4.49-1.06 9.69-.34 14.63 2 4.17 2 6.98 5.41 9.95 9.01 2.58 3.13 5.24 6.37 8.96 8.86 6.41 4.32 12.32 2.95 17.53 1.75 3.67-.84 7.13-1.63 10.63-.48 2.48.83 4.96 2.56 7.14 5.01 2.69 3.02 4.96 6.69 6.39 10.34 3.06 7.72 1.59 14.66-3.93 18.57-2.7 1.91-6.56 2.47-10.32 1.51-3.8-.98-6.84-3.35-8.35-6.47-1.25-2.58.1-4.93 1.77-6.27 1.27-1.02 1.48-2.88.47-4.14a2.98 2.98 0 0 0-4.16-.48c-4.27 3.41-5.64 8.82-3.4 13.46 2.27 4.69 6.71 8.2 12.19 9.61 5.42 1.4 11.09.5 15.2-2.4 7.78-5.5 10.08-15.29 6.02-25.57-1.68-4.26-4.34-8.55-7.48-12.08-2.87-3.24-6.23-5.55-9.7-6.7-5.06-1.68-9.71-.62-13.8.32-4.83 1.11-8.66 1.96-12.93-.89-3-2.01-5.28-4.78-7.69-7.72-1.78-2.16-3.61-4.35-5.77-6.33.62-.4 1.09-1.01 1.27-1.77 3.41-14.06 18.62-24.76 34.64-24.36 7.68.19 14.07 1.81 22.09 4.56-1.49 5.6-1.16 12.85 3.33 21.92 6.17 12.44 18.94 22.02 32.55 24.39 7.68 1.35 15.4-1.6 19.66-7.49 3.86-5.34 4.2-12.21.89-18.38-2.62-4.89-8.53-9.45-14.08-10.84-3.72-.93-7.13-.45-9.88 1.38-1.36.9-1.72 2.73-.82 4.1.89 1.35 2.73 1.72 4.1.82 1.33-.9 3.07-1.07 5.16-.56 4.4 1.1 8.7 4.89 10.31 7.9 2.25 4.2 2.08 8.62-.46 12.13-2.95 4.07-8.39 6.1-13.85 5.14-11.64-2.03-23-10.56-28.27-21.2-5.54-11.19-4.48-20.57 3.09-27.12 12.67-10.98 39.24-11.32 54.69-.7 15.61 10.74 25.17 28.35 23.79 43.81-.07.79-.37 1.9-.69 3.08-1.01 3.71-2.88 10.6 3.81 12.89 10.53 3.59 18.32 13.19 20.9 25.67 2.04 9.86.22 19.57-4.52 24.65-3.88-3.37-8.26-6.21-12.99-8.24-7.97-3.42-16-2.53-22.6 2.5-7.25 5.53-11.34 15.11-10.14 23.85.78 5.74 3.72 10.42 8.39 13.61-5.64 5.64-15.87 4.74-24.33 3.25-27.47-4.81-62.66-7.09-91.25 18.12a2.97 2.97 0 0 0-.26 4.18c.21.25.46.44.72.6 1.07.62 2.46.52 3.44-.34 20.83-18.38 47.46-23.54 86.32-16.74 10.52 1.84 23.47 2.75 30.79-6.35 6.64 2.2 14.21.22 18.31-4.93 4.17-5.22 3.94-11.77-.56-16.29-1.14-1.15-3.02-1.15-4.17-.01a2.954 2.954 0 0 0-.01 4.18c3.53 3.54.99 7.35.13 8.43-2.68 3.36-8.03 4.56-12.47 2.8-6.72-2.68-8.72-7.63-9.22-11.31-.91-6.59 2.33-14.14 7.86-18.35 3.42-2.61 9.1-5.04 16.69-1.78 9.61 4.13 17.78 11.9 21.86 20.8 2.94 6.42 1.61 11.75.07 17.9-1.23 4.92-2.51 10.02-1.54 15.9.3 1.85.64 3.71.97 5.58 1.85 10.46 3.78 21.27 1.37 30.96-2.61 10.52-11.33 16.34-28.28 18.84-.82.12-1.56.58-2.02 1.27s-.61 1.54-.42 2.34l.13.54c2.06 8.54 4.4 18.21-3.39 24.02-6.09 4.54-10.97 5.88-23.51 7.86-5.4.86-9.5 4.44-13.47 7.89-3.34 2.91-6.5 5.66-10.16 6.62-13.43 3.49-24.2-4.24-30.87-11.33-5.47-5.84-10.96-16.32-10.33-24.27.27-3.4 1.59-5.97 4.04-7.87 5.5-4.27 15.41-.86 20.26 4.92 2.33 2.77 4.23 6.88.08 10.65a2.945 2.945 0 0 0-.2 4.17c1.1 1.21 2.96 1.3 4.17.2 5.05-4.58 5.76-10.76 2.11-16.59.31-.44.52-.97.55-1.56.71-13.51-5.71-23.3-21.03-31.76-13.03-7.22-30.46-7.84-47.82-1.7-.88.31-21.69 7.81-24.57 19.48-.68 2.79-.64 7.05 3.5 11.51a2.97 2.97 0 0 0 4.18.16c1.2-1.11 1.26-2.98.15-4.18-2.55-2.74-2.41-4.78-2.1-6.08.77-3.12 4.06-6.25 8.07-8.94.26-.03.51-.07.77-.18 6.15-2.38 15.17 4.26 17.16 8.66 3.09 6.76 1.19 12.19-5.6 16.13-1.07.61-2.18 1.18-3.29 1.75-2.54 1.3-5.16 2.65-7.47 4.59-2.14 1.8-3.35 4.16-4.52 6.45-1.74 3.4-3.25 6.35-7.72 7.79-7.1 2.31-9.94-.18-13.26-3.07-2.5-2.18-5.33-4.66-9.72-4.4-3.3.19-6.21 1.33-9.02 2.42-5.6 2.16-8.71 3.12-12.87-.74-5.45-5.06-2.83-10.5 1.78-18.23.51-.85 1.01-1.67 1.47-2.48 7.75-13.6-.13-29.69-11.92-38.56-6.23-4.68-13.17-7.5-20.08-8.12-4.71-.44-9.24.27-13.63.95-4.94.77-9.61 1.5-14.26.63-9.56-1.79-13.33-11.84-21.69-14.67-39.87-13.47-82.95 24-83.85 20.88-4.33-25.18-14.07-42-25.16-47.16-16.18-7.53-22.27-3.06-34.39 4.31-3.3 2.02-6.42 3.91-9.52 5.48-11.65 5.86-28.84 4.15-44.04-5.16 1.89.65 3.82 1.24 5.8 1.7zm246.06 20.55c.06.04.14.09.21.13 22.35 10.67 47.35 10.06 66.87-1.63 22.86-13.69 34.64-39.48 29.35-64.17a2.947 2.947 0 0 0-3.51-2.26 2.935 2.935 0 0 0-2.26 3.5c4.76 22.22-5.93 45.48-26.61 57.87-17.82 10.67-40.74 11.19-61.3 1.37a2.945 2.945 0 0 0-3.94 1.39c-.67 1.4-.14 3.06 1.18 3.82z" mask="url(#aO)"/><g filter="url(#aP)"><mask id="aQ" width="590.48" height="551" x="292.05" y="329.01" fill="#000" maskUnits="userSpaceOnUse"><path fill="#fff" d="M292.05 329.01h590.48v551H292.05z"/><path d="M302.81 639.84c11.57 2.73 22.92 1.75 31.14-2.65 6.5-3.48 11.41-8.85 16.15-14.03 2.48-2.71 4.83-5.28 7.35-7.54 11.93-10.73 23.24-14.61 35.64-12.23 12.09 2.32 30.1 24.77 39.36 34.94 6.31 6.93 36.21-10.8 72.37-10.68 17.97.05 38.23 23.69 58.21 26.96 20.61 3.37 41.03-7.29 49.66-25.93 5.08-10.98 6.57-28.29-5.49-41.5-3.84-8.51-12.61-15.68-22.06-13.95-4.3.79-8.11 3.43-10.21 7.07-.81 1.41-.32 3.2 1.08 4.02h.01c1.41.82 3.22.33 4.03-1.09 1.25-2.15 3.54-3.72 6.15-4.2 6.44-1.18 12.41 4.37 15.23 9.8.08.54.32 1.06.7 1.51.13.32.27.64.37.96 1.25 3.63.88 7.29-1.08 10.88-2.85 5.21-9.03 9.77-15.38 11.33-11.36 2.81-24.09-1.74-31-11.05-1.99-2.69-2.99-5.69-2.55-7.65.3-1.37 1.34-2.77 2.45-4.24.97-1.3 1.98-2.65 2.69-4.23 3.18-6.93.15-12.69-2.53-17.77-.63-1.18-1.26-2.39-1.84-3.63-1.44-3.12-1.7-6.36-.78-9.63 1.85-6.58 8.06-11.75 14.75-12.29 1.29-.11 2.68 0 4.13.1 2.33.17 4.75.34 7.31-.25 2.64-.62 5.15-2.18 7.24-4.51 1.17-1.3 2.06-2.68 2.91-4.02.81-1.26 1.58-2.46 2.5-3.44 2.78-2.97 5.64-4.72 8.97-5.5 4.49-1.06 9.69-.34 14.63 2 4.17 2 6.98 5.41 9.95 9.01 2.58 3.13 5.24 6.37 8.96 8.86 6.41 4.32 12.32 2.95 17.53 1.75 3.67-.84 7.13-1.63 10.63-.48 2.48.83 4.96 2.56 7.14 5.01 2.69 3.02 4.96 6.69 6.39 10.34 3.06 7.72 1.59 14.66-3.93 18.57-2.7 1.91-6.56 2.47-10.32 1.51-3.8-.98-6.84-3.35-8.35-6.47-1.25-2.58.1-4.93 1.77-6.27 1.27-1.02 1.48-2.88.47-4.14a2.98 2.98 0 0 0-4.16-.48c-4.27 3.41-5.64 8.82-3.4 13.46 2.27 4.69 6.71 8.2 12.19 9.61 5.42 1.4 11.09.5 15.2-2.4 7.78-5.5 10.08-15.29 6.02-25.57-1.68-4.26-4.34-8.55-7.48-12.08-2.87-3.24-6.23-5.55-9.7-6.7-5.06-1.68-9.71-.62-13.8.32-4.83 1.11-8.66 1.96-12.93-.89-3-2.01-5.28-4.78-7.69-7.72-1.78-2.16-3.61-4.35-5.77-6.33.62-.4 1.09-1.01 1.27-1.77 3.41-14.06 18.62-24.76 34.64-24.36 7.68.19 14.07 1.81 22.09 4.56-1.49 5.6-1.16 12.85 3.33 21.92 6.17 12.44 18.94 22.02 32.55 24.39 7.68 1.35 15.4-1.6 19.66-7.49 3.86-5.34 4.2-12.21.89-18.38-2.62-4.89-8.53-9.45-14.08-10.84-3.72-.93-7.13-.45-9.88 1.38-1.36.9-1.72 2.73-.82 4.1.89 1.35 2.73 1.72 4.1.82 1.33-.9 3.07-1.07 5.16-.56 4.4 1.1 8.7 4.89 10.31 7.9 2.25 4.2 2.08 8.62-.46 12.13-2.95 4.07-8.39 6.1-13.85 5.14-11.64-2.03-23-10.56-28.27-21.2-5.54-11.19-4.48-20.57 3.09-27.12 12.67-10.98 39.24-11.32 54.69-.7 15.61 10.74 25.17 28.35 23.79 43.81-.07.79-.37 1.9-.69 3.08-1.01 3.71-2.88 10.6 3.81 12.89 10.53 3.59 18.32 13.19 20.9 25.67 2.04 9.86.22 19.57-4.52 24.65-3.88-3.37-8.26-6.21-12.99-8.24-7.97-3.42-16-2.53-22.6 2.5-7.25 5.53-11.34 15.11-10.14 23.85.78 5.74 3.72 10.42 8.39 13.61-5.64 5.64-15.87 4.74-24.33 3.25-27.47-4.81-62.66-7.09-91.25 18.12a2.97 2.97 0 0 0-.26 4.18c.21.25.46.44.72.6 1.07.62 2.46.52 3.44-.34 20.83-18.38 47.46-23.54 86.32-16.74 10.52 1.84 23.47 2.75 30.79-6.35 6.64 2.2 14.21.22 18.31-4.93 4.17-5.22 3.94-11.77-.56-16.29-1.14-1.15-3.02-1.15-4.17-.01a2.954 2.954 0 0 0-.01 4.18c3.53 3.54.99 7.35.13 8.43-2.68 3.36-8.03 4.56-12.47 2.8-6.72-2.68-8.72-7.63-9.22-11.31-.91-6.59 2.33-14.14 7.86-18.35 3.42-2.61 9.1-5.04 16.69-1.78 9.61 4.13 17.78 11.9 21.86 20.8 2.94 6.42 1.61 11.75.07 17.9-1.23 4.92-2.51 10.02-1.54 15.9.3 1.85.64 3.71.97 5.58 1.85 10.46 3.78 21.27 1.37 30.96-2.61 10.52-11.33 16.34-28.28 18.84-.82.12-1.56.58-2.02 1.27s-.61 1.54-.42 2.34l.13.54c2.06 8.54 4.4 18.21-3.39 24.02-6.09 4.54-10.97 5.88-23.51 7.86-5.4.86-9.5 4.44-13.47 7.89-3.34 2.91-6.5 5.66-10.16 6.62-13.43 3.49-24.2-4.24-30.87-11.33-5.47-5.84-10.96-16.32-10.33-24.27.27-3.4 1.59-5.97 4.04-7.87 5.5-4.27 15.41-.86 20.26 4.92 2.33 2.77 4.23 6.88.08 10.65a2.945 2.945 0 0 0-.2 4.17c1.1 1.21 2.96 1.3 4.17.2 5.05-4.58 5.76-10.76 2.11-16.59.31-.44.52-.97.55-1.56.71-13.51-5.71-23.3-21.03-31.76-13.03-7.22-30.46-7.84-47.82-1.7-.88.31-21.69 7.81-24.57 19.48-.68 2.79-.64 7.05 3.5 11.51a2.97 2.97 0 0 0 4.18.16c1.2-1.11 1.26-2.98.15-4.18-2.55-2.74-2.41-4.78-2.1-6.08.77-3.12 4.06-6.25 8.07-8.94.26-.03.51-.07.77-.18 6.15-2.38 15.17 4.26 17.16 8.66 3.09 6.76 1.19 12.19-5.6 16.13-1.07.61-2.18 1.18-3.29 1.75-2.54 1.3-5.16 2.65-7.47 4.59-2.14 1.8-3.35 4.16-4.52 6.45-1.74 3.4-3.25 6.35-7.72 7.79-7.1 2.31-9.94-.18-13.26-3.07-2.5-2.18-5.33-4.66-9.72-4.4-3.3.19-6.21 1.33-9.02 2.42-5.6 2.16-8.71 3.12-12.87-.74-5.45-5.06-2.83-10.5 1.78-18.23.51-.85 1.01-1.67 1.47-2.48 7.75-13.6-.13-29.69-11.92-38.56-6.23-4.68-13.17-7.5-20.08-8.12-4.71-.44-9.24.27-13.63.95-4.94.77-9.61 1.5-14.26.63-9.56-1.79-13.33-11.84-21.69-14.67-39.87-13.47-82.95 24-83.85 20.88-4.33-25.18-14.07-42-25.16-47.16-16.18-7.53-22.27-3.06-34.39 4.31-3.3 2.02-6.42 3.91-9.52 5.48-11.65 5.86-28.84 4.15-44.04-5.16 1.89.65 3.82 1.24 5.8 1.7zm246.06 20.55c.06.04.14.09.21.13 22.35 10.67 47.35 10.06 66.87-1.63 22.86-13.69 34.64-39.48 29.35-64.17a2.947 2.947 0 0 0-3.51-2.26 2.935 2.935 0 0 0-2.26 3.5c4.76 22.22-5.93 45.48-26.61 57.87-17.82 10.67-40.74 11.19-61.3 1.37a2.945 2.945 0 0 0-3.94 1.39c-.67 1.4-.14 3.06 1.18 3.82z"/></mask><path stroke="#000" stroke-width="12.15" d="M302.81 639.84c11.57 2.73 22.92 1.75 31.14-2.65 6.5-3.48 11.41-8.85 16.15-14.03 2.48-2.71 4.83-5.28 7.35-7.54 11.93-10.73 23.24-14.61 35.64-12.23 12.09 2.32 30.1 24.77 39.36 34.94 6.31 6.93 36.21-10.8 72.37-10.68 17.97.05 38.23 23.69 58.21 26.96 20.61 3.37 41.03-7.29 49.66-25.93 5.08-10.98 6.57-28.29-5.49-41.5-3.84-8.51-12.61-15.68-22.06-13.95-4.3.79-8.11 3.43-10.21 7.07-.81 1.41-.32 3.2 1.08 4.02h.01c1.41.82 3.22.33 4.03-1.09 1.25-2.15 3.54-3.72 6.15-4.2 6.44-1.18 12.41 4.37 15.23 9.8.08.54.32 1.06.7 1.51.13.32.27.64.37.96 1.25 3.63.88 7.29-1.08 10.88-2.85 5.21-9.03 9.77-15.38 11.33-11.36 2.81-24.09-1.74-31-11.05-1.99-2.69-2.99-5.69-2.55-7.65.3-1.37 1.34-2.77 2.45-4.24.97-1.3 1.98-2.65 2.69-4.23 3.18-6.93.15-12.69-2.53-17.77-.63-1.18-1.26-2.39-1.84-3.63-1.44-3.12-1.7-6.36-.78-9.63 1.85-6.58 8.06-11.75 14.75-12.29 1.29-.11 2.68 0 4.13.1 2.33.17 4.75.34 7.31-.25 2.64-.62 5.15-2.18 7.24-4.51 1.17-1.3 2.06-2.68 2.91-4.02.81-1.26 1.58-2.46 2.5-3.44 2.78-2.97 5.64-4.72 8.97-5.5 4.49-1.06 9.69-.34 14.63 2 4.17 2 6.98 5.41 9.95 9.01 2.58 3.13 5.24 6.37 8.96 8.86 6.41 4.32 12.32 2.95 17.53 1.75 3.67-.84 7.13-1.63 10.63-.48 2.48.83 4.96 2.56 7.14 5.01 2.69 3.02 4.96 6.69 6.39 10.34 3.06 7.72 1.59 14.66-3.93 18.57-2.7 1.91-6.56 2.47-10.32 1.51-3.8-.98-6.84-3.35-8.35-6.47-1.25-2.58.1-4.93 1.77-6.27 1.27-1.02 1.48-2.88.47-4.14a2.98 2.98 0 0 0-4.16-.48c-4.27 3.41-5.64 8.82-3.4 13.46 2.27 4.69 6.71 8.2 12.19 9.61 5.42 1.4 11.09.5 15.2-2.4 7.78-5.5 10.08-15.29 6.02-25.57-1.68-4.26-4.34-8.55-7.48-12.08-2.87-3.24-6.23-5.55-9.7-6.7-5.06-1.68-9.71-.62-13.8.32-4.83 1.11-8.66 1.96-12.93-.89-3-2.01-5.28-4.78-7.69-7.72-1.78-2.16-3.61-4.35-5.77-6.33.62-.4 1.09-1.01 1.27-1.77 3.41-14.06 18.62-24.76 34.64-24.36 7.68.19 14.07 1.81 22.09 4.56-1.49 5.6-1.16 12.85 3.33 21.92 6.17 12.44 18.94 22.02 32.55 24.39 7.68 1.35 15.4-1.6 19.66-7.49 3.86-5.34 4.2-12.21.89-18.38-2.62-4.89-8.53-9.45-14.08-10.84-3.72-.93-7.13-.45-9.88 1.38-1.36.9-1.72 2.73-.82 4.1.89 1.35 2.73 1.72 4.1.82 1.33-.9 3.07-1.07 5.16-.56 4.4 1.1 8.7 4.89 10.31 7.9 2.25 4.2 2.08 8.62-.46 12.13-2.95 4.07-8.39 6.1-13.85 5.14-11.64-2.03-23-10.56-28.27-21.2-5.54-11.19-4.48-20.57 3.09-27.12 12.67-10.98 39.24-11.32 54.69-.7 15.61 10.74 25.17 28.35 23.79 43.81-.07.79-.37 1.9-.69 3.08-1.01 3.71-2.88 10.6 3.81 12.89 10.53 3.59 18.32 13.19 20.9 25.67 2.04 9.86.22 19.57-4.52 24.65-3.88-3.37-8.26-6.21-12.99-8.24-7.97-3.42-16-2.53-22.6 2.5-7.25 5.53-11.34 15.11-10.14 23.85.78 5.74 3.72 10.42 8.39 13.61-5.64 5.64-15.87 4.74-24.33 3.25-27.47-4.81-62.66-7.09-91.25 18.12a2.97 2.97 0 0 0-.26 4.18c.21.25.46.44.72.6 1.07.62 2.46.52 3.44-.34 20.83-18.38 47.46-23.54 86.32-16.74 10.52 1.84 23.47 2.75 30.79-6.35 6.64 2.2 14.21.22 18.31-4.93 4.17-5.22 3.94-11.77-.56-16.29-1.14-1.15-3.02-1.15-4.17-.01a2.954 2.954 0 0 0-.01 4.18c3.53 3.54.99 7.35.13 8.43-2.68 3.36-8.03 4.56-12.47 2.8-6.72-2.68-8.72-7.63-9.22-11.31-.91-6.59 2.33-14.14 7.86-18.35 3.42-2.61 9.1-5.04 16.69-1.78 9.61 4.13 17.78 11.9 21.86 20.8 2.94 6.42 1.61 11.75.07 17.9-1.23 4.92-2.51 10.02-1.54 15.9.3 1.85.64 3.71.97 5.58 1.85 10.46 3.78 21.27 1.37 30.96-2.61 10.52-11.33 16.34-28.28 18.84-.82.12-1.56.58-2.02 1.27s-.61 1.54-.42 2.34l.13.54c2.06 8.54 4.4 18.21-3.39 24.02-6.09 4.54-10.97 5.88-23.51 7.86-5.4.86-9.5 4.44-13.47 7.89-3.34 2.91-6.5 5.66-10.16 6.62-13.43 3.49-24.2-4.24-30.87-11.33-5.47-5.84-10.96-16.32-10.33-24.27.27-3.4 1.59-5.97 4.04-7.87 5.5-4.27 15.41-.86 20.26 4.92 2.33 2.77 4.23 6.88.08 10.65a2.945 2.945 0 0 0-.2 4.17c1.1 1.21 2.96 1.3 4.17.2 5.05-4.58 5.76-10.76 2.11-16.59.31-.44.52-.97.55-1.56.71-13.51-5.71-23.3-21.03-31.76-13.03-7.22-30.46-7.84-47.82-1.7-.88.31-21.69 7.81-24.57 19.48-.68 2.79-.64 7.05 3.5 11.51a2.97 2.97 0 0 0 4.18.16c1.2-1.11 1.26-2.98.15-4.18-2.55-2.74-2.41-4.78-2.1-6.08.77-3.12 4.06-6.25 8.07-8.94.26-.03.51-.07.77-.18 6.15-2.38 15.17 4.26 17.16 8.66 3.09 6.76 1.19 12.19-5.6 16.13-1.07.61-2.18 1.18-3.29 1.75-2.54 1.3-5.16 2.65-7.47 4.59-2.14 1.8-3.35 4.16-4.52 6.45-1.74 3.4-3.25 6.35-7.72 7.79-7.1 2.31-9.94-.18-13.26-3.07-2.5-2.18-5.33-4.66-9.72-4.4-3.3.19-6.21 1.33-9.02 2.42-5.6 2.16-8.71 3.12-12.87-.74-5.45-5.06-2.83-10.5 1.78-18.23.51-.85 1.01-1.67 1.47-2.48 7.75-13.6-.13-29.69-11.92-38.56-6.23-4.68-13.17-7.5-20.08-8.12-4.71-.44-9.24.27-13.63.95-4.94.77-9.61 1.5-14.26.63-9.56-1.79-13.33-11.84-21.69-14.67-39.87-13.47-82.95 24-83.85 20.88-4.33-25.18-14.07-42-25.16-47.16-16.18-7.53-22.27-3.06-34.39 4.31-3.3 2.02-6.42 3.91-9.52 5.48-11.65 5.86-28.84 4.15-44.04-5.16 1.89.65 3.82 1.24 5.8 1.7zm246.06 20.55c.06.04.14.09.21.13 22.35 10.67 47.35 10.06 66.87-1.63 22.86-13.69 34.64-39.48 29.35-64.17a2.947 2.947 0 0 0-3.51-2.26 2.935 2.935 0 0 0-2.26 3.5c4.76 22.22-5.93 45.48-26.61 57.87-17.82 10.67-40.74 11.19-61.3 1.37a2.945 2.945 0 0 0-3.94 1.39c-.67 1.4-.14 3.06 1.18 3.82z" mask="url(#aQ)"/><path stroke="#e8920d" stroke-width="12.15" d="M302.81 639.84c11.57 2.73 22.92 1.75 31.14-2.65 6.5-3.48 11.41-8.85 16.15-14.03 2.48-2.71 4.83-5.28 7.35-7.54 11.93-10.73 23.24-14.61 35.64-12.23 12.09 2.32 30.1 24.77 39.36 34.94 6.31 6.93 36.21-10.8 72.37-10.68 17.97.05 38.23 23.69 58.21 26.96 20.61 3.37 41.03-7.29 49.66-25.93 5.08-10.98 6.57-28.29-5.49-41.5-3.84-8.51-12.61-15.68-22.06-13.95-4.3.79-8.11 3.43-10.21 7.07-.81 1.41-.32 3.2 1.08 4.02h.01c1.41.82 3.22.33 4.03-1.09 1.25-2.15 3.54-3.72 6.15-4.2 6.44-1.18 12.41 4.37 15.23 9.8.08.54.32 1.06.7 1.51.13.32.27.64.37.96 1.25 3.63.88 7.29-1.08 10.88-2.85 5.21-9.03 9.77-15.38 11.33-11.36 2.81-24.09-1.74-31-11.05-1.99-2.69-2.99-5.69-2.55-7.65.3-1.37 1.34-2.77 2.45-4.24.97-1.3 1.98-2.65 2.69-4.23 3.18-6.93.15-12.69-2.53-17.77-.63-1.18-1.26-2.39-1.84-3.63-1.44-3.12-1.7-6.36-.78-9.63 1.85-6.58 8.06-11.75 14.75-12.29 1.29-.11 2.68 0 4.13.1 2.33.17 4.75.34 7.31-.25 2.64-.62 5.15-2.18 7.24-4.51 1.17-1.3 2.06-2.68 2.91-4.02.81-1.26 1.58-2.46 2.5-3.44 2.78-2.97 5.64-4.72 8.97-5.5 4.49-1.06 9.69-.34 14.63 2 4.17 2 6.98 5.41 9.95 9.01 2.58 3.13 5.24 6.37 8.96 8.86 6.41 4.32 12.32 2.95 17.53 1.75 3.67-.84 7.13-1.63 10.63-.48 2.48.83 4.96 2.56 7.14 5.01 2.69 3.02 4.96 6.69 6.39 10.34 3.06 7.72 1.59 14.66-3.93 18.57-2.7 1.91-6.56 2.47-10.32 1.51-3.8-.98-6.84-3.35-8.35-6.47-1.25-2.58.1-4.93 1.77-6.27 1.27-1.02 1.48-2.88.47-4.14a2.98 2.98 0 0 0-4.16-.48c-4.27 3.41-5.64 8.82-3.4 13.46 2.27 4.69 6.71 8.2 12.19 9.61 5.42 1.4 11.09.5 15.2-2.4 7.78-5.5 10.08-15.29 6.02-25.57-1.68-4.26-4.34-8.55-7.48-12.08-2.87-3.24-6.23-5.55-9.7-6.7-5.06-1.68-9.71-.62-13.8.32-4.83 1.11-8.66 1.96-12.93-.89-3-2.01-5.28-4.78-7.69-7.72-1.78-2.16-3.61-4.35-5.77-6.33.62-.4 1.09-1.01 1.27-1.77 3.41-14.06 18.62-24.76 34.64-24.36 7.68.19 14.07 1.81 22.09 4.56-1.49 5.6-1.16 12.85 3.33 21.92 6.17 12.44 18.94 22.02 32.55 24.39 7.68 1.35 15.4-1.6 19.66-7.49 3.86-5.34 4.2-12.21.89-18.38-2.62-4.89-8.53-9.45-14.08-10.84-3.72-.93-7.13-.45-9.88 1.38-1.36.9-1.72 2.73-.82 4.1.89 1.35 2.73 1.72 4.1.82 1.33-.9 3.07-1.07 5.16-.56 4.4 1.1 8.7 4.89 10.31 7.9 2.25 4.2 2.08 8.62-.46 12.13-2.95 4.07-8.39 6.1-13.85 5.14-11.64-2.03-23-10.56-28.27-21.2-5.54-11.19-4.48-20.57 3.09-27.12 12.67-10.98 39.24-11.32 54.69-.7 15.61 10.74 25.17 28.35 23.79 43.81-.07.79-.37 1.9-.69 3.08-1.01 3.71-2.88 10.6 3.81 12.89 10.53 3.59 18.32 13.19 20.9 25.67 2.04 9.86.22 19.57-4.52 24.65-3.88-3.37-8.26-6.21-12.99-8.24-7.97-3.42-16-2.53-22.6 2.5-7.25 5.53-11.34 15.11-10.14 23.85.78 5.74 3.72 10.42 8.39 13.61-5.64 5.64-15.87 4.74-24.33 3.25-27.47-4.81-62.66-7.09-91.25 18.12a2.97 2.97 0 0 0-.26 4.18c.21.25.46.44.72.6 1.07.62 2.46.52 3.44-.34 20.83-18.38 47.46-23.54 86.32-16.74 10.52 1.84 23.47 2.75 30.79-6.35 6.64 2.2 14.21.22 18.31-4.93 4.17-5.22 3.94-11.77-.56-16.29-1.14-1.15-3.02-1.15-4.17-.01a2.954 2.954 0 0 0-.01 4.18c3.53 3.54.99 7.35.13 8.43-2.68 3.36-8.03 4.56-12.47 2.8-6.72-2.68-8.72-7.63-9.22-11.31-.91-6.59 2.33-14.14 7.86-18.35 3.42-2.61 9.1-5.04 16.69-1.78 9.61 4.13 17.78 11.9 21.86 20.8 2.94 6.42 1.61 11.75.07 17.9-1.23 4.92-2.51 10.02-1.54 15.9.3 1.85.64 3.71.97 5.58 1.85 10.46 3.78 21.27 1.37 30.96-2.61 10.52-11.33 16.34-28.28 18.84-.82.12-1.56.58-2.02 1.27s-.61 1.54-.42 2.34l.13.54c2.06 8.54 4.4 18.21-3.39 24.02-6.09 4.54-10.97 5.88-23.51 7.86-5.4.86-9.5 4.44-13.47 7.89-3.34 2.91-6.5 5.66-10.16 6.62-13.43 3.49-24.2-4.24-30.87-11.33-5.47-5.84-10.96-16.32-10.33-24.27.27-3.4 1.59-5.97 4.04-7.87 5.5-4.27 15.41-.86 20.26 4.92 2.33 2.77 4.23 6.88.08 10.65a2.945 2.945 0 0 0-.2 4.17c1.1 1.21 2.96 1.3 4.17.2 5.05-4.58 5.76-10.76 2.11-16.59.31-.44.52-.97.55-1.56.71-13.51-5.71-23.3-21.03-31.76-13.03-7.22-30.46-7.84-47.82-1.7-.88.31-21.69 7.81-24.57 19.48-.68 2.79-.64 7.05 3.5 11.51a2.97 2.97 0 0 0 4.18.16c1.2-1.11 1.26-2.98.15-4.18-2.55-2.74-2.41-4.78-2.1-6.08.77-3.12 4.06-6.25 8.07-8.94.26-.03.51-.07.77-.18 6.15-2.38 15.17 4.26 17.16 8.66 3.09 6.76 1.19 12.19-5.6 16.13-1.07.61-2.18 1.18-3.29 1.75-2.54 1.3-5.16 2.65-7.47 4.59-2.14 1.8-3.35 4.16-4.52 6.45-1.74 3.4-3.25 6.35-7.72 7.79-7.1 2.31-9.94-.18-13.26-3.07-2.5-2.18-5.33-4.66-9.72-4.4-3.3.19-6.21 1.33-9.02 2.42-5.6 2.16-8.71 3.12-12.87-.74-5.45-5.06-2.83-10.5 1.78-18.23.51-.85 1.01-1.67 1.47-2.48 7.75-13.6-.13-29.69-11.92-38.56-6.23-4.68-13.17-7.5-20.08-8.12-4.71-.44-9.24.27-13.63.95-4.94.77-9.61 1.5-14.26.63-9.56-1.79-13.33-11.84-21.69-14.67-39.87-13.47-82.95 24-83.85 20.88-4.33-25.18-14.07-42-25.16-47.16-16.18-7.53-22.27-3.06-34.39 4.31-3.3 2.02-6.42 3.91-9.52 5.48-11.65 5.86-28.84 4.15-44.04-5.16 1.89.65 3.82 1.24 5.8 1.7zm246.06 20.55c.06.04.14.09.21.13 22.35 10.67 47.35 10.06 66.87-1.63 22.86-13.69 34.64-39.48 29.35-64.17a2.947 2.947 0 0 0-3.51-2.26 2.935 2.935 0 0 0-2.26 3.5c4.76 22.22-5.93 45.48-26.61 57.87-17.82 10.67-40.74 11.19-61.3 1.37a2.945 2.945 0 0 0-3.94 1.39c-.67 1.4-.14 3.06 1.18 3.82z" mask="url(#aQ)"/></g><mask id="aS" width="420" height="244" x="202.19" y="524" fill="#000" maskUnits="userSpaceOnUse"><path fill="#fff" d="M202.19 524h420v244h-420z"/><path d="M600.58 645.28c5.99-2.47 12.53-1.85 18.89-1.1-2.23-.89-4.38-1.9-6.49-2.88-.93-.43-1.85-.87-2.78-1.29-8.22-3.73-16.29-6.83-24.59-3.96-9.73 3.37-18.32 11.42-24.71 18.06-.23.24-.41.53-.61.8-.38.55-.84 1.22-1.51 1.83-12.02 11.01-36.01 22.76-52.82 10.06-5.47-4.14-9.39-9.79-12.63-14.77-9.81-15.03-21.41-28.16-39.73-22.42-.43.14-.88.36-1.4.61-.61.28-1.21.57-1.85.8-.26.09-.59.22-.98.38-2.33.92-4.12 1.56-5.64 1.35-1.03-.15-1.9-.83-2.29-1.79-1.24-3.06 1.47-5.48 2.92-6.77.23-.21.45-.4.59-.55.89-.97 1.87-1.73 2.83-2.47 1.1-.85 2.14-1.66 2.74-2.6 6.41-9.99 6.57-19.85.46-28.51-9.4-13.34-32.11-21.19-49.6-17.14-8.51 1.96-19.16 7.49-21.6 22.63l-1.79 11.12c-.26 1.59-1.73 2.68-3.33 2.42a2.905 2.905 0 0 1-2.44-3.31c1.41-9.53 3.01-20.33-.19-29.83-2.05-6.05-6.2-12.04-12.74-18.31-23.47-22.57-59.02-31.88-90.54-23.73-14.82 3.84-26.95 11.73-38.19 24.83-7.22 8.44-15.93 19.82-19.09 33.05-4.59 19.23 3.41 41.02 19.91 54.23 15.45 12.37 37.27 16.97 58.36 12.31 6-1.33 11.42-3.33 16.15-5.89 2.65-2.28 5.58-4.37 8.84-6.2.66-.61 1.31-1.21 1.93-1.84 13.43-14.07 11.46-36.48 1.94-49.17-8.42-11.2-20.89-13.65-34.22-6.71-4.15 2.16-9.02 6.79-9.88 11.85-.45 2.65.29 4.97 2.28 7.1a2.923 2.923 0 0 1-.14 4.13 2.92 2.92 0 0 1-4.12-.15c-3.23-3.45-4.54-7.63-3.77-12.07 1.21-7.05 7.37-13.15 12.94-16.05 15.88-8.26 31.43-5.13 41.58 8.39 9.47 12.61 12.38 33.6 2.97 49.58 9.06-2.8 19.77-3.85 32.22-2.25 12.88 1.64 30.06 9.32 36.1 25.51 6.48 17.37-4 35.58-17.15 43.9-8.67 5.48-20.86 6.77-29.66 3.15-6.7-2.76-11.1-7.98-12.71-15.06-2.52-11.02 4.02-22.36 14.28-24.76 5.66-1.32 10.97-.51 14.21 2.17 1.73 1.43 3.74 4.1 3.53 8.73-.13 2.86-1.77 5.71-4.3 7.41-2.32 1.56-5.05 1.98-7.48 1.11-1.52-.54-2.33-2.2-1.78-3.72.54-1.52 2.2-2.32 3.72-1.78.96.33 1.91-.21 2.28-.46 1.01-.69 1.69-1.79 1.74-2.83.08-1.82-.39-3.11-1.43-3.98-1.78-1.48-5.37-1.87-9.14-.98-7.94 1.86-11.54 10.69-9.92 17.78 1.2 5.23 4.31 8.92 9.25 10.96 7.15 2.95 17.15 1.84 24.31-2.68 11.21-7.09 20.2-22.44 14.8-36.92-5.13-13.75-20.1-20.33-31.37-21.77-16.5-2.11-29.64.78-39.61 6.25-2.57 2.27-5.51 4.28-8.7 6.07-5.7 4.97-9.79 10.88-12.31 16.85-7.85 18.49-3.06 43.85 10 61.76a2.84 2.84 0 0 1 1.99 2.59c3.21 3.96 6.83 7.5 10.85 10.41 17.37 12.62 46 15.56 63.83 6.54 12.49-6.32 22.9-17.82 29.55-32.59-3.21-.99-6.12-2.38-8.63-4.13-6.23-4.37-10.12-11.33-10.14-18.15 0-1.61 1.3-2.92 2.91-2.92h.01c1.61 0 2.92 1.3 2.92 2.9.01 4.96 2.95 10.08 7.65 13.39 4.15 2.91 9.75 4.58 16.2 4.83 13.84.55 26.67-5.29 40.42-18.33a2.92 2.92 0 0 1 4.12.11 2.92 2.92 0 0 1-.11 4.13c-14.15 13.42-28.17 19.97-42.77 19.97a46 46 0 0 1-6.54-.47c-2.12 9.64 7.63 18.99 14.16 23.21 10.73 6.95 25.59 8.12 38.79 3.04 12.19-4.68 22.74-15.5 29.78-30.47-4.43-5.01-6.28-11.7-5.59-17.5.9-7.48 6.29-15.57 18.75-15.85 1.52-.04 6.87.2 11.01 4.64 3.41 3.65 4.82 8.88 4.2 15.53-.15 1.6-1.6 2.78-3.17 2.64a2.925 2.925 0 0 1-2.64-3.18c.46-4.92-.44-8.62-2.66-11.01-1.98-2.11-4.74-2.81-6.6-2.78-10.7.24-12.72 7.57-13.09 10.7-.83 6.94 3.49 15.49 12.14 17.78 11.26 2.99 29.16-1 36.86-11.49 1.81-2.47 1.5-4.43 1.03-7.41-.37-2.4-.8-5.13.03-8.33 2.03-7.81 9.08-7.42 13.29-7.19 1.37.08 2.64.07 4.11.16 1.04.07 2.21.14 2.85-.06 5.81-1.73 7.26-7.34 8.8-15.71.41-2.2.79-4.27 1.34-6.23 2.46-8.89 8.46-15.35 17.84-19.22z"/></mask><path fill="url(#aR)" d="M600.58 645.28c5.99-2.47 12.53-1.85 18.89-1.1-2.23-.89-4.38-1.9-6.49-2.88-.93-.43-1.85-.87-2.78-1.29-8.22-3.73-16.29-6.83-24.59-3.96-9.73 3.37-18.32 11.42-24.71 18.06-.23.24-.41.53-.61.8-.38.55-.84 1.22-1.51 1.83-12.02 11.01-36.01 22.76-52.82 10.06-5.47-4.14-9.39-9.79-12.63-14.77-9.81-15.03-21.41-28.16-39.73-22.42-.43.14-.88.36-1.4.61-.61.28-1.21.57-1.85.8-.26.09-.59.22-.98.38-2.33.92-4.12 1.56-5.64 1.35-1.03-.15-1.9-.83-2.29-1.79-1.24-3.06 1.47-5.48 2.92-6.77.23-.21.45-.4.59-.55.89-.97 1.87-1.73 2.83-2.47 1.1-.85 2.14-1.66 2.74-2.6 6.41-9.99 6.57-19.85.46-28.51-9.4-13.34-32.11-21.19-49.6-17.14-8.51 1.96-19.16 7.49-21.6 22.63l-1.79 11.12c-.26 1.59-1.73 2.68-3.33 2.42a2.905 2.905 0 0 1-2.44-3.31c1.41-9.53 3.01-20.33-.19-29.83-2.05-6.05-6.2-12.04-12.74-18.31-23.47-22.57-59.02-31.88-90.54-23.73-14.82 3.84-26.95 11.73-38.19 24.83-7.22 8.44-15.93 19.82-19.09 33.05-4.59 19.23 3.41 41.02 19.91 54.23 15.45 12.37 37.27 16.97 58.36 12.31 6-1.33 11.42-3.33 16.15-5.89 2.65-2.28 5.58-4.37 8.84-6.2.66-.61 1.31-1.21 1.93-1.84 13.43-14.07 11.46-36.48 1.94-49.17-8.42-11.2-20.89-13.65-34.22-6.71-4.15 2.16-9.02 6.79-9.88 11.85-.45 2.65.29 4.97 2.28 7.1a2.923 2.923 0 0 1-.14 4.13 2.92 2.92 0 0 1-4.12-.15c-3.23-3.45-4.54-7.63-3.77-12.07 1.21-7.05 7.37-13.15 12.94-16.05 15.88-8.26 31.43-5.13 41.58 8.39 9.47 12.61 12.38 33.6 2.97 49.58 9.06-2.8 19.77-3.85 32.22-2.25 12.88 1.64 30.06 9.32 36.1 25.51 6.48 17.37-4 35.58-17.15 43.9-8.67 5.48-20.86 6.77-29.66 3.15-6.7-2.76-11.1-7.98-12.71-15.06-2.52-11.02 4.02-22.36 14.28-24.76 5.66-1.32 10.97-.51 14.21 2.17 1.73 1.43 3.74 4.1 3.53 8.73-.13 2.86-1.77 5.71-4.3 7.41-2.32 1.56-5.05 1.98-7.48 1.11-1.52-.54-2.33-2.2-1.78-3.72.54-1.52 2.2-2.32 3.72-1.78.96.33 1.91-.21 2.28-.46 1.01-.69 1.69-1.79 1.74-2.83.08-1.82-.39-3.11-1.43-3.98-1.78-1.48-5.37-1.87-9.14-.98-7.94 1.86-11.54 10.69-9.92 17.78 1.2 5.23 4.31 8.92 9.25 10.96 7.15 2.95 17.15 1.84 24.31-2.68 11.21-7.09 20.2-22.44 14.8-36.92-5.13-13.75-20.1-20.33-31.37-21.77-16.5-2.11-29.64.78-39.61 6.25-2.57 2.27-5.51 4.28-8.7 6.07-5.7 4.97-9.79 10.88-12.31 16.85-7.85 18.49-3.06 43.85 10 61.76a2.84 2.84 0 0 1 1.99 2.59c3.21 3.96 6.83 7.5 10.85 10.41 17.37 12.62 46 15.56 63.83 6.54 12.49-6.32 22.9-17.82 29.55-32.59-3.21-.99-6.12-2.38-8.63-4.13-6.23-4.37-10.12-11.33-10.14-18.15 0-1.61 1.3-2.92 2.91-2.92h.01c1.61 0 2.92 1.3 2.92 2.9.01 4.96 2.95 10.08 7.65 13.39 4.15 2.91 9.75 4.58 16.2 4.83 13.84.55 26.67-5.29 40.42-18.33a2.92 2.92 0 0 1 4.12.11 2.92 2.92 0 0 1-.11 4.13c-14.15 13.42-28.17 19.97-42.77 19.97a46 46 0 0 1-6.54-.47c-2.12 9.64 7.63 18.99 14.16 23.21 10.73 6.95 25.59 8.12 38.79 3.04 12.19-4.68 22.74-15.5 29.78-30.47-4.43-5.01-6.28-11.7-5.59-17.5.9-7.48 6.29-15.57 18.75-15.85 1.52-.04 6.87.2 11.01 4.64 3.41 3.65 4.82 8.88 4.2 15.53-.15 1.6-1.6 2.78-3.17 2.64a2.925 2.925 0 0 1-2.64-3.18c.46-4.92-.44-8.62-2.66-11.01-1.98-2.11-4.74-2.81-6.6-2.78-10.7.24-12.72 7.57-13.09 10.7-.83 6.94 3.49 15.49 12.14 17.78 11.26 2.99 29.16-1 36.86-11.49 1.81-2.47 1.5-4.43 1.03-7.41-.37-2.4-.8-5.13.03-8.33 2.03-7.81 9.08-7.42 13.29-7.19 1.37.08 2.64.07 4.11.16 1.04.07 2.21.14 2.85-.06 5.81-1.73 7.26-7.34 8.8-15.71.41-2.2.79-4.27 1.34-6.23 2.46-8.89 8.46-15.35 17.84-19.22z"/><path stroke="#000" stroke-width="14" d="M600.58 645.28c5.99-2.47 12.53-1.85 18.89-1.1-2.23-.89-4.38-1.9-6.49-2.88-.93-.43-1.85-.87-2.78-1.29-8.22-3.73-16.29-6.83-24.59-3.96-9.73 3.37-18.32 11.42-24.71 18.06-.23.24-.41.53-.61.8-.38.55-.84 1.22-1.51 1.83-12.02 11.01-36.01 22.76-52.82 10.06-5.47-4.14-9.39-9.79-12.63-14.77-9.81-15.03-21.41-28.16-39.73-22.42-.43.14-.88.36-1.4.61-.61.28-1.21.57-1.85.8-.26.09-.59.22-.98.38-2.33.92-4.12 1.56-5.64 1.35-1.03-.15-1.9-.83-2.29-1.79-1.24-3.06 1.47-5.48 2.92-6.77.23-.21.45-.4.59-.55.89-.97 1.87-1.73 2.83-2.47 1.1-.85 2.14-1.66 2.74-2.6 6.41-9.99 6.57-19.85.46-28.51-9.4-13.34-32.11-21.19-49.6-17.14-8.51 1.96-19.16 7.49-21.6 22.63l-1.79 11.12c-.26 1.59-1.73 2.68-3.33 2.42a2.905 2.905 0 0 1-2.44-3.31c1.41-9.53 3.01-20.33-.19-29.83-2.05-6.05-6.2-12.04-12.74-18.31-23.47-22.57-59.02-31.88-90.54-23.73-14.82 3.84-26.95 11.73-38.19 24.83-7.22 8.44-15.93 19.82-19.09 33.05-4.59 19.23 3.41 41.02 19.91 54.23 15.45 12.37 37.27 16.97 58.36 12.31 6-1.33 11.42-3.33 16.15-5.89 2.65-2.28 5.58-4.37 8.84-6.2.66-.61 1.31-1.21 1.93-1.84 13.43-14.07 11.46-36.48 1.94-49.17-8.42-11.2-20.89-13.65-34.22-6.71-4.15 2.16-9.02 6.79-9.88 11.85-.45 2.65.29 4.97 2.28 7.1a2.923 2.923 0 0 1-.14 4.13 2.92 2.92 0 0 1-4.12-.15c-3.23-3.45-4.54-7.63-3.77-12.07 1.21-7.05 7.37-13.15 12.94-16.05 15.88-8.26 31.43-5.13 41.58 8.39 9.47 12.61 12.38 33.6 2.97 49.58 9.06-2.8 19.77-3.85 32.22-2.25 12.88 1.64 30.06 9.32 36.1 25.51 6.48 17.37-4 35.58-17.15 43.9-8.67 5.48-20.86 6.77-29.66 3.15-6.7-2.76-11.1-7.98-12.71-15.06-2.52-11.02 4.02-22.36 14.28-24.76 5.66-1.32 10.97-.51 14.21 2.17 1.73 1.43 3.74 4.1 3.53 8.73-.13 2.86-1.77 5.71-4.3 7.41-2.32 1.56-5.05 1.98-7.48 1.11-1.52-.54-2.33-2.2-1.78-3.72.54-1.52 2.2-2.32 3.72-1.78.96.33 1.91-.21 2.28-.46 1.01-.69 1.69-1.79 1.74-2.83.08-1.82-.39-3.11-1.43-3.98-1.78-1.48-5.37-1.87-9.14-.98-7.94 1.86-11.54 10.69-9.92 17.78 1.2 5.23 4.31 8.92 9.25 10.96 7.15 2.95 17.15 1.84 24.31-2.68 11.21-7.09 20.2-22.44 14.8-36.92-5.13-13.75-20.1-20.33-31.37-21.77-16.5-2.11-29.64.78-39.61 6.25-2.57 2.27-5.51 4.28-8.7 6.07-5.7 4.97-9.79 10.88-12.31 16.85-7.85 18.49-3.06 43.85 10 61.76a2.84 2.84 0 0 1 1.99 2.59c3.21 3.96 6.83 7.5 10.85 10.41 17.37 12.62 46 15.56 63.83 6.54 12.49-6.32 22.9-17.82 29.55-32.59-3.21-.99-6.12-2.38-8.63-4.13-6.23-4.37-10.12-11.33-10.14-18.15 0-1.61 1.3-2.92 2.91-2.92h.01c1.61 0 2.92 1.3 2.92 2.9.01 4.96 2.95 10.08 7.65 13.39 4.15 2.91 9.75 4.58 16.2 4.83 13.84.55 26.67-5.29 40.42-18.33a2.92 2.92 0 0 1 4.12.11 2.92 2.92 0 0 1-.11 4.13c-14.15 13.42-28.17 19.97-42.77 19.97a46 46 0 0 1-6.54-.47c-2.12 9.64 7.63 18.99 14.16 23.21 10.73 6.95 25.59 8.12 38.79 3.04 12.19-4.68 22.74-15.5 29.78-30.47-4.43-5.01-6.28-11.7-5.59-17.5.9-7.48 6.29-15.57 18.75-15.85 1.52-.04 6.87.2 11.01 4.64 3.41 3.65 4.82 8.88 4.2 15.53-.15 1.6-1.6 2.78-3.17 2.64a2.925 2.925 0 0 1-2.64-3.18c.46-4.92-.44-8.62-2.66-11.01-1.98-2.11-4.74-2.81-6.6-2.78-10.7.24-12.72 7.57-13.09 10.7-.83 6.94 3.49 15.49 12.14 17.78 11.26 2.99 29.16-1 36.86-11.49 1.81-2.47 1.5-4.43 1.03-7.41-.37-2.4-.8-5.13.03-8.33 2.03-7.81 9.08-7.42 13.29-7.19 1.37.08 2.64.07 4.11.16 1.04.07 2.21.14 2.85-.06 5.81-1.73 7.26-7.34 8.8-15.71.41-2.2.79-4.27 1.34-6.23 2.46-8.89 8.46-15.35 17.84-19.22z" mask="url(#aS)"/><path stroke="#e8920d" stroke-width="14" d="M600.58 645.28c5.99-2.47 12.53-1.85 18.89-1.1-2.23-.89-4.38-1.9-6.49-2.88-.93-.43-1.85-.87-2.78-1.29-8.22-3.73-16.29-6.83-24.59-3.96-9.73 3.37-18.32 11.42-24.71 18.06-.23.24-.41.53-.61.8-.38.55-.84 1.22-1.51 1.83-12.02 11.01-36.01 22.76-52.82 10.06-5.47-4.14-9.39-9.79-12.63-14.77-9.81-15.03-21.41-28.16-39.73-22.42-.43.14-.88.36-1.4.61-.61.28-1.21.57-1.85.8-.26.09-.59.22-.98.38-2.33.92-4.12 1.56-5.64 1.35-1.03-.15-1.9-.83-2.29-1.79-1.24-3.06 1.47-5.48 2.92-6.77.23-.21.45-.4.59-.55.89-.97 1.87-1.73 2.83-2.47 1.1-.85 2.14-1.66 2.74-2.6 6.41-9.99 6.57-19.85.46-28.51-9.4-13.34-32.11-21.19-49.6-17.14-8.51 1.96-19.16 7.49-21.6 22.63l-1.79 11.12c-.26 1.59-1.73 2.68-3.33 2.42a2.905 2.905 0 0 1-2.44-3.31c1.41-9.53 3.01-20.33-.19-29.83-2.05-6.05-6.2-12.04-12.74-18.31-23.47-22.57-59.02-31.88-90.54-23.73-14.82 3.84-26.95 11.73-38.19 24.83-7.22 8.44-15.93 19.82-19.09 33.05-4.59 19.23 3.41 41.02 19.91 54.23 15.45 12.37 37.27 16.97 58.36 12.31 6-1.33 11.42-3.33 16.15-5.89 2.65-2.28 5.58-4.37 8.84-6.2.66-.61 1.31-1.21 1.93-1.84 13.43-14.07 11.46-36.48 1.94-49.17-8.42-11.2-20.89-13.65-34.22-6.71-4.15 2.16-9.02 6.79-9.88 11.85-.45 2.65.29 4.97 2.28 7.1a2.923 2.923 0 0 1-.14 4.13 2.92 2.92 0 0 1-4.12-.15c-3.23-3.45-4.54-7.63-3.77-12.07 1.21-7.05 7.37-13.15 12.94-16.05 15.88-8.26 31.43-5.13 41.58 8.39 9.47 12.61 12.38 33.6 2.97 49.58 9.06-2.8 19.77-3.85 32.22-2.25 12.88 1.64 30.06 9.32 36.1 25.51 6.48 17.37-4 35.58-17.15 43.9-8.67 5.48-20.86 6.77-29.66 3.15-6.7-2.76-11.1-7.98-12.71-15.06-2.52-11.02 4.02-22.36 14.28-24.76 5.66-1.32 10.97-.51 14.21 2.17 1.73 1.43 3.74 4.1 3.53 8.73-.13 2.86-1.77 5.71-4.3 7.41-2.32 1.56-5.05 1.98-7.48 1.11-1.52-.54-2.33-2.2-1.78-3.72.54-1.52 2.2-2.32 3.72-1.78.96.33 1.91-.21 2.28-.46 1.01-.69 1.69-1.79 1.74-2.83.08-1.82-.39-3.11-1.43-3.98-1.78-1.48-5.37-1.87-9.14-.98-7.94 1.86-11.54 10.69-9.92 17.78 1.2 5.23 4.31 8.92 9.25 10.96 7.15 2.95 17.15 1.84 24.31-2.68 11.21-7.09 20.2-22.44 14.8-36.92-5.13-13.75-20.1-20.33-31.37-21.77-16.5-2.11-29.64.78-39.61 6.25-2.57 2.27-5.51 4.28-8.7 6.07-5.7 4.97-9.79 10.88-12.31 16.85-7.85 18.49-3.06 43.85 10 61.76a2.84 2.84 0 0 1 1.99 2.59c3.21 3.96 6.83 7.5 10.85 10.41 17.37 12.62 46 15.56 63.83 6.54 12.49-6.32 22.9-17.82 29.55-32.59-3.21-.99-6.12-2.38-8.63-4.13-6.23-4.37-10.12-11.33-10.14-18.15 0-1.61 1.3-2.92 2.91-2.92h.01c1.61 0 2.92 1.3 2.92 2.9.01 4.96 2.95 10.08 7.65 13.39 4.15 2.91 9.75 4.58 16.2 4.83 13.84.55 26.67-5.29 40.42-18.33a2.92 2.92 0 0 1 4.12.11 2.92 2.92 0 0 1-.11 4.13c-14.15 13.42-28.17 19.97-42.77 19.97a46 46 0 0 1-6.54-.47c-2.12 9.64 7.63 18.99 14.16 23.21 10.73 6.95 25.59 8.12 38.79 3.04 12.19-4.68 22.74-15.5 29.78-30.47-4.43-5.01-6.28-11.7-5.59-17.5.9-7.48 6.29-15.57 18.75-15.85 1.52-.04 6.87.2 11.01 4.64 3.41 3.65 4.82 8.88 4.2 15.53-.15 1.6-1.6 2.78-3.17 2.64a2.925 2.925 0 0 1-2.64-3.18c.46-4.92-.44-8.62-2.66-11.01-1.98-2.11-4.74-2.81-6.6-2.78-10.7.24-12.72 7.57-13.09 10.7-.83 6.94 3.49 15.49 12.14 17.78 11.26 2.99 29.16-1 36.86-11.49 1.81-2.47 1.5-4.43 1.03-7.41-.37-2.4-.8-5.13.03-8.33 2.03-7.81 9.08-7.42 13.29-7.19 1.37.08 2.64.07 4.11.16 1.04.07 2.21.14 2.85-.06 5.81-1.73 7.26-7.34 8.8-15.71.41-2.2.79-4.27 1.34-6.23 2.46-8.89 8.46-15.35 17.84-19.22z" mask="url(#aS)"/><path fill="url(#aT)" d="M211.2 621.55c3.63 10.07 10.04 19.33 18.72 26.28h.01c15.89 12.73 38.44 17.59 60.3 12.76l.71-.16c1.65-.39 3.27-.84 4.87-1.34l9.69-2.98-5.79 8.33c-1.95 2.8-3.54 5.7-4.77 8.61-8.16 19.22-3.6 45.18 10.09 63.91l1.54 2.11-1.58 2.07c-5.18 6.81-12.23 12.69-20.2 15.52-8.1 2.86-17.09 2.54-25.58-3.08a71 71 0 0 1-5.47-4.03c-1.49-1.23-2.99-2.59-3.8-3.71l-.69-.95c-.59.69-1.18 1.38-1.76 2.07l-.01.01-2.67-2.27 2.67 2.27c-5.29 6.2-10.38 12.26-19.37 15.93-8.43 3.45-18.37 4.48-27.37 2.84-14.06-2.57-21.8-9.43-31.58-18.01-1.23-1.08-2.47-2.18-3.77-3.29-2.38-2.06-4.96-4.67-7.56-7.29-1.68-1.69-3.41-3.44-5.24-5.2l3.4-4.64-.1-.06c-11.92-6.51-23.08-12.46-35.07-11.82h-.19c-1.86 0-3.76.17-5.73.53l-.49.46-.8.23c-1.46.42-2.84.87-4.21 1.45l-.01.01c-5.46 2.32-10.46 5.58-15.6 8.93-9.22 6.02-18.99 12.51-31.66 12.02l-.6-.03c-7.14-.4-12.61-2.81-17.02-6.94-4.28-4.02-7.37-9.51-10.16-15.71v-.01c-1.16-2.56-2.63-5.82-4.74-8.77-2.1-2.96-4.66-5.35-7.82-6.47l-10.31-3.66L22 694.46c.18-.05.37-.1.56-.16 2.94-.85 5.78-1.14 9.31-1.03 1.89.06 3.59.59 5.07 1.15l1.39.55c.8.32 1.51.61 2.23.85l.01.01c1.75.6 3.34 1.26 4.8 1.9l1.41.62.01.01c4.72 2.1 8.54 3.77 14.64 3.29l1.59-.14c3.66-.33 7-.88 9.97-2.37 7.37-3.71 11.85-10.2 16.71-17.37 3.69-5.45 7.57-11.23 13.17-15.35 13.08-9.64 31.9-9.95 45-.71l.63.44c.79-5.01 2.43-9.89 4.61-14.4 3.92-8.12 9.69-15.31 15.85-20.24 9.76-7.79 23.61-11.98 38.88-12.27l2.51-.05z"/><path stroke="#000" stroke-width="7" d="M211.2 621.55c3.63 10.07 10.04 19.33 18.72 26.28h.01c15.89 12.73 38.44 17.59 60.3 12.76l.71-.16c1.65-.39 3.27-.84 4.87-1.34l9.69-2.98-5.79 8.33c-1.95 2.8-3.54 5.7-4.77 8.61-8.16 19.22-3.6 45.18 10.09 63.91l1.54 2.11-1.58 2.07c-5.18 6.81-12.23 12.69-20.2 15.52-8.1 2.86-17.09 2.54-25.58-3.08a71 71 0 0 1-5.47-4.03c-1.49-1.23-2.99-2.59-3.8-3.71l-.69-.95c-.59.69-1.18 1.38-1.76 2.07l-.01.01-2.67-2.27 2.67 2.27c-5.29 6.2-10.38 12.26-19.37 15.93-8.43 3.45-18.37 4.48-27.37 2.84-14.06-2.57-21.8-9.43-31.58-18.01-1.23-1.08-2.47-2.18-3.77-3.29-2.38-2.06-4.96-4.67-7.56-7.29-1.68-1.69-3.41-3.44-5.24-5.2l3.4-4.64-.1-.06c-11.92-6.51-23.08-12.46-35.07-11.82h-.19c-1.86 0-3.76.17-5.73.53l-.49.46-.8.23c-1.46.42-2.84.87-4.21 1.45l-.01.01c-5.46 2.32-10.46 5.58-15.6 8.93-9.22 6.02-18.99 12.51-31.66 12.02l-.6-.03c-7.14-.4-12.61-2.81-17.02-6.94-4.28-4.02-7.37-9.51-10.16-15.71v-.01c-1.16-2.56-2.63-5.82-4.74-8.77-2.1-2.96-4.66-5.35-7.82-6.47l-10.31-3.66L22 694.46c.18-.05.37-.1.56-.16 2.94-.85 5.78-1.14 9.31-1.03 1.89.06 3.59.59 5.07 1.15l1.39.55c.8.32 1.51.61 2.23.85l.01.01c1.75.6 3.34 1.26 4.8 1.9l1.41.62.01.01c4.72 2.1 8.54 3.77 14.64 3.29l1.59-.14c3.66-.33 7-.88 9.97-2.37 7.37-3.71 11.85-10.2 16.71-17.37 3.69-5.45 7.57-11.23 13.17-15.35 13.08-9.64 31.9-9.95 45-.71l.63.44c.79-5.01 2.43-9.89 4.61-14.4 3.92-8.12 9.69-15.31 15.85-20.24 9.76-7.79 23.61-11.98 38.88-12.27l2.51-.05z"/><path stroke="#e8920d" stroke-width="7" d="M211.2 621.55c3.63 10.07 10.04 19.33 18.72 26.28h.01c15.89 12.73 38.44 17.59 60.3 12.76l.71-.16c1.65-.39 3.27-.84 4.87-1.34l9.69-2.98-5.79 8.33c-1.95 2.8-3.54 5.7-4.77 8.61-8.16 19.22-3.6 45.18 10.09 63.91l1.54 2.11-1.58 2.07c-5.18 6.81-12.23 12.69-20.2 15.52-8.1 2.86-17.09 2.54-25.58-3.08a71 71 0 0 1-5.47-4.03c-1.49-1.23-2.99-2.59-3.8-3.71l-.69-.95c-.59.69-1.18 1.38-1.76 2.07l-.01.01-2.67-2.27 2.67 2.27c-5.29 6.2-10.38 12.26-19.37 15.93-8.43 3.45-18.37 4.48-27.37 2.84-14.06-2.57-21.8-9.43-31.58-18.01-1.23-1.08-2.47-2.18-3.77-3.29-2.38-2.06-4.96-4.67-7.56-7.29-1.68-1.69-3.41-3.44-5.24-5.2l3.4-4.64-.1-.06c-11.92-6.51-23.08-12.46-35.07-11.82h-.19c-1.86 0-3.76.17-5.73.53l-.49.46-.8.23c-1.46.42-2.84.87-4.21 1.45l-.01.01c-5.46 2.32-10.46 5.58-15.6 8.93-9.22 6.02-18.99 12.51-31.66 12.02l-.6-.03c-7.14-.4-12.61-2.81-17.02-6.94-4.28-4.02-7.37-9.51-10.16-15.71v-.01c-1.16-2.56-2.63-5.82-4.74-8.77-2.1-2.96-4.66-5.35-7.82-6.47l-10.31-3.66L22 694.46c.18-.05.37-.1.56-.16 2.94-.85 5.78-1.14 9.31-1.03 1.89.06 3.59.59 5.07 1.15l1.39.55c.8.32 1.51.61 2.23.85l.01.01c1.75.6 3.34 1.26 4.8 1.9l1.41.62.01.01c4.72 2.1 8.54 3.77 14.64 3.29l1.59-.14c3.66-.33 7-.88 9.97-2.37 7.37-3.71 11.85-10.2 16.71-17.37 3.69-5.45 7.57-11.23 13.17-15.35 13.08-9.64 31.9-9.95 45-.71l.63.44c.79-5.01 2.43-9.89 4.61-14.4 3.92-8.12 9.69-15.31 15.85-20.24 9.76-7.79 23.61-11.98 38.88-12.27l2.51-.05z"/><g filter="url(#aU)"><mask id="aV" width="420" height="244" x="202.19" y="524" fill="#000" maskUnits="userSpaceOnUse"><path fill="#fff" d="M202.19 524h420v244h-420z"/><path d="M600.58 645.28c5.99-2.47 12.53-1.85 18.89-1.1-2.23-.9-4.38-1.9-6.49-2.88-.93-.44-1.85-.87-2.78-1.29-8.22-3.73-16.29-6.83-24.59-3.96-9.73 3.36-18.32 11.42-24.71 18.05-.23.25-.41.53-.61.81-.38.54-.84 1.22-1.51 1.83-12.02 11.01-36.01 22.76-52.82 10.05-5.47-4.13-9.39-9.78-12.63-14.76-9.81-15.04-21.41-28.16-39.73-22.42-.43.14-.88.35-1.4.61-.61.28-1.21.57-1.85.8-.26.09-.59.22-.98.37-2.33.93-4.12 1.57-5.64 1.36-1.03-.15-1.9-.83-2.29-1.8-1.24-3.05 1.47-5.47 2.92-6.76.23-.21.45-.4.59-.55.89-.98 1.87-1.73 2.83-2.47 1.1-.85 2.14-1.67 2.74-2.6 6.41-9.99 6.57-19.86.46-28.51-9.4-13.34-32.11-21.19-49.6-17.14-8.51 1.96-19.16 7.49-21.6 22.63l-1.79 11.12a2.916 2.916 0 0 1-3.33 2.42 2.91 2.91 0 0 1-2.44-3.31c1.41-9.53 3.01-20.33-.19-29.83-2.05-6.05-6.2-12.04-12.74-18.32-23.47-22.56-59.02-31.88-90.54-23.72-14.82 3.83-26.95 11.73-38.19 24.83-7.22 8.44-15.93 19.82-19.09 33.05-4.59 19.23 3.41 41.02 19.91 54.23 15.45 12.37 37.27 16.97 58.36 12.31 6-1.33 11.42-3.33 16.15-5.89 2.65-2.28 5.58-4.37 8.84-6.2.66-.61 1.31-1.21 1.93-1.84 13.43-14.07 11.46-36.48 1.94-49.17-8.42-11.21-20.89-13.65-34.22-6.71-4.15 2.16-9.02 6.79-9.88 11.85-.45 2.65.29 4.97 2.28 7.1 1.1 1.18 1.04 3.03-.14 4.12a2.91 2.91 0 0 1-4.12-.14c-3.23-3.46-4.54-7.63-3.77-12.07 1.21-7.06 7.37-13.15 12.94-16.05 15.88-8.26 31.43-5.13 41.58 8.39 9.47 12.61 12.38 33.6 2.97 49.58 9.06-2.8 19.77-3.86 32.22-2.25 12.88 1.64 30.06 9.32 36.1 25.51 6.48 17.37-4 35.58-17.15 43.9-8.67 5.48-20.86 6.77-29.66 3.15-6.7-2.76-11.1-7.98-12.71-15.06-2.52-11.02 4.02-22.36 14.28-24.76 5.66-1.32 10.97-.51 14.21 2.17 1.73 1.43 3.74 4.1 3.53 8.73-.13 2.86-1.77 5.71-4.3 7.41-2.32 1.56-5.05 1.98-7.48 1.11-1.52-.54-2.33-2.2-1.78-3.72.54-1.52 2.2-2.32 3.72-1.78.96.33 1.91-.21 2.28-.46 1.01-.69 1.69-1.79 1.74-2.83.08-1.82-.39-3.12-1.43-3.98-1.78-1.48-5.37-1.87-9.14-.98-7.94 1.86-11.54 10.69-9.92 17.78 1.2 5.23 4.31 8.92 9.25 10.96 7.15 2.95 17.15 1.84 24.31-2.68 11.21-7.09 20.2-22.44 14.8-36.92-5.13-13.76-20.1-20.33-31.37-21.77-16.5-2.11-29.64.78-39.61 6.25-2.57 2.27-5.51 4.28-8.7 6.07-5.7 4.97-9.79 10.88-12.31 16.85-7.85 18.49-3.06 43.85 10 61.76a2.84 2.84 0 0 1 1.99 2.59c3.21 3.96 6.83 7.5 10.85 10.41 17.37 12.62 46 15.56 63.83 6.54 12.49-6.32 22.9-17.82 29.55-32.59-3.21-.99-6.12-2.38-8.63-4.13-6.23-4.37-10.12-11.33-10.14-18.15 0-1.61 1.3-2.93 2.91-2.93h.01c1.61 0 2.92 1.31 2.92 2.91.01 4.96 2.95 10.08 7.65 13.39 4.15 2.91 9.75 4.58 16.2 4.83 13.84.55 26.67-5.29 40.42-18.33a2.92 2.92 0 0 1 4.12.11 2.92 2.92 0 0 1-.11 4.13c-14.15 13.42-28.17 19.97-42.77 19.97a46 46 0 0 1-6.54-.47c-2.12 9.64 7.63 18.99 14.16 23.21 10.73 6.95 25.59 8.12 38.79 3.04 12.19-4.69 22.74-15.51 29.78-30.47-4.43-5.01-6.28-11.7-5.59-17.5.9-7.48 6.29-15.57 18.75-15.85 1.52-.04 6.87.2 11.01 4.64 3.41 3.65 4.82 8.88 4.2 15.53-.15 1.6-1.6 2.78-3.17 2.64-1.61-.16-2.79-1.58-2.64-3.18.46-4.92-.44-8.62-2.66-11.01-1.98-2.11-4.74-2.82-6.6-2.78-10.7.24-12.72 7.57-13.09 10.7-.83 6.94 3.49 15.48 12.14 17.78 11.26 2.99 29.16-1 36.86-11.5 1.81-2.46 1.5-4.42 1.03-7.4-.37-2.4-.8-5.13.03-8.33 2.03-7.81 9.08-7.42 13.29-7.19 1.37.08 2.64.07 4.11.16 1.04.07 2.21.14 2.85-.06 5.81-1.73 7.26-7.34 8.8-15.72.41-2.19.79-4.26 1.34-6.22 2.46-8.89 8.46-15.35 17.84-19.22z"/></mask><path stroke="#000" stroke-linejoin="bevel" stroke-width="14" d="M600.58 645.28c5.99-2.47 12.53-1.85 18.89-1.1-2.23-.9-4.38-1.9-6.49-2.88-.93-.44-1.85-.87-2.78-1.29-8.22-3.73-16.29-6.83-24.59-3.96-9.73 3.36-18.32 11.42-24.71 18.05-.23.25-.41.53-.61.81-.38.54-.84 1.22-1.51 1.83-12.02 11.01-36.01 22.76-52.82 10.05-5.47-4.13-9.39-9.78-12.63-14.76-9.81-15.04-21.41-28.16-39.73-22.42-.43.14-.88.35-1.4.61-.61.28-1.21.57-1.85.8-.26.09-.59.22-.98.37-2.33.93-4.12 1.57-5.64 1.36-1.03-.15-1.9-.83-2.29-1.8-1.24-3.05 1.47-5.47 2.92-6.76.23-.21.45-.4.59-.55.89-.98 1.87-1.73 2.83-2.47 1.1-.85 2.14-1.67 2.74-2.6 6.41-9.99 6.57-19.86.46-28.51-9.4-13.34-32.11-21.19-49.6-17.14-8.51 1.96-19.16 7.49-21.6 22.63l-1.79 11.12a2.916 2.916 0 0 1-3.33 2.42 2.91 2.91 0 0 1-2.44-3.31c1.41-9.53 3.01-20.33-.19-29.83-2.05-6.05-6.2-12.04-12.74-18.32-23.47-22.56-59.02-31.88-90.54-23.72-14.82 3.83-26.95 11.73-38.19 24.83-7.22 8.44-15.93 19.82-19.09 33.05-4.59 19.23 3.41 41.02 19.91 54.23 15.45 12.37 37.27 16.97 58.36 12.31 6-1.33 11.42-3.33 16.15-5.89 2.65-2.28 5.58-4.37 8.84-6.2.66-.61 1.31-1.21 1.93-1.84 13.43-14.07 11.46-36.48 1.94-49.17-8.42-11.21-20.89-13.65-34.22-6.71-4.15 2.16-9.02 6.79-9.88 11.85-.45 2.65.29 4.97 2.28 7.1 1.1 1.18 1.04 3.03-.14 4.12a2.91 2.91 0 0 1-4.12-.14c-3.23-3.46-4.54-7.63-3.77-12.07 1.21-7.06 7.37-13.15 12.94-16.05 15.88-8.26 31.43-5.13 41.58 8.39 9.47 12.61 12.38 33.6 2.97 49.58 9.06-2.8 19.77-3.86 32.22-2.25 12.88 1.64 30.06 9.32 36.1 25.51 6.48 17.37-4 35.58-17.15 43.9-8.67 5.48-20.86 6.77-29.66 3.15-6.7-2.76-11.1-7.98-12.71-15.06-2.52-11.02 4.02-22.36 14.28-24.76 5.66-1.32 10.97-.51 14.21 2.17 1.73 1.43 3.74 4.1 3.53 8.73-.13 2.86-1.77 5.71-4.3 7.41-2.32 1.56-5.05 1.98-7.48 1.11-1.52-.54-2.33-2.2-1.78-3.72.54-1.52 2.2-2.32 3.72-1.78.96.33 1.91-.21 2.28-.46 1.01-.69 1.69-1.79 1.74-2.83.08-1.82-.39-3.12-1.43-3.98-1.78-1.48-5.37-1.87-9.14-.98-7.94 1.86-11.54 10.69-9.92 17.78 1.2 5.23 4.31 8.92 9.25 10.96 7.15 2.95 17.15 1.84 24.31-2.68 11.21-7.09 20.2-22.44 14.8-36.92-5.13-13.76-20.1-20.33-31.37-21.77-16.5-2.11-29.64.78-39.61 6.25-2.57 2.27-5.51 4.28-8.7 6.07-5.7 4.97-9.79 10.88-12.31 16.85-7.85 18.49-3.06 43.85 10 61.76a2.84 2.84 0 0 1 1.99 2.59c3.21 3.96 6.83 7.5 10.85 10.41 17.37 12.62 46 15.56 63.83 6.54 12.49-6.32 22.9-17.82 29.55-32.59-3.21-.99-6.12-2.38-8.63-4.13-6.23-4.37-10.12-11.33-10.14-18.15 0-1.61 1.3-2.93 2.91-2.93h.01c1.61 0 2.92 1.31 2.92 2.91.01 4.96 2.95 10.08 7.65 13.39 4.15 2.91 9.75 4.58 16.2 4.83 13.84.55 26.67-5.29 40.42-18.33a2.92 2.92 0 0 1 4.12.11 2.92 2.92 0 0 1-.11 4.13c-14.15 13.42-28.17 19.97-42.77 19.97a46 46 0 0 1-6.54-.47c-2.12 9.64 7.63 18.99 14.16 23.21 10.73 6.95 25.59 8.12 38.79 3.04 12.19-4.69 22.74-15.51 29.78-30.47-4.43-5.01-6.28-11.7-5.59-17.5.9-7.48 6.29-15.57 18.75-15.85 1.52-.04 6.87.2 11.01 4.64 3.41 3.65 4.82 8.88 4.2 15.53-.15 1.6-1.6 2.78-3.17 2.64-1.61-.16-2.79-1.58-2.64-3.18.46-4.92-.44-8.62-2.66-11.01-1.98-2.11-4.74-2.82-6.6-2.78-10.7.24-12.72 7.57-13.09 10.7-.83 6.94 3.49 15.48 12.14 17.78 11.26 2.99 29.16-1 36.86-11.5 1.81-2.46 1.5-4.42 1.03-7.4-.37-2.4-.8-5.13.03-8.33 2.03-7.81 9.08-7.42 13.29-7.19 1.37.08 2.64.07 4.11.16 1.04.07 2.21.14 2.85-.06 5.81-1.73 7.26-7.34 8.8-15.72.41-2.19.79-4.26 1.34-6.22 2.46-8.89 8.46-15.35 17.84-19.22z" mask="url(#aV)"/><path stroke="#e8920d" stroke-linejoin="bevel" stroke-width="14" d="M600.58 645.28c5.99-2.47 12.53-1.85 18.89-1.1-2.23-.9-4.38-1.9-6.49-2.88-.93-.44-1.85-.87-2.78-1.29-8.22-3.73-16.29-6.83-24.59-3.96-9.73 3.36-18.32 11.42-24.71 18.05-.23.25-.41.53-.61.81-.38.54-.84 1.22-1.51 1.83-12.02 11.01-36.01 22.76-52.82 10.05-5.47-4.13-9.39-9.78-12.63-14.76-9.81-15.04-21.41-28.16-39.73-22.42-.43.14-.88.35-1.4.61-.61.28-1.21.57-1.85.8-.26.09-.59.22-.98.37-2.33.93-4.12 1.57-5.64 1.36-1.03-.15-1.9-.83-2.29-1.8-1.24-3.05 1.47-5.47 2.92-6.76.23-.21.45-.4.59-.55.89-.98 1.87-1.73 2.83-2.47 1.1-.85 2.14-1.67 2.74-2.6 6.41-9.99 6.57-19.86.46-28.51-9.4-13.34-32.11-21.19-49.6-17.14-8.51 1.96-19.16 7.49-21.6 22.63l-1.79 11.12a2.916 2.916 0 0 1-3.33 2.42 2.91 2.91 0 0 1-2.44-3.31c1.41-9.53 3.01-20.33-.19-29.83-2.05-6.05-6.2-12.04-12.74-18.32-23.47-22.56-59.02-31.88-90.54-23.72-14.82 3.83-26.95 11.73-38.19 24.83-7.22 8.44-15.93 19.82-19.09 33.05-4.59 19.23 3.41 41.02 19.91 54.23 15.45 12.37 37.27 16.97 58.36 12.31 6-1.33 11.42-3.33 16.15-5.89 2.65-2.28 5.58-4.37 8.84-6.2.66-.61 1.31-1.21 1.93-1.84 13.43-14.07 11.46-36.48 1.94-49.17-8.42-11.21-20.89-13.65-34.22-6.71-4.15 2.16-9.02 6.79-9.88 11.85-.45 2.65.29 4.97 2.28 7.1 1.1 1.18 1.04 3.03-.14 4.12a2.91 2.91 0 0 1-4.12-.14c-3.23-3.46-4.54-7.63-3.77-12.07 1.21-7.06 7.37-13.15 12.94-16.05 15.88-8.26 31.43-5.13 41.58 8.39 9.47 12.61 12.38 33.6 2.97 49.58 9.06-2.8 19.77-3.86 32.22-2.25 12.88 1.64 30.06 9.32 36.1 25.51 6.48 17.37-4 35.58-17.15 43.9-8.67 5.48-20.86 6.77-29.66 3.15-6.7-2.76-11.1-7.98-12.71-15.06-2.52-11.02 4.02-22.36 14.28-24.76 5.66-1.32 10.97-.51 14.21 2.17 1.73 1.43 3.74 4.1 3.53 8.73-.13 2.86-1.77 5.71-4.3 7.41-2.32 1.56-5.05 1.98-7.48 1.11-1.52-.54-2.33-2.2-1.78-3.72.54-1.52 2.2-2.32 3.72-1.78.96.33 1.91-.21 2.28-.46 1.01-.69 1.69-1.79 1.74-2.83.08-1.82-.39-3.12-1.43-3.98-1.78-1.48-5.37-1.87-9.14-.98-7.94 1.86-11.54 10.69-9.92 17.78 1.2 5.23 4.31 8.92 9.25 10.96 7.15 2.95 17.15 1.84 24.31-2.68 11.21-7.09 20.2-22.44 14.8-36.92-5.13-13.76-20.1-20.33-31.37-21.77-16.5-2.11-29.64.78-39.61 6.25-2.57 2.27-5.51 4.28-8.7 6.07-5.7 4.97-9.79 10.88-12.31 16.85-7.85 18.49-3.06 43.85 10 61.76a2.84 2.84 0 0 1 1.99 2.59c3.21 3.96 6.83 7.5 10.85 10.41 17.37 12.62 46 15.56 63.83 6.54 12.49-6.32 22.9-17.82 29.55-32.59-3.21-.99-6.12-2.38-8.63-4.13-6.23-4.37-10.12-11.33-10.14-18.15 0-1.61 1.3-2.93 2.91-2.93h.01c1.61 0 2.92 1.31 2.92 2.91.01 4.96 2.95 10.08 7.65 13.39 4.15 2.91 9.75 4.58 16.2 4.83 13.84.55 26.67-5.29 40.42-18.33a2.92 2.92 0 0 1 4.12.11 2.92 2.92 0 0 1-.11 4.13c-14.15 13.42-28.17 19.97-42.77 19.97a46 46 0 0 1-6.54-.47c-2.12 9.64 7.63 18.99 14.16 23.21 10.73 6.95 25.59 8.12 38.79 3.04 12.19-4.69 22.74-15.51 29.78-30.47-4.43-5.01-6.28-11.7-5.59-17.5.9-7.48 6.29-15.57 18.75-15.85 1.52-.04 6.87.2 11.01 4.64 3.41 3.65 4.82 8.88 4.2 15.53-.15 1.6-1.6 2.78-3.17 2.64-1.61-.16-2.79-1.58-2.64-3.18.46-4.92-.44-8.62-2.66-11.01-1.98-2.11-4.74-2.82-6.6-2.78-10.7.24-12.72 7.57-13.09 10.7-.83 6.94 3.49 15.48 12.14 17.78 11.26 2.99 29.16-1 36.86-11.5 1.81-2.46 1.5-4.42 1.03-7.4-.37-2.4-.8-5.13.03-8.33 2.03-7.81 9.08-7.42 13.29-7.19 1.37.08 2.64.07 4.11.16 1.04.07 2.21.14 2.85-.06 5.81-1.73 7.26-7.34 8.8-15.72.41-2.19.79-4.26 1.34-6.22 2.46-8.89 8.46-15.35 17.84-19.22z" mask="url(#aV)"/><path stroke="#000" stroke-linejoin="bevel" stroke-width="7" d="M211.2 621.55c3.63 10.07 10.04 19.33 18.72 26.27l.01.01c15.89 12.73 38.44 17.59 60.3 12.76l.71-.16c1.65-.39 3.27-.84 4.87-1.34l3.9 5.35c-1.95 2.8-3.54 5.7-4.77 8.61-8.16 19.22-3.6 45.18 10.09 63.91l-.04 4.18c-5.18 6.81-12.23 12.69-20.2 15.51-8.1 2.87-17.09 2.55-25.58-3.07a71 71 0 0 1-5.47-4.03c-1.49-1.23-2.99-2.59-3.8-3.71l-.31-1.38c-.73.83-1.44 1.67-2.14 2.5l-.01.01-2.67-2.27 2.67 2.27c-5.29 6.2-10.38 12.26-19.37 15.93-8.43 3.45-18.37 4.47-27.37 2.83-14.06-2.56-21.8-9.42-31.58-18-1.23-1.08-2.47-2.18-3.77-3.29-2.38-2.06-4.96-4.67-7.56-7.29-1.68-1.69-3.41-3.44-5.24-5.2l3.4-4.64-.1-.06c-11.92-6.51-23.08-12.46-35.07-11.82h-.19c-1.89 0-3.83.17-5.85.55l-1.17.67c-1.46.42-2.84.87-4.21 1.45l-.01.01c-5.46 2.32-10.46 5.58-15.6 8.93-9.22 6.02-18.99 12.51-31.66 12.02l-.6-.03c-7.14-.41-12.61-2.81-17.02-6.94-4.28-4.03-7.37-9.51-10.16-15.71v-.01c-1.16-2.56-2.63-5.82-4.74-8.77-2.1-2.96-4.66-5.35-7.82-6.47l.21-6.67c.18-.05.37-.1.56-.16 2.94-.85 5.78-1.14 9.31-1.03 1.89.06 3.59.59 5.07 1.15l1.39.55c.8.32 1.51.61 2.23.85l.01.01c1.75.6 3.34 1.26 4.8 1.9l1.41.62.01.01c4.72 2.1 8.54 3.76 14.64 3.29l1.59-.14c3.66-.33 7-.88 9.97-2.37 7.37-3.71 11.85-10.2 16.71-17.37 3.69-5.45 7.57-11.23 13.17-15.35v-.01c13.08-9.63 31.9-9.94 45-.7l.52 1.14c.75-5.25 2.44-10.38 4.72-15.1 3.92-8.12 9.69-15.31 15.85-20.24 9.76-7.79 23.61-11.98 38.88-12.27zm-96.4 94.42c.09-.02.17-.07.22-.12z"/><path stroke="#e8920d" stroke-linejoin="bevel" stroke-width="7" d="M211.2 621.55c3.63 10.07 10.04 19.33 18.72 26.27l.01.01c15.89 12.73 38.44 17.59 60.3 12.76l.71-.16c1.65-.39 3.27-.84 4.87-1.34l3.9 5.35c-1.95 2.8-3.54 5.7-4.77 8.61-8.16 19.22-3.6 45.18 10.09 63.91l-.04 4.18c-5.18 6.81-12.23 12.69-20.2 15.51-8.1 2.87-17.09 2.55-25.58-3.07a71 71 0 0 1-5.47-4.03c-1.49-1.23-2.99-2.59-3.8-3.71l-.31-1.38c-.73.83-1.44 1.67-2.14 2.5l-.01.01-2.67-2.27 2.67 2.27c-5.29 6.2-10.38 12.26-19.37 15.93-8.43 3.45-18.37 4.47-27.37 2.83-14.06-2.56-21.8-9.42-31.58-18-1.23-1.08-2.47-2.18-3.77-3.29-2.38-2.06-4.96-4.67-7.56-7.29-1.68-1.69-3.41-3.44-5.24-5.2l3.4-4.64-.1-.06c-11.92-6.51-23.08-12.46-35.07-11.82h-.19c-1.89 0-3.83.17-5.85.55l-1.17.67c-1.46.42-2.84.87-4.21 1.45l-.01.01c-5.46 2.32-10.46 5.58-15.6 8.93-9.22 6.02-18.99 12.51-31.66 12.02l-.6-.03c-7.14-.41-12.61-2.81-17.02-6.94-4.28-4.03-7.37-9.51-10.16-15.71v-.01c-1.16-2.56-2.63-5.82-4.74-8.77-2.1-2.96-4.66-5.35-7.82-6.47l.21-6.67c.18-.05.37-.1.56-.16 2.94-.85 5.78-1.14 9.31-1.03 1.89.06 3.59.59 5.07 1.15l1.39.55c.8.32 1.51.61 2.23.85l.01.01c1.75.6 3.34 1.26 4.8 1.9l1.41.62.01.01c4.72 2.1 8.54 3.76 14.64 3.29l1.59-.14c3.66-.33 7-.88 9.97-2.37 7.37-3.71 11.85-10.2 16.71-17.37 3.69-5.45 7.57-11.23 13.17-15.35v-.01c13.08-9.63 31.9-9.94 45-.7l.52 1.14c.75-5.25 2.44-10.38 4.72-15.1 3.92-8.12 9.69-15.31 15.85-20.24 9.76-7.79 23.61-11.98 38.88-12.27zm-96.4 94.42c.09-.02.17-.07.22-.12z"/></g><defs><linearGradient id="a" x1="597.83" x2="597.88" y1="460.22" y2="552.78" gradientUnits="userSpaceOnUse"><stop stop-color="#ffcc3f"/><stop offset="1" stop-color="#a01326"/></linearGradient><linearGradient id="b" x1="562.75" x2="562.8" y1="386.74" y2="503.69" gradientUnits="userSpaceOnUse"><stop stop-color="#ffcc3f"/><stop offset="1" stop-color="#a01326"/></linearGradient><linearGradient id="c" x1="486.55" x2="486.65" y1="459.51" y2="556.85" gradientUnits="userSpaceOnUse"><stop stop-color="#ffcc3f"/><stop offset="1" stop-color="#a01326"/></linearGradient><linearGradient id="d" x1="365.74" x2="366.12" y1="387.5" y2="561.18" gradientUnits="userSpaceOnUse"><stop stop-color="#ffcc3f"/><stop offset="1" stop-color="#a01326"/></linearGradient><linearGradient id="e" x1="355.21" x2="355.23" y1="368.5" y2="421.69" gradientUnits="userSpaceOnUse"><stop stop-color="#ffcc3f"/><stop offset="1" stop-color="#a01326"/></linearGradient><linearGradient id="f" x1="334.7" x2="334.89" y1="437.59" y2="559.31" gradientUnits="userSpaceOnUse"><stop stop-color="#ffcc3f"/><stop offset="1" stop-color="#a01326"/></linearGradient><linearGradient id="g" x1="305.46" x2="305.61" y1="453.27" y2="558.64" gradientUnits="userSpaceOnUse"><stop stop-color="#ffcc3f"/><stop offset="1" stop-color="#a01326"/></linearGradient><linearGradient id="h" x1="369.29" x2="369.49" y1="462.75" y2="580.74" gradientUnits="userSpaceOnUse"><stop stop-color="#ffcc3f"/><stop offset="1" stop-color="#a01326"/></linearGradient><linearGradient id="i" x1="387.96" x2="388.68" y1="204.13" y2="453.15" gradientUnits="userSpaceOnUse"><stop stop-color="#ffcc3f"/><stop offset="1" stop-color="#a01326"/></linearGradient><linearGradient id="j" x1="373.9" x2="374.56" y1="207.64" y2="453" gradientUnits="userSpaceOnUse"><stop stop-color="#ffcc3f"/><stop offset="1" stop-color="#a01326"/></linearGradient><linearGradient id="k" x1="417.19" x2="417.21" y1="183.69" y2="224.36" gradientUnits="userSpaceOnUse"><stop stop-color="#ffcc3f"/><stop offset="1" stop-color="#a01326"/></linearGradient><linearGradient id="l" x1="509.69" x2="509.7" y1="144.88" y2="195.3" gradientUnits="userSpaceOnUse"><stop stop-color="#ffcc3f"/><stop offset="1" stop-color="#a01326"/></linearGradient><linearGradient id="m" x1="491.81" x2="491.83" y1="124.76" y2="167.59" gradientUnits="userSpaceOnUse"><stop stop-color="#ffcc3f"/><stop offset="1" stop-color="#a01326"/></linearGradient><linearGradient id="n" x1="485.58" x2="485.6" y1="111.72" y2="150.71" gradientUnits="userSpaceOnUse"><stop stop-color="#ffcc3f"/><stop offset="1" stop-color="#a01326"/></linearGradient><linearGradient id="o" x1="450.59" x2="450.6" y1="110.64" y2="144.44" gradientUnits="userSpaceOnUse"><stop stop-color="#ffcc3f"/><stop offset="1" stop-color="#a01326"/></linearGradient><linearGradient id="p" x1="471.63" x2="471.65" y1="70.29" y2="122.01" gradientUnits="userSpaceOnUse"><stop stop-color="#ffcc3f"/><stop offset="1" stop-color="#a01326"/></linearGradient><linearGradient id="q" x1="452.95" x2="452.96" y1="49.56" y2="90.85" gradientUnits="userSpaceOnUse"><stop stop-color="#ffcc3f"/><stop offset="1" stop-color="#a01326"/></linearGradient><linearGradient id="r" x1="443.19" x2="443.21" y1="75.98" y2="121.79" gradientUnits="userSpaceOnUse"><stop stop-color="#ffcc3f"/><stop offset="1" stop-color="#a01326"/></linearGradient><linearGradient id="s" x1="418.4" x2="418.41" y1="94.21" y2="140.25" gradientUnits="userSpaceOnUse"><stop stop-color="#ffcc3f"/><stop offset="1" stop-color="#a01326"/></linearGradient><linearGradient id="t" x1="364.46" x2="364.48" y1="112.32" y2="156.15" gradientUnits="userSpaceOnUse"><stop stop-color="#ffcc3f"/><stop offset="1" stop-color="#a01326"/></linearGradient><linearGradient id="u" x1="382.81" x2="382.83" y1="134.64" y2="184.44" gradientUnits="userSpaceOnUse"><stop stop-color="#ffcc3f"/><stop offset="1" stop-color="#a01326"/></linearGradient><linearGradient id="v" x1="338.12" x2="338.13" y1="87.46" y2="135.19" gradientUnits="userSpaceOnUse"><stop stop-color="#ffcc3f"/><stop offset="1" stop-color="#a01326"/></linearGradient><linearGradient id="w" x1="346.19" x2="346.2" y1="108.09" y2="126.11" gradientUnits="userSpaceOnUse"><stop stop-color="#ffcc3f"/><stop offset="1" stop-color="#a01326"/></linearGradient><linearGradient id="x" x1="465.4" x2="465.4" y1="121.86" y2="141.71" gradientUnits="userSpaceOnUse"><stop stop-color="#ffcc3f"/><stop offset="1" stop-color="#a01326"/></linearGradient><linearGradient id="y" x1="319.97" x2="319.99" y1="65.65" y2="106.94" gradientUnits="userSpaceOnUse"><stop stop-color="#ffcc3f"/><stop offset="1" stop-color="#a01326"/></linearGradient><linearGradient id="z" x1="371.87" x2="371.88" y1="49.85" y2="93.5" gradientUnits="userSpaceOnUse"><stop stop-color="#ffcc3f"/><stop offset="1" stop-color="#a01326"/></linearGradient><linearGradient id="A" x1="395.39" x2="395.41" y1="31.63" y2="75.05" gradientUnits="userSpaceOnUse"><stop stop-color="#ffcc3f"/><stop offset="1" stop-color="#a01326"/></linearGradient><linearGradient id="B" x1="405.74" x2="405.75" y1="6.26" y2="46.2" gradientUnits="userSpaceOnUse"><stop stop-color="#ffcc3f"/><stop offset="1" stop-color="#a01326"/></linearGradient><linearGradient id="C" x1="423.66" x2="423.68" y1="26.71" y2="75.24" gradientUnits="userSpaceOnUse"><stop stop-color="#ffcc3f"/><stop offset="1" stop-color="#a01326"/></linearGradient><linearGradient id="D" x1="432.84" x2="432.84" y1="47.45" y2="63.8" gradientUnits="userSpaceOnUse"><stop stop-color="#ffcc3f"/><stop offset="1" stop-color="#a01326"/></linearGradient><linearGradient id="E" x1="360.98" x2="360.99" y1="171.87" y2="192.99" gradientUnits="userSpaceOnUse"><stop stop-color="#ffcc3f"/><stop offset="1" stop-color="#a01326"/></linearGradient><linearGradient id="F" x1="347.25" x2="347.26" y1="152.92" y2="176.76" gradientUnits="userSpaceOnUse"><stop stop-color="#ffcc3f"/><stop offset="1" stop-color="#a01326"/></linearGradient><linearGradient id="G" x1="348.77" x2="348.79" y1="161.68" y2="194.25" gradientUnits="userSpaceOnUse"><stop stop-color="#ffcc3f"/><stop offset="1" stop-color="#a01326"/></linearGradient><linearGradient id="H" x1="354.42" x2="354.44" y1="139.23" y2="184.28" gradientUnits="userSpaceOnUse"><stop stop-color="#ffcc3f"/><stop offset="1" stop-color="#a01326"/></linearGradient><linearGradient id="I" x1="457.3" x2="457.31" y1="168" y2="210.27" gradientUnits="userSpaceOnUse"><stop stop-color="#ffcc3f"/><stop offset="1" stop-color="#a01326"/></linearGradient><linearGradient id="J" x1="480.82" x2="480.84" y1="151.23" y2="195.06" gradientUnits="userSpaceOnUse"><stop stop-color="#ffcc3f"/><stop offset="1" stop-color="#a01326"/></linearGradient><linearGradient id="K" x1="459.92" x2="459.93" y1="174.75" y2="210.1" gradientUnits="userSpaceOnUse"><stop stop-color="#ffcc3f"/><stop offset="1" stop-color="#a01326"/></linearGradient><linearGradient id="L" x1="428.42" x2="428.44" y1="204.27" y2="255.66" gradientUnits="userSpaceOnUse"><stop stop-color="#ffcc3f"/><stop offset="1" stop-color="#a01326"/></linearGradient><linearGradient id="M" x1="414.94" x2="414.95" y1="91.02" y2="130.73" gradientUnits="userSpaceOnUse"><stop stop-color="#ffcc3f"/><stop offset="1" stop-color="#a01326"/></linearGradient><linearGradient id="N" x1="421.14" x2="421.15" y1="99.53" y2="140.05" gradientUnits="userSpaceOnUse"><stop stop-color="#ffcc3f"/><stop offset="1" stop-color="#a01326"/></linearGradient><linearGradient id="O" x1="369.6" x2="369.61" y1="47.93" y2="84.48" gradientUnits="userSpaceOnUse"><stop stop-color="#ffcc3f"/><stop offset="1" stop-color="#a01326"/></linearGradient><linearGradient id="P" x1="597.67" x2="597.68" y1="557.45" y2="608.3" gradientUnits="userSpaceOnUse"><stop stop-color="#ffcc3f"/><stop offset="1" stop-color="#a01326"/></linearGradient><linearGradient id="Q" x1="332.53" x2="332.6" y1="565.28" y2="631.59" gradientUnits="userSpaceOnUse"><stop stop-color="#ffcc3f"/><stop offset="1" stop-color="#a01326"/></linearGradient><linearGradient id="R" x1="349.57" x2="349.66" y1="562.33" y2="609.36" gradientUnits="userSpaceOnUse"><stop stop-color="#ffcc3f"/><stop offset="1" stop-color="#a01326"/></linearGradient><linearGradient id="S" x1="305.66" x2="305.72" y1="565.19" y2="631.59" gradientUnits="userSpaceOnUse"><stop stop-color="#ffcc3f"/><stop offset="1" stop-color="#a01326"/></linearGradient><linearGradient id="T" x1="315.18" x2="315.18" y1="421.22" y2="438.53" gradientUnits="userSpaceOnUse"><stop stop-color="#ffcc3f"/><stop offset="1" stop-color="#a01326"/></linearGradient><linearGradient id="U" x1="374.08" x2="374.08" y1="291.15" y2="306.09" gradientUnits="userSpaceOnUse"><stop stop-color="#ffcc3f"/><stop offset="1" stop-color="#a01326"/></linearGradient><linearGradient id="V" x1="444.31" x2="444.31" y1="531.3" y2="546.97" gradientUnits="userSpaceOnUse"><stop stop-color="#ffcc3f"/><stop offset="1" stop-color="#a01326"/></linearGradient><linearGradient id="W" x1="477.84" x2="477.84" y1="551.61" y2="571.95" gradientUnits="userSpaceOnUse"><stop stop-color="#ffcc3f"/><stop offset="1" stop-color="#a01326"/></linearGradient><linearGradient id="X" x1="498.54" x2="498.54" y1="575.79" y2="599.71" gradientUnits="userSpaceOnUse"><stop stop-color="#ffcc3f"/><stop offset="1" stop-color="#a01326"/></linearGradient><linearGradient id="Y" x1="375.53" x2="375.54" y1="577.63" y2="599.63" gradientUnits="userSpaceOnUse"><stop stop-color="#ffcc3f"/><stop offset="1" stop-color="#a01326"/></linearGradient><linearGradient id="Z" x1="535.35" x2="535.35" y1="605.77" y2="633.48" gradientUnits="userSpaceOnUse"><stop stop-color="#ffcc3f"/><stop offset="1" stop-color="#a01326"/></linearGradient><linearGradient id="aa" x1="365.35" x2="365.36" y1="607.51" y2="633.41" gradientUnits="userSpaceOnUse"><stop stop-color="#ffcc3f"/><stop offset="1" stop-color="#a01326"/></linearGradient><linearGradient id="ab" x1="571.99" x2="571.99" y1="638.61" y2="679.3" gradientUnits="userSpaceOnUse"><stop stop-color="#ffcc3f"/><stop offset="1" stop-color="#a01326"/></linearGradient><linearGradient id="ac" x1="334.99" x2="335" y1="636" y2="679.39" gradientUnits="userSpaceOnUse"><stop stop-color="#ffcc3f"/><stop offset="1" stop-color="#a01326"/></linearGradient><linearGradient id="ad" x1="248.52" x2="248.52" y1="622.49" y2="647.12" gradientUnits="userSpaceOnUse"><stop stop-color="#ffcc3f"/><stop offset="1" stop-color="#a01326"/></linearGradient><linearGradient id="ae" x1="266.81" x2="266.81" y1="595.25" y2="613.58" gradientUnits="userSpaceOnUse"><stop stop-color="#ffcc3f"/><stop offset="1" stop-color="#a01326"/></linearGradient><linearGradient id="af" x1="280.6" x2="280.61" y1="573.62" y2="589.39" gradientUnits="userSpaceOnUse"><stop stop-color="#ffcc3f"/><stop offset="1" stop-color="#a01326"/></linearGradient><linearGradient id="ag" x1="446.75" x2="446.75" y1="529.67" y2="534.88" gradientUnits="userSpaceOnUse"><stop stop-color="#ffcc3f"/><stop offset="1" stop-color="#a01326"/></linearGradient><linearGradient id="ah" x1="480.92" x2="480.92" y1="549.46" y2="556.05" gradientUnits="userSpaceOnUse"><stop stop-color="#ffcc3f"/><stop offset="1" stop-color="#a01326"/></linearGradient><linearGradient id="ai" x1="500.75" x2="500.75" y1="573.69" y2="584.25" gradientUnits="userSpaceOnUse"><stop stop-color="#ffcc3f"/><stop offset="1" stop-color="#a01326"/></linearGradient><linearGradient id="aj" x1="373.57" x2="373.57" y1="575.54" y2="584.17" gradientUnits="userSpaceOnUse"><stop stop-color="#ffcc3f"/><stop offset="1" stop-color="#a01326"/></linearGradient><linearGradient id="ak" x1="538.18" x2="538.18" y1="603.53" y2="616.96" gradientUnits="userSpaceOnUse"><stop stop-color="#ffcc3f"/><stop offset="1" stop-color="#a01326"/></linearGradient><linearGradient id="al" x1="363.71" x2="363.71" y1="605.3" y2="616.88" gradientUnits="userSpaceOnUse"><stop stop-color="#ffcc3f"/><stop offset="1" stop-color="#a01326"/></linearGradient><linearGradient id="am" x1="574.34" x2="574.34" y1="635.15" y2="654.23" gradientUnits="userSpaceOnUse"><stop stop-color="#ffcc3f"/><stop offset="1" stop-color="#a01326"/></linearGradient><linearGradient id="an" x1="333.21" x2="333.21" y1="627.63" y2="654.51" gradientUnits="userSpaceOnUse"><stop stop-color="#ffcc3f"/><stop offset="1" stop-color="#a01326"/></linearGradient><linearGradient id="ao" x1="246.72" x2="246.72" y1="617.78" y2="629.61" gradientUnits="userSpaceOnUse"><stop stop-color="#ffcc3f"/><stop offset="1" stop-color="#a01326"/></linearGradient><linearGradient id="ap" x1="265.31" x2="265.31" y1="593.28" y2="600.72" gradientUnits="userSpaceOnUse"><stop stop-color="#ffcc3f"/><stop offset="1" stop-color="#a01326"/></linearGradient><linearGradient id="aq" x1="278.81" x2="278.81" y1="571.29" y2="576.57" gradientUnits="userSpaceOnUse"><stop stop-color="#ffcc3f"/><stop offset="1" stop-color="#a01326"/></linearGradient><linearGradient id="ar" x1="574.43" x2="574.43" y1="624.98" y2="645.79" gradientUnits="userSpaceOnUse"><stop stop-color="#ffcc3f"/><stop offset="1" stop-color="#a01326"/></linearGradient><linearGradient id="as" x1="354.15" x2="354.16" y1="625.37" y2="645.76" gradientUnits="userSpaceOnUse"><stop stop-color="#ffcc3f"/><stop offset="1" stop-color="#a01326"/></linearGradient><linearGradient id="at" x1="246.72" x2="246.72" y1="609.48" y2="623.93" gradientUnits="userSpaceOnUse"><stop stop-color="#ffcc3f"/><stop offset="1" stop-color="#a01326"/></linearGradient><linearGradient id="au" x1="265.3" x2="265.3" y1="587.36" y2="596.64" gradientUnits="userSpaceOnUse"><stop stop-color="#ffcc3f"/><stop offset="1" stop-color="#a01326"/></linearGradient><linearGradient id="av" x1="294.92" x2="294.92" y1="567.34" y2="574.89" gradientUnits="userSpaceOnUse"><stop stop-color="#ffcc3f"/><stop offset="1" stop-color="#a01326"/></linearGradient><linearGradient id="aw" x1="538.23" x2="538.23" y1="594.8" y2="609.94" gradientUnits="userSpaceOnUse"><stop stop-color="#ffcc3f"/><stop offset="1" stop-color="#a01326"/></linearGradient><linearGradient id="ax" x1="370.35" x2="370.35" y1="596.3" y2="609.88" gradientUnits="userSpaceOnUse"><stop stop-color="#ffcc3f"/><stop offset="1" stop-color="#a01326"/></linearGradient><linearGradient id="ay" x1="480.92" x2="480.92" y1="546" y2="551.42" gradientUnits="userSpaceOnUse"><stop stop-color="#ffcc3f"/><stop offset="1" stop-color="#a01326"/></linearGradient><linearGradient id="az" x1="393.18" x2="393.4" y1="462.36" y2="580.76" gradientUnits="userSpaceOnUse"><stop stop-color="#ffcc3f"/><stop offset="1" stop-color="#a01326"/></linearGradient><linearGradient id="aA" x1="497.29" x2="497.29" y1="567.91" y2="577.52" gradientUnits="userSpaceOnUse"><stop stop-color="#ffcc3f"/><stop offset="1" stop-color="#a01326"/></linearGradient><linearGradient id="aB" x1="425.95" x2="425.95" y1="54.95" y2="65.3" gradientUnits="userSpaceOnUse"><stop stop-color="#ffcc3f"/><stop offset="1" stop-color="#a01326"/></linearGradient><linearGradient id="aC" x1="339.07" x2="339.08" y1="116.14" y2="127.23" gradientUnits="userSpaceOnUse"><stop stop-color="#ffcc3f"/><stop offset="1" stop-color="#a01326"/></linearGradient><linearGradient id="aD" x1="459.63" x2="459.64" y1="128.43" y2="142.75" gradientUnits="userSpaceOnUse"><stop stop-color="#ffcc3f"/><stop offset="1" stop-color="#a01326"/></linearGradient><linearGradient id="aE" x1="477.22" x2="477.23" y1="120.55" y2="150.48" gradientUnits="userSpaceOnUse"><stop stop-color="#ffcc3f"/><stop offset="1" stop-color="#a01326"/></linearGradient><linearGradient id="aF" x1="311.55" x2="311.57" y1="91.32" y2="135.05" gradientUnits="userSpaceOnUse"><stop stop-color="#ffcc3f"/><stop offset="1" stop-color="#a01326"/></linearGradient><linearGradient id="aG" x1="408.76" x2="408.77" y1="239.82" y2="254.35" gradientUnits="userSpaceOnUse"><stop stop-color="#ffcc3f"/><stop offset="1" stop-color="#a01326"/></linearGradient><linearGradient id="aH" x1="487.63" x2="488.26" y1="208.68" y2="460.44" gradientUnits="userSpaceOnUse"><stop stop-color="#ffcc3f"/><stop offset="1" stop-color="#a01326"/></linearGradient><linearGradient id="aI" x1="407.06" x2="407.07" y1="188.41" y2="204.05" gradientUnits="userSpaceOnUse"><stop stop-color="#ffcc3f"/><stop offset="1" stop-color="#a01326"/></linearGradient><linearGradient id="aJ" x1="438.62" x2="438.63" y1="119.42" y2="144.11" gradientUnits="userSpaceOnUse"><stop stop-color="#ffcc3f"/><stop offset="1" stop-color="#a01326"/></linearGradient><linearGradient id="aK" x1="439.94" x2="439.95" y1="107.66" y2="122.44" gradientUnits="userSpaceOnUse"><stop stop-color="#ffcc3f"/><stop offset="1" stop-color="#a01326"/></linearGradient><linearGradient id="aL" x1="419.09" x2="419.09" y1="123.31" y2="148.73" gradientUnits="userSpaceOnUse"><stop stop-color="#ffcc3f"/><stop offset="1" stop-color="#a01326"/></linearGradient><linearGradient id="aM" x1="422.8" x2="422.8" y1="128.23" y2="154.34" gradientUnits="userSpaceOnUse"><stop stop-color="#ffcc3f"/><stop offset="1" stop-color="#a01326"/></linearGradient><linearGradient id="aN" x1="463.54" x2="816.9" y1="442.42" y2="796.6" gradientUnits="userSpaceOnUse"><stop stop-color="#fcf0d6"/><stop offset="1" stop-color="#ffc446"/></linearGradient><linearGradient id="aR" x1="368.34" x2="647.21" y1="482.52" y2="691.1" gradientUnits="userSpaceOnUse"><stop stop-color="#fcf0d6"/><stop offset="1" stop-color="#ffc446"/></linearGradient><linearGradient id="aT" x1="130.86" x2="305.66" y1="593.11" y2="739.09" gradientUnits="userSpaceOnUse"><stop stop-color="#fcf0d6"/><stop offset="1" stop-color="#ffc446"/></linearGradient><filter id="aP" width="512.99" height="289.12" x="293.79" y="482.4" color-interpolation-filters="sRGB" filterUnits="userSpaceOnUse"><feFlood flood-opacity="0" result="BackgroundImageFix"/><feBlend in="SourceGraphic" in2="BackgroundImageFix" result="shape"/><feColorMatrix in="SourceAlpha" result="hardAlpha" values="0 0 0 0 0 0 0 0 0 0 0 0 0 0 0 0 0 0 127 0"/><feOffset dx="-1.44" dy="-.72"/><feComposite in2="hardAlpha" k2="-1" k3="1" operator="arithmetic"/><feColorMatrix values="0 0 0 0 0 0 0 0 0 0 0 0 0 0 0 0 0 0 0.57 0"/><feBlend in2="shape" mode="overlay" result="effect1_innerShadow_24_8528"/><feColorMatrix in="SourceAlpha" result="hardAlpha" values="0 0 0 0 0 0 0 0 0 0 0 0 0 0 0 0 0 0 127 0"/><feOffset dx=".9" dy=".54"/><feGaussianBlur stdDeviation=".43"/><feComposite in2="hardAlpha" k2="-1" k3="1" operator="arithmetic"/><feColorMatrix values="0 0 0 0 1 0 0 0 0 1 0 0 0 0 1 0 0 0 0.85 0"/><feBlend in2="effect1_innerShadow_24_8528" mode="overlay" result="effect2_innerShadow_24_8528"/></filter><filter id="aU" width="602.3" height="246.54" x="20.62" y="524" color-interpolation-filters="sRGB" filterUnits="userSpaceOnUse"><feFlood flood-opacity="0" result="BackgroundImageFix"/><feBlend in="SourceGraphic" in2="BackgroundImageFix" result="shape"/><feColorMatrix in="SourceAlpha" result="hardAlpha" values="0 0 0 0 0 0 0 0 0 0 0 0 0 0 0 0 0 0 127 0"/><feOffset dx="-1.44" dy="-.72"/><feComposite in2="hardAlpha" k2="-1" k3="1" operator="arithmetic"/><feColorMatrix values="0 0 0 0 0 0 0 0 0 0 0 0 0 0 0 0 0 0 0.57 0"/><feBlend in2="shape" mode="overlay" result="effect1_innerShadow_24_8528"/><feColorMatrix in="SourceAlpha" result="hardAlpha" values="0 0 0 0 0 0 0 0 0 0 0 0 0 0 0 0 0 0 127 0"/><feOffset dx=".9" dy=".54"/><feGaussianBlur stdDeviation=".43"/><feComposite in2="hardAlpha" k2="-1" k3="1" operator="arithmetic"/><feColorMatrix values="0 0 0 0 1 0 0 0 0 1 0 0 0 0 1 0 0 0 0.85 0"/><feBlend in2="effect1_innerShadow_24_8528" mode="overlay" result="effect2_innerShadow_24_8528"/></filter></defs></svg>