<svg xmlns="http://www.w3.org/2000/svg" width="79" height="883" fill="none" xmlns:v="https://vecta.io/nano"><style><![CDATA[.B{fill:#fcedcc}.C{fill:#ffdfa3}.D{stroke:#fb8501}.E{stroke-width:.289}.F{color-interpolation-filters:sRGB}.G{flood-opacity:0}]]></style><g filter="url(#A)"><path d="M30.662 76.027s-15.258-14.694-20.32-28.756c-5.44-15.112-.671-17-1.119-45.504l23.656 5.542L9.222-5.621c-.194-4.938-.541-10.538-1.097-16.933l11.084 2.155-11.084-8.497L5.908-47l21.059 9.975 12.192 14.039s6.038-11.761 12.561-16.625C58.817-44.902 73.148-47 73.148-47L72.04-25.941l-15.517 8.867h17.734s-.909 14.331-1.109 26.231c-.173 10.324 1.109 24.384 1.109 24.384L51.72 44.255l22.537-3.694-1.108 8.128C65.61 61.92 47.287 76.027 47.287 76.027v188.74 526.344s15.61 0 21.568-7.388c4.822-5.979-29.881 97.534-29.881 97.534L9.093 783.723c5.958 7.388 21.568 7.388 21.568 7.388V264.767 76.027z" fill="url(#E)"/></g><g filter="url(#B)"><g filter="url(#C)"><path d="M30.6615 76.0273C30.6615 76.0273 15.4039 61.3335 10.3416 47.2717C4.90119 32.1597 9.67046 30.2716 9.22225 1.76765L32.8782 7.30941L9.22225 -5.62137C9.02782 -10.5597 8.68097 -16.1589 8.12484 -22.5545L19.2086 -20.3994L8.12484 -28.8968L5.90824 -46.9999L26.9671 -37.0247L39.159 -22.9856C39.159 -22.9856 45.1968 -34.7465 51.7203 -39.6109C58.8165 -44.9022 73.1483 -46.9999 73.1483 -46.9999L72.0401 -25.9412L56.5232 -17.0743L74.2569 -17.0743C74.2569 -17.0743 73.3479 -2.74363 73.1483 9.15667C72.9752 19.4811 74.2569 33.5404 74.2569 33.5404L51.7203 44.2545L74.2569 40.56L73.1485 48.6879C65.6097 61.9199 47.2868 76.0273 47.2868 76.0273L47.2868 264.767L47.2867 791.111C47.2867 791.111 62.897 791.111 68.8547 783.723C73.6763 777.744 38.9741 881.257 38.9741 881.257L9.09345 783.723C15.0511 791.111 30.6614 791.111 30.6614 791.111L30.6615 264.767L30.6615 76.0273Z" stroke="url(#F)" stroke-width="2.372" stroke-linejoin="round"/></g></g><g filter="url(#D)"><rect x=".208" y=".001" width="10.126" height="33.763" rx="4.051" transform="matrix(.723712 -.690102 .717256 .69681 24.2191 685.853)" class="B"/><rect x=".208" y=".001" width="10.126" height="33.763" rx="4.051" transform="matrix(.723712 -.690102 .717256 .69681 24.2191 685.853)" class="C"/><rect x=".208" y=".001" width="10.126" height="33.763" rx="4.051" transform="matrix(.723712 -.690102 .717256 .69681 24.2191 685.853)" class="D E"/><rect x=".18" y=".105" width="10.126" height="27.216" rx="4.051" transform="matrix(.27416 .961684 .971459 -.237207 25.2458 692.331)" class="B"/><rect x=".18" y=".105" width="10.126" height="27.216" rx="4.051" transform="matrix(.27416 .961684 .971459 -.237207 25.2458 692.331)" class="C"/><rect x=".18" y=".105" width="10.126" height="27.216" rx="4.051" transform="matrix(.27416 .961684 .971459 -.237207 25.2458 692.331)" class="D E"/><rect x=".208" y=".001" width="10.126" height="33.763" rx="4.051" transform="matrix(.723712 -.690102 .717256 .69681 23.6331 705.264)" class="B"/><rect x=".208" y=".001" width="10.126" height="33.763" rx="4.051" transform="matrix(.723712 -.690102 .717256 .69681 23.6331 705.264)" class="C"/><rect x=".208" y=".001" width="10.126" height="33.763" rx="4.051" transform="matrix(.723712 -.690102 .717256 .69681 23.6331 705.264)" class="D E"/><rect x=".18" y=".105" width="10.126" height="27.216" rx="4.051" transform="matrix(.27416 .961684 .971459 -.237207 24.6579 711.738)" class="B"/><rect x=".18" y=".105" width="10.126" height="27.216" rx="4.051" transform="matrix(.27416 .961684 .971459 -.237207 24.6579 711.738)" class="C"/><rect x=".18" y=".105" width="10.126" height="27.216" rx="4.051" transform="matrix(.27416 .961684 .971459 -.237207 24.6579 711.738)" class="D E"/><rect x=".208" y=".001" width="10.126" height="33.763" rx="4.051" transform="matrix(.723712 -.690102 .717256 .69681 22.9319 724.642)" class="B"/><rect x=".208" y=".001" width="10.126" height="33.763" rx="4.051" transform="matrix(.723712 -.690102 .717256 .69681 22.9319 724.642)" class="C"/><rect x=".208" y=".001" width="10.126" height="33.763" rx="4.051" transform="matrix(.723712 -.690102 .717256 .69681 22.9319 724.642)" class="D E"/><rect x=".18" y=".105" width="10.126" height="27.216" rx="4.051" transform="matrix(.27416 .961684 .971459 -.237207 23.9607 731.115)" class="B"/><rect x=".18" y=".105" width="10.126" height="27.216" rx="4.051" transform="matrix(.27416 .961684 .971459 -.237207 23.9607 731.115)" class="C"/><rect x=".18" y=".105" width="10.126" height="27.216" rx="4.051" transform="matrix(.27416 .961684 .971459 -.237207 23.9607 731.115)" class="D E"/><rect x=".208" y=".001" width="10.126" height="33.763" rx="4.051" transform="matrix(.723712 -.690102 .717256 .69681 23.223 744.28)" class="B"/><rect x=".208" y=".001" width="10.126" height="33.763" rx="4.051" transform="matrix(.723712 -.690102 .717256 .69681 23.223 744.28)" class="C"/><rect x=".208" y=".001" width="10.126" height="33.763" rx="4.051" transform="matrix(.723712 -.690102 .717256 .69681 23.223 744.28)" class="D E"/><rect x=".18" y=".105" width="10.126" height="27.216" rx="4.051" transform="matrix(.27416 .961684 .971459 -.237207 24.2497 750.753)" class="B"/><rect x=".18" y=".105" width="10.126" height="27.216" rx="4.051" transform="matrix(.27416 .961684 .971459 -.237207 24.2497 750.753)" class="C"/><rect x=".18" y=".105" width="10.126" height="27.216" rx="4.051" transform="matrix(.27416 .961684 .971459 -.237207 24.2497 750.753)" class="D E"/><rect x=".208" y=".001" width="10.126" height="33.763" rx="4.051" transform="matrix(.723712 -.690102 .717256 .69681 22.5628 763.666)" class="B"/><rect x=".208" y=".001" width="10.126" height="33.763" rx="4.051" transform="matrix(.723712 -.690102 .717256 .69681 22.5628 763.666)" class="C"/><rect x=".208" y=".001" width="10.126" height="33.763" rx="4.051" transform="matrix(.723712 -.690102 .717256 .69681 22.5628 763.666)" class="D E"/><rect x=".18" y=".105" width="10.126" height="27.216" rx="4.051" transform="matrix(.27416 .961684 .971459 -.237207 23.5544 770.144)" class="B"/><rect x=".18" y=".105" width="10.126" height="27.216" rx="4.051" transform="matrix(.27416 .961684 .971459 -.237207 23.5544 770.144)" class="C"/><rect x=".18" y=".105" width="10.126" height="27.216" rx="4.051" transform="matrix(.27416 .961684 .971459 -.237207 23.5544 770.144)" class="D E"/></g><defs><filter id="A" x="5.908" y="-47" width="68.348" height="929.739" filterUnits="userSpaceOnUse" class="F"><feFlood class="G"/><feBlend in="SourceGraphic" result="B"/><feColorMatrix in="SourceAlpha" values="0 0 0 0 0 0 0 0 0 0 0 0 0 0 0 0 0 0 127 0" result="C"/><feOffset dy="2.075"/><feGaussianBlur stdDeviation=".741"/><feComposite in2="C" operator="arithmetic" k2="-1" k3="1"/><feColorMatrix values="0 0 0 0 1 0 0 0 0 1 0 0 0 0 1 0 0 0 0.49 0"/><feBlend in2="B"/></filter><filter id="B" x="4.723" y="-48.186" width="70.721" height="931.518" filterUnits="userSpaceOnUse" class="F"><feFlood class="G"/><feBlend in="SourceGraphic" result="B"/><feColorMatrix in="SourceAlpha" values="0 0 0 0 0 0 0 0 0 0 0 0 0 0 0 0 0 0 127 0" result="C"/><feOffset dx="-0.296428" dy="-0.889284"/><feComposite in2="C" operator="arithmetic" k2="-1" k3="1"/><feColorMatrix values="0 0 0 0 0.823874 0 0 0 0 0.457802 0 0 0 0 0.0482978 0 0 0 1 0"/><feBlend in2="B" result="D"/><feColorMatrix in="SourceAlpha" values="0 0 0 0 0 0 0 0 0 0 0 0 0 0 0 0 0 0 127 0" result="C"/><feOffset dy="1.18571"/><feGaussianBlur stdDeviation=".445"/><feComposite in2="C" operator="arithmetic" k2="-1" k3="1"/><feColorMatrix values="0 0 0 0 1 0 0 0 0 1 0 0 0 0 1 0 0 0 0.6 0"/><feBlend in2="D"/></filter><filter id="C" x="4.723" y="-48.186" width="70.721" height="931.051" filterUnits="userSpaceOnUse" class="F"><feFlood class="G"/><feBlend in="SourceGraphic" result="B"/><feColorMatrix in="SourceAlpha" values="0 0 0 0 0 0 0 0 0 0 0 0 0 0 0 0 0 0 127 0" result="C"/><feOffset dy="0.421776"/><feGaussianBlur stdDeviation=".815"/><feComposite in2="C" operator="arithmetic" k2="-1" k3="1"/><feColorMatrix values="0 0 0 0 1 0 0 0 0 1 0 0 0 0 1 0 0 0 0.51 0"/><feBlend in2="B" result="D"/><feColorMatrix in="SourceAlpha" values="0 0 0 0 0 0 0 0 0 0 0 0 0 0 0 0 0 0 127 0" result="C"/><feOffset dy="-0.281184"/><feComposite in2="C" operator="arithmetic" k2="-1" k3="1"/><feColorMatrix values="0 0 0 0 0 0 0 0 0 0 0 0 0 0 0 0 0 0 0.25 0"/><feBlend in2="D"/></filter><filter id="D" x="24.277" y="679.988" width="30.076" height="106.446" filterUnits="userSpaceOnUse" class="F"><feFlood class="G"/><feBlend in="SourceGraphic" result="B"/><feColorMatrix in="SourceAlpha" values="0 0 0 0 0 0 0 0 0 0 0 0 0 0 0 0 0 0 127 0" result="C"/><feOffset dy="0.889284"/><feGaussianBlur stdDeviation=".593"/><feComposite in2="C" operator="arithmetic" k2="-1" k3="1"/><feColorMatrix values="0 0 0 0 1 0 0 0 0 1 0 0 0 0 1 0 0 0 1 0"/><feBlend in2="B" result="D"/><feColorMatrix in="SourceAlpha" values="0 0 0 0 0 0 0 0 0 0 0 0 0 0 0 0 0 0 127 0" result="C"/><feOffset dy="-0.592856"/><feGaussianBlur stdDeviation=".119"/><feComposite in2="C" operator="arithmetic" k2="-1" k3="1"/><feColorMatrix values="0 0 0 0 0 0 0 0 0 0 0 0 0 0 0 0 0 0 0.25 0"/><feBlend in2="D"/></filter><linearGradient id="E" x1="-81.1" y1="-251.298" x2="234.994" y2="448.149" gradientUnits="userSpaceOnUse"><stop offset=".203" stop-color="#fcf0d6"/><stop offset=".796" stop-color="#ffc446"/></linearGradient><linearGradient id="F" x1="-84.117" y1="404.709" x2="88.655" y2="404.709" gradientUnits="userSpaceOnUse"><stop stop-color="#ebd9b7"/><stop offset="1" stop-color="#fb8501"/></linearGradient></defs></svg>