<svg xmlns="http://www.w3.org/2000/svg" width="63" height="742" fill="none" xmlns:v="https://vecta.io/nano"><style><![CDATA[.B{fill:#fcedcc}.C{fill:#ffdfa3}.D{stroke:#fb8501}.E{stroke-width:.23}.F{color-interpolation-filters:sRGB}.G{flood-opacity:0}]]></style><g filter="url(#A)"><path d="M38.197 642.146s12.15 11.7 16.181 22.898c4.332 12.033.534 13.537.891 36.235l-18.837-4.413 18.837 10.296c.155 3.933.431 8.391.874 13.484l-8.826-1.716 8.826 6.767 1.765 14.415-16.769-7.943-9.708-11.18s-4.808 9.366-10.003 13.239c-5.651 4.214-17.063 5.884-17.063 5.884l.882-16.769 12.356-7.061H3.482s.724-11.411.883-20.887c.138-8.222-.883-19.417-.883-19.417l17.946-8.532-17.946 2.942.883-6.472c6.003-10.536 20.594-21.77 20.594-21.77V491.853 72.727s-12.43 0-17.174 5.883C3.944 83.372 31.577.944 31.577.944l23.794 77.666c-4.744-5.883-17.175-5.883-17.175-5.883v419.126 150.293z" fill="url(#E)"/></g><g filter="url(#B)"><g filter="url(#C)"><path d="M38.1966 642.146C38.1966 642.146 50.3461 653.846 54.3773 665.044C58.7094 677.077 54.9117 678.581 55.2686 701.279L36.4315 696.866L55.2686 707.162C55.4234 711.095 55.6996 715.553 56.1424 720.646L47.3165 718.93L56.1424 725.697L57.9075 740.112L41.1384 732.169L31.4301 720.989C31.4301 720.989 26.6221 730.355 21.4275 734.228C15.7769 738.442 4.36448 740.112 4.36448 740.112L5.24692 723.343L17.603 716.282L3.48177 716.282C3.48177 716.282 4.20555 704.871 4.36449 695.395C4.50237 687.173 3.48178 675.978 3.48178 675.978L21.4275 667.446L3.48178 670.388L4.36436 663.916C10.3675 653.38 24.958 642.146 24.958 642.146L24.958 491.853L24.958 72.7272C24.958 72.7272 12.5276 72.7272 7.78353 78.6104C3.9441 83.3718 31.5774 0.944244 31.5774 0.944244L55.3712 78.6105C50.6271 72.7272 38.1967 72.7272 38.1967 72.7272L38.1966 491.853L38.1966 642.146Z" stroke="url(#F)" stroke-width="1.889" stroke-linejoin="round"/></g></g><g filter="url(#D)"><rect x="-.166" y="-.001" width="8.063" height="26.885" rx="3.226" transform="matrix(-.723712 .690102 -.717256 -.69681 43.0856 156.772)" class="B"/><rect x="-.166" y="-.001" width="8.063" height="26.885" rx="3.226" transform="matrix(-.723712 .690102 -.717256 -.69681 43.0856 156.772)" class="C"/><rect x="-.166" y="-.001" width="8.063" height="26.885" rx="3.226" transform="matrix(-.723712 .690102 -.717256 -.69681 43.0856 156.772)" class="D E"/><rect x="-.144" y="-.083" width="8.063" height="21.672" rx="3.226" transform="matrix(-.27416 -.961684 -.971459 .237207 42.2666 151.149)" class="B"/><rect x="-.144" y="-.083" width="8.063" height="21.672" rx="3.226" transform="matrix(-.27416 -.961684 -.971459 .237207 42.2666 151.149)" class="C"/><rect x="-.144" y="-.083" width="8.063" height="21.672" rx="3.226" transform="matrix(-.27416 -.961684 -.971459 .237207 42.2666 151.149)" class="D E"/><rect x="-.166" y="-.001" width="8.063" height="26.885" rx="3.226" transform="matrix(-.723712 .690102 -.717256 -.69681 43.5524 141.315)" class="B"/><rect x="-.166" y="-.001" width="8.063" height="26.885" rx="3.226" transform="matrix(-.723712 .690102 -.717256 -.69681 43.5524 141.315)" class="C"/><rect x="-.166" y="-.001" width="8.063" height="26.885" rx="3.226" transform="matrix(-.723712 .690102 -.717256 -.69681 43.5524 141.315)" class="D E"/><rect x="-.144" y="-.083" width="8.063" height="21.672" rx="3.226" transform="matrix(-.27416 -.961684 -.971459 .237207 42.7354 135.695)" class="B"/><rect x="-.144" y="-.083" width="8.063" height="21.672" rx="3.226" transform="matrix(-.27416 -.961684 -.971459 .237207 42.7354 135.695)" class="C"/><rect x="-.144" y="-.083" width="8.063" height="21.672" rx="3.226" transform="matrix(-.27416 -.961684 -.971459 .237207 42.7354 135.695)" class="D E"/><rect x="-.166" y="-.001" width="8.063" height="26.885" rx="3.226" transform="matrix(-.723712 .690102 -.717256 -.69681 44.1091 125.884)" class="B"/><rect x="-.166" y="-.001" width="8.063" height="26.885" rx="3.226" transform="matrix(-.723712 .690102 -.717256 -.69681 44.1091 125.884)" class="C"/><rect x="-.166" y="-.001" width="8.063" height="26.885" rx="3.226" transform="matrix(-.723712 .690102 -.717256 -.69681 44.1091 125.884)" class="D E"/><rect x="-.144" y="-.083" width="8.063" height="21.672" rx="3.226" transform="matrix(-.27416 -.961684 -.971459 .237207 43.292 120.265)" class="B"/><rect x="-.144" y="-.083" width="8.063" height="21.672" rx="3.226" transform="matrix(-.27416 -.961684 -.971459 .237207 43.292 120.265)" class="C"/><rect x="-.144" y="-.083" width="8.063" height="21.672" rx="3.226" transform="matrix(-.27416 -.961684 -.971459 .237207 43.292 120.265)" class="D E"/><rect x="-.166" y="-.001" width="8.063" height="26.885" rx="3.226" transform="matrix(-.723712 .690102 -.717256 -.69681 43.8786 110.247)" class="B"/><rect x="-.166" y="-.001" width="8.063" height="26.885" rx="3.226" transform="matrix(-.723712 .690102 -.717256 -.69681 43.8786 110.247)" class="C"/><rect x="-.166" y="-.001" width="8.063" height="26.885" rx="3.226" transform="matrix(-.723712 .690102 -.717256 -.69681 43.8786 110.247)" class="D E"/><rect x="-.144" y="-.083" width="8.063" height="21.672" rx="3.226" transform="matrix(-.27416 -.961684 -.971459 .237207 43.0616 104.628)" class="B"/><rect x="-.144" y="-.083" width="8.063" height="21.672" rx="3.226" transform="matrix(-.27416 -.961684 -.971459 .237207 43.0616 104.628)" class="C"/><rect x="-.144" y="-.083" width="8.063" height="21.672" rx="3.226" transform="matrix(-.27416 -.961684 -.971459 .237207 43.0616 104.628)" class="D E"/><rect x="-.166" y="-.001" width="8.063" height="26.885" rx="3.226" transform="matrix(-.723712 .690102 -.717256 -.69681 44.4021 94.8098)" class="B"/><rect x="-.166" y="-.001" width="8.063" height="26.885" rx="3.226" transform="matrix(-.723712 .690102 -.717256 -.69681 44.4021 94.8098)" class="C"/><rect x="-.166" y="-.001" width="8.063" height="26.885" rx="3.226" transform="matrix(-.723712 .690102 -.717256 -.69681 44.4021 94.8098)" class="D E"/><rect x="-.144" y="-.083" width="8.063" height="21.672" rx="3.226" transform="matrix(-.27416 -.961684 -.971459 .237207 43.6143 89.1868)" class="B"/><rect x="-.144" y="-.083" width="8.063" height="21.672" rx="3.226" transform="matrix(-.27416 -.961684 -.971459 .237207 43.6143 89.1868)" class="C"/><rect x="-.144" y="-.083" width="8.063" height="21.672" rx="3.226" transform="matrix(-.27416 -.961684 -.971459 .237207 43.6143 89.1868)" class="D E"/></g><defs><filter id="A" x="3.482" y=".944" width="54.426" height="740.348" filterUnits="userSpaceOnUse" class="F"><feFlood class="G"/><feBlend in="SourceGraphic" result="B"/><feColorMatrix in="SourceAlpha" values="0 0 0 0 0 0 0 0 0 0 0 0 0 0 0 0 0 0 127 0" result="C"/><feOffset dy="1.65231"/><feGaussianBlur stdDeviation=".59"/><feComposite in2="C" operator="arithmetic" k2="-1" k3="1"/><feColorMatrix values="0 0 0 0 1 0 0 0 0 1 0 0 0 0 1 0 0 0 0.49 0"/><feBlend in2="B"/></filter><filter id="B" x="2.538" y="0" width="56.315" height="741.764" filterUnits="userSpaceOnUse" class="F"><feFlood class="G"/><feBlend in="SourceGraphic" result="B"/><feColorMatrix in="SourceAlpha" values="0 0 0 0 0 0 0 0 0 0 0 0 0 0 0 0 0 0 127 0" result="C"/><feOffset dx="-0.236044" dy="-0.708133"/><feComposite in2="C" operator="arithmetic" k2="-1" k3="1"/><feColorMatrix values="0 0 0 0 0.823874 0 0 0 0 0.457802 0 0 0 0 0.0482978 0 0 0 1 0"/><feBlend in2="B" result="D"/><feColorMatrix in="SourceAlpha" values="0 0 0 0 0 0 0 0 0 0 0 0 0 0 0 0 0 0 127 0" result="C"/><feOffset dy="0.944178"/><feGaussianBlur stdDeviation=".354"/><feComposite in2="C" operator="arithmetic" k2="-1" k3="1"/><feColorMatrix values="0 0 0 0 1 0 0 0 0 1 0 0 0 0 1 0 0 0 0.6 0"/><feBlend in2="D"/></filter><filter id="C" x="2.538" y="0" width="56.315" height="741.392" filterUnits="userSpaceOnUse" class="F"><feFlood class="G"/><feBlend in="SourceGraphic" result="B"/><feColorMatrix in="SourceAlpha" values="0 0 0 0 0 0 0 0 0 0 0 0 0 0 0 0 0 0 127 0" result="C"/><feOffset dy="0.335859"/><feGaussianBlur stdDeviation=".649"/><feComposite in2="C" operator="arithmetic" k2="-1" k3="1"/><feColorMatrix values="0 0 0 0 1 0 0 0 0 1 0 0 0 0 1 0 0 0 0.51 0"/><feBlend in2="B" result="D"/><feColorMatrix in="SourceAlpha" values="0 0 0 0 0 0 0 0 0 0 0 0 0 0 0 0 0 0 127 0" result="C"/><feOffset dy="-0.223906"/><feComposite in2="C" operator="arithmetic" k2="-1" k3="1"/><feColorMatrix values="0 0 0 0 0 0 0 0 0 0 0 0 0 0 0 0 0 0 0.25 0"/><feBlend in2="D"/></filter><filter id="D" x="19.331" y="76.971" width="23.947" height="84.763" filterUnits="userSpaceOnUse" class="F"><feFlood class="G"/><feBlend in="SourceGraphic" result="B"/><feColorMatrix in="SourceAlpha" values="0 0 0 0 0 0 0 0 0 0 0 0 0 0 0 0 0 0 127 0" result="C"/><feOffset dy="0.708133"/><feGaussianBlur stdDeviation=".472"/><feComposite in2="C" operator="arithmetic" k2="-1" k3="1"/><feColorMatrix values="0 0 0 0 1 0 0 0 0 1 0 0 0 0 1 0 0 0 1 0"/><feBlend in2="B" result="D"/><feColorMatrix in="SourceAlpha" values="0 0 0 0 0 0 0 0 0 0 0 0 0 0 0 0 0 0 127 0" result="C"/><feOffset dy="-0.472089"/><feGaussianBlur stdDeviation=".094"/><feComposite in2="C" operator="arithmetic" k2="-1" k3="1"/><feColorMatrix values="0 0 0 0 0 0 0 0 0 0 0 0 0 0 0 0 0 0 0.25 0"/><feBlend in2="D"/></filter><linearGradient id="E" x1="127.192" y1="902.794" x2="-124.513" y2="345.826" gradientUnits="userSpaceOnUse"><stop offset=".203" stop-color="#fcf0d6"/><stop offset=".796" stop-color="#ffc446"/></linearGradient><linearGradient id="F" x1="129.595" y1="380.418" x2="-7.984" y2="380.418" gradientUnits="userSpaceOnUse"><stop stop-color="#ebd9b7"/><stop offset="1" stop-color="#fb8501"/></linearGradient></defs></svg>