<svg xmlns="http://www.w3.org/2000/svg" width="860" height="1529" fill="none" xmlns:v="https://vecta.io/nano"><style><![CDATA[.B{stroke-width:3.185}.C{fill-opacity:.48}.D{fill-rule:evenodd}.E{stroke-width:4.727}.F{stroke-width:2.363}]]></style><g clip-path="url(#Z)"><path fill="#fff8d9" d="M0 0h860v1528.89H0z"/><g opacity=".35"><g opacity=".6"><g class="D"><path d="M711.708 988.584c-11.886-11.886-31.668-11.376-31.668-11.376s-.51 19.782 11.376 31.672c10.864 10.86 28.325 11.37 31.247 11.37-2.922.01-20.383.52-31.247 11.38-11.886 11.89-11.376 31.67-11.376 31.67s19.782.51 31.668-11.37c11.886-11.89 11.376-31.67 11.376-31.67s-.102-.01-.296-.01h.296s.51-19.78-11.376-31.666z" fill="url(#D)"/><path d="M765.436 1063.15s-19.778.63-31.732-11.19-11.559-31.6-11.559-31.6.102-.01.295-.01h-.195-.1s-.625-19.78 11.192-31.733 31.601-11.558 31.601-11.558.625 19.778-11.192 31.731c-10.801 10.93-28.258 11.54-31.18 11.56 2.922-.01 20.385.4 31.312 11.2 11.954 11.82 11.558 31.6 11.558 31.6z" fill="url(#E)"/><path d="M626.505 1074.58c-11.886-11.88-31.668-11.37-31.668-11.37s-.51 19.78 11.376 31.67c10.864 10.86 28.324 11.37 31.247 11.37-2.923.01-20.383.52-31.247 11.38-11.886 11.89-11.376 31.67-11.376 31.67s19.782.51 31.668-11.37c11.886-11.89 11.376-31.67 11.376-31.67s-.103 0-.296-.01h.296s.51-19.78-11.376-31.67z" fill="url(#F)"/><path d="M680.229 1149.15s-19.778.63-31.732-11.19-11.559-31.6-11.559-31.6.102-.01.295-.01h-.195-.1s-.625-19.78 11.192-31.73c11.817-11.96 31.601-11.56 31.601-11.56s.625 19.78-11.192 31.73c-10.801 10.93-28.258 11.54-31.18 11.56 2.922-.01 20.385.4 31.312 11.2 11.954 11.82 11.558 31.6 11.558 31.6z" fill="url(#G)"/><path d="M626.503 1160.59c-11.886-11.89-31.668-11.38-31.668-11.38s-.51 19.78 11.376 31.67c10.864 10.86 28.324 11.37 31.247 11.38-2.923.01-20.383.51-31.247 11.38-11.886 11.88-11.376 31.67-11.376 31.67s19.782.51 31.668-11.38 11.376-31.67 11.376-31.67h-.296.296s.51-19.79-11.376-31.67z" fill="url(#H)"/></g><path d="M508.837 1063.06s19.782-.51 31.668 11.37c11.886 11.89 11.329 31.63 11.329 31.63-2.922-.01-20.757-.47-31.621-11.33-11.886-11.89-11.376-31.67-11.376-31.67z" fill="url(#I)"/><g class="D"><path d="M563.212 1074.43c11.886-11.88 31.668-11.37 31.668-11.37s.51 19.78-11.376 31.67c-10.864 10.86-28.325 11.37-31.247 11.38 2.922 0 20.383.51 31.247 11.37 11.886 11.89 11.376 31.67 11.376 31.67s-19.782.51-31.668-11.37c-11.886-11.89-11.376-31.67-11.376-31.67h.296c-.194-.01-.296-.01-.296-.01s-.51-19.78 11.376-31.67z" fill="url(#J)"/><path d="M776.62 1031.43c11.886-11.88 31.668-11.37 31.668-11.37s.51 19.78-11.376 31.67c-10.864 10.86-28.324 11.37-31.247 11.38 2.923 0 20.383.51 31.247 11.37 11.886 11.89 11.376 31.67 11.376 31.67s-19.782.51-31.668-11.37c-11.886-11.89-11.376-31.67-11.376-31.67h.296c-.193-.01-.296-.01-.296-.01s-.51-19.78 11.376-31.67z" fill="url(#K)"/><path d="M723.579 1192.15s-19.778.63-31.733-11.19-11.559-31.6-11.559-31.6.102-.01.296-.01h-.196-.1s-.624-19.78 11.193-31.73c11.817-11.96 31.601-11.56 31.601-11.56s.625 19.78-11.193 31.73c-10.801 10.93-28.258 11.54-31.18 11.56 2.923-.01 20.385.4 31.312 11.2 11.955 11.82 11.559 31.6 11.559 31.6z" fill="url(#L)"/></g></g><g filter="url(#C)" class="B"><use href="#a" stroke="url(#M)"/><use href="#b" stroke="url(#N)"/><use href="#c" stroke="url(#O)"/><use href="#d" stroke="url(#P)"/><use href="#e" stroke="url(#Q)"/><use href="#f" stroke="url(#R)"/><use href="#g" stroke="url(#S)"/><use href="#h" stroke="url(#T)"/><use href="#i" stroke="url(#U)"/></g><g filter="url(#C)" class="B"><use href="#a" stroke="url(#M)"/><use href="#b" stroke="url(#N)"/><use href="#c" stroke="url(#O)"/><use href="#d" stroke="url(#P)"/><use href="#e" stroke="url(#Q)"/><use href="#f" stroke="url(#R)"/><use href="#g" stroke="url(#S)"/><use href="#h" stroke="url(#T)"/><use href="#i" stroke="url(#U)"/></g></g><g opacity=".5"><mask id="A" fill="#fff"><path d="M610.615 220.361c-4.249-1.755-8.881-1.314-13.392-.785 1.582-.631 3.107-1.346 4.6-2.041l1.971-.913c5.825-2.641 11.548-4.842 17.43-2.807 6.897 2.386 12.984 8.096 17.514 12.798.165.172.293.377.433.574.268.383.6.862 1.072 1.296 8.517 7.802 25.526 16.135 37.444 7.126 3.873-2.928 6.655-6.935 8.951-10.463 6.955-10.661 15.178-19.963 28.162-15.893.306.096.625.249.995.428.427.204.855.408 1.308.568.185.063.421.159.695.268 1.653.657 2.922 1.11 4 .957.728-.103 1.347-.587 1.621-1.27.88-2.163-1.04-3.879-2.067-4.798-.166-.147-.319-.281-.421-.389-.632-.689-1.327-1.225-2.004-1.748-.778-.606-1.518-1.18-1.945-1.844-4.543-7.082-4.658-14.074-.326-20.212 6.661-9.455 22.764-15.018 35.16-12.147 6.029 1.391 13.583 5.308 15.312 16.039l1.27 7.886a2.06 2.06 0 0 0 2.36 1.716 2.07 2.07 0 0 0 1.729-2.348c-1.001-6.756-2.137-14.412.134-21.143 1.449-4.287 4.396-8.537 9.028-12.983 16.639-15.995 41.834-22.598 64.176-16.818 10.508 2.718 19.108 8.313 27.07 17.602 5.124 5.978 11.293 14.049 13.539 23.428 3.254 13.627-2.418 29.073-14.119 38.439-10.948 8.766-26.413 12.026-41.361 8.721-4.256-.937-8.097-2.36-11.453-4.172-1.875-1.614-3.955-3.094-6.265-4.396-.465-.427-.931-.855-1.365-1.301-9.525-9.972-8.128-25.858-1.378-34.854 5.972-7.943 14.808-9.679 24.257-4.76 2.941 1.532 6.392 4.817 7.005 8.403.319 1.876-.211 3.522-1.621 5.034a2.07 2.07 0 0 0 .102 2.922 2.07 2.07 0 0 0 2.922-.102c2.291-2.45 3.216-5.411 2.674-8.556-.862-5.002-5.226-9.321-9.175-11.376-11.26-5.856-22.279-3.636-29.475 5.947-6.712 8.938-8.773 23.816-2.106 35.141-6.418-1.985-14.01-2.731-22.84-1.595-9.13 1.167-21.303 6.609-25.584 18.087-4.593 12.313 2.833 25.22 12.154 31.115 6.144 3.885 14.789 4.798 21.022 2.233 4.753-1.959 7.867-5.653 9.015-10.674 1.78-7.809-2.852-15.848-10.125-17.551-4.013-.938-7.777-.364-10.074 1.537-1.225 1.015-2.648 2.91-2.501 6.189.089 2.029 1.257 4.045 3.05 5.251 1.646 1.11 3.579 1.403 5.302.791a2.07 2.07 0 0 0 1.263-2.641c-.383-1.079-1.563-1.64-2.642-1.264-.676.236-1.352-.146-1.614-.325-.714-.485-1.199-1.27-1.231-2.003-.057-1.289.274-2.208 1.008-2.82 1.263-1.053 3.809-1.327 6.482-.696 5.627 1.321 8.179 7.58 7.031 12.601-.849 3.707-3.056 6.322-6.559 7.771-5.066 2.092-12.154 1.307-17.232-1.902-7.943-5.021-14.317-15.905-10.489-26.17 3.637-9.749 14.247-14.406 22.234-15.427 11.701-1.499 21.016.549 28.079 4.428 1.824 1.607 3.904 3.03 6.169 4.3 4.039 3.528 6.942 7.713 8.728 11.943 5.563 13.111 2.163 31.083-7.088 43.779a1.97 1.97 0 0 0-.523.249c-.555.377-.862.97-.894 1.589-2.271 2.807-4.842 5.314-7.687 7.382-12.314 8.944-32.609 11.024-45.247 4.631-8.856-4.478-16.231-12.632-20.946-23.102 2.278-.701 4.339-1.684 6.119-2.928 4.415-3.094 7.171-8.026 7.184-12.862 0-1.142-.919-2.073-2.061-2.073h-.007c-1.142 0-2.067.925-2.067 2.06-.012 3.516-2.092 7.146-5.423 9.487-2.941 2.067-6.916 3.248-11.484 3.426-9.812.389-18.904-3.751-28.652-12.989-.83-.785-2.137-.753-2.922.076s-.753 2.138.076 2.929c10.036 9.512 19.97 14.15 30.318 14.15a31.52 31.52 0 0 0 1.34-.025 32.25 32.25 0 0 0 3.298-.306c1.5 6.833-5.41 13.461-10.035 16.454-7.612 4.925-18.145 5.754-27.498 2.156-8.639-3.324-16.122-10.993-21.111-21.603 3.145-3.547 4.453-8.294 3.961-12.402-.631-5.302-4.453-11.038-13.289-11.235-1.078-.026-4.868.14-7.803 3.285-2.418 2.591-3.419 6.297-2.979 11.012a2.09 2.09 0 0 0 2.252 1.87c1.136-.109 1.978-1.117 1.869-2.253-.325-3.489.313-6.112 1.882-7.802 1.404-1.5 3.363-1.997 4.683-1.972 7.58.173 9.015 5.366 9.277 7.586.587 4.919-2.476 10.974-8.607 12.601-7.981 2.118-20.671-.709-26.126-8.148-1.282-1.748-1.065-3.139-.733-5.25.267-1.704.567-3.637-.02-5.902-1.435-5.538-6.437-5.263-9.416-5.098-.977.058-1.876.052-2.916.115-.734.045-1.57.096-2.023-.044-4.115-1.225-5.142-5.206-6.239-11.14-.287-1.557-.555-3.024-.944-4.415-1.742-6.297-5.998-10.878-12.646-13.621l.02-.019z"/></mask><path d="M610.615 220.361C606.366 218.606 601.734 219.047 597.223 219.576C598.805 218.945 600.33 218.23 601.823 217.535C602.48 217.228 603.137 216.922 603.794 216.622C609.619 213.981 615.342 211.78 621.224 213.815C628.121 216.201 634.208 221.911 638.738 226.613C638.903 226.785 639.031 226.99 639.171 227.187C639.439 227.57 639.771 228.049 640.243 228.483C648.76 236.285 665.769 244.618 677.687 235.609C681.56 232.681 684.342 228.674 686.638 225.146C693.593 214.485 701.816 205.183 714.8 209.253C715.106 209.349 715.425 209.502 715.795 209.681C716.222 209.885 716.65 210.089 717.103 210.249C717.288 210.312 717.524 210.408 717.798 210.517C719.451 211.174 720.72 211.627 721.798 211.474C722.526 211.371 723.145 210.887 723.419 210.204C724.299 208.041 722.379 206.325 721.352 205.406C721.186 205.259 721.033 205.125 720.931 205.017C720.299 204.328 719.604 203.792 718.927 203.269C718.149 202.663 717.409 202.089 716.982 201.425C712.439 194.343 712.324 187.351 716.656 181.213C723.317 171.758 739.42 166.195 751.816 169.066C757.845 170.457 765.399 174.374 767.128 185.105L768.398 192.991C768.576 194.114 769.623 194.886 770.758 194.707C771.881 194.535 772.653 193.482 772.487 192.359C771.486 185.603 770.35 177.947 772.621 171.216C774.07 166.929 777.017 162.679 781.649 158.233C798.288 142.238 823.483 135.635 845.825 141.415C856.333 144.133 864.933 149.728 872.895 159.017C878.019 164.995 884.188 173.066 886.434 182.445C889.688 196.072 884.016 211.518 872.315 220.884C861.367 229.65 845.902 232.91 830.954 229.605C826.698 228.668 822.857 227.245 819.501 225.433C817.626 223.819 815.546 222.339 813.236 221.037C812.771 220.61 812.305 220.182 811.871 219.736C802.346 209.764 803.743 193.878 810.493 184.882C816.465 176.939 825.301 175.203 834.75 180.122C837.691 181.654 841.142 184.939 841.755 188.525C842.074 190.401 841.544 192.047 840.134 193.559C839.356 194.394 839.401 195.702 840.236 196.481C841.072 197.259 842.38 197.214 843.158 196.379C845.449 193.929 846.374 190.968 845.832 187.823C844.97 182.821 840.606 178.502 836.657 176.447C825.397 170.591 814.378 172.811 807.182 182.394C800.47 191.332 798.409 206.21 805.076 217.535C798.658 215.55 791.066 214.804 782.236 215.94C773.106 217.107 760.933 222.549 756.652 234.027C752.059 246.34 759.485 259.247 768.806 265.142C774.95 269.027 783.595 269.94 789.828 267.375C794.581 265.416 797.695 261.722 798.843 256.701C800.623 248.892 795.991 240.853 788.718 239.15C784.705 238.212 780.941 238.786 778.644 240.687C777.419 241.702 775.996 243.597 776.143 246.876C776.232 248.905 777.4 250.921 779.193 252.127C780.839 253.237 782.772 253.53 784.495 252.918C785.573 252.535 786.141 251.355 785.758 250.277C785.375 249.198 784.195 248.637 783.116 249.013C782.44 249.249 781.764 248.867 781.502 248.688C780.788 248.203 780.303 247.418 780.271 246.685C780.214 245.396 780.545 244.477 781.279 243.865C782.542 242.812 785.088 242.538 787.761 243.169C793.388 244.49 795.94 250.749 794.792 255.77C793.943 259.477 791.736 262.092 788.233 263.541C783.167 265.633 776.079 264.848 771.001 261.639C763.058 256.618 756.684 245.734 760.512 235.469C764.149 225.72 774.759 221.063 782.746 220.042C794.447 218.543 803.762 220.591 810.825 224.47C812.649 226.077 814.729 227.5 816.994 228.77C821.033 232.298 823.936 236.483 825.722 240.713C831.285 253.824 827.885 271.796 818.634 284.492C818.455 284.55 818.277 284.626 818.111 284.741C817.556 285.118 817.249 285.711 817.217 286.33C814.946 289.137 812.375 291.644 809.53 293.712C797.216 302.656 776.921 304.736 764.283 298.343C755.427 293.865 748.052 285.711 743.337 275.241C745.615 274.54 747.676 273.557 749.456 272.313C753.871 269.219 756.627 264.287 756.64 259.451C756.64 258.309 755.721 257.378 754.579 257.378H754.572C753.43 257.378 752.505 258.303 752.505 259.438C752.493 262.954 750.413 266.584 747.082 268.925C744.141 270.992 740.166 272.173 735.598 272.351C725.786 272.74 716.694 268.6 706.946 259.362C706.116 258.577 704.809 258.609 704.024 259.438C703.239 260.268 703.271 261.576 704.1 262.367C714.136 271.879 724.07 276.517 734.418 276.517C734.865 276.517 735.311 276.511 735.758 276.492C736.894 276.447 737.984 276.339 739.056 276.186C740.556 283.019 733.646 289.647 729.021 292.64C721.409 297.565 710.876 298.394 701.523 294.796C692.884 291.472 685.401 283.803 680.412 273.193C683.557 269.646 684.865 264.899 684.373 260.791C683.742 255.489 679.92 249.753 671.084 249.556C670.006 249.53 666.216 249.696 663.281 252.841C660.863 255.432 659.862 259.138 660.302 263.853C660.41 264.989 661.438 265.825 662.554 265.723C663.69 265.614 664.532 264.606 664.423 263.47C664.098 259.981 664.736 257.358 666.305 255.668C667.709 254.168 669.668 253.671 670.988 253.696C678.568 253.869 680.003 259.062 680.265 261.282C680.852 266.201 677.789 272.256 671.658 273.883C663.677 276.001 650.987 273.174 645.532 265.735C644.25 263.987 644.467 262.596 644.799 260.485C645.066 258.781 645.366 256.848 644.779 254.583C643.344 249.045 638.342 249.32 635.363 249.485C634.386 249.543 633.487 249.537 632.447 249.6C631.713 249.645 630.877 249.696 630.424 249.556C626.309 248.331 625.282 244.35 624.185 238.416C623.898 236.859 623.63 235.392 623.241 234.001C621.499 227.704 617.243 223.123 610.595 220.38L610.615 220.361Z" fill="url(#V)" stroke="url(#V)" mask="url(#A)" class="C E"/><path d="M889.767 205.583C886.931 213.017 882.107 219.848 875.636 225.023C863.419 234.805 846.28 238.429 829.804 234.786L829.801 234.785C829.386 234.692 828.976 234.592 828.569 234.491C829.197 235.572 829.763 236.666 830.264 237.765L830.643 238.625C836.909 253.409 833.488 272.74 823.593 286.779C826.874 290.877 831.111 294.236 835.681 295.854C840.461 297.547 845.617 297.349 850.569 294.074H850.568C851.84 293.231 853.106 292.291 854.138 291.442C854.957 290.767 855.571 290.196 855.934 289.799C855.936 288.9 856.308 288.004 857.039 287.363L857.041 287.362C858.389 286.184 860.441 286.308 861.627 287.661C862.341 288.472 863.029 289.275 863.694 290.063C867.484 294.512 870.578 298.12 876.021 300.345H876.021C881.349 302.524 887.685 303.177 893.379 302.139H893.378C902.242 300.52 907.051 296.328 914.006 290.222L914.007 290.22L916.699 287.873C917.74 286.973 918.851 285.899 920.032 284.724C915.473 286.973 910.71 288.886 905.713 289.617V289.618C903.581 289.933 901.456 290.083 899.358 290.083C890.094 290.083 881.276 287.11 874.848 281.611L874.233 281.071C872.898 279.865 872.801 277.81 874.001 276.48C875.168 275.186 877.134 275.055 878.465 276.139L878.592 276.247C884.981 282.009 894.748 284.654 904.776 283.191C911.213 282.251 917.63 278.768 924.069 275.252C932.314 270.751 941.139 265.92 950.846 266.424C952.414 266.426 954.024 266.566 955.692 266.885L955.694 266.886C956.208 266.985 956.667 267.202 957.053 267.498C958.085 267.801 959.141 268.149 960.223 268.612C964.442 270.407 968.254 272.905 971.849 275.248L971.85 275.249C978.646 279.692 984.701 283.595 992.51 283.155C996.768 282.914 999.814 281.523 1002.27 279.219C1004.61 277.023 1006.47 273.944 1008.28 270.043L1008.64 269.251C1009.45 267.452 1010.62 264.835 1012.36 262.406C1013.48 260.834 1014.86 259.303 1016.56 258.108C1015.74 258.03 1014.86 258.006 1013.85 258.036C1012.83 258.067 1011.88 258.435 1010.52 258.98V258.979C1009.98 259.199 1009.38 259.44 1008.76 259.65V259.651C1007.28 260.161 1005.97 260.746 1004.65 261.33C1001.35 262.797 998.017 264.285 992.989 264L992.497 263.967C989.468 263.731 986.06 263.373 982.948 261.81C976.736 258.69 973.077 253.244 969.715 248.28C967.025 244.31 964.613 240.777 961.238 238.29L961.239 238.289C953.39 232.513 942.128 232.223 934.181 237.454C934.348 239.54 934.321 241.642 934.043 243.731L933.977 244.196C933 250.699 929.574 256.787 924.531 261.007L924.038 261.41C919.224 265.245 911.978 267.256 904.985 267.256C900.861 267.256 896.744 266.561 893.195 265.065L893.196 265.064C886.888 262.407 882.899 257.471 882.044 251.123L881.971 250.505C881.038 241.259 887.588 235.064 893.947 233.201H893.948C901.26 231.062 908.271 234.112 911.724 240.92H911.725C912.536 242.524 911.894 244.479 910.291 245.29V245.289C908.693 246.102 906.733 245.459 905.922 243.858C904.689 241.424 902.986 240.109 901.218 239.494C899.423 238.871 897.478 238.943 895.773 239.443H895.772C891.774 240.613 887.885 244.39 888.438 249.853C888.867 254.099 891.24 257.19 895.714 259.072C899.351 260.602 903.986 261.076 908.475 260.562C912.97 260.047 917.17 258.56 919.982 256.321C924.017 253.106 926.772 248.328 927.538 243.225H927.537C928.367 237.68 927.053 231.831 924.5 226.538C921.948 221.247 918.196 216.595 914.277 213.463C908.321 208.704 899.678 205.911 889.767 205.583Z" fill="url(#W)" stroke="url(#W)" class="C F"/></g><g opacity=".5"><mask id="B" fill="#fff"><path d="M-48.026 472.757c-2.953-1.219-6.171-.913-9.306-.545l3.197-1.419 1.37-.634c4.048-1.835 8.025-3.365 12.112-1.95 4.793 1.658 9.022 5.626 12.17 8.893.115.12.204.262.302.399.186.266.417.599.745.9 5.919 5.423 17.739 11.213 26.02 4.953 2.691-2.035 4.624-4.82 6.22-7.271 4.833-7.409 10.547-13.873 19.57-11.044.213.066.434.173.692.297.297.142.594.283.909.394.129.045.293.111.483.186 1.148.457 2.031.772 2.78.665.505-.07.935-.407 1.126-.882.612-1.503-.723-2.695-1.436-3.334-.115-.102-.222-.195-.293-.27-.439-.479-.922-.852-1.392-1.215-.541-.421-1.055-.82-1.352-1.281-3.157-4.922-3.236-9.781-.226-14.046 4.629-6.57 15.819-10.436 24.433-8.441 4.19.966 9.439 3.688 10.641 11.146l.882 5.48a1.43 1.43 0 0 0 1.64 1.192 1.44 1.44 0 0 0 1.201-1.631c-.696-4.696-1.485-10.016.093-14.693 1.006-2.98 3.055-5.932 6.273-9.022 11.563-11.115 29.071-15.704 44.597-11.687 7.302 1.888 13.278 5.777 18.811 12.232 3.561 4.154 7.848 9.763 9.408 16.28 2.262 9.47-1.68 20.204-9.811 26.712-7.608 6.092-18.355 8.357-28.743 6.061-2.957-.652-5.626-1.641-7.958-2.9-1.303-1.122-2.749-2.15-4.354-3.055-.324-.297-.647-.594-.949-.904-6.619-6.93-5.648-17.969-.958-24.221 4.15-5.519 10.29-6.725 16.856-3.307 2.044 1.064 4.443 3.347 4.868 5.839.222 1.303-.146 2.447-1.126 3.498-.541.581-.51 1.49.071 2.031s1.49.51 2.031-.071c1.591-1.703 2.234-3.76 1.857-5.946-.598-3.476-3.631-6.477-6.375-7.905-7.825-4.07-15.482-2.527-20.483 4.132-4.664 6.212-6.096 16.551-1.463 24.42-4.46-1.378-9.736-1.897-15.872-1.108-6.344.811-14.804 4.593-17.778 12.569-3.192 8.557 1.969 17.526 8.446 21.622 4.27 2.7 10.277 3.334 14.609 1.552 3.303-1.361 5.467-3.928 6.265-7.417 1.237-5.427-1.982-11.013-7.036-12.197-2.789-.652-5.404-.253-7.001 1.069-.851.705-1.84 2.021-1.738 4.3.062 1.41.873 2.811 2.119 3.649 1.144.771 2.487.975 3.684.55a1.44 1.44 0 0 0 .878-1.836c-.266-.749-1.086-1.139-1.835-.878-.47.164-.94-.102-1.122-.226-.497-.337-.834-.882-.856-1.392-.04-.895.191-1.534.701-1.959.878-.732 2.647-.923 4.504-.484 3.91.918 5.684 5.267 4.886 8.757-.59 2.575-2.124 4.393-4.558 5.4-3.52 1.454-8.446.908-11.975-1.322-5.52-3.489-9.949-11.052-7.289-18.186 2.527-6.774 9.9-10.011 15.451-10.72 8.131-1.042 14.604.381 19.512 3.077 1.268 1.117 2.713 2.106 4.287 2.988 2.806 2.452 4.823 5.36 6.065 8.299 3.866 9.111 1.503 21.601-4.926 30.423a1.36 1.36 0 0 0-.364.173c-.386.262-.599.674-.621 1.104-1.578 1.951-3.365 3.693-5.342 5.13-8.557 6.216-22.66 7.661-31.443 3.219-6.154-3.113-11.279-8.779-14.555-16.054 1.583-.488 3.015-1.171 4.252-2.035 3.068-2.151 4.983-5.578 4.992-8.938 0-.794-.638-1.441-1.432-1.441h-.004c-.794 0-1.437.643-1.437 1.432-.009 2.443-1.454 4.965-3.768 6.593-2.044 1.436-4.806 2.256-7.98 2.38-6.819.271-13.137-2.607-19.911-9.026-.576-.546-1.485-.524-2.031.053a1.44 1.44 0 0 0 .053 2.035c6.974 6.61 13.877 9.833 21.068 9.833.31 0 .621-.004.931-.017.789-.031 1.547-.107 2.292-.213 1.042 4.748-3.76 9.355-6.974 11.434-5.289 3.423-12.609 3.999-19.108 1.499-6.003-2.31-11.204-7.639-14.671-15.012 2.186-2.466 3.095-5.764 2.753-8.619-.439-3.685-3.095-7.67-9.235-7.808-.749-.017-3.383.098-5.422 2.284-1.68 1.8-2.376 4.375-2.07 7.652a1.45 1.45 0 0 0 1.565 1.299 1.44 1.44 0 0 0 1.299-1.565c-.226-2.425.217-4.247 1.308-5.422.975-1.042 2.336-1.388 3.254-1.37 5.267.119 6.265 3.728 6.446 5.271.408 3.418-1.72 7.626-5.981 8.756-5.546 1.472-14.365-.492-18.155-5.661-.891-1.215-.74-2.182-.51-3.649.186-1.184.395-2.527-.013-4.101-.997-3.848-4.473-3.658-6.544-3.542-.678.039-1.303.035-2.026.079-.51.031-1.091.067-1.405-.031-2.86-.851-3.573-3.618-4.336-7.741-.2-1.081-.386-2.101-.656-3.068-1.21-4.376-4.168-7.559-8.787-9.465l.013-.014z"/></mask><path d="M-48.0265 472.757C-50.9792 471.538 -54.1979 471.844 -57.3325 472.212C-56.2329 471.773 -55.1733 471.277 -54.1359 470.793C-53.6792 470.581 -53.2226 470.368 -52.7659 470.159C-48.7181 468.324 -44.7412 466.794 -40.6535 468.209C-35.8608 469.867 -31.6312 473.835 -28.4834 477.102C-28.3681 477.222 -28.2795 477.364 -28.1819 477.501C-27.9957 477.767 -27.7652 478.1 -27.4371 478.401C-21.5183 483.824 -9.69849 489.614 -1.41664 483.354C1.27452 481.319 3.20757 478.534 4.80363 476.083C9.6362 468.674 15.351 462.21 24.3733 465.039C24.5861 465.105 24.8078 465.212 25.0649 465.336C25.362 465.478 25.659 465.619 25.9738 465.73C26.1024 465.775 26.2664 465.841 26.457 465.916C27.6053 466.373 28.4876 466.688 29.2369 466.581C29.7423 466.511 30.1723 466.174 30.363 465.699C30.9748 464.196 29.6403 463.004 28.9265 462.365C28.8113 462.263 28.7048 462.17 28.6339 462.095C28.195 461.616 27.7117 461.243 27.2418 460.88C26.7009 460.459 26.1866 460.06 25.8895 459.599C22.7329 454.677 22.6531 449.818 25.6634 445.553C30.2921 438.983 41.4823 435.117 50.0967 437.112C54.2864 438.078 59.5357 440.8 60.7372 448.258L61.6195 453.738C61.7436 454.518 62.4707 455.054 63.2599 454.93C64.0402 454.81 64.5766 454.079 64.4614 453.299C63.7653 448.603 62.9761 443.283 64.5545 438.606C65.5609 435.626 67.6092 432.674 70.8279 429.584C82.3906 418.469 99.8987 413.88 115.425 417.897C122.727 419.785 128.703 423.674 134.236 430.129C137.797 434.283 142.084 439.892 143.644 446.409C145.906 455.879 141.964 466.613 133.833 473.121C126.225 479.213 115.478 481.478 105.09 479.182C102.133 478.53 99.4642 477.541 97.1321 476.282C95.8287 475.16 94.3833 474.132 92.7784 473.227C92.4547 472.93 92.1311 472.633 91.8296 472.323C85.2103 465.393 86.1813 454.354 90.872 448.102C95.0218 442.583 101.162 441.377 107.728 444.795C109.772 445.859 112.171 448.142 112.596 450.634C112.818 451.937 112.45 453.081 111.47 454.132C110.929 454.713 110.96 455.622 111.541 456.163C112.122 456.704 113.031 456.673 113.572 456.092C115.163 454.389 115.806 452.332 115.429 450.146C114.831 446.67 111.798 443.669 109.054 442.241C101.229 438.171 93.572 439.714 88.571 446.373C83.9069 452.585 82.4749 462.924 87.1079 470.793C82.6478 469.415 77.3718 468.896 71.2358 469.685C64.8914 470.496 56.4322 474.278 53.4573 482.254C50.2652 490.811 55.4258 499.78 61.9032 503.876C66.1727 506.576 72.1802 507.21 76.5117 505.428C79.8147 504.067 81.9783 501.5 82.7763 498.011C84.0133 492.584 80.7945 486.998 75.7403 485.814C72.9516 485.162 70.3358 485.561 68.7397 486.883C67.8885 487.588 66.8998 488.904 67.0018 491.183C67.0639 492.593 67.8752 493.994 69.121 494.832C70.2649 495.603 71.6082 495.807 72.8053 495.382C73.5546 495.116 73.9492 494.296 73.6831 493.546C73.4171 492.797 72.5969 492.407 71.8476 492.668C71.3777 492.832 70.9077 492.566 70.726 492.442C70.2294 492.105 69.8925 491.56 69.8703 491.05C69.8304 490.155 70.0609 489.516 70.5708 489.091C71.4486 488.359 73.2176 488.168 75.0753 488.607C78.9856 489.525 80.7591 493.874 79.961 497.364C79.3714 499.939 77.8374 501.757 75.4034 502.764C71.8831 504.218 66.9575 503.672 63.4284 501.442C57.9086 497.953 53.4795 490.39 56.1396 483.256C58.6667 476.482 66.0397 473.245 71.5905 472.536C79.7216 471.494 86.1946 472.917 91.1025 475.613C92.3705 476.73 93.8158 477.719 95.3898 478.601C98.1962 481.053 100.213 483.961 101.455 486.9C105.321 496.011 102.958 508.501 96.5292 517.323C96.405 517.363 96.2809 517.416 96.1656 517.496C95.7799 517.758 95.5671 518.17 95.5449 518.6C93.9666 520.551 92.1799 522.293 90.2025 523.73C81.6458 529.946 67.5427 531.391 58.7598 526.949C52.6061 523.836 47.4809 518.17 44.2045 510.895C45.7873 510.407 47.2193 509.724 48.4563 508.86C51.5243 506.709 53.4396 503.282 53.4484 499.922C53.4484 499.128 52.81 498.481 52.0164 498.481H52.012C51.2184 498.481 50.5755 499.124 50.5755 499.913C50.5667 502.356 49.1213 504.878 46.807 506.506C44.7632 507.942 42.0011 508.762 38.8266 508.886C32.0079 509.157 25.69 506.279 18.9156 499.86C18.3392 499.314 17.4304 499.336 16.885 499.913C16.3397 500.489 16.3619 501.398 16.9382 501.948C23.9122 508.558 30.8152 511.781 38.0064 511.781C38.3168 511.781 38.6271 511.777 38.9375 511.764C39.7266 511.733 40.4848 511.657 41.2296 511.551C42.2715 516.299 37.47 520.906 34.2556 522.985C28.9664 526.408 21.6467 526.984 15.1471 524.484C9.14407 522.174 3.94353 516.845 0.476501 509.472C2.66223 507.006 3.57109 503.708 3.22971 500.853C2.79079 497.168 0.135117 493.183 -6.00534 493.045C-6.75461 493.028 -9.38815 493.143 -11.4276 495.329C-13.1079 497.129 -13.804 499.704 -13.498 502.981C-13.4227 503.77 -12.7088 504.351 -11.933 504.28C-11.1438 504.205 -10.5586 503.504 -10.634 502.715C-10.8601 500.29 -10.4167 498.468 -9.32605 497.293C-8.35068 496.251 -6.98959 495.905 -6.07185 495.923C-0.80481 496.042 0.192734 499.651 0.374512 501.194C0.782394 504.612 -1.3457 508.82 -5.60634 509.95C-11.1527 511.422 -19.971 509.458 -23.7617 504.289C-24.6528 503.074 -24.5021 502.107 -24.2715 500.64C-24.0853 499.456 -23.877 498.113 -24.2849 496.539C-25.2824 492.691 -28.7583 492.881 -30.8287 492.997C-31.5071 493.036 -32.1322 493.032 -32.8549 493.076C-33.3647 493.107 -33.9455 493.143 -34.2603 493.045C-37.1199 492.194 -37.8337 489.427 -38.5963 485.304C-38.7958 484.223 -38.982 483.203 -39.2525 482.236C-40.4628 477.86 -43.42 474.677 -48.0397 472.771L-48.0265 472.757Z" fill="url(#X)" stroke="url(#X)" mask="url(#B)" class="C E"/><path d="M146.201 462.858C144.197 467.988 140.843 472.697 136.364 476.278C127.782 483.15 115.758 485.686 104.212 483.134L104.209 483.133C104.188 483.128 104.168 483.122 104.147 483.117C104.431 483.643 104.695 484.171 104.938 484.702L105.204 485.308C109.584 495.64 107.237 509.077 100.425 518.894C102.648 521.607 105.473 523.809 108.494 524.879C111.722 526.022 115.185 525.887 118.521 523.68C119.394 523.102 120.264 522.456 120.971 521.874C121.477 521.457 121.854 521.107 122.093 520.859C122.133 520.187 122.43 519.528 122.979 519.047L122.979 519.046L123.189 518.88C124.268 518.113 125.778 518.265 126.675 519.287C127.173 519.853 127.652 520.413 128.115 520.961C130.753 524.058 132.852 526.496 136.543 528.006C139.954 529.401 143.976 529.881 147.67 529.351L148.404 529.232C154.455 528.127 157.73 525.279 162.565 521.034L162.566 521.032L164.439 519.399H164.44C164.681 519.191 164.926 518.969 165.178 518.736C162.588 519.893 159.894 520.831 157.093 521.241V521.242C155.594 521.463 154.099 521.569 152.624 521.569C145.902 521.569 139.498 519.342 134.924 515.213L134.923 515.214C133.846 514.242 133.769 512.585 134.735 511.513C135.646 510.504 137.159 510.373 138.228 511.157L138.435 511.326C142.782 515.246 149.456 517.066 156.338 516.061H156.337C160.734 515.419 165.135 513.036 169.624 510.586C175.327 507.472 181.544 504.059 188.399 504.407C189.512 504.408 190.655 504.508 191.839 504.734H191.842C192.232 504.81 192.583 504.969 192.882 505.186C193.587 505.395 194.315 505.636 195.062 505.956C198.028 507.218 200.702 508.972 203.195 510.597L203.197 510.598C207.936 513.696 212.046 516.332 217.336 516.034C220.217 515.871 222.252 514.936 223.893 513.396C225.574 511.818 226.906 509.546 228.238 506.586H228.237C228.797 505.338 229.627 503.487 230.854 501.765C231.472 500.898 232.208 500.038 233.084 499.294C232.804 499.288 232.51 499.29 232.198 499.3H232.197C231.562 499.319 230.966 499.544 230.01 499.928V499.929C229.632 500.08 229.207 500.251 228.77 500.4V500.401C227.757 500.75 226.859 501.149 225.938 501.555V501.556C223.565 502.611 221.104 503.715 217.319 503.42L217.32 503.419C215.216 503.255 212.782 503.004 210.55 501.883C206.136 499.666 203.546 495.799 201.218 492.361C199.342 489.592 197.699 487.192 195.413 485.507L195.412 485.508C190.135 481.624 182.583 481.391 177.199 484.822C177.307 486.333 177.267 487.858 177.038 489.374C176.324 494.129 173.763 498.568 170 501.565C166.574 504.295 161.451 505.706 156.535 505.706C153.631 505.706 150.721 505.217 148.202 504.155C143.567 502.203 140.665 498.502 140.183 493.741C139.513 487.099 144.223 482.664 148.763 481.334H148.764C154.012 479.799 159.062 481.996 161.539 486.881V486.882C162.193 488.174 161.676 489.748 160.385 490.402C159.096 491.057 157.516 490.538 156.863 489.248L156.864 489.247C156.048 487.637 154.935 486.789 153.798 486.394C152.634 485.99 151.361 486.034 150.234 486.364C147.573 487.143 145.032 489.639 145.394 493.216C145.677 496.02 147.229 498.062 150.231 499.325C152.689 500.359 155.845 500.688 158.919 500.336C161.999 499.983 164.846 498.965 166.731 497.464H166.732C169.379 495.355 171.214 492.25 171.798 488.916L171.85 488.593C172.413 484.83 171.523 480.839 169.771 477.207C168.129 473.803 165.764 470.787 163.268 468.659L162.767 468.246C158.754 465.04 152.926 463.123 146.201 462.858Z" fill="url(#Y)" stroke="url(#Y)" class="C F"/></g></g><defs><filter id="C" x="508.834" y="976.42" width="299.457" height="258.889" filterUnits="userSpaceOnUse" color-interpolation-filters="sRGB"><feFlood flood-opacity="0"/><feBlend in="SourceGraphic" result="B"/><feColorMatrix in="SourceAlpha" values="0 0 0 0 0 0 0 0 0 0 0 0 0 0 0 0 0 0 127 0" result="C"/><feOffset dy="-0.796296"/><feGaussianBlur stdDeviation=".319"/><feComposite in2="C" operator="arithmetic" k2="-1" k3="1"/><feColorMatrix values="0 0 0 0 0.984314 0 0 0 0 0.521569 0 0 0 0 0.00392157 0 0 0 1 0"/><feBlend in2="B" result="D"/><feColorMatrix in="SourceAlpha" values="0 0 0 0 0 0 0 0 0 0 0 0 0 0 0 0 0 0 127 0" result="C"/><feOffset dy="0.796296"/><feComposite in2="C" operator="arithmetic" k2="-1" k3="1"/><feColorMatrix values="0 0 0 0 1 0 0 0 0 1 0 0 0 0 1 0 0 0 1 0"/><feBlend in2="D"/></filter><linearGradient id="D" x1="701.562" y1="977.205" x2="701.562" y2="1063.3" href="#j"><stop stop-color="#fcf0d6"/><stop offset="1" stop-color="#ffc446"/></linearGradient><linearGradient id="E" x1="743.417" y1="977.18" x2="743.915" y2="1063.28" href="#j"><stop stop-color="#fcf0d6"/><stop offset="1" stop-color="#ffc446"/></linearGradient><linearGradient id="F" x1="616.359" y1="1063.2" x2="616.359" y2="1149.3" href="#j"><stop stop-color="#fcf0d6"/><stop offset="1" stop-color="#ffc446"/></linearGradient><linearGradient id="G" x1="658.21" y1="1063.18" x2="658.708" y2="1149.28" href="#j"><stop stop-color="#fcf0d6"/><stop offset="1" stop-color="#ffc446"/></linearGradient><linearGradient id="H" x1="616.357" y1="1149.21" x2="616.357" y2="1235.31" href="#j"><stop stop-color="#fcf0d6"/><stop offset="1" stop-color="#ffc446"/></linearGradient><linearGradient id="I" x1="530.336" y1="1063.06" x2="530.336" y2="1106.06" href="#j"><stop stop-color="#fcf0d6"/><stop offset="1" stop-color="#ffc446"/></linearGradient><linearGradient id="J" x1="573.358" y1="1063.06" x2="573.358" y2="1149.15" href="#j"><stop stop-color="#fcf0d6"/><stop offset="1" stop-color="#ffc446"/></linearGradient><linearGradient id="K" x1="786.766" y1="1020.06" x2="786.766" y2="1106.15" href="#j"><stop stop-color="#fcf0d6"/><stop offset="1" stop-color="#ffc446"/></linearGradient><linearGradient id="L" x1="701.56" y1="1106.18" x2="702.058" y2="1192.28" href="#j"><stop stop-color="#fcf0d6"/><stop offset="1" stop-color="#ffc446"/></linearGradient><linearGradient id="M" x1="701.562" y1="977.205" x2="701.562" y2="1063.3" href="#j"><stop stop-color="#ffc446"/><stop offset="1" stop-color="#fcf0d6"/></linearGradient><linearGradient id="N" x1="743.417" y1="977.18" x2="743.915" y2="1063.28" href="#j"><stop stop-color="#ffc446"/><stop offset="1" stop-color="#fcf0d6"/></linearGradient><linearGradient id="O" x1="616.359" y1="1063.2" x2="616.359" y2="1149.3" href="#j"><stop stop-color="#ffc446"/><stop offset="1" stop-color="#fcf0d6"/></linearGradient><linearGradient id="P" x1="658.21" y1="1063.18" x2="658.708" y2="1149.28" href="#j"><stop stop-color="#ffc446"/><stop offset="1" stop-color="#fcf0d6"/></linearGradient><linearGradient id="Q" x1="616.357" y1="1149.21" x2="616.357" y2="1235.31" href="#j"><stop stop-color="#ffc446"/><stop offset="1" stop-color="#fcf0d6"/></linearGradient><linearGradient id="R" x1="530.336" y1="1063.06" x2="530.336" y2="1106.06" href="#j"><stop stop-color="#ffc446"/><stop offset="1" stop-color="#fcf0d6"/></linearGradient><linearGradient id="S" x1="573.358" y1="1063.06" x2="573.358" y2="1149.15" href="#j"><stop stop-color="#ffc446"/><stop offset="1" stop-color="#fcf0d6"/></linearGradient><linearGradient id="T" x1="786.766" y1="1020.06" x2="786.766" y2="1106.15" href="#j"><stop stop-color="#ffc446"/><stop offset="1" stop-color="#fcf0d6"/></linearGradient><linearGradient id="U" x1="701.56" y1="1106.18" x2="702.058" y2="1192.28" href="#j"><stop stop-color="#ffc446"/><stop offset="1" stop-color="#fcf0d6"/></linearGradient><linearGradient id="V" x1="887.342" y1="220.702" x2="597.223" y2="220.702" href="#j"><stop stop-color="#fcf0d6"/><stop offset="1" stop-color="#ffc446"/></linearGradient><linearGradient id="W" x1="1020.05" y1="254.092" x2="822.116" y2="254.092" href="#j"><stop stop-color="#fcf0d6"/><stop offset="1" stop-color="#ffc446"/></linearGradient><linearGradient id="X" x1="144.275" y1="472.994" x2="-57.332" y2="472.994" href="#j"><stop stop-color="#fcf0d6"/><stop offset="1" stop-color="#ffc446"/></linearGradient><linearGradient id="Y" x1="236.498" y1="496.198" x2="98.947" y2="496.198" href="#j"><stop stop-color="#fcf0d6"/><stop offset="1" stop-color="#ffc446"/></linearGradient><clipPath id="Z"><path fill="#fff" d="M0 0h860v1528.89H0z"/></clipPath><path id="a" d="M722.666 1020.27C722.704 1020.27 722.744 1020.27 722.785 1020.27V1020.24C722.744 1020.24 722.704 1020.24 722.666 1020.24V1020.27ZM681.656 978.824C681.672 979.263 681.695 979.785 681.735 980.378C681.869 982.361 682.169 985.128 682.829 988.256C684.157 994.542 686.908 1002.12 692.542 1007.75C697.689 1012.9 704.458 1015.64 710.396 1017.09C715.164 1018.25 719.308 1018.56 721.467 1018.63C721.451 1018.2 721.429 1017.67 721.389 1017.08C721.255 1015.1 720.955 1012.33 720.295 1009.2C718.967 1002.92 716.216 995.344 710.582 989.71C704.948 984.076 697.374 981.324 691.088 979.997C687.961 979.336 685.193 979.037 683.21 978.903C682.617 978.863 682.095 978.84 681.656 978.824ZM681.656 1061.68C682.095 1061.67 682.617 1061.65 683.21 1061.61C685.193 1061.47 687.961 1061.17 691.088 1060.51C697.374 1059.18 704.948 1056.43 710.582 1050.8C716.216 1045.16 718.967 1037.59 720.295 1031.31C720.955 1028.18 721.255 1025.41 721.389 1023.43C721.429 1022.83 721.451 1022.31 721.467 1021.87C719.308 1021.95 715.164 1022.26 710.396 1023.42C704.458 1024.87 697.689 1027.61 692.542 1032.76C686.908 1038.39 684.157 1045.97 682.829 1052.25C682.169 1055.38 681.869 1058.15 681.735 1060.13C681.695 1060.72 681.672 1061.25 681.656 1061.68Z"/><path id="b" d="M723.751 1018.72C725.909 1018.63 730.052 1018.31 734.814 1017.12C740.743 1015.63 747.497 1012.85 752.614 1007.67C758.215 1002.01 760.922 994.416 762.214 988.122C762.856 984.991 763.139 982.222 763.262 980.238C763.298 979.645 763.318 979.123 763.331 978.684C762.892 978.702 762.371 978.729 761.779 978.772C759.797 978.917 757.03 979.233 753.907 979.911C747.629 981.275 740.071 984.07 734.47 989.737C728.868 995.403 726.161 1002.99 724.87 1009.29C724.227 1012.42 723.944 1015.19 723.821 1017.17C723.785 1017.76 723.765 1018.29 723.751 1018.72ZM723.77 1021.96C723.788 1022.4 723.815 1022.92 723.858 1023.52C724.004 1025.5 724.319 1028.26 724.997 1031.39C726.361 1037.67 729.157 1045.22 734.823 1050.82C740.489 1056.43 748.079 1059.13 754.373 1060.43C757.504 1061.07 760.274 1061.35 762.257 1061.47C762.85 1061.51 763.371 1061.53 763.81 1061.54C763.792 1061.1 763.767 1060.58 763.723 1059.99C763.578 1058.01 763.262 1055.24 762.584 1052.12C761.22 1045.84 758.425 1038.28 752.758 1032.68C747.582 1027.56 740.797 1024.86 734.851 1023.45C730.075 1022.31 725.929 1022.03 723.77 1021.96ZM722.441 1020.36C722.483 1020.36 722.523 1020.36 722.562 1020.36L722.561 1020.34C722.523 1020.34 722.483 1020.34 722.441 1020.34L722.441 1020.36Z"/><path id="c" d="M637.463 1106.27C637.501 1106.27 637.541 1106.27 637.582 1106.27V1106.24C637.541 1106.24 637.501 1106.24 637.463 1106.24V1106.27ZM596.453 1064.82C596.469 1065.26 596.492 1065.79 596.532 1066.38C596.666 1068.36 596.966 1071.13 597.626 1074.26C598.954 1080.54 601.705 1088.12 607.339 1093.75C612.486 1098.9 619.255 1101.64 625.192 1103.09C629.961 1104.25 634.105 1104.56 636.264 1104.63C636.248 1104.2 636.226 1103.67 636.186 1103.08C636.052 1101.1 635.752 1098.33 635.092 1095.2C633.764 1088.92 631.013 1081.34 625.379 1075.71C619.745 1070.08 612.171 1067.32 605.885 1066C602.758 1065.34 599.99 1065.04 598.007 1064.9C597.414 1064.86 596.892 1064.84 596.453 1064.82ZM596.453 1147.68C596.892 1147.67 597.414 1147.65 598.007 1147.61C599.99 1147.47 602.758 1147.17 605.885 1146.51C612.171 1145.19 619.745 1142.43 625.379 1136.8C631.012 1131.16 633.764 1123.59 635.092 1117.31C635.752 1114.18 636.052 1111.41 636.186 1109.43C636.226 1108.83 636.248 1108.31 636.264 1107.87C634.105 1107.95 629.961 1108.26 625.192 1109.42C619.255 1110.87 612.486 1113.61 607.339 1118.76C601.705 1124.39 598.954 1131.97 597.626 1138.25C596.966 1141.38 596.666 1144.15 596.532 1146.13C596.492 1146.72 596.469 1147.25 596.453 1147.68Z"/><path id="d" d="M638.544 1104.72C640.702 1104.63 644.845 1104.31 649.607 1103.12C655.536 1101.63 662.289 1098.85 667.407 1093.67C673.008 1088.01 675.715 1080.42 677.007 1074.12C677.649 1070.99 677.932 1068.22 678.055 1066.24C678.091 1065.65 678.111 1065.12 678.124 1064.68C677.685 1064.7 677.164 1064.73 676.572 1064.77C674.59 1064.92 671.823 1065.23 668.7 1065.91C662.422 1067.28 654.864 1070.07 649.263 1075.74C643.661 1081.4 640.954 1088.99 639.663 1095.29C639.02 1098.42 638.737 1101.19 638.614 1103.17C638.578 1103.76 638.557 1104.29 638.544 1104.72ZM638.563 1107.96C638.581 1108.4 638.608 1108.92 638.651 1109.52C638.797 1111.5 639.112 1114.26 639.79 1117.39C641.154 1123.67 643.95 1131.22 649.616 1136.82C655.282 1142.43 662.872 1145.13 669.166 1146.43C672.297 1147.07 675.066 1147.35 677.05 1147.47C677.643 1147.51 678.164 1147.53 678.603 1147.54C678.585 1147.1 678.56 1146.58 678.516 1145.99C678.371 1144.01 678.055 1141.24 677.377 1138.12C676.013 1131.84 673.218 1124.28 667.551 1118.68C662.375 1113.56 655.59 1110.86 649.644 1109.45C644.868 1108.31 640.722 1108.03 638.563 1107.96ZM637.234 1106.36C637.276 1106.36 637.316 1106.36 637.355 1106.36L637.354 1106.34C637.316 1106.34 637.276 1106.34 637.234 1106.34L637.234 1106.36Z"/><path id="e" d="M637.461 1192.27C637.499 1192.27 637.539 1192.27 637.58 1192.27V1192.25C637.539 1192.25 637.499 1192.25 637.461 1192.24V1192.27ZM596.451 1150.83C596.467 1151.27 596.49 1151.79 596.53 1152.38C596.664 1154.37 596.964 1157.13 597.624 1160.26C598.952 1166.55 601.703 1174.12 607.337 1179.75C612.484 1184.9 619.253 1187.65 625.19 1189.09C629.959 1190.26 634.103 1190.56 636.262 1190.64C636.246 1190.2 636.224 1189.68 636.184 1189.09C636.05 1187.1 635.75 1184.34 635.09 1181.21C633.762 1174.92 631.011 1167.35 625.377 1161.71C619.743 1156.08 612.169 1153.33 605.883 1152C602.756 1151.34 599.988 1151.04 598.005 1150.91C597.412 1150.87 596.89 1150.84 596.451 1150.83ZM596.451 1233.69C596.89 1233.67 597.412 1233.65 598.005 1233.61C599.988 1233.48 602.756 1233.18 605.883 1232.52C612.169 1231.19 619.743 1228.44 625.377 1222.8C631.011 1217.17 633.762 1209.6 635.09 1203.31C635.75 1200.18 636.05 1197.41 636.184 1195.43C636.224 1194.84 636.246 1194.32 636.262 1193.88C634.103 1193.96 629.959 1194.26 625.19 1195.42C619.253 1196.87 612.484 1199.62 607.337 1204.76C601.703 1210.4 598.952 1217.97 597.624 1224.26C596.964 1227.39 596.664 1230.15 596.53 1232.14C596.49 1232.73 596.467 1233.25 596.451 1233.69Z"/><path id="f" d="M510.453 1064.67C510.469 1065.11 510.492 1065.64 510.532 1066.23C510.666 1068.21 510.966 1070.98 511.626 1074.11C512.954 1080.39 515.705 1087.97 521.339 1093.6C526.48 1098.74 533.336 1101.47 539.371 1102.91C543.933 1104 547.941 1104.33 550.221 1104.42C550.206 1103.99 550.185 1103.47 550.146 1102.89C550.017 1100.91 549.723 1098.15 549.068 1095.03C547.752 1088.76 545.012 1081.19 539.379 1075.56C533.745 1069.93 526.171 1067.18 519.885 1065.85C516.758 1065.19 513.99 1064.89 512.007 1064.75C511.414 1064.71 510.892 1064.69 510.453 1064.67Z"/><path id="g" d="M552.254 1106.12C552.215 1106.12 552.176 1106.12 552.135 1106.12V1106.09C552.176 1106.09 552.215 1106.09 552.254 1106.09V1106.12ZM593.264 1064.67C593.248 1065.11 593.225 1065.64 593.185 1066.23C593.051 1068.21 592.751 1070.98 592.091 1074.11C590.763 1080.39 588.012 1087.97 582.378 1093.6C577.231 1098.75 570.462 1101.49 564.524 1102.94C559.756 1104.1 555.612 1104.41 553.453 1104.49C553.469 1104.05 553.491 1103.52 553.531 1102.93C553.665 1100.95 553.965 1098.18 554.625 1095.05C555.953 1088.77 558.704 1081.19 564.338 1075.56C569.972 1069.93 577.546 1067.18 583.832 1065.85C586.959 1065.19 589.727 1064.89 591.71 1064.75C592.303 1064.71 592.825 1064.69 593.264 1064.67ZM593.264 1147.54C592.825 1147.52 592.303 1147.5 591.71 1147.46C589.727 1147.32 586.959 1147.02 583.832 1146.36C577.546 1145.04 569.972 1142.28 564.338 1136.65C558.704 1131.02 555.953 1123.44 554.625 1117.16C553.965 1114.03 553.665 1111.26 553.531 1109.28C553.491 1108.68 553.469 1108.16 553.453 1107.72C555.612 1107.8 559.756 1108.11 564.524 1109.27C570.462 1110.72 577.231 1113.46 582.378 1118.61C588.012 1124.24 590.763 1131.82 592.091 1138.1C592.751 1141.23 593.051 1144 593.185 1145.98C593.225 1146.57 593.248 1147.1 593.264 1147.54Z"/><path id="h" d="M765.662 1063.12C765.624 1063.12 765.584 1063.12 765.543 1063.12V1063.09C765.584 1063.09 765.624 1063.09 765.662 1063.09V1063.12ZM806.672 1021.67C806.656 1022.11 806.633 1022.64 806.593 1023.23C806.459 1025.21 806.159 1027.98 805.499 1031.11C804.171 1037.39 801.42 1044.97 795.786 1050.6C790.639 1055.75 783.87 1058.49 777.933 1059.94C773.164 1061.1 769.02 1061.41 766.861 1061.49C766.877 1061.05 766.899 1060.52 766.939 1059.93C767.073 1057.95 767.373 1055.18 768.033 1052.05C769.361 1045.77 772.112 1038.19 777.746 1032.56C783.38 1026.93 790.954 1024.18 797.24 1022.85C800.367 1022.19 803.135 1021.89 805.118 1021.75C805.711 1021.71 806.233 1021.69 806.672 1021.67ZM806.672 1104.54C806.233 1104.52 805.711 1104.5 805.118 1104.46C803.135 1104.32 800.367 1104.02 797.24 1103.36C790.954 1102.04 783.38 1099.28 777.746 1093.65C772.113 1088.02 769.361 1080.44 768.033 1074.16C767.373 1071.03 767.073 1068.26 766.939 1066.28C766.899 1065.68 766.877 1065.16 766.861 1064.72C769.02 1064.8 773.164 1065.11 777.933 1066.27C783.87 1067.72 790.639 1070.46 795.786 1075.61C801.42 1081.24 804.171 1088.82 805.499 1095.1C806.159 1098.23 806.459 1101 806.593 1102.98C806.633 1103.57 806.656 1104.1 806.672 1104.54Z"/><path id="i" d="M681.894 1147.72C684.052 1147.63 688.195 1147.31 692.957 1146.12C698.886 1144.63 705.639 1141.85 710.756 1136.67C716.357 1131.01 719.065 1123.42 720.356 1117.12C720.999 1113.99 721.282 1111.22 721.404 1109.24C721.441 1108.65 721.46 1108.12 721.474 1107.68C721.035 1107.7 720.513 1107.73 719.921 1107.77C717.939 1107.92 715.173 1108.23 712.05 1108.91C705.772 1110.28 698.213 1113.07 692.612 1118.74C687.011 1124.4 684.303 1131.99 683.012 1138.29C682.37 1141.42 682.087 1144.19 681.964 1146.17C681.927 1146.76 681.907 1147.29 681.894 1147.72ZM681.913 1150.96C681.931 1151.4 681.957 1151.92 682.001 1152.52C682.146 1154.5 682.462 1157.26 683.14 1160.39C684.504 1166.67 687.299 1174.22 692.966 1179.82C698.632 1185.43 706.222 1188.13 712.516 1189.43C715.646 1190.07 718.416 1190.35 720.4 1190.47C720.992 1190.51 721.514 1190.53 721.953 1190.54C721.935 1190.1 721.909 1189.58 721.866 1188.99C721.72 1187.01 721.405 1184.24 720.726 1181.12C719.363 1174.84 716.567 1167.28 710.901 1161.68C705.724 1156.56 698.939 1153.86 692.994 1152.45C688.218 1151.31 684.072 1151.03 681.913 1150.96ZM680.584 1149.36C680.625 1149.36 680.665 1149.36 680.704 1149.36L680.704 1149.34C680.665 1149.34 680.625 1149.34 680.584 1149.34L680.584 1149.36Z"/><linearGradient id="j" gradientUnits="userSpaceOnUse"/></defs></svg>