<svg xmlns="http://www.w3.org/2000/svg" width="532" height="469" xmlns:v="https://vecta.io/nano"><path d="M258.688 55.867l3.313.008 3.313-.008C268 56 268 56 269 57v6l3.438-.062C276 63 276 63 277 64v6l2.875-.125C283 70 283 70 285 72c.227 2.063.227 2.063.195 4.57l-.02 2.715-.051 2.84-.027 2.863L285 92l5-1-.062-2.437C290 86 290 86 291 85l5.063-.062 2.785.027L301 85l-.187-2.875L301 79c2.619-1.746 4.038-2.387 7-3l.438-2.437C309 71 309 71 310 70l7.5-.125 2.129-.012c5.244.01 5.244.01 6.371 1.137l.114 4.061v2.609l-.016 2.835-.004 2.888-.031 9.171-.014 6.201L326 114l-8 1v6l-7 2v4h7v7h16v7l3.813-.312c2.207-.008 2.207-.008 4.188.313 2.453 2.837 3 4.251 3 8h5l1.188 2.938L353 155l5 1v14l8 1 1 30 7 1v22h7l1 33 16.663-.09 3.161-.008 3.221-.016c2.768.106 5.262.485 7.954 1.114v7l3.246-.035 4.191-.027 2.143-.025L428 265c1 1 1 1 1.063 4.063L429 272l2.875-.125C435 272 435 272 437 274v6h7v12h-7l-.437 3.438C436 299 436 299 435 300h-6l.063 2.938C429 306 429 306 428 307a184.94 184.94 0 0 1-7.562.063l-2.154-.014L413 307l.063 2.938C413 313 413 313 412 314l-8.41.098-2.552-.004-8.101-.031-5.479-.014L374 314v7h-8v15l-7 1-2 7h-7l.063 3.438C350 351 350 351 349 352h-7l.063 2.938C342 358 342 358 341 359h-7l.063 3.438C334 366 334 366 333 367a184.94 184.94 0 0 1-7.562.063l-2.154-.014L318 367v7h-18v8l-30.015.155-13.936.071-13.441.058-5.136.033-7.176.023-2.16.033c-1.972-.012-1.972-.012-5.135-.373-2-3-2-3-2-8h-17l-1-7h-14v-8h-16v-7h-8c-1.502-3.003-1.093-5.791-1.062-9.125l.027-3.883L164 336l-3.246.035-4.191.027-2.143.025c-1.807.009-3.614-.036-5.42-.088-1-1-1-1-1.062-4.062L148 329h-7v-15h-8v-18h-7l-2-6-7-1v-28h7v-6l-3.246-.184-4.191-.254-2.143-.119c-5.307-.33-5.307-.33-6.42-1.443l-.125-8.937-.012-2.537.004-2.428.003-2.234C108 235 108 235 109 233l7-1 1-12 7-1-.035-1.793-.027-2.395-.035-2.355c.102-2.578.531-4.944 1.098-7.457l-3.246.035-4.191.027-2.143.025c-1.807.009-3.614-.036-5.42-.088-1-1-1-1-1.098-3.066l.035-2.496.027-2.504L109 195h3l.313-2.375C113 190 113 190 116 188c.328-2.991.328-2.991.125-6.375-.242-7.138-.242-7.138.875-10.625l5-1-2-1-1-3-2-1-1-3-3-2v-3l-4-1v-7c4.458-2.229 10.542-1.23 15.438-1.25l3.799-.062 3.635-.016 3.342-.028c3.155.403 3.8 1.002 5.787 3.356 2.606.722 2.606.722 5 1l1 3c2.015.733 2.015.733 4 1v3c2.915-1.074 4.778-1.778 7-4 3.125-.125 3.125-.125 6 0l1-6 7-1 1-7h16v-7h16v-7h7v-5l-2.937.063C206 122 206 122 205 121c-.041-2-.043-4 0-6l-3.437.063C198 115 198 115 197 114a56.59 56.59 0 0 1-.129-4.045l-.01-2.599.006-2.825-.003-2.881.005-6.043-.006-9.284.004-5.855-.006-2.825.01-2.599.002-2.299C197 71 197 71 198 70a184.94 184.94 0 0 1 7.563-.062l2.154.014L213 70c1.354 2.709 1.065 5.009 1 8l2-.562c3.924-.572 7.086-.09 11 .563 1 1 1 1 1.063 4.063L228 85h7v7h6l-.5-2.75c-1.983-14.025-1.983-14.025 1.5-19.25 3.125-.187 3.125-.187 6 0v-7h7l-.062-2.937c.082-4.014.082-4.014 3.75-4.195z" fill="#d79647"/><path d="M260 184h81v3h9v5h7v11h8v21h8v34h-8v8h-8v7h-8v26h8v7h8v7h-8v23h-8v7h-8v8h-8v7h-34v-7h-8v-8h-15v-15h-8v-7h-8v-15h-8v-15h-8v-17h-3v-17h-8v-25h3v-15h8v-15h4v-5h4v-10h8v-3z" fill="#e7e6e5"/><path d="M258.688 55.867l3.313.008 3.313-.008C268 56 268 56 269 57v6l3.438-.062C276 63 276 63 277 64v6l2.875-.125C283 70 283 70 285 72c.227 2.063.227 2.063.195 4.57l-.02 2.715-.051 2.84-.027 2.863L285 92l5-1-.062-2.437C290 86 290 86 291 85l5.063-.062 2.785.027L301 85l-.187-2.875L301 79c2.619-1.746 4.038-2.387 7-3l.438-2.437C309 71 309 71 310 70l7.5-.125 2.129-.012c5.244.01 5.244.01 6.371 1.137l.114 4.061v2.609l-.016 2.835-.004 2.888-.031 9.171-.014 6.201L326 114l-8 1v6l-7 2v4h7v7h16v7l3.813-.312c2.207-.008 2.207-.008 4.188.313 2.453 2.837 3 4.251 3 8h5l1.188 2.938L353 155l5 1v14l2 1h-3v-14h-6v-2h-2v-5h-3l1 6h-2l-1-2-3-1v-4H233v4h-2v-4h-14v-3h116v-4h-16v-7H206v7h-16v7h-17v4h19l1 3h-27l-1 4-12 1-1 3h-2v-4h-4v-2h-4v-2h-3l-1-2-21-1v9l-4-2v-3l-4-1v-7c4.458-2.229 10.542-1.23 15.438-1.25l3.799-.062 3.635-.016 3.342-.028c3.155.403 3.8 1.002 5.787 3.356 2.606.722 2.606.722 5 1l1 3c2.015.733 2.015.733 4 1v3c2.915-1.074 4.778-1.778 7-4 3.125-.125 3.125-.125 6 0l1-6 7-1 1-7h16v-7h16v-7h7v-5l-2.937.063C206 122 206 122 205 121c-.041-2-.043-4 0-6l-3.437.063C198 115 198 115 197 114a56.59 56.59 0 0 1-.129-4.045l-.01-2.599.006-2.825-.003-2.881.005-6.043-.006-9.284.004-5.855-.006-2.825.01-2.599.002-2.299C197 71 197 71 198 70a184.94 184.94 0 0 1 7.563-.062l2.154.014L213 70c1.354 2.709 1.065 5.009 1 8l2-.562c3.924-.572 7.086-.09 11 .563 1 1 1 1 1.063 4.063L228 85h7v7h6l-.5-2.75c-1.983-14.025-1.983-14.025 1.5-19.25 3.125-.187 3.125-.187 6 0v-7h7l-.062-2.937c.082-4.014.082-4.014 3.75-4.195z" fill="#040202"/><path d="M357 172h9l1 29 7 1v22h7l1 33 16.663-.09 3.161-.008 3.221-.016c2.768.106 5.262.485 7.954 1.114v7l3.246-.035 4.191-.027 2.143-.025L428 265c1 1 1 1 1.063 4.063L429 272l2.875-.125C435 272 435 272 437 274v6h7v12h-7l-.437 3.438C436 299 436 299 435 300h-6l.063 2.938C429 306 429 306 428 307a184.94 184.94 0 0 1-7.562.063l-2.154-.014L413 307l.063 2.938C413 313 413 313 412 314l-8.41.098-2.552-.004-8.101-.031-5.479-.014L374 314v7h-8v15l-7 1-2 7h-7l.063 3.438C350 351 350 351 349 352h-7l.063 2.938C342 358 342 358 341 359h-7l.063 3.438C334 366 334 366 333 367a184.94 184.94 0 0 1-7.562.063l-2.154-.014L318 367v7h-18v8l-30.015.155-13.936.071-13.441.058-5.136.033-7.176.023-2.16.033c-1.972-.012-1.972-.012-5.135-.373-2-3-2-3-2-8h-17l-1-7h-14v-8h-16v-7h-8c-1.502-3.003-1.093-5.791-1.062-9.125l.027-3.883L164 336l-3.246.035-4.191.027-2.143.025c-1.807.009-3.614-.036-5.42-.088-1-1-1-1-1.062-4.062L148 329h-7v-15h-8v-18h-7l-2-6-7-1v-28h7v-7h2v-5h7v26h8l1-4v2l2 1-.974 3.02c-1.111 3.904-1.342 7.598-1.44 11.664l-.059 2.122-.152 6.632-.117 4.529L141 313h9v15h16v7h7v16h16v7h16v8h17v7h77v-7h18v-8h16v-7h8v-8h8v-7h8v-23h8v-7h-8v-7h-8v-26h8v-7h8v-8h8v-34h-8v-21h-8v-31z" fill="#922525"/><path d="M206 135h111v7h16v4H217v3h14v4h2v-4h108v4l4 1v2h2l-1-6h3v5h2v2h6v14h9v1h-10v11H216v4h-38c4.215-3.161 5.061-3.337 10-3v-3l-3-1v-2h-3v-2h-2c-1.625-1.375-1.625-1.375-3-3v-2h-3v-4l2.375-.25c2.772-.478 2.772-.478 3.938-2.812L181 162h2v-3l4-1v-2h6l-1-2-19-1v-4h17v-7h16v-7z" fill="#62271a"/><path d="M153 248h4v17h-4v4h-4v22h4v8h2v3h2v-11h8l1 22h7v5h5v4h7v6h4v3h4v5h12v6h32v4h7v4h12v3h6v5h14v4h10v4h13v7h-77v-7h-17v-8h-16v-7h-16v-16h-7v-7h-16v-15h-9l-.11-13.287-.041-4.513-.044-6.516-.032-3.951C141 281 141 281 142.137 277.207L143 274l-2-3v-3h8v-10h4v-10z" fill="#c37737"/><path d="M126 249h7v26h8l1-4v2l2 1-.974 3.02c-1.111 3.904-1.342 7.598-1.44 11.664l-.059 2.122-.152 6.632-.117 4.529L141 313h9v15h16v7h7v16h16v7h16v8h17v7h77v-7h18v-8h16v-7h8v-8h8v-7h8v-23h8l-.062-2.937C365 307 365 307 366 306c1.443-.093 2.89-.117 4.336-.114h2.791l3.033.016 3.09.004 9.813.031 6.635.014L412 306v8h-38v7h-8v15l-7 1-2 7h-7l.063 3.438C350 351 350 351 349 352c-2.333.041-4.667.042-7 0l.063 2.938C342 358 342 358 341 359c-2.333.041-4.667.042-7 0l.063 3.438C334 366 334 366 333 367a184.94 184.94 0 0 1-7.562.063l-2.154-.014L318 367v7h-18v8l-30.015.155-13.936.071-13.441.058-5.136.033-7.176.023-2.16.033c-1.972-.012-1.972-.012-5.135-.373-2-3-2-3-2-8h-17l-1-7h-14v-8h-16v-7h-8c-1.502-3.003-1.093-5.791-1.062-9.125l.027-3.883L164 336l-3.246.035-4.191.027-2.143.025c-1.807.009-3.614-.036-5.42-.088-1-1-1-1-1.062-4.062L148 329h-7v-15h-8v-18h-7l-2-6-7-1v-28h7v-7h2v-5z" fill="#424a4e"/><path d="M201.379 69.902l4.184.035 2.154.014L213 70c1.354 2.709 1.065 5.009 1 8l2-.562c3.893-.568 7.114-.03 11 .563v1h-14v7h14v14h7v14h7v14h-21v-7h-7v7h-7v6h111v-6h-7l1-3v2h7v7h16v7l3.813-.312c2.207-.008 2.207-.008 4.188.313 2.453 2.837 3 4.251 3 8h5l1.188 2.938L353 155l5 1v14l2 1h-3v-14h-6v-2h-2v-5h-3l1 6h-2l-1-2-3-1v-4H233v4h-2v-4h-14v-3h116v-4h-16v-7H206v7h-16v7h-17v4h19l1 3h-27l-1 4-12 1-1 3h-2v-4h-4v-2h-4v-2h-3l-1-2-21-1v9l-4-2v-3l-4-1v-7c4.458-2.229 10.542-1.23 15.438-1.25l3.799-.062 3.635-.016 3.342-.028c3.155.403 3.8 1.002 5.787 3.356 2.606.722 2.606.722 5 1l1 3c2.015.733 2.015.733 4 1v3c2.915-1.074 4.778-1.778 7-4 3.125-.125 3.125-.125 6 0l1-6 7-1 1-7h16v-7h16v-7h7v-5l-2.937.063C206 122 206 122 205 121c-.041-2-.043-4 0-6l-3.437.063C198 115 198 115 197 114a56.59 56.59 0 0 1-.129-4.045l-.01-2.599.006-2.825-.003-2.881.005-6.043-.006-9.284.004-5.855-.006-2.825.01-2.599.002-2.299c.237-3.255 1.167-2.747 4.506-2.844z" fill="#454b43"/><path d="M280 149h61v4l4 1v2h2l-1-6h3v5h2v2h6v14h9v1h-10v11h-71v-1l20-1-25-1v-2h3v-2h2v-2h2l1-4h2l1-3h3v-3h-2l-1-4h-4v-4l-3-1v-2h-2v-2h-2v-2z" fill="#ad3831"/><path d="M317 205h24v7h8v46h-8v7h-24v-7h-7v-46h7v-7z" fill="#030303"/><path d="M258.688 55.867l3.313.008 3.313-.008C268 56 268 56 269 57v6l3.438-.062C276 63 276 63 277 64v6h6l1 2h-7l-1 55h-27V72h7v-8h-8v-1h7l-.062-2.937c.082-4.014.082-4.014 3.75-4.195z" fill="#584437"/><path d="M315.371 69.863l2.129.012 2.129-.012c5.244.01 5.244.01 6.371 1.137l.114 4.061v2.609l-.016 2.835-.004 2.888-.031 9.171-.014 6.201L326 114l-8 1v6h-1v-7h-7v7h-8v7h-18v-15h7V93h-7V72h1v20l5-1-.062-2.437C290 86 290 86 291 85l5.063-.062 2.785.027L301 85l-.187-2.875L301 79c2.619-1.746 4.038-2.387 7-3l.438-2.437c.98-4.466 2.676-3.691 6.934-3.699z" fill="#51433a"/><path d="M147 164h2v23h28v4h-28v4h-4v4h-4v6h-8v16h-7v13h-9v20h-8c-1.94-1.94-1.133-4.812-1.137-7.389l.012-2.549-.012-2.537.004-2.428.003-2.234C108 235 108 235 109 233l7-1 1-12 7-1-.035-1.793-.027-2.395-.035-2.355c.102-2.578.531-4.944 1.098-7.457l-3.246.035-4.191.027-2.143.025c-1.807.009-3.614-.036-5.42-.088-1-1-1-1-1.098-3.066l.035-2.496.027-2.504L109 195h3l.313-2.375C113 190 113 190 116 188c.548-2.786.548-2.786.625-5.937.17-3.322.32-5.898 1.375-9.062l7-1v8h3v-2h3v-5h-5l2-3 5 1v2l2 1-1 2h5v2h6v-8h-6v-2l3.438-.875L146 166l1-2z" fill="#61251f"/><path d="M206 135h111v7h16v4H217v3h-24v4h-20v-4h17v-7h16v-7z" fill="#cd9248"/><path d="M357 172h9l1 29 7 1v22h7l1 33 16.663-.09 3.161-.008 3.221-.016c2.768.106 5.262.485 7.954 1.114v7l3.246-.035 4.191-.027 2.143-.025L428 265c1 1 1 1 1.063 4.063L429 272l2.875-.125C435 272 435 272 437 274v6h7v12h-7l-1 7h-1v-8h-2v-2h2v-5h-11l2-4v-5h-14v-9h-31v-8h-8v-34h-8v-21h-8v-31z" fill="#3d5962"/><path d="M213 72h1v6l2-.562c3.893-.568 7.114-.03 11 .563v1h-14v7h14v14h7v14h7v14h-21v-7h-7v-8h-5c-1-4.75-1-4.75-1-7l-.494-1.772c-.609-2.679-.618-5.121-.604-7.868l.01-3.242.025-3.367.014-3.414L206 78h7v-6z" fill="#523e30"/><path d="M193 149h23v4h-2l-1 3h-4v4h-3v4h-4v3h4v4h3v2h2c1.625 1.375 1.625 1.375 3 3v2h2c.919 3.676.959 5.164 0 9h-38c4.215-3.161 5.061-3.337 10-3v-3l-3-1v-2h-3v-2h-2c-1.625-1.375-1.625-1.375-3-3v-2h-3v-4l2.375-.25c2.772-.478 2.772-.478 3.938-2.812L181 162h2v-3l4-1v-2h6l-1-3 1-4z" fill="#9e3e3b"/><path d="M381.238 265.707l2.669.013 8.405.093 5.713.041L412 266v9h14l1 7c-3.531 2.354-5.001 2.253-9.184 2.259l-3.863.019-4.176-.012-4.277.006a2177.05 2177.05 0 0 1-8.96-.011 1884.91 1884.91 0 0 0-11.497.007 2095.08 2095.08 0 0 1-8.83 0c-1.413-.001-2.827 0-4.24.005a786.32 786.32 0 0 1-5.918-.014l-3.404-.005C360 284 360 284 358 282c.577-6.577.577-6.577 2-8a235.65 235.65 0 0 1 7-1v-4c4.24-3.819 8.861-3.391 14.238-3.293z" fill="#b42928"/><path d="M117 153h21l1 3h3v2h4v2h4v4l1-1.437c3.098-2.42 6.12-2.244 10-2.562v2h-2v2h-2v2h-2v2h-2v2h2v3h2v3l5 2v2h3v2h2v2h3v3h-21v-23l-4 4c-3.25.25-3.25.25-6 0v2h6v8h-6v-2h-5l-1-5c-1.666-.043-3.334-.041-5 0l-1 1 4 1v5h-3v2h-3v-8l-7 1-1 9h-1c-.143-7.429-.143-7.429 1-11l5-1-2-1-1-3-2-1v-12z" fill="#963c37"/><path d="M357 291h70v7l-15 1-1 6h-46v-6l-8 1v-9z" fill="#b62a2a"/><path d="M328 149h13v4l4 1v2h2l-1-6h3v5h2v2h6v14h9v1h-10v11h-71v-1l1.82-.076 8.117-.362 2.865-.119 2.725-.127 2.523-.111c1.953.001 1.953.001 2.949-1.205l4.91-.098 2.998.01 3.154.025 3.166.014L328 180v-2h2l1-3h2v-2h2v-2h2v-3l4-1v-4h-2v-3h-3v-4l-6-2v-3h-2v-2z" fill="#5e2724"/><path d="M216 149h15v4h2c3 4.385 3 4.385 3 7h2l2 7h-3l-.437 1.875C236 171 236 171 235 173h-2v3h-2v4h-15v-2h-2v-2l-3-1v-2h-2v-2h-3v-4h-4v-3h4v-4h3v-4l1.938-.375L213 155l1-2h2v-4z" fill="#e9c5bf"/><path d="M270 252h14v2h7v4h4v4h5v5h8v14h-17v-8h-15v-5h-6v-3h-3v-11h3v-2z" fill="#da9645"/><path d="M301 209h15v3h-6v46l-1-4h-3v-3h-6v-2h-2v-3l-3-1v-2h-4v-24h4v-3h2v-3h4v-4z" fill="#cfcbc1"/><path d="M319 149h9v2h2v3l6 2v4h3v3h2v4l-4 1v3h-2v2h-2v2c-1.375 1.625-1.375 1.625-3 3h-2v2h-11v-4h-3v-2h-2v-3h-3v-2h-2v-2h-2v-3h2v-4h2v-2h3l1-3h2v-2h2v-2h2v-2z" fill="#a84f48"/><path d="M310 125l1 2h7v7h16v7l3.813-.312c2.207-.008 2.207-.008 4.188.313 2.453 2.837 3 4.251 3 8h5l1.188 2.938L353 155l5 1v14l2 1h-3v-14h-6v-2h-2v-5h-3l1 6h-2l-1-2-3-1v-4H233v4h-2v-4h-14v-3h116v-4h-16v-14h-7v-3z" fill="#4e4847"/><path d="M178 246h3v16h-3v7h3v12h4v3h4v15h8v7h4v8h4v6h8v8h-8v-7l-2.875.063C199 321 199 321 197 320v-2h-4v-4h-4v-12h-4v-3h-4v-17l-8-1v-27l4-1 1-7z" fill="#b07a2f"/><path d="M166 156h21v2l-4 1v3c-5.233 5-5.233 5-9 5v4h3v2l3 1v2h2v2h3c1.688 1.313 1.688 1.313 3 3v3l-10 2v5l-1-4h-7v-3h-3v-2h-2v-2h-3v-2l-5-2v-3h-2v-3h-2v-2h2v-2h2v-2h2v-2h2v-2h4l1-4z" fill="#9c453f"/><path d="M126 249h7v26h8l1-4v2l2 1-2 7h-9v8h-7v6h-1l-1-5-7-1v-28h7v-7h2v-5z" fill="#ab7a3a"/><path d="M121 183h4v2h-3l-1 6h-4v7l-5 1v3c7.118 1.121 13.024.796 20-1 1.148 2.297 1.116 3.583 1.098 6.133l-.01 2.441-.025 2.551-.014 2.574L133 221h-7v13h-9v20h-8c-1.94-1.94-1.133-4.812-1.137-7.389l.012-2.549-.012-2.537.004-2.428.003-2.234C108 235 108 235 109 233c2.322-.407 4.657-.744 7-1l1-12 7-1-.035-1.793-.027-2.395-.035-2.355c.102-2.578.531-4.944 1.098-7.457l-3.246.035-4.191.027-2.143.025c-1.807.009-3.614-.036-5.42-.088-1-1-1-1-1.098-3.066l.035-2.496.027-2.504L109 195h3l.25-2.25c.91-3.337 2.028-4.65 4.75-6.75h4v-3z" fill="#4a2d36"/><path d="M367.867 305.88l2.47.007h2.791l3.033.016 3.09.004 9.813.031 6.635.014L412 306v7h-39v7h-8v15h-8v-22h8l-.062-2.937c.082-3.999.082-3.999 2.929-4.183z" fill="#0c0203"/><path d="M270 149h4v2h2v2h2v2h2v2h2v3h3l1 4h2l-1 3h-2v4h-3v2h-2v2l-4 1v4h-7l-1-4h-2v-2l-4-1v-3h-3v-3h-2v-3h2v-4h3v-4h4v-3h3l1-4z" fill="#e9c0be"/><path d="M222 374h77v7h-77v-7z" fill="#040101"/><path d="M306 184h35v3h9v5l-1-4h-7l-.367 1.863-.508 2.449-.492 2.426C340 197 340 197 338 200c-2.55.265-2.55.265-5.742.109l-3.48-.152-3.652-.207-3.629-.16c-9.634-.464-9.634-.464-13.496-1.59l.07-2.301.055-3.012.07-2.988c.012-2.923.012-2.923-2.195-5.699z" fill="#f0e3d3"/><path d="M248 64h8v8h-7v55h27V84h1v44h-29V72h-6v21h-8v7h-7c-.913-4.971-.913-9.029 0-14h-14v-7h15v6h7v7h6l-.5-2.75c-1.983-14.025-1.983-14.025 1.5-19.25 3.125-.187 3.125-.187 6 0v-6z" fill="#414c4e"/><path d="M149 217h8v4h-7v10h-4v3h-5v9h-2v11h-5v8h-1v-13h-7v5h-9v-20h1v14c5.06-1.476 5.06-1.476 7-5h4v-9h5v-2h4v-4h3v-4h4v-3h4v-4z" fill="#ae7a35"/><path d="M249 86h6v14h7v27h-13V86z" fill="#735845"/><path d="M233 149h8v4l4 1v2h5l1-3h2v-2c2.405-1.203 3.95-1.101 6.625-1.062l2.477.027L264 150l-2 1v2h-3v3h-2v2h-2v2h-3v4h-2v3h3v4h3v2h3v3h2v2h3v2h-9v-2h-3v-2h-2v-2h-5v2h-3v2h-3v2h-5v-2h2l1-5h2v-2h2v-4h4v-3h-3l-.812-3.437L240 157l-3-1-1-2-3-1v-4z" fill="#e7cdc8"/><path d="M412 266h17v6l2.875-.125C435 272 435 272 437 274v6h7v12h-7l-1 7h-1v-8h-2v-2h2v-5h-11l2-4v-5h-14v-9z" fill="#6f4e52"/><path d="M310 72h15v41h-8V79l-7-1v-6z" fill="#050506"/><path d="M233 258h7v17h4v16h8v15h-7v-11h-5v-4h-4v-18h-3v-15z" fill="#a97b36"/><path d="M125 183l8.313-.062 2.381-.025 2.295-.01 2.111-.016C142 183 142 183 145 184l1 8h-5v4l-1.937.375L137 197l-1 2h-19v-8h4l1-6h3v-2z" fill="#933e3b"/><path d="M273 86h3v41h-10V93h7v-7z" fill="#745b48"/><path d="M198 72h15v6h-7v35h-6c-2.551-2.551-2.012-9.392-2.114-12.846l.016-3.936.004-2.118.031-6.601.014-4.516L198 72z" fill="#020203"/><path d="M252 187h8v1h-7l1 7 2 1-3.375 3.938-1.898 2.215C249 204 249 204 247 205v12l-3.437 1.313L240 220c-1.124 3.373-1.303 6.413-1.523 9.941C238 232 238 232 235 234c-.416 2.225-.416 2.225-.293 4.789l.029 2.852.076 2.984.041 3.008L235 255l3.375.313L242 256c2.633 3.95 2.079 6.594 1.875 11.211-.029 2.787-.029 2.787 1.086 5.184 1.331 3.337 1.463 6.339 1.664 9.918l.227 3.801L247 289l7-1v16h6v2h-8v-15h-8v-17h-3v-17h-8v-25h3v-15h8v-15h4v-5h4v-10z" fill="#f3e3c8"/><path d="M139 156h3v2h4v2h4v4l1-1.437c3.098-2.42 6.12-2.244 10-2.562v2h-2v2h-2v2h-2v2h-2v2h2v3h2v3l5 2v2h3v2h2v2h3v3h-21v-23h-4v-2h-3v-2h-3v-4z" fill="#a44842"/><path d="M124.438 147.75l3.799-.062 3.635-.016 3.342-.028c3.155.403 3.8 1.002 5.787 3.356 2.606.722 2.606.722 5 1l1 3c2.015.733 2.015.733 4 1v3c2.915-1.074 4.778-1.778 7-4h6l1-6h1l.063 4.375.035 2.461C166 158 166 158 165 160l-6.062.625-3.348.227L153 161l-1 3h-2v-4h-4v-2h-4v-2h-3l-1-2-21-1v9l-4-2v-3l-4-1v-7c4.458-2.229 10.542-1.23 15.438-1.25z" fill="#5b2629"/><path d="M217 146h109v1h-6v2h-87v4h-2v-4h-14v-3z" fill="#5c2317"/><path d="M365 258h16v8l-1.828.113c-6.238.377-6.238.377-11.172 3.887-.796 2.094-.796 2.094-1 4l-7 1c-1.042 4.615-1.042 4.615 0 9h-3v-9l-6 1 .563 2.625c.907 6.084-.014 12.287-.562 18.375l6 1v1h-8v-26h8v-7h8v-8z" fill="#793235"/><path d="M147 164h2l.25 8.688.102 2.475c.069 4.245.02 6.27-2.367 9.92L145 187v-3l-24-1v3h-4l-.062-4.812-.035-2.707C117 176 117 176 118 173l7-1v8h3v-2h3v-5h-5l2-3 5 1v2l2 1-1 2h5v2h6v-8h-6v-2l3.438-.875L146 166l1-2z" fill="#632623"/><path d="M117 221h8v13h-8v20h-8c-1.94-1.94-1.133-4.812-1.137-7.389l.012-2.549-.012-2.537.004-2.428.003-2.234C108 235 108 235 109 233l7-1 1-11z" fill="#203338"/><path d="M292 93h5v7h5v12l-5 1v8h-6v6h-6v-13h7V93z" fill="#725a48"/><path d="M373 313h39v1h-38v7h-8v15l-7 1-2 7h-7l.063 3.438C350 351 350 351 349 352h-7v6h-8v-7h7v-8h8v-7l16-1v-15h8v-7z" fill="#2b404a"/><path d="M133 281h8v32h-7v-18h-8v-6h7v-8z" fill="#0a0404"/><path d="M241 149h29l-1 4h-3v3h-4v4h-3v4h-2v3h2v3h3v3l4 1v2h2l1 4h-5v-2h-3v-2h-2v-3h-3v-2h-3v-4h-3v-3h2v-4h3v-2h2v-2h2v-3h3v-2h-9v2c-1.187 1.625-1.187 1.625-3 3-2.687.188-2.687.188-5 0l-1-2-3-1v-4z" fill="#a34b46"/><path d="M198 153h9l-2 4h-2v2l-3 1c-.733 2.015-.733 2.015-1 4l-4 1 1 5h2v3h2v2h2v3h4c1.75 1.375 1.75 1.375 3 3v2h-10v-2h-3c-4-4.343-4-4.343-4-7h-2v-2h-2v-2l-3-1v-2h2v-3h2v-2h2v-2h4v-4h3v-3z" fill="#debeb6"/><path d="M210.723 106.902l3.34.035 3.348.027L220 107v7h7v7l2.938-.062C233 121 233 121 234 122v5h-14v-6h-7v-8h-5l-1-5c1-1 1-1 3.723-1.098z" fill="#745b48"/><path d="M357 172h8v30h-8v-30z" fill="#050405"/><path d="M320 150c7.75-.125 7.75-.125 10 1v3l6 2v4h3v3h2v4l-4 1v3h-2v2h-2v2c-1.375 1.625-1.375 1.625-3 3h-2v2h-9v-2h4v-2h2v-2h2v-3l2-1 1-3h4v-3l-4-2v-2h-2l-1-3-2-1v-3h-5v-3z" fill="#edccc7"/><path d="M206 135h111v6l-2-4-40.864.288-18.974.134-18.304.136-6.99.045-9.776.078-2.932.007-2.694.034-2.335.017c-2.401.295-4.044 1.069-6.132 2.262v-5z" fill="#d2a86d"/><path d="M313 188h20v3h5v6h-29v-6h4v-3z" fill="#d89a4b"/><path d="M220 153h3l1 2 5 2v2h2v2h2v3h2v3h-2l-1 4h-3v2h-2v2h-2v3h-5v-2h-2l-1-6 2-1v2h4v-4h4v-3h-4v-4h-4v3h-5c1.929-3.408 3.828-6.741 6-10z" fill="#993535"/><path d="M193 149h23v4h-18v3h-3v4h-4v2h-2v2l-5 2 1 6-10-2v-3l1.875-.25c2.309-.563 2.309-.563 3.375-2.812L181 162h2v-3l4-1v-2h6l-1-3 1-4z" fill="#9f3a38"/><path d="M373 225h7v33h-7v-33z" fill="#010203"/><path d="M313.441 69.77l4.121.043 2.115.002c5.182.045 5.182.045 6.322 1.186l.114 4.061v2.609l-.016 2.835-.004 2.888-.031 9.171-.014 6.201L326 114l-8 1v6h-1v-7h-8v6h-7v-6h3v-7h12v6h8V72h-15v6l-2-1c-.125-2.375-.125-2.375 0-5 2-2 2-2 5.441-2.23z" fill="#565c57"/><path d="M280 149h7v2h2v2h2c1.625 1.375 1.625 1.375 3 3v2h2v2h2v4h3v3h-3v3h-3v3h-3l-2 5h-3v2h-7v-2h3v-2h2v-2h2l1-4h2l1-3h3v-3h-2l-1-4h-4v-4l-3-1v-2h-2v-2h-2v-2z" fill="#e6c3bf"/><path d="M166 156h4v4h-3v3h-2v2h-2v2h-2v4h2v3h3l1 4h3l1 2 3 1v3h3v3h-7v-3h-3v-2h-2v-2h-3v-2l-5-2v-3h-2v-3h-2v-2h2v-2h2v-2h2v-2h2v-2h4l1-4z" fill="#e8c5bd"/><path d="M381 259h30l1 7h-31v-7z" fill="#010204"/><path d="M117 262h8v26h-8v-26z" fill="#020508"/><path d="M245 187h7v10h-4v5h-4v14h-7v-13h3v-6h5v-10z" fill="#ae7a2b"/><path d="M179 156h8v2l-4 1v3c-5.233 5-5.233 5-9 5v4h3v2l3 1v2h2v2h3c1.688 1.375 1.688 1.375 3 3v2h-7v-2l-4-1v-2h-3v-2h-2v-2h-2l-.375-1.937L169 170l-2-1 1-2h2v-2h2v-2h2v-3h3v-2h2v-2z" fill="#ebc7c3"/><path d="M298 149h21v2h-2v2h-2v2c-1.312 1.625-1.312 1.625-3 3h-3v2h-2v4h-2l-1 3v-4l-3-1v-3l-3-1-1-4-2-3h2l1-2z" fill="#b33d37"/><path d="M357 313h8v2l2 1-1 2c3.27-.564 4.826-1.5 7-4v6h-8v15h-8v-22z" fill="#06080a"/><path d="M260 321h8v7h7v15h-7v-9h-4v-4h-4v-9z" fill="#ac7b35"/><path d="M190 350h2v6l13-1v2l3 1-1 5 2.957.148 3.855.227 3.832.211C221 364 221 364 224 366v6h74v-6h1v7h-77v-7h-17v-8h-15v-8z" fill="#b87e54"/><path d="M248 64h8v8h-7v55h27V84h1v44h-29V64z" fill="#332820"/><path d="M356 172h1v20h-7v-5h-9v-3h-80v-1h95v-11z" fill="#b39080"/><path d="M269 156h5v4h2v2h4v2h2v3l-5 1v3h-3l-1 3h-4v-3h-2c-2.125-1.812-2.125-1.812-4-4v-3h2l1-4h2l1-4z" fill="#9e514f"/><path d="M319 153h6v3l3 1v3h2c2.125 1.813 2.125 1.813 4 4v3h-7v-4l-4-1v-2h-4l-2 4h-2v3h4v7h-2v-2h-2v-2h-2l-1-2-3-1v-3h3v-4l5-2v-2h2v-3z" fill="#a14741"/><path d="M334 149h7v4l4 1v2h4v4h3v7h-3v3h-2l-1 4h-3v2h-2v2h-2v2h-5v-2h2v-2h3v-3h2v-3h2v-2l4-1v-3h-2v-4h-4v-4h-2v-3h-3v-2h-2v-2z" fill="#e7c8c3"/><path d="M134 161h5v3l6 1v3h-6v2h6v8h-6v-2h-5l-1-5-5-1v-5l5-1 1-3z" fill="#7b3430"/><path d="M328 149h6v2h2v2h3v3h2v4h4v4h2v3l-4 1v2h-2v3h-2v3h-3v2h-2v2h-6v-2h2l1-3h2v-2h2v-2h2v-3l4-1v-4h-2v-3h-3v-4l-6-2v-3h-2v-2z" fill="#a04d4a"/><path d="M229 217h6c1 1 1 1 1.098 4.16l-.035 3.902-.027 3.91L236 232h-4v26h-3v-41z" fill="#aa7b32"/><path d="M298 167l1 4h-2l1 3-2.437.813L293 176l-1 3h4l.125-1.875L297 175c2.813-1.125 2.813-1.125 6-2l2.063-1.125c2.411-1.089 4.322-1.02 6.938-.875v3h2v2h3v4h-30v-2h3l2-5h3v-3h3v-3z" fill="#a3403c"/><path d="M133 205h9l-1 2-5 1 .105 2.738.082 3.574.105 3.551C136 221 136 221 134.656 222.906c-2.27 1.499-3.997 1.309-6.656 1.094l.359 1.828c.393 2.438.687 4.701.641 7.172-1.937 2.563-1.937 2.563-4 4l2 2-2.812 4.5-1.582 2.531L121 248h-3v-14h8v-13h7v-16z" fill="#d69b4f"/><path d="M209 158h4l-1 5h-2v4h3v4h3v2h2v3h2v2h5v-2h4l1-2c1 1 1 1 1 6h-15v-2h-2v-2l-3-1v-2h-2v-2h-3v-4h-4v-3h4v-4h3v-2z" fill="#e9cbc3"/><path d="M117 153h17v3h-2v2h-2v2h-2v2h-2v2h-2v6c-1.937-.312-1.937-.312-4-1l-1-3-2-1v-12z" fill="#5a3e46"/><path d="M365 203h8v21h-8v-21z" fill="#010202"/><path d="M274 149h6v2h2v2h2c1.625 1.25 1.625 1.25 3 3v4h4l1 4h2v3l-3 1c-2.365 2.001-2.989 2.968-4 6h-2v2h-2v2l-6-1-1 3v-4l4-1v-2h2v-2h3v-4c1.5-1.75 1.5-1.75 3-3h-2l-1-4h-3v-3h-2v-2h-2v-2h-2v-2h-2v-2z" fill="#a0514b"/><path d="M270 149l4 1-3 1v3l2 2h-4l-1 4h-2l-1 4h-2v3l4 2v2h2v3l4 1h-3v5l-2-4h-2v-2l-4-1v-3h-3v-3h-2v-3h2v-4h3v-4h4v-3h3l1-4z" fill="#e0c5c0"/><path d="M185 164h2v3h-2l1.5 1.375C188 170 188 170 188 172h2v2h2l.313 1.938L193 178l3 1v2h3v2h-11v-2l-3-1v-2h-3v-2h-2c-1.625-1.375-1.625-1.375-3-3v-2h-3l1-4v3h3.938H184l1-6z" fill="#b04238"/><path d="M149 191h28v1h-16v2h-4v3h-7v8h-9v-6h4v-4h4v-4z" fill="#ac7135"/><path d="M299 358h18v8h-18v-8z" fill="#c18b53"/><path d="M121 187h5v2h2l1 5 5 1v4h-17v-8h4v-4z" fill="#a36560"/><path d="M110 234h7v20h-7v-20z" fill="#050505"/><path d="M319 149h9v1h-8l-1 6h-2v2l-5 2v4h-3v3l4 1v2h2v2h2v2h2v6h-2v-4h-3v-2h-2v-3h-3v-2h-2v-2h-2v-3h2v-4h2v-2h3l1-3h2v-2h2v-2h2v-2z" fill="#d2958a"/><path d="M149 217h8v4h-7v10h-4v3h-6v-3l-2-1v-2h3v-4h4v-3h4v-4z" fill="#b1782d"/><path d="M190 142h15v2h-13l-1 4h17v1h-15v4h-20v-4h17v-7z" fill="#cc9d68"/><path d="M369.063 265.938L372 266l-1.937 1.75c-2.045 2.231-2.645 3.324-3.062 6.25l-7 1c-1.042 4.615-1.042 4.615 0 9h-3v-9l-6 1 .563 2.625c.907 6.084-.014 12.287-.562 18.375l6 1v1h-8v-26h16v-6c1-1 1-1 4.063-1.062z" fill="#a7403f"/><path d="M412 266h16v8h-16v-8z" fill="#010204"/><path d="M141 194l2 3-2.437.75c-2.734.972-2.734.972-3.375 3.375L137 203h-5l-1-1-3.937 1c-5.206 1.255-9.816.811-15.062 0l-1-4 5-2 1 1c1.413.156 2.834.251 4.254.316l2.588.127 2.721.119 2.732.131L136 199l1-3h4v-2z" fill="#662925"/><path d="M349 156l1 2h3v22h-14v-2h2v-2h2v-2h3l1-4h2v-3h3v-7h-3v-4z" fill="#a65c57"/><path d="M178 246h3v16h-3v7l-1-4h-2l-1 16h-1v-27l4-1 1-7z" fill="#b77e31"/><path d="M214 159c2.131 1.065 3.366 2.292 5 4v-3h4v4h4v3h-4v4l-5-1-2 3v-2h-3v-4h-3v-4h2l2-4z" fill="#a6504b"/><path d="M135 148l5 1 1 2c2.527.656 2.527.656 5 1l1 3c2.015.733 2.015.733 4 1v3c2.915-1.074 4.778-1.778 7-4h6l1-6h1l.063 4.375.035 2.461C166 158 166 158 165 160l-6.062.625-3.348.227L153 161l-1 3h-2v-4h-4v-2h-4v-2h3v-3h-6v-3l-4-2z" fill="#584c59"/><path d="M295 262h5v5h8v14h-17v-8h-15v-5h2l1 3 2.809.184 3.629.254 3.621.246C292 272 292 272 293 273v6h13v-9l-7-1-.312-2.375c-.463-2.955-.463-2.955-3.687-4.625z" fill="#c99c64"/><path d="M205 366h17v7h-17v-7z" fill="#0b0403"/><path d="M300 366h17v7h-17v-7z" fill="#030304"/><path d="M270 252h14v2h7v4h4l-1 4c-2-1.312-2-1.312-4-3v-3l-8.937-.562-2.576-.17-2.451-.146-2.269-.143c-1.793-.183-1.793-.183-2.766 1.022-.5 3.416-.5 3.416 0 7 2.409 1.862 2.409 1.862 5 3v2h-6v-3h-3v-11h3v-2z" fill="#c99557"/><path d="M216 184v3h-38c9.939-7.454 26.143-3.778 38-3z" fill="#662519"/><path d="M233 153l4 1v2l4 1 1 7h3v3h-4v4h-2v2h-2l-1 5h-2v2h-3v-4h2v-3h2l2-6h3l-1-1.812C238 163 238 163 238 160h-2c-3-4.385-3-4.385-3-7z" fill="#a15c5a"/><path d="M316 139l1 2 8.063.625 2.299.117L333 142v3h-37v-1h9v-2c3.586-2.39 6.709-3 11-3z" fill="#d1944a"/><path d="M141 314h8v14h-8v-14z" fill="#060609"/><path d="M153 248h4v17h-4v4h-4v-11h4v-10z" fill="#b87c2e"/><path d="M126 205h7v16h-7v-16z" fill="#020103"/><path d="M313 188h20v3h5v6h-29v-6h4v-3zm-2 5v3l8.063.063 2.279.025c4.665.02 9.057-.312 13.658-1.088v-2h-2v-2h-2v-2c-10.665-.388-10.665-.388-20 4z" fill="#c99c65"/><path d="M365 299v6h46v-6h1v7l-19.641.482-6.675.166-9.622.231-2.99.082c-5.48.117-10.652-.129-16.072-.961v-6c2.709-1.354 5.009-1.065 8-1z" fill="#873033"/><path d="M166 149h7v4h19l1 3h-27v-7z" fill="#642414"/><path d="M276 343h15v8h-8v-2h-7v-6z" fill="#b07935"/><path d="M149 178h2v2h2v2c3.522.08 6.62.04 10-1v2l4-1v2h3v3h-21v-9z" fill="#ab4945"/><path d="M318 358h15v7h-15v-7z" fill="#040506"/><path d="M174 351h15v7h-15v-7z" fill="#060305"/><path d="M166 336h7v15h-7v-15z" fill="#070202"/><path d="M150 328h15v7h-15v-7z" fill="#070304"/><path d="M174 142h15v7h-15v-7z" fill="#050404"/><path d="M318 135h15v7h-15v-7z" fill="#0d0b07"/><path d="M141 281h2c.863 3.719 1.117 7.143 1.098 10.957l-.01 3.369-.025 3.486-.014 3.545L144 311l7 1v15h14v1h-15v-15h-9v-32z" fill="#af7a50"/><path d="M190 359h14v7c-4.793 1.392-9.151.687-14 0v-7z" fill="#03040a"/><path d="M272.02 250.477l4.793.148 2.408.043c4.343.108 8.506.493 12.779 1.332l.375 1.875c.497 2.316.497 2.316 2.625 4.125h-4v-4h-7v-2h-14v2h-3v11h3v3h6v5h-2v-3l-2.812-.25C268 269 268 269 266.125 267.5c-2.13-4.733-1.856-9.425-.152-14.262 2.324-2.566 2.751-2.592 6.047-2.762z" fill="#f5e5cc"/><path d="M222 374l2 1 1 4h71v-2l3-1v5h-77v-7z" fill="#000810"/><path d="M252 306h7v14h-7v-14z" fill="#aa7c35"/><path d="M244 275h2l1 14 7-1v16h6v2h-8v-15h-8v-16z" fill="#ebdcc2"/><path d="M213 79h14v7h-14v-7z" fill="#030305"/><path d="M292 341c2 2 2 2 2.125 4.625L294 348l7 1 1 7h15v2h-18v-7h-8v-8h-15v-1c5.239-1.103 10.663-1.566 16-1z" fill="#eddcc5"/><path d="M295 258l2 1v2l6-1 1 2h-2v2l6-1 1 2 4 2-.812 5.875-.457 3.305C311 279 311 279 308 281v-14h-8v-5h-5v-4z" fill="#f0e7d7"/><path d="M252 187h8v1h-7l1 7 2 1-3.375 3.938-1.898 2.215C249 204 249 204 247 205v12l-3.375 1.375c-3.587 1.35-3.587 1.35-5.625 3.625v-4l5-1 1-15h4v-5h4v-10z" fill="#ebdec4"/><path d="M198 153h9l-2 4h-2v2l-3 1c-.733 2.015-.733 2.015-1 4-3.576 1.238-6.337.749-10 0v-2h2v-2h4v-4h3v-3z" fill="#e4bcb9"/><path d="M126 249h7v13h-7v-7l-2-1h2v-5z" fill="#050304"/><path d="M158 187h19v4h-27l-1-2h9v-2z" fill="#69261c"/><path d="M125 172v11h-4v3h-4l-.062-4.812-.035-2.707C117 176 117 176 118 173c3-1 3-1 7-1z" fill="#030508"/><path d="M412 299h15l-1 6-14 1v-7z" fill="#010205"/><path d="M193 149h23v4h-23v-4z" fill="#6f311f"/><path d="M270 157h3v3h-2v4h-2l1 3c2.504 1.219 2.504 1.219 5 2l-2 5h-4v-3h-2c-2.125-1.812-2.125-1.812-4-4v-3h2l1-4h4v-3z" fill="#a14842"/><path d="M190 135h15v6h-15v-6z" fill="#030506"/><path d="M139 156h3v2h4v2h4v4l1-1.437c3.098-2.42 6.12-2.244 10-2.562v2h-2v2h-2v2c-2.763.597-5.16 1-8 1v-3h-4v-2h-3v-2h-3v-4z" fill="#8d403e"/><path d="M381 259c2 2 2 2 2 5l3.84-.496c5.253-.584 10.443-.617 15.723-.566l2.768.014L412 263v3h-31v-7z" fill="#200302"/><path d="M320 158c-.812 2.438-.812 2.438-2 5l-3 1v3h4v7h-2v-2h-2v-2h-2l-1-2-3-1v-3h3v-4c4.177-3.274 4.177-3.274 8-2z" fill="#a04940"/><path d="M320 150c7.75-.125 7.75-.125 10 1v3l6 2v3l-4-1-1 2 3 1v3l-4-2v-2h-2l-1-3-2-1v-3h-5v-3z" fill="#e0bbb5"/><path d="M373 258h8v8h-15l1-6 3.813-.062 2.145-.035C375 260 375 260 378 261l1 3 1-5h-7v-1z" fill="#812326"/><path d="M298 167l1 4h-2l1 3-2.437.813L293 176l-1 3h4l1-4 6-1v4h3v2h-19v-2h3l2-5h3v-3h3v-3z" fill="#a44b47"/><path d="M287 149h11l-1 3 3 3h-2l1 3 2 1v2h-2v2l2 1h-3v-4h-2v-2h-2v-2l-3-1v-2h-2v-2h-2v-2z" fill="#95453e"/><path d="M356 264l2 1-1 8h-8v26h8v7l-.562-1.875c-2.136-3.158-4.856-3.214-8.437-4.125l-.562-11.187-.17-3.197-.146-3.096-.143-2.841c.022-2.692.406-5.064 1.022-7.679l2.875-.625c3.417-1.083 3.417-1.083 4.5-4.5L356 264z" fill="#f9e0de"/><path d="M444 280v11h-8v-10l8-1z" fill="#080912"/><path d="M123 166l5 1-1 5 4 1v5h-3v2h-3v-8l-7 1-1 9h-1c-.143-7.429-.143-7.429 1-11l6-1v-4z" fill="#3e3845"/><path d="M134 161h5v3l6 1v2l-2.117.148-2.758.227-2.742.211c-2.562.21-2.562.21-4.383 2.414h-5v-5l5-1 1-3z" fill="#d2b3ae"/><path d="M346 150h3v5h2v2h6v14h9v1h-10l-1-4h-2v-10h-3v-2h-3l-1-6z" fill="#382730"/><path d="M244 158h3v2h2l-1 7 4 2-1 4-10-1v-5h4l-1-9z" fill="#e5dbd7"/><path d="M133 205h9l-1 2-5 1 .105 2.738.082 3.574.105 3.551C136 221 136 221 134.656 222.906c-2.27 1.499-3.997 1.309-6.656 1.094l-1 9h-1v-12h7v-16z" fill="#c2945e"/><path d="M220 153h3l1 2 5 2v2h2l-1 2-5-2-1 4 3 1h-4v-4h-4v3h-5c1.929-3.408 3.828-6.741 6-10z" fill="#9e403d"/><path d="M216 149h15l-1 4v-3h-13v2h7v2h3v2l-4-1v-2h-3l-.937 1.875L217 159l-4 1v-2h-4v-2l1.938-.375L213 155l1-2h2v-4z" fill="#d0a5a1"/><path d="M187 164h8v9l-5 1v-2h-2v-2l-3-1v-2h2v-3z" fill="#e7d7d6"/><path d="M214 176v2h2l1 5c-4.184 2.064-7.206 2.09-11.812 1.625l-3.52-.336L199 184v-1h10l-2-6c2.463-1.231 4.28-1.072 7-1z" fill="#943c38"/><path d="M227 100h6v13h-5c-1.102-4.409-1.077-8.484-1-13z" fill="#6d5545"/><path d="M216 183h45l-1 4h-8v-3h-35l-1 3v-4z" fill="#b47449"/><path d="M170 156h9v2h-2v2h-3v3h-2v2h-2v2h-4l1-7h3v-4z" fill="#9d433d"/><path d="M379 266h32v8l-.937-1.937c-.897-1.999-.897-1.999-2.062-3.062l-5.934-.246-3.654-.1-7.687-.172-3.658-.104-3.377-.076C381 268 381 268 379 266z" fill="#a13435"/><path d="M277 177h3v3h26l-1 2-29 1-1-3h2v-3z" fill="#662c2b"/><path d="M277 168l4 1-1 6-4 1v4h-6v-5h3l1-4h3v-3z" fill="#edcecc"/><path d="M299 358h14v5h-14v-5z" fill="#b0782f"/><path d="M292 86h10v7h-10v-7z" fill="#070606"/><path d="M316 258h1v7h24v1l-1.88.076-8.432.362-2.959.119-2.842.127-2.618.111c-2.433.133-2.433.133-5.268 1.205a89.47 89.47 0 0 1-4-2h-3v-5h3c1.625-1.458 1.625-1.458 3-3z" fill="#dedfdd"/><path d="M193 176v2l3 1v2h3v2h-11v-2l-3-1v-3c3.067-1.862 4.597-2.215 8-1z" fill="#9f3836"/><path d="M306 149h13v2h-2v2h-2v2c-2.709 1.354-5.009 1.065-8 1l-1-7z" fill="#9f3734"/><path d="M125 255h1v33h7v1h-7v6h-1l-1-5-7-1v-1h8v-26h-8v-1h7l1-6z" fill="#3e4b46"/><path d="M333 184h8v3h9v5l-1-4h-7l-2 9h-2v-6h-5l1-3h2v-2l4-1h-7v-1z" fill="#ecdccc"/><path d="M323 160v2h2l1 5h-3v3h-4v-3h-4c0-3 0-3 1.75-5.187C319 160 319 160 323 160z" fill="#d49e98"/><path d="M116.008 147.902l2.988.01 3.129.025 3.152.014L133 148v2h-23v5l5 1 2 6-4-2v-3l-4-1v-7c2.505-1.252 4.209-1.114 7.008-1.098z" fill="#536f77"/><path d="M309 198l12 1-2 1v4h22v1l-11.812.5-3.393.145-3.252.137-2.999.127L314 206l-.25-2.312c-.602-3.211-.602-3.211-4.75-5.687z" fill="#e0e0db"/><path d="M344 146l1 3h5l1.188 2.938L353 155l5 1v14l2 1h-3v-14h-6v-2h-2v-5h-3l1 6h-2l-1-2-3-1 1-4 1 1 1-4z" fill="#5b5c63"/><path d="M223 167h4v2l-2 1 2 5h-2v3h-5v-2h-2l-1-6 2-1v2h4v-4z" fill="#a34d46"/><path d="M214 153l-1 3h-4v4h-3v4c-3.27-.564-4.826-1.5-7-4l4-1v-2c3.211-4.368 5.767-4.403 11-4z" fill="#a65650"/><path d="M213 72h1v6l2-.562c3.893-.568 7.114-.03 11 .563v1h-14v5l-7 1v-7h7v-6z" fill="#404947"/><path d="M206 102l1 4h13v1l-12 1v4l5 1v1h-7v7h-1v-6h-7v-11h1l1 8 6 1v-11z" fill="#5a463b"/><path d="M234 252l1 3 3.375.313L242 256c2.257 3.385 2.197 4.437 2.063 8.375-.118 3.731.084 6.984.938 10.625l-4-1v-17l-7-1v-4z" fill="#f1e8d8"/><path d="M317 250h8v8h-8v-8z" fill="#d4d3d3"/><path d="M333 219h8v8h-8v-8z" fill="#c2c2c2"/><path d="M184 161l2 4-2 1 1 6-10-2v-3l1.875-.25c2.305-.544 2.305-.544 3.188-2.75l.938-2 3-1z" fill="#a9473d"/><path d="M179 156h8v2l-4 1v3c-2.901 1.934-3.897 2.301-7.187 2.625L172 165v-2h2v-3h3v-2h2v-2z" fill="#e0b9b3"/><path d="M284 114h1v13h16l-.437-4.812-.246-2.707c-.251-2.608-.251-2.608-1.316-5.48h3v6h7v-6h1v7h-8v7h-18v-14z" fill="#45372e"/><path d="M256 58l4.375-.125 2.461-.07C265 58 265 58 267 60v4h-11v-6z" fill="#030204"/><path d="M269 320h1v6l1.75-.75c2.25-.25 2.25-.25 4.438 1 2.448 3.714 2.342 6.909 2.441 11.289L279 340l3 2h-6v-14h-8c-.042-2.333-.041-4.667 0-7l1-1z" fill="#f3e9d5"/><path d="M245 174h5v2h2v2h3v2h-16v-2h3v-2h3v-2z" fill="#a14b4a"/><path d="M139 150v3h6v3h-6l-2-5h-26l1 4h-2v-5l11.125-.562 3.172-.17c5.052-.24 9.734-.428 14.703.732z" fill="#4a2c34"/><path d="M128 183h6l1 4h2v-2h3l-1 6h-6v-2h-2v-2h-3v-4z" fill="#daada7"/><path d="M331 157l8 3v3h2v4l-6 2c-1-1-1-1-1.437-4.5L333 161l-2-1v-3z" fill="#ebd5d3"/><path d="M273 150l3 1v2h2v2h2l1 5h-7l-.312-1.875c-.563-2.49-.563-2.49-3.687-4.125l1-3 2-1z" fill="#e8d2d0"/><path d="M192 144h14v3l2 1h-17l1-4z" fill="#da9f51"/><path d="M248 197v5h-4v14h-7v-2l4-1 .563-3.812.316-2.145c.26-2.246.26-2.246-.879-5.043 4.773-5 4.773-5 7-5z" fill="#9d773e"/><path d="M121 187h5v2h2l1 5 5 1v4h-3v-2h-3v-2h-2v-3l-5-1v-4z" fill="#e1afaa"/><path d="M156 175v2l6 1v2h3l1 4-3-1v-2l-1.75 1c-2.25 1-2.25 1-6.25 1l-.812-2.312c-1.132-2.561-2.1-3.884-4.187-5.687 2.491-1.245 3.411-.777 6 0z" fill="#9f3b36"/><path d="M349 172c1.063 1.75 1.063 1.75 2 4l-1 4h-11v-2h2v-2h2v-2l6-2z" fill="#ac4238"/><path d="M291 121h10v6h-10v-6z" fill="#594336"/><path d="M310 197h28v3l-12.875-.375-3.707-.094-3.535-.117-3.269-.095C312 199 312 199 310 197z" fill="#f5e1c6"/><path d="M245 187h7v10c-4.4-1.1-4.4-1.1-7-5v-5z" fill="#af7a30"/><path d="M353 168h2c1.634 4.901 1.055 9.857 1 15h-14v-1l11-1v-13z" fill="#532014"/><path d="M302 78l8 1v7h-8v-8z" fill="#060708"/><path d="M291 351h8v7h-8v-7z" fill="#ad7a2f"/><path d="M428 291h7v8h-7v-8z" fill="#110507"/><path d="M345 167l2 1-2 2 2 2-1 2h-3v2h-2v2h-2v2h-5v-2h2v-2h3v-3h2v-3h2v-2l2-1z" fill="#edc5c0"/><path d="M310 114h7v8h-7v-8z" fill="#1c2930"/><path d="M427 299h8v1h-6l.063 2.938C429 306 429 306 428 307l-7.562.063-2.154-.014L413 307v6h-1v-7c3.155-.936 5.966-1.106 9.25-1.062l2.703.027L426 305l1-6z" fill="#405861"/><path d="M217 174l1 2h2v2h5v-2h4l1-2c1 1 1 1 1 6h-14v-3h-2v-2l2-1z" fill="#edd2cd"/><path d="M217 150h13v3h2v4h-5v-3h-3v-2h-7v-2z" fill="#e6d2cc"/><path d="M350 274h6l-2 2h-3l.563 2.625c.907 6.084-.014 12.287-.562 18.375l6 1v1h-8l1-25z" fill="#7f3839"/><path d="M233 149h8v4l4 1c-1.75 1.563-1.75 1.563-4 3-2.187-.187-2.187-.187-4-1l-1-2-3-1v-4z" fill="#d6afb0"/><path d="M298 149h8v4h-2l1 3c-2.75.313-2.75.313-6 0-2.375-2.5-2.375-2.5-4-5h2l1-2z" fill="#b35b54"/><path d="M365 203h8v21h-1v-18h-2v-2h-4v20h-1v-21z" fill="#0e1418"/><path d="M125 205h1v29h-1v-13h-8c2-2 2-2 4.625-2.125L124 219l-.035-1.793c-.048-4.209-.025-8.099 1.035-12.207z" fill="#426c68"/><path d="M307 167h5l1 3h2v2h2v2h2v6h-2v-4h-3v-2h-2v-3h-3v-2h-2v-2z" fill="#d18e82"/><path d="M165 149h1l.063 4.375.035 2.461C166 158 166 158 165 160h-8l1-5h6l1-6z" fill="#51474f"/><path d="M130 153h4v3h-2v2h-2v2h-2v2h-2v2h-5v-2h3v-3h2v-2h2v-2h2v-2z" fill="#e7b5af"/><path d="M109 195h1l1 8c7.29.249 13.907-.277 21-2l1 4-11.437.063-3.299.025-3.135.01-2.904.016C110 205 110 205 109 204c-.072-1.519-.084-3.042-.062-4.562l.027-2.504L109 195z" fill="#564750"/><path d="M198 175l3.813 1.313 2.145.738c2.219 1.031 3.502 2.058 5.043 3.949v2h-10l-2-6 1-2z" fill="#f2ccc9"/><path d="M147 164h2v14c-2.829-2.829-3.376-3.381-4-7l-6-1v-2l3.438-.875L146 166l1-2z" fill="#632220"/><path d="M412 266c2 2 2 2 2 5l13 1v-6h1v8h-16v-8z" fill="#290b0b"/><path d="M334 351h7v7h-7v-7z" fill="#000a12"/><path d="M342 343h7v7h-7v-7z" fill="#020809"/><path d="M260 321h7v7c-2.375.625-2.375.625-5 1-2-2-2-2-2.125-5.125L260 321z" fill="#a27737"/><path d="M249 294c1.374 3.818.68 7.073 0 11l2 1h-6v-11c2-1 2-1 4-1z" fill="#ad7a2e"/><path d="M428 274h7v7h-7v-7z" fill="#2a0102"/><path d="M149 217h8v4h-7v10h-4l-1 3v-4h4v-13z" fill="#c48537"/><path d="M270 149l4 1-3 1v3l2 2h-4l-1 4h-2l-2 4v-5h2v-2l-4-1h4v-3h3l1-4z" fill="#e5bfbb"/><path d="M206 114h7v7h-7v-7z" fill="#090301"/><path d="M269 64h7v7h-7v-7z" fill="#030204"/><path d="M149 178h2v2h2v2h2v2h2v3h-8v-9z" fill="#e6c7c4"/><path d="M220 160h3v4h4v3h-4v3h-3v-3h-2v-3h2v-4z" fill="#daa6a7"/><path d="M317 142h16v3h-16v-3z" fill="#d8a86f"/><path d="M234 114h7v7h-6c-1-1-1-1-1.062-4.062L234 114z" fill="#71594b"/><path d="M268 179.813l3.813-.043C275 180 275 180 277 182c-1.981 1.981-5.734 1.185-8.437 1.188l-2.104.037c-1.821.005-3.642-.103-5.459-.225l-2-2c2.97-1.485 5.698-1.171 9-1.187z" fill="#562726"/><path d="M346 158h3v2h3v7h-3v3l-4 1-1-2 3-2c.291-3.416.087-5.738-1-9z" fill="#e8d5d1"/><path d="M328 149h6v2h2v2h2v5l-2 1v-3l-6-2v-3h-2v-2z" fill="#923c39"/><path d="M365 224h8v34h-1l-.076-2.523-.296-9.275-.184-5.985-.127-3.799-.111-3.507c-.089-2.975-.089-2.975-1.205-5.911l1-1-6-1v-1z" fill="#dad6d9"/><path d="M267 254l3 1-.187 3.313c-.146 3.564-.146 3.564 1.5 5.563 1.805 1.31 1.805 1.31 4.688 2.125v2h-6v-3h-3v-11z" fill="#caa476"/><path d="M145 171v7h-6v-2h-2v-2h2v-2c2-1 2-1 6-1z" fill="#c7a3a0"/><path d="M199 164c1.552 3.59 2 6.105 2 10h3v2l2 2h-4v-3h-2v-2h-2v-3h-2l-1-5c2-1 2-1 4-1z" fill="#a7554c"/><path d="M285 160l5 3 1-3 1 4h2v3l-3 1-1 2h-2v-2l-3-1 3-3h-2l-1-4z" fill="#a65750"/><path d="M117 153h9l-2 4h-3v3h-4v-7z" fill="#eccdc9"/><path d="M121 183h4v2h-3l-1 6h-7v4h-2c.349-3.143.839-4.795 2.813-7.312C117 186 117 186 121 186v-3z" fill="#54494f"/><path d="M145 171l2 4 2 3c-.206 3.294-.426 5.311-2.562 7.875L145 187v-3l-3-1h2l1-12z" fill="#6e3232"/><path d="M412 299h15v2c-3.015 1.005-5.042 1.103-8.187 1.063l-2.73-.027L414 302l-1 4h-1v-7z" fill="#200000"/><path d="M227 86h6v7h-6v-7z" fill="#050605"/><path d="M249 64h6v7h-6v-7z" fill="#000205"/><path d="M424 291h3v7h-15l1-2h12l-1-5z" fill="#ac3133"/><path d="M117 234h1v14l2 1-1 3h5l1-2v4h-8v-20z" fill="#9f845d"/><path d="M259 306h1v24c-3-4-3-4-3-8l-5-1v-1h7v-14z" fill="#bf904d"/><path d="M270 251l7.625-.062 2.16-.025c4.188-.019 8.088.261 12.215 1.088l.375 1.875c.497 2.316.497 2.316 2.625 4.125h-4v-4h-7v-2h-14v-1z" fill="#f3dcbe"/><path d="M276 64h1v6h6l1 2h-7v12h-1V72h-7v-1h7v-7z" fill="#2d3b3e"/><path d="M134 183l3.813-.062 2.145-.035C142 183 142 183 145 184v3h-2v2l-4-2 1-2h-3v2h-2l-1-4z" fill="#a4726f"/><path d="M232 153c2.358 2.284 3.887 4.008 4.266 7.336L236 167l-1-3h-2v-3h-2v-2h-2v-2h3v-4z" fill="#e6c4c0"/><path d="M199 153h8l-2 4h-2v2l-5 1 1-7z" fill="#e8c3bc"/><path d="M276 343h15v7l-2-2v-3h-13v-2z" fill="#9e7845"/><path d="M127.625 247.438l3.039.309L133 248v1h-7v5l-2-2c-2.584-.167-2.584-.167-5 0 .375-1.937.375-1.937 1-4 2.728-1.364 4.61-.878 7.625-.562z" fill="#976d37"/><path d="M126 205h7v16h-7l1-2h4v-12l-5-1v-1z" fill="#180703"/><path d="M206 171h3v2h2l1 3-1.937.813c-2.394 1.074-2.394 1.074-3.062 4.188l-.312-1.937L206 177l-3-1c1.313-2.5 1.313-2.5 3-5z" fill="#a8453f"/><path d="M198 72l4 1-2 2c-.373 3.01-.373 3.01-.414 6.539l-.117 3.945-.094 4.141-.117 4.164L199 104h-1V72z" fill="#000711"/><path d="M359 299h6v6l-7-1 1-5z" fill="#912327"/><path d="M314 188h19v3h-2v-2l-7.375.938-2.117.264c-3.876.462-3.876.462-7.508 1.799v-4z" fill="#c7995f"/><path d="M244 173v3h-2v2h-3v2h-5v-2h2v-2h2v-2c3-1 3-1 6-1z" fill="#efcfc8"/><path d="M310 171l1 6-5-1v2h-3v-6c2.491-.687 4.379-1 7-1z" fill="#b23b34"/><path d="M295 258l2 1v2l6-1 1 2h-2v3h5l1 2h-8v-5h-5v-4z" fill="#f3e4d3"/><path d="M118 192h3v3l5 2v2h-8v-7z" fill="#eacac6"/><path d="M260 184l4 1-5 5h-3l-2 6h-1v-8h7v-4z" fill="#f2ead7"/><path d="M125 173h6v5h-3v2h-3v-7z" fill="#c79665"/><path d="M210 167h3v4h3v2l2 1-3 1v2h2l-1 3v-2h-2v-2l-3-1 1-7-2-1z" fill="#e5bdb7"/><path d="M139 156h3v2h3v3h4v3h-4v-2h-3v-2h-3v-4z" fill="#b9857f"/><path d="M299 161l5 2v4h3v2h2l-1 2-2-1v-2l-7 2v-3h2v-4h-2v-2z" fill="#9d3c34"/><path d="M306 156h6v2h-3v2h-2v4h-2l-1 3v-8h2v-3z" fill="#ab4640"/><path d="M295 153l5 1-2 1 1 3 2 1v2h-2v2l2 1h-3v-4h-2v-2h-2l1-5z" fill="#ab4e48"/><path d="M300 366h15v1c-4.053.982-7.839 1.082-12 1l-2 4h-1v-6z" fill="#200a00"/><path d="M359 268h6v5l-8 1 2-6z" fill="#922425"/><path d="M126 249h7v13h-7l1-2h4l1-9-6-1v-1z" fill="#1c0701"/><path d="M235 218h1v14h-4l.938-6.437.527-3.621C234 219 234 219 235 218z" fill="#9b7842"/><path d="M251 183h10l-1 4h-8l-1-4z" fill="#a27346"/><path d="M241 149h5v3l3 1v3h-4l-1-2-3-1v-4z" fill="#96423e"/><path d="M299 358h14v2l-13 1-1-3z" fill="#a67e4b"/><path d="M353 184h4v8h-7l1-4 5 2v-3h-3v-3z" fill="#bc9460"/><path d="M125 183h3l1.625 3.813.914 2.145L131 191l-2 3-1-5h-2v-2h-4v-2h3v-2z" fill="#99463f"/><path d="M307 180h10v2l7-1v2h-16l-1-3z" fill="#591e1f"/><path d="M330 167c4.75.875 4.75.875 7 2v2h-2v2h-2v2l-2-1 1-3-3-1 1-3z" fill="#e7c3bf"/><path d="M192 153h6v3h-3v4h-3v-3h-5v-1h6l-1-3z" fill="#8f3d39"/><path d="M126 153h4v2h-2v2h-2v2h-2v3l-3-1v-4l3-1 2-3z" fill="#a26061"/><path d="M326 184l14 1-1 2-3-1v2l2 1c-4.389-.665-7.981-2.188-12-4v-1z" fill="#f4ede7"/><path d="M227 164h5l-1 4-4 1v-5zm-3 5l5 1v3c-1.937-.312-1.937-.312-4-1l-1-3z" fill="#a23932"/><path d="M166 156h4v4h-3v3l-6-1v-2h4l1-4z" fill="#e1b6b2"/><path d="M334 149h7v4l2 1h-2v2h-2v-3h-3v-2h-2v-2z" fill="#e3bebb"/><path d="M255 149h15l-1 4h-3l-1 3-1-5-9-1v-1z" fill="#a56261"/><path d="M304 137h11l-1 3c-1.848.73-1.848.73-4.062 1.188l-2.223.48L306 142l-2-5z" fill="#dba350"/><path d="M198 104h1l1 8 6 1v8h-1v-6h-7v-11z" fill="#2a4851"/><path d="M233 258h7v16h-1l-.043-2.52-.145-3.293-.105-3.27c-.423-3.135-.423-3.135-3.258-4.742L233 259v-1z" fill="#98763f"/><path d="M260 174c2.763.523 5.326 1.109 8 2 .688 2.063.688 2.063 1 4h-5v-2h-3l-1-4z" fill="#9d433f"/><path d="M185 164h2v3h-2l1.5 1.375C188 170 188 170 188 172h2v2h2l-1 2c-2.375-.187-2.375-.187-5-1-1.922-3.057-2.032-4.713-1.625-8.312L185 164z" fill="#af5d55"/><path d="M292 162l5 1 1 2 3-1v3h-3l-1 3-3-2v-4h-2v-2z" fill="#e5bcb8"/><path d="M134 161h5v3l6 1v1c-8.571.286-8.571.286-12-2l1-3z" fill="#9d7d79"/><path d="M333 173l3 3v2h-2v2h-6v-2h2l1-3h2v-2z" fill="#994b46"/><path d="M174 172c2.375.188 2.375.188 5 1 1.313 2.563 1.313 2.563 2 5h-6l-1-6z" fill="#e7d5ce"/><path d="M214 159c2.131 1.065 3.366 2.292 5 4l1-3v4h-2v3h-2v-3h-6l2-1 2-4z" fill="#c27872"/><path d="M291 158h5v2h2l1 6-2-1v-2l-6-1v-4z" fill="#edd2ca"/><path d="M227.25 156.313L229 157v2h2l-1 2-5-2-1 4 3 1h-4v-4l-2-1c3.446-3.077 3.446-3.077 6.25-2.687z" fill="#ac5754"/><path d="M134 153l5 1v2c-5.294 4-5.294 4-9 4v-2h2v-2h2v-3z" fill="#84312c"/><path d="M284 254h7v4h4l-1 4c-2-1.312-2-1.312-4-3v-3h-6v-2z" fill="#c99a64"/><path d="M124 221h1v13h-8c2-2 2-2 5-3l2-10z" fill="#1a0702"/><path d="M128 170l5 1v2l2 1-2 4h-2v-5h-5l2-3z" fill="#703520"/><path d="M209 158h4l-1 5h-2l-1 3h-2v-6h2v-2z" fill="#edd7d2"/><path d="M281 157l1 3h3l1 4h-6v-2h-4v-2h5v-3z" fill="#e1c0bb"/><path d="M127 280c3 0 3 0 6 2l-2 5h-4v-7z" fill="#a47637"/><path d="M313 188l1 4-2 1-1 3h9v1h-11v-6h4v-3z" fill="#d0ae81"/><path d="M257 170h5v3l4 1-1 2-1.875-.562c-2.167-.674-2.167-.674-4.125.563v-3h-3l1-3z" fill="#a75a56"/><path d="M166 149h7v4h-7v-4z" fill="#111012"/><path d="M334 142h7v4h-7v-4z" fill="#0b0808"/><path d="M267 321h1v7h7c-2.363 2.526-3.665 3.888-7 5-2.229-4.327-1.925-7.284-1-12z" fill="#aa864a"/><path d="M177 181l1 2h10v1l-10 2v5h-1l-.562-4.437-.316-2.496L176 182l1-1z" fill="#864840"/><path d="M174 167l1 3 2.313.313c2.885.738 4.042 1.22 5.688 3.688-.312 2.188-.312 2.188-1 4v-2h-2c-1.625-1.375-1.625-1.375-3-3v-2h-3v-4z" fill="#ac635f"/><path d="M165 163l2 1-1 3h2l1 5-3 1v-2h-2l-1-6h2v-2z" fill="#b15c53"/><path d="M139 160h3v2h3v2l3 1-3 2v-2l-6-1v-4z" fill="#7b3b3a"/><path d="M271 146h10c-3 3-3 3-5.043 3.293L270 149l1-3z" fill="#541e10"/><path d="M264 57h5v6h7v1h-9l-.937-2.375L264 57z" fill="#182f3a"/><path d="M174 338h1l.184 1.934.254 2.504.246 2.496c.106 2.053.106 2.053 1.316 3.066l4.563.563 2.504.254L186 349v1h-12v-12z" fill="#bc7e50"/><path d="M138 200h3v5h-8v-2l1.938-.375L137 202l1-2z" fill="#320f04"/><path d="M134 192h4c-.875 4.75-.875 4.75-2 7h-2v-4l-2-1 2-2z" fill="#a13e3b"/><path d="M187 176l5 2-2 4-5-2v-3l2-1z" fill="#a23633"/><path d="M217 174l1 2h2v2h5c-2 2-2 2-5.125 2.125L217 180v-3h-2v-2l2-1z" fill="#f1c7c6"/><path d="M156 175v2h2v3h-4c-2.25-2.5-2.25-2.5-4-5 2.491-1.245 3.411-.777 6 0z" fill="#b53f3a"/><path d="M169 170l8 1-3 1 1 6-1-2h-2v-2h-2l-1-4z" fill="#e7bfbd"/><path d="M203 168l1 2h2v2l2 1-7 1v-2l-2-1 4-3z" fill="#a53733"/><path d="M315 164l5 1v2h3v3h-4v-3h-4v-3z" fill="#eeb9af"/><path d="M262 157h4v2h-2v5h-2l-1 2c-1.033-2.788-1.045-3.868-.062-6.75L262 157z" fill="#eed3cc"/><path d="M109 149h1v6l5 1 2 6-4-2v-3l-4-1v-7z" fill="#606976"/><path d="M170 156h9v2h-2v2c-4.75-.875-4.75-.875-7-2v-2z" fill="#a74d47"/><path d="M174 150h10l-2 1v2h-8v-3z" fill="#d5a56f"/><path d="M320 150h8l-1 4-7-1v-3z" fill="#ecd0ca"/><path d="M299 149h6v3h-2v3h-2v-2h-2v-4z" fill="#ebbbb7"/><path d="M236.188 146.938L240 147l-1 2h-6v4h-2v-4l-2-1c2.751-.917 4.359-1.109 7.188-1.062z" fill="#6a3732"/><path d="M213 115h3v4h4v2h-7v-6z" fill="#66574b"/><path d="M357 266h9l-1 2h-6l-1 5h-1v-7z" fill="#73292c"/><path d="M364 259h1v7h-8l1-2h5l-1-3 2-2z" fill="#e9cdcd"/><path d="M197 173h3v2h2v2h-4l1 4h-3v-7l1-1z" fill="#e2c5c1"/><path d="M239 171l11 2v1h-5l-1 2v-3l-6 1v2l-2-1 1-2h2v-2z" fill="#d7aba6"/><path d="M126 162l7 1-2 2h-3v2h-4v-3h2v-2z" fill="#9e4e43"/><path d="M311 160l1 4h-3v3h-4v-3h2v-2l4-2z" fill="#dfa59a"/><path d="M233 153l4 1v2h2v4h-3c-3-4.222-3-4.222-3-7z" fill="#934a49"/><path d="M207 153h7l-1 3c-1.848.73-1.848.73-4.062 1.188l-2.223.48L205 158l2-5z" fill="#9d4944"/><path d="M310 114h6c-2.625 4.875-2.625 4.875-6 6v-6z" fill="#070202"/><path d="M291 351h8v6l-1-2-3-1-3-1-1-2z" fill="#9d7947"/><path d="M145 195h3l-1 7c-2.867-.573-3.861-.861-6-3h4v-4z" fill="#a16b3d"/><path d="M245 192l2 2 3 1c-2.25 2.063-2.25 2.063-5 4-2.312-.25-2.312-.25-4-1l-1 3v-4h5v-5z" fill="#b27e34"/><path d="M301 174h2v4h3v2h-8v-2h3v-4z" fill="#f5c2b9"/><path d="M172 179c6.75.875 6.75.875 9 2v2l-4-1v2h-3l-2-5z" fill="#ab5a55"/><path d="M161 171h2l.438 3.375c.346 3.446.346 3.446 1.563 5.625h-3v-2l-5-2 4-2v-3z" fill="#ddb1ab"/><path d="M157 169h3l2 5-5 1v-6z" fill="#ead6d0"/><path d="M280 149h7v4h-5v-2h-2v-2z" fill="#e6c9c4"/><path d="M430 274h5v5h-5v-5z" fill="#02040a"/><path d="M117 199h10v2l2 1-7 1v-2l-5-1v-1z" fill="#653130"/><path d="M129 187h2v2h2v2h5c-2.639 1.414-5.071 2.372-8 3l-1-7z" fill="#8e3532"/><path d="M350 184h3v3h3v3l-5-1-1-5z" fill="#b48441"/><path d="M168 179l2 1v2h3v3l-6-1-1-4 2-1z" fill="#efd5cf"/><path d="M256 173h3v3h2v2h3v2h-6l-.437-1.812L256 173z" fill="#ebbeba"/><path d="M298 167l1 4h-2l1 3-7 2 1-3h3v-3h3v-3z" fill="#b06158"/><path d="M252 160h1l1 9h2v2h-3v-4h-3v-3h2v-4z" fill="#9b5754"/><path d="M271 160h2l1 7h-5v-3h2v-4z" fill="#edb2aa"/><path d="M257 156l5 2v2h-3v4c-2-1-2-1-3-4l-1-2h2v-2z" fill="#a45952"/><path d="M317 157l3 1-2 5h-4l1-5 2-1z" fill="#993d37"/><path d="M198 175c1.938.688 1.938.688 4 2 .75 2.625.75 2.625 1 5-1.875-.25-1.875-.25-4-1-1.312-1.937-1.312-1.937-2-4l1-2z" fill="#e4dbd6"/><path d="M277 168l4 1v4l-4 1c-1-3-1-3 0-6z" fill="#f0dad4"/><path d="M145 167v1c-4.658 1.205-9.236 2.285-14 3 3.635-5.287 8.204-4.398 14-4z" fill="#7d4744"/><path d="M236 160h2l2 7h-4l-1-6 1-1z" fill="#f1cfc6"/><path d="M337 163h4v4l-5 1-1-3 2-2z" fill="#e8cac3"/><path d="M220 160h3v4h-2l-1 4-2-1v-3h2v-4z" fill="#f6ccc4"/><path d="M284 156h3v4h3v3c-2.928-.976-4.614-2.108-7-4l1-3z" fill="#953f3d"/><path d="M319 149h9v1h-8l-1 6h-2v-5h2v-2z" fill="#dba5a1"/><path d="M202 150h14v3h-4v-2h-10v-1z" fill="#5e2017"/><path d="M334 351h5l-1 6-4-2v-4z" fill="#020402"/><path d="M135 278h7v3h-8l1-3z" fill="#b58346"/><path d="M117 221h4v2h-2l-1 10h-1v-12z" fill="#010f1b"/><path d="M150 217h7v3h-7v-3z" fill="#bb7a2a"/><path d="M250 188h2v9l-4-1 1-1 1-7z" fill="#9c7a45"/><path d="M121 187h4v3h2v2l-6-1v-4z" fill="#ecc1bc"/><path d="M251 176l1 2h3v2h-9v-2l5-2z" fill="#aa5f5b"/><path d="M280 173h2l1 5-6-1-1 3v-4l4-1v-2z" fill="#a95c57"/><path d="M268 171l1 3c2.015.733 2.015.733 4 1h-3v5l-2-4h-2l2-5z" fill="#debbb7"/><path d="M291 167l5 1 1 2h-2v2l-4-1v-4z" fill="#f3d4d2"/><path d="M234 164l1 3h-2l-1 4-5-1c1.378-2.756 3.371-3.489 6-5l1-1z" fill="#9c4a43"/><path d="M353 168h2l1 7-3 2v-9z" fill="#692923"/><path d="M163 166l2 1-1 4h2v2l-3 1v-3h-2v-4l2-1z" fill="#a14f48"/><path d="M274 164l1 3c2.015.733 2.015.733 4 1h-2v3c-2.928-.976-4.614-2.108-7-4h4v-3z" fill="#ae635d"/><path d="M181 166h3l1 6-6-1 2-5z" fill="#a63933"/><path d="M259 160h2c.25 6.625.25 6.625-2 10v-3h-2v-3h2v-4z" fill="#e6c0ba"/><path d="M206 160l3 4h-2l-1 3h-4v-3h4v-4z" fill="#e6bbb6"/><path d="M206 114l3 1v5l2 1h-5v-7z" fill="#010a14"/><path d="M269 262l7 4v2h-6l-1-6z" fill="#ca9d67"/><path d="M135 249h4v5h-4v-5z" fill="#ba8135"/><path d="M157 238h4v5h-4v-5z" fill="#c08030"/><path d="M343 174h2l-1 6h-5v-2h2v-2h2v-2z" fill="#a25851"/><path d="M290 168l2 3 3 2h-3v2h-2v-3l-3 1 1-3h2v-2z" fill="#e7bab5"/><path d="M271 168l4 2-2 4h-3l1-6z" fill="#9b433f"/><path d="M241 167l4 1 1 4h-5v-5z" fill="#e2ccc5"/><path d="M265 167c2.375-.187 2.375-.187 5 0l2 3h-2l-1 4v-3h-2l-2-4z" fill="#a65751"/><path d="M343 162h2v2h2v3h-5l1-5z" fill="#973c37"/><path d="M216 156v3l-3 1v-2h-4v-2c3.01-.934 3.867-1.044 7 0z" fill="#e7c0bc"/><path d="M292 150l4 2-1 4-4-1 1-5z" fill="#a43e3d"/><path d="M308 242h1v12h-3l2-12z" fill="#d7d5cf"/><path d="M125 187l1 2h2c1.354 2.709 1.065 5.009 1 8l-1-2h-2l1-5h-2v-3z" fill="#daa69c"/><path d="M245 174h5l1 3c-3 1-3 1-5.187.063L244 176l1-2z" fill="#953d3b"/><path d="M310 171h2v3h2v4l-4-2v-5z" fill="#9d3a32"/><path d="M153 170h2v3h2v3l3 1-2 1-2-1v-2l-5-1 3-1-1-3z" fill="#ac4f49"/><path d="M218 169l1 2h3l1 6h-2l-2-3-2-1 1-4z" fill="#973934"/><path d="M187 164h2l1 8h-2v-2l-3-1v-2h2v-3z" fill="#f0c5be"/><path d="M283 161l5 3-1 3-5-1 1-5z" fill="#ebd3ca"/><path d="M235 158c1.065 3.196 1.074 5.657 1 9l-1-3h-2v-3l-2-1 4-2z" fill="#d7aba9"/><path d="M241 158h3l1 6h-3l-1-6z" fill="#eac9c2"/><path d="M199 153h5l-1 3v-2h-3v3h2v2l-4 1 1-7z" fill="#f2d5d1"/><path d="M274 149h6l-1 4h-3v-2h-2v-2z" fill="#8e4c47"/><path d="M234 150h6l-1 4-5-1v-3z" fill="#e9cfcb"/><path d="M131 200h7l-1 3h-5l-1-3z" fill="#521e1e"/><path d="M119 181h6v2h-4v3h-2v-5z" fill="#120301"/><path d="M194 178l2 1v2h3v2h-6l1-5z" fill="#9f4645"/><path d="M270 175l4 1 1 4h-5v-5z" fill="#e9dbd5"/><path d="M265 168l3 3-1 3h-3l-1-3 2-3z" fill="#edd6cc"/><path d="M181 167l-2 3h-4v-3c2.491-1.245 3.411-.777 6 0z" fill="#9e403d"/><path d="M168 167h5l1 4-7-1 1-3z" fill="#e8d1ca"/><path d="M240 161h2v3h3v3h-4l-1-6z" fill="#9e5a54"/><path d="M157 160h4v2h-2v2h-2v2l-2-1 2-5z" fill="#964d49"/><path d="M200 159l5 1-1 4c-2.131-1.065-3.366-2.292-5-4l1-1z" fill="#a34e48"/><path d="M338 146h6l-1 5-1-2-4-2v-1z" fill="#472d33"/><path d="M297 368l1 4h-10v-1l1.715-.402 2.223-.535 2.215-.527C296 369.161 296 369.161 297 368z" fill="#c37b49"/><path d="M166 348h6l1 3h-7v-3z" fill="#060f19"/><path d="M411 306h1v7h-6l3-1c1.225-3.008 1.225-3.008 2-6z" fill="#060b14"/><path d="M300 264l7 1 1 2h-8v-3z" fill="#f6debb"/><path d="M365 224h8v5l-2 1-1-3 1-1-6-1v-1z" fill="#b8b8b9"/><path d="M310 209h6v3h-5l-1-3z" fill="#d9d8d3"/><path d="M128 178l3 1-1 4h-5v-3h3v-2z" fill="#572216"/><path d="M336 176l4 1-1 3h-5v-2h2v-2z" fill="#ebbab6"/><path d="M303 172c3 1 3 1 5 4h-2v2h-3v-6z" fill="#b6564e"/><path d="M128 165c3 1 3 1 4.188 3.063L133 170h-5v-5z" fill="#b7877f"/><path d="M237 167h4v4h-5l1-4z" fill="#a05d5a"/><path d="M254 165l1 2h4l-1 4h-2v-2h-2v-4z" fill="#993b39"/><path d="M330 162l4 2v3l-5-1 1-4z" fill="#aa5f54"/><path d="M353 158c1.5 1.125 1.5 1.125 3 3 .188 3.188.188 3.188 0 6l-3-2c-.187-3.625-.187-3.625 0-7z" fill="#442126"/><path d="M166 153h7c-1.25 1.5-1.25 1.5-3 3h-4v-3z" fill="#4c2323"/><path d="M313 150h6l-2 1v2h-2v2l-2-1v-4z" fill="#a24843"/></svg>