<svg xmlns="http://www.w3.org/2000/svg" width="665" height="375" xmlns:v="https://vecta.io/nano"><path d="M359.313 100.688l3.413-.016c8.602.074 15.935.582 23.275 5.329a179.29 179.29 0 0 0 6.5 2.25c7.311 2.527 13.802 5.889 20.5 9.75v2l2 .688c3.887 1.7 7.637 3.709 11 6.313v2l1.781.789c2.356 1.286 3.865 2.656 5.719 4.586l1.719 1.773C437 138 437 138 438.797 140.16c2.947 2.461 5.16 2.542 8.953 2.902 13.874 1.646 13.874 1.646 18.25 6.938 1.893 3.826 2.496 7.54 3.063 11.75.221 3.946.221 3.946 1.938 7.25.12 2.048.17 4.101.193 6.153l.049 3.996.032 4.359.016 2.211.061 11.598.112 11.953.051 9.209.046 4.404c.125 8.12.207 13.929-5.559 20.118-.778 2.333-.778 2.333-.812 4.438L465 251h-2v2c-3.683 3.921-6.781 4.518-11.914 4.824-2.28.11-2.28.11-5.086 1.176l.188 2.063c-.248 3.881-1.351 6.518-3.187 9.938-2.625 1.813-2.625 1.813-5 3l-1 2h-2l-.687 1.688c-1.776 3.13-3.464 5.084-6.312 7.313-3.015.701-4.818.455-8 0-2.437-1.562-2.437-1.562-4-4-.394-2.324-.735-4.658-1-7l-2-1-.312 2.813c-.693 3.212-1.075 4.307-3.687 6.188h-2l-1 3c-5.222 3-5.222 3-8 3l-1 3c-4.319 1.926-8.122 2.246-12.812 2.188l-3.457-.02C378 293 378 293 377 292a153.02 153.02 0 0 1-.062-6.562l.027-3.629L377 279c-3.698 1.233-4.622 3.009-7 6h-2l-1 3c-6.559 5.851-15.689 5.192-24 5.25l-2.574.028-2.426-.012-2.187-.007C334 293 334 293 332 291c-.195-2.82-.195-2.82-.125-6.125l.055-3.32L332 279l3-1c1.167-1.917 1.167-1.917 2-4l1-2c-3.781.595-6.69 1.707-10.062 3.5-5.809 3.079-10.371 3.702-16.937 3.75l-2.156.063c-3.176.024-5.464-.109-8.289-1.621-2.477-2.695-2.433-5.11-2.555-8.691.688-3.312.688-3.312 2-6l4-2c.737-2.519.737-2.519 1-5l1-1-3-1v2c-4.801 1.227-9.517 1.184-14.437 1.188l-2.525.037c-7.243.017-12.654-1.743-19.037-5.225-2-2-2-2-2.195-3.945L265 242l-3.289.105-4.336.082-2.16.076c-4.832.066-8.002-.649-12.215-3.264l-4-4c-1.65-.707-3.316-1.379-5-2-2-2-2-2-2.23-4.129l.043-2.434.02-2.441C232 222 232 222 233 221h-3.812c-6.546-.687-11.447-4.649-16.187-9l-1-3-4-2c-2.997-4.495-2.839-8.736-2-14 1.64-3.323 3.638-6.153 6-9l-1.977.176c-8.025.414-8.025.414-11.461-2.613L196 179l-3-1-5-5-1.879-1.137c-2.314-1.482-3.626-2.531-5.121-4.863-.607-5.07-.407-9.921 0-15l2-1-3.187-.187c-4.599-.98-5.731-2.346-8.812-5.812l-3.625-3.062c-4.835-4.129-4.835-4.129-6.375-6.937-.187-2.75-.187-2.75 0-5l-3-1c-2.405-3.608-2.24-5.348-2.187-9.625l.02-3.539C156 113 156 113 157 112c1.891-.153 3.79-.222 5.688-.25l3.137-.078c3.176.328 3.176.328 5.855 1.75 4.774 2.269 9.539 2.541 14.758 3.078l6.059.656 2.693.275c2.811.568 2.811.568 6.212 2.086 3.807 1.568 6.582 1.912 10.677 2.037l4.02.176 6.212.203c8.229.253 14.813 1.13 22.214 4.949 3.907 1.764 7.496 1.854 11.726 1.743l2.273.059c5.14-.045 7.843-1.267 11.815-4.463 2.531-1.859 5.21-2.503 8.224-3.283 4.863-1.385 8.336-2.93 12.438-5.937 6.371-3.748 11.602-5.642 19-6v-2c16.208-4.312 32.554-6.263 49.313-6.312z" fill="#815432"/><path d="M346.773 105.77l4.602.043 2.328.002c3.621.028 6.792.204 10.297 1.186l-1 6h2v3l2 2h-3v4h3v-3h2v5h3v-2h3l1 2 3 1-1-6 4-1-1-6-7 2v-2l5-1v-2l4-1 1 2c2.322.407 4.657.744 7 1v2h6c0 3.767-.235 4.912-2 8l-1-3h-2l-1-2c-3.029-.658-3.029-.658-6-1l1 7 7 2v-3l1.688 1.938c2.533 2.259 3.996 2.694 7.313 3.063v1l-9 1v-2c-3.432.264-3.432.264-7 1l-2 3h-3v2h12l-2 4h-2v4h2l.813-1.875C393 136 393 136 396 134c1.192-2.05 1.192-2.05 2-4l1 5h2c.492 7.385.492 7.385-2 10.5l-2 1.5h3l1-3h2v-9l9 1v-3h-4c-1.75-2.5-1.75-2.5-3-5l3-1-3.437-.812L401 125c-1.097-3.29-.8-4.713 0-8l4 1v3l9 1v3h3v2h5l1 6h3v2h2v6h-2c-1.158 4.054-.837 6.218 1 10l-2.437-.562L422 150l-1 1a235.65 235.65 0 0 1-7 1v3h-3v3h9v9h2v-6h2l-1 5h2l2-6h-2l1-4v3h2c.25 6.625.25 6.625-2 10h-3v3h30v20h-3v5h-2v3h-3v3h-3v16h-2l-1 15h-2l-1 5h-2v12h-3v13h-3v3h-2v9h-6v-14h3v-6h2v-8h3v-14h3v-9h-3v5h-2v12h-3v8h-3v9h-3v5h-3v3h-3v3h-2l-1 5h-2v4h-2v2l-6 1v2h-12v3h-5v-8h3v-9h2v-6h3v-8h3v-8l2-1c.47-3.046.47-3.046.625-6.562l.227-3.629L395 234h3v-6h3l-.035-1.934-.027-2.504-.035-2.496C401 219 401 219 402 218c.156-1.34.25-2.688.316-4.035l.127-2.451.119-2.576.131-2.588L403 200h2l-1-5h-3l-1 5h-2v3h-3v5l-3 1v2h-3v3h-5v14h-3v6h-3v5h-3v5l-2 1c-.722 1.644-1.394 3.311-2 5h-2v3h-3v3h-2v6h-2l-1 3h-2v3h-3v3l-2 1c-.652 2.025-.652 2.025-1 4h-3v3h-6v5h-3v2h-2v-7h3v-3h2v-3h3v-9h3v-3h3v-5h3v-6h2v-5h4l-.125-2.125c.142-3.259.992-5.831 2.125-8.875h2v-3h4v-3h2v-3h3v-15l-2-1v2h-4v3h-2l-1 5h-2v3h-3l-1 2-10-1v-3h-3v5h-3v6l-5 1v5h-3v10h-3v6h-6v3h-5v2l-3 1-1 2h-2v3c-1 1.688-1 1.688-3 3-2.719.257-5.258.135-8 0v-2h3v-6h3v-9h5v-5h6v-6h3v-2l2-1c.656-2.527.656-2.527 1-5h3v-2h3l-1-2c-.134-2.672-.043-5.323 0-8h3v-8h3l-1-5h-2v3h-3v2h-3v6h-2v2h-4l.125 2.813C324 225 324 225 322 228c-3.125.188-3.125.188-6 0v-9h-2v3h-3v3h-3v3h-3v3h-3v3h-2l-1 5h-6v2h-2v4h-3v3h-13l-1-3h-2v-5h3v-3l1.938-.375L279 236l1-2h3v-3l2.438-.375L288 230l1-2h2v-5l9-1v-2h2v-3h3v-3h3v-3h6v-5h3v-3h-3v2h-3v3h-26v3h-5v3h-5v3h-3v2h-7v3c-1.176 1.676-1.176 1.676-3 3-2.48.293-2.48.293-5.187.188l-2.73-.082L252 225l-1 3h-5v-3h-6l1-6h5l1-5h5v-3h6v-3h5v-2h6v-3h6v-3h8v-2l2-1 1-3h5v-2h3v-3h3v-3h3v-3h16v-3h-4v-2h2l-1-12h3v-2h6l-.125-2.125c.142-3.259.992-5.831 2.125-8.875h3v-3h-13v3h-20v-3l-5-1v-2h2v-3h-3v-2l-6-1c0-2 0-2 1.875-4.125C286 135 286 135 288 135v-5h3l1-2 1 3h2v2l3 1-2 4h-2v6l4.313-.875 2.426-.492c2.515-.578 2.515-.578 5.262-2.633l2 1v-2h2v3l4 2-4 1 7 2-1-6h-4l-2-5 1.875.563c2.167.674 2.167.674 4.125-.562 2-.04 4-.043 6 0v-2l-2.812.125C316 134 316 134 313 132v-2h3v-3l-2.187 1.5c-2.961 1.579-4.525 1.782-7.812 1.5l-2-4 3 1v-2l-3-1v-2h-2v-6h7v3h3v6h-3v3l3-2c3.688.375 3.688.375 7 1l-1-2c-2.025-.652-2.025-.652-4-1v-6h-3l-1-4h4v-4h10v-2h6l1 6h2v2c-3 2-3 2-6 2v2l-2 1v2l10-2c0 3.112-.456 5.942-1 9h2v2h3l1-4h2l1-3 2 2c2.655.565 5.291.738 8 1-2.794-3.916-2.794-3.916-7-6l-1-3 5-1h-7c2.944-1.963 3.802-2.255 7.125-2.5L354 115l1-2h-7v-2h-4v2h-2c-.625-2.375-.625-2.375-1-5 2-2 2-2 5.773-2.23z" fill="#b57743"/><path d="M157 114h11v3h3v4h3v4h2v2h3v3h2v3h3v6l-1.937.813c-2.394 1.074-2.394 1.074-3.062 4.188h3v-3h6v3h2v3h3v3h3v3h6v-3h2v2h3l1 3 27 1v2h-39v2h-3v-2h-8v3h3v2h2v4h3v5h8v3h3v3h3v2h4v-2h2v2h8v6h-3v3h-2v3h-3v11h3v3h2v2h9v6h3v3h8v-2l8-1v5h-5l-1 6h6v3c2.473-.344 2.473-.344 5-1l1-2h10l1-3h2v-3h7v-2h3v-3h5v-3h5v-3h26v-3h3v-2h3v3h-3v5h-6v3h-3v3h-3v3h-2v2l-9 1v5h-2l-1 3h-5v3h-3l-1 3h-4v3h-3v5h2l1 2c3.046.47 3.046.47 6.563.625l3.629.227L288 248v-3h3v-4h2v-2l6-1 1-4h2v-3h3v-3h3v-3h3v-3h3v-3h2v9h6l2-9h4v-2h2v-6h3v-2h3v-3h2l1 5h-3v8h-3l1 10h-3v2h-3v5l-3 1v2h-3v6h-6v5h-5v9h-3v6h-3v2h8l1-3h2v-3h2l1-3h3v-2h5v-3h6v-6h3v-10h3l-1-6h6v-6h3v-5h3v3l4.75.063 2.672.035c2.36-.089 4.323-.429 6.578-1.098v-3h2l1-5h2v-3h4v-2l3 1-1 15h-3v3h-2v3h-4v3h-2l.125 2.125c-.142 3.259-.992 5.831-2.125 8.875h-4v5h-2v6h-3v5h-3v3h-3v9h-3v3h-2v3h-3v7h2v-2h3v-5h6v-3h3l1-5h2v-3h3v-3c1.375-1.687 1.375-1.687 3-3h2v-6h2v-3h3l1-5h2l1-4h2v-5h3v-5h3v-6h3v-14h5v-3h3v-2l2-1c.656-2.527.656-2.527 1-5h3v-3h2l1-5h3l1 5h-2l.035 3.902.027 5.035.025 2.576.01 2.451.016 2.269C403 218 403 218 402 219v3.438c0 3.563 0 3.563-1 5.563h-3v6h-3v13l-3 1v8h-3v8h-3v6h-2v9h-3v8h5v-3h12v-2l6-1v-2h2v-4h2l1-5h2v-3h3v-3h3v-5h3v-9h3v-8h3v-12h2v-5h3v9h-3v14h-3v8h-2v6h-3v17h8v-3h3v-3h3v-3h3v-6h2l1-5h2v-6h3v-8l2-1c.468-2.356.468-2.356.625-5.062l.227-2.785L448 234h2v-9h3v-6h3v9h-3v17h-3v6h6v-3h6v-9h3v-5h2v-65h-2v-13h-3v-4h-3v-3h-6v-2l-2.117-.184-2.758-.254-2.742-.246C443 146 443 146 441 145v-2c7.807-.457 16.878-.374 23.195 4.797 3.489 4.259 4.145 8.588 4.867 13.953.221 3.946.221 3.946 1.938 7.25.12 2.048.17 4.101.193 6.153l.049 3.996.032 4.359.016 2.211.061 11.598.112 11.953.051 9.209.046 4.404c.125 8.12.207 13.929-5.559 20.118-.778 2.333-.778 2.333-.812 4.438L465 251h-2v2c-3.683 3.921-6.781 4.518-11.914 4.824-2.28.11-2.28.11-5.086 1.176l.188 2.063c-.248 3.881-1.351 6.518-3.187 9.938-2.625 1.813-2.625 1.813-5 3l-1 2h-2l-.687 1.688c-1.776 3.13-3.464 5.084-6.312 7.313-3.015.701-4.818.455-8 0-2.437-1.562-2.437-1.562-4-4-.394-2.324-.735-4.658-1-7l-2-1-.312 2.813c-.693 3.212-1.075 4.307-3.687 6.188h-2l-1 3c-5.222 3-5.222 3-8 3l-1 3c-4.319 1.926-8.122 2.246-12.812 2.188l-3.457-.02C378 293 378 293 377 292a153.02 153.02 0 0 1-.062-6.562l.027-3.629L377 279c-3.698 1.233-4.622 3.009-7 6h-2l-1 3c-6.559 5.851-15.689 5.192-24 5.25l-2.574.028-2.426-.012-2.187-.007C334 293 334 293 332 291c-.195-2.82-.195-2.82-.125-6.125l.055-3.32L332 279l3-1c1.167-1.917 1.167-1.917 2-4l1-2c-3.781.595-6.69 1.707-10.062 3.5-5.809 3.079-10.371 3.702-16.937 3.75l-2.156.063c-3.176.024-5.464-.109-8.289-1.621-2.477-2.695-2.433-5.11-2.555-8.691.688-3.312.688-3.312 2-6l4-2c.737-2.519.737-2.519 1-5l1-1-3-1v2c-4.801 1.227-9.517 1.184-14.437 1.188l-2.525.037c-7.243.017-12.654-1.743-19.037-5.225-2-2-2-2-2.195-3.945L265 242l-3.289.105-4.336.082-2.16.076c-4.832.066-8.002-.649-12.215-3.264l-4-4c-1.65-.707-3.316-1.379-5-2-2-2-2-2-2.23-4.129l.043-2.434.02-2.441C232 222 232 222 233 221h-3.812c-6.546-.687-11.447-4.649-16.187-9l-1-3-4-2c-2.997-4.495-2.839-8.736-2-14 1.64-3.323 3.638-6.153 6-9l-1.977.176c-8.025.414-8.025.414-11.461-2.613L196 179l-3-1-5-5-1.879-1.137c-2.314-1.482-3.626-2.531-5.121-4.863-.607-5.07-.407-9.921 0-15l2-1-3.187-.187c-4.599-.98-5.731-2.346-8.812-5.812l-3.625-3.062c-4.835-4.129-4.835-4.129-6.375-6.937-.187-2.75-.187-2.75 0-5l-3-1c-1.442-2.884-1.094-5.417-1.062-8.625l.027-3.602L157 114z" fill="#554034"/><path d="M162.688 111.75l3.137-.078c3.176.328 3.176.328 5.855 1.75 4.774 2.269 9.539 2.541 14.758 3.078 6.735.695 12.482 1.421 18.563 4.5-1.29 1.376-2.627 2.708-4 4h-2v2c-1.375 1.625-1.375 1.625-3 3h-2v3h-3c.52 4.379 1.057 8.688 2 13h3v3l5 1v-3h-3v-3h-3v-4h-2v-5l5-2v-3h4v-3h2v-2h14v2h17v3l5 1v2h4v3h5v2h3v3h6v4h2v2h8v-3h-2l-1-2h-5v-4h5v-2h-2v-3h6v5h2v-8l4-1c1.158 3.473 1.069 6.361 1 10h-2v5h-2v3h-3v2l-12 1v-2l-5-1v3h3v3l6-2-1 10h6v-3h3v-2h3v2h2v-3h3v-3h-2v-3h2v2h3v5h2l-1 7h4v-2h6v-3h9l.063 8.375.025 2.406c.025 5.992.025 5.992-1.088 8.219h-5v3h-5v3h-7v3h-10v3h-3v3h-6v2c-3.044.082-5.072-.024-8-1v4h-12v3h-19v-2h-3v-3h-3v-3h3v-3h3v-6h3v-3h17v-2h11v-3h14v-3h3v-3h3v-2h5v-3h-8l-1 3h-11v2h-8l-1 2v-2h-31l1-5h-3l-1 3-1.898-.035-2.477-.027-2.461-.035c-2.213-.047-2.213-.047-4.164 1.098-2.625-.937-2.625-.937-5-2v-3h-2v-2h-3v-3h39v-2h-27l-1-4h-3v-2h-2v3h-6v-3h-3v-3h-3v-3h-2v-3h-6v3h-3l1-4 4-1v-6h-3v-3h-2v-3h-3v-2h-2v-4h-3v-4h-3v-3h-11v12h-1l-.062-6.437-.035-3.621c.167-5.035 2.254-4.125 6.785-4.191z" fill="#a86a3b"/><path d="M423 131c2.375.25 2.375.25 5 1l.918 1.914c1.331 2.567 2.412 3.055 5.02 4.211 2.58 1.167 4.679 2.286 7.063 3.875v3l2.117.184 2.758.254 2.742.246C451 146 451 146 453 147v2h6v3h3v4h3v13h2v65h-2v5h-3v9h-6v3h-6v-6h3v-17h3v-9h-3v6h-3v9h-2v10l-3 1v8h-3v6l-2 1c-.652 2.025-.652 2.025-1 4h-2v6h-3v3h-3v3h-3v3h-8v-3h6v-9h2v-3h3v-13h3v-12l2-1c.652-2.025.652-2.025 1-4h2v-16l3 1v-16h3v-3h3v-3h2v-5h3v-20h-30v-3l3-1c.806-2.106.806-2.106 1.188-4.562l.48-2.504L428 159c-1.84 1.84-2.224 4.569-3 7h-2l1-5h-2v6h-2v-9h-9v-3h3v-3l7-1-1-3h2v2h4v-3l-2-1 2-5h2v-6h-2v-2h-3v-2z" fill="#8a5833"/><path d="M185 158h8v2l6 1v2h2v3l6 1 1-1 4.563-.062 2.504.027L217 166l1-2h3v4l39 1v-2l2.371-.148 3.066-.227 3.059-.211L271 166l1-2h8v3h-5v2h-3v3h-3v3h-14v3h-11v2h-17v3h-3v6h-3v3h-3v3h3v3h3v2h19v-3h12v-4c2.606-.931 3.642-1.149 6.25-.062L263 194v-2h6v-3h3v-3h10v-3h7v-3h5l-2 2c-.648 2.571-.648 2.571-1 5h-2v2h-4v2l-5 1v2l-5 1-1 5h-5v2l-4 1v2l4 1h-6v2h-5v3h-6v3h-5l-1 3v-3l-8 1v2h-8v-3h-3v-6h-9v-2h-2v-3h-3v-11h3v-3h2v-3h3v-6h-8v-2h-2v2h-4v-2h-3v-3h-3v-3h-8v-5h-3v-4h-2v-2h-3v-3z" fill="#9d6035"/><path d="M314 203h3v3h-3v5h-6v3h-3v3h-3v3h-2v2l-9 1v5h-2l-1 3h-5v3h-3l-1 3h-4v3h-3v5h2l1 2c3.046.47 3.046.47 6.563.625l3.629.227L288 248v-3h3v-4h2v-2l6-1 1-4h2v-3h3v-3h3v-3h3v-3h3v-3h2v9h6l2-9h4v-2h2v-6h3v-2h3v-3h2l1 5h-3v8h-3l1 10h-3v2h-3v5h-1v-5h-2v3h-3v3h-2v2h-4v3h-3v3h-2v3h-3v2l-6.152.586L300 251l-1 2h-22v-3h-3v-2h-3v-3h-2v-3l-3-1v-2h-11v-3h-6v-2h-5l-1-3h-2v-3h-3v-6h2v3h6v3c2.473-.344 2.473-.344 5-1l1-2h10l1-3h2v-3h7v-2h3v-3h5v-3h5v-3h26v-3h3v-2z" fill="#975e34"/><path d="M401 195h3l1 5h-2l.035 3.902.027 5.035.025 2.576.01 2.451.016 2.269C403 218 403 218 402 219v3.438c0 3.563 0 3.563-1 5.563h-3v6h-6v11h-3v8h-3v6h-2l-1 3h-2v5h-3v3h-3v3h-3v4h-2v2h-6v4h-2l-1 4h-8l-1 3h-16v-6h3v2h2v-2h3v-5h6v-3h3l1-5h2v-3h3v-3c1.375-1.687 1.375-1.687 3-3h2v-6h2v-3h3l1-5h2l1-4h2v-5h3v-5h3v-6h3v-14h5v-3h3v-2l2-1c.656-2.527.656-2.527 1-5h3v-3h2l1-5z" fill="#8e5933"/><path d="M291 158h9l.063 8.375.025 2.406c.025 5.992.025 5.992-1.088 8.219h-5v3h-5v3h-7v3h-10v3h-3v3h-6v2c-3.044.082-5.072-.024-8-1v4h-12v3h-19v-2h-3v-3h-3v-3h3v-3h3v-6h3v-3h17v-2h11v-3h14v-3h3v-3h3v-2h5v-3h5v-3h6v-3z" fill="#b57844"/><path d="M373 209l3 1-1 15h-3v3h-2v3h-4v3h-2l.125 2.125c-.142 3.259-.992 5.831-2.125 8.875h-4v5h-2v6h-1v-5h-5v2h-3v3h-3v3h-2v3h-3v2h-6v3h-3v3h-5v3h-6v3h-14v-6h-3v-6l6-2v3h-3v2h8l1-3h2v-3h2l1-3h3v-2h5v-3h6v-6h3v-10h3l-1-6h6v-6h3v-5h3v3l4.75.063 2.672.035c2.36-.089 4.323-.429 6.578-1.098v-3h2l1-5h2v-3h4v-2z" fill="#915b34"/><path d="M437 175h2v5h-3v3h-3v3h-2v39h-3v5h-2v12h-3v8h-3v9h-3v5h-3v3h-3v3h-2l-1 5h-2v4h-2v2l-6 1v2h-12v3h-5l1-3h2l1-3h3v-2h4v-6h3v-3h2v-6h3v-8h3l1-7h1l1-8h2v-7l3-1v-11h3v-3h3v-8h3v-5h3v-3h3v-3h2v-17h3l1-3h2v-2h3v-3z" fill="#8d5832"/><path d="M441 143c7.807-.457 16.878-.374 23.195 4.797 3.489 4.259 4.145 8.588 4.867 13.953.221 3.946.221 3.946 1.938 7.25.12 2.048.17 4.101.193 6.153l.049 3.996.032 4.359.016 2.211.061 11.598.112 11.953.051 9.209.046 4.404c.125 8.12.207 13.929-5.559 20.118-.778 2.333-.778 2.333-.812 4.438L465 251h-2v2c-3.683 3.921-6.781 4.518-11.914 4.824-2.28.11-2.28.11-5.086 1.176l.188 2.063c-.248 3.881-1.351 6.518-3.187 9.938-2.625 1.813-2.625 1.813-5 3l-1 2h-2l-.687 1.688c-1.776 3.13-3.464 5.084-6.312 7.313-3.015.701-4.818.455-8 0-2.437-1.562-2.437-1.562-4-4-.394-2.324-.735-4.658-1-7l-2-1-1 6-7 1v2l-4-1h3v-2h2v-4h2l1-5h2v-3h3v-3h3v-5h3v-9h3v-8h3v-12h2v-5h3v9h-3v14h-3v8h-2v6h-3v17h8v-3h3v-3h3v-3h3v-6h2l1-5h2v-6h3v-8l2-1c.468-2.356.468-2.356.625-5.062l.227-2.785L448 234h2v-9h3v-6h3v9h-3v17h-3v6h6v-3h6v-9h3v-5h2v-65h-2v-13h-3v-4h-3v-3h-6v-2l-2.117-.184-2.758-.254-2.742-.246C443 146 443 146 441 145v-2z" fill="#513d2f"/><path d="M280 142c4.087-.24 7.177.577 11 2v3h-2v2l5 1v3h20v-3h13v3h-3l.125 2.125c-.142 3.259-.992 5.831-2.125 8.875h-6v2h-3l1 12h-2v2h4v3h-16v3h-3v3h-3v3h-3v2h-5l-1 4h-2v2h-8v3h-6v2h-4v-2l4-1v-2h5l-.062-2.437C274 195 274 195 275 194c1.666-.041 3.334-.043 5 0v-2l5-1v-2h4v-2h2v-5l3-1v-4h5l1-19h-9v3h-6c-1.858-3.135-2.201-5.375-2-9h2v-2h-5v-2h2v-4h-2v-2z" fill="#7a5434"/><path d="M202 122h17l2.296.018c13.92.183 13.92.183 20.141 3.545 7.161 3.835 17.745 3.921 25.574 1.924 2.99-.732 5.926-.546 8.988-.487 1.005 3.015 1.103 5.042 1.063 8.188l-.027 2.73L277 140l2 1v-3h3v-2h3v-4h-3v3h-2v-5l8-2v7h-2l-2 4h-2v2l6 1v2l-8-2v2h2v4h-2v2h5v2h-2l2 11h-4l1-7h-2v-5h-3v-2h-2v3h2v3h-3v3h-2v-2h-3v2h-3v3h-6c-.125-7.75-.125-7.75 1-10l-3 2h-3v-3h-3v-3l5 1v2l12-1v-2h3v-3h2v-5h2l-1-10-3 1-1 8h-2v-5h-6v3h2v2h-5v4l5-1 1 3h2v3h-8v-2h-2v-4h-6v-3h-3v-2h-5v-3h-4v-2l-5-1v-3h-17v-2h-14v2h-2v3h-4v3l-5 2v5h2v4h3v3h3v3l-5-1v-3h-3c-2.248-4.497-2.167-8.079-2-13h3v-3h2l1-3h2v-2h2l1-3z" fill="#5c3c25"/><path d="M453 172h14v62h-2v5h-3v9h-6v3h-6v-6h3v-17h3v-9l-5-1 1-2 4 1v-17h-3v6h-1l-1-9h2l.184-2.336.254-3.039.246-3.023C454 186 454 186 455 184l.563-5.125.254-2.758L456 174h-3v-2z" fill="#8c5e3b"/><path d="M185 158h8v2l6 1v2h2v3l6 1 1-1 4.563-.062 2.504.027L217 166l1-2h3v4l39 1v-2l2.371-.148 3.066-.227 3.059-.211L271 166l1-2h8v3h-5v2h-3v3h-3v3h-14v3h-11v2h-17v3h-6v-3h-8v-2h-2v2h-4v-2h-3v-3h-3v-3h-8v-5h-3v-4h-2v-2h-3v-3z" fill="#985b32"/><path d="M157 114h11v3h3v4h3v4h2v2h3v3h2v3h3v6l-1.937.813c-2.394 1.074-2.394 1.074-3.062 4.188h3v-3h6v3h2v3h3v3h3v3h6v-3h2v2h3l1 3 27 1v2h-39v2h-3v-2h-8v3h3v2h2l-1 4h-4c-2.168-2.632-2.935-4.566-3.437-7.937.548-3.835 2.114-6.013 4.438-9.062-2.709-1.354-5.009-1.065-8-1v-2l-3.062-.625c-5.492-1.56-9.057-5.373-12.875-9.437-1.336-2.437-1.291-4.2-1.062-6.937l-3-1c-1.442-2.884-1.094-5.417-1.062-8.625l.027-3.602L157 114z" fill="#5f3a2b"/><path d="M162.688 111.75l3.137-.078c3.176.328 3.176.328 5.855 1.75 4.774 2.269 9.539 2.541 14.758 3.078 6.735.695 12.482 1.421 18.563 4.5-1.29 1.376-2.627 2.708-4 4h-2v2c-1.375 1.625-1.375 1.625-3 3h-2v3h-3c.52 4.379 1.057 8.688 2 13h3v3l5 1v-3h-3v-3h-3v-4h-2v-5l5-2v-3l3 1v7h3v3l4 1-1 3c0 2.949.684 5.369 2 8 5.651 1.493 11.575 1.111 17.375 1.063l3.098-.014L237 154l1 2h-2l-1 2v-2h-27l-1-4h-3v-2h-2v3h-6v-3h-3v-3h-3v-3h-2v-3h-6v3h-3l1-4 4-1v-6h-3v-3h-2v-3h-3v-2h-2v-4h-3v-4h-3v-3h-11v12h-1l-.062-6.437-.035-3.621c.167-5.035 2.254-4.125 6.785-4.191z" fill="#9f6038"/><path d="M204 125h14v2h17v3l5 1v2h4v3h2l-1 4h-2v4h-8v5c-2.375.125-2.375.125-5 0l-2-2c-3.357-.244-3.357-.244-7.125-.125l-3.883.055L214 147l-1-3h-3v-3h-6v-3h-3v-3l-2-1v-3l2-1 1-3h2v-2z" fill="#ad7444"/><path d="M441 143c7.807-.457 16.878-.374 23.195 4.797 3.489 4.259 4.145 8.588 4.867 13.953.221 3.946.221 3.946 1.938 7.25.12 2.048.17 4.101.193 6.153l.049 3.996.032 4.359.016 2.211.061 11.598.112 11.953.051 9.209.046 4.404c.125 8.12.207 13.929-5.559 20.118-.778 2.333-.778 2.333-.812 4.438L465 251h-2v2c-3.683 3.921-6.781 4.518-11.914 4.824-2.28.11-2.28.11-5.086 1.176v5c-1.562-1.187-1.562-1.187-3-3 .143-2.795.919-4.807 2-7.375 2-1.625 2-1.625 4.199-1.648 2.292.252 4.537.587 6.801 1.023v-5h6v-9h3v-5h2v-65h-2v-13h-3v-4h-3v-3h-6v-2l-2.117-.184-2.758-.254-2.742-.246C443 146 443 146 441 145v-2z" fill="#544036"/><path d="M174 146l4 1v2l7-1 2 3h-2c-2.292 4.872-2.786 8.74-1 13.875l1 2.125 1.75-.562c2.457-.478 3.894-.195 6.25.563v5h8v3h3v3h3v2h4v-2h2v2h8v6h-3v3h-2v2l-2.437.875c-2.695.858-2.695.858-3.562 3.125-.274 3.628-.223 6.371 1 9.813 2.961 3.239 5.726 3.417 10 4.188v2h3l1 4 1.938.375L229 216l1 2c2.527.656 2.527.656 5 1v4h-2v8h-1l-.062-4.437-.035-2.496C232 222 232 222 233 221h-3.812c-6.546-.687-11.447-4.649-16.187-9l-1-3-4-2c-2.997-4.495-2.839-8.736-2-14 1.64-3.323 3.638-6.153 6-9l-1.977.176c-8.025.414-8.025.414-11.461-2.613L196 179l-3-1-5-5-1.879-1.137c-2.314-1.482-3.626-2.531-5.121-4.863-.607-5.07-.407-9.921 0-15l2-1-3.375-.25C176 150 176 150 174.563 147.938L174 146z" fill="#5d3b38"/><path d="M351.375 102.813l2.5.002c4.805.034 9.387.387 14.125 1.186.625 1.875.625 1.875 1 4l-2 2-1-2c-4.927-1.22-9.837-1.118-14.875-1.062l-2.375.014L343 107c-1.298 2.224-1.298 2.224-1 6h2v-2h4v2h7l-1 3c-2.062.688-2.062.688-4 1l2 1-6 2v2l1.813.313c2.5.786 3.563 1.657 5.188 3.688v2c-6.055.195-6.055.195-8 0l-2-2-1 2h-2l-1 4h-3v-2h-2c-.125-5.75-.125-5.75 1-8l-11 2 1-4h2v-2l2-2h4v-2h-2l-1-6h-6c2.889-1.624 5.141-2.271 8.438-2.5 2.585-.18 4.397-.423 6.762-1.52 4.062-1.422 7.906-1.231 12.176-1.168z" fill="#a07553"/><path d="M291 128l2 1v2h2v2l3 1-2 4h-2v6l4.313-.875 2.426-.492c2.515-.578 2.515-.578 5.262-2.633l2 1v-2h2v3l4 2-4 1 7 2-1-6h-4l-2-5 1.563.563c3.297.592 6.16.005 9.438-.562-1.875 6.75-1.875 6.75-3 9l2 1 2 3-8 1v3h-20v-3l-5-1v-2h2v-3h-3v-2l-6-1c0-2 0-2 1.875-4.125C286 135 286 135 288 135v-5h3v-2z" fill="#b27a49"/><path d="M444 150h15v2h3v4h3v13h-9l1-5h2v2h2l-.625-1.812C460 162 460 162 462 159l-3-2v-2l-3-1v-2h-2l-1 3-3 1v-3h-3l.563 2.438L448 158l-1 1h5v3l.5 2c.5 2 .5 2 .5 5h-14v-2h-3v-4h-2l.063-2.375c.124-2.606.124-2.606-1.062-4.625l2.152-.805 2.785-1.07 2.777-1.055c2.435-.852 2.435-.852 3.285-3.07z" fill="#ad7c51"/><path d="M385 115h6l1 3h2l1 2 2-4h5l-.625 2.813c-.742 3.339-.742 3.339 1.625 6.188 2.584.25 2.584.25 5 0v2l-2 2 2 4h4v3c-6.75.125-6.75.125-9-1l.105 1.863.082 2.449.105 2.426C403 144 403 144 401.676 145.793 400 147 400 147 397 147l2-5h1l1-7h-2l-1-3-2 6-2-2-1.375 2-1.625 2h-2c0-4 0-4 1.5-5.75L392 133l-1.898.035-2.477.027-2.461.035C383 133 383 133 381 132v-2h3l.688-1.937C386 126 386 126 388.5 125.188 391 125 391 125 393 126v2l4-2-4-4 1 3c-7.018-2.028-7.018-2.028-9-5-.187-2.687-.187-2.687 0-5z" fill="#5d3619"/><path d="M159 116l4.313-.062 2.426-.035C168 116 168 116 171 117v4h3v4h2v2h3v3h2v3h3v6l-1.937.813c-2.394 1.074-2.394 1.074-3.062 4.188h-3v-3h-3v-3h-2v-3h-3v-5h-3v-3h-3v-2l-3-1v-8z" fill="#73403a"/><path d="M301 110l2 1c-2.625 5.75-2.625 5.75-6 8h-6v3h8l1 3h-8l-1 5h-3v-2l-3 2h-5v5h2v-3h3v4h-3v2h-3v3l-3-1v-13c-4.646.485-4.646.485-9 2 .981-2.482 1.622-3.764 3.918-5.195l2.27-.93 2.438-1.008C278 121 278 121 281.688 120c3.718-1.123 6.114-2.805 9.313-5a192.18 192.18 0 0 1 5.25-2.812l2.578-1.332L301 110z" fill="#5e5546"/><path d="M202 122h17l2.296.018c8.439.111 15.033.76 22.59 4.838 6.936 2.55 14.796 2.061 22.113 2.145v1h-20v6h-2v-3h-4v-2l-5-1v-3h-17v-2h-14v2h-2v3h-4v3l-5 2v5h2v4h3v3h3v3l-5-1v-3h-3c-2.248-4.497-2.167-8.079-2-13h3v-3h2l1-3h2v-2h2l1-3z" fill="#625f54"/><path d="M162.688 111.75l3.137-.078c3.176.328 3.176.328 5.855 1.75 4.774 2.269 9.539 2.541 14.758 3.078 6.735.695 12.482 1.421 18.563 4.5-1.29 1.376-2.627 2.708-4 4h-2v2c-1.375 1.625-1.375 1.625-3 3h-2v3h-4v-3h3v-3h3v-5h-2v3h-4v2h-2v-2h-4v-3h-2v-3l-1.375 1.5C179 122 179 122 177 122v2h2v3h-3v-2h-2v-4h-3v-4h-3v-3h-11v12h-1l-.062-6.437-.035-3.621c.167-5.035 2.254-4.125 6.785-4.191z" fill="#59686c"/><path d="M420 127h2l1 6h3v2h2v6h-2c-1.158 4.054-.837 6.218 1 10l-2.437-.562L422 150l-1 1c-2.062-.437-2.062-.437-4-1h2l-2.375-4-1.336-2.25L414 142h-2c-1.198 2.329-1.198 2.329-2 5l2 3v3l-4-1v-2h-2l.625-2.375L407 145l-2-2v-3c6.75-4 6.75-4 9-4v-3h3v-3h3v-3z" fill="#b37743"/><path d="M299 175l7 1 1 4h-2v3h-5v3h-3v3h-3v3h-3v2h-5l-1 4h-2v2h-8v3h-6v2h-4v-2l4-1v-2h5l-.062-2.437C274 195 274 195 275 194h5v-2l5-1v-2h4v-2h2v-5l3-1v-4h5v-2z" fill="#714e31"/><path d="M431 225h1c1.199 6.373 1.065 10.238-2 16h2l2-2v12h-3v13h-3v3h-2v9h-6v-14h3v-6h2v-8h3v-14h3v-9z" fill="#a76e41"/><path d="M266 127h8l1 2-3 1-1 8h-2v-5h-6v3h2v2h-5v4l5-1 1 3h2v3h-8v-2h-2v-4h-6v-3h-3v-2h-3v-6l19-1 1-2z" fill="#4b443e"/><path d="M428 225h3v9h-3v14h-3v8h-2v6h-3v12l-2 1c-3-3.75-3-3.75-3-6h-2l-2 10-6 1v2l-4-1h3v-2h2v-4h2l1-5h2v-3h3v-3h3v-5h3v-9h3v-8h3v-12h2v-5z" fill="#5a3a28"/><path d="M305 256l1 2 3 1c-1 3-1 3-4 5h-3v6h3v6h14v-3h6v-3h5v-3l11 1 1 5h-2v-2c-5.443 1.49-10.213 2.942-15 6-4.727 1.922-9.078 2.336-14.125 2.313l-2.129.049c-3.141.003-5.396-.173-8.184-1.674-2.49-2.689-2.441-5.103-2.562-8.687.688-3.312.688-3.312 2-6l4-2c.812-2.555.812-2.555 1-5z" fill="#4e4c4a"/><path d="M238 222h2v3h6v3h6v3h6v2h2v4h14v2h-2v6h2l1 2c2.527.656 2.527.656 5 1v3h5v2h-8v-3h-3v-2h-3v-3h-2v-3l-3-1v-2h-11v-3h-6v-2h-5l-1-3h-2v-3h-3v-6z" fill="#784e34"/><path d="M373 209l3 1-1 15h-3v3h-2v3h-4v3h-2v5h-3v5h-5v-5h3l-.187-2.375L359 234l3-2v-7l2-6h2l1-5h2v-3h4v-2z" fill="#68452a"/><path d="M212 191l4 1h-3v11h3v3h2v2h9v6h3v3h8v-2l8-1v5h-5v3h-3v6h2v3l-1.812-.562c-2.352-.658-2.352-.658-5.187.563v-8h2v-4h-5l-1-3-5-1v-4h-3v-2l-2.812.125C215 209 215 209 212 207c-3.081-3.994-3.544-7.01-3-12 1.5-2.437 1.5-2.437 3-4z" fill="#463531"/><path d="M350 251h5v5h-2v5h-3v3h-3v9h-3v3h-2v3h-3l-1-7 4 1-1-5-2.875.063C335 268 335 268 333 267v-3h6v-2h3v-3h2v-3h3v-3h3v-2z" fill="#583a28"/><path d="M338 273h1v11h-3v6l7.938-.375 2.287-.094L352 289l1-2c2.649-.594 5.292-.742 8-1l1-3h2v3h2v-2h3l1-3 1 2-1 2h-2l-1 3c-6.559 5.851-15.689 5.192-24 5.25l-2.574.028-2.426-.012-2.187-.007C334 293 334 293 332 291c-.195-2.82-.195-2.82-.125-6.125l.055-3.32L332 279l3-1c1.15-1.967 1.15-1.967 2-4l1-1z" fill="#4a463f"/><path d="M202 183h11c.274 5.488.369 7.648-3 12-.404 3.707-.25 6.298 1 9.813 2.961 3.239 5.726 3.417 10 4.188v2h3l1 4 1.938.375L229 216l1 2c2.527.656 2.527.656 5 1v4h-2v8h-1l-.062-4.437-.035-2.496C232 222 232 222 233 221h-3.812c-6.546-.687-11.447-4.649-16.187-9l-1-3-4-2c-2.997-4.495-2.839-8.736-2-14 1.686-3.415 3.624-5.981 6-9h-10v-1z" fill="#484043"/><path d="M453 219h3v9h-3v17h-3v6h6v2c-6.75.125-6.75.125-9-1-1.461 2.647-2 3.894-2 7v5l-3.437.375L438 265l-1 2v-3h2l1-5h2v-6h3v-8l2-1c.468-2.356.468-2.356.625-5.062l.227-2.785L448 234h2v-9h3v-6z" fill="#5f3d28"/><path d="M383 105c10.79 3.184 20.249 7.426 30 13v2l2 .688c3.887 1.7 7.637 3.709 11 6.313v2l1.766.773c2.448 1.344 4.052 2.845 5.984 4.852l1.859 1.914L437 138c-1.867.574-1.867.574-4 1-2.51-1.403-3.741-2.431-4.937-5.062-1.473-2.685-3.222-3.041-6.062-3.937v-3h-5v-2h-3v-3l-2.187.563c-2.941.457-4.954.173-7.812-.562l1-4h-3v-2h-4l-1-2c-2.527-.656-2.527-.656-5-1v-3l-9-3v-2z" fill="#6a675c"/><path d="M454 152c2 0 2 0 3.625 1.375C459 155 459 155 459 157l5 2-1.5 1.813c-1.783 2.158-1.783 2.158-1.5 5.188h-2v-2h-2l-1 5h11v3h-23l2-1v-2h7c-.342-2.971-.342-2.971-1-6l-2-1 2-3-6 1v-2h2l-1-5h3v3l1-2h2l1-2z" fill="#735136"/><path d="M382 108l2 2 7 1v2h6c0 3.767-.235 4.912-2 8l-1-3h-2l-1-2-6-1 1 7 7 2v-3l1.688 1.938c2.533 2.259 3.996 2.694 7.313 3.063v1l-9 1v-2l-8 1-1-2h-3v-2h-2l-1-4 4-1-1-6-7 2v-2l5-1v-2l3-1z" fill="#ab784d"/><path d="M272 164h8v3h-5v2h-3v3h-3v3h-15v2h-11v-2h9v-3h2v-3h6v-2l2.371-.148 3.066-.227 3.059-.211L271 166l1-2z" fill="#7e5634"/><path d="M379 277l1 13 12-1v-2c2.139-2.139 3.133-2.427 6-3v-2h7v-2l5-1-1 3h-2l-1 3c-5.222 3-5.222 3-8 3l-1 3c-4.319 1.926-8.122 2.246-12.812 2.188l-3.457-.02C378 293 378 293 377 292a153.02 153.02 0 0 1-.062-6.562l.027-3.629L377 279l-5 2v-3c2-1 2-1 7-1z" fill="#523b2e"/><path d="M401 117l4 1v3l9 1v3h3v2h3v3h-3v3h-3v3h-2v-3h-4c-1.75-2.5-1.75-2.5-3-5l3-1-3.437-.812L401 125c-1.097-3.29-.8-4.713 0-8zm2 18l9 1-1 2-7 1-1-4z" fill="#a7754f"/><path d="M371 101l-1 7-2-4-12.687-.125-3.631-.051-3.506-.02-3.221-.032c-3.06.235-5.167.994-7.954 2.227l-6.687 1.063c-4.302.496-4.302.496-8.312 1.938l-5.812 1.063-3.145.535c-2.73.361-5.295.479-8.043.402l1-2h4v-2c20.196-5.373 40.177-6.487 61-6z" fill="#565d58"/><path d="M157 114h11v2h-9l.375 3.938.211 2.215L160 124l2 1v2h3v3h3v5h3v3h2l1 8c-4.999-2.857-10.063-5.899-13-11-.187-2.75-.187-2.75 0-5l-3-1c-1.442-2.884-1.094-5.417-1.062-8.625l.027-3.602L157 114z" fill="#452e2f"/><path d="M362 259h2v3h-2l-1 2-1-2 2-3zm-12 2h3l-1 9h3v-3h3v-3l3 1h-2v3h-3v3l-2 1c-.652 2.025-.652 2.025-1 4h-3v3h-6v5h-3v2h-2v-7h3v-3h2v-3h3v-9h3v-3z" fill="#a96f41"/><path d="M325 231h2v6h-2v2h-3v6h-6v5h-5v9l-5-1c1-3 1-3 2-5h-8v-3h8v-2h3v-3h2v-3h3v-3h4v-2h2v-3h3v-3z" fill="#583924"/><path d="M272 129h3c1.158 3.473 1.069 6.361 1 10h-2v5h-2v3h-3v2h-6v-2h5v-3h-2l-1-2h-5v-4h5v-2h-2v-3h6v5h2l-.062-3.937A59.19 59.19 0 0 1 271 130l1-1z" fill="#694832"/><path d="M431 139c4.764 2.443 4.764 2.443 5.875 5.063C437 146 437 146 436 148h6v2c-3.435 2.29-4.985 2.178-9 2-.988 3.946-.962 7.274-.562 11.313l.309 3.238L433 169h-2v-11h-2l-1-3c-2.015-.733-2.015-.733-4-1v2h-7v-3l10-2 1-7h2l2 3-1-8z" fill="#9c7151"/><path d="M441 143c7.807-.457 16.878-.374 23.195 4.797 3.616 4.414 4.202 8.952 4.93 14.516l.508 3.801L470 169h-5v-13h-3v-4h-3v-3h-6v-2l-2.117-.184-2.758-.254-2.742-.246C443 146 443 146 441 145v-2z" fill="#635e53"/><path d="M392 234h3v13l-3 1v8h-3v8h-3v6l-3-4-2 1c-.366-4.517-.366-4.517 1.375-6.812C384 259 384 259 386 259v-6h3v-8h3v-11zm-14 33l3 1-5 5-1-3h3v-3z" fill="#603b24"/><path d="M324 108v2h-10v4h-4l1 4h3v6l5 1v2l-3.25-.125c-3.407.114-4.957.338-7.75 2.125l1-4h3v-6l-5-1v-2h-5v6h2c1.625 1.375 1.625 1.375 3 3v2l-5 1c-1.424-4.45-2.602-8.284-2-13 2-3.375 2-3.375 4-6l2.609.559c3.534.46 6.156.174 9.641-.496C321.907 108 321.907 108 324 108z" fill="#634026"/><path d="M423 131c2.375.25 2.375.25 5 1l.918 1.914c1.331 2.567 2.412 3.055 5.02 4.211 2.58 1.167 4.679 2.286 7.063 3.875v3l2.117.184 2.758.254 2.742.246C451 146 451 146 453 147v2h6v1h-13v-3h-10l-.312-2.375c-.463-2.955-.463-2.955-3.687-4.625l1 8-3 1v-5h-2v7l-2-1v-3l-2-1 2-5h2v-6h-2v-2h-3v-2z" fill="#6e6656"/><path d="M351.375 102.813l2.5.002c4.805.034 9.387.387 14.125 1.186v1l-28 1-1 3v-2h-2l.508 1.898.617 2.477.633 2.461L339 116c-2 2-2 2-5.625 2.125L330 118l-1-2h4v-2h-2l-1-6h-6c2.889-1.624 5.141-2.271 8.438-2.5 2.585-.18 4.397-.423 6.762-1.52 4.062-1.422 7.906-1.231 12.176-1.168z" fill="#66503b"/><path d="M294 211h3v3h3v5h-3v4h-6v5h-2l-1 3h-5v3h-3v2h-5v-2h3v-3h2v-2l5-1v-3h3v-3h3v-5h3v-6z" fill="#845230"/><path d="M470 170h1l.207 25.557.095 11.868.078 11.457.043 4.367.031 6.125.027 3.519c-.577 3.728-1.922 5.399-4.481 8.107l.482-3.106c.793-6.377.732-12.785.799-19.203l.056-4.129.189-15.22.166-12.925.068-6.058.051-3.683.038-3.258C469 171 469 171 470 170z" fill="#535c5f"/><path d="M386 264h3l1 6h5v3h-3v6h-4v2l-3 1v3l-4 1v-7h3v-9h2v-6z" fill="#a76d40"/><path d="M168 118l1 6h2v3h3v3h2v3h2v2h-10v-5h-3v-3h-2v-3h2v-2h-3v-3c2-1 2-1 6-1z" fill="#6f4643"/><path d="M385 115h6l1 3h2l1 2 2-4h5l-.625 2.813c-.742 3.339-.742 3.339 1.625 6.188 2.584.25 2.584.25 5 0v2c-3.393 1.131-4.223.864-7.5-.25l-2.344-.766c-2.256-1.03-3.534-2.133-5.156-3.984l1 3c-7.018-2.028-7.018-2.028-9-5-.187-2.687-.187-2.687 0-5z" fill="#845737"/><path d="M302 116h7v3h3v6h-3v3l3-2 7 1 1-2v3h-3l1 5-2 1-3-2v-2h3v-3l-2.187 1.5c-2.961 1.579-4.525 1.782-7.812 1.5l-2-4 3 1v-2l-3-1v-2h-2v-6z" fill="#b47c4c"/><path d="M182 119h2v2h6v-2l6.375.375 3.586.211C203 120 203 120 205 122l-3 1-1 2h-2v2c-1.375 1.625-1.375 1.625-3 3h-2v3h-4v-3h3v-3h3v-5h-2v3h-4v2h-2v-2h-4v-3h-2v-3z" fill="#786b64"/><path d="M238 222h2v3h6v3h6v3h6v2l2 1c-11.522 1.517-11.522 1.517-17-1v-2h-2v-3h-3v-6z" fill="#853e2f"/><path d="M180 119h2v3h2v3h4v2h2v-2h4v-3h2v5h-3v3h-3v3h-5v-3h-3v-3h-3v-3h-2v-2h2l1-3z" fill="#662b27"/><path d="M459 218v21h-3v6h-2c-1.533-3.065-1.103-6.268-1.062-9.625l.014-2.141L453 228h3v-9c2-1 2-1 3-1z" fill="#a87046"/><path d="M316 127v3h-3c1.974 2.523 2.967 2.993 6.188 3.688L322 134v2l-9 2v-2h-3l2 5h3l1-2c1.354 2.709 1.065 5.009 1 8-4.75-.875-4.75-.875-7-2l1-2c-.399-2.098-.399-2.098-1-4h-2v2l-2-1 2-7h4l-3-1v-2c4.385-3 4.385-3 7-3z" fill="#7b4c29"/><path d="M341 109l1 4h2v-2h4v2h7l-1 3c-2.062.688-2.062.688-4 1l2 1-6 2v2l1.875.25c2.125.75 2.125.75 3.375 2.813L352 127c-2.312.313-2.312.313-5 0l-3-5h-3l1-4-2-1 1-1v-7z" fill="#693d20"/><path d="M445 158l7 1v3l.5 2c.5 2 .5 2 .5 5h-14v-2l-3-1 1.715-.48c2.217-.705 4.237-1.411 6.285-2.52 1.134-2.571 1.134-2.571 1-5z" fill="#8e5c38"/><path d="M372 102c7.85-.302 7.85-.302 11 2l1 3c2.329 1.027 2.329 1.027 5.063 1.688l2.785.762L394 110l-2 1-1 2v-2l-3.375.125C384 111 384 111 382 109h-3v2l-2.437.375L374 112l-1 2-.062-4.437-.035-2.496C373 105 373 105 374 104l-2-2z" fill="#72563a"/><path d="M174 146l4 1v2l7-1 2 3h-2c-2.292 4.872-2.786 8.74-1 13.875l1 2.125 1.813-.687C189 166 189 166 190.625 167c1.928 2.805 2.57 5.719 3.375 9-5.291-1.488-10.007-4.369-13-9-.687-5.094-.473-9.896 0-15l2-1-3.375-.25C176 150 176 150 174.563 147.938L174 146z" fill="#3c3841"/><path d="M288 123l1 4h-4v3h-5v5h2v-3h3v4h-3v2h-3v3l-3-1 1-13h3v-3l8-1z" fill="#ac7c54"/><path d="M159 116l4.313-.062 2.426-.035C168 116 168 116 171 117v4h3v4h2v2h2v3h-4v-3h-3v-3h-2l-1-6-6 1v3h3v2h-2l-1 3v-2l-3-1v-8z" fill="#693838"/><path d="M212 191l4 1h-3v11h3v3h2v2h9v6h-3v-3h-3v-2l-2.812.125C215 209 215 209 212 207c-3.081-3.994-3.544-7.01-3-12 1.5-2.437 1.5-2.437 3-4z" fill="#5e332b"/><path d="M196 158h42c-2 2-2 2-5.809 2.23l-4.629-.043-2.354-.002c-3.312-.026-6.048-.132-9.209-1.186l-1 2-2.25-.75L210 160l-1.875 2-2.125 2c-3.75-.25-3.75-.25-7-1v-2h-3v-3z" fill="#af784e"/><path d="M305 256l1 2 3 1c-1 3-1 3-4.062 4.688L302 265v11l18 1-1 2-7.75.188-2.211.076c-3.241.044-5.608-.035-8.5-1.568-2.455-2.704-2.418-5.121-2.539-8.695.688-3.312.688-3.312 2-6l4-2c.812-2.555.812-2.555 1-5z" fill="#4f4b48"/><path d="M421 130h2v3h3v2h2v6h-2v4h-2v-2h-2v-2l-7-1 1-3 4 1-.625-1.75c-.462-2.77.196-3.896 1.625-6.25z" fill="#b37b4d"/><path d="M428 225h3v9h-3v14h-3l-1 4-4-2h3v-8h3v-12h2v-5z" fill="#724426"/><path d="M260 133h3v3h2v2h-5v4l5-1 1 3h2v3h-8v-2h-2v-4h-3v-5h5v-3z" fill="#503426"/><path d="M413 269c2 0 2 0 4.563 2.063 2.859 3.445 3.271 5.517 3.438 9.938l-1 2c5.579-.638 5.579-.638 11-2l1-2c0 3 0 3-1.5 4.688-3.533 1.855-6.589 2.019-10.5 1.313-2.437-1.562-2.437-1.562-4-4-.394-2.324-.735-4.658-1-7l-2-1-1 6h-1c-.25-6.625-.25-6.625 2-10z" fill="#54524f"/><path d="M457 158l7 1-1.5 1.813c-1.783 2.158-1.783 2.158-1.5 5.188h-2v-2h-2l-1 5h11v3h-13v-10h2l1-4z" fill="#6a462c"/><path d="M173 141h3v3h6v-3h6c1.125 5.625 1.125 5.625 0 9l-1.625-.5c-2.834-.597-5.487-.566-8.375-.5v-2l-4-1-1-5z" fill="#643937"/><path d="M383 105l7.25 2.375 2.066.672c6.99 2.307 6.99 2.307 9.684 3.953l.813 1.938c1.884 3.273 4.709 3.774 8.188 5.063l-1 4-6-1 1-4h-3v-2h-4l-1-2c-2.527-.656-2.527-.656-5-1v-3l-9-3v-2z" fill="#625a50"/><path d="M299 209h14v2h-5v3h-3v3h-3v3h-2v2h-3v-3h3l-1-10z" fill="#915d36"/><path d="M420 148h2v2l5 1v1l-10 1v3h7v4h-2v7h-2v-9h-9v-3h3v-3l7-1-1-3z" fill="#5a2b11"/><path d="M447 244c1 2 1 2 1 5l8 2v2c-6.75.125-6.75.125-9-1-1.461 2.647-2 3.894-2 7v5l-3.437.375L438 265l-1 2v-3h2l1-5h2v-6h3v-8l2-1z" fill="#604232"/><path d="M202 180l19 1v5h-3v3h-2v2h-3v-8h-11v-3z" fill="#502e27"/><path d="M288 128v7h-2l-2 4h-2v2l6 1v2l-8-2 1 3-6-1 1-4 3 1v-3h3v-2h3v-4h-3v3h-2v-5c5.75-2 5.75-2 8-2z" fill="#633b1b"/><path d="M199 125h2v5h-3v3l-5 2v5h2v4h3v3h3v3l-5-1v-3h-3c-2.248-4.497-2.167-8.079-2-13h3v-3h2l1-3h2v-2z" fill="#602a27"/><path d="M185 158h8v2l3 1h-3v3h3c3 5.75 3 5.75 3 8h-6v-5h-3v-4h-2v-2h-3v-3z" fill="#7c403a"/><path d="M252 147l5 1v2l12-1v3h-6v6h3v3h-6c-.125-7.75-.125-7.75 1-10l-3 2h-3v-3h-3v-3z" fill="#5f361e"/><path d="M423 172h30l-1 4-11-2-1 2-1.875-.562c-4.457-.624-8.68.001-13.125.563l-2-4z" fill="#b4825b"/><path d="M283 231h5l-1.437 1.313c-1.799 1.711-1.799 1.711-2.562 4.688h-4l-1 3-3 2-1 3 13 2v1h-13l-1-3h-2v-5h3v-3l1.938-.375L279 236l1-2h3v-3z" fill="#a97044"/><path d="M179 127h3v3h3v3h5v3h-2v2h2v3h-8v3h-3l1-4 4-1v-6h-3v-3h-2v-3z" fill="#815c5a"/><path d="M287 119l1 4c-2.709 1.354-5.009 1.065-8 1v3h-3l-1 3v-3c-4.646.485-4.646.485-9 2 .981-2.482 1.622-3.764 3.918-5.195l2.27-.93 2.422-.992C283.416 119 283.416 119 287 119z" fill="#675c4b"/><path d="M437 175h2v5h-3v3h-3v3h-2l.105 2.047.082 2.703.105 2.672C431 196 431 196 428 200v-17h3l1-3h2v-2h3v-3z" fill="#95592d"/><path d="M411 141c1.75.125 1.75.125 4 1 4 5.222 4 5.222 4 8l-5 2v3h-3l-1 3-1-5h3l-1.625-2.625C409 147 409 147 409.813 143.625L411 141z" fill="#b67e4f"/><path d="M274 195h11v3h-2v2h-8v3h-6v2h-4v-2l4-1v-2h5v-5z" fill="#754a29"/><path d="M217 209h4v2h3l1 4 1.938.375L229 216l1 2c2.527.656 2.527.656 5 1v4h-2v8h-1l-.062-4.437-.035-2.496C232 222 232 222 233 221l-1.793-.078c-5.279-.379-8.313-1.028-12.207-4.922h2c-1.309-3.122-1.309-3.122-4-5v-2z" fill="#454749"/><path d="M222 123c13.17-.865 13.17-.865 19.188 2.438 7.641 4.074 16.353 3.466 24.813 3.563v1h-20l-1 2-1.477-1.277c-6.835-5.282-13.047-5.699-21.523-5.723v-2z" fill="#5b6e70"/><path d="M157 114h11v2h-9l.375 3.938.211 2.215L160 124l2 1 3 7 2 1-1 3-4-2v-4l-1.937-.375L158 129c-1.442-2.884-1.094-5.417-1.062-8.625l.027-3.602L157 114z" fill="#362d30"/><path d="M305 270h7l2 2c2.45.023 2.45.023 5.125-.375l2.758-.336L324 271v2h-5v3h-14v-6z" fill="#82573d"/><path d="M301 265h1v5h3v6h14v-3h8v2l-5 1v2l-9.937-.437-2.865-.119-2.725-.127-2.523-.111C302 277 302 277 301 276l-.062-5.562.027-3.066L301 265z" fill="#5e3f2e"/><path d="M373 209l3 1-1 15h-3v-8h-5v-3h2v-3h4v-2z" fill="#81522d"/><path d="M269 156h3v2h2v4l3 1-7 2v1h-6v-5h2v-3h3v-2z" fill="#a37046"/><path d="M310 136l1.563.563c3.297.592 6.16.005 9.438-.562-1.875 6.75-1.875 6.75-3 9l2 1 2 3-9 1v2l-2-1 1-3c2.063-.687 2.063-.687 4-1v-6h-4l-2-5z" fill="#b47f53"/><path d="M300 117c2 6.625 2 6.625 2 10l2 2-7-1v2l-3-1v-2h-2v-2h8l-1-2c-1.895-.465-1.895-.465-4.062-.625L291 122v-3c6.75-2 6.75-2 9-2z" fill="#aa7852"/><path d="M456 239l4 1 1 4h-2v4h-3v3h-6v-6h3l1-2v2h2v-6z" fill="#9a633d"/><path d="M459 150h4v2h2c2.717 1.841 3.021 3.098 3.73 6.355l.457 3.832.48 3.855L470 169h-5v-13h-3v-4h-3v-2z" fill="#735f48"/><path d="M324 108v2h-10v4h-4l1 4h3v6l5 1v2l-3.25-.125c-3.407.114-4.957.338-7.75 2.125l1-4h3v-6h-3l-1-6h5v-4l4.375-.5 2.461-.281L324 108z" fill="#7f5533"/><path d="M431 139c4.764 2.443 4.764 2.443 5.875 5.063C437 146 437 146 436 148h6v1l-2.047.402-2.703.535-2.672.527L428 152v-8h2l2 3-1-8z" fill="#8b5d3e"/><path d="M190 133h1l.438 3.688L193 146h3v3l6 1v3h-6v-3h-3v-3h-3v-3h-2v-3h2v-3h-2v-2h2v-3z" fill="#876468"/><path d="M386 126l4 1-3 3c3.343.074 5.804.065 9-1-1.958 7.831-1.958 7.831-5 11h-2c0-4 0-4 1.5-5.75L392 133l-1.898.035-2.477.027-2.461.035C383 133 383 133 381 132v-2h3l2-4z" fill="#683c1a"/><path d="M369 281l2 2-1 2h-2l-1 3c-1.889 2.04-3.252 2.931-6.043 3.188-1.987 0-3.973-.088-5.957-.187v-2h-2v-2l8-1 1-3h2v3h2v-2h3v-3z" fill="#544a40"/><path d="M275 149h2v2h3v5h2l-1 7-1-2-2.437.063C275 161 275 161 274 160v-5h3v-3h-2v-3z" fill="#78563d"/><path d="M281 144l1 4h-2v2h5v2h-2l2 11h-4l1-7h-2v-5h-3l-1-4 5-3z" fill="#543b2a"/><path d="M275 253l2 1 4.973.133 2.975.004 3.115-.012 3.127.012 2.971-.004 2.739-.003c2.088.104 2.088.104 3.101-1.129 2.671-.141 5.324-.042 8 0l-1 3v-2h-4v2c-4.841 1.252-9.601 1.148-14.562 1.125l-2.576.012-2.49-.004-2.252-.003c-2.152-.131-4.05-.54-6.119-1.129v-3z" fill="#4e5453"/><path d="M277 250v3h22l1-2-1 4-10.937.063-3.154.025-2.998.01-2.777.016C277 255 277 255 276 254l-2 2-3-3c2.625-3 2.625-3 6-3z" fill="#5b4334"/><path d="M431 274h5l-2 1 1 3c-5.219 4.101-8.224 5.261-15 5l1-4h7v-3h3v-2z" fill="#4b3c32"/><path d="M294 211h3v3h3v5h-3v3h-6v-5h3v-6z" fill="#664029"/><path d="M443 156v2h2v6l-9 2c.608-6.448.608-6.448 2.375-8.937C440 156 440 156 443 156z" fill="#b57944"/><path d="M392 234h3v13l-3 1v6l-1-3h-2v-6h3v-11z" fill="#653a1d"/><path d="M379 277l.148 2.301.227 3.012.211 2.988c.253 2.915.253 2.915 2.414 5.699 2.195.58 2.195.58 4.625.688l2.477.199L391 292v1l-6.437.063-3.621.035C378 293 378 293 377 292l-.062-6.562.027-3.629L377 279l-5 2v-3c2.463-1.231 4.28-1.072 7-1z" fill="#505755"/><path d="M267 242h2v3h2v3h3l1 4-7 1c-1.625-1.562-1.625-1.562-3-4 .813-3.75.813-3.75 2-7z" fill="#41403d"/><path d="M202 183h11c.443 5.319.443 5.319 0 8l-2.5 1.875c-2.742 1.851-2.742 1.851-2.832 4.586L208 205h2l-1 3c-3.47-3.97-3.607-6.961-3.504-12.094.858-4.946 3.432-8.003 6.504-11.906h-10v-1z" fill="#4e5d76"/><path d="M327 118h3v2c4.646-.485 4.646-.485 9-2 1 3 1 3 .063 5.188L338 125h-2v5h-2c-.125-5.75-.125-5.75 1-8l-11 2 1-4h2v-2z" fill="#71401d"/><path d="M274 160l6 1v2h5v1h-13l-1 3h-11v2h-5v-5l3 1 5.563.188 2.941.043c2.67.022 2.67.022 4.496-2.23l3-1v-2z" fill="#95633b"/><path d="M296 127l4.25.375 2.391.211c2.445.429 4.208 1.2 6.359 2.414v2l3-1v2h-4l-1 7-2-1 .063-2.437c.234-2.496.234-2.496-1.062-3.562l-7-1-1-5z" fill="#815738"/><path d="M423 153l8 1-2 1v3h2v8l-4 1 1-8c-1.84 1.84-2.224 4.569-3 7h-2l1-5-2-1h2l-1-7z" fill="#74492b"/><path d="M168 116l10 1 1 5h-2v2h2v3h-3v-2h-2v-4h-3v-4l-3-1z" fill="#8e6b5d"/><path d="M325 231h2v6h-2v2h-3v3h-4v2h-4v-2h2v-3h4v-2h2v-3h3v-3z" fill="#5b351c"/><path d="M403 192h3l.125 9.688.051 2.764c.034 4.617.06 8.368-2.176 12.549h-1v-17h2l-1-5-3-1h2v-2z" fill="#a26a3e"/><path d="M436 147h10v3h-2l-1 3c-2.215 1.203-2.215 1.203-4.937 2.25l-2.715 1.078C433 157 433 157 431 156c.711-1.922.711-1.922 2-4 2.164-.828 2.164-.828 4.625-1.25l2.477-.453L442 150v-2h-6v-1z" fill="#6e3f1d"/><path d="M372 225l3 1c-1.392 4.428-3.521 6.956-7 10h-2l-3 9h-1c-.24-4.087.577-7.177 2-11h2v-3h4v-3h2v-3z" fill="#a7724a"/><path d="M193 161h6v2l2 1h-2l1 5h2v3h2v3h-3v-3h-2c-2.042-2.905-3-4.401-3-8h-3v-3z" fill="#8e605d"/><path d="M324 153h1l.063 6.438.035 3.621C325 166 325 166 324 167l-5.062.063-2.785-.027L314 167v5h-1v-6h3v-2h6l-.125-2.125c.142-3.259.992-5.831 2.125-8.875z" fill="#9e693e"/><path d="M226.438 153.938l3.084.014L237 154l1 2h-2l-1 2v-2h-27v-1c6.168-1.099 12.184-1.115 18.438-1.062z" fill="#8d5938"/><path d="M263 139h3v2h3v-2h2v2l2 1-1 5h-3v2h-6v-2h5v-3h-2c-1.625-1.375-1.625-1.375-3-3v-2z" fill="#6c5140"/><path d="M186.766 116.559l2.695.42 2.789.459 2.836.447L202 119v1l-4.312.063-2.426.035C193 120 193 120 190 119v2h-6v-2l-5 1-1-3c3.17-.996 5.497-.965 8.766-.441z" fill="#616062"/><path d="M408 279l2 1-1 2h-2l-1 3c-5.222 3-5.222 3-8 3l-1 3h-2v-2h2v-4h2v-2l6-1v-2l3-1z" fill="#494d4d"/><path d="M198 130l3 1-.937 2c-1.312 3.705-1.665 7.093-2.062 11h-3v-4h-2v-5l5-2v-3z" fill="#a16142"/><path d="M424 126l2 1v2l1.766.773c2.448 1.344 4.052 2.845 5.984 4.852l1.859 1.914L437 138c-1.867.574-1.867.574-4 1-2.51-1.403-3.741-2.431-4.937-5.062-1.473-2.685-3.222-3.041-6.062-3.937v-3l2-1z" fill="#5a5e56"/><path d="M338 273h1c.125 5.75.125 5.75-1 8l-4-1v12l-2-1v-12l3-1c1.15-1.967 1.15-1.967 2-4l1-1z" fill="#515a5c"/><path d="M453 219h3v9h-3v12h-1c-1.036-5.05-1.103-9.874-1-15h2v-6z" fill="#55341d"/><path d="M453 200h3v17h-3v-17z" fill="#5a3218"/><path d="M263 199h11v1h-5v2l-4 1v2l4 1h-6v2h-5v-3l4-1 1-5z" fill="#8b562e"/><path d="M366 111l3 1-2 3h3v7h2v2h-3v-5h-2v3h-3v-8h-3c2.313-1.562 2.313-1.562 5-3z" fill="#724420"/><path d="M374 275l2 2-4 1 1 4h-3l-1 2h-3v2h-2v-7h6v-2l4-2z" fill="#4f3d2e"/><path d="M395 234l4 1-.25 6.375-.141 3.586L398 248l-4 2 1-16z" fill="#a56e46"/><path d="M235.375 177.875l2.23.027L243 178v2h-16v3h-6v-3c4.97-1.991 9.123-2.248 14.375-2.125z" fill="#804928"/><path d="M204 175c6.631.348 12.054.961 18 4v1h-9v-2h-2v2h-4v-2h-3v-3z" fill="#965b3e"/><path d="M399 129l6 2v3h-1l-.113 2.082-.199 2.73-.176 2.707c-.583 2.824-1.183 3.815-3.512 5.48h-3l2-5h1l.063-4.812.035-2.707c.012-2.615.012-2.615-1.098-5.48z" fill="#6c3a17"/><path d="M336 287h17l-1 3h-16v-3z" fill="#744c35"/><path d="M313 175l1 3h-2v2h4v3h-11v-3h3v-3h5v-2z" fill="#9b6031"/><path d="M255 175h12v1h-10l-1 4c-2.434 1.217-4.418 1.32-7.125 1.563l-2.758.254L244 182v-4h11v-3z" fill="#b17d51"/><path d="M444 150l5.875-.062 3.305-.035C456 150 456 150 458 151v3h-2v-2h-2l-1 3-3 1v-3h-3l-1 2-2-5z" fill="#a7744c"/><path d="M418 143l1.875.563c2.167.674 2.167.674 4.125-.562l3 8-2.437-.562L422 150l-1 1-4-1h2l-1.062-2.375L417 145l1-2z" fill="#966540"/><path d="M431 138l2 10-3 1v-5h-2v7l-2-1v-3l-2-1 2-5h2v-2c2-1 2-1 3-1z" fill="#582e10"/><path d="M266 127h8l1 2-3 1-1 8h-2v-5h-6l1.5-1.312c1.832-1.685 1.832-1.685 1.5-4.687z" fill="#523e29"/><path d="M341 123l1.563.938c2.567 1.251 2.567 1.251 6.125 1.563l3.313.5 1 2h-8l-2-2-1 2h-2l-1 4h-3v-7l3 1 2-3z" fill="#8e5c36"/><path d="M201 123l19 1v1l12 1v1h-14v-2h-14v2h-2l-1 3v-7z" fill="#7e604b"/><path d="M454 152h2v4h-3v3l2 1-3 3-2-1 2-3-6 1v-2h2l-1-5h3v3l1-2h2l1-2z" fill="#673f21"/><path d="M378 205v7l-1 1v5 3l-2 2v-13l-2-1-1 2v-5c3-1 3-1 6-1z" fill="#a87043"/><path d="M371 101l1 2h5l-4 4h-2l-1 7c-3-1-3-1-4-2l-3-1 1-4 6 1 1-7z" fill="#664a33"/><path d="M437 144l3 1 8.504.719C451 146 451 146 453 147v2h6v1h-13v-3h-10l1-3z" fill="#7b5d43"/><path d="M319 125l1 3h-3l1 5-2 1-3-2v-2h3v-3l-2.187 1.5c-2.961 1.579-4.525 1.782-7.812 1.5l-2-4 2.313 1.125L309 128l3-2 7 1v-2z" fill="#9d6e4b"/><path d="M401 117l4 1v3l5 2v2c-6.387 1.326-6.387 1.326-9-.062-1.472-2.852-.741-4.905 0-7.937z" fill="#9e704e"/><path d="M333 108h3c2.595 2.595 2.7 4.399 3 8-2 2-2 2-5.625 2.125L330 118l-1-2h4l1-4 3 2v-2l-4-1v-3z" fill="#8d6547"/><path d="M330 225v6h-2v5h-1v-5h-2l-1 3v-4l-2-1c3.5-4 3.5-4 8-4z" fill="#815330"/><path d="M286 151c2.222 2.222 2.926 4.085 4 7l-2 1-2-1v2h5v1h-6c-1.858-3.135-2.201-5.375-2-9l3-1z" fill="#815f42"/><path d="M174 146l4 1v2l7-1 2 3h-2c-2.402 4.804-2.611 9.731-3 15h-1v-14l2-1-3.375-.25C176 150 176 150 174.563 147.938L174 146z" fill="#445062"/><path d="M316 245h1c.92 7.822.92 7.822-1.336 10.711C314 257.063 314 257.063 311 259v-9h5v-5z" fill="#9d6b43"/><path d="M359 234v5h-3v5h5v-5l2 1-1 5h-4l-1 3-2-1c-1.098-4.072-1.633-7.764.313-11.562C357 234 357 234 359 234z" fill="#7c5231"/><path d="M453 172h14v14h-1l-.184-2.152-.254-2.785-.246-2.777c-.077-2.247-.077-2.247-1.316-3.285l-5.992.063C456 175 456 175 453 174v-2z" fill="#85624a"/><path d="M425 156l1 3h2c.25 6.625.25 6.625-2 10h-4l-1 2-1-3h2v-7h2l-1 5h2l2-6h-2v-4z" fill="#ad7b56"/><path d="M272 129h3c1.158 3.473 1.069 6.361 1 10h-2v5h-2v-15z" fill="#936b47"/><path d="M293 140l.313 1.938L294 144l3 1h-2v6l-6-2v-2h2v-3h-2l1-3 3-1z" fill="#bd8859"/><path d="M393 133l-2 3h-2l.188 2.375L389 141l-3 2-2-10c6.75-1.125 6.75-1.125 9 0z" fill="#b58257"/><path d="M168 118l1 6h2v3h-3v-2h-3v-3h-3v-3c2-1 2-1 6-1z" fill="#8c5c5e"/><path d="M381 112l1 5-6-1 1 4-4-2-1 3-1-4h2l1-3c3-2 3-2 7-2z" fill="#5f371b"/><path d="M449.375 253.688c3.711.32 4.997.79 7.625 3.313l-5.957.684c-2.237.288-2.237.288-5.043 1.316v5c-1.562-1.187-1.562-1.187-3-3 .353-4.818 1.338-6.846 6.375-7.312z" fill="#4e4e4c"/><path d="M280 142c3.716-.201 4.772-.152 8 2v3h-3v3h-5v-2h2v-4h-2v-2z" fill="#7a5b44"/><path d="M304 135l1 3-2 3h-3v2h-3v-6l7-2z" fill="#ab774f"/><path d="M266 142v2h2v3h-8v-2l-2-1h2v-2c2.491-1.245 3.411-.777 6 0z" fill="#60402e"/><path d="M249 208h9v3h-6v3h-5v-2h2v-4z" fill="#7b502d"/><path d="M190 167h3v5h3l.25 1.875c.563 2.309.563 2.309 2.813 3.375L201 178v2h-2v-2h-6l-.402-1.898-.535-2.477-.527-2.461c-.458-2.194-.458-2.194-1.535-4.164z" fill="#42302e"/><path d="M254 142h4v3h2v2h3v3h-6v-2h-2l-1-6z" fill="#ac7650"/><path d="M397 130c2 2 2 2 2 5h2v8l-5-2c-.143-7.429-.143-7.429 1-11z" fill="#9c6946"/><path d="M302 217l3 1h-2l-.125 1.688c-1.366 3.61-3.753 5.17-6.875 7.313-2.375-.187-2.375-.187-4-1l-1 2v-5l9-1v-2h2v-3z" fill="#a16c41"/><path d="M263 152h6v3l3 1h-3v2h-6v-6z" fill="#77523b"/><path d="M420 127h2l-.437 1.563c-.721 3.123-1.135 6.263-1.562 9.438l-6-2v-3h3v-3h3v-3z" fill="#845430"/><path d="M330 267h3c-1.246 3.449-2.435 6.344-5 9-3.187 1.25-3.187 1.25-6 2v-2l5-1v-2h-2v-3h5v-3z" fill="#58483e"/><path d="M336 239h3v9h-3v3l-3-1v-3h3v-8z" fill="#83502a"/><path d="M238 222h2v3h3v4h2v4l2 1-4-1v-2h-2v-3h-3v-6z" fill="#78403a"/><path d="M246 214v5h-5l-1 3v-4l-3-1c1-2 1-2 2.813-2.625C242 214 242 214 246 214z" fill="#6a4331"/><path d="M202 180l14 2 1 4h-2v2h-2v-5h-11v-3z" fill="#3b3132"/><path d="M452 162c.687 2.491 1 4.379 1 7h-13l1-3 9 1v-4l2-1z" fill="#9d7251"/><path d="M235 127c7.378 1.572 7.378 1.572 10 3.375 1 1.625 1 1.625 1 5.625h-2v-3h-4v-2l-5-1v-3z" fill="#745a40"/><path d="M410 123h3l1 7c-2.788 1.033-3.868 1.045-6.75.063L405 129l1-2h2v-2h2v-2z" fill="#b57e4f"/><path d="M280 229h6v2h-3v3h-3v2h-5v-2h3v-3h2v-2z" fill="#804b28"/><path d="M221 183h3v6h-3v2h-5v-2h2v-3h3v-3z" fill="#8c5640"/><path d="M420 148h2v2l5 1v1l-10 1v3h-6l3-1v-3l7-1-1-3z" fill="#6c3c1f"/><path d="M314 150h13v3h-13v-3z" fill="#8f5e36"/><path d="M188 144h2v3h3v3h3v3h-5l-1-3h-2l-1-3h2l-1-3z" fill="#673e3d"/><path d="M191 139l4 1v4h3v3h3v3l-5-1v-3h-3l-2-7z" fill="#66352f"/><path d="M441 143c7.518-.44 13.842.714 21 3v1c-6.152.098-6.152.098-8 0l-1-1c-2.016-.234-4.038-.413-6.062-.562l-3.348-.254L441 145v-2z" fill="#5a6971"/><path d="M198 122h3v3h-2v2c-1.375 1.625-1.375 1.625-3 3h-2v3h-4v-3h3v-3h3v-2h2v-3z" fill="#d5aeb5"/><path d="M383 105l12 4v2l5 2v3h-2l-1-2c-2.527-.656-2.527-.656-5-1v-3l-9-3v-2z" fill="#5c5a4d"/><path d="M260 234l2 5h-7v-3h-6c3.634-2.326 6.771-2.163 11-2z" fill="#734434"/><path d="M216 206h2v2h9v6h-3v-3h-3v-2h-5v-3z" fill="#7c4332"/><path d="M457 164h2v2h2l1-2 3 1v4h-9l1-5z" fill="#9f744f"/><path d="M185 133h5v3h-2v2h2v3h-5v-8z" fill="#9d7d82"/><path d="M250 133h5v8h-3v-3h-3l1-5z" fill="#654e3e"/><path d="M426 273h3v2l2 1h-3v3h-8v-3h6v-3z" fill="#815537"/><path d="M300 251l4.438-.062 2.496-.035C309 251 309 251 310 252v7l-4-1c1-3 1-3 2-5h-8v-2z" fill="#413329"/><path d="M363 236v3h-2v5h-5v-5h3v-2c2-1 2-1 4-1z" fill="#54341f"/><path d="M241 175h2v2h11l1-2v3h-11l-1 2v-2h-10v-2l3.438.063c3.378.353 3.378.353 4.563-1.062z" fill="#8b5b39"/><path d="M159 124l3 1 3 7 2 1-1 3-4-2v-4l-1.937-.312L158 129l-1-3h2v-2z" fill="#35313c"/><path d="M442 264l3 1c-1.358 5.556-1.358 5.556-4.437 7.688L438 274c-1.751 1.582-1.751 1.582-3 3l-1-2h2l2-7 4 1v-5z" fill="#4d5557"/><path d="M237 218h3v4h-2v6h2v3l-4-2-.062-4.375-.035-2.461C236 220 236 220 237 218z" fill="#4c2c2b"/><path d="M209 192c1 3 1 3 .875 6.375.134 3.879.879 5.536 3.125 8.625l-3 1v-3h-2c-1.177-3.53-1.199-6.295-1-10l2-3z" fill="#3f3839"/><path d="M173 141h3v3h3v3h6l-1 2h-6v-2l-4-1-1-5z" fill="#322c2c"/><path d="M246 136h3v2h3v3h6v1h-11l-1-6z" fill="#906342"/><path d="M171 127h3v3h2v3h2v2h-4v-2h-3c-1.125-3.75-1.125-3.75 0-6z" fill="#855655"/><path d="M169 122l5 1v2h2v2h2v3h-4v-3h-3v-3h-2v-2z" fill="#532325"/><path d="M194 122h2v5h-3v3h-4v-2h-2l1-3v2h2v-2h4v-3z" fill="#754448"/><path d="M241 219h5v6h-6l1-6z" fill="#a67761"/><path d="M275 195h10v2c-3.402 2.094-6.053 2.179-10 2v-4z" fill="#54331f"/><path d="M300 117v6l-9-1v-3c6.75-2 6.75-2 9-2z" fill="#926546"/><path d="M317 106v2h5v1l-5.687 1-3.199.563A46.79 46.79 0 0 1 305 111l1-2h4v-2c4.75-1 4.75-1 7-1z" fill="#575a52"/><path d="M431 279l1 3c-2.548 2.548-4.549 3.276-8.062 3.438C420 285 420 285 418 283l-1-2h3v2c5.551-.744 5.551-.744 11-2v-2z" fill="#545f61"/><path d="M464 242l2 1-1 8h-2v2l-4 2 1-5 3-1 1-7z" fill="#454548"/><path d="M305 209h8v2h-5v3l-5 1v-4h2v-2z" fill="#834e28"/><path d="M199 164h2v2h3l.375 2.438L205 171l2 1v3h-3v-3h-2v-3h-2l-1-5z" fill="#673427"/><path d="M466 156h1l3 13h-5l1-13z" fill="#5b584c"/><path d="M204 153.438l1 1.563c-6.625 2-6.625 2-10 2l-1-4c7.508-1.354 7.508-1.354 10 .438z" fill="#472d2b"/><path d="M316 127v3h-3l3 4-8 1v-2h4l-3-1v-2c4.385-3 4.385-3 7-3z" fill="#5a3215"/><path d="M320 126l3 2-2 6-4-1v-5h3v-2z" fill="#bb8357"/><path d="M336 103v2l-14 1v2h-5v-2c6.253-2.405 12.349-3 19-3z" fill="#59717a"/><path d="M341 265c1.563 1.063 1.563 1.063 3 3-.312 3.688-.312 3.688-1 7l-4 1-1-4 4 1-1-5h-5v-1h5v-2z" fill="#473931"/><path d="M236 229c1.938.688 1.938.688 4 2 .75 2.625.75 2.625 1 5l3 1-1 2-1.687-1.875c-2.391-2.197-4.317-2.992-7.312-4.125l-1-2 3-2z" fill="#4b4b4c"/><path d="M185 151h2l-1 4h-2c.525 6.289.525 6.289 3 12h-2c-2.827-3.696-3.576-6.389-3-11 1.375-2.875 1.375-2.875 3-5z" fill="#3e3233"/><path d="M388 125l5 1v2l2 1c-2 2-2 2-5.625 2.125L386 131l3-4-1-2z" fill="#533320"/><path d="M393 121l1.688 1.938c2.533 2.259 3.996 2.694 7.313 3.063v1l-9 1v-2l-5-1 1-2h3l1-2z" fill="#946e52"/><path d="M363 101c1.945-.293 1.945-.293 4.125-.187L371 101l-1 7-2-4h-7l2-3z" fill="#645b52"/><path d="M409 273h2v6l-6 1v2l-4-1h3v-2h2v-3h3v-3z" fill="#48382d"/><path d="M305 270h7l1 2-1 2-7 1v-5z" fill="#86522f"/><path d="M269 245h2v3h3l1 4-6 1v-8z" fill="#473730"/><path d="M320 233l2 1v3h-2v2h-4v3h-3v-4l2.375-.812c2.906-1.036 2.906-1.036 4.625-4.187z" fill="#84583c"/><path d="M336 206h2l1 5-8 1v5h-1v-6h3v-2h3v-3z" fill="#9b6033"/><path d="M202 183h11v8l-3 2c-.25-5.625-.25-5.625 2-9h-10v-1z" fill="#4c565a"/><path d="M299 175l1 3h-2l-1 5h-6l1-2h2v-4h5v-2z" fill="#845734"/><path d="M300 169h5v6h-5v-6z" fill="#91623d"/><path d="M312 119h1v5h5l1 3-3.25-.125c-3.407.114-4.957.338-7.75 2.125l1-4h3v-6z" fill="#703c16"/><path d="M343 119l3 1v2l1.875.25c2.125.75 2.125.75 3.375 2.813L352 127c-2.25.375-2.25.375-5 0-4-4.973-4-4.973-4-8z" fill="#5d3219"/><path d="M359 115v2l1.75-.625c2.77-.462 3.896.196 6.25 1.625-4.75 1.125-4.75 1.125-7 0l-1 2h-3v-2h-2v-2c2-1 2-1 5-1z" fill="#b88352"/><path d="M309 243l4 2h-2v3h-3v2h-8c2-2 2-2 5.063-2.937L308 246l1-3z" fill="#875b3f"/><path d="M325 237h2c.75 1.75.75 1.75 1 4-1.812 2.25-1.812 2.25-4 4h-2v-6h3v-2z" fill="#a16e48"/><path d="M252 225h7l-2 1v3h-2v2h-3c-1.125-3.75-1.125-3.75 0-6z" fill="#a3643a"/><path d="M396 129c-1.958 7.831-1.958 7.831-5 11h-2c0-4 0-4 1.5-5.75L392 133l-1-2c3-2 3-2 5-2z" fill="#865a38"/><path d="M295.625 123.938l2.477.027L300 124v1h-8l-1 5h-3v-2l-3 1v-2h4v-2c2.405-1.203 3.95-1.101 6.625-1.062z" fill="#8e5b35"/><path d="M350 251h5v5h-2v-2l-6 2v-3h3v-2z" fill="#58351d"/><path d="M272 244l1.977.402c4.664.942 9.322 1.855 14.023 2.598v1h-13l-1-3-2-1z" fill="#9e683d"/><path d="M245 234h4v2h6v3c-5.461-.352-5.461-.352-8-1-1.5-2.062-1.5-2.062-2-4z" fill="#57342f"/><path d="M230 214h12l-4 1v2h-8v-3z" fill="#825238"/><path d="M221 191l-3 1v3l-3 1-1 6h-1v-10c2.928-.976 4.956-1.082 8-1z" fill="#9e6248"/><path d="M272 149h3v3h2v3h-3v3h-2v-9z" fill="#56392a"/><path d="M315 139c2 2 2 2 2.125 5.125L317 147c-4.75-.875-4.75-.875-7-2l1-2 3 1 1-5z" fill="#61320f"/><path d="M431 139c4.8 2.462 4.8 2.462 5.813 5.188L437 146l-2 1-3-1-1-7z" fill="#a07551"/><path d="M176 119h3v3h-2v2h2v3h-3v-2h-2v-4h2v-2z" fill="#b7928e"/><path d="M422 260l1 2h-3v6h-2v-3h-3l-1 2v-3h3v-3l5-1z" fill="#6a4229"/><path d="M252 211h6c-7.4 6-7.4 6-11 6v-3h5v-3z" fill="#a37047"/><path d="M212 191c2.125.375 2.125.375 4 1h-3v8h-3v-7l2-2z" fill="#6f3d32"/><path d="M285 161l6 1-5 6-1-2-4-2h4v-3z" fill="#b68153"/><path d="M338 279h1v5h-3v5c-2.29-3.435-2.178-4.985-2-9l4 1v-2z" fill="#563b2c"/><path d="M362 259h2v3h-2l-1 2-1-2 2-3zm-4 5l3 1h-2v3h-3v3l-3 1v-2h2v-3h3v-3z" fill="#a36636"/><path d="M308 262v3h-3v5h-3v-6c3.75-2 3.75-2 6-2z" fill="#7d5339"/><path d="M446 169h8v3h-10l2-1v-2z" fill="#764d2f"/><path d="M432 157l4 1h-2v5l2 1-2 5c-2.6-3.9-2.151-7.474-2-12z" fill="#714628"/><path d="M184 158l1 3h3v2h2l-1 4c-3-1-3-1-5-4v-5z" fill="#602f28"/><path d="M252 147l5 1v2l4 1c-3 2-3 2-6 2v-3h-3v-3z" fill="#773f1f"/><path d="M161 130l3 3v2l3 1 1 5c-3.358-1.39-5.186-2.825-7-6-.187-2.75-.187-2.75 0-5z" fill="#425765"/><path d="M376 116l6 1-4 2 1 6h-3v-9z" fill="#825533"/><path d="M402 113c3.791 1.45 7.387 3.152 11 5l-1 5-2-1v-3l-3.437-1.312L403 116l-1-3z" fill="#585b5f"/><path d="M408 279l2 1-1 2h-2l-1 3-7-1 2-2h4v-2l3-1z" fill="#444542"/><path d="M419 249l3 1h-2v9l-4-1 3-9z" fill="#815739"/><path d="M422 240h4v2h-3v8l-3-1 2-9z" fill="#8e5f3d"/><path d="M252 231c3.188-.25 3.188-.25 6 0v2l2 1-11 1 3-4z" fill="#8a4c33"/><path d="M294 211h3v3h3l-1 4v-3h-2l-1 3-2-1v-6z" fill="#7b4f2d"/><path d="M263 199h11v1h-5v2l-6 1v-4z" fill="#8d5c37"/><path d="M289 184h2v3h-2v2h-4v2h-3l2-4h4l1-3z" fill="#8d603d"/><path d="M457 158l7 1c-2.312 2.063-2.312 2.063-5 4l-3-1 1-4z" fill="#5c3620"/><path d="M187 142v2h-2v3h-6v-3c3.088-1.765 4.233-2 8-2z" fill="#562e2c"/><path d="M415 140l7 1 1 4-5-2v2h-2l-1-5z" fill="#703e19"/><path d="M199 138l2 1v8h-3v-8l1-1z" fill="#97542f"/><path d="M291 128l3 3c-1.377 2.754-3.367 3.515-6 5v-6h3v-2z" fill="#bc8251"/><path d="M341.375 120.625L344 121c1.813 2.5 1.813 2.5 3 5l-6-2-3 3v-5c1-1 1-1 3.375-1.375z" fill="#a7795c"/><path d="M386 117h2l.75 2.375c1.404 2.948 2.257 3.527 5.25 4.625l-2 1-6-3v-5z" fill="#603213"/><path d="M393 114h5l-2 7-2-1v-2h-2l1-4z" fill="#ab7b53"/><path d="M396 287l1 2h-2v3h-13v-1l11-1v-2l3-1z" fill="#403b37"/><path d="M299 264h1l2 14c-3-2-3-2-3.75-5.312-.219-3.233-.095-5.591.75-8.687z" fill="#52595a"/><path d="M453 219h3v9h-2l-1-9z" fill="#673b1b"/><path d="M275 200h10c-3 3-3 3-6.187 3.188L276 203l-1-3z" fill="#b48259"/><path d="M216 198c1.884 3.265 2.493 6.281 3 10l-1-2h-2v-3l-3-1 3-4z" fill="#995c3e"/><path d="M437 175h2v5h-3v3h-2v-2l-2-1h2v-2h3v-3z" fill="#a36432"/><path d="M204 175l6 1 1 4h-4v-2h-3v-3z" fill="#83564c"/><path d="M275 167l4 1-7 6v-5h3v-2zm-5 7l2 1z" fill="#b27d4f"/><path d="M282 152h1l2 11h-4l1-7-2-1h2v-3z" fill="#644123"/><path d="M193 149l9 1v3h-6v-3l-3-1z" fill="#7b5151"/><path d="M406 147h4c2 3 2 3 2 6l-4-1v-2h-2v-3z" fill="#7d4a24"/><path d="M294 138h3v5l5-1-1 2h-7v-6z" fill="#6d3a12"/><path d="M263 133h6v5h-3v-2h-3v-3z" fill="#8c694b"/><path d="M395 127h6l-3 1-2 10c-2.266-4.532-1.927-6.178-1-11z" fill="#613c20"/><path d="M369 211h3v5l-5 1v-3h2v-3z" fill="#95633e"/><path d="M378 205v4h-5l-1 2v-5c3-1 3-1 6-1z" fill="#9f6436"/><path d="M311 166h2v6h-6l1-3h3v-3z" fill="#895c3a"/><path d="M423 157l1 3h-2v7h-2v-9l3-1z" fill="#643414"/><path d="M196 158h2v2h6l-1 4-4-1v-2h-3v-3z" fill="#b47c55"/><path d="M289 122h10l1 2-11 1v-3z" fill="#572808"/><path d="M332 107l2 1-1 3 4 1v2h-6c-.625-2.375-.625-2.375-1-5l2-2z" fill="#643f22"/><path d="M464 237l1 2h-3v9h-3v-4h2v-6l3-1z" fill="#76523b"/><path d="M300 183l3 1-1 5h-5v-3h3v-3z" fill="#9a663a"/><path d="M202 150h2v2h3v5h-6l3-3-2-4z" fill="#663825"/><path d="M261 151l-1 10c-2.463-2.463-2.998-4.707-4-8 3-2 3-2 5-2z" fill="#9b6947"/><path d="M173 138l6 1v5h-3v-3h-3v-3z" fill="#62413c"/><path d="M423 131c2.313.125 2.313.125 5 1 1.813 3.063 1.813 3.063 3 6l-3 1v-4h-2v-2h-3v-2z" fill="#735538"/><path d="M335 121v3l-3.312.375c-3.761.38-3.761.38-6.687 2.625v-4l10-2z" fill="#a26e47"/><path d="M301 122c3 0 3 0 4.688 1.375C307 125 307 125 307 127l-5 1-1-6z" fill="#7d4e2a"/><path d="M431 274h5l-2 1 1 3-3 2-2-1 1-5z" fill="#3c352d"/><path d="M347 265h3c-.75 6.75-.75 6.75-3 9v-9z" fill="#ab774d"/><path d="M389 245h2v2l3 1h-2v6l-1-3h-2v-6z" fill="#754827"/><path d="M313 242l1 2h4v-2h4v3h-6l-1 2v-2h-2v-3z" fill="#694125"/><path d="M217 209h4v2h3v3c-4 0-4 0-5.75-1.375C217 211 217 211 217 209z" fill="#5d352e"/><path d="M451 197l5 1v2h-3v6h-1l-1-9z" fill="#835738"/><path d="M179 127h3v3h3v3h-4v-3h-2v-3z" fill="#c39394"/><path d="M276 123v2h-3v2l-6 2c2.026-4.676 3.703-6 9-6z" fill="#56606c"/><path d="M163 124l5 1v5h-3v-3h-2v-3z" fill="#7a494b"/><path d="M327 118h3v2l2 2-8 2 1-4h2v-2z" fill="#6a3917"/><path d="M339 115l-2 3c-3.625.188-3.625.188-7 0l-1-2c3.406-.778 6.508-1.1 10-1z" fill="#653717"/><path d="M344 111h4v2h7l-1 2c-7.75.125-7.75.125-10-1v-3z" fill="#7f522f"/><path d="M364 227h5l-3 7-2-1v-6z" fill="#603c22"/><path d="M285 189l1 3h-3v3h-8v-1h5v-2l5-1v-2z" fill="#7f5536"/><path d="M424 156l1 4h2l-2 6h-2l1-5-2-1h2v-4z" fill="#8a5834"/><path d="M442 149c-2.068 2.797-3.144 3.027-6.687 3.688L432 153v-2c3.402-2.094 6.053-2.179 10-2z" fill="#a27559"/><path d="M269 149h3l1 6h-4v-6z" fill="#5b4739"/><path d="M288 144h3v3h-2l-1 3h-3v-3h3v-3z" fill="#643c20"/><path d="M426 141l2 1v9l-2-1v-3l-2-1 2-5z" fill="#6c3e1a"/><path d="M187 122l6 1v2h-3v2h-2l-1-5z" fill="#c8a696"/><path d="M373 105h5v5h-3l-2-5z" fill="#9f7756"/><path d="M372 102c6.4-.369 6.4-.369 9.438 1.5L383 105l-4.375.188-2.461.105L374 105l-2-3z" fill="#5d625d"/><path d="M364 281h5v3h-3v2h-2v-5z" fill="#443731"/><path d="M338 273h1c.125 5.75.125 5.75-1 8h-2v-6l2-2z" fill="#504c48"/><path d="M327 273v2l-5 1v2h-2v-4c3-1 3-1 7-1z" fill="#483e37"/><path d="M411 267l3 1h-2l-1 5h-2v3l-3-1h2l1-5h2v-3z" fill="#6d4932"/><path d="M348 261h2v3h-3v9l-2-1 .375-4.375.211-2.461C346 263 346 263 348 261z" fill="#643e24"/><path d="M319 258l3 1h-2l-.375 1.875C319 263 319 263 317 265l-3-1h2v-3h2l1-3z" fill="#9f6234"/><path d="M373 244h2v4h-2l-1 3-3-1 1-2h2l1-4z" fill="#9c5f31"/><path d="M357 234h2v5h-4l-1 2c.613-2.962 1.254-4.381 3-7z" fill="#805739"/><path d="M290 195c-1 3-1 3-4 5h-3c0-2 0-2 1.25-3.625C286 195 286 195 290 195z" fill="#ab764d"/><path d="M439 169h7v2c-2.709 1.354-5.009 1.065-8 1l1-3z" fill="#684129"/><path d="M462 160h3v5l-4-1c0-3 0-3 1-4z" fill="#b4845d"/><path d="M413 158h7v5l-2-1v-2h-5v-2z" fill="#ab7c53"/><path d="M257 145h3v2h3v3h-5l-1-5z" fill="#ad805c"/><path d="M421 130h2v3h3v2l2 1-4 1v-3l-4-2 1-2z" fill="#a9774e"/><path d="M397 130c2 2 2 2 2.125 5.625L399 139l-3-1 1-8z" fill="#9e7151"/><path d="M399 129l6 2v3l-3 1-3-6z" fill="#89674e"/><path d="M182 119h2v2l4 1-1 3h-3v-3h-2v-3z" fill="#996554"/><path d="M406 119c2.625-.187 2.625-.187 5 0l-1 4-6-1 2-3z" fill="#533720"/><path d="M401 117l4 1-1 4-4 1 1-6z" fill="#8a5e41"/><path d="M303 111l-1 3h-8c2.592-2.592 5.457-4.772 9-3z" fill="#526374"/><path d="M369 281l2 2-1 2h-2l-1 3-3 1v-3h2v-2h3v-3z" fill="#5b686b"/><path d="M374 267h4v3h-3v3h-2l1-6z" fill="#855a3c"/><path d="M311 250h5l-2 1c-.656 2.527-.656 2.527-1 5h-2v-6z" fill="#7b563c"/><path d="M458 252l1 4c-3.069 1.534-5.701.55-9 0 3.228-2.152 4.284-2.201 8-2v-2z" fill="#373535"/><path d="M448 198l1 3-4 4v-5h3v-2zm-5 7h2l-1 3-1-3z" fill="#895229"/><path d="M313 175l1 3h-2v2l-4 1v-4h5v-2z" fill="#9f6a3e"/><path d="M442.188 162.375L445 163c-2.762 2.762-5.207 2.579-9 3v-2c3-2 3-2 6.188-1.625z" fill="#a66b3e"/><path d="M437 157c1.333 2.667.671 4.167 0 7l-3-1v-5l3-1z" fill="#b47f55"/><path d="M455 159l2 1-2 3-1 6c-1.125-1.687-1.125-1.687-2-4 1.3-4.3 1.3-4.3 3-6z" fill="#7d5b40"/><path d="M284 156h4v2h-2v2h5v1h-6l-1-5z" fill="#8e6746"/><path d="M342 125l3 2v2l-6 3 1-4h2v-3z" fill="#b67e53"/><path d="M367 119h2v5h-6v-2h4v-3z" fill="#b68053"/><path d="M190 119l4 1v5l-1-2c-2.527-.656-2.527-.656-5-1l2-1v-2z" fill="#8f796d"/><path d="M168 117h3v4h3l-1 2-5-2v-4z" fill="#7c413c"/><path d="M328 113l5 1v2l-7 1 2-4z" fill="#b58154"/><path d="M304 109l2 1 1 5h-2v-2h-3l2-4z" fill="#312b25"/><path d="M301 265h1l2 12-3-1v-11z" fill="#4e3e35"/><path d="M389 256h3v6h-3v-6z" fill="#9d6b46"/><path d="M425 248h1l.188 4.875.105 2.742L426 258l-3 2v-4h2v-8z" fill="#8a5e3d"/><path d="M277 250c-.573 2.867-.861 3.861-3 6l-3-3c2.625-3 2.625-3 6-3z" fill="#544843"/><path d="M469 230h1c.369 6.4.369 6.4-1.5 9.438L467 241c.875-7.625.875-7.625 2-11z" fill="#494d4d"/><path d="M372 225l3 1-2 5h-3v-3h2v-3z" fill="#a16a3e"/><path d="M210 208h5l1 6-4-3v-2l-2-1z" fill="#4e555c"/><path d="M392 206h3l-1 3h-2v2h-3v-3h3v-2z" fill="#a76a3f"/><path d="M428 192h3c-.547 3.375-1.055 5.082-3 8v-8z" fill="#a06635"/><path d="M185 169l5 1 1 5-6-5v-1z" fill="#435b71"/><path d="M447 153h3v3h2v2h-4l-1-5z" fill="#7f4f2b"/><path d="M278 155l4 1v4h-4v-5z" fill="#8b684a"/><path d="M436 147h10v3l-10-2v-1z" fill="#4a2a14"/><path d="M421 146l5 1 1 4-5-1-1-4z" fill="#a67652"/><path d="M274 144h5c0 2 0 2-1.375 3.625C276 149 276 149 274 149v-5z" fill="#5f463b"/><path d="M168 141h5l1 5c-4.875-2.75-4.875-2.75-6-5z" fill="#45555a"/><path d="M280 130h5l1 2h-4v3h-2v-5z" fill="#84522b"/><path d="M380 127l4 1v2h-3v2l-4 1 3-6z" fill="#b27d4f"/><path d="M386 126l4 1-4 4h-2c.875-3.875.875-3.875 2-5z" fill="#7b5438"/><path d="M364 107l3 1v2h2l-1 2h-5l1-5z" fill="#895c37"/></svg>