<svg xmlns="http://www.w3.org/2000/svg" width="394" height="153" fill="none" viewBox="0 0 394 153"><g opacity=".5"><mask id="c" fill="#fff"><path d="M12.46 75.37C8.51 73.74 4.2 74.15 0 74.64c1.47-.59 2.89-1.25 4.28-1.9.61-.29 1.22-.57 1.83-.85 5.42-2.46 10.75-4.51 16.22-2.61 6.42 2.22 12.08 7.53 16.29 11.91.16.16.28.35.41.53.25.36.56.8.99 1.2 7.93 7.26 23.75 15.02 34.84 6.63 3.6-2.72 6.19-6.45 8.33-9.73 6.47-9.92 14.12-18.57 26.2-14.79.28.09.58.24.92.4.4.19.8.38 1.22.53.17.06.39.15.65.25 1.54.61 2.72 1.03 3.72.89.68-.1 1.25-.55 1.51-1.18.82-2.01-.97-3.61-1.93-4.47-.15-.13-.29-.26-.39-.36-.58-.64-1.23-1.14-1.86-1.62-.72-.57-1.41-1.1-1.81-1.72-4.23-6.59-4.33-13.09-.3-18.8 6.19-8.8 21.17-13.98 32.71-11.31 5.61 1.3 12.64 4.94 14.24 14.93l1.18 7.33a1.92 1.92 0 0 0 2.2 1.6 1.924 1.924 0 0 0 1.61-2.18c-.93-6.29-1.99-13.41.13-19.67 1.34-3.99 4.08-7.95 8.39-12.08C187.06 2.69 210.5-3.46 231.29 1.92c9.78 2.53 17.78 7.73 25.19 16.38 4.76 5.56 10.5 13.07 12.59 21.79 3.03 12.68-2.25 27.05-13.13 35.76-10.19 8.16-24.58 11.19-38.48 8.12-3.96-.87-7.54-2.2-10.66-3.88-1.74-1.5-3.68-2.88-5.83-4.09-.43-.4-.87-.8-1.27-1.21-8.86-9.28-7.56-24.06-1.28-32.43 5.55-7.39 13.78-9 22.57-4.43 2.73 1.43 5.94 4.48 6.51 7.82.3 1.74-.19 3.28-1.5 4.68-.73.78-.69 2 .09 2.72s2 .68 2.72-.09c2.13-2.28 2.99-5.04 2.49-7.96-.8-4.66-4.86-8.68-8.54-10.59-10.48-5.45-20.73-3.38-27.42 5.53-6.25 8.32-8.16 22.16-1.96 32.7-5.97-1.85-13.04-2.54-21.25-1.49-8.49 1.09-19.82 6.15-23.8 16.83-4.28 11.46 2.63 23.47 11.3 28.95 5.72 3.62 13.76 4.47 19.56 2.08 4.43-1.82 7.32-5.26 8.39-9.93 1.66-7.27-2.65-14.75-9.42-16.33-3.73-.87-7.23-.34-9.37 1.43-1.14.94-2.47 2.71-2.33 5.76.08 1.88 1.17 3.76 2.84 4.88 1.53 1.03 3.33 1.31 4.93.74 1-.36 1.53-1.46 1.18-2.46-.36-1-1.46-1.53-2.46-1.17-.63.22-1.26-.14-1.5-.31-.67-.45-1.12-1.18-1.15-1.86-.05-1.2.26-2.05.94-2.62 1.17-.98 3.54-1.24 6.03-.65 5.23 1.23 7.61 7.05 6.54 11.72-.79 3.45-2.84 5.88-6.1 7.23-4.71 1.95-11.31 1.22-16.03-1.77-7.39-4.67-13.32-14.8-9.76-24.35 3.38-9.07 13.25-13.4 20.68-14.35 10.89-1.39 19.56.51 26.13 4.12 1.7 1.5 3.63 2.82 5.74 4 3.75 3.28 6.46 7.18 8.12 11.11 5.17 12.2 2.01 28.92-6.6 40.73-.16.06-.33.13-.48.23-.52.36-.8.91-.83 1.48-2.12 2.61-4.51 4.95-7.16 6.87-11.45 8.32-30.33 10.26-42.09 4.31-8.24-4.17-15.1-11.75-19.49-21.49 2.12-.66 4.04-1.57 5.69-2.73 4.11-2.88 6.67-7.46 6.69-11.96 0-1.07-.86-1.93-1.92-1.93h-.01c-1.06 0-1.92.86-1.92 1.91-.01 3.28-1.95 6.65-5.05 8.83-2.73 1.92-6.43 3.02-10.68 3.19-9.13.36-17.59-3.49-26.66-12.09-.77-.73-1.99-.7-2.72.07-.73.78-.7 1.99.08 2.73 9.33 8.85 18.57 13.16 28.2 13.16.42 0 .83 0 1.25-.02 1.05-.04 2.07-.14 3.07-.28 1.39 6.35-5.04 12.52-9.34 15.3-7.08 4.59-16.88 5.36-25.58 2.01-8.04-3.09-15-10.23-19.64-20.1 2.92-3.3 4.14-7.71 3.68-11.54-.59-4.93-4.14-10.27-12.36-10.45-1.01-.02-4.53.13-7.26 3.06-2.25 2.41-3.18 5.85-2.77 10.24.1 1.06 1.05 1.84 2.09 1.74 1.06-.1 1.84-1.04 1.74-2.09-.3-3.25.29-5.69 1.75-7.26 1.31-1.4 3.13-1.86 4.36-1.84 7.05.16 8.39 4.99 8.63 7.06.55 4.58-2.3 10.21-8.01 11.72-7.42 1.97-19.23-.66-24.3-7.58-1.2-1.62-1-2.92-.69-4.88.25-1.59.53-3.39-.02-5.49-1.33-5.15-5.98-4.9-8.76-4.74-.9.05-1.74.04-2.71.1-.68.04-1.46.09-1.88-.04-3.83-1.14-4.78-4.84-5.81-10.36-.26-1.45-.51-2.82-.87-4.11-1.62-5.86-5.58-10.12-11.77-12.67z"/></mask><path fill="url(#a)" fill-opacity=".48" stroke="url(#b)" stroke-width="5.94" d="M12.46 75.37C8.51 73.74 4.2 74.15 0 74.64c1.47-.59 2.89-1.25 4.28-1.9.61-.29 1.22-.57 1.83-.85 5.42-2.46 10.75-4.51 16.22-2.61 6.42 2.22 12.08 7.53 16.29 11.91.16.16.28.35.41.53.25.36.56.8.99 1.2 7.93 7.26 23.75 15.02 34.84 6.63 3.6-2.72 6.19-6.45 8.33-9.73 6.47-9.92 14.12-18.57 26.2-14.79.28.09.58.24.92.4.4.19.8.38 1.22.53.17.06.39.15.65.25 1.54.61 2.72 1.03 3.72.89.68-.1 1.25-.55 1.51-1.18.82-2.01-.97-3.61-1.93-4.47-.15-.13-.29-.26-.39-.36-.58-.64-1.23-1.14-1.86-1.62-.72-.57-1.41-1.1-1.81-1.72-4.23-6.59-4.33-13.09-.3-18.8 6.19-8.8 21.17-13.98 32.71-11.31 5.61 1.3 12.64 4.94 14.24 14.93l1.18 7.33a1.92 1.92 0 0 0 2.2 1.6 1.924 1.924 0 0 0 1.61-2.18c-.93-6.29-1.99-13.41.13-19.67 1.34-3.99 4.08-7.95 8.39-12.08C187.06 2.69 210.5-3.46 231.29 1.92c9.78 2.53 17.78 7.73 25.19 16.38 4.76 5.56 10.5 13.07 12.59 21.79 3.03 12.68-2.25 27.05-13.13 35.76-10.19 8.16-24.58 11.19-38.48 8.12-3.96-.87-7.54-2.2-10.66-3.88-1.74-1.5-3.68-2.88-5.83-4.09-.43-.4-.87-.8-1.27-1.21-8.86-9.28-7.56-24.06-1.28-32.43 5.55-7.39 13.78-9 22.57-4.43 2.73 1.43 5.94 4.48 6.51 7.82.3 1.74-.19 3.28-1.5 4.68-.73.78-.69 2 .09 2.72s2 .68 2.72-.09c2.13-2.28 2.99-5.04 2.49-7.96-.8-4.66-4.86-8.68-8.54-10.59-10.48-5.45-20.73-3.38-27.42 5.53-6.25 8.32-8.16 22.16-1.96 32.7-5.97-1.85-13.04-2.54-21.25-1.49-8.49 1.09-19.82 6.15-23.8 16.83-4.28 11.46 2.63 23.47 11.3 28.95 5.72 3.62 13.76 4.47 19.56 2.08 4.43-1.82 7.32-5.26 8.39-9.93 1.66-7.27-2.65-14.75-9.42-16.33-3.73-.87-7.23-.34-9.37 1.43-1.14.94-2.47 2.71-2.33 5.76.08 1.88 1.17 3.76 2.84 4.88 1.53 1.03 3.33 1.31 4.93.74 1-.36 1.53-1.46 1.18-2.46-.36-1-1.46-1.53-2.46-1.17-.63.22-1.26-.14-1.5-.31-.67-.45-1.12-1.18-1.15-1.86-.05-1.2.26-2.05.94-2.62 1.17-.98 3.54-1.24 6.03-.65 5.23 1.23 7.61 7.05 6.54 11.72-.79 3.45-2.84 5.88-6.1 7.23-4.71 1.95-11.31 1.22-16.03-1.77-7.39-4.67-13.32-14.8-9.76-24.35 3.38-9.07 13.25-13.4 20.68-14.35 10.89-1.39 19.56.51 26.13 4.12 1.7 1.5 3.63 2.82 5.74 4 3.75 3.28 6.46 7.18 8.12 11.11 5.17 12.2 2.01 28.92-6.6 40.73-.16.06-.33.13-.48.23-.52.36-.8.91-.83 1.48-2.12 2.61-4.51 4.95-7.16 6.87-11.45 8.32-30.33 10.26-42.09 4.31-8.24-4.17-15.1-11.75-19.49-21.49 2.12-.66 4.04-1.57 5.69-2.73 4.11-2.88 6.67-7.46 6.69-11.96 0-1.07-.86-1.93-1.92-1.93h-.01c-1.06 0-1.92.86-1.92 1.91-.01 3.28-1.95 6.65-5.05 8.83-2.73 1.92-6.43 3.02-10.68 3.19-9.13.36-17.59-3.49-26.66-12.09-.77-.73-1.99-.7-2.72.07-.73.78-.7 1.99.08 2.73 9.33 8.85 18.57 13.16 28.2 13.16.42 0 .83 0 1.25-.02 1.05-.04 2.07-.14 3.07-.28 1.39 6.35-5.04 12.52-9.34 15.3-7.08 4.59-16.88 5.36-25.58 2.01-8.04-3.09-15-10.23-19.64-20.1 2.92-3.3 4.14-7.71 3.68-11.54-.59-4.93-4.14-10.27-12.36-10.45-1.01-.02-4.53.13-7.26 3.06-2.25 2.41-3.18 5.85-2.77 10.24.1 1.06 1.05 1.84 2.09 1.74 1.06-.1 1.84-1.04 1.74-2.09-.3-3.25.29-5.69 1.75-7.26 1.31-1.4 3.13-1.86 4.36-1.84 7.05.16 8.39 4.99 8.63 7.06.55 4.58-2.3 10.21-8.01 11.72-7.42 1.97-19.23-.66-24.3-7.58-1.2-1.62-1-2.92-.69-4.88.25-1.59.53-3.39-.02-5.49-1.33-5.15-5.98-4.9-8.76-4.74-.9.05-1.74.04-2.71.1-.68.04-1.46.09-1.88-.04-3.83-1.14-4.78-4.84-5.81-10.36-.26-1.45-.51-2.82-.87-4.11-1.62-5.86-5.58-10.12-11.77-12.67z" mask="url(#c)"/><path fill="url(#d)" fill-opacity=".48" stroke="url(#e)" stroke-width="2.97" d="M272.43 62.01c-2.67 6.88-7.16 13.2-13.16 17.99v.01c-11.47 9.18-27.53 12.57-42.97 9.15-.1-.02-.2-.04-.29-.07.56 1.03 1.06 2.07 1.51 3.11 5.86 13.82 2.71 31.81-6.43 44.94 2.99 3.67 6.81 6.65 10.89 8.1 4.35 1.54 9.02 1.36 13.52-1.61h-.01c1.17-.78 2.34-1.65 3.29-2.43.7-.57 1.21-1.05 1.54-1.39.04-.89.43-1.76 1.15-2.4l.14-.11a3.41 3.41 0 0 1 4.56.3l.12.13c.66.76 1.3 1.51 1.92 2.24 3.42 4.01 6.18 7.22 10.86 9.26l.46.2c4.89 2 10.71 2.6 15.94 1.64h-.01c8.14-1.48 12.54-5.31 19.01-11 .81-.7 1.64-1.44 2.51-2.18.46-.4.93-.83 1.42-1.3-3.62 1.66-7.4 3.02-11.34 3.59-2 .3-3.99.44-5.96.44-8.7 0-17-2.79-23.06-7.97l-.58-.51a3.411 3.411 0 0 1 4.44-5.18l.14.12c5.84 5.27 14.81 7.71 24.04 6.36 5.91-.86 11.82-4.06 17.82-7.34 7.65-4.18 15.96-8.74 25.11-8.26 1.48 0 3 .13 4.57.44.52.1.98.31 1.37.59.95.28 1.92.61 2.93 1.04 3.96 1.68 7.53 4.02 10.87 6.2 6.34 4.15 11.87 7.7 18.99 7.3 3.88-.22 6.63-1.48 8.84-3.56 2.27-2.13 4.06-5.19 5.84-9.15.75-1.67 1.86-4.14 3.49-6.44.88-1.22 1.92-2.43 3.18-3.46-.46-.01-.94-.01-1.46.01-.87.02-1.69.33-2.96.84-.51.21-1.08.44-1.66.64-1.36.46-2.57 1-3.8 1.55-3.17 1.41-6.45 2.87-11.49 2.48-2.82-.22-6.06-.55-9.03-2.05-5.14-2.58-8.43-6.85-11.26-10.96l-1.19-1.75c-2.51-3.71-4.72-6.93-7.8-9.2-7.11-5.24-17.3-5.54-24.54-.89.15 2.03.1 4.09-.21 6.13-.93 6.14-4.16 11.89-8.93 15.88l-.46.38c-4.57 3.64-11.4 5.52-17.97 5.52-3.87 0-7.76-.65-11.12-2.07-6.17-2.6-10.03-7.52-10.67-13.86-.86-8.56 4.99-14.36 10.85-16.33l.57-.18.65-.17c6.74-1.68 13.14 1.26 16.34 7.55a3.41 3.41 0 0 1-1.51 4.58c-1.67.86-3.73.18-4.58-1.5-1.1-2.18-2.61-3.33-4.16-3.87-1.48-.51-3.09-.49-4.54-.12l-.29.08c-3.59 1.05-7.04 4.43-6.55 9.28.38 3.79 2.49 6.56 6.54 8.26 3.31 1.39 7.55 1.83 11.68 1.36 4-.46 7.72-1.76 10.26-3.68l.25-.19c3.56-2.84 6.03-7.02 6.82-11.5l.07-.44c.75-5.06-.44-10.42-2.8-15.3-2.35-4.87-5.8-9.15-9.4-12.03-5.41-4.32-13.26-6.89-22.31-7.24Z"/></g><defs><linearGradient id="a" x1="269.92" x2="0" y1="75.69" y2="75.69" gradientUnits="userSpaceOnUse"><stop stop-color="#fcf0d6"/><stop offset="1" stop-color="#ffc446"/></linearGradient><linearGradient id="b" x1="269.92" x2="0" y1="75.69" y2="75.69" gradientUnits="userSpaceOnUse"><stop stop-color="#fcf0d6"/><stop offset="1" stop-color="#ffc446"/></linearGradient><linearGradient id="d" x1="393.39" x2="209.24" y1="106.75" y2="106.75" gradientUnits="userSpaceOnUse"><stop stop-color="#fcf0d6"/><stop offset="1" stop-color="#ffc446"/></linearGradient><linearGradient id="e" x1="393.39" x2="209.24" y1="106.75" y2="106.75" gradientUnits="userSpaceOnUse"><stop stop-color="#fcf0d6"/><stop offset="1" stop-color="#ffc446"/></linearGradient></defs></svg>