<svg xmlns="http://www.w3.org/2000/svg" width="454" height="454" fill="none" viewBox="0 0 454 454"><g filter="url(#a)"><path fill="url(#b)" d="m74.05 316.04-8.38-19.21-8.37-19.16 23.06-20.79a222 222 0 0 1-2.42-15.99l-28.12-13.13 4.65-41.49 30.44-6.56c1.65-5.09 3.64-10.03 5.91-15l-17.93-25.48 24.82-33.64 29.57 9.64c3.94-3.61 8.23-7.04 12.74-10.18l-2.89-30.95 38.29-16.74 20.82 23.11c.43-.09 11.18-1.92 16.04-2.38l13.05-28.2 41.55 4.58 6.5 30.51c5.14 1.69 10.12 3.63 14.92 5.84l25.62-17.93 33.64 24.82-9.66 29.62c3.6 4.03 6.99 8.24 10.09 12.62l31.01-2.77 15.87 36.31-22.19 22.79c1.09 5.36 1.85 10.71 2.34 16.04l28.33 12.98-4.69 41.66-30.54 6.5c-1.62 5.08-3.56 10.07-5.84 15l17.95 25.42-24.85 33.66-29.54-9.59c-4.08 3.65-8.2 7.01-12.66 10.11l2.81 31.01-19.18 8.32-19.13 8.4-20.78-23.24c-5.34 1.24-10.75 2.06-16.07 2.51l-13.1 28.27-41.56-4.69-6.5-30.43c-5.08-1.67-10.15-3.65-15.01-5.9l-25.44 18-33.7-24.87 9.51-29.62c-3.43-4-6.83-8.21-10.07-12.65zm60.31-49c22.19 50.79 81.47 73.99 132.52 51.62 50.97-22.2 74.08-81.54 51.78-132.27-22.15-50.88-81.37-74.29-132.26-52.08-51.03 22.37-74.22 81.66-52.04 132.73"/><g filter="url(#c)"><path stroke="url(#d)" stroke-linejoin="round" stroke-width="16.14" d="m74.05 316.04-8.38-19.21-8.37-19.16 23.06-20.79a222 222 0 0 1-2.42-15.99l-28.12-13.13 4.65-41.49 30.44-6.56c1.65-5.09 3.64-10.03 5.91-15l-17.93-25.48 24.82-33.64 29.57 9.64c3.94-3.61 8.23-7.04 12.74-10.18l-2.89-30.95 38.29-16.74 20.82 23.11c.43-.09 11.18-1.92 16.04-2.38l13.05-28.2 41.55 4.58 6.5 30.51c5.14 1.69 10.12 3.63 14.92 5.84l25.62-17.93 33.64 24.82-9.66 29.62c3.6 4.03 6.99 8.24 10.09 12.62l31.01-2.77 15.87 36.31-22.19 22.79c1.09 5.36 1.85 10.71 2.34 16.04l28.33 12.98-4.69 41.66-30.54 6.5c-1.62 5.08-3.56 10.07-5.84 15l17.95 25.42-24.85 33.66-29.54-9.59c-4.08 3.65-8.2 7.01-12.66 10.11l2.81 31.01-19.18 8.32-19.13 8.4-20.78-23.24c-5.34 1.24-10.75 2.06-16.07 2.51l-13.1 28.27-41.56-4.69-6.5-30.43c-5.08-1.67-10.15-3.65-15.01-5.9l-25.44 18-33.7-24.87 9.51-29.62c-3.43-4-6.83-8.21-10.07-12.65zm60.31-49c22.19 50.79 81.47 73.99 132.52 51.62 50.97-22.2 74.08-81.54 51.78-132.27-22.15-50.88-81.37-74.29-132.26-52.08-51.03 22.37-74.22 81.66-52.04 132.73Z"/></g></g><defs><linearGradient id="b" x1="163.07" x2="290.09" y1="389.65" y2="63.51" gradientUnits="userSpaceOnUse"><stop stop-color="#fcf0d6"/><stop offset="1" stop-color="#ffc446"/></linearGradient><linearGradient id="d" x1="163.07" x2="290.09" y1="389.65" y2="63.51" gradientUnits="userSpaceOnUse"><stop stop-color="#fcf0d6"/><stop offset="1" stop-color="#ffc446"/></linearGradient><filter id="a" width="410.81" height="410.72" x="37.14" y="34.55" color-interpolation-filters="sRGB" filterUnits="userSpaceOnUse"><feFlood flood-opacity="0" result="BackgroundImageFix"/><feColorMatrix in="SourceAlpha" result="hardAlpha" values="0 0 0 0 0 0 0 0 0 0 0 0 0 0 0 0 0 0 127 0"/><feOffset dx="15.96" dy="13.3"/><feGaussianBlur stdDeviation="10.29"/><feComposite in2="hardAlpha" operator="out"/><feColorMatrix values="0 0 0 0 0 0 0 0 0 0 0 0 0 0 0 0 0 0 0.25 0"/><feBlend in2="BackgroundImageFix" result="effect1_dropShadow_24_8442"/><feBlend in="SourceGraphic" in2="effect1_dropShadow_24_8442" result="shape"/></filter><filter id="c" width="369.67" height="369.58" x="41.75" y="41.82" color-interpolation-filters="sRGB" filterUnits="userSpaceOnUse"><feFlood flood-opacity="0" result="BackgroundImageFix"/><feBlend in="SourceGraphic" in2="BackgroundImageFix" result="shape"/><feColorMatrix in="SourceAlpha" result="hardAlpha" values="0 0 0 0 0 0 0 0 0 0 0 0 0 0 0 0 0 0 127 0"/><feOffset dx="1.77" dy="-9.75"/><feComposite in2="hardAlpha" k2="-1" k3="1" operator="arithmetic"/><feColorMatrix values="0 0 0 0 0 0 0 0 0 0 0 0 0 0 0 0 0 0 0.25 0"/><feBlend in2="shape" mode="overlay" result="effect1_innerShadow_24_8442"/><feColorMatrix in="SourceAlpha" result="hardAlpha" values="0 0 0 0 0 0 0 0 0 0 0 0 0 0 0 0 0 0 127 0"/><feOffset dx="-1.77" dy="9.75"/><feComposite in2="hardAlpha" k2="-1" k3="1" operator="arithmetic"/><feColorMatrix values="0 0 0 0 1 0 0 0 0 1 0 0 0 0 1 0 0 0 0.25 0"/><feBlend in2="effect1_innerShadow_24_8442" mode="overlay" result="effect2_innerShadow_24_8442"/></filter></defs></svg>