<svg xmlns="http://www.w3.org/2000/svg" width="1554" height="260" fill="none" xmlns:v="https://vecta.io/nano"><style><![CDATA[.B{fill-opacity:.4}.C{mask:url(#A)}.D{stroke-width:2.999}.E{stroke-width:4.062}.F{fill-rule:evenodd}.G{color-interpolation-filters:sRGB}]]></style><g class="D B"><path d="M1308.65 184.266C1311.51 184.321 1314.22 185.117 1316.19 186.544V186.545C1318.57 188.278 1319.81 190.857 1319.77 194.433C1319.76 196.012 1319.12 197.505 1318.26 198.327C1317.79 198.765 1317.2 199.084 1316.44 198.903C1316.41 198.896 1316.38 198.887 1316.35 198.878C1316.14 197.197 1314.94 195.597 1313.04 195.469L1313.02 195.468C1310.83 195.338 1309.35 197.225 1309.26 199.173C1309.07 202.805 1311.35 205.739 1314.92 206.583H1314.92C1317.82 207.265 1320.68 206.4 1322.92 204.277L1322.92 204.275C1324.79 202.486 1326.05 199.991 1326.59 197.314C1326.6 197.31 1326.6 197.307 1326.6 197.304L1326.6 197.305C1332.74 189.439 1337.66 185.785 1342.59 184.838H1342.59C1350.55 183.3 1359.62 185.52 1369.6 191.745L1369.6 191.746C1373.38 194.092 1376.82 197.195 1380.59 200.593C1385.94 205.415 1391.72 210.653 1398.78 213.312V213.346L1399.8 213.688C1402.63 214.631 1405.7 214.936 1408.71 214.511C1408.3 214.944 1407.86 215.366 1407.41 215.777C1403.86 218.96 1399.95 219.626 1395.71 218.994C1391.92 218.429 1387.95 216.839 1383.85 215.07L1382.09 214.304L1382.09 214.303L1380.36 213.553C1379.79 213.306 1379.22 213.062 1378.65 212.824L1378.65 212.823C1362.13 205.913 1344.43 206.96 1330.15 215.779C1325.06 218.923 1320.34 222.793 1315.83 226.596L1313.92 228.219C1306.64 234.389 1299.97 240.028 1292.11 243.396C1269.83 252.933 1250.9 240.114 1232.7 225.383C1208.37 205.686 1175.16 202.434 1131.66 214.917L1129.58 215.524C1122.27 217.687 1114.85 220.158 1107.71 222.534C1092.03 227.759 1075.95 233.104 1060.09 235.605C1048.75 237.392 1037.62 236.698 1026.49 233.468C1027.2 233.492 1027.93 233.504 1028.65 233.504C1035.28 233.504 1042.24 232.515 1049.49 230.534C1055.3 228.953 1061.22 226.741 1067.1 223.961H1067.1C1071.02 222.108 1074.99 220.154 1078.89 218.215L1082.77 216.284C1093.17 211.096 1103.85 205.773 1114.56 201.55C1124.07 197.803 1133.83 195.207 1143.55 193.839C1160.09 191.508 1177.08 192.663 1194.06 197.274V197.275C1202.1 199.455 1210.43 202.586 1218.79 206.563C1220.7 207.479 1222.58 208.421 1224.46 209.362V209.363C1233.47 213.89 1242.37 218.374 1253.2 218.187H1253.2C1262.7 218.017 1271.81 214.193 1280.27 206.984H1280.28C1283.6 204.15 1286.53 200.635 1289.28 197.355L1289.28 197.354C1293.09 192.789 1296.51 188.746 1300.59 186.283L1300.58 186.282C1302.88 184.896 1305.78 184.211 1308.65 184.266Z" fill="url(#D)" stroke="url(#E)"/><path d="M1250.6 151.636C1260.01 150.517 1270.03 156.441 1274.78 166.263L1274.78 166.265C1276.55 169.917 1277.72 174.318 1278.24 179.375L1278.34 180.396C1278.65 184.058 1277.88 189.486 1276.11 194.545C1274.33 199.655 1271.65 204.001 1268.42 205.902L1268.4 205.91L1268.38 205.921C1268.25 206.003 1268.11 206.098 1267.98 206.21C1263.1 208.842 1258.12 210.224 1253.07 210.313C1244.01 210.476 1236.12 206.567 1227.42 202.194L1224.54 200.756C1223.58 200.278 1222.6 199.802 1221.62 199.332L1221.62 199.331L1219.99 198.565C1211.83 194.786 1203.69 191.782 1195.76 189.625C1178.5 184.928 1161.18 183.641 1144.26 185.801L1142.62 186.021C1133.02 187.376 1123.4 189.863 1114.01 193.409L1112.13 194.133C1101.13 198.472 1090.25 203.899 1079.8 209.111C1074.69 211.66 1069.42 214.288 1064.27 216.726C1059.07 219.179 1053.87 221.154 1048.77 222.611L1047.76 222.896C1035.26 226.304 1023.93 226.52 1014.05 223.638H1014.05C1013.87 223.587 1013.7 223.533 1013.52 223.48C1013.53 223.48 1013.54 223.481 1013.55 223.481C1024.64 223.481 1036.01 221.754 1047.34 218.292L1048.4 217.968V217.946C1062.56 213.378 1075.07 204.548 1086.95 196.162L1086.95 196.163C1100.68 186.479 1113.37 177.546 1128.28 174.136L1128.99 173.978C1148.68 169.714 1167.46 170.429 1186.35 176.151L1188.18 176.72C1195.44 179.045 1203.02 182.365 1212.8 187.53C1214.77 188.575 1216.71 189.757 1218.82 191.037V191.036C1223.99 194.171 1229.62 197.612 1235.97 198.747V198.748C1240.01 199.474 1245.31 199.072 1250.03 197.121C1254.77 195.161 1259.07 191.565 1260.73 185.829C1261.46 183.347 1261.48 180.505 1260.97 177.839C1260.45 175.175 1259.38 172.569 1257.79 170.589H1257.78C1256.7 169.234 1255.12 168.233 1253.47 167.648C1251.81 167.062 1249.95 166.847 1248.25 167.205L1248.24 167.206C1245.7 167.749 1243.8 169.486 1242.9 171.978L1242.9 171.979C1242.24 173.8 1242.9 176.094 1244.74 177.011C1246.73 178.001 1248.79 176.817 1249.5 174.948C1249.52 174.94 1249.56 174.93 1249.6 174.92C1250.03 174.833 1250.65 174.903 1251.3 175.14C1251.98 175.389 1252.37 175.702 1252.45 175.798L1252.45 175.802C1253.14 176.668 1253.71 177.982 1254 179.439C1254.28 180.894 1254.26 182.329 1253.95 183.406L1253.95 183.411C1253.09 186.379 1250.57 188.513 1247.33 189.807C1247.11 189.757 1246.87 189.727 1246.62 189.727C1242.94 189.727 1240.09 188.384 1237.98 185.77L1237.74 185.463C1235.31 182.236 1233.92 177.073 1234.19 171.499V171.498C1234.42 166.623 1236.44 161.878 1239.48 158.228C1242.53 154.57 1246.51 152.119 1250.6 151.636H1250.6Z" fill="url(#F)" stroke="url(#G)"/></g><g class="E B"><path d="M1396.33 78.3248C1400.13 77.4843 1403.95 77.6699 1406.98 78.9244L1406.98 78.9253C1410.67 80.4502 1413.13 83.4479 1414.22 88.1695C1414.7 90.2548 1414.34 92.4211 1413.47 93.7781C1412.99 94.5035 1412.32 95.1129 1411.25 95.1177C1411.2 95.1174 1411.16 95.1147 1411.12 95.1121C1410.31 92.9659 1408.22 91.2409 1405.68 91.6771L1405.67 91.6789L1405.66 91.68C1402.73 92.2089 1401.39 95.1624 1401.88 97.7575C1402.79 102.598 1406.73 105.735 1411.69 105.712L1411.7 105.712C1415.73 105.687 1419.23 103.636 1421.49 100.131L1421.5 100.126C1423.39 97.176 1424.25 93.4892 1424.12 89.7909C1424.12 89.7863 1424.12 89.7819 1424.12 89.7772L1424.13 89.7777C1429.7 77.4668 1435.02 71.0894 1441.21 68.2746L1441.21 68.2731C1451.2 63.7158 1463.85 63.752 1478.97 68.7707L1478.98 68.7712C1484.69 70.6588 1490.21 73.6478 1496.25 76.9221L1496.25 76.9231C1504.83 81.5705 1514.11 86.6272 1524.25 87.8811L1524.26 87.9257L1525.72 88.0496C1529.74 88.3922 1533.89 87.8147 1537.71 86.2984C1537.39 86.8475 1537.06 87.3921 1536.7 87.9315L1536.4 88.3792C1532.74 93.6994 1527.81 95.8203 1522.02 96.3386C1516.11 96.8685 1509.47 95.7083 1502.6 94.4981L1502.59 94.4974L1500.08 94.0611C1499.24 93.9177 1498.42 93.7774 1497.6 93.6448L1497.59 93.6446L1496.47 93.4717C1472.92 90.0256 1450.42 97.0681 1434.68 112.972C1428.17 119.554 1422.57 127.234 1417.26 134.518L1417.26 134.519C1409.89 144.633 1403.1 153.908 1394.25 160.784L1393.38 161.442C1367.09 181.091 1338.08 170.238 1309.42 156.635C1270.51 138.156 1224.93 144.939 1170.51 176.475C1161.57 181.65 1152.59 187.265 1143.95 192.666L1143.95 192.667C1124.97 204.536 1105.49 216.692 1085.4 225.033L1085.4 225.033C1071.04 230.996 1056.17 233.625 1040.47 232.916C1041.43 232.719 1042.38 232.505 1043.34 232.274C1052.06 230.166 1060.92 226.647 1069.83 221.732L1069.83 221.733C1076.98 217.801 1084.08 213.001 1090.93 207.47L1090.93 207.469C1097.02 202.555 1103.17 197.375 1109.11 192.377L1109.11 192.376C1121.15 182.235 1133.53 171.824 1146.29 162.855C1157.61 154.896 1169.64 148.374 1182 143.477C1203.04 135.143 1225.77 131.256 1249.6 131.924L1249.6 131.924C1260.18 132.215 1271.35 133.528 1282.82 135.813L1285.12 136.283C1286.52 136.582 1287.92 136.892 1289.31 137.208L1293.47 138.166C1306.78 141.258 1319.93 144.326 1334.12 140.636L1334.12 140.636C1346.58 137.386 1357.36 129.453 1366.21 117.267L1366.21 117.266C1369.68 112.478 1372.42 106.917 1374.99 101.723L1374.99 101.721C1378.57 94.496 1381.77 88.0866 1386.36 83.5451C1388.95 80.9886 1392.54 79.1638 1396.33 78.3248Z" fill="url(#H)" stroke="url(#I)"/><path d="M1309.51 53.8374C1321.55 49.3686 1336.63 53.9783 1346.01 65.3987L1346.01 65.4004C1349.74 69.9287 1352.84 75.795 1355.2 82.8734L1355.2 82.8744C1356.77 87.5984 1357.49 94.9884 1356.77 102.213C1356.04 109.51 1353.9 116.084 1350.25 119.616L1350.23 119.633L1350.21 119.652C1350.06 119.804 1349.91 119.976 1349.76 120.171C1344.18 125.184 1338.06 128.586 1331.45 130.309L1331.45 130.309C1320.31 133.216 1309.39 131.079 1297.48 128.338L1295.09 127.783C1292.27 127.128 1289.43 126.471 1286.55 125.86L1286.54 125.859C1274.56 123.347 1262.83 121.845 1251.63 121.388L1249.4 121.31L1247.06 121.257C1223.68 120.871 1201.27 124.704 1180.38 132.668L1178.29 133.477C1165.67 138.479 1153.41 145.079 1141.85 153.084L1140.73 153.863C1129.26 161.927 1118.18 171.056 1107.48 180.039L1102.92 183.876C1097 188.86 1090.9 193.995 1084.89 198.847C1078.84 203.729 1072.61 207.986 1066.37 211.526L1065.12 212.225C1049.75 220.691 1034.91 224.58 1020.97 223.931L1020.97 223.93L1020.23 223.891C1020.24 223.888 1020.25 223.886 1020.27 223.883C1034.87 220.353 1049.28 214.461 1063.1 206.296L1064.4 205.532L1064.39 205.507C1081.58 194.984 1095.24 179.374 1108.21 164.551L1108.21 164.552C1123.45 147.159 1137.52 131.13 1156.51 121.96L1156.51 121.959C1181.87 109.694 1207.64 104.726 1235.31 106.73L1235.31 106.731C1245.61 107.482 1256.65 109.439 1271.17 113.13C1274.1 113.877 1277.03 114.814 1280.22 115.827L1280.22 115.828C1288.02 118.311 1296.53 121.049 1305.25 120.524L1305.25 120.525C1310.79 120.195 1317.65 117.977 1323.24 113.907C1328.86 109.815 1333.38 103.714 1333.75 95.63L1333.74 95.6292C1333.91 92.1318 1333.03 88.3826 1331.51 85.0368C1329.98 81.6927 1327.74 78.6029 1325.01 76.5033C1323.15 75.0652 1320.75 74.25 1318.39 74.0059C1316.02 73.7616 1313.5 74.0707 1311.38 75.0841L1311.37 75.0862C1308.19 76.6109 1306.24 79.5043 1305.85 83.071L1305.85 83.072C1305.57 85.6791 1307.16 88.4901 1309.88 89.1118C1312.81 89.7827 1315.15 87.5677 1315.49 84.8819C1315.52 84.8625 1315.56 84.8373 1315.62 84.8094C1316.15 84.5586 1316.99 84.4555 1317.92 84.5616C1318.89 84.673 1319.51 84.9599 1319.64 85.0623L1319.65 85.0661C1320.84 85.986 1322 87.5363 1322.84 89.3618C1323.68 91.1867 1324.11 93.083 1324.04 94.6024L1324.04 94.6076C1323.85 98.7882 1321.22 102.4 1317.37 105.137C1317.06 105.14 1316.74 105.175 1316.4 105.255C1311.55 106.428 1307.37 105.569 1303.77 102.796L1303.77 102.795L1303.36 102.468C1299.13 98.9926 1295.65 92.6387 1294.23 85.2133L1294.23 85.2124C1292.98 78.7187 1294.13 71.8301 1296.97 66.0556C1299.82 60.2697 1304.29 55.775 1309.51 53.8376L1309.51 53.8374Z" fill="url(#J)" stroke="url(#K)"/></g><g class="D B"><path d="M245.011 184.171C242.142 184.226 239.433 185.022 237.471 186.449V186.45C235.091 188.184 233.844 190.762 233.883 194.338C233.901 195.918 234.534 197.411 235.397 198.233C235.862 198.67 236.453 198.989 237.219 198.809C237.25 198.801 237.28 198.792 237.309 198.783C237.519 197.103 238.72 195.502 240.62 195.374L240.633 195.373C242.831 195.243 244.305 197.13 244.401 199.078C244.584 202.71 242.303 205.644 238.738 206.488H238.736C235.838 207.17 232.972 206.305 230.739 204.183L230.736 204.18C228.866 202.392 227.606 199.896 227.063 197.219C227.061 197.216 227.058 197.212 227.055 197.209L227.054 197.21C220.918 189.344 215.996 185.69 211.068 184.743H211.066C203.109 183.206 194.038 185.425 184.053 191.651L184.052 191.652C180.28 193.997 176.836 197.1 173.068 200.498C167.72 205.321 161.939 210.558 154.88 213.217V213.251L153.855 213.593C151.028 214.537 147.953 214.841 144.95 214.416C145.361 214.849 145.792 215.272 146.249 215.682C149.795 218.865 153.703 219.531 157.945 218.9C161.74 218.334 165.707 216.745 169.802 214.976L171.566 214.209L171.569 214.208L173.298 213.458C173.87 213.211 174.439 212.967 175.005 212.73L175.007 212.729C191.529 205.819 209.227 206.865 223.503 215.685C228.592 218.829 233.32 222.699 237.824 226.501L239.741 228.124C247.015 234.294 253.683 239.933 261.544 243.301C283.822 252.839 302.755 240.019 320.956 225.288C345.291 205.591 378.498 202.34 421.998 214.822L424.078 215.429C431.389 217.592 438.805 220.064 445.944 222.44C461.623 227.664 477.706 233.01 493.568 235.51C504.907 237.298 516.033 236.603 527.171 233.373C526.453 233.397 525.73 233.409 525.004 233.409C518.38 233.409 511.415 232.42 504.166 230.44C498.356 228.858 492.432 226.646 486.553 223.866H486.552C482.639 222.013 478.67 220.06 474.767 218.12L470.89 216.19C460.491 211.002 449.803 205.678 439.092 201.455C429.587 197.708 419.829 195.113 410.107 193.744C393.564 191.414 376.576 192.568 359.599 197.179V197.18C351.555 199.36 343.228 202.491 334.868 206.468C332.956 207.384 331.078 208.326 329.2 209.268V209.269C320.188 213.795 311.282 218.279 300.462 218.092H300.461C290.955 217.922 281.843 214.099 273.383 206.889H273.382C270.06 204.056 267.128 200.541 264.381 197.26L264.38 197.259C260.563 192.694 257.151 188.651 253.071 186.189L253.072 186.188C250.772 184.802 247.876 184.116 245.011 184.171Z" fill="url(#L)" stroke="url(#M)"/><path d="M303.061 151.541C293.65 150.422 283.627 156.346 278.877 166.168L278.876 166.17C277.105 169.822 275.933 174.223 275.413 179.28L275.317 180.301C275.008 183.963 275.772 189.391 277.542 194.45C279.33 199.56 282.008 203.906 285.241 205.807L285.258 205.816L285.274 205.826C285.406 205.908 285.542 206.004 285.679 206.115C290.557 208.747 295.537 210.129 300.587 210.218C309.652 210.381 317.538 206.472 326.238 202.099L329.114 200.661C330.079 200.183 331.052 199.707 332.034 199.237L332.037 199.236L333.67 198.47C341.832 194.692 349.971 191.687 357.896 189.53C375.161 184.833 392.478 183.547 409.398 185.706L411.034 185.926C420.635 187.281 430.256 189.768 439.648 193.315L441.523 194.038C452.529 198.377 463.407 203.804 473.858 209.016C478.968 211.566 484.236 214.193 489.392 216.631C494.582 219.084 499.79 221.06 504.884 222.517L505.901 222.801C518.4 226.209 529.723 226.425 539.607 223.543H539.609C539.785 223.492 539.961 223.439 540.138 223.385C540.128 223.385 540.117 223.386 540.107 223.386C529.017 223.386 517.651 221.66 506.319 218.197L505.258 217.873V217.852C491.095 213.283 478.59 204.453 466.709 196.068L466.708 196.069C452.978 186.384 440.288 177.452 425.378 174.041L424.666 173.883C404.973 169.619 386.2 170.335 367.306 176.056L365.477 176.625C358.218 178.95 350.634 182.27 340.86 187.436C338.884 188.48 336.946 189.662 334.833 190.943V190.942C329.665 194.077 324.036 197.517 317.689 198.652V198.653C313.652 199.379 308.348 198.977 303.629 197.027C298.886 195.066 294.589 191.471 292.922 185.735C292.199 183.252 292.175 180.41 292.689 177.744C293.203 175.08 294.278 172.474 295.871 170.494H295.872C296.958 169.139 298.536 168.138 300.19 167.553C301.847 166.967 303.707 166.752 305.409 167.111L305.412 167.111C307.959 167.654 309.859 169.392 310.759 171.883L310.76 171.884C311.416 173.705 310.761 175.999 308.919 176.916C306.93 177.906 304.866 176.723 304.159 174.854C304.134 174.845 304.099 174.836 304.053 174.825C303.627 174.738 303.007 174.808 302.359 175.045C301.679 175.294 301.286 175.607 301.209 175.703L301.207 175.707C300.513 176.574 299.948 177.888 299.66 179.344C299.372 180.799 299.393 182.234 299.708 183.312L299.709 183.317C300.568 186.285 303.083 188.418 306.328 189.712C306.548 189.662 306.784 189.632 307.035 189.632C310.718 189.632 313.572 188.289 315.675 185.675L315.914 185.368C318.346 182.141 319.74 176.979 319.47 171.404V171.403C319.236 166.528 317.221 161.783 314.179 158.133C311.131 154.475 307.148 152.025 303.062 151.541H303.061Z" fill="url(#N)" stroke="url(#O)"/></g><g class="E B"><path d="M157.326 78.23C153.53 77.3896 149.71 77.5752 146.673 78.8297L146.672 78.8306C142.987 80.3554 140.523 83.3532 139.436 88.0747C138.957 90.16 139.316 92.3264 140.19 93.6834C140.665 94.4088 141.342 95.0182 142.411 95.023C142.453 95.0227 142.494 95.02 142.533 95.0173C143.344 92.8711 145.435 91.1461 147.978 91.5824L147.986 91.5842L147.995 91.5853C150.931 92.1142 152.27 95.0677 151.777 97.6628C150.863 102.503 146.926 105.64 141.962 105.617L141.959 105.618C137.926 105.592 134.429 103.541 132.165 100.036L132.161 100.031C130.268 97.0813 129.403 93.3945 129.54 89.6962C129.538 89.6916 129.535 89.6872 129.533 89.6825L129.531 89.683C123.955 77.3721 118.638 70.9947 112.45 68.1798L112.449 68.1784C102.46 63.621 89.81 63.6573 74.6826 68.676L74.6804 68.6765C68.9665 70.5641 63.4457 73.5531 57.4026 76.8274L57.4024 76.8283C48.8258 81.4758 39.5478 86.5324 29.4061 87.7864L29.3953 87.831L27.9377 87.9549C23.9134 88.2975 19.7664 87.72 15.9471 86.2037C16.2636 86.7527 16.5977 87.2974 16.9548 87.8368L17.2565 88.2845C20.9128 93.6047 25.8476 95.7256 31.6336 96.2438C37.5504 96.7738 44.1869 95.6136 51.0601 94.4034L51.0653 94.4026L53.579 93.9664C54.4117 93.823 55.2389 93.6827 56.0587 93.5501L56.0618 93.5499L57.1837 93.377C80.732 89.9308 103.234 96.9734 118.974 112.877C125.489 119.459 131.083 127.139 136.396 134.424L136.396 134.425C143.772 144.538 150.558 153.813 159.41 160.69L160.273 161.347C186.57 180.996 215.579 170.143 244.232 156.54C283.152 138.062 328.725 144.844 383.149 176.38C392.087 181.556 401.065 187.17 409.709 192.571L409.709 192.572C428.691 204.442 448.166 216.598 468.254 224.938L468.255 224.939C482.617 230.902 497.488 233.53 513.183 232.821C512.229 232.624 511.272 232.411 510.314 232.179C501.593 230.071 492.739 226.552 483.824 221.637L483.823 221.638C476.676 217.706 469.58 212.906 462.724 207.375L462.723 207.375C456.64 202.461 450.482 197.28 444.545 192.282L444.545 192.281C432.504 182.14 420.126 171.729 407.367 162.76C396.045 154.801 384.022 148.279 371.656 143.383C350.616 135.048 327.882 131.161 304.061 131.829L304.06 131.83C293.479 132.121 282.306 133.433 270.838 135.718L268.54 136.188C267.136 136.487 265.742 136.798 264.352 137.113L260.185 138.071C246.879 141.163 233.727 144.231 219.54 140.541L219.539 140.541C207.077 137.292 196.295 129.358 187.45 117.172L187.45 117.171C183.978 112.383 181.236 106.822 178.663 101.628L178.662 101.626C175.09 94.4012 171.885 87.9919 167.296 83.4504C164.71 80.8939 161.115 79.069 157.326 78.23Z" fill="url(#P)" stroke="url(#Q)"/><path d="M244.144 53.7427C232.109 49.2739 217.025 53.8836 207.646 65.304L207.644 65.3056C203.917 69.834 200.815 75.7003 198.461 82.7787L198.461 82.7797C196.888 87.5037 196.166 94.8937 196.887 102.118C197.614 109.415 199.757 115.989 203.41 119.521L203.429 119.539L203.446 119.557C203.596 119.71 203.749 119.881 203.896 120.076C209.478 125.089 215.593 128.491 222.21 130.214L222.211 130.214C233.352 133.121 244.268 130.985 256.175 128.243L258.569 127.688C261.384 127.033 264.225 126.376 267.111 125.765L267.116 125.764C279.101 123.253 290.828 121.75 302.022 121.293L304.253 121.215L306.595 121.163C329.976 120.776 352.387 124.61 373.282 132.573L375.367 133.383C387.984 138.384 400.243 144.984 411.811 152.989L412.929 153.768C424.401 161.832 435.478 170.962 446.175 179.944L450.736 183.781C456.652 188.765 462.752 193.901 468.765 198.752C474.818 203.634 481.047 207.891 487.29 211.431L488.539 212.13C503.911 220.596 518.751 224.485 532.683 223.836L532.685 223.836L533.429 223.797C533.417 223.793 533.404 223.791 533.391 223.788C518.788 220.258 504.372 214.367 490.555 206.201L489.26 205.437L489.267 205.412C472.072 194.889 458.419 179.279 445.444 164.457L445.443 164.457C430.209 147.065 416.14 131.035 397.148 121.866L397.148 121.864C371.783 109.599 346.021 104.631 318.343 106.635L318.343 106.636C308.045 107.387 297.002 109.345 282.489 113.036C279.556 113.782 276.627 114.719 273.438 115.733L273.438 115.733C265.636 118.217 257.128 120.954 248.41 120.43L248.41 120.431C242.863 120.1 236.007 117.882 230.415 113.812C224.793 109.72 220.28 103.619 219.911 95.5352L219.912 95.5345C219.751 92.0371 220.623 88.2879 222.148 84.9421C223.673 81.598 225.918 78.5081 228.646 76.4086C230.507 74.9704 232.904 74.1552 235.268 73.9112C237.635 73.6668 240.152 73.9759 242.28 74.9894L242.284 74.9915C245.465 76.5162 247.415 79.4095 247.806 82.9763L247.806 82.9773C248.09 85.5844 246.498 88.3954 243.781 89.017C240.847 89.688 238.506 87.473 238.169 84.7871C238.139 84.7678 238.097 84.7426 238.04 84.7147C237.508 84.4639 236.668 84.3607 235.739 84.4669C234.764 84.5783 234.147 84.8652 234.016 84.9675L234.011 84.9714C232.821 85.8913 231.66 87.4416 230.817 89.267C229.975 91.092 229.545 92.9883 229.617 94.5077L229.617 94.5129C229.803 98.6935 232.432 102.305 236.291 105.042C236.598 105.046 236.921 105.08 237.253 105.161C242.102 106.333 246.286 105.474 249.888 102.701L249.889 102.701L250.301 102.373C254.53 98.8979 258.009 92.544 259.428 85.1186L259.428 85.1177C260.672 78.624 259.527 71.7354 256.684 65.9609C253.835 60.1749 249.372 55.6803 244.145 53.7429L244.144 53.7427Z" fill="url(#R)" stroke="url(#S)"/></g><g filter="url(#B)"><circle cx="4.5" cy="4.5" r="4.5" transform="matrix(1 0 0 -1 722 232.282)" fill="url(#T)"/></g><circle cx="4.5" cy="4.5" r="4.5" transform="matrix(1 0 0 -1 722 232.282)" stroke="url(#T)" stroke-width="1.8"/><g filter="url(#C)"><circle cx="4.5" cy="4.5" r="4.5" transform="matrix(1 0 0 -1 824 232.282)" fill="url(#T)"/></g><circle cx="4.5" cy="4.5" r="4.5" transform="matrix(1 0 0 -1 824 232.282)" stroke="url(#T)" stroke-width="1.8"/><mask id="A" fill="#fff"><path d="M773.543 202.953c0-.477.716-1.284 1.589-1.793 2.334-1.356 3.39-1.187 5.223.834 1.866 2.058 1.287 2.348-1.375.688-1.437-.895-2.174-.894-3.62.008-1 .623-1.817.741-1.817.263zm-.069 1.48c.925.241 1.955-.005 2.291-.547.766-1.237 3.228-1.297 3.228-.079 0 .499.588.907 1.308.907 1.831 0 2.716 1.751 2.475 4.9-.307 4.022-1.822 5.483-3.82 3.68-1.257-1.136-1.692-1.189-2.068-.25-.284.707-.518.454-.58-.624-.094-1.628-.234-1.581-1.366.453l-1.262 2.266-1.043-2.719c-.574-1.496-.815-3.862-.536-5.258.309-1.552.159-2.324-.388-1.987-.492.304-.956 1.854-1.031 3.445-.133 2.819-.146 2.828-.52.346-.465-3.086 1.028-5.129 3.312-4.533zm11.228 3.907l-1.341-3.173c-.823-1.784-.813-1.785.577-.053.777.968 1.38 2.396 1.341 3.173-.062 1.221-.141 1.228-.577.053zm-17.063.907c-.749 0-1.362-.612-1.362-1.36s.613-1.36 1.362-1.36 1.363.612 1.363 1.36-.613 1.36-1.363 1.36zm20.057 0a1.44 1.44 0 0 1-1.437-1.435c0-1.601 1.955-1.323 2.517.359.198.592-.288 1.076-1.08 1.076zm-27.705 5.73c-.039-1.086.553-2.598 1.317-3.361 1.386-1.384 7.003-1.65 6.166-.292-.243.394-1.156.49-2.029.214-1.59-.504-3.914 1.427-4.882 4.055-.336.913-.524.712-.572-.616zm25.832-3.011l.366-1.586c.254-.827.933-.006.751.906-.125.624.591 1.149 1.59 1.167 2.896.055 4.087 1.239 4.087 4.068 0 1.679-.639 2.975-1.762 3.575-1.931 1.032-2.678.399-2.297-1.948.17-1.054-.191-1.356-1.176-.979-.931.357-1.197.182-.771-.506.439-.709.141-.855-.917-.449-1.265.485-1.433.263-.868-1.144.385-.959.833-2.356.997-3.104zm3.579-.564c-.817.312-1.185.163-.866-.352.892-1.442 3.674-1.035 5.317.778 1.222 1.348 1.356 2.362.686 5.212l-.832 3.539-.091-3.743c-.098-4.016-1.889-6.326-4.214-5.434zm-27.292 5.206c-.248-1.344.181-2.58 1.137-3.278 2.011-1.468 6.114-.364 6.523 1.755.194 1.002-.069 1.392-.681 1.014-.548-.337-.996-.157-.996.4s-.362.79-.805.517-.749.212-.681 1.079c.078.993-.632 1.683-1.92 1.866-1.124.16-2.073-.044-2.11-.452s-.247-1.714-.467-2.901zm-4.462 2.611c-.749 0-1.362-.612-1.362-1.36s.613-1.36 1.362-1.36 1.363.612 1.363 1.36-.613 1.36-1.363 1.36zm39.614 0c-1.306 0-1.703-.418-1.326-1.398.595-1.547 2.27-1.357 2.83.322.2.597-.469 1.076-1.504 1.076zm-36.445.447c-.494-.305-.898-.938-.898-1.407 0-1.304.651-1.016 1.255.554.31.807.157 1.17-.357.853zm-4.05 1.583c-1.233.235-2.027.079-1.763-.347.465-.752 4.007-1.13 4.007-.429 0 .191-1.009.54-2.244.776zm45.213 3.555c-.974-1.721-2.754-3.233-4.368-3.71-2.272-.671-2.383-.819-.665-.887 2.207-.087 8.385 5.53 8.385 7.624s-6.178 7.712-8.385 7.625c-1.71-.068-1.597-.217.669-.875 1.701-.494 3.344-1.937 4.367-3.831 1.581-2.93 1.581-3.143-.003-5.946z"/><path d="M792.63 223.294c1.007-.318 1.631-.899 1.39-1.29s.671-.511 2.03-.269c2.401.428 6.492 4.27 6.492 6.096s-4.091 5.668-6.492 6.097c-1.359.242-2.283.138-2.054-.232s-.396-.885-1.389-1.144c-1.078-.281-1.807-1.238-1.807-2.369 0-1.433.611-1.932 2.498-2.034l2.497-.136-2.497-.377c-2.999-.454-3.462-3.457-.668-4.342zm-38.957 2.424c.686-1.331 1.658-2.72 2.157-3.086 2.29-1.675 6.998.084 7.409 2.77.254 1.664-.164 1.999-2.644 2.121l-2.947.145 2.938.365c2.393.297 2.883.72 2.644 2.285-.292 1.908-2.37 3.22-5.293 3.343-.84.034-2.424-1.193-3.52-2.73-1.791-2.511-1.867-3.037-.744-5.213zm-1.928 5.529c-2.24-1.913-2.331-4.577-.227-6.622.873-.851 1.766-1.388 1.982-1.194s-.09.834-.681 1.424c-1.31 1.307-1.415 4.925-.166 5.696.5.308.908.94.908 1.404s-.817.146-1.816-.708zm6.034 4.103c-.927.197-2.082-.039-2.567-.522-.568-.567.029-.694 1.686-.356 1.901.386 2.13.615.881.878zm4.858.476c1.192-.181 2.374-.536 2.626-.788.796-.794 2.051 2.277 1.377 3.366-.398.642-.242.792.404.392.577-.355 1.049-.19 1.049.367s.448.737.996.4c.612-.378.875.013.681 1.015-.674 3.491-8.466 2.856-7.986-.651a13.92 13.92 0 0 0 .045-2.577c-.108-1.208-.228-1.208-1.084 0-.749 1.056-.887 1.075-.62.084.189-.703 1.32-1.426 2.512-1.608zm25.931 1.755c-.142-.874-.081-1.898.134-2.273s1.184-.259 2.153.258c1.91 1.021 2.426 5.291.832 6.882-1.453 1.45-6.112.39-6.608-1.504-.435-1.659 1.542-3.131 2.998-2.232.412.253.631-.256.491-1.131zm.856 6.689c2.533.97 4.915-2.135 4.5-5.864l-.371-3.322.909 3.538c.747 2.909.639 3.837-.609 5.213-1.643 1.812-4.425 2.219-5.317.778-.321-.518.053-.663.888-.343zm-31.776-5.107c-.749 0-1.362-.612-1.362-1.359s.613-1.36 1.362-1.36 1.363.612 1.363 1.36-.613 1.359-1.363 1.359zm41.118-1.642c-.56 1.678-2.235 1.868-2.83.321-.377-.98.02-1.398 1.326-1.398 1.035 0 1.704.478 1.504 1.077zm-32.857 6.941c-1.589 2.569-6.034-.263-5.933-3.776.057-1.929.077-1.931.808-.131 1.042 2.566 3.387 4.333 4.685 3.533.689-.425.851-.287.44.374zm8.433 6.41c-2.823-2.007-3.19-3.804-1.596-7.797l1.02-2.552 1.21 2.72c1.192 2.679 1.212 2.686 1.358.453.139-2.123.193-2.094.842.454.515 2.018.721 2.222.801.79.147-2.649 2.28-4.364 3.531-2.841.876 1.064 1.453 4.259 1.218 6.744-.055.586-1.376 1.701-2.934 2.477-2.65 1.32-3.002 1.291-5.45-.448zm-2.843.193c-.98-.769-1.537-2.33-1.453-4.08l.136-2.835.398 2.719c.22 1.496.874 3.332 1.454 4.08.918 1.183.849 1.198-.535.116zm-3.86-1.929c-.749 0-1.362-.612-1.362-1.36s.613-1.36 1.362-1.36 1.363.612 1.363 1.36-.613 1.36-1.363 1.36zm16.362 1.413c-1.235 1.61-1.266 1.509-.365-1.187 1.028-3.076 1.714-3.781 1.714-1.759 0 .652-.607 1.978-1.349 2.946zm3.234-1.587c-.537.178-.976-.355-.976-1.186s.439-1.365.976-1.186.976.713.976 1.186-.439 1.007-.976 1.186zm-11.425 5.776c-1.247-.566-2.267-1.451-2.267-1.964 0-.575.699-.498 1.817.198 1.46.911 2.189.9 3.721-.055 2.567-1.6 3.085-.841.822 1.203-1.51 1.363-2.219 1.47-4.093.618z"/><path d="M770.097 218.748c-5.759 4.837-6.034 12.041-.66 17.405 2.602 2.597 3.621 3.006 7.421 2.979 5.193-.038 7.953-1.376 10.358-5.015 3.424-5.186 1.484-13.434-3.855-16.391-3.67-2.034-10.228-1.529-13.264 1.022zm15.708 9.083c0-3.517-.433-4.608-2.549-6.425-5.61-4.816-14.254-1.039-14.254 6.23 0 7.763 8.386 11.658 14.254 6.62 2.116-1.817 2.549-2.907 2.549-6.425zm-11.97-6.628c-2.718 1.311-4.441 5.715-3.389 8.66 1.986 5.566 8.093 7.033 12.202 2.932 2.136-2.132 2.416-4.692.432-3.932-.885.339-1.363-.023-1.363-1.032s.478-1.37 1.363-1.031c3.087 1.182.983-3.635-2.336-5.348-2.963-1.53-4.166-1.573-6.909-.249zm-1.064 6.628c0 .474-.44 1.008-.976 1.186s-.977-.354-.977-1.186.44-1.364.977-1.185.976.712.976 1.185zm-.136-3.551c0 1.601 1.955 1.323 2.517-.358.198-.593-.288-1.077-1.079-1.077a1.44 1.44 0 0 0-1.438 1.435zm5.586-1.888c0 .473-.44 1.007-.977 1.186s-.976-.355-.976-1.186.439-1.364.976-1.186.977.713.977 1.186zm-.977 6.625c.537-.178.977-.712.977-1.186s-.44-1.007-.977-1.185-.976.354-.976 1.185.439 1.365.976 1.186zm5.207-5.197c-.179.536-.714.974-1.188.974s-1.009-.438-1.188-.974.355-.975 1.188-.975 1.367.439 1.188.975zm-1.188 8.997c.75 0 1.363-.383 1.363-.853 0-1.143-1.419-1.961-2.145-1.237-1.022 1.021-.622 2.09.782 2.09zm-2.478.171c-.562 1.681-2.517 1.959-2.517.358a1.44 1.44 0 0 1 1.438-1.435c.791 0 1.277.484 1.079 1.077zm-5.174-.345c.537-.178.977-.712.977-1.185s-.44-1.008-.977-1.186-.976.354-.976 1.186.439 1.364.976 1.185z" class="F"/></mask><path d="M773.543 202.953c0-.477.716-1.284 1.589-1.793 2.334-1.356 3.39-1.187 5.223.834 1.866 2.058 1.287 2.348-1.375.688-1.437-.895-2.174-.894-3.62.008-1 .623-1.817.741-1.817.263z" fill="url(#U)" class="B"/><path d="M773.474 204.433c.925.241 1.955-.005 2.291-.547.766-1.237 3.228-1.297 3.228-.079 0 .499.588.907 1.308.907 1.831 0 2.716 1.751 2.475 4.9-.307 4.022-1.822 5.483-3.82 3.68-1.257-1.136-1.692-1.189-2.068-.25-.284.707-.518.454-.58-.624-.094-1.628-.234-1.581-1.366.453l-1.262 2.266-1.043-2.719c-.574-1.496-.815-3.862-.536-5.258.309-1.552.159-2.324-.388-1.987-.492.304-.956 1.854-1.031 3.445-.133 2.819-.146 2.828-.52.346-.465-3.086 1.028-5.129 3.312-4.533z" fill="url(#U)" class="B"/><path d="M784.702 208.34l-1.341-3.173c-.823-1.784-.813-1.785.577-.053.777.968 1.38 2.396 1.341 3.173-.062 1.221-.141 1.228-.577.053z" fill="url(#U)" class="B"/><use href="#X" fill="url(#U)" class="B"/><path d="M787.696 209.247a1.44 1.44 0 0 1-1.437-1.435c0-1.601 1.955-1.323 2.517.359.198.592-.288 1.076-1.08 1.076z" fill="url(#U)" class="B"/><path d="M759.991 214.977c-.039-1.086.553-2.598 1.317-3.361 1.386-1.384 7.003-1.65 6.166-.292-.243.394-1.156.49-2.029.214-1.59-.504-3.914 1.427-4.882 4.055-.336.913-.524.712-.572-.616z" fill="url(#U)" class="B"/><path d="M785.823 211.966l.366-1.586c.254-.827.933-.006.751.906-.125.624.591 1.149 1.59 1.167 2.896.055 4.087 1.239 4.087 4.068 0 1.679-.639 2.975-1.762 3.575-1.931 1.032-2.678.399-2.297-1.948.17-1.054-.191-1.356-1.176-.979-.931.357-1.197.182-.771-.506.439-.709.141-.855-.917-.449-1.265.485-1.433.263-.868-1.144.385-.959.833-2.356.997-3.104z" fill="url(#U)" class="B"/><path d="M789.402 211.402c-.817.312-1.185.163-.866-.352.892-1.442 3.674-1.035 5.317.778 1.222 1.348 1.356 2.362.686 5.212l-.832 3.539-.091-3.743c-.098-4.016-1.889-6.326-4.214-5.434z" fill="url(#U)" class="B"/><path d="M762.11 216.608c-.248-1.344.181-2.58 1.137-3.278 2.011-1.468 6.114-.364 6.523 1.755.194 1.002-.069 1.392-.681 1.014-.548-.337-.996-.157-.996.4s-.362.79-.805.517-.749.212-.681 1.079c.078.993-.632 1.683-1.92 1.866-1.124.16-2.073-.044-2.11-.452s-.247-1.714-.467-2.901z" fill="url(#U)" class="B"/><use href="#X" x="-9.991" y="9.972" fill="url(#V)" class="B"/><path d="M797.262 219.219c-1.306 0-1.703-.418-1.326-1.398.595-1.547 2.27-1.357 2.83.322.2.597-.469 1.076-1.504 1.076z" fill="url(#U)" class="B"/><path d="M760.817 219.666c-.494-.305-.898-.938-.898-1.407 0-1.304.651-1.016 1.255.554.31.807.157 1.17-.357.853z" fill="url(#U)" class="B"/><path d="M756.767 221.249c-1.233.235-2.027.079-1.763-.347.465-.752 4.007-1.13 4.007-.429 0 .191-1.009.54-2.244.776z" fill="url(#U)" class="B"/><path d="M801.98 224.804c-.974-1.721-2.754-3.233-4.368-3.71-2.272-.671-2.383-.819-.665-.887 2.207-.087 8.385 5.53 8.385 7.624s-6.178 7.712-8.385 7.625c-1.71-.068-1.597-.217.669-.875 1.701-.494 3.344-1.937 4.367-3.831 1.581-2.93 1.581-3.143-.003-5.946z" fill="url(#U)" class="B"/><path d="M792.63 223.294c1.007-.318 1.631-.899 1.39-1.29s.671-.511 2.03-.269c2.401.428 6.492 4.27 6.492 6.096s-4.091 5.668-6.492 6.097c-1.359.242-2.283.138-2.054-.232s-.396-.885-1.389-1.144c-1.078-.281-1.807-1.238-1.807-2.369 0-1.433.611-1.932 2.498-2.034l2.497-.136-2.497-.377c-2.999-.454-3.462-3.457-.668-4.342z" fill="url(#U)" class="B"/><path d="M753.673 225.718c.686-1.331 1.658-2.72 2.157-3.086 2.29-1.675 6.998.084 7.409 2.77.254 1.664-.164 1.999-2.644 2.121l-2.947.145 2.938.365c2.393.297 2.883.72 2.644 2.285-.292 1.908-2.37 3.22-5.293 3.343-.84.034-2.424-1.193-3.52-2.73-1.791-2.511-1.867-3.037-.744-5.213z" fill="url(#U)" class="B"/><path d="M751.745 231.247c-2.24-1.913-2.331-4.577-.227-6.622.873-.851 1.766-1.388 1.982-1.194s-.09.834-.681 1.424c-1.31 1.307-1.415 4.925-.166 5.696.5.308.908.94.908 1.404s-.817.146-1.816-.708z" fill="url(#U)" class="B"/><path d="M757.779 235.35c-.927.197-2.082-.039-2.567-.522-.568-.567.029-.694 1.686-.356 1.901.386 2.13.615.881.878z" fill="url(#U)" class="B"/><path d="M762.637 235.826c1.192-.181 2.374-.536 2.626-.788.796-.794 2.051 2.277 1.377 3.366-.398.642-.242.792.404.392.577-.355 1.049-.19 1.049.367s.448.737.996.4c.612-.378.875.013.681 1.015-.674 3.491-8.466 2.856-7.986-.651a13.92 13.92 0 0 0 .045-2.577c-.108-1.208-.228-1.208-1.084 0-.749 1.056-.887 1.075-.62.084.189-.703 1.32-1.426 2.512-1.608z" fill="url(#U)" class="B"/><path d="M788.568 237.581c-.142-.874-.081-1.898.134-2.273s1.184-.259 2.153.258c1.91 1.021 2.426 5.291.832 6.882-1.453 1.45-6.112.39-6.608-1.504-.435-1.659 1.542-3.131 2.998-2.232.412.253.631-.256.491-1.131z" fill="url(#U)" class="B"/><path d="M789.424 244.27c2.533.97 4.915-2.135 4.5-5.864l-.371-3.322.909 3.538c.747 2.909.639 3.837-.609 5.213-1.643 1.812-4.425 2.219-5.317.778-.321-.518.053-.663.888-.343z" fill="url(#U)" class="B"/><path d="M757.648 239.163c-.749 0-1.362-.612-1.362-1.359s.613-1.36 1.362-1.36 1.363.612 1.363 1.36-.613 1.359-1.363 1.359z" fill="url(#U)" class="B"/><path d="M798.766 237.521c-.56 1.678-2.235 1.868-2.83.321-.377-.98.02-1.398 1.326-1.398 1.035 0 1.704.478 1.504 1.077z" fill="url(#U)" class="B"/><path d="M765.909 244.462c-1.589 2.569-6.034-.263-5.933-3.776.057-1.929.077-1.931.808-.131 1.042 2.566 3.387 4.333 4.685 3.533.689-.425.851-.287.44.374z" fill="url(#U)" class="B"/><path d="M774.342 250.872c-2.823-2.007-3.19-3.804-1.596-7.797l1.02-2.552 1.21 2.72c1.192 2.679 1.212 2.686 1.358.453.139-2.123.193-2.094.842.454.515 2.018.721 2.222.801.79.147-2.649 2.28-4.364 3.531-2.841.876 1.064 1.453 4.259 1.218 6.744-.055.586-1.376 1.701-2.934 2.477-2.65 1.32-3.002 1.291-5.45-.448z" fill="url(#U)" class="B"/><path d="M771.499 251.065c-.98-.769-1.537-2.33-1.453-4.08l.136-2.835.398 2.719c.22 1.496.874 3.332 1.454 4.08.918 1.183.849 1.198-.535.116z" fill="url(#U)" class="B"/><use href="#X" y="39.889" fill="url(#W)" class="B"/><path d="M784.001 250.549c-1.235 1.61-1.266 1.509-.365-1.187 1.028-3.076 1.714-3.781 1.714-1.759 0 .652-.607 1.978-1.349 2.946z" fill="url(#U)" class="B"/><path d="M787.235 248.962c-.537.178-.976-.355-.976-1.186s.439-1.365.976-1.186.976.713.976 1.186-.439 1.007-.976 1.186z" fill="url(#U)" class="B"/><path d="M775.81 254.738c-1.247-.566-2.267-1.451-2.267-1.964 0-.575.699-.498 1.817.198 1.46.911 2.189.9 3.721-.055 2.567-1.6 3.085-.841.822 1.203-1.51 1.363-2.219 1.47-4.093.618z" fill="url(#U)" class="B"/><path d="M770.097 218.748c-5.759 4.837-6.034 12.041-.66 17.405 2.602 2.597 3.621 3.006 7.421 2.979 5.193-.038 7.953-1.376 10.358-5.015 3.424-5.186 1.484-13.434-3.855-16.391-3.67-2.034-10.228-1.529-13.264 1.022zm15.708 9.083c0-3.517-.433-4.608-2.549-6.425-5.61-4.816-14.254-1.039-14.254 6.23 0 7.763 8.386 11.658 14.254 6.62 2.116-1.817 2.549-2.907 2.549-6.425zm-11.97-6.628c-2.718 1.311-4.441 5.715-3.389 8.66 1.986 5.566 8.093 7.033 12.202 2.932 2.136-2.132 2.416-4.692.432-3.932-.885.339-1.363-.023-1.363-1.032s.478-1.37 1.363-1.031c3.087 1.182.983-3.635-2.336-5.348-2.963-1.53-4.166-1.573-6.909-.249zm-1.064 6.628c0 .474-.44 1.008-.976 1.186s-.977-.354-.977-1.186.44-1.364.977-1.185.976.712.976 1.185zm-.136-3.551c0 1.601 1.955 1.323 2.517-.358.198-.593-.288-1.077-1.079-1.077a1.44 1.44 0 0 0-1.438 1.435zm5.586-1.888c0 .473-.44 1.007-.977 1.186s-.976-.355-.976-1.186.439-1.364.976-1.186.977.713.977 1.186zm-.977 6.625c.537-.178.977-.712.977-1.186s-.44-1.007-.977-1.185-.976.354-.976 1.185.439 1.365.976 1.186zm5.207-5.197c-.179.536-.714.974-1.188.974s-1.009-.438-1.188-.974.355-.975 1.188-.975 1.367.439 1.188.975zm-1.188 8.997c.75 0 1.363-.383 1.363-.853 0-1.143-1.419-1.961-2.145-1.237-1.022 1.021-.622 2.09.782 2.09zm-2.478.171c-.562 1.681-2.517 1.959-2.517.358a1.44 1.44 0 0 1 1.438-1.435c.791 0 1.277.484 1.079 1.077zm-5.174-.345c.537-.178.977-.712.977-1.185s-.44-1.008-.977-1.186-.976.354-.976 1.186.439 1.364.976 1.185z" fill="url(#U)" class="B F"/><g stroke-width="2.971" class="C"><path d="M773.543 202.953C773.543 202.476 774.259 201.669 775.132 201.16C777.466 199.804 778.522 199.973 780.355 201.994C782.221 204.052 781.642 204.342 778.98 202.682C777.543 201.787 776.806 201.788 775.36 202.69C774.36 203.313 773.543 203.431 773.543 202.953Z" stroke="url(#U)"/><path d="M773.474 204.433C774.399 204.674 775.429 204.428 775.765 203.886C776.531 202.649 778.993 202.589 778.993 203.807C778.993 204.306 779.581 204.714 780.301 204.714C782.132 204.714 783.017 206.465 782.776 209.614C782.469 213.636 780.954 215.097 778.956 213.294C777.699 212.158 777.264 212.105 776.888 213.044C776.604 213.751 776.37 213.498 776.308 212.42C776.214 210.792 776.074 210.839 774.942 212.873L773.68 215.139L772.637 212.42C772.063 210.924 771.822 208.558 772.101 207.162C772.41 205.61 772.26 204.838 771.713 205.175C771.221 205.479 770.757 207.029 770.682 208.62C770.549 211.439 770.536 211.448 770.162 208.966C769.697 205.88 771.19 203.837 773.474 204.433Z" stroke="url(#U)"/><path d="M784.702 208.34C784.424 207.592 783.821 206.164 783.361 205.167C782.538 203.383 782.548 203.382 783.938 205.114C784.715 206.082 785.318 207.51 785.279 208.287C785.217 209.508 785.138 209.515 784.702 208.34Z" stroke="url(#U)"/><path d="M767.639 209.247C766.89 209.247 766.277 208.635 766.277 207.887C766.277 207.139 766.89 206.527 767.639 206.527C768.389 206.527 769.002 207.139 769.002 207.887C769.002 208.635 768.389 209.247 767.639 209.247Z" stroke="url(#U)"/><path d="M787.696 209.247C786.905 209.247 786.259 208.601 786.259 207.812C786.259 206.211 788.214 206.489 788.776 208.171C788.974 208.763 788.488 209.247 787.696 209.247Z" stroke="url(#U)"/><path d="M759.991 214.977C759.952 213.891 760.544 212.379 761.308 211.616C762.694 210.232 768.311 209.966 767.474 211.324C767.231 211.718 766.318 211.814 765.445 211.538C763.855 211.034 761.531 212.965 760.563 215.593C760.227 216.506 760.039 216.305 759.991 214.977Z" stroke="url(#U)"/><path d="M785.823 211.966C785.986 211.218 786.151 210.504 786.189 210.38C786.443 209.553 787.122 210.374 786.94 211.286C786.815 211.91 787.531 212.435 788.53 212.453C791.426 212.508 792.617 213.692 792.617 216.521C792.617 218.2 791.978 219.496 790.855 220.096C788.924 221.128 788.177 220.495 788.558 218.148C788.728 217.094 788.367 216.792 787.382 217.169C786.451 217.526 786.185 217.351 786.611 216.663C787.05 215.954 786.752 215.808 785.694 216.214C784.429 216.699 784.261 216.477 784.826 215.07C785.211 214.111 785.659 212.714 785.823 211.966Z" stroke="url(#U)"/><path d="M789.402 211.402C788.585 211.714 788.217 211.565 788.536 211.05C789.428 209.608 792.21 210.015 793.853 211.828C795.075 213.176 795.209 214.19 794.539 217.04L793.707 220.579L793.616 216.836C793.518 212.82 791.727 210.51 789.402 211.402Z" stroke="url(#U)"/><path d="M762.11 216.608C761.862 215.264 762.291 214.028 763.247 213.33C765.258 211.862 769.361 212.966 769.77 215.085C769.964 216.087 769.701 216.477 769.089 216.099C768.541 215.762 768.093 215.942 768.093 216.499C768.093 217.057 767.731 217.289 767.288 217.016C766.845 216.742 766.539 217.228 766.607 218.095C766.685 219.088 765.975 219.778 764.687 219.961C763.563 220.121 762.614 219.917 762.577 219.509C762.539 219.1 762.33 217.795 762.11 216.608Z" stroke="url(#U)"/><path d="M757.648 219.219C756.899 219.219 756.286 218.607 756.286 217.859C756.286 217.111 756.899 216.499 757.648 216.499C758.398 216.499 759.011 217.111 759.011 217.859C759.011 218.607 758.398 219.219 757.648 219.219Z" stroke="url(#U)"/><path d="M797.262 219.219C795.956 219.219 795.559 218.801 795.936 217.821C796.531 216.274 798.206 216.464 798.766 218.143C798.966 218.74 798.297 219.219 797.262 219.219Z" stroke="url(#U)"/><path d="M760.817 219.666C760.323 219.361 759.919 218.728 759.919 218.259C759.919 216.955 760.57 217.243 761.174 218.813C761.484 219.62 761.331 219.983 760.817 219.666Z" stroke="url(#U)"/><path d="M756.767 221.249C755.534 221.484 754.74 221.328 755.004 220.902C755.469 220.15 759.011 219.772 759.011 220.473C759.011 220.664 758.002 221.013 756.767 221.249Z" stroke="url(#U)"/><path d="M801.98 224.804C801.006 223.083 799.226 221.571 797.612 221.094C795.34 220.423 795.229 220.275 796.947 220.207C799.154 220.12 805.332 225.737 805.332 227.831C805.332 229.925 799.154 235.543 796.947 235.456C795.237 235.388 795.35 235.239 797.616 234.581C799.317 234.087 800.96 232.644 801.983 230.75C803.564 227.82 803.564 227.607 801.98 224.804Z" stroke="url(#U)"/><path d="M792.63 223.294C793.637 222.976 794.261 222.395 794.02 222.004C793.777 221.614 794.691 221.493 796.05 221.735C798.451 222.163 802.542 226.005 802.542 227.831C802.542 229.658 798.451 233.499 796.05 233.928C794.691 234.17 793.767 234.066 793.996 233.696C794.225 233.326 793.6 232.811 792.607 232.552C791.529 232.271 790.8 231.314 790.8 230.183C790.8 228.75 791.411 228.251 793.298 228.149L795.795 228.013L793.298 227.636C790.299 227.182 789.836 224.179 792.63 223.294Z" stroke="url(#U)"/><path d="M753.673 225.718C754.359 224.387 755.331 222.998 755.83 222.632C758.12 220.957 762.828 222.716 763.239 225.402C763.493 227.066 763.075 227.401 760.595 227.523L757.648 227.668L760.586 228.033C762.979 228.33 763.469 228.753 763.23 230.318C762.938 232.226 760.86 233.538 757.937 233.661C757.097 233.695 755.513 232.468 754.417 230.931C752.626 228.42 752.55 227.894 753.673 225.718Z" stroke="url(#U)"/><path d="M751.745 231.247C749.505 229.334 749.414 226.67 751.518 224.625C752.391 223.774 753.284 223.237 753.5 223.431C753.717 223.624 753.41 224.265 752.819 224.855C751.509 226.162 751.404 229.78 752.653 230.551C753.153 230.859 753.561 231.491 753.561 231.955C753.561 232.419 752.744 232.101 751.745 231.247Z" stroke="url(#U)"/><path d="M757.779 235.35C756.852 235.547 755.697 235.311 755.212 234.828C754.644 234.261 755.241 234.134 756.898 234.472C758.799 234.858 759.028 235.087 757.779 235.35Z" stroke="url(#U)"/><path d="M762.637 235.826C763.829 235.645 765.011 235.29 765.263 235.038C766.059 234.244 767.314 237.315 766.64 238.404C766.242 239.046 766.398 239.196 767.044 238.796C767.621 238.441 768.093 238.606 768.093 239.163C768.093 239.721 768.541 239.9 769.089 239.563C769.701 239.185 769.964 239.576 769.77 240.578C769.096 244.069 761.304 243.434 761.784 239.927C761.875 239.258 761.896 238.098 761.829 237.35C761.721 236.142 761.601 236.142 760.745 237.35C759.996 238.406 759.858 238.425 760.125 237.434C760.314 236.731 761.445 236.008 762.637 235.826Z" stroke="url(#U)"/><path d="M788.568 237.581C788.426 236.707 788.487 235.683 788.702 235.308C788.917 234.932 789.886 235.049 790.855 235.566C792.765 236.587 793.281 240.857 791.687 242.448C790.234 243.898 785.575 242.838 785.079 240.944C784.644 239.285 786.621 237.813 788.077 238.712C788.489 238.965 788.708 238.456 788.568 237.581Z" stroke="url(#U)"/><path d="M789.424 244.27C791.957 245.24 794.339 242.135 793.924 238.406L793.553 235.084L794.462 238.622C795.209 241.531 795.101 242.459 793.853 243.835C792.21 245.647 789.428 246.054 788.536 244.613C788.215 244.095 788.589 243.95 789.424 244.27Z" stroke="url(#U)"/><path d="M757.648 239.163C756.899 239.163 756.286 238.551 756.286 237.804C756.286 237.056 756.899 236.444 757.648 236.444C758.398 236.444 759.011 237.056 759.011 237.804C759.011 238.551 758.398 239.163 757.648 239.163Z" stroke="url(#U)"/><path d="M798.766 237.521C798.206 239.199 796.531 239.389 795.936 237.842C795.559 236.862 795.956 236.444 797.262 236.444C798.297 236.444 798.966 236.922 798.766 237.521Z" stroke="url(#U)"/><path d="M765.909 244.462C764.32 247.031 759.875 244.199 759.976 240.686C760.033 238.757 760.053 238.755 760.784 240.555C761.826 243.121 764.171 244.888 765.469 244.088C766.158 243.663 766.32 243.801 765.909 244.462Z" stroke="url(#U)"/><path d="M774.342 250.872C771.519 248.865 771.152 247.068 772.746 243.075L773.766 240.523L774.976 243.243C776.168 245.922 776.188 245.929 776.334 243.696C776.473 241.573 776.527 241.602 777.176 244.15C777.691 246.168 777.897 246.372 777.977 244.94C778.124 242.291 780.257 240.576 781.508 242.099C782.384 243.163 782.961 246.358 782.726 248.843C782.671 249.429 781.35 250.544 779.792 251.32C777.142 252.64 776.79 252.611 774.342 250.872Z" stroke="url(#U)"/><path d="M771.499 251.065C770.519 250.296 769.962 248.735 770.046 246.985L770.182 244.15L770.58 246.869C770.8 248.365 771.454 250.201 772.034 250.949C772.952 252.132 772.883 252.147 771.499 251.065Z" stroke="url(#U)"/><path d="M767.639 249.136C766.89 249.136 766.277 248.524 766.277 247.776C766.277 247.028 766.89 246.416 767.639 246.416C768.389 246.416 769.002 247.028 769.002 247.776C769.002 248.524 768.389 249.136 767.639 249.136Z" stroke="url(#U)"/><path d="M784.001 250.549C782.766 252.159 782.735 252.058 783.636 249.362C784.664 246.286 785.35 245.581 785.35 247.603C785.35 248.255 784.743 249.581 784.001 250.549Z" stroke="url(#U)"/><path d="M787.235 248.962C786.698 249.14 786.259 248.607 786.259 247.776C786.259 246.944 786.698 246.411 787.235 246.59C787.772 246.769 788.211 247.303 788.211 247.776C788.211 248.249 787.772 248.783 787.235 248.962Z" stroke="url(#U)"/><path d="M775.81 254.738C774.563 254.172 773.543 253.287 773.543 252.774C773.543 252.199 774.242 252.276 775.36 252.972C776.82 253.883 777.549 253.872 779.081 252.917C781.648 251.317 782.166 252.076 779.903 254.12C778.393 255.483 777.684 255.59 775.81 254.738Z" stroke="url(#U)"/><path d="M770.097 218.748C764.338 223.585 764.063 230.789 769.437 236.153C772.039 238.75 773.058 239.159 776.858 239.132C782.051 239.094 784.811 237.756 787.216 234.117C790.64 228.931 788.7 220.683 783.361 217.726C779.691 215.692 773.133 216.197 770.097 218.748ZM785.805 227.831C785.805 224.314 785.372 223.223 783.256 221.406C777.646 216.59 769.002 220.367 769.002 227.636C769.002 235.399 777.388 239.294 783.256 234.256C785.372 232.439 785.805 231.349 785.805 227.831ZM773.835 221.203C771.117 222.514 769.394 226.918 770.446 229.863C772.432 235.429 778.539 236.896 782.648 232.795C784.784 230.663 785.064 228.103 783.08 228.863C782.195 229.202 781.717 228.84 781.717 227.831C781.717 226.822 782.195 226.461 783.08 226.8C786.167 227.982 784.063 223.165 780.744 221.452C777.781 219.922 776.578 219.879 773.835 221.203ZM772.771 227.831C772.771 228.305 772.331 228.839 771.795 229.017C771.258 229.196 770.818 228.663 770.818 227.831C770.818 227 771.258 226.467 771.795 226.646C772.331 226.824 772.771 227.358 772.771 227.831ZM772.635 224.28C772.635 225.881 774.59 225.603 775.152 223.922C775.35 223.329 774.864 222.845 774.073 222.845C773.281 222.845 772.635 223.491 772.635 224.28ZM778.221 222.392C778.221 222.865 777.781 223.399 777.244 223.578C776.707 223.756 776.268 223.223 776.268 222.392C776.268 221.561 776.707 221.028 777.244 221.206C777.781 221.385 778.221 221.919 778.221 222.392ZM777.244 229.017C777.781 228.839 778.221 228.305 778.221 227.831C778.221 227.358 777.781 226.824 777.244 226.646C776.707 226.467 776.268 227 776.268 227.831C776.268 228.663 776.707 229.196 777.244 229.017ZM782.451 223.82C782.272 224.356 781.737 224.794 781.263 224.794C780.789 224.794 780.254 224.356 780.075 223.82C779.896 223.284 780.43 222.845 781.263 222.845C782.096 222.845 782.63 223.284 782.451 223.82ZM781.263 232.817C782.013 232.817 782.626 232.434 782.626 231.964C782.626 230.821 781.207 230.003 780.481 230.727C779.459 231.748 779.859 232.817 781.263 232.817ZM778.785 232.988C778.223 234.669 776.268 234.947 776.268 233.346C776.268 232.556 776.915 231.911 777.706 231.911C778.497 231.911 778.983 232.395 778.785 232.988ZM773.611 232.643C774.148 232.465 774.588 231.931 774.588 231.458C774.588 230.984 774.148 230.45 773.611 230.272C773.074 230.093 772.635 230.626 772.635 231.458C772.635 232.289 773.074 232.822 773.611 232.643Z" stroke="url(#U)"/></g><defs><filter id="B" x="721.1" y="222.382" width="10.8" height="10.801" filterUnits="userSpaceOnUse" class="G"><feFlood flood-opacity="0"/><feBlend in="SourceGraphic" result="B"/><feColorMatrix in="SourceAlpha" values="0 0 0 0 0 0 0 0 0 0 0 0 0 0 0 0 0 0 127 0" result="C"/><feOffset dx="-0.9" dy="-2.7"/><feComposite in2="C" operator="arithmetic" k2="-1" k3="1"/><feColorMatrix values="0 0 0 0 0 0 0 0 0 0 0 0 0 0 0 0 0 0 0.5 0"/><feBlend in2="B" result="D"/><feColorMatrix in="SourceAlpha" values="0 0 0 0 0 0 0 0 0 0 0 0 0 0 0 0 0 0 127 0" result="C"/><feOffset dx="0.9" dy="2.7"/><feComposite in2="C" operator="arithmetic" k2="-1" k3="1"/><feColorMatrix values="0 0 0 0 1 0 0 0 0 1 0 0 0 0 1 0 0 0 0.5 0"/><feBlend in2="D"/></filter><filter id="C" x="823.1" y="222.382" width="10.8" height="10.801" filterUnits="userSpaceOnUse" class="G"><feFlood flood-opacity="0"/><feBlend in="SourceGraphic" result="B"/><feColorMatrix in="SourceAlpha" values="0 0 0 0 0 0 0 0 0 0 0 0 0 0 0 0 0 0 127 0" result="C"/><feOffset dx="-0.9" dy="-2.7"/><feComposite in2="C" operator="arithmetic" k2="-1" k3="1"/><feColorMatrix values="0 0 0 0 0 0 0 0 0 0 0 0 0 0 0 0 0 0 0.5 0"/><feBlend in2="B" result="D"/><feColorMatrix in="SourceAlpha" values="0 0 0 0 0 0 0 0 0 0 0 0 0 0 0 0 0 0 127 0" result="C"/><feOffset dx="0.9" dy="2.7"/><feComposite in2="C" operator="arithmetic" k2="-1" k3="1"/><feColorMatrix values="0 0 0 0 1 0 0 0 0 1 0 0 0 0 1 0 0 0 0.5 0"/><feBlend in2="D"/></filter><linearGradient id="D" x1="1012.54" y1="215.474" x2="1412.68" y2="215.474" href="#Y"><stop stop-color="#ffc446"/><stop offset="1" stop-color="#fcf0d6"/></linearGradient><linearGradient id="E" x1="1012.54" y1="215.474" x2="1412.68" y2="215.474" href="#Y"><stop stop-color="#fcf0d6"/><stop offset="1" stop-color="#ffc446"/></linearGradient><linearGradient id="F" x1="1004.53" y1="188.57" x2="1279.91" y2="188.57" href="#Y"><stop stop-color="#ffc446"/><stop offset="1" stop-color="#fcf0d6"/></linearGradient><linearGradient id="G" x1="1004.53" y1="188.57" x2="1279.91" y2="188.57" href="#Y"><stop stop-color="#fcf0d6"/><stop offset="1" stop-color="#ffc446"/></linearGradient><linearGradient id="H" x1="1016.39" y1="213.663" x2="1543.25" y2="86.303" href="#Y"><stop stop-color="#ffc446"/><stop offset="1" stop-color="#fcf0d6"/></linearGradient><linearGradient id="I" x1="1016.39" y1="213.663" x2="1543.25" y2="86.303" href="#Y"><stop stop-color="#fcf0d6"/><stop offset="1" stop-color="#ffc446"/></linearGradient><linearGradient id="J" x1="997.275" y1="180.788" x2="1359.86" y2="93.139" href="#Y"><stop stop-color="#ffc446"/><stop offset="1" stop-color="#fcf0d6"/></linearGradient><linearGradient id="K" x1="997.275" y1="180.788" x2="1359.86" y2="93.139" href="#Y"><stop stop-color="#fcf0d6"/><stop offset="1" stop-color="#ffc446"/></linearGradient><linearGradient id="L" x1="541.119" y1="215.379" x2="140.976" y2="215.379" href="#Y"><stop stop-color="#ffc446"/><stop offset="1" stop-color="#fcf0d6"/></linearGradient><linearGradient id="M" x1="541.119" y1="215.379" x2="140.976" y2="215.379" href="#Y"><stop stop-color="#fcf0d6"/><stop offset="1" stop-color="#ffc446"/></linearGradient><linearGradient id="N" x1="549.129" y1="188.475" x2="273.751" y2="188.475" href="#Y"><stop stop-color="#ffc446"/><stop offset="1" stop-color="#fcf0d6"/></linearGradient><linearGradient id="O" x1="549.129" y1="188.475" x2="273.751" y2="188.475" href="#Y"><stop stop-color="#fcf0d6"/><stop offset="1" stop-color="#ffc446"/></linearGradient><linearGradient id="P" x1="537.271" y1="213.568" x2="10.411" y2="86.208" href="#Y"><stop stop-color="#ffc446"/><stop offset="1" stop-color="#fcf0d6"/></linearGradient><linearGradient id="Q" x1="537.271" y1="213.568" x2="10.411" y2="86.208" href="#Y"><stop stop-color="#fcf0d6"/><stop offset="1" stop-color="#ffc446"/></linearGradient><linearGradient id="R" x1="556.381" y1="180.693" x2="193.797" y2="93.044" href="#Y"><stop stop-color="#ffc446"/><stop offset="1" stop-color="#fcf0d6"/></linearGradient><linearGradient id="S" x1="556.381" y1="180.693" x2="193.797" y2="93.044" href="#Y"><stop stop-color="#fcf0d6"/><stop offset="1" stop-color="#ffc446"/></linearGradient><linearGradient id="T" x1="4.5" y1="0" x2="4.5" y2="9" href="#Y"><stop stop-color="#fcf0d6"/><stop offset="1" stop-color="#ffc446"/></linearGradient><linearGradient id="U" x1="750" y1="227.782" x2="805.332" y2="227.782" href="#Y"><stop stop-color="#fcf0d6"/><stop offset="1" stop-color="#ffc446"/></linearGradient><linearGradient id="V" x1="759.991" y1="217.81" x2="815.323" y2="217.81" href="#Y"><stop stop-color="#fcf0d6"/><stop offset="1" stop-color="#ffc446"/></linearGradient><linearGradient id="W" x1="750" y1="187.893" x2="805.332" y2="187.893" href="#Y"><stop stop-color="#fcf0d6"/><stop offset="1" stop-color="#ffc446"/></linearGradient><path id="X" d="M767.639 209.247c-.749 0-1.362-.612-1.362-1.36s.613-1.36 1.362-1.36 1.363.612 1.363 1.36-.613 1.36-1.363 1.36z"/><linearGradient id="Y" gradientUnits="userSpaceOnUse"/></defs></svg>