<svg xmlns="http://www.w3.org/2000/svg" width="377" height="325" fill="none" viewBox="0 0 377 325"><g opacity=".35"><g opacity=".6"><path fill="url(#a)" fill-rule="evenodd" d="M121.29 14.48C136.22-.45 161.06.19 161.06.19s.64 24.84-14.29 39.77c-13.64 13.64-35.57 14.28-39.24 14.29 3.67.01 25.6.65 39.24 14.29 14.93 14.93 14.29 39.77 14.29 39.77s-24.84.64-39.77-14.29C106.36 79.1 107 54.25 107 54.25h.38-.38s-.64-24.85 14.29-39.77" clip-rule="evenodd"/><path fill="url(#b)" fill-rule="evenodd" d="M53.82 108.12s24.84.78 39.85-14.06 14.52-39.68 14.52-39.68-.13-.01-.38-.01h.38s.78-24.84-14.06-39.85S54.44 0 54.44 0s-.78 24.84 14.06 39.85c13.56 13.73 35.49 14.49 39.16 14.52-3.67-.01-25.6.5-39.33 14.06-15.01 14.84-14.51 39.69-14.51 39.69" clip-rule="evenodd"/><path fill="url(#c)" fill-rule="evenodd" d="M228.29 122.48c14.93-14.93 39.77-14.29 39.77-14.29s.64 24.84-14.29 39.77c-13.64 13.64-35.57 14.28-39.24 14.29 3.67.01 25.6.65 39.24 14.29 14.93 14.93 14.29 39.77 14.29 39.77s-24.84.64-39.77-14.29C213.36 187.1 214 162.25 214 162.25h.38-.38s-.64-24.85 14.29-39.77" clip-rule="evenodd"/><path fill="url(#d)" fill-rule="evenodd" d="M160.82 216.12s24.84.78 39.85-14.06 14.52-39.68 14.52-39.68-.13-.01-.38-.01h.38s.78-24.84-14.06-39.85S161.44 108 161.44 108s-.78 24.84 14.06 39.85c13.56 13.73 35.49 14.49 39.16 14.52-3.67-.01-25.6.5-39.32 14.06-15.02 14.84-14.52 39.69-14.52 39.69" clip-rule="evenodd"/><path fill="url(#e)" fill-rule="evenodd" d="M228.29 230.48c14.93-14.92 39.77-14.28 39.77-14.28s.64 24.84-14.28 39.77c-13.65 13.64-35.57 14.28-39.25 14.29 3.68 0 25.6.64 39.25 14.29 14.92 14.92 14.28 39.76 14.28 39.76s-24.84.64-39.77-14.28c-14.92-14.93-14.28-39.77-14.28-39.77h.37c-.25-.01-.37-.01-.37-.01s-.64-24.84 14.28-39.77" clip-rule="evenodd"/><path fill="url(#f)" d="M376.06 108s-24.84-.64-39.77 14.29S322.06 162 322.06 162c3.67-.01 26.07-.58 39.71-14.23C376.7 132.85 376.06 108 376.06 108"/><path fill="url(#g)" fill-rule="evenodd" d="M307.77 122.29C292.85 107.36 268.01 108 268.01 108s-.64 24.85 14.28 39.77c13.65 13.65 35.57 14.28 39.24 14.29-3.67.01-25.59.65-39.24 14.29-14.92 14.93-14.28 39.77-14.28 39.77s24.84.64 39.76-14.28c14.93-14.93 14.29-39.77 14.29-39.77s-.13-.01-.37-.01h.37s.64-24.84-14.29-39.77" clip-rule="evenodd"/><path fill="url(#h)" fill-rule="evenodd" d="M39.77 68.29C24.85 53.36 0 54 0 54s-.64 24.85 14.29 39.77c13.64 13.65 35.57 14.28 39.24 14.29-3.67.01-25.6.65-39.24 14.29C-.64 137.28 0 162.12 0 162.12s24.85.64 39.77-14.28c14.93-14.93 14.29-39.77 14.29-39.77s-.13-.01-.37-.01h.37s.64-24.84-14.29-39.77" clip-rule="evenodd"/><path fill="url(#i)" fill-rule="evenodd" d="M106.38 270.12s24.84.78 39.85-14.06c15.02-14.84 14.52-39.68 14.52-39.68s-.13-.01-.37-.01h.37s.78-24.84-14.06-39.85S107.01 162 107.01 162s-.79 24.84 14.05 39.85c13.57 13.73 35.49 14.49 39.16 14.52-3.67-.01-25.6.5-39.32 14.06-15.02 14.84-14.52 39.69-14.52 39.69" clip-rule="evenodd"/></g><g stroke-width="4" filter="url(#j)"><path stroke="url(#k)" d="M107.53 54.27c-.05 0-.1 0-.15-.01v-.02c.05-.01.1-.01.15-.01zm51.5-52.05c-.02.55-.05 1.21-.1 1.95-.17 2.49-.54 5.97-1.37 9.9-1.67 7.89-5.13 17.4-12.2 24.48-6.46 6.46-14.96 9.91-22.42 11.73-5.99 1.46-11.19 1.84-13.91 1.93.02-.55.05-1.2.1-1.94.17-2.49.55-5.97 1.38-9.9 1.66-7.89 5.12-17.4 12.19-24.48 7.08-7.07 16.59-10.53 24.49-12.2 3.92-.83 7.4-1.2 9.89-1.37.74-.05 1.4-.08 1.95-.1Zm0 104.06c-.55-.02-1.21-.05-1.95-.1-2.49-.17-5.97-.54-9.89-1.37-7.9-1.67-17.41-5.13-24.49-12.2-7.07-7.08-10.53-16.59-12.19-24.48-.83-3.93-1.21-7.41-1.38-9.9-.05-.74-.08-1.39-.1-1.95 2.72.1 7.92.48 13.91 1.94 7.46 1.82 15.96 5.27 22.42 11.73 7.07 7.08 10.53 16.59 12.2 24.48.83 3.93 1.2 7.41 1.37 9.9.05.74.08 1.4.1 1.95Z"/><path stroke="url(#l)" d="M106.17 52.33a72 72 0 0 1-13.9-2.02c-7.44-1.87-15.92-5.36-22.35-11.86-7.03-7.12-10.43-16.65-12.05-24.55A71 71 0 0 1 56.55 4c-.05-.75-.07-1.4-.09-1.96.55.03 1.21.06 1.95.12 2.49.18 5.97.57 9.89 1.43 7.88 1.71 17.37 5.22 24.41 12.34 7.03 7.11 10.43 16.64 12.05 24.55.81 3.93 1.16 7.41 1.32 9.9.05.74.07 1.4.09 1.95Zm-.03 4.07c-.02.55-.05 1.2-.11 1.95-.18 2.48-.58 5.96-1.43 9.88-1.71 7.88-5.22 17.38-12.34 24.41-7.11 7.04-16.64 10.44-24.55 12.06-3.93.8-7.41 1.16-9.9 1.31-.74.05-1.4.07-1.95.09.02-.55.06-1.21.11-1.95.18-2.49.58-5.96 1.43-9.88 1.71-7.89 5.22-17.38 12.34-24.41 6.5-6.43 15.02-9.83 22.49-11.6a70.5 70.5 0 0 1 13.91-1.86Zm1.67-2.02c-.05.01-.1.01-.15.01v-.04l.15.01z"/><path stroke="url(#m)" d="M214.53 162.27c-.05-.01-.1-.01-.15-.01v-.02c.05 0 .1-.01.15-.01zm51.5-52.05c-.02.55-.05 1.21-.1 1.95-.17 2.49-.54 5.97-1.37 9.89-1.67 7.9-5.13 17.41-12.2 24.49-6.46 6.46-14.96 9.91-22.42 11.73a71 71 0 0 1-13.91 1.94c.02-.56.05-1.21.1-1.95.17-2.49.55-5.97 1.38-9.9 1.66-7.89 5.12-17.4 12.19-24.48 7.08-7.07 16.59-10.53 24.49-12.2 3.92-.83 7.4-1.2 9.89-1.37.74-.05 1.4-.08 1.95-.1Zm0 104.06c-.55-.02-1.21-.05-1.95-.1-2.49-.17-5.97-.54-9.89-1.37-7.9-1.67-17.41-5.13-24.49-12.2-7.07-7.08-10.53-16.59-12.19-24.48-.83-3.93-1.21-7.41-1.38-9.9-.05-.74-.08-1.39-.1-1.95 2.72.1 7.92.48 13.91 1.94 7.46 1.82 15.96 5.27 22.42 11.73 7.07 7.08 10.53 16.59 12.2 24.49.83 3.92 1.2 7.4 1.37 9.89.05.74.08 1.4.1 1.95Z"/><path stroke="url(#n)" d="M213.17 160.33c-2.71-.11-7.92-.53-13.9-2.02-7.44-1.87-15.92-5.36-22.35-11.86-7.03-7.12-10.43-16.65-12.05-24.55a71 71 0 0 1-1.32-9.9c-.05-.75-.07-1.4-.09-1.95.55.02 1.21.05 1.95.11 2.49.18 5.97.57 9.89 1.43 7.88 1.71 17.37 5.22 24.41 12.33 7.03 7.12 10.43 16.65 12.05 24.56a71 71 0 0 1 1.32 9.9c.05.74.07 1.4.09 1.95Zm-.03 4.07c-.02.55-.05 1.2-.11 1.94-.18 2.49-.57 5.97-1.43 9.89-1.71 7.89-5.22 17.38-12.34 24.41-7.11 7.04-16.64 10.44-24.55 12.06-3.93.8-7.41 1.16-9.9 1.31-.74.05-1.4.07-1.95.09.02-.55.06-1.2.11-1.95.18-2.49.58-5.96 1.43-9.88 1.72-7.89 5.23-17.38 12.34-24.41 6.5-6.43 15.02-9.83 22.49-11.6a70.5 70.5 0 0 1 13.91-1.86Zm1.67-2.02c-.05.01-.1.01-.15.01v-.04l.15.01z"/><path stroke="url(#o)" d="M214.53 270.27h-.15v-.03h.15zm51.5-52.04c-.02.55-.05 1.2-.1 1.95-.17 2.49-.54 5.96-1.37 9.89-1.67 7.9-5.12 17.41-12.2 24.48-6.46 6.47-14.96 9.91-22.42 11.73a71 71 0 0 1-13.9 1.94c.02-.55.05-1.21.09-1.95.17-2.49.55-5.96 1.38-9.89 1.67-7.9 5.12-17.41 12.2-24.48 7.07-7.08 16.58-10.53 24.48-12.2 3.93-.83 7.4-1.21 9.89-1.37.74-.05 1.4-.08 1.95-.1Zm0 104.05c-.55-.02-1.21-.04-1.95-.09-2.49-.17-5.96-.55-9.89-1.38-7.9-1.67-17.41-5.12-24.48-12.2-7.08-7.07-10.53-16.58-12.2-24.48-.83-3.92-1.21-7.4-1.38-9.89-.04-.74-.07-1.4-.09-1.95 2.71.1 7.91.48 13.9 1.94 7.46 1.82 15.96 5.27 22.42 11.73 7.08 7.08 10.53 16.59 12.2 24.48.83 3.93 1.2 7.4 1.37 9.89.05.75.08 1.4.1 1.95Z"/><path stroke="url(#p)" d="M374.03 110.03c-.02.55-.05 1.21-.1 1.95-.17 2.49-.54 5.97-1.37 9.9-1.67 7.89-5.13 17.4-12.2 24.48-6.46 6.45-15.07 9.89-22.65 11.69a73 73 0 0 1-13.62 1.9c.02-.54.04-1.19.09-1.92.17-2.49.53-5.96 1.36-9.88 1.65-7.87 5.09-17.37 12.16-24.45 7.08-7.07 16.59-10.53 24.49-12.19 3.92-.83 7.4-1.21 9.89-1.38.74-.05 1.4-.08 1.95-.1Z"/><path stroke="url(#q)" d="M321.54 162.08h.15v-.03c-.06 0-.11 0-.15-.01zm-51.5-52.05c.02.55.04 1.21.09 1.95.17 2.49.55 5.97 1.38 9.9 1.67 7.89 5.12 17.4 12.2 24.48 6.46 6.46 14.96 9.91 22.42 11.73a71 71 0 0 0 13.9 1.94c-.02-.55-.05-1.21-.1-1.95-.17-2.49-.54-5.97-1.37-9.89-1.67-7.9-5.12-17.41-12.2-24.49-7.07-7.07-16.59-10.53-24.48-12.19-3.93-.83-7.4-1.21-9.89-1.38-.75-.05-1.4-.08-1.95-.1Zm0 104.06c.55-.02 1.2-.05 1.95-.1 2.49-.17 5.96-.54 9.89-1.37 7.89-1.67 17.41-5.12 24.48-12.2 7.08-7.07 10.53-16.59 12.2-24.48.83-3.93 1.2-7.4 1.37-9.89.05-.75.08-1.4.1-1.95-2.71.09-7.92.48-13.9 1.94-7.46 1.82-15.96 5.26-22.42 11.73-7.08 7.07-10.53 16.58-12.2 24.48-.83 3.92-1.21 7.4-1.38 9.89-.05.74-.07 1.4-.09 1.95Z"/><path stroke="url(#r)" d="M53.53 108.08h.15v-.03h-.15zM2.03 56.03c.02.55.05 1.21.1 1.95.17 2.49.55 5.97 1.38 9.9 1.66 7.89 5.12 17.4 12.19 24.48 6.47 6.46 14.97 9.91 22.42 11.73 5.99 1.46 11.2 1.84 13.91 1.94-.02-.55-.05-1.21-.1-1.95-.17-2.49-.54-5.97-1.37-9.9-1.67-7.89-5.13-17.4-12.2-24.48-7.08-7.07-16.59-10.53-24.48-12.19-3.93-.83-7.41-1.21-9.9-1.38-.74-.05-1.4-.08-1.95-.1Zm0 104.06c.55-.02 1.21-.05 1.95-.1 2.49-.17 5.97-.54 9.9-1.37 7.89-1.67 17.4-5.12 24.48-12.2 7.07-7.07 10.53-16.59 12.2-24.48.83-3.93 1.2-7.4 1.37-9.89.05-.75.08-1.4.1-1.95-2.71.09-7.92.48-13.91 1.94-7.45 1.82-15.95 5.26-22.42 11.73-7.07 7.07-10.53 16.58-12.19 24.48-.83 3.92-1.21 7.4-1.38 9.89-.05.74-.08 1.4-.1 1.95Z"/><path stroke="url(#s)" d="M158.73 214.33c-2.71-.11-7.91-.53-13.89-2.02-7.45-1.87-15.93-5.36-22.36-11.86-7.03-7.12-10.43-16.65-12.05-24.55-.81-3.93-1.16-7.41-1.32-9.9-.04-.75-.07-1.4-.08-1.96.55.03 1.2.06 1.94.12 2.49.18 5.97.57 9.89 1.43 7.88 1.71 17.38 5.22 24.41 12.34 7.03 7.11 10.44 16.64 12.06 24.55.8 3.93 1.16 7.41 1.31 9.9.05.74.07 1.4.09 1.95Zm-.02 4.07c-.03.55-.06 1.2-.11 1.94-.19 2.49-.58 5.97-1.43 9.89-1.72 7.89-5.23 17.38-12.34 24.41-7.12 7.04-16.65 10.44-24.55 12.06-3.94.8-7.42 1.16-9.91 1.31-.74.05-1.4.07-1.95.09.03-.55.06-1.21.11-1.95.19-2.49.58-5.96 1.43-9.88 1.72-7.89 5.23-17.38 12.34-24.41 6.5-6.43 15.02-9.83 22.49-11.6 6-1.43 11.21-1.78 13.92-1.86Zm1.67-2.02c-.06.01-.11.01-.16.01v-.04l.16.01z"/></g><g stroke-width="4" filter="url(#t)"><path stroke="url(#u)" d="M107.53 54.27c-.05 0-.1 0-.15-.01v-.02c.05-.01.1-.01.15-.01zm51.5-52.05c-.02.55-.05 1.21-.1 1.95-.17 2.49-.54 5.97-1.37 9.9-1.67 7.89-5.13 17.4-12.2 24.48-6.46 6.46-14.96 9.91-22.42 11.73-5.99 1.46-11.19 1.84-13.91 1.93.02-.55.05-1.2.1-1.94.17-2.49.55-5.97 1.38-9.9 1.66-7.89 5.12-17.4 12.19-24.48 7.08-7.07 16.59-10.53 24.49-12.2 3.92-.83 7.4-1.2 9.89-1.37.74-.05 1.4-.08 1.95-.1Zm0 104.06c-.55-.02-1.21-.05-1.95-.1-2.49-.17-5.97-.54-9.89-1.37-7.9-1.67-17.41-5.13-24.49-12.2-7.07-7.08-10.53-16.59-12.19-24.48-.83-3.93-1.21-7.41-1.38-9.9-.05-.74-.08-1.39-.1-1.95 2.72.1 7.92.48 13.91 1.94 7.46 1.82 15.96 5.27 22.42 11.73 7.07 7.08 10.53 16.59 12.2 24.48.83 3.93 1.2 7.41 1.37 9.9.05.74.08 1.4.1 1.95Z"/><path stroke="url(#v)" d="M106.17 52.33a72 72 0 0 1-13.9-2.02c-7.44-1.87-15.92-5.36-22.35-11.86-7.03-7.12-10.43-16.65-12.05-24.55A71 71 0 0 1 56.55 4c-.05-.75-.07-1.4-.09-1.96.55.03 1.21.06 1.95.12 2.49.18 5.97.57 9.89 1.43 7.88 1.71 17.37 5.22 24.41 12.34 7.03 7.11 10.43 16.64 12.05 24.55.81 3.93 1.16 7.41 1.32 9.9.05.74.07 1.4.09 1.95Zm-.03 4.07c-.02.55-.05 1.2-.11 1.95-.18 2.48-.58 5.96-1.43 9.88-1.71 7.88-5.22 17.38-12.34 24.41-7.11 7.04-16.64 10.44-24.55 12.06-3.93.8-7.41 1.16-9.9 1.31-.74.05-1.4.07-1.95.09.02-.55.06-1.21.11-1.95.18-2.49.58-5.96 1.43-9.88 1.71-7.89 5.22-17.38 12.34-24.41 6.5-6.43 15.02-9.83 22.49-11.6a70.5 70.5 0 0 1 13.91-1.86Zm1.67-2.02c-.05.01-.1.01-.15.01v-.04l.15.01z"/><path stroke="url(#w)" d="M214.53 162.27c-.05-.01-.1-.01-.15-.01v-.02c.05 0 .1-.01.15-.01zm51.5-52.05c-.02.55-.05 1.21-.1 1.95-.17 2.49-.54 5.97-1.37 9.89-1.67 7.9-5.13 17.41-12.2 24.49-6.46 6.46-14.96 9.91-22.42 11.73a71 71 0 0 1-13.91 1.94c.02-.56.05-1.21.1-1.95.17-2.49.55-5.97 1.38-9.9 1.66-7.89 5.12-17.4 12.19-24.48 7.08-7.07 16.59-10.53 24.49-12.2 3.92-.83 7.4-1.2 9.89-1.37.74-.05 1.4-.08 1.95-.1Zm0 104.06c-.55-.02-1.21-.05-1.95-.1-2.49-.17-5.97-.54-9.89-1.37-7.9-1.67-17.41-5.13-24.49-12.2-7.07-7.08-10.53-16.59-12.19-24.48-.83-3.93-1.21-7.41-1.38-9.9-.05-.74-.08-1.39-.1-1.95 2.72.1 7.92.48 13.91 1.94 7.46 1.82 15.96 5.27 22.42 11.73 7.07 7.08 10.53 16.59 12.2 24.49.83 3.92 1.2 7.4 1.37 9.89.05.74.08 1.4.1 1.95Z"/><path stroke="url(#x)" d="M213.17 160.33c-2.71-.11-7.92-.53-13.9-2.02-7.44-1.87-15.92-5.36-22.35-11.86-7.03-7.12-10.43-16.65-12.05-24.55a71 71 0 0 1-1.32-9.9c-.05-.75-.07-1.4-.09-1.95.55.02 1.21.05 1.95.11 2.49.18 5.97.57 9.89 1.43 7.88 1.71 17.37 5.22 24.41 12.33 7.03 7.12 10.43 16.65 12.05 24.56a71 71 0 0 1 1.32 9.9c.05.74.07 1.4.09 1.95Zm-.03 4.07c-.02.55-.05 1.2-.11 1.94-.18 2.49-.57 5.97-1.43 9.89-1.71 7.89-5.22 17.38-12.34 24.41-7.11 7.04-16.64 10.44-24.55 12.06-3.93.8-7.41 1.16-9.9 1.31-.74.05-1.4.07-1.95.09.02-.55.06-1.2.11-1.95.18-2.49.58-5.96 1.43-9.88 1.72-7.89 5.23-17.38 12.34-24.41 6.5-6.43 15.02-9.83 22.49-11.6a70.5 70.5 0 0 1 13.91-1.86Zm1.67-2.02c-.05.01-.1.01-.15.01v-.04l.15.01z"/><path stroke="url(#y)" d="M214.53 270.27h-.15v-.03h.15zm51.5-52.04c-.02.55-.05 1.2-.1 1.95-.17 2.49-.54 5.96-1.37 9.89-1.67 7.9-5.12 17.41-12.2 24.48-6.46 6.47-14.96 9.91-22.42 11.73a71 71 0 0 1-13.9 1.94c.02-.55.05-1.21.09-1.95.17-2.49.55-5.96 1.38-9.89 1.67-7.9 5.12-17.41 12.2-24.48 7.07-7.08 16.58-10.53 24.48-12.2 3.93-.83 7.4-1.21 9.89-1.37.74-.05 1.4-.08 1.95-.1Zm0 104.05c-.55-.02-1.21-.04-1.95-.09-2.49-.17-5.96-.55-9.89-1.38-7.9-1.67-17.41-5.12-24.48-12.2-7.08-7.07-10.53-16.58-12.2-24.48-.83-3.92-1.21-7.4-1.38-9.89-.04-.74-.07-1.4-.09-1.95 2.71.1 7.91.48 13.9 1.94 7.46 1.82 15.96 5.27 22.42 11.73 7.08 7.08 10.53 16.59 12.2 24.48.83 3.93 1.2 7.4 1.37 9.89.05.75.08 1.4.1 1.95Z"/><path stroke="url(#z)" d="M374.03 110.03c-.02.55-.05 1.21-.1 1.95-.17 2.49-.54 5.97-1.37 9.9-1.67 7.89-5.13 17.4-12.2 24.48-6.46 6.45-15.07 9.89-22.65 11.69a73 73 0 0 1-13.62 1.9c.02-.54.04-1.19.09-1.92.17-2.49.53-5.96 1.36-9.88 1.65-7.87 5.09-17.37 12.16-24.45 7.08-7.07 16.59-10.53 24.49-12.19 3.92-.83 7.4-1.21 9.89-1.38.74-.05 1.4-.08 1.95-.1Z"/><path stroke="url(#A)" d="M321.54 162.08h.15v-.03c-.06 0-.11 0-.15-.01zm-51.5-52.05c.02.55.04 1.21.09 1.95.17 2.49.55 5.97 1.38 9.9 1.67 7.89 5.12 17.4 12.2 24.48 6.46 6.46 14.96 9.91 22.42 11.73a71 71 0 0 0 13.9 1.94c-.02-.55-.05-1.21-.1-1.95-.17-2.49-.54-5.97-1.37-9.89-1.67-7.9-5.12-17.41-12.2-24.49-7.07-7.07-16.59-10.53-24.48-12.19-3.93-.83-7.4-1.21-9.89-1.38-.75-.05-1.4-.08-1.95-.1Zm0 104.06c.55-.02 1.2-.05 1.95-.1 2.49-.17 5.96-.54 9.89-1.37 7.89-1.67 17.41-5.12 24.48-12.2 7.08-7.07 10.53-16.59 12.2-24.48.83-3.93 1.2-7.4 1.37-9.89.05-.75.08-1.4.1-1.95-2.71.09-7.92.48-13.9 1.94-7.46 1.82-15.96 5.26-22.42 11.73-7.08 7.07-10.53 16.58-12.2 24.48-.83 3.92-1.21 7.4-1.38 9.89-.05.74-.07 1.4-.09 1.95Z"/><path stroke="url(#B)" d="M53.53 108.08h.15v-.03h-.15zM2.03 56.03c.02.55.05 1.21.1 1.95.17 2.49.55 5.97 1.38 9.9 1.66 7.89 5.12 17.4 12.19 24.48 6.47 6.46 14.97 9.91 22.42 11.73 5.99 1.46 11.2 1.84 13.91 1.94-.02-.55-.05-1.21-.1-1.95-.17-2.49-.54-5.97-1.37-9.9-1.67-7.89-5.13-17.4-12.2-24.48-7.08-7.07-16.59-10.53-24.48-12.19-3.93-.83-7.41-1.21-9.9-1.38-.74-.05-1.4-.08-1.95-.1Zm0 104.06c.55-.02 1.21-.05 1.95-.1 2.49-.17 5.97-.54 9.9-1.37 7.89-1.67 17.4-5.12 24.48-12.2 7.07-7.07 10.53-16.59 12.2-24.48.83-3.93 1.2-7.4 1.37-9.89.05-.75.08-1.4.1-1.95-2.71.09-7.92.48-13.91 1.94-7.45 1.82-15.95 5.26-22.42 11.73-7.07 7.07-10.53 16.58-12.19 24.48-.83 3.92-1.21 7.4-1.38 9.89-.05.74-.08 1.4-.1 1.95Z"/><path stroke="url(#C)" d="M158.73 214.33c-2.71-.11-7.91-.53-13.89-2.02-7.45-1.87-15.93-5.36-22.36-11.86-7.03-7.12-10.43-16.65-12.05-24.55-.81-3.93-1.16-7.41-1.32-9.9-.04-.75-.07-1.4-.08-1.96.55.03 1.2.06 1.94.12 2.49.18 5.97.57 9.89 1.43 7.88 1.71 17.38 5.22 24.41 12.34 7.03 7.11 10.44 16.64 12.06 24.55.8 3.93 1.16 7.41 1.31 9.9.05.74.07 1.4.09 1.95Zm-.02 4.07c-.03.55-.06 1.2-.11 1.94-.19 2.49-.58 5.97-1.43 9.89-1.72 7.89-5.23 17.38-12.34 24.41-7.12 7.04-16.65 10.44-24.55 12.06-3.94.8-7.42 1.16-9.91 1.31-.74.05-1.4.07-1.95.09.03-.55.06-1.21.11-1.95.19-2.49.58-5.96 1.43-9.88 1.72-7.89 5.23-17.38 12.34-24.41 6.5-6.43 15.02-9.83 22.49-11.6 6-1.43 11.21-1.78 13.92-1.86Zm1.67-2.02c-.06.01-.11.01-.16.01v-.04l.16.01z"/></g></g><defs><linearGradient id="a" x1="134.03" x2="134.03" y1=".19" y2="108.31" gradientUnits="userSpaceOnUse"><stop stop-color="#fcf0d6"/><stop offset="1" stop-color="#ffc446"/></linearGradient><linearGradient id="b" x1="81.47" x2="80.85" y1=".16" y2="108.28" gradientUnits="userSpaceOnUse"><stop stop-color="#fcf0d6"/><stop offset="1" stop-color="#ffc446"/></linearGradient><linearGradient id="c" x1="241.03" x2="241.03" y1="108.19" y2="216.31" gradientUnits="userSpaceOnUse"><stop stop-color="#fcf0d6"/><stop offset="1" stop-color="#ffc446"/></linearGradient><linearGradient id="d" x1="188.47" x2="187.85" y1="108.16" y2="216.28" gradientUnits="userSpaceOnUse"><stop stop-color="#fcf0d6"/><stop offset="1" stop-color="#ffc446"/></linearGradient><linearGradient id="e" x1="241.03" x2="241.03" y1="216.19" y2="324.32" gradientUnits="userSpaceOnUse"><stop stop-color="#fcf0d6"/><stop offset="1" stop-color="#ffc446"/></linearGradient><linearGradient id="f" x1="349.06" x2="349.06" y1="108" y2="162" gradientUnits="userSpaceOnUse"><stop stop-color="#fcf0d6"/><stop offset="1" stop-color="#ffc446"/></linearGradient><linearGradient id="g" x1="295.03" x2="295.03" y1="108" y2="216.13" gradientUnits="userSpaceOnUse"><stop stop-color="#fcf0d6"/><stop offset="1" stop-color="#ffc446"/></linearGradient><linearGradient id="h" x1="27.03" x2="27.03" y1="54" y2="162.13" gradientUnits="userSpaceOnUse"><stop stop-color="#fcf0d6"/><stop offset="1" stop-color="#ffc446"/></linearGradient><linearGradient id="i" x1="134.03" x2="133.41" y1="162.16" y2="270.28" gradientUnits="userSpaceOnUse"><stop stop-color="#fcf0d6"/><stop offset="1" stop-color="#ffc446"/></linearGradient><linearGradient id="k" x1="134.03" x2="134.03" y1=".19" y2="108.31" gradientUnits="userSpaceOnUse"><stop stop-color="#ffc446"/><stop offset="1" stop-color="#fcf0d6"/></linearGradient><linearGradient id="l" x1="81.47" x2="80.85" y1=".16" y2="108.28" gradientUnits="userSpaceOnUse"><stop stop-color="#ffc446"/><stop offset="1" stop-color="#fcf0d6"/></linearGradient><linearGradient id="m" x1="241.03" x2="241.03" y1="108.19" y2="216.31" gradientUnits="userSpaceOnUse"><stop stop-color="#ffc446"/><stop offset="1" stop-color="#fcf0d6"/></linearGradient><linearGradient id="n" x1="188.47" x2="187.85" y1="108.16" y2="216.28" gradientUnits="userSpaceOnUse"><stop stop-color="#ffc446"/><stop offset="1" stop-color="#fcf0d6"/></linearGradient><linearGradient id="o" x1="241.03" x2="241.03" y1="216.19" y2="324.32" gradientUnits="userSpaceOnUse"><stop stop-color="#ffc446"/><stop offset="1" stop-color="#fcf0d6"/></linearGradient><linearGradient id="p" x1="349.06" x2="349.06" y1="108" y2="162" gradientUnits="userSpaceOnUse"><stop stop-color="#ffc446"/><stop offset="1" stop-color="#fcf0d6"/></linearGradient><linearGradient id="q" x1="295.03" x2="295.03" y1="108" y2="216.13" gradientUnits="userSpaceOnUse"><stop stop-color="#ffc446"/><stop offset="1" stop-color="#fcf0d6"/></linearGradient><linearGradient id="r" x1="27.03" x2="27.03" y1="54" y2="162.13" gradientUnits="userSpaceOnUse"><stop stop-color="#ffc446"/><stop offset="1" stop-color="#fcf0d6"/></linearGradient><linearGradient id="s" x1="134.03" x2="133.41" y1="162.16" y2="270.28" gradientUnits="userSpaceOnUse"><stop stop-color="#ffc446"/><stop offset="1" stop-color="#fcf0d6"/></linearGradient><linearGradient id="u" x1="134.03" x2="134.03" y1=".19" y2="108.31" gradientUnits="userSpaceOnUse"><stop stop-color="#ffc446"/><stop offset="1" stop-color="#fcf0d6"/></linearGradient><linearGradient id="v" x1="81.47" x2="80.85" y1=".16" y2="108.28" gradientUnits="userSpaceOnUse"><stop stop-color="#ffc446"/><stop offset="1" stop-color="#fcf0d6"/></linearGradient><linearGradient id="w" x1="241.03" x2="241.03" y1="108.19" y2="216.31" gradientUnits="userSpaceOnUse"><stop stop-color="#ffc446"/><stop offset="1" stop-color="#fcf0d6"/></linearGradient><linearGradient id="x" x1="188.47" x2="187.85" y1="108.16" y2="216.28" gradientUnits="userSpaceOnUse"><stop stop-color="#ffc446"/><stop offset="1" stop-color="#fcf0d6"/></linearGradient><linearGradient id="y" x1="241.03" x2="241.03" y1="216.19" y2="324.32" gradientUnits="userSpaceOnUse"><stop stop-color="#ffc446"/><stop offset="1" stop-color="#fcf0d6"/></linearGradient><linearGradient id="z" x1="349.06" x2="349.06" y1="108" y2="162" gradientUnits="userSpaceOnUse"><stop stop-color="#ffc446"/><stop offset="1" stop-color="#fcf0d6"/></linearGradient><linearGradient id="A" x1="295.03" x2="295.03" y1="108" y2="216.13" gradientUnits="userSpaceOnUse"><stop stop-color="#ffc446"/><stop offset="1" stop-color="#fcf0d6"/></linearGradient><linearGradient id="B" x1="27.03" x2="27.03" y1="54" y2="162.13" gradientUnits="userSpaceOnUse"><stop stop-color="#ffc446"/><stop offset="1" stop-color="#fcf0d6"/></linearGradient><linearGradient id="C" x1="134.03" x2="133.41" y1="162.16" y2="270.28" gradientUnits="userSpaceOnUse"><stop stop-color="#ffc446"/><stop offset="1" stop-color="#fcf0d6"/></linearGradient><filter id="j" width="376.06" height="325.12" x="0" y="-.8" color-interpolation-filters="sRGB" filterUnits="userSpaceOnUse"><feFlood flood-opacity="0" result="BackgroundImageFix"/><feBlend in="SourceGraphic" in2="BackgroundImageFix" result="shape"/><feColorMatrix in="SourceAlpha" result="hardAlpha" values="0 0 0 0 0 0 0 0 0 0 0 0 0 0 0 0 0 0 127 0"/><feOffset dy="-1"/><feGaussianBlur stdDeviation=".4"/><feComposite in2="hardAlpha" k2="-1" k3="1" operator="arithmetic"/><feColorMatrix values="0 0 0 0 0.98 0 0 0 0 0.52 0 0 0 0 0.00 0 0 0 1 0"/><feBlend in2="shape" result="effect1_innerShadow_24_10610"/><feColorMatrix in="SourceAlpha" result="hardAlpha" values="0 0 0 0 0 0 0 0 0 0 0 0 0 0 0 0 0 0 127 0"/><feOffset dy="1"/><feComposite in2="hardAlpha" k2="-1" k3="1" operator="arithmetic"/><feColorMatrix values="0 0 0 0 1 0 0 0 0 1 0 0 0 0 1 0 0 0 1 0"/><feBlend in2="effect1_innerShadow_24_10610" result="effect2_innerShadow_24_10610"/></filter><filter id="t" width="376.06" height="325.12" x="0" y="-.8" color-interpolation-filters="sRGB" filterUnits="userSpaceOnUse"><feFlood flood-opacity="0" result="BackgroundImageFix"/><feBlend in="SourceGraphic" in2="BackgroundImageFix" result="shape"/><feColorMatrix in="SourceAlpha" result="hardAlpha" values="0 0 0 0 0 0 0 0 0 0 0 0 0 0 0 0 0 0 127 0"/><feOffset dy="-1"/><feGaussianBlur stdDeviation=".4"/><feComposite in2="hardAlpha" k2="-1" k3="1" operator="arithmetic"/><feColorMatrix values="0 0 0 0 0.98 0 0 0 0 0.52 0 0 0 0 0.00 0 0 0 1 0"/><feBlend in2="shape" result="effect1_innerShadow_24_10610"/><feColorMatrix in="SourceAlpha" result="hardAlpha" values="0 0 0 0 0 0 0 0 0 0 0 0 0 0 0 0 0 0 127 0"/><feOffset dy="1"/><feComposite in2="hardAlpha" k2="-1" k3="1" operator="arithmetic"/><feColorMatrix values="0 0 0 0 1 0 0 0 0 1 0 0 0 0 1 0 0 0 1 0"/><feBlend in2="effect1_innerShadow_24_10610" result="effect2_innerShadow_24_10610"/></filter></defs></svg>