<svg width="377" height="325" viewBox="0 0 377 325" fill="none" xmlns="http://www.w3.org/2000/svg">
<g opacity="0.35">
<g opacity="0.6">
<path fill-rule="evenodd" clip-rule="evenodd" d="M254.772 309.841C239.846 324.768 215.004 324.127 215.004 324.127C215.004 324.127 214.363 299.285 229.29 284.358C242.933 270.715 264.86 270.077 268.53 270.068C264.86 270.059 242.933 269.422 229.29 255.778C214.363 240.852 215.004 216.01 215.004 216.01C215.004 216.01 239.846 215.369 254.772 230.296C269.699 245.223 269.058 270.064 269.058 270.064C269.058 270.064 268.93 270.068 268.688 270.068C268.93 270.069 269.058 270.072 269.058 270.072C269.058 270.072 269.699 294.914 254.772 309.841Z" fill="url(#paint0_linear_24_5411)"/>
<path fill-rule="evenodd" clip-rule="evenodd" d="M322.244 216.2C322.244 216.2 297.406 215.415 282.393 230.255C267.38 245.095 267.877 269.94 267.877 269.94C267.877 269.94 268.005 269.945 268.248 269.947C268.146 269.946 268.064 269.946 268.003 269.947C267.92 269.947 267.877 269.948 267.877 269.948C267.877 269.948 267.093 294.786 281.933 309.799C296.773 324.812 321.618 324.315 321.618 324.315C321.618 324.315 322.403 299.477 307.563 284.464C293.998 270.742 272.076 269.977 268.406 269.947C272.076 269.96 294.006 269.449 307.728 255.885C322.741 241.045 322.244 216.2 322.244 216.2Z" fill="url(#paint1_linear_24_5411)"/>
<path fill-rule="evenodd" clip-rule="evenodd" d="M147.772 201.841C132.846 216.768 108.004 216.127 108.004 216.127C108.004 216.127 107.363 191.285 122.29 176.358C135.933 162.715 157.86 162.077 161.53 162.068C157.86 162.059 135.933 161.422 122.29 147.778C107.363 132.852 108.004 108.01 108.004 108.01C108.004 108.01 132.846 107.369 147.772 122.296C162.699 137.223 162.058 162.064 162.058 162.064C162.058 162.064 161.93 162.068 161.688 162.068C161.93 162.069 162.058 162.072 162.058 162.072C162.058 162.072 162.699 186.914 147.772 201.841Z" fill="url(#paint2_linear_24_5411)"/>
<path fill-rule="evenodd" clip-rule="evenodd" d="M215.244 108.2C215.244 108.2 190.406 107.415 175.393 122.255C160.38 137.095 160.877 161.94 160.877 161.94C160.877 161.94 161.005 161.945 161.248 161.947C161.146 161.946 161.064 161.946 161.003 161.947C160.92 161.947 160.877 161.948 160.877 161.948C160.877 161.948 160.093 186.786 174.933 201.799C189.773 216.812 214.618 216.315 214.618 216.315C214.618 216.315 215.403 191.477 200.563 176.464C186.998 162.742 165.076 161.977 161.406 161.947C165.076 161.96 187.006 161.449 200.728 147.885C215.741 133.045 215.244 108.2 215.244 108.2Z" fill="url(#paint3_linear_24_5411)"/>
<path fill-rule="evenodd" clip-rule="evenodd" d="M147.77 93.8352C132.843 108.762 108.002 108.121 108.002 108.121C108.002 108.121 107.361 83.2791 122.288 68.3526C135.931 54.7088 157.858 54.0711 161.528 54.0626C157.858 54.0536 135.931 53.4158 122.288 39.7726C107.361 24.8458 108.002 0.00414276 108.002 0.00414276C108.002 0.00414276 132.843 -0.637093 147.77 14.2901C162.697 29.2169 162.056 54.0586 162.056 54.0586C162.056 54.0586 161.928 54.0621 161.685 54.0626C161.928 54.0631 162.056 54.0666 162.056 54.0666C162.056 54.0666 162.697 78.9083 147.77 93.8352Z" fill="url(#paint4_linear_24_5411)"/>
<path d="M0.00400536 216.314C0.00400536 216.314 24.8457 216.955 39.7724 202.029C54.6992 187.102 54 162.318 54 162.318C50.3303 162.327 27.9333 162.902 14.29 176.546C-0.636738 191.472 0.00400536 216.314 0.00400536 216.314Z" fill="url(#paint5_linear_24_5411)"/>
<path fill-rule="evenodd" clip-rule="evenodd" d="M68.2883 202.029C83.215 216.955 108.057 216.314 108.057 216.314C108.057 216.314 108.697 191.472 93.7707 176.546C80.1275 162.902 58.2006 162.264 54.5309 162.256C58.2006 162.247 80.1275 161.609 93.7707 147.966C108.697 133.039 108.057 108.198 108.057 108.198C108.057 108.198 83.215 107.556 68.2883 122.484C53.3616 137.41 54.0023 162.252 54.0023 162.252C54.0023 162.252 54.1304 162.255 54.3732 162.256C54.1304 162.256 54.0023 162.26 54.0023 162.26C54.0023 162.26 53.3616 187.102 68.2883 202.029Z" fill="url(#paint6_linear_24_5411)"/>
<path fill-rule="evenodd" clip-rule="evenodd" d="M336.29 256.029C351.217 270.955 376.058 270.314 376.058 270.314C376.058 270.314 376.699 245.472 361.772 230.546C348.129 216.902 326.202 216.264 322.533 216.256C326.202 216.247 348.129 215.609 361.772 201.966C376.699 187.039 376.058 162.198 376.058 162.198C376.058 162.198 351.217 161.556 336.29 176.484C321.363 191.41 322.004 216.252 322.004 216.252C322.004 216.252 322.132 216.255 322.375 216.256C322.132 216.256 322.004 216.26 322.004 216.26C322.004 216.26 321.363 241.102 336.29 256.029Z" fill="url(#paint7_linear_24_5411)"/>
<path fill-rule="evenodd" clip-rule="evenodd" d="M269.681 54.199C269.681 54.199 244.843 53.4141 229.83 68.2547C214.818 83.0949 215.315 107.94 215.315 107.94C215.315 107.94 215.443 107.944 215.686 107.946C215.583 107.945 215.501 107.946 215.44 107.946C215.357 107.947 215.315 107.948 215.315 107.948C215.315 107.948 214.53 132.785 229.37 147.798C244.211 162.811 269.056 162.314 269.056 162.314C269.056 162.314 269.84 137.476 255 122.464C241.436 108.741 219.513 107.977 215.844 107.947C219.513 107.959 241.443 107.448 255.165 93.8842C270.178 79.044 269.681 54.199 269.681 54.199Z" fill="url(#paint8_linear_24_5411)"/>
</g>
<g filter="url(#filter0_ii_24_5411)">
<path d="M268.534 270.052C268.582 270.053 268.632 270.053 268.684 270.055V270.082C268.632 270.083 268.582 270.085 268.534 270.086V270.052ZM217.033 322.098C217.053 321.546 217.083 320.891 217.133 320.146C217.301 317.656 217.676 314.18 218.506 310.253C220.173 302.359 223.629 292.847 230.704 285.772C237.168 279.309 245.668 275.863 253.124 274.043C259.113 272.581 264.317 272.2 267.028 272.104C267.009 272.654 266.98 273.309 266.93 274.053C266.761 276.543 266.385 280.019 265.556 283.946C263.888 291.84 260.433 301.352 253.358 308.427C246.283 315.502 236.771 318.958 228.877 320.625C224.95 321.454 221.474 321.83 218.984 321.998C218.24 322.048 217.585 322.078 217.033 322.098ZM217.033 218.04C217.585 218.06 218.24 218.088 218.984 218.139C221.474 218.307 224.95 218.682 228.877 219.512C236.771 221.179 246.283 224.635 253.358 231.71C260.434 238.785 263.888 248.297 265.556 256.191C266.385 260.119 266.761 263.595 266.93 266.085C266.98 266.829 267.009 267.483 267.028 268.034C264.317 267.937 259.113 267.555 253.124 266.094C245.668 264.274 237.168 260.828 230.704 254.364C223.629 247.289 220.173 237.778 218.506 229.884C217.676 225.957 217.301 222.48 217.133 219.99C217.083 219.246 217.053 218.591 217.033 218.04Z" stroke="url(#paint9_linear_24_5411)" stroke-width="4"/>
<path d="M269.895 271.991C272.605 272.104 277.808 272.515 283.789 274.011C291.234 275.874 299.714 279.369 306.14 285.87C313.174 292.986 316.574 302.517 318.196 310.421C319.002 314.352 319.359 317.831 319.513 320.322C319.559 321.067 319.583 321.722 319.6 322.274C319.049 322.251 318.394 322.217 317.65 322.163C315.161 321.98 311.687 321.585 307.765 320.733C299.881 319.02 290.39 315.509 283.355 308.393C276.321 301.277 272.92 291.746 271.299 283.842C270.492 279.91 270.137 276.432 269.983 273.941C269.937 273.197 269.911 272.542 269.895 271.991ZM269.918 267.922C269.941 267.371 269.975 266.717 270.029 265.973C270.212 263.484 270.607 260.01 271.459 256.088C273.172 248.204 276.683 238.712 283.799 231.677C290.915 224.643 300.446 221.242 308.35 219.621C312.282 218.814 315.76 218.459 318.251 218.305C318.995 218.259 319.651 218.234 320.202 218.218C320.179 218.769 320.146 219.424 320.092 220.167C319.909 222.656 319.513 226.13 318.661 230.053C316.948 237.937 313.438 247.428 306.322 254.462C299.821 260.889 291.301 264.285 283.835 266.062C277.837 267.489 272.63 267.841 269.918 267.922ZM268.25 269.934C268.303 269.933 268.353 269.931 268.402 269.93L268.402 269.965L268.249 269.96L268.25 269.934Z" stroke="url(#paint10_linear_24_5411)" stroke-width="4"/>
<path d="M161.534 162.052C161.582 162.053 161.632 162.053 161.684 162.055V162.082C161.632 162.083 161.582 162.085 161.534 162.086V162.052ZM110.033 214.098C110.053 213.546 110.083 212.891 110.133 212.146C110.301 209.656 110.676 206.18 111.506 202.253C113.173 194.359 116.629 184.847 123.704 177.772C130.168 171.309 138.668 167.863 146.124 166.043C152.113 164.581 157.317 164.2 160.028 164.104C160.009 164.654 159.98 165.309 159.93 166.053C159.761 168.543 159.385 172.019 158.556 175.946C156.888 183.84 153.433 193.352 146.358 200.427C139.283 207.502 129.771 210.958 121.877 212.625C117.95 213.454 114.474 213.83 111.984 213.998C111.24 214.048 110.585 214.078 110.033 214.098ZM110.033 110.04C110.585 110.06 111.24 110.088 111.984 110.139C114.474 110.307 117.95 110.682 121.877 111.512C129.771 113.179 139.283 116.635 146.358 123.71C153.434 130.785 156.888 140.297 158.556 148.191C159.385 152.119 159.761 155.595 159.93 158.085C159.98 158.829 160.009 159.483 160.028 160.034C157.317 159.937 152.113 159.555 146.124 158.094C138.668 156.274 130.168 152.828 123.704 146.364C116.629 139.289 113.173 129.778 111.506 121.884C110.676 117.957 110.301 114.48 110.133 111.99C110.083 111.246 110.053 110.591 110.033 110.04Z" stroke="url(#paint11_linear_24_5411)" stroke-width="4"/>
<path d="M162.895 163.991C165.605 164.104 170.808 164.515 176.789 166.011C184.234 167.874 192.714 171.369 199.14 177.87C206.174 184.986 209.574 194.517 211.196 202.421C212.002 206.352 212.359 209.831 212.513 212.322C212.559 213.067 212.583 213.722 212.6 214.274C212.049 214.251 211.394 214.217 210.65 214.163C208.161 213.98 204.687 213.585 200.765 212.733C192.881 211.02 183.39 207.509 176.355 200.393C169.321 193.277 165.92 183.746 164.299 175.842C163.492 171.91 163.137 168.432 162.983 165.941C162.937 165.197 162.911 164.542 162.895 163.991ZM162.918 159.922C162.941 159.371 162.975 158.717 163.029 157.973C163.212 155.484 163.607 152.01 164.459 148.088C166.172 140.204 169.683 130.712 176.799 123.677C183.915 116.643 193.446 113.242 201.35 111.621C205.282 110.814 208.76 110.459 211.251 110.305C211.995 110.259 212.651 110.234 213.202 110.218C213.179 110.769 213.146 111.424 213.092 112.167C212.909 114.656 212.513 118.13 211.661 122.053C209.948 129.937 206.438 139.428 199.322 146.462C192.821 152.889 184.301 156.285 176.835 158.062C170.837 159.489 165.63 159.841 162.918 159.922ZM161.25 161.934C161.303 161.933 161.353 161.931 161.402 161.93L161.402 161.965L161.249 161.96L161.25 161.934Z" stroke="url(#paint12_linear_24_5411)" stroke-width="4"/>
<path d="M161.532 54.0459C161.58 54.0471 161.63 54.0475 161.681 54.0488V54.0762C161.63 54.0775 161.58 54.0788 161.532 54.0801V54.0459ZM110.031 106.092C110.051 105.54 110.08 104.885 110.131 104.141C110.299 101.651 110.674 98.1742 111.504 94.2471C113.171 86.3531 116.627 76.8416 123.702 69.7666C130.166 63.3027 138.666 59.8568 146.122 58.0371C152.111 56.5756 157.315 56.1945 160.026 56.0977C160.006 56.6486 159.978 57.3034 159.927 58.0469C159.759 60.537 159.383 64.0133 158.553 67.9404C156.886 75.8343 153.431 85.3457 146.356 92.4209C139.281 99.4961 129.769 102.952 121.875 104.619C117.948 105.448 114.472 105.824 111.982 105.992C111.238 106.042 110.582 106.072 110.031 106.092ZM110.031 2.03418C110.582 2.05388 111.238 2.08252 111.982 2.13281C114.472 2.30108 117.948 2.67658 121.875 3.50586C129.769 5.17296 139.281 8.62867 146.356 15.7041C153.431 22.7793 156.886 32.2915 158.553 40.1855C159.383 44.1128 159.759 47.589 159.927 50.0791C159.978 50.8227 160.006 51.4773 160.026 52.0283C157.315 51.9313 152.11 51.5494 146.122 50.0879C138.666 48.2682 130.166 44.8221 123.702 38.3584C116.627 31.2833 113.171 21.7719 111.504 13.8779C110.674 9.95074 110.299 6.47447 110.131 3.98438C110.08 3.24046 110.051 2.58531 110.031 2.03418Z" stroke="url(#paint13_linear_24_5411)" stroke-width="4"/>
<path d="M2.0332 214.285C2.05291 213.734 2.08251 213.078 2.13281 212.334C2.30112 209.844 2.67647 206.368 3.50586 202.44C5.17305 194.546 8.62899 185.035 15.7041 177.96C22.1607 171.503 30.7699 168.071 38.3486 166.265C44.0775 164.899 49.1116 164.489 51.9746 164.368C51.9561 164.914 51.928 165.56 51.8799 166.293C51.7169 168.777 51.3485 172.246 50.5264 176.165C48.8739 184.043 45.433 193.539 38.3584 200.614C31.2832 207.689 21.771 211.145 13.877 212.812C9.95005 213.642 6.47435 214.017 3.98438 214.186C3.24008 214.236 2.58451 214.265 2.0332 214.285Z" stroke="url(#paint14_linear_24_5411)" stroke-width="4"/>
<path d="M54.5266 162.239C54.4783 162.24 54.4285 162.241 54.3771 162.242V162.27C54.4286 162.271 54.4783 162.272 54.5266 162.273V162.239ZM106.028 214.285C106.008 213.734 105.978 213.078 105.928 212.334C105.76 209.844 105.384 206.368 104.555 202.44C102.888 194.546 99.4317 185.035 92.3566 177.96C85.8929 171.496 77.3928 168.05 69.9367 166.23C63.948 164.769 58.7434 164.388 56.0324 164.291C56.0521 164.842 56.0808 165.497 56.131 166.24C56.2994 168.73 56.6757 172.207 57.5051 176.134C59.1723 184.028 62.6274 193.539 69.7023 200.614C76.7775 207.689 86.2898 211.145 94.1838 212.812C98.1107 213.642 101.586 214.017 104.076 214.186C104.821 214.236 105.476 214.265 106.028 214.285ZM106.028 110.228C105.476 110.247 104.821 110.276 104.076 110.326C101.586 110.494 98.1107 110.87 94.1838 111.699C86.2898 113.366 76.7775 116.822 69.7023 123.897C62.6271 130.973 59.1722 140.485 57.5051 148.379C56.6757 152.306 56.2993 155.782 56.131 158.272C56.0808 159.016 56.0521 159.671 56.0324 160.222C58.7436 160.125 63.9481 159.743 69.9367 158.281C77.3928 156.462 85.8929 153.015 92.3566 146.552C99.4317 139.477 102.888 129.965 104.555 122.071C105.384 118.144 105.76 114.668 105.928 112.178C105.978 111.434 106.008 110.779 106.028 110.228Z" stroke="url(#paint15_linear_24_5411)" stroke-width="4"/>
<path d="M322.528 216.239C322.48 216.24 322.43 216.241 322.379 216.242V216.27C322.43 216.271 322.48 216.272 322.528 216.273V216.239ZM374.029 268.285C374.009 267.734 373.98 267.078 373.93 266.334C373.761 263.844 373.386 260.368 372.557 256.44C370.889 248.546 367.433 239.035 360.358 231.96C353.895 225.496 345.394 222.05 337.938 220.23C331.95 218.769 326.745 218.388 324.034 218.291C324.054 218.842 324.082 219.497 324.133 220.24C324.301 222.73 324.677 226.207 325.507 230.134C327.174 238.028 330.629 247.539 337.704 254.614C344.779 261.689 354.291 265.145 362.185 266.812C366.112 267.642 369.588 268.017 372.078 268.186C372.822 268.236 373.478 268.265 374.029 268.285ZM374.029 164.228C373.478 164.247 372.822 164.276 372.078 164.326C369.588 164.494 366.112 164.87 362.185 165.699C354.291 167.366 344.779 170.822 337.704 177.897C330.629 184.973 327.174 194.485 325.507 202.379C324.677 206.306 324.301 209.782 324.133 212.272C324.082 213.016 324.054 213.671 324.034 214.222C326.745 214.125 331.95 213.743 337.938 212.281C345.394 210.462 353.895 207.015 360.358 200.552C367.433 193.477 370.889 183.965 372.557 176.071C373.386 172.144 373.761 168.668 373.93 166.178C373.98 165.434 374.009 164.779 374.029 164.228Z" stroke="url(#paint16_linear_24_5411)" stroke-width="4"/>
<path d="M217.332 109.991C220.042 110.103 225.245 110.514 231.226 112.011C238.671 113.873 247.152 117.368 253.578 123.87C260.612 130.985 264.012 140.517 265.633 148.42C266.44 152.352 266.796 155.83 266.95 158.321C266.996 159.066 267.021 159.722 267.037 160.273C266.486 160.25 265.831 160.217 265.088 160.162C262.599 159.98 259.125 159.584 255.202 158.732C247.318 157.019 237.827 153.508 230.793 146.392C223.759 139.276 220.358 129.745 218.736 121.842C217.93 117.91 217.574 114.431 217.421 111.94C217.375 111.197 217.349 110.542 217.332 109.991ZM217.356 105.921C217.379 105.371 217.412 104.716 217.467 103.973C217.649 101.484 218.045 98.0097 218.897 94.0873C220.61 86.2031 224.121 76.711 231.237 69.6769C238.353 62.6427 247.884 59.2419 255.787 57.6204C259.719 56.8138 263.197 56.4585 265.688 56.3046C266.433 56.2587 267.088 56.2338 267.639 56.2173C267.616 56.7683 267.584 57.4233 267.529 58.1669C267.347 60.656 266.95 64.13 266.098 68.0523C264.385 75.9364 260.875 85.4278 253.759 92.4618C247.258 98.8881 238.738 102.285 231.272 104.061C225.274 105.488 220.067 105.84 217.356 105.921ZM215.688 107.933C215.74 107.932 215.79 107.93 215.839 107.929L215.839 107.964L215.687 107.96L215.688 107.933Z" stroke="url(#paint17_linear_24_5411)" stroke-width="4"/>
</g>
<g filter="url(#filter1_ii_24_5411)">
<path d="M268.534 270.052C268.582 270.053 268.632 270.053 268.684 270.055V270.082C268.632 270.083 268.582 270.085 268.534 270.086V270.052ZM217.033 322.098C217.053 321.546 217.083 320.891 217.133 320.146C217.301 317.656 217.676 314.18 218.506 310.253C220.173 302.359 223.629 292.847 230.704 285.772C237.168 279.309 245.668 275.863 253.124 274.043C259.113 272.581 264.317 272.2 267.028 272.104C267.009 272.654 266.98 273.309 266.93 274.053C266.761 276.543 266.385 280.019 265.556 283.946C263.888 291.84 260.433 301.352 253.358 308.427C246.283 315.502 236.771 318.958 228.877 320.625C224.95 321.454 221.474 321.83 218.984 321.998C218.24 322.048 217.585 322.078 217.033 322.098ZM217.033 218.04C217.585 218.06 218.24 218.088 218.984 218.139C221.474 218.307 224.95 218.682 228.877 219.512C236.771 221.179 246.283 224.635 253.358 231.71C260.434 238.785 263.888 248.297 265.556 256.191C266.385 260.119 266.761 263.595 266.93 266.085C266.98 266.829 267.009 267.483 267.028 268.034C264.317 267.937 259.113 267.555 253.124 266.094C245.668 264.274 237.168 260.828 230.704 254.364C223.629 247.289 220.173 237.778 218.506 229.884C217.676 225.957 217.301 222.48 217.133 219.99C217.083 219.246 217.053 218.591 217.033 218.04Z" stroke="url(#paint18_linear_24_5411)" stroke-width="4"/>
<path d="M269.895 271.991C272.605 272.104 277.808 272.515 283.789 274.011C291.234 275.874 299.714 279.369 306.14 285.87C313.174 292.986 316.574 302.517 318.196 310.421C319.002 314.352 319.359 317.831 319.513 320.322C319.559 321.067 319.583 321.722 319.6 322.274C319.049 322.251 318.394 322.217 317.65 322.163C315.161 321.98 311.687 321.585 307.765 320.733C299.881 319.02 290.39 315.509 283.355 308.393C276.321 301.277 272.92 291.746 271.299 283.842C270.492 279.91 270.137 276.432 269.983 273.941C269.937 273.197 269.911 272.542 269.895 271.991ZM269.918 267.922C269.941 267.371 269.975 266.717 270.029 265.973C270.212 263.484 270.607 260.01 271.459 256.088C273.172 248.204 276.683 238.712 283.799 231.677C290.915 224.643 300.446 221.242 308.35 219.621C312.282 218.814 315.76 218.459 318.251 218.305C318.995 218.259 319.651 218.234 320.202 218.218C320.179 218.769 320.146 219.424 320.092 220.167C319.909 222.656 319.513 226.13 318.661 230.053C316.948 237.937 313.438 247.428 306.322 254.462C299.821 260.889 291.301 264.285 283.835 266.062C277.837 267.489 272.63 267.841 269.918 267.922ZM268.25 269.934C268.303 269.933 268.353 269.931 268.402 269.93L268.402 269.965L268.249 269.96L268.25 269.934Z" stroke="url(#paint19_linear_24_5411)" stroke-width="4"/>
<path d="M161.534 162.052C161.582 162.053 161.632 162.053 161.684 162.055V162.082C161.632 162.083 161.582 162.085 161.534 162.086V162.052ZM110.033 214.098C110.053 213.546 110.083 212.891 110.133 212.146C110.301 209.656 110.676 206.18 111.506 202.253C113.173 194.359 116.629 184.847 123.704 177.772C130.168 171.309 138.668 167.863 146.124 166.043C152.113 164.581 157.317 164.2 160.028 164.104C160.009 164.654 159.98 165.309 159.93 166.053C159.761 168.543 159.385 172.019 158.556 175.946C156.888 183.84 153.433 193.352 146.358 200.427C139.283 207.502 129.771 210.958 121.877 212.625C117.95 213.454 114.474 213.83 111.984 213.998C111.24 214.048 110.585 214.078 110.033 214.098ZM110.033 110.04C110.585 110.06 111.24 110.088 111.984 110.139C114.474 110.307 117.95 110.682 121.877 111.512C129.771 113.179 139.283 116.635 146.358 123.71C153.434 130.785 156.888 140.297 158.556 148.191C159.385 152.119 159.761 155.595 159.93 158.085C159.98 158.829 160.009 159.483 160.028 160.034C157.317 159.937 152.113 159.555 146.124 158.094C138.668 156.274 130.168 152.828 123.704 146.364C116.629 139.289 113.173 129.778 111.506 121.884C110.676 117.957 110.301 114.48 110.133 111.99C110.083 111.246 110.053 110.591 110.033 110.04Z" stroke="url(#paint20_linear_24_5411)" stroke-width="4"/>
<path d="M162.895 163.991C165.605 164.104 170.808 164.515 176.789 166.011C184.234 167.874 192.714 171.369 199.14 177.87C206.174 184.986 209.574 194.517 211.196 202.421C212.002 206.352 212.359 209.831 212.513 212.322C212.559 213.067 212.583 213.722 212.6 214.274C212.049 214.251 211.394 214.217 210.65 214.163C208.161 213.98 204.687 213.585 200.765 212.733C192.881 211.02 183.39 207.509 176.355 200.393C169.321 193.277 165.92 183.746 164.299 175.842C163.492 171.91 163.137 168.432 162.983 165.941C162.937 165.197 162.911 164.542 162.895 163.991ZM162.918 159.922C162.941 159.371 162.975 158.717 163.029 157.973C163.212 155.484 163.607 152.01 164.459 148.088C166.172 140.204 169.683 130.712 176.799 123.677C183.915 116.643 193.446 113.242 201.35 111.621C205.282 110.814 208.76 110.459 211.251 110.305C211.995 110.259 212.651 110.234 213.202 110.218C213.179 110.769 213.146 111.424 213.092 112.167C212.909 114.656 212.513 118.13 211.661 122.053C209.948 129.937 206.438 139.428 199.322 146.462C192.821 152.889 184.301 156.285 176.835 158.062C170.837 159.489 165.63 159.841 162.918 159.922ZM161.25 161.934C161.303 161.933 161.353 161.931 161.402 161.93L161.402 161.965L161.249 161.96L161.25 161.934Z" stroke="url(#paint21_linear_24_5411)" stroke-width="4"/>
<path d="M161.532 54.0459C161.58 54.0471 161.63 54.0475 161.681 54.0488V54.0762C161.63 54.0775 161.58 54.0788 161.532 54.0801V54.0459ZM110.031 106.092C110.051 105.54 110.08 104.885 110.131 104.141C110.299 101.651 110.674 98.1742 111.504 94.2471C113.171 86.3531 116.627 76.8416 123.702 69.7666C130.166 63.3027 138.666 59.8568 146.122 58.0371C152.111 56.5756 157.315 56.1945 160.026 56.0977C160.006 56.6486 159.978 57.3034 159.927 58.0469C159.759 60.537 159.383 64.0133 158.553 67.9404C156.886 75.8343 153.431 85.3457 146.356 92.4209C139.281 99.4961 129.769 102.952 121.875 104.619C117.948 105.448 114.472 105.824 111.982 105.992C111.238 106.042 110.582 106.072 110.031 106.092ZM110.031 2.03418C110.582 2.05388 111.238 2.08252 111.982 2.13281C114.472 2.30108 117.948 2.67658 121.875 3.50586C129.769 5.17296 139.281 8.62867 146.356 15.7041C153.431 22.7793 156.886 32.2915 158.553 40.1855C159.383 44.1128 159.759 47.589 159.927 50.0791C159.978 50.8227 160.006 51.4773 160.026 52.0283C157.315 51.9313 152.11 51.5494 146.122 50.0879C138.666 48.2682 130.166 44.8221 123.702 38.3584C116.627 31.2833 113.171 21.7719 111.504 13.8779C110.674 9.95074 110.299 6.47447 110.131 3.98438C110.08 3.24046 110.051 2.58531 110.031 2.03418Z" stroke="url(#paint22_linear_24_5411)" stroke-width="4"/>
<path d="M2.0332 214.285C2.05291 213.734 2.08251 213.078 2.13281 212.334C2.30112 209.844 2.67647 206.368 3.50586 202.44C5.17305 194.546 8.62899 185.035 15.7041 177.96C22.1607 171.503 30.7699 168.071 38.3486 166.265C44.0775 164.899 49.1116 164.489 51.9746 164.368C51.9561 164.914 51.928 165.56 51.8799 166.293C51.7169 168.777 51.3485 172.246 50.5264 176.165C48.8739 184.043 45.433 193.539 38.3584 200.614C31.2832 207.689 21.771 211.145 13.877 212.812C9.95005 213.642 6.47435 214.017 3.98438 214.186C3.24008 214.236 2.58451 214.265 2.0332 214.285Z" stroke="url(#paint23_linear_24_5411)" stroke-width="4"/>
<path d="M54.5266 162.239C54.4783 162.24 54.4285 162.241 54.3771 162.242V162.27C54.4286 162.271 54.4783 162.272 54.5266 162.273V162.239ZM106.028 214.285C106.008 213.734 105.978 213.078 105.928 212.334C105.76 209.844 105.384 206.368 104.555 202.44C102.888 194.546 99.4317 185.035 92.3566 177.96C85.8929 171.496 77.3928 168.05 69.9367 166.23C63.948 164.769 58.7434 164.388 56.0324 164.291C56.0521 164.842 56.0808 165.497 56.131 166.24C56.2994 168.73 56.6757 172.207 57.5051 176.134C59.1723 184.028 62.6274 193.539 69.7023 200.614C76.7775 207.689 86.2898 211.145 94.1838 212.812C98.1107 213.642 101.586 214.017 104.076 214.186C104.821 214.236 105.476 214.265 106.028 214.285ZM106.028 110.228C105.476 110.247 104.821 110.276 104.076 110.326C101.586 110.494 98.1107 110.87 94.1838 111.699C86.2898 113.366 76.7775 116.822 69.7023 123.897C62.6271 130.973 59.1722 140.485 57.5051 148.379C56.6757 152.306 56.2993 155.782 56.131 158.272C56.0808 159.016 56.0521 159.671 56.0324 160.222C58.7436 160.125 63.9481 159.743 69.9367 158.281C77.3928 156.462 85.8929 153.015 92.3566 146.552C99.4317 139.477 102.888 129.965 104.555 122.071C105.384 118.144 105.76 114.668 105.928 112.178C105.978 111.434 106.008 110.779 106.028 110.228Z" stroke="url(#paint24_linear_24_5411)" stroke-width="4"/>
<path d="M322.528 216.239C322.48 216.24 322.43 216.241 322.379 216.242V216.27C322.43 216.271 322.48 216.272 322.528 216.273V216.239ZM374.029 268.285C374.009 267.734 373.98 267.078 373.93 266.334C373.761 263.844 373.386 260.368 372.557 256.44C370.889 248.546 367.433 239.035 360.358 231.96C353.895 225.496 345.394 222.05 337.938 220.23C331.95 218.769 326.745 218.388 324.034 218.291C324.054 218.842 324.082 219.497 324.133 220.24C324.301 222.73 324.677 226.207 325.507 230.134C327.174 238.028 330.629 247.539 337.704 254.614C344.779 261.689 354.291 265.145 362.185 266.812C366.112 267.642 369.588 268.017 372.078 268.186C372.822 268.236 373.478 268.265 374.029 268.285ZM374.029 164.228C373.478 164.247 372.822 164.276 372.078 164.326C369.588 164.494 366.112 164.87 362.185 165.699C354.291 167.366 344.779 170.822 337.704 177.897C330.629 184.973 327.174 194.485 325.507 202.379C324.677 206.306 324.301 209.782 324.133 212.272C324.082 213.016 324.054 213.671 324.034 214.222C326.745 214.125 331.95 213.743 337.938 212.281C345.394 210.462 353.895 207.015 360.358 200.552C367.433 193.477 370.889 183.965 372.557 176.071C373.386 172.144 373.761 168.668 373.93 166.178C373.98 165.434 374.009 164.779 374.029 164.228Z" stroke="url(#paint25_linear_24_5411)" stroke-width="4"/>
<path d="M217.332 109.991C220.042 110.103 225.245 110.514 231.226 112.011C238.671 113.873 247.152 117.368 253.578 123.87C260.612 130.985 264.012 140.517 265.633 148.42C266.44 152.352 266.796 155.83 266.95 158.321C266.996 159.066 267.021 159.722 267.037 160.273C266.486 160.25 265.831 160.217 265.088 160.162C262.599 159.98 259.125 159.584 255.202 158.732C247.318 157.019 237.827 153.508 230.793 146.392C223.759 139.276 220.358 129.745 218.736 121.842C217.93 117.91 217.574 114.431 217.421 111.94C217.375 111.197 217.349 110.542 217.332 109.991ZM217.356 105.921C217.379 105.371 217.412 104.716 217.467 103.973C217.649 101.484 218.045 98.0097 218.897 94.0873C220.61 86.2031 224.121 76.711 231.237 69.6769C238.353 62.6427 247.884 59.2419 255.787 57.6204C259.719 56.8138 263.197 56.4585 265.688 56.3046C266.433 56.2587 267.088 56.2338 267.639 56.2173C267.616 56.7683 267.584 57.4233 267.529 58.1669C267.347 60.656 266.95 64.13 266.098 68.0523C264.385 75.9364 260.875 85.4278 253.759 92.4618C247.258 98.8881 238.738 102.285 231.272 104.061C225.274 105.488 220.067 105.84 217.356 105.921ZM215.688 107.933C215.74 107.932 215.79 107.93 215.839 107.929L215.839 107.964L215.687 107.96L215.688 107.933Z" stroke="url(#paint26_linear_24_5411)" stroke-width="4"/>
</g>
</g>
<defs>
<filter id="filter0_ii_24_5411" x="0" y="-0.8" width="376.062" height="325.116" filterUnits="userSpaceOnUse" color-interpolation-filters="sRGB">
<feFlood flood-opacity="0" result="BackgroundImageFix"/>
<feBlend mode="normal" in="SourceGraphic" in2="BackgroundImageFix" result="shape"/>
<feColorMatrix in="SourceAlpha" type="matrix" values="0 0 0 0 0 0 0 0 0 0 0 0 0 0 0 0 0 0 127 0" result="hardAlpha"/>
<feOffset dy="-1"/>
<feGaussianBlur stdDeviation="0.4"/>
<feComposite in2="hardAlpha" operator="arithmetic" k2="-1" k3="1"/>
<feColorMatrix type="matrix" values="0 0 0 0 0.984314 0 0 0 0 0.521569 0 0 0 0 0.00392157 0 0 0 1 0"/>
<feBlend mode="normal" in2="shape" result="effect1_innerShadow_24_5411"/>
<feColorMatrix in="SourceAlpha" type="matrix" values="0 0 0 0 0 0 0 0 0 0 0 0 0 0 0 0 0 0 127 0" result="hardAlpha"/>
<feOffset dy="1"/>
<feComposite in2="hardAlpha" operator="arithmetic" k2="-1" k3="1"/>
<feColorMatrix type="matrix" values="0 0 0 0 1 0 0 0 0 1 0 0 0 0 1 0 0 0 1 0"/>
<feBlend mode="normal" in2="effect1_innerShadow_24_5411" result="effect2_innerShadow_24_5411"/>
</filter>
<filter id="filter1_ii_24_5411" x="0" y="-0.8" width="376.062" height="325.116" filterUnits="userSpaceOnUse" color-interpolation-filters="sRGB">
<feFlood flood-opacity="0" result="BackgroundImageFix"/>
<feBlend mode="normal" in="SourceGraphic" in2="BackgroundImageFix" result="shape"/>
<feColorMatrix in="SourceAlpha" type="matrix" values="0 0 0 0 0 0 0 0 0 0 0 0 0 0 0 0 0 0 127 0" result="hardAlpha"/>
<feOffset dy="-1"/>
<feGaussianBlur stdDeviation="0.4"/>
<feComposite in2="hardAlpha" operator="arithmetic" k2="-1" k3="1"/>
<feColorMatrix type="matrix" values="0 0 0 0 0.984314 0 0 0 0 0.521569 0 0 0 0 0.00392157 0 0 0 1 0"/>
<feBlend mode="normal" in2="shape" result="effect1_innerShadow_24_5411"/>
<feColorMatrix in="SourceAlpha" type="matrix" values="0 0 0 0 0 0 0 0 0 0 0 0 0 0 0 0 0 0 127 0" result="hardAlpha"/>
<feOffset dy="1"/>
<feComposite in2="hardAlpha" operator="arithmetic" k2="-1" k3="1"/>
<feColorMatrix type="matrix" values="0 0 0 0 1 0 0 0 0 1 0 0 0 0 1 0 0 0 1 0"/>
<feBlend mode="normal" in2="effect1_innerShadow_24_5411" result="effect2_innerShadow_24_5411"/>
</filter>
<linearGradient id="paint0_linear_24_5411" x1="242.031" y1="324.131" x2="242.031" y2="216.006" gradientUnits="userSpaceOnUse">
<stop stop-color="#FCF0D6"/>
<stop offset="1" stop-color="#FFC446"/>
</linearGradient>
<linearGradient id="paint1_linear_24_5411" x1="294.591" y1="324.162" x2="295.217" y2="216.039" gradientUnits="userSpaceOnUse">
<stop stop-color="#FCF0D6"/>
<stop offset="1" stop-color="#FFC446"/>
</linearGradient>
<linearGradient id="paint2_linear_24_5411" x1="135.031" y1="216.131" x2="135.031" y2="108.006" gradientUnits="userSpaceOnUse">
<stop stop-color="#FCF0D6"/>
<stop offset="1" stop-color="#FFC446"/>
</linearGradient>
<linearGradient id="paint3_linear_24_5411" x1="187.591" y1="216.162" x2="188.217" y2="108.039" gradientUnits="userSpaceOnUse">
<stop stop-color="#FCF0D6"/>
<stop offset="1" stop-color="#FFC446"/>
</linearGradient>
<linearGradient id="paint4_linear_24_5411" x1="135.029" y1="108.125" x2="135.029" y2="0.0001297" gradientUnits="userSpaceOnUse">
<stop stop-color="#FCF0D6"/>
<stop offset="1" stop-color="#FFC446"/>
</linearGradient>
<linearGradient id="paint5_linear_24_5411" x1="27.0026" y1="216.318" x2="27.0026" y2="162.318" gradientUnits="userSpaceOnUse">
<stop stop-color="#FCF0D6"/>
<stop offset="1" stop-color="#FFC446"/>
</linearGradient>
<linearGradient id="paint6_linear_24_5411" x1="81.0295" y1="216.318" x2="81.0295" y2="108.193" gradientUnits="userSpaceOnUse">
<stop stop-color="#FCF0D6"/>
<stop offset="1" stop-color="#FFC446"/>
</linearGradient>
<linearGradient id="paint7_linear_24_5411" x1="349.031" y1="270.318" x2="349.031" y2="162.193" gradientUnits="userSpaceOnUse">
<stop stop-color="#FCF0D6"/>
<stop offset="1" stop-color="#FFC446"/>
</linearGradient>
<linearGradient id="paint8_linear_24_5411" x1="242.029" y1="162.162" x2="242.654" y2="54.0387" gradientUnits="userSpaceOnUse">
<stop stop-color="#FCF0D6"/>
<stop offset="1" stop-color="#FFC446"/>
</linearGradient>
<linearGradient id="paint9_linear_24_5411" x1="242.031" y1="324.131" x2="242.031" y2="216.006" gradientUnits="userSpaceOnUse">
<stop stop-color="#FFC446"/>
<stop offset="1" stop-color="#FCF0D6"/>
</linearGradient>
<linearGradient id="paint10_linear_24_5411" x1="294.591" y1="324.162" x2="295.217" y2="216.039" gradientUnits="userSpaceOnUse">
<stop stop-color="#FFC446"/>
<stop offset="1" stop-color="#FCF0D6"/>
</linearGradient>
<linearGradient id="paint11_linear_24_5411" x1="135.031" y1="216.131" x2="135.031" y2="108.006" gradientUnits="userSpaceOnUse">
<stop stop-color="#FFC446"/>
<stop offset="1" stop-color="#FCF0D6"/>
</linearGradient>
<linearGradient id="paint12_linear_24_5411" x1="187.591" y1="216.162" x2="188.217" y2="108.039" gradientUnits="userSpaceOnUse">
<stop stop-color="#FFC446"/>
<stop offset="1" stop-color="#FCF0D6"/>
</linearGradient>
<linearGradient id="paint13_linear_24_5411" x1="135.029" y1="108.125" x2="135.029" y2="0.0001297" gradientUnits="userSpaceOnUse">
<stop stop-color="#FFC446"/>
<stop offset="1" stop-color="#FCF0D6"/>
</linearGradient>
<linearGradient id="paint14_linear_24_5411" x1="27.0026" y1="216.318" x2="27.0026" y2="162.318" gradientUnits="userSpaceOnUse">
<stop stop-color="#FFC446"/>
<stop offset="1" stop-color="#FCF0D6"/>
</linearGradient>
<linearGradient id="paint15_linear_24_5411" x1="81.0295" y1="216.318" x2="81.0295" y2="108.193" gradientUnits="userSpaceOnUse">
<stop stop-color="#FFC446"/>
<stop offset="1" stop-color="#FCF0D6"/>
</linearGradient>
<linearGradient id="paint16_linear_24_5411" x1="349.031" y1="270.318" x2="349.031" y2="162.193" gradientUnits="userSpaceOnUse">
<stop stop-color="#FFC446"/>
<stop offset="1" stop-color="#FCF0D6"/>
</linearGradient>
<linearGradient id="paint17_linear_24_5411" x1="242.029" y1="162.162" x2="242.654" y2="54.0387" gradientUnits="userSpaceOnUse">
<stop stop-color="#FFC446"/>
<stop offset="1" stop-color="#FCF0D6"/>
</linearGradient>
<linearGradient id="paint18_linear_24_5411" x1="242.031" y1="324.131" x2="242.031" y2="216.006" gradientUnits="userSpaceOnUse">
<stop stop-color="#FFC446"/>
<stop offset="1" stop-color="#FCF0D6"/>
</linearGradient>
<linearGradient id="paint19_linear_24_5411" x1="294.591" y1="324.162" x2="295.217" y2="216.039" gradientUnits="userSpaceOnUse">
<stop stop-color="#FFC446"/>
<stop offset="1" stop-color="#FCF0D6"/>
</linearGradient>
<linearGradient id="paint20_linear_24_5411" x1="135.031" y1="216.131" x2="135.031" y2="108.006" gradientUnits="userSpaceOnUse">
<stop stop-color="#FFC446"/>
<stop offset="1" stop-color="#FCF0D6"/>
</linearGradient>
<linearGradient id="paint21_linear_24_5411" x1="187.591" y1="216.162" x2="188.217" y2="108.039" gradientUnits="userSpaceOnUse">
<stop stop-color="#FFC446"/>
<stop offset="1" stop-color="#FCF0D6"/>
</linearGradient>
<linearGradient id="paint22_linear_24_5411" x1="135.029" y1="108.125" x2="135.029" y2="0.0001297" gradientUnits="userSpaceOnUse">
<stop stop-color="#FFC446"/>
<stop offset="1" stop-color="#FCF0D6"/>
</linearGradient>
<linearGradient id="paint23_linear_24_5411" x1="27.0026" y1="216.318" x2="27.0026" y2="162.318" gradientUnits="userSpaceOnUse">
<stop stop-color="#FFC446"/>
<stop offset="1" stop-color="#FCF0D6"/>
</linearGradient>
<linearGradient id="paint24_linear_24_5411" x1="81.0295" y1="216.318" x2="81.0295" y2="108.193" gradientUnits="userSpaceOnUse">
<stop stop-color="#FFC446"/>
<stop offset="1" stop-color="#FCF0D6"/>
</linearGradient>
<linearGradient id="paint25_linear_24_5411" x1="349.031" y1="270.318" x2="349.031" y2="162.193" gradientUnits="userSpaceOnUse">
<stop stop-color="#FFC446"/>
<stop offset="1" stop-color="#FCF0D6"/>
</linearGradient>
<linearGradient id="paint26_linear_24_5411" x1="242.029" y1="162.162" x2="242.654" y2="54.0387" gradientUnits="userSpaceOnUse">
<stop stop-color="#FFC446"/>
<stop offset="1" stop-color="#FCF0D6"/>
</linearGradient>
</defs>
</svg>
