<svg width="377" height="325" viewBox="0 0 377 325" fill="none" xmlns="http://www.w3.org/2000/svg">
<g opacity="0.35">
<g opacity="0.6">
<path fill-rule="evenodd" clip-rule="evenodd" d="M121.29 14.4773C136.217 -0.449381 161.058 0.191508 161.058 0.191508C161.058 0.191508 161.699 25.0334 146.773 39.9599C133.129 53.6037 111.202 54.2414 107.533 54.2499C111.202 54.2589 133.129 54.8967 146.773 68.5399C161.699 83.4667 161.058 108.308 161.058 108.308C161.058 108.308 136.217 108.95 121.29 94.0224C106.363 79.0956 107.004 54.2539 107.004 54.2539C107.004 54.2539 107.132 54.2504 107.375 54.2499C107.132 54.2494 107.004 54.2459 107.004 54.2459C107.004 54.2459 106.363 29.4042 121.29 14.4773Z" fill="url(#paint0_linear_24_10610)"/>
<path fill-rule="evenodd" clip-rule="evenodd" d="M53.8188 108.119C53.8188 108.119 78.6564 108.904 93.6694 94.0631C108.682 79.223 108.185 54.378 108.185 54.378C108.185 54.378 108.057 54.3738 107.814 54.3719C107.917 54.3725 107.999 54.3719 108.059 54.3718C108.142 54.3712 108.185 54.37 108.185 54.37C108.185 54.37 108.97 29.5324 94.1296 14.5194C79.2892 -0.493379 54.4443 0.00379962 54.4443 0.00379962C54.4443 0.00379962 53.6598 24.8416 68.5 39.8542C82.064 53.5766 103.987 54.3412 107.656 54.3709C103.987 54.3587 82.0565 54.8696 68.3346 68.4337C53.3218 83.2739 53.8188 108.119 53.8188 108.119Z" fill="url(#paint1_linear_24_10610)"/>
<path fill-rule="evenodd" clip-rule="evenodd" d="M228.29 122.477C243.217 107.551 268.058 108.192 268.058 108.192C268.058 108.192 268.699 133.033 253.773 147.96C240.129 161.604 218.202 162.241 214.533 162.25C218.202 162.259 240.129 162.897 253.773 176.54C268.699 191.467 268.058 216.308 268.058 216.308C268.058 216.308 243.217 216.95 228.29 202.022C213.363 187.096 214.004 162.254 214.004 162.254C214.004 162.254 214.132 162.25 214.375 162.25C214.132 162.249 214.004 162.246 214.004 162.246C214.004 162.246 213.363 137.404 228.29 122.477Z" fill="url(#paint2_linear_24_10610)"/>
<path fill-rule="evenodd" clip-rule="evenodd" d="M160.819 216.119C160.819 216.119 185.656 216.904 200.669 202.063C215.682 187.223 215.185 162.378 215.185 162.378C215.185 162.378 215.057 162.374 214.814 162.372C214.917 162.372 214.999 162.372 215.059 162.372C215.142 162.371 215.185 162.37 215.185 162.37C215.185 162.37 215.97 137.532 201.13 122.519C186.289 107.507 161.444 108.004 161.444 108.004C161.444 108.004 160.66 132.842 175.5 147.854C189.064 161.577 210.987 162.341 214.656 162.371C210.987 162.359 189.057 162.87 175.335 176.434C160.322 191.274 160.819 216.119 160.819 216.119Z" fill="url(#paint3_linear_24_10610)"/>
<path fill-rule="evenodd" clip-rule="evenodd" d="M228.292 230.483C243.219 215.556 268.061 216.197 268.061 216.197C268.061 216.197 268.701 241.039 253.775 255.966C240.131 269.61 218.205 270.247 214.535 270.256C218.205 270.265 240.131 270.903 253.775 284.546C268.701 299.473 268.061 324.314 268.061 324.314C268.061 324.314 243.219 324.955 228.292 310.028C213.366 295.101 214.006 270.26 214.006 270.26C214.006 270.26 214.134 270.256 214.377 270.256C214.134 270.255 214.006 270.252 214.006 270.252C214.006 270.252 213.366 245.41 228.292 230.483Z" fill="url(#paint4_linear_24_10610)"/>
<path d="M376.058 108.004C376.058 108.004 351.217 107.363 336.29 122.29C321.363 137.217 322.062 162 322.062 162C325.732 161.991 348.129 161.416 361.773 147.772C376.699 132.846 376.058 108.004 376.058 108.004Z" fill="url(#paint5_linear_24_10610)"/>
<path fill-rule="evenodd" clip-rule="evenodd" d="M307.774 122.29C292.847 107.363 268.006 108.004 268.006 108.004C268.006 108.004 267.365 132.846 282.292 147.772C295.935 161.416 317.862 162.054 321.532 162.062C317.862 162.071 295.935 162.709 282.292 176.352C267.365 191.279 268.006 216.121 268.006 216.121C268.006 216.121 292.847 216.762 307.774 201.835C322.701 186.908 322.06 162.066 322.06 162.066C322.06 162.066 321.932 162.063 321.689 162.062C321.932 162.062 322.06 162.058 322.06 162.058C322.06 162.058 322.701 137.217 307.774 122.29Z" fill="url(#paint6_linear_24_10610)"/>
<path fill-rule="evenodd" clip-rule="evenodd" d="M39.7726 68.2898C24.8458 53.3631 0.00412743 54.004 0.00412743 54.004C0.00412743 54.004 -0.636616 78.8459 14.2901 93.7724C27.9334 107.416 49.8602 108.054 53.5299 108.062C49.8602 108.071 27.9334 108.709 14.2901 122.352C-0.636616 137.279 0.00412743 162.121 0.00412743 162.121C0.00412743 162.121 24.8458 162.762 39.7726 147.835C54.6993 132.908 54.0586 108.066 54.0586 108.066C54.0586 108.066 53.9304 108.063 53.6876 108.062C53.9304 108.062 54.0586 108.058 54.0586 108.058C54.0586 108.058 54.6993 83.2167 39.7726 68.2898Z" fill="url(#paint7_linear_24_10610)"/>
<path fill-rule="evenodd" clip-rule="evenodd" d="M106.381 270.119C106.381 270.119 131.219 270.904 146.232 256.063C161.245 241.223 160.748 216.378 160.748 216.378C160.748 216.378 160.62 216.374 160.377 216.372C160.479 216.372 160.562 216.372 160.622 216.372C160.705 216.371 160.748 216.37 160.748 216.37C160.748 216.37 161.532 191.532 146.692 176.519C131.852 161.507 107.007 162.004 107.007 162.004C107.007 162.004 106.222 186.842 121.063 201.854C134.627 215.577 156.549 216.341 160.219 216.371C156.549 216.359 134.619 216.87 120.897 230.434C105.884 245.274 106.381 270.119 106.381 270.119Z" fill="url(#paint8_linear_24_10610)"/>
</g>
<g filter="url(#filter0_ii_24_10610)">
<path d="M107.528 54.2666C107.48 54.2654 107.43 54.265 107.379 54.2637V54.2363C107.43 54.235 107.48 54.2337 107.528 54.2324V54.2666ZM159.029 2.2207C159.01 2.77202 158.98 3.42757 158.93 4.17188C158.761 6.66198 158.386 10.1383 157.557 14.0654C155.889 21.9594 152.434 31.4709 145.358 38.5459C138.895 45.0098 130.395 48.4557 122.938 50.2754C116.95 51.7369 111.745 52.118 109.034 52.2148C109.054 51.6639 109.083 51.0091 109.133 50.2656C109.301 47.7755 109.677 44.2992 110.507 40.3721C112.174 32.4782 115.629 22.9668 122.704 15.8916C129.779 8.81642 139.292 5.36048 147.186 3.69336C151.112 2.86408 154.588 2.4886 157.078 2.32031C157.822 2.27001 158.478 2.24041 159.029 2.2207ZM159.029 106.278C158.478 106.259 157.822 106.23 157.078 106.18C154.588 106.011 151.112 105.636 147.186 104.807C139.292 103.14 129.779 99.6838 122.704 92.6084C115.629 85.5332 112.174 76.021 110.507 68.127C109.677 64.1997 109.301 60.7235 109.133 58.2334C109.083 57.4898 109.054 56.8352 109.034 56.2842C111.745 56.3812 116.95 56.7631 122.938 58.2246C130.395 60.0443 138.895 63.4904 145.358 69.9541C152.434 77.0292 155.889 86.5406 157.557 94.4346C158.386 98.3618 158.761 101.838 158.93 104.328C158.98 105.072 159.01 105.727 159.029 106.278Z" stroke="url(#paint9_linear_24_10610)" stroke-width="4"/>
<path d="M106.168 52.3272C103.458 52.2147 98.2548 51.8037 92.2739 50.3074C84.8284 48.4446 76.3483 44.9496 69.9222 38.4484C62.8881 31.3326 59.4882 21.8012 57.8667 13.8978C57.06 9.96587 56.7038 6.48745 56.5499 3.99641C56.5039 3.25184 56.4791 2.59611 56.4626 2.0447C57.0136 2.0676 57.6686 2.10102 58.4122 2.15559C60.9013 2.33829 64.3753 2.73377 68.2976 3.58585C76.1818 5.29863 85.6729 8.8096 92.7071 15.9255C99.7412 23.0415 103.142 32.5726 104.764 40.4761C105.57 44.408 105.925 47.8864 106.079 50.3774C106.125 51.1212 106.151 51.7762 106.168 52.3272ZM106.144 56.3965C106.121 56.9473 106.088 57.6017 106.033 58.3451C105.851 60.8341 105.455 64.3082 104.603 68.2305C102.89 76.1148 99.3793 85.6068 92.2633 92.641C85.1473 99.6752 75.6161 103.076 67.7127 104.697C63.7808 105.504 60.3024 105.859 57.8114 106.013C57.0672 106.059 56.4119 106.084 55.8607 106.101C55.8836 105.55 55.916 104.895 55.9706 104.151C56.1533 101.662 56.5497 98.1879 57.4018 94.2655C59.1146 86.3814 62.6246 76.8901 69.7405 69.856C76.2414 63.4298 84.7614 60.033 92.2279 58.2564C98.2256 56.8294 103.433 56.4778 106.144 56.3965ZM107.812 54.3846C107.76 54.3857 107.709 54.3876 107.661 54.3886L107.661 54.3535L107.813 54.3582L107.812 54.3846Z" stroke="url(#paint10_linear_24_10610)" stroke-width="4"/>
<path d="M214.528 162.267C214.48 162.265 214.43 162.265 214.379 162.264V162.236C214.43 162.235 214.48 162.234 214.528 162.232V162.267ZM266.029 110.221C266.01 110.772 265.98 111.428 265.93 112.172C265.761 114.662 265.386 118.138 264.557 122.065C262.889 129.959 259.434 139.471 252.358 146.546C245.895 153.01 237.395 156.456 229.938 158.275C223.95 159.737 218.745 160.118 216.034 160.215C216.054 159.664 216.083 159.009 216.133 158.266C216.301 155.776 216.677 152.299 217.507 148.372C219.174 140.478 222.629 130.967 229.704 123.892C236.779 116.816 246.292 113.36 254.186 111.693C258.112 110.864 261.588 110.489 264.078 110.32C264.822 110.27 265.478 110.24 266.029 110.221ZM266.029 214.278C265.478 214.259 264.822 214.23 264.078 214.18C261.588 214.011 258.112 213.636 254.186 212.807C246.292 211.14 236.779 207.684 229.704 200.608C222.629 193.533 219.174 184.021 217.507 176.127C216.677 172.2 216.301 168.723 216.133 166.233C216.083 165.49 216.054 164.835 216.034 164.284C218.745 164.381 223.95 164.763 229.938 166.225C237.395 168.044 245.895 171.49 252.358 177.954C259.434 185.029 262.889 194.541 264.557 202.435C265.386 206.362 265.761 209.838 265.93 212.328C265.98 213.072 266.01 213.727 266.029 214.278Z" stroke="url(#paint11_linear_24_10610)" stroke-width="4"/>
<path d="M213.168 160.327C210.458 160.215 205.255 159.804 199.274 158.307C191.828 156.445 183.348 152.95 176.922 146.448C169.888 139.333 166.488 129.801 164.867 121.898C164.06 117.966 163.704 114.487 163.55 111.996C163.504 111.252 163.479 110.596 163.463 110.045C164.014 110.068 164.669 110.101 165.412 110.156C167.901 110.338 171.375 110.734 175.298 111.586C183.182 113.299 192.673 116.81 199.707 123.925C206.741 131.042 210.142 140.573 211.764 148.476C212.57 152.408 212.925 155.886 213.079 158.377C213.125 159.121 213.151 159.776 213.168 160.327ZM213.144 164.396C213.121 164.947 213.088 165.602 213.033 166.345C212.851 168.834 212.455 172.308 211.603 176.231C209.89 184.115 206.379 193.607 199.263 200.641C192.147 207.675 182.616 211.076 174.713 212.697C170.781 213.504 167.302 213.859 164.811 214.013C164.067 214.059 163.412 214.084 162.861 214.101C162.884 213.55 162.916 212.895 162.971 212.151C163.153 209.662 163.55 206.188 164.402 202.266C166.115 194.381 169.625 184.89 176.74 177.856C183.241 171.43 191.761 168.033 199.228 166.256C205.226 164.829 210.433 164.478 213.144 164.396ZM214.812 162.385C214.76 162.386 214.709 162.388 214.661 162.389L214.661 162.353L214.813 162.358L214.812 162.385Z" stroke="url(#paint12_linear_24_10610)" stroke-width="4"/>
<path d="M214.531 270.272C214.482 270.271 214.433 270.271 214.381 270.27V270.242C214.433 270.241 214.482 270.24 214.531 270.238V270.272ZM266.031 218.227C266.012 218.778 265.982 219.433 265.932 220.178C265.764 222.668 265.388 226.144 264.559 230.071C262.892 237.965 259.436 247.477 252.361 254.552C245.897 261.016 237.397 264.462 229.941 266.281C223.952 267.743 218.747 268.124 216.036 268.221C216.056 267.67 216.085 267.015 216.135 266.271C216.303 263.781 216.68 260.305 217.509 256.378C219.176 248.484 222.631 238.973 229.706 231.897C236.782 224.822 246.294 221.366 254.188 219.699C258.115 218.87 261.59 218.494 264.08 218.326C264.825 218.276 265.48 218.246 266.031 218.227ZM266.031 322.284C265.48 322.264 264.825 322.236 264.08 322.186C261.59 322.017 258.115 321.642 254.188 320.812C246.294 319.145 236.782 315.69 229.706 308.614C222.631 301.539 219.176 292.027 217.509 284.133C216.68 280.206 216.303 276.729 216.135 274.239C216.085 273.496 216.056 272.841 216.036 272.29C218.748 272.387 223.952 272.769 229.941 274.23C237.397 276.05 245.897 279.496 252.361 285.96C259.436 293.035 262.892 302.546 264.559 310.44C265.388 314.368 265.764 317.844 265.932 320.334C265.982 321.078 266.012 321.733 266.031 322.284Z" stroke="url(#paint13_linear_24_10610)" stroke-width="4"/>
<path d="M374.029 110.033C374.01 110.585 373.98 111.24 373.93 111.984C373.761 114.474 373.386 117.951 372.557 121.878C370.889 129.772 367.434 139.283 360.358 146.358C353.902 152.815 345.293 156.247 337.714 158.054C331.985 159.419 326.951 159.829 324.088 159.95C324.106 159.405 324.135 158.758 324.183 158.025C324.346 155.541 324.714 152.073 325.536 148.153C327.189 140.275 330.629 130.779 337.704 123.704C344.779 116.629 354.292 113.173 362.186 111.506C366.112 110.677 369.588 110.301 372.078 110.133C372.822 110.083 373.478 110.053 374.029 110.033Z" stroke="url(#paint14_linear_24_10610)" stroke-width="4"/>
<path d="M321.536 162.079C321.584 162.078 321.634 162.077 321.685 162.076V162.049C321.634 162.048 321.584 162.046 321.536 162.045V162.079ZM270.035 110.033C270.055 110.585 270.084 111.24 270.135 111.984C270.303 114.474 270.678 117.951 271.508 121.878C273.175 129.772 276.631 139.283 283.706 146.358C290.17 152.822 298.67 156.268 306.126 158.088C312.115 159.549 317.319 159.93 320.03 160.027C320.01 159.476 319.982 158.822 319.931 158.078C319.763 155.588 319.387 152.112 318.557 148.185C316.89 140.291 313.435 130.779 306.36 123.704C299.285 116.629 289.773 113.173 281.879 111.506C277.952 110.677 274.476 110.301 271.986 110.133C271.242 110.083 270.586 110.053 270.035 110.033ZM270.035 214.091C270.586 214.071 271.242 214.042 271.986 213.992C274.476 213.824 277.952 213.448 281.879 212.619C289.773 210.952 299.285 207.496 306.36 200.421C313.435 193.346 316.89 183.833 318.557 175.939C319.387 172.012 319.763 168.536 319.931 166.046C319.982 165.302 320.01 164.648 320.03 164.097C317.319 164.194 312.114 164.576 306.126 166.037C298.67 167.857 290.17 171.303 283.706 177.767C276.631 184.842 273.175 194.353 271.508 202.247C270.678 206.174 270.303 209.651 270.135 212.141C270.084 212.885 270.055 213.54 270.035 214.091Z" stroke="url(#paint15_linear_24_10610)" stroke-width="4"/>
<path d="M53.5343 108.079C53.5825 108.078 53.6323 108.077 53.6837 108.076V108.049C53.6323 108.048 53.5825 108.046 53.5343 108.045V108.079ZM2.03333 56.0332C2.05303 56.5845 2.08263 57.2401 2.13293 57.9844C2.30124 60.4745 2.6766 63.9508 3.50598 67.8779C5.17317 75.7719 8.62912 85.2834 15.7042 92.3584C22.1679 98.8223 30.6681 102.268 38.1241 104.088C44.1129 105.549 49.3174 105.93 52.0284 106.027C52.0087 105.476 51.9801 104.822 51.9298 104.078C51.7615 101.588 51.3852 98.1117 50.5558 94.1846C48.8886 86.2907 45.4335 76.7793 38.3585 69.7041C31.2833 62.6289 21.7711 59.173 13.8771 57.5059C9.95018 56.6766 6.47447 56.3011 3.9845 56.1328C3.2402 56.0825 2.58463 56.0529 2.03333 56.0332ZM2.03333 160.091C2.58463 160.071 3.24021 160.042 3.9845 159.992C6.47446 159.824 9.95017 159.448 13.8771 158.619C21.7711 156.952 31.2833 153.496 38.3585 146.421C45.4337 139.346 48.8886 129.833 50.5558 121.939C51.3852 118.012 51.7615 114.536 51.9298 112.046C51.9801 111.302 52.0087 110.648 52.0284 110.097C49.3173 110.194 44.1128 110.576 38.1241 112.037C30.668 113.857 22.1679 117.303 15.7042 123.767C8.62911 130.842 5.17316 140.353 3.50598 148.247C2.67658 152.174 2.30124 155.651 2.13293 158.141C2.08266 158.885 2.05303 159.54 2.03333 160.091Z" stroke="url(#paint16_linear_24_10610)" stroke-width="4"/>
<path d="M158.73 214.327C156.02 214.215 150.817 213.804 144.837 212.307C137.391 210.445 128.911 206.95 122.485 200.448C115.451 193.333 112.051 183.801 110.429 175.898C109.623 171.966 109.266 168.487 109.113 165.996C109.067 165.252 109.042 164.596 109.025 164.045C109.576 164.068 110.231 164.101 110.975 164.156C113.464 164.338 116.938 164.734 120.86 165.586C128.744 167.299 138.236 170.81 145.27 177.925C152.304 185.042 155.705 194.573 157.326 202.476C158.133 206.408 158.488 209.886 158.642 212.377C158.688 213.121 158.714 213.776 158.73 214.327ZM158.707 218.396C158.684 218.947 158.65 219.602 158.596 220.345C158.413 222.834 158.018 226.308 157.166 230.231C155.453 238.115 151.942 247.607 144.826 254.641C137.71 261.675 128.179 265.076 120.275 266.697C116.343 267.504 112.865 267.859 110.374 268.013C109.63 268.059 108.975 268.084 108.423 268.101C108.446 267.55 108.479 266.895 108.533 266.151C108.716 263.662 109.112 260.188 109.964 256.266C111.677 248.381 115.187 238.89 122.303 231.856C128.804 225.43 137.324 222.033 144.791 220.256C150.788 218.829 155.995 218.478 158.707 218.396ZM160.375 216.385C160.323 216.386 160.272 216.388 160.223 216.389L160.224 216.353L160.376 216.358L160.375 216.385Z" stroke="url(#paint17_linear_24_10610)" stroke-width="4"/>
</g>
<g filter="url(#filter1_ii_24_10610)">
<path d="M107.528 54.2666C107.48 54.2654 107.43 54.265 107.379 54.2637V54.2363C107.43 54.235 107.48 54.2337 107.528 54.2324V54.2666ZM159.029 2.2207C159.01 2.77202 158.98 3.42757 158.93 4.17188C158.761 6.66198 158.386 10.1383 157.557 14.0654C155.889 21.9594 152.434 31.4709 145.358 38.5459C138.895 45.0098 130.395 48.4557 122.938 50.2754C116.95 51.7369 111.745 52.118 109.034 52.2148C109.054 51.6639 109.083 51.0091 109.133 50.2656C109.301 47.7755 109.677 44.2992 110.507 40.3721C112.174 32.4782 115.629 22.9668 122.704 15.8916C129.779 8.81642 139.292 5.36048 147.186 3.69336C151.112 2.86408 154.588 2.4886 157.078 2.32031C157.822 2.27001 158.478 2.24041 159.029 2.2207ZM159.029 106.278C158.478 106.259 157.822 106.23 157.078 106.18C154.588 106.011 151.112 105.636 147.186 104.807C139.292 103.14 129.779 99.6838 122.704 92.6084C115.629 85.5332 112.174 76.021 110.507 68.127C109.677 64.1997 109.301 60.7235 109.133 58.2334C109.083 57.4898 109.054 56.8352 109.034 56.2842C111.745 56.3812 116.95 56.7631 122.938 58.2246C130.395 60.0443 138.895 63.4904 145.358 69.9541C152.434 77.0292 155.889 86.5406 157.557 94.4346C158.386 98.3618 158.761 101.838 158.93 104.328C158.98 105.072 159.01 105.727 159.029 106.278Z" stroke="url(#paint18_linear_24_10610)" stroke-width="4"/>
<path d="M106.168 52.3272C103.458 52.2147 98.2548 51.8037 92.2739 50.3074C84.8284 48.4446 76.3483 44.9496 69.9222 38.4484C62.8881 31.3326 59.4882 21.8012 57.8667 13.8978C57.06 9.96587 56.7038 6.48745 56.5499 3.99641C56.5039 3.25184 56.4791 2.59611 56.4626 2.0447C57.0136 2.0676 57.6686 2.10102 58.4122 2.15559C60.9013 2.33829 64.3753 2.73377 68.2976 3.58585C76.1818 5.29863 85.6729 8.8096 92.7071 15.9255C99.7412 23.0415 103.142 32.5726 104.764 40.4761C105.57 44.408 105.925 47.8864 106.079 50.3774C106.125 51.1212 106.151 51.7762 106.168 52.3272ZM106.144 56.3965C106.121 56.9473 106.088 57.6017 106.033 58.3451C105.851 60.8341 105.455 64.3082 104.603 68.2305C102.89 76.1148 99.3793 85.6068 92.2633 92.641C85.1473 99.6752 75.6161 103.076 67.7127 104.697C63.7808 105.504 60.3024 105.859 57.8114 106.013C57.0672 106.059 56.4119 106.084 55.8607 106.101C55.8836 105.55 55.916 104.895 55.9706 104.151C56.1533 101.662 56.5497 98.1879 57.4018 94.2655C59.1146 86.3814 62.6246 76.8901 69.7405 69.856C76.2414 63.4298 84.7614 60.033 92.2279 58.2564C98.2256 56.8294 103.433 56.4778 106.144 56.3965ZM107.812 54.3846C107.76 54.3857 107.709 54.3876 107.661 54.3886L107.661 54.3535L107.813 54.3582L107.812 54.3846Z" stroke="url(#paint19_linear_24_10610)" stroke-width="4"/>
<path d="M214.528 162.267C214.48 162.265 214.43 162.265 214.379 162.264V162.236C214.43 162.235 214.48 162.234 214.528 162.232V162.267ZM266.029 110.221C266.01 110.772 265.98 111.428 265.93 112.172C265.761 114.662 265.386 118.138 264.557 122.065C262.889 129.959 259.434 139.471 252.358 146.546C245.895 153.01 237.395 156.456 229.938 158.275C223.95 159.737 218.745 160.118 216.034 160.215C216.054 159.664 216.083 159.009 216.133 158.266C216.301 155.776 216.677 152.299 217.507 148.372C219.174 140.478 222.629 130.967 229.704 123.892C236.779 116.816 246.292 113.36 254.186 111.693C258.112 110.864 261.588 110.489 264.078 110.32C264.822 110.27 265.478 110.24 266.029 110.221ZM266.029 214.278C265.478 214.259 264.822 214.23 264.078 214.18C261.588 214.011 258.112 213.636 254.186 212.807C246.292 211.14 236.779 207.684 229.704 200.608C222.629 193.533 219.174 184.021 217.507 176.127C216.677 172.2 216.301 168.723 216.133 166.233C216.083 165.49 216.054 164.835 216.034 164.284C218.745 164.381 223.95 164.763 229.938 166.225C237.395 168.044 245.895 171.49 252.358 177.954C259.434 185.029 262.889 194.541 264.557 202.435C265.386 206.362 265.761 209.838 265.93 212.328C265.98 213.072 266.01 213.727 266.029 214.278Z" stroke="url(#paint20_linear_24_10610)" stroke-width="4"/>
<path d="M213.168 160.327C210.458 160.215 205.255 159.804 199.274 158.307C191.828 156.445 183.348 152.95 176.922 146.448C169.888 139.333 166.488 129.801 164.867 121.898C164.06 117.966 163.704 114.487 163.55 111.996C163.504 111.252 163.479 110.596 163.463 110.045C164.014 110.068 164.669 110.101 165.412 110.156C167.901 110.338 171.375 110.734 175.298 111.586C183.182 113.299 192.673 116.81 199.707 123.925C206.741 131.042 210.142 140.573 211.764 148.476C212.57 152.408 212.925 155.886 213.079 158.377C213.125 159.121 213.151 159.776 213.168 160.327ZM213.144 164.396C213.121 164.947 213.088 165.602 213.033 166.345C212.851 168.834 212.455 172.308 211.603 176.231C209.89 184.115 206.379 193.607 199.263 200.641C192.147 207.675 182.616 211.076 174.713 212.697C170.781 213.504 167.302 213.859 164.811 214.013C164.067 214.059 163.412 214.084 162.861 214.101C162.884 213.55 162.916 212.895 162.971 212.151C163.153 209.662 163.55 206.188 164.402 202.266C166.115 194.381 169.625 184.89 176.74 177.856C183.241 171.43 191.761 168.033 199.228 166.256C205.226 164.829 210.433 164.478 213.144 164.396ZM214.812 162.385C214.76 162.386 214.709 162.388 214.661 162.389L214.661 162.353L214.813 162.358L214.812 162.385Z" stroke="url(#paint21_linear_24_10610)" stroke-width="4"/>
<path d="M214.531 270.272C214.482 270.271 214.433 270.271 214.381 270.27V270.242C214.433 270.241 214.482 270.24 214.531 270.238V270.272ZM266.031 218.227C266.012 218.778 265.982 219.433 265.932 220.178C265.764 222.668 265.388 226.144 264.559 230.071C262.892 237.965 259.436 247.477 252.361 254.552C245.897 261.016 237.397 264.462 229.941 266.281C223.952 267.743 218.747 268.124 216.036 268.221C216.056 267.67 216.085 267.015 216.135 266.271C216.303 263.781 216.68 260.305 217.509 256.378C219.176 248.484 222.631 238.973 229.706 231.897C236.782 224.822 246.294 221.366 254.188 219.699C258.115 218.87 261.59 218.494 264.08 218.326C264.825 218.276 265.48 218.246 266.031 218.227ZM266.031 322.284C265.48 322.264 264.825 322.236 264.08 322.186C261.59 322.017 258.115 321.642 254.188 320.812C246.294 319.145 236.782 315.69 229.706 308.614C222.631 301.539 219.176 292.027 217.509 284.133C216.68 280.206 216.303 276.729 216.135 274.239C216.085 273.496 216.056 272.841 216.036 272.29C218.748 272.387 223.952 272.769 229.941 274.23C237.397 276.05 245.897 279.496 252.361 285.96C259.436 293.035 262.892 302.546 264.559 310.44C265.388 314.368 265.764 317.844 265.932 320.334C265.982 321.078 266.012 321.733 266.031 322.284Z" stroke="url(#paint22_linear_24_10610)" stroke-width="4"/>
<path d="M374.029 110.033C374.01 110.585 373.98 111.24 373.93 111.984C373.761 114.474 373.386 117.951 372.557 121.878C370.889 129.772 367.434 139.283 360.358 146.358C353.902 152.815 345.293 156.247 337.714 158.054C331.985 159.419 326.951 159.829 324.088 159.95C324.106 159.405 324.135 158.758 324.183 158.025C324.346 155.541 324.714 152.073 325.536 148.153C327.189 140.275 330.629 130.779 337.704 123.704C344.779 116.629 354.292 113.173 362.186 111.506C366.112 110.677 369.588 110.301 372.078 110.133C372.822 110.083 373.478 110.053 374.029 110.033Z" stroke="url(#paint23_linear_24_10610)" stroke-width="4"/>
<path d="M321.536 162.079C321.584 162.078 321.634 162.077 321.685 162.076V162.049C321.634 162.048 321.584 162.046 321.536 162.045V162.079ZM270.035 110.033C270.055 110.585 270.084 111.24 270.135 111.984C270.303 114.474 270.678 117.951 271.508 121.878C273.175 129.772 276.631 139.283 283.706 146.358C290.17 152.822 298.67 156.268 306.126 158.088C312.115 159.549 317.319 159.93 320.03 160.027C320.01 159.476 319.982 158.822 319.931 158.078C319.763 155.588 319.387 152.112 318.557 148.185C316.89 140.291 313.435 130.779 306.36 123.704C299.285 116.629 289.773 113.173 281.879 111.506C277.952 110.677 274.476 110.301 271.986 110.133C271.242 110.083 270.586 110.053 270.035 110.033ZM270.035 214.091C270.586 214.071 271.242 214.042 271.986 213.992C274.476 213.824 277.952 213.448 281.879 212.619C289.773 210.952 299.285 207.496 306.36 200.421C313.435 193.346 316.89 183.833 318.557 175.939C319.387 172.012 319.763 168.536 319.931 166.046C319.982 165.302 320.01 164.648 320.03 164.097C317.319 164.194 312.114 164.576 306.126 166.037C298.67 167.857 290.17 171.303 283.706 177.767C276.631 184.842 273.175 194.353 271.508 202.247C270.678 206.174 270.303 209.651 270.135 212.141C270.084 212.885 270.055 213.54 270.035 214.091Z" stroke="url(#paint24_linear_24_10610)" stroke-width="4"/>
<path d="M53.5343 108.079C53.5825 108.078 53.6323 108.077 53.6837 108.076V108.049C53.6323 108.048 53.5825 108.046 53.5343 108.045V108.079ZM2.03333 56.0332C2.05303 56.5845 2.08263 57.2401 2.13293 57.9844C2.30124 60.4745 2.6766 63.9508 3.50598 67.8779C5.17317 75.7719 8.62912 85.2834 15.7042 92.3584C22.1679 98.8223 30.6681 102.268 38.1241 104.088C44.1129 105.549 49.3174 105.93 52.0284 106.027C52.0087 105.476 51.9801 104.822 51.9298 104.078C51.7615 101.588 51.3852 98.1117 50.5558 94.1846C48.8886 86.2907 45.4335 76.7793 38.3585 69.7041C31.2833 62.6289 21.7711 59.173 13.8771 57.5059C9.95018 56.6766 6.47447 56.3011 3.9845 56.1328C3.2402 56.0825 2.58463 56.0529 2.03333 56.0332ZM2.03333 160.091C2.58463 160.071 3.24021 160.042 3.9845 159.992C6.47446 159.824 9.95017 159.448 13.8771 158.619C21.7711 156.952 31.2833 153.496 38.3585 146.421C45.4337 139.346 48.8886 129.833 50.5558 121.939C51.3852 118.012 51.7615 114.536 51.9298 112.046C51.9801 111.302 52.0087 110.648 52.0284 110.097C49.3173 110.194 44.1128 110.576 38.1241 112.037C30.668 113.857 22.1679 117.303 15.7042 123.767C8.62911 130.842 5.17316 140.353 3.50598 148.247C2.67658 152.174 2.30124 155.651 2.13293 158.141C2.08266 158.885 2.05303 159.54 2.03333 160.091Z" stroke="url(#paint25_linear_24_10610)" stroke-width="4"/>
<path d="M158.73 214.327C156.02 214.215 150.817 213.804 144.837 212.307C137.391 210.445 128.911 206.95 122.485 200.448C115.451 193.333 112.051 183.801 110.429 175.898C109.623 171.966 109.266 168.487 109.113 165.996C109.067 165.252 109.042 164.596 109.025 164.045C109.576 164.068 110.231 164.101 110.975 164.156C113.464 164.338 116.938 164.734 120.86 165.586C128.744 167.299 138.236 170.81 145.27 177.925C152.304 185.042 155.705 194.573 157.326 202.476C158.133 206.408 158.488 209.886 158.642 212.377C158.688 213.121 158.714 213.776 158.73 214.327ZM158.707 218.396C158.684 218.947 158.65 219.602 158.596 220.345C158.413 222.834 158.018 226.308 157.166 230.231C155.453 238.115 151.942 247.607 144.826 254.641C137.71 261.675 128.179 265.076 120.275 266.697C116.343 267.504 112.865 267.859 110.374 268.013C109.63 268.059 108.975 268.084 108.423 268.101C108.446 267.55 108.479 266.895 108.533 266.151C108.716 263.662 109.112 260.188 109.964 256.266C111.677 248.381 115.187 238.89 122.303 231.856C128.804 225.43 137.324 222.033 144.791 220.256C150.788 218.829 155.995 218.478 158.707 218.396ZM160.375 216.385C160.323 216.386 160.272 216.388 160.223 216.389L160.224 216.353L160.376 216.358L160.375 216.385Z" stroke="url(#paint26_linear_24_10610)" stroke-width="4"/>
</g>
</g>
<defs>
<filter id="filter0_ii_24_10610" x="0.00012207" y="-0.798047" width="376.062" height="325.116" filterUnits="userSpaceOnUse" color-interpolation-filters="sRGB">
<feFlood flood-opacity="0" result="BackgroundImageFix"/>
<feBlend mode="normal" in="SourceGraphic" in2="BackgroundImageFix" result="shape"/>
<feColorMatrix in="SourceAlpha" type="matrix" values="0 0 0 0 0 0 0 0 0 0 0 0 0 0 0 0 0 0 127 0" result="hardAlpha"/>
<feOffset dy="-1"/>
<feGaussianBlur stdDeviation="0.4"/>
<feComposite in2="hardAlpha" operator="arithmetic" k2="-1" k3="1"/>
<feColorMatrix type="matrix" values="0 0 0 0 0.984314 0 0 0 0 0.521569 0 0 0 0 0.00392157 0 0 0 1 0"/>
<feBlend mode="normal" in2="shape" result="effect1_innerShadow_24_10610"/>
<feColorMatrix in="SourceAlpha" type="matrix" values="0 0 0 0 0 0 0 0 0 0 0 0 0 0 0 0 0 0 127 0" result="hardAlpha"/>
<feOffset dy="1"/>
<feComposite in2="hardAlpha" operator="arithmetic" k2="-1" k3="1"/>
<feColorMatrix type="matrix" values="0 0 0 0 1 0 0 0 0 1 0 0 0 0 1 0 0 0 1 0"/>
<feBlend mode="normal" in2="effect1_innerShadow_24_10610" result="effect2_innerShadow_24_10610"/>
</filter>
<filter id="filter1_ii_24_10610" x="0.00012207" y="-0.798047" width="376.062" height="325.116" filterUnits="userSpaceOnUse" color-interpolation-filters="sRGB">
<feFlood flood-opacity="0" result="BackgroundImageFix"/>
<feBlend mode="normal" in="SourceGraphic" in2="BackgroundImageFix" result="shape"/>
<feColorMatrix in="SourceAlpha" type="matrix" values="0 0 0 0 0 0 0 0 0 0 0 0 0 0 0 0 0 0 127 0" result="hardAlpha"/>
<feOffset dy="-1"/>
<feGaussianBlur stdDeviation="0.4"/>
<feComposite in2="hardAlpha" operator="arithmetic" k2="-1" k3="1"/>
<feColorMatrix type="matrix" values="0 0 0 0 0.984314 0 0 0 0 0.521569 0 0 0 0 0.00392157 0 0 0 1 0"/>
<feBlend mode="normal" in2="shape" result="effect1_innerShadow_24_10610"/>
<feColorMatrix in="SourceAlpha" type="matrix" values="0 0 0 0 0 0 0 0 0 0 0 0 0 0 0 0 0 0 127 0" result="hardAlpha"/>
<feOffset dy="1"/>
<feComposite in2="hardAlpha" operator="arithmetic" k2="-1" k3="1"/>
<feColorMatrix type="matrix" values="0 0 0 0 1 0 0 0 0 1 0 0 0 0 1 0 0 0 1 0"/>
<feBlend mode="normal" in2="effect1_innerShadow_24_10610" result="effect2_innerShadow_24_10610"/>
</filter>
<linearGradient id="paint0_linear_24_10610" x1="134.031" y1="0.1875" x2="134.031" y2="108.312" gradientUnits="userSpaceOnUse">
<stop stop-color="#FCF0D6"/>
<stop offset="1" stop-color="#FFC446"/>
</linearGradient>
<linearGradient id="paint1_linear_24_10610" x1="81.471" y1="0.156134" x2="80.8456" y2="108.279" gradientUnits="userSpaceOnUse">
<stop stop-color="#FCF0D6"/>
<stop offset="1" stop-color="#FFC446"/>
</linearGradient>
<linearGradient id="paint2_linear_24_10610" x1="241.031" y1="108.188" x2="241.031" y2="216.312" gradientUnits="userSpaceOnUse">
<stop stop-color="#FCF0D6"/>
<stop offset="1" stop-color="#FFC446"/>
</linearGradient>
<linearGradient id="paint3_linear_24_10610" x1="188.471" y1="108.156" x2="187.846" y2="216.279" gradientUnits="userSpaceOnUse">
<stop stop-color="#FCF0D6"/>
<stop offset="1" stop-color="#FFC446"/>
</linearGradient>
<linearGradient id="paint4_linear_24_10610" x1="241.033" y1="216.193" x2="241.033" y2="324.318" gradientUnits="userSpaceOnUse">
<stop stop-color="#FCF0D6"/>
<stop offset="1" stop-color="#FFC446"/>
</linearGradient>
<linearGradient id="paint5_linear_24_10610" x1="349.06" y1="108" x2="349.06" y2="162" gradientUnits="userSpaceOnUse">
<stop stop-color="#FCF0D6"/>
<stop offset="1" stop-color="#FFC446"/>
</linearGradient>
<linearGradient id="paint6_linear_24_10610" x1="295.033" y1="108" x2="295.033" y2="216.125" gradientUnits="userSpaceOnUse">
<stop stop-color="#FCF0D6"/>
<stop offset="1" stop-color="#FFC446"/>
</linearGradient>
<linearGradient id="paint7_linear_24_10610" x1="27.0313" y1="54" x2="27.0313" y2="162.125" gradientUnits="userSpaceOnUse">
<stop stop-color="#FCF0D6"/>
<stop offset="1" stop-color="#FFC446"/>
</linearGradient>
<linearGradient id="paint8_linear_24_10610" x1="134.034" y1="162.156" x2="133.408" y2="270.279" gradientUnits="userSpaceOnUse">
<stop stop-color="#FCF0D6"/>
<stop offset="1" stop-color="#FFC446"/>
</linearGradient>
<linearGradient id="paint9_linear_24_10610" x1="134.031" y1="0.1875" x2="134.031" y2="108.312" gradientUnits="userSpaceOnUse">
<stop stop-color="#FFC446"/>
<stop offset="1" stop-color="#FCF0D6"/>
</linearGradient>
<linearGradient id="paint10_linear_24_10610" x1="81.471" y1="0.156134" x2="80.8456" y2="108.279" gradientUnits="userSpaceOnUse">
<stop stop-color="#FFC446"/>
<stop offset="1" stop-color="#FCF0D6"/>
</linearGradient>
<linearGradient id="paint11_linear_24_10610" x1="241.031" y1="108.188" x2="241.031" y2="216.312" gradientUnits="userSpaceOnUse">
<stop stop-color="#FFC446"/>
<stop offset="1" stop-color="#FCF0D6"/>
</linearGradient>
<linearGradient id="paint12_linear_24_10610" x1="188.471" y1="108.156" x2="187.846" y2="216.279" gradientUnits="userSpaceOnUse">
<stop stop-color="#FFC446"/>
<stop offset="1" stop-color="#FCF0D6"/>
</linearGradient>
<linearGradient id="paint13_linear_24_10610" x1="241.033" y1="216.193" x2="241.033" y2="324.318" gradientUnits="userSpaceOnUse">
<stop stop-color="#FFC446"/>
<stop offset="1" stop-color="#FCF0D6"/>
</linearGradient>
<linearGradient id="paint14_linear_24_10610" x1="349.06" y1="108" x2="349.06" y2="162" gradientUnits="userSpaceOnUse">
<stop stop-color="#FFC446"/>
<stop offset="1" stop-color="#FCF0D6"/>
</linearGradient>
<linearGradient id="paint15_linear_24_10610" x1="295.033" y1="108" x2="295.033" y2="216.125" gradientUnits="userSpaceOnUse">
<stop stop-color="#FFC446"/>
<stop offset="1" stop-color="#FCF0D6"/>
</linearGradient>
<linearGradient id="paint16_linear_24_10610" x1="27.0313" y1="54" x2="27.0313" y2="162.125" gradientUnits="userSpaceOnUse">
<stop stop-color="#FFC446"/>
<stop offset="1" stop-color="#FCF0D6"/>
</linearGradient>
<linearGradient id="paint17_linear_24_10610" x1="134.034" y1="162.156" x2="133.408" y2="270.279" gradientUnits="userSpaceOnUse">
<stop stop-color="#FFC446"/>
<stop offset="1" stop-color="#FCF0D6"/>
</linearGradient>
<linearGradient id="paint18_linear_24_10610" x1="134.031" y1="0.1875" x2="134.031" y2="108.312" gradientUnits="userSpaceOnUse">
<stop stop-color="#FFC446"/>
<stop offset="1" stop-color="#FCF0D6"/>
</linearGradient>
<linearGradient id="paint19_linear_24_10610" x1="81.471" y1="0.156134" x2="80.8456" y2="108.279" gradientUnits="userSpaceOnUse">
<stop stop-color="#FFC446"/>
<stop offset="1" stop-color="#FCF0D6"/>
</linearGradient>
<linearGradient id="paint20_linear_24_10610" x1="241.031" y1="108.188" x2="241.031" y2="216.312" gradientUnits="userSpaceOnUse">
<stop stop-color="#FFC446"/>
<stop offset="1" stop-color="#FCF0D6"/>
</linearGradient>
<linearGradient id="paint21_linear_24_10610" x1="188.471" y1="108.156" x2="187.846" y2="216.279" gradientUnits="userSpaceOnUse">
<stop stop-color="#FFC446"/>
<stop offset="1" stop-color="#FCF0D6"/>
</linearGradient>
<linearGradient id="paint22_linear_24_10610" x1="241.033" y1="216.193" x2="241.033" y2="324.318" gradientUnits="userSpaceOnUse">
<stop stop-color="#FFC446"/>
<stop offset="1" stop-color="#FCF0D6"/>
</linearGradient>
<linearGradient id="paint23_linear_24_10610" x1="349.06" y1="108" x2="349.06" y2="162" gradientUnits="userSpaceOnUse">
<stop stop-color="#FFC446"/>
<stop offset="1" stop-color="#FCF0D6"/>
</linearGradient>
<linearGradient id="paint24_linear_24_10610" x1="295.033" y1="108" x2="295.033" y2="216.125" gradientUnits="userSpaceOnUse">
<stop stop-color="#FFC446"/>
<stop offset="1" stop-color="#FCF0D6"/>
</linearGradient>
<linearGradient id="paint25_linear_24_10610" x1="27.0313" y1="54" x2="27.0313" y2="162.125" gradientUnits="userSpaceOnUse">
<stop stop-color="#FFC446"/>
<stop offset="1" stop-color="#FCF0D6"/>
</linearGradient>
<linearGradient id="paint26_linear_24_10610" x1="134.034" y1="162.156" x2="133.408" y2="270.279" gradientUnits="userSpaceOnUse">
<stop stop-color="#FFC446"/>
<stop offset="1" stop-color="#FCF0D6"/>
</linearGradient>
</defs>
</svg>
