<svg xmlns="http://www.w3.org/2000/svg" width="377" height="325" fill="none" xmlns:v="https://vecta.io/nano"><style><![CDATA[.B{stroke-width:4}.C{fill-rule:evenodd}]]></style><g opacity=".35"><g opacity=".6"><g class="C"><use href="#R" fill="url(#B)"/><use href="#S" fill="url(#C)"/><use href="#R" x="-107" y="-108" fill="url(#B)"/><use href="#S" x="-107" y="-108" fill="url(#C)"/><path d="M147.77 93.835c-14.927 14.927-39.768 14.286-39.768 14.286s-.641-24.842 14.286-39.768c13.643-13.644 35.57-14.281 39.24-14.29-3.67-.009-25.597-.647-39.24-14.29C107.361 24.846 108.002.004 108.002.004s24.841-.641 39.768 14.286 14.286 39.768 14.286 39.768-.128.004-.371.004l.371.004s.641 24.842-14.286 39.769z" fill="url(#D)"/></g><path d="M.004 216.314s24.842.641 39.768-14.285S54 162.318 54 162.318c-3.67.009-26.067.584-39.71 14.228C-.637 191.472.004 216.314.004 216.314z" fill="url(#E)"/><g class="C"><path d="M68.288 202.029c14.927 14.926 39.769 14.285 39.769 14.285s.64-24.842-14.286-39.768c-13.643-13.644-35.57-14.282-39.24-14.29 3.67-.009 25.597-.647 39.24-14.29 14.926-14.927 14.286-39.768 14.286-39.768s-24.842-.642-39.769 14.286-14.286 39.768-14.286 39.768l.371.004-.371.004s-.641 24.842 14.286 39.769z" fill="url(#F)"/><path d="M336.29 256.029c14.927 14.926 39.768 14.285 39.768 14.285s.641-24.842-14.286-39.768c-13.643-13.644-35.57-14.282-39.239-14.29 3.669-.009 25.596-.647 39.239-14.29 14.927-14.927 14.286-39.768 14.286-39.768s-24.841-.642-39.768 14.286-14.286 39.768-14.286 39.768l.371.004-.371.004s-.641 24.842 14.286 39.769z" fill="url(#G)"/><path d="M269.681 54.199s-24.838-.785-39.851 14.056-14.515 39.685-14.515 39.685.128.004.371.006c-.103-.001-.185 0-.246 0l-.125.002s-.785 24.837 14.055 39.85 39.686 14.516 39.686 14.516.784-24.838-14.056-39.85c-13.564-13.723-35.487-14.487-39.156-14.517 3.669.012 25.599-.499 39.321-14.063 15.013-14.84 14.516-39.685 14.516-39.685z" fill="url(#H)"/></g></g><g filter="url(#A)" class="B"><use href="#T" stroke="url(#I)"/><use href="#U" stroke="url(#J)"/><use href="#V" stroke="url(#K)"/><use href="#W" stroke="url(#L)"/><use href="#X" stroke="url(#M)"/><use href="#Y" stroke="url(#N)"/><use href="#Z" stroke="url(#O)"/><use href="#a" stroke="url(#P)"/><use href="#b" stroke="url(#Q)"/></g><g filter="url(#A)" class="B"><use href="#T" stroke="url(#I)"/><use href="#U" stroke="url(#J)"/><use href="#V" stroke="url(#K)"/><use href="#W" stroke="url(#L)"/><use href="#X" stroke="url(#M)"/><use href="#Y" stroke="url(#N)"/><use href="#Z" stroke="url(#O)"/><use href="#a" stroke="url(#P)"/><use href="#b" stroke="url(#Q)"/></g></g><defs><filter id="A" x="0" y="-.8" width="376.062" height="325.116" filterUnits="userSpaceOnUse" color-interpolation-filters="sRGB"><feFlood flood-opacity="0"/><feBlend in="SourceGraphic" result="B"/><feColorMatrix in="SourceAlpha" values="0 0 0 0 0 0 0 0 0 0 0 0 0 0 0 0 0 0 127 0" result="C"/><feOffset dy="-1"/><feGaussianBlur stdDeviation=".4"/><feComposite in2="C" operator="arithmetic" k2="-1" k3="1"/><feColorMatrix values="0 0 0 0 0.984314 0 0 0 0 0.521569 0 0 0 0 0.00392157 0 0 0 1 0"/><feBlend in2="B" result="D"/><feColorMatrix in="SourceAlpha" values="0 0 0 0 0 0 0 0 0 0 0 0 0 0 0 0 0 0 127 0" result="C"/><feOffset dy="1"/><feComposite in2="C" operator="arithmetic" k2="-1" k3="1"/><feColorMatrix values="0 0 0 0 1 0 0 0 0 1 0 0 0 0 1 0 0 0 1 0"/><feBlend in2="D"/></filter><linearGradient id="B" x1="242.031" y1="324.131" x2="242.031" y2="216.006" href="#c"><stop stop-color="#fcf0d6"/><stop offset="1" stop-color="#ffc446"/></linearGradient><linearGradient id="C" x1="294.591" y1="324.162" x2="295.217" y2="216.039" href="#c"><stop stop-color="#fcf0d6"/><stop offset="1" stop-color="#ffc446"/></linearGradient><linearGradient id="D" x1="135.029" y1="108.125" x2="135.029" y2="0" href="#c"><stop stop-color="#fcf0d6"/><stop offset="1" stop-color="#ffc446"/></linearGradient><linearGradient id="E" x1="27.003" y1="216.318" x2="27.003" y2="162.318" href="#c"><stop stop-color="#fcf0d6"/><stop offset="1" stop-color="#ffc446"/></linearGradient><linearGradient id="F" x1="81.03" y1="216.318" x2="81.03" y2="108.193" href="#c"><stop stop-color="#fcf0d6"/><stop offset="1" stop-color="#ffc446"/></linearGradient><linearGradient id="G" x1="349.031" y1="270.318" x2="349.031" y2="162.193" href="#c"><stop stop-color="#fcf0d6"/><stop offset="1" stop-color="#ffc446"/></linearGradient><linearGradient id="H" x1="242.029" y1="162.162" x2="242.654" y2="54.039" href="#c"><stop stop-color="#fcf0d6"/><stop offset="1" stop-color="#ffc446"/></linearGradient><linearGradient id="I" x1="242.031" y1="324.131" x2="242.031" y2="216.006" href="#c"><stop stop-color="#ffc446"/><stop offset="1" stop-color="#fcf0d6"/></linearGradient><linearGradient id="J" x1="294.591" y1="324.162" x2="295.217" y2="216.039" href="#c"><stop stop-color="#ffc446"/><stop offset="1" stop-color="#fcf0d6"/></linearGradient><linearGradient id="K" x1="135.031" y1="216.131" x2="135.031" y2="108.006" href="#c"><stop stop-color="#ffc446"/><stop offset="1" stop-color="#fcf0d6"/></linearGradient><linearGradient id="L" x1="187.591" y1="216.162" x2="188.217" y2="108.039" href="#c"><stop stop-color="#ffc446"/><stop offset="1" stop-color="#fcf0d6"/></linearGradient><linearGradient id="M" x1="135.029" y1="108.125" x2="135.029" y2="0" href="#c"><stop stop-color="#ffc446"/><stop offset="1" stop-color="#fcf0d6"/></linearGradient><linearGradient id="N" x1="27.003" y1="216.318" x2="27.003" y2="162.318" href="#c"><stop stop-color="#ffc446"/><stop offset="1" stop-color="#fcf0d6"/></linearGradient><linearGradient id="O" x1="81.03" y1="216.318" x2="81.03" y2="108.193" href="#c"><stop stop-color="#ffc446"/><stop offset="1" stop-color="#fcf0d6"/></linearGradient><linearGradient id="P" x1="349.031" y1="270.318" x2="349.031" y2="162.193" href="#c"><stop stop-color="#ffc446"/><stop offset="1" stop-color="#fcf0d6"/></linearGradient><linearGradient id="Q" x1="242.029" y1="162.162" x2="242.654" y2="54.039" href="#c"><stop stop-color="#ffc446"/><stop offset="1" stop-color="#fcf0d6"/></linearGradient><path id="R" d="M254.772 309.841c-14.926 14.927-39.768 14.286-39.768 14.286s-.641-24.842 14.286-39.769c13.643-13.643 35.57-14.281 39.24-14.29-3.67-.009-25.597-.646-39.24-14.29-14.927-14.926-14.286-39.768-14.286-39.768s24.842-.641 39.768 14.286 14.286 39.768 14.286 39.768-.128.004-.37.004l.37.004s.641 24.842-14.286 39.769z"/><path id="S" d="M322.244 216.2s-24.838-.785-39.851 14.055-14.516 39.685-14.516 39.685.128.005.371.007c-.102-.001-.184-.001-.245 0l-.126.001s-.784 24.838 14.056 39.851 39.685 14.516 39.685 14.516.785-24.838-14.055-39.851c-13.565-13.722-35.487-14.487-39.157-14.517 3.67.013 25.6-.498 39.322-14.062 15.013-14.84 14.516-39.685 14.516-39.685z"/><path id="T" d="M268.534 270.052C268.582 270.053 268.632 270.053 268.684 270.055V270.082C268.632 270.083 268.582 270.085 268.534 270.086V270.052ZM217.033 322.098C217.053 321.546 217.083 320.891 217.133 320.146C217.301 317.656 217.676 314.18 218.506 310.253C220.173 302.359 223.629 292.847 230.704 285.772C237.168 279.309 245.668 275.863 253.124 274.043C259.113 272.581 264.317 272.2 267.028 272.104C267.009 272.654 266.98 273.309 266.93 274.053C266.761 276.543 266.385 280.019 265.556 283.946C263.888 291.84 260.433 301.352 253.358 308.427C246.283 315.502 236.771 318.958 228.877 320.625C224.95 321.454 221.474 321.83 218.984 321.998C218.24 322.048 217.585 322.078 217.033 322.098ZM217.033 218.04C217.585 218.06 218.24 218.088 218.984 218.139C221.474 218.307 224.95 218.682 228.877 219.512C236.771 221.179 246.283 224.635 253.358 231.71C260.434 238.785 263.888 248.297 265.556 256.191C266.385 260.119 266.761 263.595 266.93 266.085C266.98 266.829 267.009 267.483 267.028 268.034C264.317 267.937 259.113 267.555 253.124 266.094C245.668 264.274 237.168 260.828 230.704 254.364C223.629 247.289 220.173 237.778 218.506 229.884C217.676 225.957 217.301 222.48 217.133 219.99C217.083 219.246 217.053 218.591 217.033 218.04Z"/><path id="U" d="M269.895 271.991C272.605 272.104 277.808 272.515 283.789 274.011C291.234 275.874 299.714 279.369 306.14 285.87C313.174 292.986 316.574 302.517 318.196 310.421C319.002 314.352 319.359 317.831 319.513 320.322C319.559 321.067 319.583 321.722 319.6 322.274C319.049 322.251 318.394 322.217 317.65 322.163C315.161 321.98 311.687 321.585 307.765 320.733C299.881 319.02 290.39 315.509 283.355 308.393C276.321 301.277 272.92 291.746 271.299 283.842C270.492 279.91 270.137 276.432 269.983 273.941C269.937 273.197 269.911 272.542 269.895 271.991ZM269.918 267.922C269.941 267.371 269.975 266.717 270.029 265.973C270.212 263.484 270.607 260.01 271.459 256.088C273.172 248.204 276.683 238.712 283.799 231.677C290.915 224.643 300.446 221.242 308.35 219.621C312.282 218.814 315.76 218.459 318.251 218.305C318.995 218.259 319.651 218.234 320.202 218.218C320.179 218.769 320.146 219.424 320.092 220.167C319.909 222.656 319.513 226.13 318.661 230.053C316.948 237.937 313.438 247.428 306.322 254.462C299.821 260.889 291.301 264.285 283.835 266.062C277.837 267.489 272.63 267.841 269.918 267.922ZM268.25 269.934C268.303 269.933 268.353 269.931 268.402 269.93L268.402 269.965L268.249 269.96L268.25 269.934Z"/><path id="V" d="M161.534 162.052C161.582 162.053 161.632 162.053 161.684 162.055V162.082C161.632 162.083 161.582 162.085 161.534 162.086V162.052ZM110.033 214.098C110.053 213.546 110.083 212.891 110.133 212.146C110.301 209.656 110.676 206.18 111.506 202.253C113.173 194.359 116.629 184.847 123.704 177.772C130.168 171.309 138.668 167.863 146.124 166.043C152.113 164.581 157.317 164.2 160.028 164.104C160.009 164.654 159.98 165.309 159.93 166.053C159.761 168.543 159.385 172.019 158.556 175.946C156.888 183.84 153.433 193.352 146.358 200.427C139.283 207.502 129.771 210.958 121.877 212.625C117.95 213.454 114.474 213.83 111.984 213.998C111.24 214.048 110.585 214.078 110.033 214.098ZM110.033 110.04C110.585 110.06 111.24 110.088 111.984 110.139C114.474 110.307 117.95 110.682 121.877 111.512C129.771 113.179 139.283 116.635 146.358 123.71C153.434 130.785 156.888 140.297 158.556 148.191C159.385 152.119 159.761 155.595 159.93 158.085C159.98 158.829 160.009 159.483 160.028 160.034C157.317 159.937 152.113 159.555 146.124 158.094C138.668 156.274 130.168 152.828 123.704 146.364C116.629 139.289 113.173 129.778 111.506 121.884C110.676 117.957 110.301 114.48 110.133 111.99C110.083 111.246 110.053 110.591 110.033 110.04Z"/><path id="W" d="M162.895 163.991C165.605 164.104 170.808 164.515 176.789 166.011C184.234 167.874 192.714 171.369 199.14 177.87C206.174 184.986 209.574 194.517 211.196 202.421C212.002 206.352 212.359 209.831 212.513 212.322C212.559 213.067 212.583 213.722 212.6 214.274C212.049 214.251 211.394 214.217 210.65 214.163C208.161 213.98 204.687 213.585 200.765 212.733C192.881 211.02 183.39 207.509 176.355 200.393C169.321 193.277 165.92 183.746 164.299 175.842C163.492 171.91 163.137 168.432 162.983 165.941C162.937 165.197 162.911 164.542 162.895 163.991ZM162.918 159.922C162.941 159.371 162.975 158.717 163.029 157.973C163.212 155.484 163.607 152.01 164.459 148.088C166.172 140.204 169.683 130.712 176.799 123.677C183.915 116.643 193.446 113.242 201.35 111.621C205.282 110.814 208.76 110.459 211.251 110.305C211.995 110.259 212.651 110.234 213.202 110.218C213.179 110.769 213.146 111.424 213.092 112.167C212.909 114.656 212.513 118.13 211.661 122.053C209.948 129.937 206.438 139.428 199.322 146.462C192.821 152.889 184.301 156.285 176.835 158.062C170.837 159.489 165.63 159.841 162.918 159.922ZM161.25 161.934C161.303 161.933 161.353 161.931 161.402 161.93L161.402 161.965L161.249 161.96L161.25 161.934Z"/><path id="X" d="M161.532 54.0459C161.58 54.0471 161.63 54.0475 161.681 54.0488V54.0762C161.63 54.0775 161.58 54.0788 161.532 54.0801V54.0459ZM110.031 106.092C110.051 105.54 110.08 104.885 110.131 104.141C110.299 101.651 110.674 98.1742 111.504 94.2471C113.171 86.3531 116.627 76.8416 123.702 69.7666C130.166 63.3027 138.666 59.8568 146.122 58.0371C152.111 56.5756 157.315 56.1945 160.026 56.0977C160.006 56.6486 159.978 57.3034 159.927 58.0469C159.759 60.537 159.383 64.0133 158.553 67.9404C156.886 75.8343 153.431 85.3457 146.356 92.4209C139.281 99.4961 129.769 102.952 121.875 104.619C117.948 105.448 114.472 105.824 111.982 105.992C111.238 106.042 110.582 106.072 110.031 106.092ZM110.031 2.03418C110.582 2.05388 111.238 2.08252 111.982 2.13281C114.472 2.30108 117.948 2.67658 121.875 3.50586C129.769 5.17296 139.281 8.62867 146.356 15.7041C153.431 22.7793 156.886 32.2915 158.553 40.1855C159.383 44.1128 159.759 47.589 159.927 50.0791C159.978 50.8227 160.006 51.4773 160.026 52.0283C157.315 51.9313 152.11 51.5494 146.122 50.0879C138.666 48.2682 130.166 44.8221 123.702 38.3584C116.627 31.2833 113.171 21.7719 111.504 13.8779C110.674 9.95074 110.299 6.47447 110.131 3.98438C110.08 3.24046 110.051 2.58531 110.031 2.03418Z"/><path id="Y" d="M2.0332 214.285C2.05291 213.734 2.08251 213.078 2.13281 212.334C2.30112 209.844 2.67647 206.368 3.50586 202.44C5.17305 194.546 8.62899 185.035 15.7041 177.96C22.1607 171.503 30.7699 168.071 38.3486 166.265C44.0775 164.899 49.1116 164.489 51.9746 164.368C51.9561 164.914 51.928 165.56 51.8799 166.293C51.7169 168.777 51.3485 172.246 50.5264 176.165C48.8739 184.043 45.433 193.539 38.3584 200.614C31.2832 207.689 21.771 211.145 13.877 212.812C9.95005 213.642 6.47435 214.017 3.98438 214.186C3.24008 214.236 2.58451 214.265 2.0332 214.285Z"/><path id="Z" d="M54.5266 162.239C54.4783 162.24 54.4285 162.241 54.3771 162.242V162.27C54.4286 162.271 54.4783 162.272 54.5266 162.273V162.239ZM106.028 214.285C106.008 213.734 105.978 213.078 105.928 212.334C105.76 209.844 105.384 206.368 104.555 202.44C102.888 194.546 99.4317 185.035 92.3566 177.96C85.8929 171.496 77.3928 168.05 69.9367 166.23C63.948 164.769 58.7434 164.388 56.0324 164.291C56.0521 164.842 56.0808 165.497 56.131 166.24C56.2994 168.73 56.6757 172.207 57.5051 176.134C59.1723 184.028 62.6274 193.539 69.7023 200.614C76.7775 207.689 86.2898 211.145 94.1838 212.812C98.1107 213.642 101.586 214.017 104.076 214.186C104.821 214.236 105.476 214.265 106.028 214.285ZM106.028 110.228C105.476 110.247 104.821 110.276 104.076 110.326C101.586 110.494 98.1107 110.87 94.1838 111.699C86.2898 113.366 76.7775 116.822 69.7023 123.897C62.6271 130.973 59.1722 140.485 57.5051 148.379C56.6757 152.306 56.2993 155.782 56.131 158.272C56.0808 159.016 56.0521 159.671 56.0324 160.222C58.7436 160.125 63.9481 159.743 69.9367 158.281C77.3928 156.462 85.8929 153.015 92.3566 146.552C99.4317 139.477 102.888 129.965 104.555 122.071C105.384 118.144 105.76 114.668 105.928 112.178C105.978 111.434 106.008 110.779 106.028 110.228Z"/><path id="a" d="M322.528 216.239C322.48 216.24 322.43 216.241 322.379 216.242V216.27C322.43 216.271 322.48 216.272 322.528 216.273V216.239ZM374.029 268.285C374.009 267.734 373.98 267.078 373.93 266.334C373.761 263.844 373.386 260.368 372.557 256.44C370.889 248.546 367.433 239.035 360.358 231.96C353.895 225.496 345.394 222.05 337.938 220.23C331.95 218.769 326.745 218.388 324.034 218.291C324.054 218.842 324.082 219.497 324.133 220.24C324.301 222.73 324.677 226.207 325.507 230.134C327.174 238.028 330.629 247.539 337.704 254.614C344.779 261.689 354.291 265.145 362.185 266.812C366.112 267.642 369.588 268.017 372.078 268.186C372.822 268.236 373.478 268.265 374.029 268.285ZM374.029 164.228C373.478 164.247 372.822 164.276 372.078 164.326C369.588 164.494 366.112 164.87 362.185 165.699C354.291 167.366 344.779 170.822 337.704 177.897C330.629 184.973 327.174 194.485 325.507 202.379C324.677 206.306 324.301 209.782 324.133 212.272C324.082 213.016 324.054 213.671 324.034 214.222C326.745 214.125 331.95 213.743 337.938 212.281C345.394 210.462 353.895 207.015 360.358 200.552C367.433 193.477 370.889 183.965 372.557 176.071C373.386 172.144 373.761 168.668 373.93 166.178C373.98 165.434 374.009 164.779 374.029 164.228Z"/><path id="b" d="M217.332 109.991C220.042 110.103 225.245 110.514 231.226 112.011C238.671 113.873 247.152 117.368 253.578 123.87C260.612 130.985 264.012 140.517 265.633 148.42C266.44 152.352 266.796 155.83 266.95 158.321C266.996 159.066 267.021 159.722 267.037 160.273C266.486 160.25 265.831 160.217 265.088 160.162C262.599 159.98 259.125 159.584 255.202 158.732C247.318 157.019 237.827 153.508 230.793 146.392C223.759 139.276 220.358 129.745 218.736 121.842C217.93 117.91 217.574 114.431 217.421 111.94C217.375 111.197 217.349 110.542 217.332 109.991ZM217.356 105.921C217.379 105.371 217.412 104.716 217.467 103.973C217.649 101.484 218.045 98.0097 218.897 94.0873C220.61 86.2031 224.121 76.711 231.237 69.6769C238.353 62.6427 247.884 59.2419 255.787 57.6204C259.719 56.8138 263.197 56.4585 265.688 56.3046C266.433 56.2587 267.088 56.2338 267.639 56.2173C267.616 56.7683 267.584 57.4233 267.529 58.1669C267.347 60.656 266.95 64.13 266.098 68.0523C264.385 75.9364 260.875 85.4278 253.759 92.4618C247.258 98.8881 238.738 102.285 231.272 104.061C225.274 105.488 220.067 105.84 217.356 105.921ZM215.688 107.933C215.74 107.932 215.79 107.93 215.839 107.929L215.839 107.964L215.687 107.96L215.688 107.933Z"/><linearGradient id="c" gradientUnits="userSpaceOnUse"/></defs></svg>