<svg xmlns="http://www.w3.org/2000/svg" width="377" height="325" fill="none" viewBox="0 0 377 325"><g opacity=".35"><g opacity=".6"><path fill="url(#a)" fill-rule="evenodd" d="M254.77 309.84C239.85 324.77 215 324.13 215 324.13s-.64-24.84 14.29-39.77c13.64-13.65 35.57-14.28 39.24-14.29-3.67-.01-25.6-.65-39.24-14.29-14.93-14.93-14.29-39.77-14.29-39.77s24.85-.64 39.77 14.29c14.93 14.92 14.29 39.76 14.29 39.76s-.13.01-.37.01h.37s.64 24.84-14.29 39.77" clip-rule="evenodd"/><path fill="url(#b)" fill-rule="evenodd" d="M322.24 216.2s-24.83-.79-39.85 14.05c-15.01 14.84-14.51 39.69-14.51 39.69s.12 0 .37.01h-.37s-.79 24.84 14.05 39.85 39.69 14.51 39.69 14.51.78-24.83-14.06-39.85c-13.56-13.72-35.48-14.48-39.15-14.51 3.67.01 25.6-.5 39.32-14.07 15.01-14.84 14.51-39.68 14.51-39.68" clip-rule="evenodd"/><path fill="url(#c)" fill-rule="evenodd" d="M147.77 201.84C132.85 216.77 108 216.13 108 216.13s-.64-24.85 14.29-39.77c13.64-13.64 35.57-14.28 39.24-14.29-3.67-.01-25.6-.65-39.24-14.29-14.93-14.93-14.29-39.77-14.29-39.77s24.85-.64 39.77 14.29c14.93 14.92 14.29 39.76 14.29 39.76s-.13.01-.37.01h.37s.64 24.84-14.29 39.77" clip-rule="evenodd"/><path fill="url(#d)" fill-rule="evenodd" d="M215.24 108.2s-24.83-.78-39.85 14.05c-15.01 14.84-14.51 39.69-14.51 39.69s.12 0 .37.01h-.37s-.79 24.84 14.05 39.85 39.69 14.51 39.69 14.51.78-24.83-14.06-39.85c-13.56-13.72-35.48-14.48-39.15-14.51 3.67.01 25.6-.5 39.32-14.07 15.01-14.84 14.51-39.68 14.51-39.68" clip-rule="evenodd"/><path fill="url(#e)" fill-rule="evenodd" d="M147.77 93.84C132.84 108.76 108 108.12 108 108.12s-.64-24.84 14.29-39.77c13.64-13.64 35.57-14.28 39.24-14.29-3.67-.01-25.6-.64-39.24-14.29C107.36 24.85 108 0 108 0s24.84-.64 39.77 14.29 14.29 39.77 14.29 39.77h-.37c.24 0 .37.01.37.01s.64 24.84-14.29 39.77" clip-rule="evenodd"/><path fill="url(#f)" d="M0 216.31s24.85.65 39.77-14.28C54.7 187.1 54 162.32 54 162.32c-3.67.01-26.07.58-39.71 14.23C-.64 191.47 0 216.31 0 216.31"/><path fill="url(#g)" fill-rule="evenodd" d="M68.29 202.03c14.93 14.93 39.77 14.28 39.77 14.28s.64-24.84-14.29-39.76c-13.64-13.65-35.57-14.29-39.24-14.29 3.67-.01 25.6-.65 39.24-14.29 14.93-14.93 14.29-39.77 14.29-39.77s-24.84-.64-39.77 14.28C53.36 137.41 54 162.25 54 162.25s.13 0 .37.01H54s-.64 24.84 14.29 39.77" clip-rule="evenodd"/><path fill="url(#h)" fill-rule="evenodd" d="M336.29 256.03c14.93 14.92 39.77 14.28 39.77 14.28s.64-24.84-14.29-39.76c-13.64-13.65-35.57-14.29-39.24-14.29 3.67-.01 25.6-.65 39.24-14.29 14.93-14.93 14.29-39.77 14.29-39.77s-24.84-.64-39.77 14.28C321.36 191.41 322 216.25 322 216.25s.13 0 .38.01H322s-.64 24.84 14.29 39.77" clip-rule="evenodd"/><path fill="url(#i)" fill-rule="evenodd" d="M269.68 54.2s-24.84-.79-39.85 14.05-14.52 39.69-14.52 39.69.13 0 .38.01c-.11-.01-.19 0-.25 0h-.13s-.78 24.83 14.06 39.85c14.84 15.01 39.69 14.51 39.69 14.51s.78-24.83-14.06-39.85c-13.56-13.72-35.49-14.48-39.16-14.51 3.67.01 25.6-.5 39.32-14.07 15.02-14.84 14.52-39.68 14.52-39.68" clip-rule="evenodd"/></g><g stroke-width="4" filter="url(#j)"><path stroke="url(#k)" d="M268.53 270.05c.05 0 .1 0 .15.01v.02c-.05 0-.1 0-.15.01zm-51.5 52.05c.02-.55.05-1.21.1-1.95.17-2.49.55-5.97 1.38-9.9 1.66-7.89 5.12-17.4 12.19-24.48 6.47-6.46 14.97-9.91 22.42-11.73 5.99-1.46 11.2-1.84 13.91-1.94-.02.55-.05 1.21-.1 1.95-.17 2.49-.55 5.97-1.37 9.9-1.67 7.89-5.13 17.4-12.2 24.48-7.08 7.07-16.59 10.53-24.48 12.2-3.93.82-7.41 1.2-9.9 1.37-.74.05-1.39.08-1.95.1Zm0-104.06c.56.02 1.21.05 1.95.1 2.49.17 5.97.54 9.9 1.37 7.89 1.67 17.4 5.12 24.48 12.2 7.07 7.07 10.53 16.59 12.2 24.48.82 3.93 1.2 7.41 1.37 9.89.05.75.08 1.4.1 1.95-2.71-.09-7.92-.47-13.91-1.94-7.45-1.82-15.95-5.26-22.42-11.73-7.07-7.07-10.53-16.58-12.19-24.48-.83-3.92-1.21-7.4-1.38-9.89-.05-.74-.08-1.4-.1-1.95Z"/><path stroke="url(#l)" d="M269.89 271.99c2.72.11 7.92.52 13.9 2.02 7.44 1.86 15.92 5.36 22.35 11.86 7.03 7.12 10.43 16.65 12.06 24.55.8 3.93 1.16 7.41 1.31 9.9.05.75.07 1.4.09 1.95-.55-.02-1.21-.05-1.95-.11-2.49-.18-5.96-.58-9.89-1.43-7.88-1.71-17.37-5.22-24.4-12.34-7.04-7.11-10.44-16.64-12.06-24.55-.81-3.93-1.16-7.41-1.32-9.9-.04-.74-.07-1.4-.09-1.95Zm.03-4.07c.02-.55.06-1.2.11-1.95.18-2.49.58-5.96 1.43-9.88 1.71-7.89 5.22-17.38 12.34-24.41 7.12-7.04 16.65-10.44 24.55-12.06 3.93-.81 7.41-1.16 9.9-1.31q1.125-.075 1.95-.09c-.02.55-.05 1.2-.11 1.95-.18 2.49-.58 5.96-1.43 9.88-1.71 7.89-5.22 17.38-12.34 24.41-6.5 6.43-15.02 9.83-22.49 11.6a70.4 70.4 0 0 1-13.91 1.86Zm-1.67 2.01h.15v.03h-.15z"/><path stroke="url(#m)" d="M161.53 162.05c.05 0 .1 0 .15.01v.02c-.05 0-.1.01-.15.01zm-51.5 52.05c.02-.55.05-1.21.1-1.95.17-2.49.55-5.97 1.38-9.9 1.66-7.89 5.12-17.4 12.19-24.48 6.47-6.46 14.97-9.91 22.42-11.73 5.99-1.46 11.2-1.84 13.91-1.94-.02.55-.05 1.21-.1 1.95-.17 2.49-.55 5.97-1.37 9.9-1.67 7.89-5.13 17.4-12.2 24.48-7.08 7.07-16.59 10.53-24.48 12.2-3.93.82-7.41 1.2-9.9 1.37-.74.05-1.4.08-1.95.1Zm0-104.06c.55.02 1.21.05 1.95.1 2.49.17 5.97.54 9.9 1.37 7.89 1.67 17.4 5.13 24.48 12.2 7.07 7.07 10.53 16.59 12.2 24.48.82 3.93 1.2 7.4 1.37 9.9.05.74.08 1.39.1 1.94-2.71-.09-7.92-.47-13.91-1.94-7.45-1.82-15.95-5.26-22.42-11.73-7.07-7.07-10.53-16.58-12.19-24.48-.83-3.92-1.21-7.4-1.38-9.89-.05-.74-.08-1.4-.1-1.95Z"/><path stroke="url(#n)" d="M162.9 163.99c2.7.11 7.91.52 13.89 2.02 7.44 1.86 15.92 5.36 22.35 11.86 7.03 7.12 10.43 16.65 12.06 24.55.8 3.93 1.16 7.41 1.31 9.9.05.75.07 1.4.09 1.95-.55-.02-1.21-.05-1.95-.11-2.49-.18-5.96-.57-9.89-1.43-7.88-1.71-17.37-5.22-24.41-12.34-7.03-7.11-10.43-16.64-12.05-24.55-.81-3.93-1.16-7.41-1.32-9.9-.04-.74-.07-1.4-.08-1.95Zm.02-4.07c.02-.55.05-1.2.11-1.95.18-2.49.58-5.96 1.43-9.88 1.71-7.89 5.22-17.38 12.34-24.41 7.11-7.04 16.65-10.44 24.55-12.06 3.93-.81 7.41-1.16 9.9-1.31q1.125-.075 1.95-.09c-.02.55-.05 1.2-.11 1.95-.18 2.49-.58 5.96-1.43 9.88-1.71 7.89-5.22 17.38-12.34 24.41-6.5 6.43-15.02 9.82-22.48 11.6-6 1.43-11.21 1.78-13.92 1.86Zm-1.67 2.01h.15v.04l-.15-.01z"/><path stroke="url(#o)" d="M161.53 54.05h.15v.03h-.15zm-51.5 52.04c.02-.55.05-1.2.1-1.95.17-2.49.54-5.97 1.37-9.89 1.67-7.9 5.13-17.41 12.2-24.48 6.47-6.47 14.97-9.91 22.42-11.73 5.99-1.46 11.19-1.85 13.91-1.94-.02.55-.05 1.2-.1 1.95-.17 2.49-.55 5.96-1.38 9.89-1.66 7.89-5.12 17.41-12.19 24.48-7.08 7.08-16.59 10.53-24.48 12.2-3.93.83-7.41 1.2-9.9 1.37-.74.05-1.4.08-1.95.1Zm0-104.06c.55.02 1.21.05 1.95.1 2.49.17 5.97.55 9.9 1.38 7.89 1.66 17.4 5.12 24.48 12.19 7.07 7.08 10.53 16.59 12.19 24.49.83 3.92 1.21 7.4 1.38 9.89.05.74.08 1.4.1 1.95-2.72-.1-7.92-.48-13.91-1.94-7.45-1.82-15.95-5.27-22.42-11.73-7.07-7.08-10.53-16.59-12.2-24.48-.83-3.93-1.2-7.41-1.37-9.9-.05-.74-.08-1.39-.1-1.95Z"/><path stroke="url(#p)" d="M2.03 214.28c.02-.55.05-1.2.1-1.95.17-2.49.55-5.96 1.38-9.89 1.66-7.89 5.12-17.41 12.19-24.48 6.46-6.46 15.07-9.89 22.65-11.7a73.7 73.7 0 0 1 13.62-1.89c-.01.54-.04 1.19-.09 1.92-.16 2.49-.53 5.96-1.35 9.87-1.66 7.88-5.1 17.38-12.17 24.45-7.08 7.08-16.59 10.54-24.48 12.2-3.93.83-7.41 1.21-9.9 1.38-.74.05-1.4.07-1.95.09Z"/><path stroke="url(#q)" d="M54.53 162.24h-.15v.03h.15zm51.5 52.04c-.02-.55-.05-1.2-.1-1.95-.17-2.49-.55-5.96-1.37-9.89-1.67-7.89-5.13-17.41-12.2-24.48-6.47-6.46-14.97-9.91-22.42-11.73a71.3 71.3 0 0 0-13.91-1.94c.02.55.05 1.21.1 1.95.17 2.49.55 5.97 1.38 9.89 1.66 7.9 5.12 17.41 12.19 24.48 7.08 7.08 16.59 10.54 24.48 12.2 3.93.83 7.41 1.21 9.9 1.38.74.05 1.4.07 1.95.09Zm0-104.05c-.55.02-1.21.05-1.95.1-2.49.16-5.97.54-9.9 1.37-7.89 1.67-17.4 5.12-24.48 12.2-7.07 7.07-10.53 16.59-12.19 24.48-.83 3.93-1.21 7.4-1.38 9.89-.05.75-.08 1.4-.1 1.95 2.71-.09 7.92-.48 13.91-1.94 7.45-1.82 15.95-5.27 22.42-11.73 7.07-7.07 10.53-16.58 12.2-24.48.82-3.93 1.2-7.4 1.37-9.89.05-.75.08-1.4.1-1.95Z"/><path stroke="url(#r)" d="M322.53 216.24h-.15v.03h.15zm51.5 52.05c-.02-.56-.05-1.21-.1-1.96-.17-2.49-.54-5.96-1.37-9.89-1.67-7.89-5.13-17.41-12.2-24.48-6.47-6.46-14.97-9.91-22.42-11.73a71 71 0 0 0-13.91-1.94c.02.55.05 1.21.1 1.95.17 2.49.55 5.97 1.38 9.89 1.66 7.9 5.12 17.41 12.19 24.48 7.08 7.08 16.59 10.53 24.49 12.2 3.92.83 7.4 1.21 9.89 1.38.74.05 1.4.07 1.95.1Zm0-104.06c-.55.02-1.21.05-1.95.1-2.49.16-5.97.54-9.89 1.37-7.9 1.67-17.41 5.12-24.49 12.2-7.07 7.07-10.53 16.59-12.19 24.48-.83 3.93-1.21 7.4-1.38 9.89-.05.75-.08 1.4-.1 1.95 2.72-.09 7.92-.48 13.91-1.94 7.45-1.82 15.95-5.27 22.42-11.73 7.07-7.07 10.53-16.58 12.2-24.48.83-3.93 1.2-7.4 1.37-9.89.05-.75.08-1.4.1-1.95Z"/><path stroke="url(#s)" d="M217.33 109.99c2.71.11 7.92.52 13.9 2.02 7.44 1.86 15.92 5.36 22.35 11.86 7.03 7.12 10.43 16.65 12.05 24.55a71 71 0 0 1 1.32 9.9c.05.75.07 1.4.09 1.95-.55-.02-1.21-.05-1.95-.11-2.49-.18-5.96-.58-9.89-1.43-7.88-1.71-17.37-5.22-24.41-12.34-7.03-7.11-10.43-16.64-12.05-24.55a71 71 0 0 1-1.32-9.9c-.04-.74-.07-1.4-.09-1.95Zm.03-4.07c.02-.55.05-1.2.11-1.95.18-2.49.57-5.96 1.43-9.88 1.71-7.89 5.22-17.38 12.34-24.41 7.11-7.04 16.64-10.44 24.55-12.06 3.93-.81 7.41-1.16 9.9-1.32.74-.04 1.4-.07 1.95-.08-.02.55-.06 1.2-.11 1.95-.18 2.49-.58 5.96-1.43 9.88-1.72 7.89-5.22 17.38-12.34 24.41-6.5 6.43-15.02 9.82-22.49 11.6a70.5 70.5 0 0 1-13.91 1.86Zm-1.67 2.01h.15v.03h-.15z"/></g><g stroke-width="4" filter="url(#t)"><path stroke="url(#u)" d="M268.53 270.05c.05 0 .1 0 .15.01v.02c-.05 0-.1 0-.15.01zm-51.5 52.05c.02-.55.05-1.21.1-1.95.17-2.49.55-5.97 1.38-9.9 1.66-7.89 5.12-17.4 12.19-24.48 6.47-6.46 14.97-9.91 22.42-11.73 5.99-1.46 11.2-1.84 13.91-1.94-.02.55-.05 1.21-.1 1.95-.17 2.49-.55 5.97-1.37 9.9-1.67 7.89-5.13 17.4-12.2 24.48-7.08 7.07-16.59 10.53-24.48 12.2-3.93.82-7.41 1.2-9.9 1.37-.74.05-1.39.08-1.95.1Zm0-104.06c.56.02 1.21.05 1.95.1 2.49.17 5.97.54 9.9 1.37 7.89 1.67 17.4 5.12 24.48 12.2 7.07 7.07 10.53 16.59 12.2 24.48.82 3.93 1.2 7.41 1.37 9.89.05.75.08 1.4.1 1.95-2.71-.09-7.92-.47-13.91-1.94-7.45-1.82-15.95-5.26-22.42-11.73-7.07-7.07-10.53-16.58-12.19-24.48-.83-3.92-1.21-7.4-1.38-9.89-.05-.74-.08-1.4-.1-1.95Z"/><path stroke="url(#v)" d="M269.89 271.99c2.72.11 7.92.52 13.9 2.02 7.44 1.86 15.92 5.36 22.35 11.86 7.03 7.12 10.43 16.65 12.06 24.55.8 3.93 1.16 7.41 1.31 9.9.05.75.07 1.4.09 1.95-.55-.02-1.21-.05-1.95-.11-2.49-.18-5.96-.58-9.89-1.43-7.88-1.71-17.37-5.22-24.4-12.34-7.04-7.11-10.44-16.64-12.06-24.55-.81-3.93-1.16-7.41-1.32-9.9-.04-.74-.07-1.4-.09-1.95Zm.03-4.07c.02-.55.06-1.2.11-1.95.18-2.49.58-5.96 1.43-9.88 1.71-7.89 5.22-17.38 12.34-24.41 7.12-7.04 16.65-10.44 24.55-12.06 3.93-.81 7.41-1.16 9.9-1.31q1.125-.075 1.95-.09c-.02.55-.05 1.2-.11 1.95-.18 2.49-.58 5.96-1.43 9.88-1.71 7.89-5.22 17.38-12.34 24.41-6.5 6.43-15.02 9.83-22.49 11.6a70.4 70.4 0 0 1-13.91 1.86Zm-1.67 2.01h.15v.03h-.15z"/><path stroke="url(#w)" d="M161.53 162.05c.05 0 .1 0 .15.01v.02c-.05 0-.1.01-.15.01zm-51.5 52.05c.02-.55.05-1.21.1-1.95.17-2.49.55-5.97 1.38-9.9 1.66-7.89 5.12-17.4 12.19-24.48 6.47-6.46 14.97-9.91 22.42-11.73 5.99-1.46 11.2-1.84 13.91-1.94-.02.55-.05 1.21-.1 1.95-.17 2.49-.55 5.97-1.37 9.9-1.67 7.89-5.13 17.4-12.2 24.48-7.08 7.07-16.59 10.53-24.48 12.2-3.93.82-7.41 1.2-9.9 1.37-.74.05-1.4.08-1.95.1Zm0-104.06c.55.02 1.21.05 1.95.1 2.49.17 5.97.54 9.9 1.37 7.89 1.67 17.4 5.13 24.48 12.2 7.07 7.07 10.53 16.59 12.2 24.48.82 3.93 1.2 7.4 1.37 9.9.05.74.08 1.39.1 1.94-2.71-.09-7.92-.47-13.91-1.94-7.45-1.82-15.95-5.26-22.42-11.73-7.07-7.07-10.53-16.58-12.19-24.48-.83-3.92-1.21-7.4-1.38-9.89-.05-.74-.08-1.4-.1-1.95Z"/><path stroke="url(#x)" d="M162.9 163.99c2.7.11 7.91.52 13.89 2.02 7.44 1.86 15.92 5.36 22.35 11.86 7.03 7.12 10.43 16.65 12.06 24.55.8 3.93 1.16 7.41 1.31 9.9.05.75.07 1.4.09 1.95-.55-.02-1.21-.05-1.95-.11-2.49-.18-5.96-.57-9.89-1.43-7.88-1.71-17.37-5.22-24.41-12.34-7.03-7.11-10.43-16.64-12.05-24.55-.81-3.93-1.16-7.41-1.32-9.9-.04-.74-.07-1.4-.08-1.95Zm.02-4.07c.02-.55.05-1.2.11-1.95.18-2.49.58-5.96 1.43-9.88 1.71-7.89 5.22-17.38 12.34-24.41 7.11-7.04 16.65-10.44 24.55-12.06 3.93-.81 7.41-1.16 9.9-1.31q1.125-.075 1.95-.09c-.02.55-.05 1.2-.11 1.95-.18 2.49-.58 5.96-1.43 9.88-1.71 7.89-5.22 17.38-12.34 24.41-6.5 6.43-15.02 9.82-22.48 11.6-6 1.43-11.21 1.78-13.92 1.86Zm-1.67 2.01h.15v.04l-.15-.01z"/><path stroke="url(#y)" d="M161.53 54.05h.15v.03h-.15zm-51.5 52.04c.02-.55.05-1.2.1-1.95.17-2.49.54-5.97 1.37-9.89 1.67-7.9 5.13-17.41 12.2-24.48 6.47-6.47 14.97-9.91 22.42-11.73 5.99-1.46 11.19-1.85 13.91-1.94-.02.55-.05 1.2-.1 1.95-.17 2.49-.55 5.96-1.38 9.89-1.66 7.89-5.12 17.41-12.19 24.48-7.08 7.08-16.59 10.53-24.48 12.2-3.93.83-7.41 1.2-9.9 1.37-.74.05-1.4.08-1.95.1Zm0-104.06c.55.02 1.21.05 1.95.1 2.49.17 5.97.55 9.9 1.38 7.89 1.66 17.4 5.12 24.48 12.19 7.07 7.08 10.53 16.59 12.19 24.49.83 3.92 1.21 7.4 1.38 9.89.05.74.08 1.4.1 1.95-2.72-.1-7.92-.48-13.91-1.94-7.45-1.82-15.95-5.27-22.42-11.73-7.07-7.08-10.53-16.59-12.2-24.48-.83-3.93-1.2-7.41-1.37-9.9-.05-.74-.08-1.39-.1-1.95Z"/><path stroke="url(#z)" d="M2.03 214.28c.02-.55.05-1.2.1-1.95.17-2.49.55-5.96 1.38-9.89 1.66-7.89 5.12-17.41 12.19-24.48 6.46-6.46 15.07-9.89 22.65-11.7a73.7 73.7 0 0 1 13.62-1.89c-.01.54-.04 1.19-.09 1.92-.16 2.49-.53 5.96-1.35 9.87-1.66 7.88-5.1 17.38-12.17 24.45-7.08 7.08-16.59 10.54-24.48 12.2-3.93.83-7.41 1.21-9.9 1.38-.74.05-1.4.07-1.95.09Z"/><path stroke="url(#A)" d="M54.53 162.24h-.15v.03h.15zm51.5 52.04c-.02-.55-.05-1.2-.1-1.95-.17-2.49-.55-5.96-1.37-9.89-1.67-7.89-5.13-17.41-12.2-24.48-6.47-6.46-14.97-9.91-22.42-11.73a71.3 71.3 0 0 0-13.91-1.94c.02.55.05 1.21.1 1.95.17 2.49.55 5.97 1.38 9.89 1.66 7.9 5.12 17.41 12.19 24.48 7.08 7.08 16.59 10.54 24.48 12.2 3.93.83 7.41 1.21 9.9 1.38.74.05 1.4.07 1.95.09Zm0-104.05c-.55.02-1.21.05-1.95.1-2.49.16-5.97.54-9.9 1.37-7.89 1.67-17.4 5.12-24.48 12.2-7.07 7.07-10.53 16.59-12.19 24.48-.83 3.93-1.21 7.4-1.38 9.89-.05.75-.08 1.4-.1 1.95 2.71-.09 7.92-.48 13.91-1.94 7.45-1.82 15.95-5.27 22.42-11.73 7.07-7.07 10.53-16.58 12.2-24.48.82-3.93 1.2-7.4 1.37-9.89.05-.75.08-1.4.1-1.95Z"/><path stroke="url(#B)" d="M322.53 216.24h-.15v.03h.15zm51.5 52.05c-.02-.56-.05-1.21-.1-1.96-.17-2.49-.54-5.96-1.37-9.89-1.67-7.89-5.13-17.41-12.2-24.48-6.47-6.46-14.97-9.91-22.42-11.73a71 71 0 0 0-13.91-1.94c.02.55.05 1.21.1 1.95.17 2.49.55 5.97 1.38 9.89 1.66 7.9 5.12 17.41 12.19 24.48 7.08 7.08 16.59 10.53 24.49 12.2 3.92.83 7.4 1.21 9.89 1.38.74.05 1.4.07 1.95.1Zm0-104.06c-.55.02-1.21.05-1.95.1-2.49.16-5.97.54-9.89 1.37-7.9 1.67-17.41 5.12-24.49 12.2-7.07 7.07-10.53 16.59-12.19 24.48-.83 3.93-1.21 7.4-1.38 9.89-.05.75-.08 1.4-.1 1.95 2.72-.09 7.92-.48 13.91-1.94 7.45-1.82 15.95-5.27 22.42-11.73 7.07-7.07 10.53-16.58 12.2-24.48.83-3.93 1.2-7.4 1.37-9.89.05-.75.08-1.4.1-1.95Z"/><path stroke="url(#C)" d="M217.33 109.99c2.71.11 7.92.52 13.9 2.02 7.44 1.86 15.92 5.36 22.35 11.86 7.03 7.12 10.43 16.65 12.05 24.55a71 71 0 0 1 1.32 9.9c.05.75.07 1.4.09 1.95-.55-.02-1.21-.05-1.95-.11-2.49-.18-5.96-.58-9.89-1.43-7.88-1.71-17.37-5.22-24.41-12.34-7.03-7.11-10.43-16.64-12.05-24.55a71 71 0 0 1-1.32-9.9c-.04-.74-.07-1.4-.09-1.95Zm.03-4.07c.02-.55.05-1.2.11-1.95.18-2.49.57-5.96 1.43-9.88 1.71-7.89 5.22-17.38 12.34-24.41 7.11-7.04 16.64-10.44 24.55-12.06 3.93-.81 7.41-1.16 9.9-1.32.74-.04 1.4-.07 1.95-.08-.02.55-.06 1.2-.11 1.95-.18 2.49-.58 5.96-1.43 9.88-1.72 7.89-5.22 17.38-12.34 24.41-6.5 6.43-15.02 9.82-22.49 11.6a70.5 70.5 0 0 1-13.91 1.86Zm-1.67 2.01h.15v.03h-.15z"/></g></g><defs><linearGradient id="a" x1="242.03" x2="242.03" y1="324.13" y2="216.01" gradientUnits="userSpaceOnUse"><stop stop-color="#fcf0d6"/><stop offset="1" stop-color="#ffc446"/></linearGradient><linearGradient id="b" x1="294.59" x2="295.22" y1="324.16" y2="216.04" gradientUnits="userSpaceOnUse"><stop stop-color="#fcf0d6"/><stop offset="1" stop-color="#ffc446"/></linearGradient><linearGradient id="c" x1="135.03" x2="135.03" y1="216.13" y2="108.01" gradientUnits="userSpaceOnUse"><stop stop-color="#fcf0d6"/><stop offset="1" stop-color="#ffc446"/></linearGradient><linearGradient id="d" x1="187.59" x2="188.22" y1="216.16" y2="108.04" gradientUnits="userSpaceOnUse"><stop stop-color="#fcf0d6"/><stop offset="1" stop-color="#ffc446"/></linearGradient><linearGradient id="e" x1="135.03" x2="135.03" y1="108.13" y2="0" gradientUnits="userSpaceOnUse"><stop stop-color="#fcf0d6"/><stop offset="1" stop-color="#ffc446"/></linearGradient><linearGradient id="f" x1="27" x2="27" y1="216.32" y2="162.32" gradientUnits="userSpaceOnUse"><stop stop-color="#fcf0d6"/><stop offset="1" stop-color="#ffc446"/></linearGradient><linearGradient id="g" x1="81.03" x2="81.03" y1="216.32" y2="108.19" gradientUnits="userSpaceOnUse"><stop stop-color="#fcf0d6"/><stop offset="1" stop-color="#ffc446"/></linearGradient><linearGradient id="h" x1="349.03" x2="349.03" y1="270.32" y2="162.19" gradientUnits="userSpaceOnUse"><stop stop-color="#fcf0d6"/><stop offset="1" stop-color="#ffc446"/></linearGradient><linearGradient id="i" x1="242.03" x2="242.65" y1="162.16" y2="54.04" gradientUnits="userSpaceOnUse"><stop stop-color="#fcf0d6"/><stop offset="1" stop-color="#ffc446"/></linearGradient><linearGradient id="k" x1="242.03" x2="242.03" y1="324.13" y2="216.01" gradientUnits="userSpaceOnUse"><stop stop-color="#ffc446"/><stop offset="1" stop-color="#fcf0d6"/></linearGradient><linearGradient id="l" x1="294.59" x2="295.22" y1="324.16" y2="216.04" gradientUnits="userSpaceOnUse"><stop stop-color="#ffc446"/><stop offset="1" stop-color="#fcf0d6"/></linearGradient><linearGradient id="m" x1="135.03" x2="135.03" y1="216.13" y2="108.01" gradientUnits="userSpaceOnUse"><stop stop-color="#ffc446"/><stop offset="1" stop-color="#fcf0d6"/></linearGradient><linearGradient id="n" x1="187.59" x2="188.22" y1="216.16" y2="108.04" gradientUnits="userSpaceOnUse"><stop stop-color="#ffc446"/><stop offset="1" stop-color="#fcf0d6"/></linearGradient><linearGradient id="o" x1="135.03" x2="135.03" y1="108.13" y2="0" gradientUnits="userSpaceOnUse"><stop stop-color="#ffc446"/><stop offset="1" stop-color="#fcf0d6"/></linearGradient><linearGradient id="p" x1="27" x2="27" y1="216.32" y2="162.32" gradientUnits="userSpaceOnUse"><stop stop-color="#ffc446"/><stop offset="1" stop-color="#fcf0d6"/></linearGradient><linearGradient id="q" x1="81.03" x2="81.03" y1="216.32" y2="108.19" gradientUnits="userSpaceOnUse"><stop stop-color="#ffc446"/><stop offset="1" stop-color="#fcf0d6"/></linearGradient><linearGradient id="r" x1="349.03" x2="349.03" y1="270.32" y2="162.19" gradientUnits="userSpaceOnUse"><stop stop-color="#ffc446"/><stop offset="1" stop-color="#fcf0d6"/></linearGradient><linearGradient id="s" x1="242.03" x2="242.65" y1="162.16" y2="54.04" gradientUnits="userSpaceOnUse"><stop stop-color="#ffc446"/><stop offset="1" stop-color="#fcf0d6"/></linearGradient><linearGradient id="u" x1="242.03" x2="242.03" y1="324.13" y2="216.01" gradientUnits="userSpaceOnUse"><stop stop-color="#ffc446"/><stop offset="1" stop-color="#fcf0d6"/></linearGradient><linearGradient id="v" x1="294.59" x2="295.22" y1="324.16" y2="216.04" gradientUnits="userSpaceOnUse"><stop stop-color="#ffc446"/><stop offset="1" stop-color="#fcf0d6"/></linearGradient><linearGradient id="w" x1="135.03" x2="135.03" y1="216.13" y2="108.01" gradientUnits="userSpaceOnUse"><stop stop-color="#ffc446"/><stop offset="1" stop-color="#fcf0d6"/></linearGradient><linearGradient id="x" x1="187.59" x2="188.22" y1="216.16" y2="108.04" gradientUnits="userSpaceOnUse"><stop stop-color="#ffc446"/><stop offset="1" stop-color="#fcf0d6"/></linearGradient><linearGradient id="y" x1="135.03" x2="135.03" y1="108.13" y2="0" gradientUnits="userSpaceOnUse"><stop stop-color="#ffc446"/><stop offset="1" stop-color="#fcf0d6"/></linearGradient><linearGradient id="z" x1="27" x2="27" y1="216.32" y2="162.32" gradientUnits="userSpaceOnUse"><stop stop-color="#ffc446"/><stop offset="1" stop-color="#fcf0d6"/></linearGradient><linearGradient id="A" x1="81.03" x2="81.03" y1="216.32" y2="108.19" gradientUnits="userSpaceOnUse"><stop stop-color="#ffc446"/><stop offset="1" stop-color="#fcf0d6"/></linearGradient><linearGradient id="B" x1="349.03" x2="349.03" y1="270.32" y2="162.19" gradientUnits="userSpaceOnUse"><stop stop-color="#ffc446"/><stop offset="1" stop-color="#fcf0d6"/></linearGradient><linearGradient id="C" x1="242.03" x2="242.65" y1="162.16" y2="54.04" gradientUnits="userSpaceOnUse"><stop stop-color="#ffc446"/><stop offset="1" stop-color="#fcf0d6"/></linearGradient><filter id="j" width="376.06" height="325.12" x="0" y="-.8" color-interpolation-filters="sRGB" filterUnits="userSpaceOnUse"><feFlood flood-opacity="0" result="BackgroundImageFix"/><feBlend in="SourceGraphic" in2="BackgroundImageFix" result="shape"/><feColorMatrix in="SourceAlpha" result="hardAlpha" values="0 0 0 0 0 0 0 0 0 0 0 0 0 0 0 0 0 0 127 0"/><feOffset dy="-1"/><feGaussianBlur stdDeviation=".4"/><feComposite in2="hardAlpha" k2="-1" k3="1" operator="arithmetic"/><feColorMatrix values="0 0 0 0 0.98 0 0 0 0 0.52 0 0 0 0 0.00 0 0 0 1 0"/><feBlend in2="shape" result="effect1_innerShadow_24_5411"/><feColorMatrix in="SourceAlpha" result="hardAlpha" values="0 0 0 0 0 0 0 0 0 0 0 0 0 0 0 0 0 0 127 0"/><feOffset dy="1"/><feComposite in2="hardAlpha" k2="-1" k3="1" operator="arithmetic"/><feColorMatrix values="0 0 0 0 1 0 0 0 0 1 0 0 0 0 1 0 0 0 1 0"/><feBlend in2="effect1_innerShadow_24_5411" result="effect2_innerShadow_24_5411"/></filter><filter id="t" width="376.06" height="325.12" x="0" y="-.8" color-interpolation-filters="sRGB" filterUnits="userSpaceOnUse"><feFlood flood-opacity="0" result="BackgroundImageFix"/><feBlend in="SourceGraphic" in2="BackgroundImageFix" result="shape"/><feColorMatrix in="SourceAlpha" result="hardAlpha" values="0 0 0 0 0 0 0 0 0 0 0 0 0 0 0 0 0 0 127 0"/><feOffset dy="-1"/><feGaussianBlur stdDeviation=".4"/><feComposite in2="hardAlpha" k2="-1" k3="1" operator="arithmetic"/><feColorMatrix values="0 0 0 0 0.98 0 0 0 0 0.52 0 0 0 0 0.00 0 0 0 1 0"/><feBlend in2="shape" result="effect1_innerShadow_24_5411"/><feColorMatrix in="SourceAlpha" result="hardAlpha" values="0 0 0 0 0 0 0 0 0 0 0 0 0 0 0 0 0 0 127 0"/><feOffset dy="1"/><feComposite in2="hardAlpha" k2="-1" k3="1" operator="arithmetic"/><feColorMatrix values="0 0 0 0 1 0 0 0 0 1 0 0 0 0 1 0 0 0 1 0"/><feBlend in2="effect1_innerShadow_24_5411" result="effect2_innerShadow_24_5411"/></filter></defs></svg>