<svg xmlns="http://www.w3.org/2000/svg" width="4035" height="2139" fill="none" xmlns:v="https://vecta.io/nano"><style><![CDATA[.B{fill:#d9d9d9}.C{fill-rule:evenodd}.D{fill:#f0b91f}.E{fill:#be8b26}.F{color-interpolation-filters:sRGB}.G{flood-opacity:0}.H{fill:#111113}.I{fill:#9a7335}.J{fill:#fcf0d6}.K{fill:#745328}.L{fill:#3f3330}]]></style><use href="#BL" class="B"/><use href="#BL" fill="url(#W)"/><g class="C"><use href="#BM" class="D"/><use href="#BM" class="E"/></g><use href="#BN" class="B"/><use href="#BN" fill="url(#X)"/><use href="#BO" class="D"/><use href="#BO" class="E"/><use href="#BP" class="B"/><use href="#BP" fill="url(#Y)"/><use href="#BQ" class="D"/><use href="#BQ" class="E"/><use href="#BR" class="B"/><use href="#BR" fill="url(#Z)"/><g class="C"><use href="#BS" class="D"/><use href="#BS" class="E"/></g><use href="#BT" class="B"/><use href="#BT" fill="url(#a)"/><use href="#BU" class="D"/><use href="#BU" class="E"/><use href="#BV" class="B"/><use href="#BV" fill="url(#b)"/><use href="#BW" class="D"/><use href="#BW" class="E"/><use href="#BX" class="B"/><use href="#BX" fill="url(#c)"/><path d="M1064.81 303.646c1.61-1.2-1.19-10.575 4.71-9.922 11.35 1.224 15.74 8.862 23.18 15.029-4.95 87.722 24.18 113.294-25.31 240.354-61.78 158.624-83.154 494.463-111.82 392.301-9.94-35.429 80.9-363.818 79.47-500.536-.28-26.896 8.85-79.626 11.57-102.086 3.85-31.757-.51-15.23 7.06-21.854.56-8.76 1.02-6.062 11.03-13.306l.11.02z" class="D"/><use href="#BY" class="B"/><use href="#BY" fill="url(#d)"/><path d="M1015.19 323.171c1.24-1.024 2.22-3.422 6.16-2.7 7.6 1.361 7.93 2.258 12.24 7.904-14.3 77.634-28.63 137.151-69.473 255.167-54.002 156.025-83.439 414.4-155.172 415.852-25.29.512 127.219-344.073 125.675-483.019-.268-24.052 15.946-70.363 20.6-90.204 6.578-28.055 47.95-51.487 53.45-80.241 1.47-7.751-1.29-16.602 6.44-22.779l.08.02z" class="D"/><use href="#BZ" class="J"/><use href="#BZ" fill="url(#e)"/><path d="M947.329 399.991c-.48 1.366-.891 2.535-1.416 2.784l-.078-.04c-6.79 3.104-7.935 8.89-9.079 14.668-.462 2.333-.924 4.665-1.757 6.819-4.614 11.889-8.772 24.711-12.949 37.592-5.579 17.204-11.192 34.513-17.969 49.836-8.383 18.95-24.897 68.824-33.566 91.755-20.962 55.452-77.35 168.121-121.232 246.651-32.341 57.876-119.84 243.074-120.933 256.914-2.421 30.65 11.363 22.72 32.727-5.81l11.74-41.3c1.625-5.72 9.597-6.06 11.701-.5l1.722 4.55c44.019-70.117 162.952-320.947 190.022-383.914 31.358-72.942 46.986-128.361 60.846-177.509 8.902-31.567 17.074-60.548 28.217-89.923-.962-1.707-1.753-3.458-2.528-5.174-2.303-5.096-4.466-9.886-10.558-12.313-2.788-1.122-3.979 2.267-4.91 4.914z" class="C D"/><use href="#Ba" class="J"/><use href="#Ba" fill="url(#f)"/><path d="M856.928 527.739c-.525 1.19-.975 2.209-1.501 2.364l-.075-.048c-6.793 1.899-8.146 7.066-9.497 12.227-.545 2.083-1.09 4.166-1.993 6.032-5 10.298-25.174 31.724-29.784 42.997-6.157 15.058-19.975 40.072-27.235 53.228-8.981 16.269-33.423 55.877-41.602 76.361-23.937 59.947-153.976 246.071-200.177 312.2-34.05 48.73-61.33 87.78-62.947 100.38-2.64 20.55-1.844 27.54 5.144 26.76l27.764-62.49c2.75-6.19 12.079-2.96 10.413 3.6l-10.176 40.09c51.109-52.19 214.72-316.874 250.172-382.937 48.019-89.479 71.545-117.683 94.229-165.683 3.442-7.284 109.133-205.248 113.209-213.832-3.486-6.782-103.052 149.059-110.926 144.919-2.696-1.427-3.999 1.526-5.018 3.832z" class="C D"/><use href="#Bb" class="B"/><use href="#Bb" fill="url(#g)"/><path d="M750.966 633.463c1.639-.087-9.035 19.094-5.368 22.211 7.071 5.976 19.622-13.667 21.768-6.102-44 57.441-132.527 211.43-202.031 301.509C429.436 1127.21 420.179 1115.4 353.113 1151.05c-35.856 19.07 161.357-177.855 223.784-271.518 12.28-18.426 40.32-56.587 52.565-70.634 17.312-19.864 89.78-138.922 106.281-160.068 4.44-5.705 5.065-15.037 15.157-15.431l.066.064z" class="D"/><use href="#Bc" class="B"/><use href="#Bc" fill="url(#h)"/><path d="M738.344 630.374c1.774-.093 6.289-8.084 9.441-4.831 6.088 6.236 3.693 13.743 4.124 21.644-61.166 60.054-136.506 147.467-227.745 246.056-40.563 43.83-190.686 139.177-203.47 177.027-40.49 60.76-132.594 95.13-79.822 35 30.83-29.56 223.48-188.872 313.255-286.787 17.661-19.262 57.023-59.158 73.568-73.845 23.392-20.77 67.755-76.087 90.595-98.195 6.15-5.965 9.114-15.714 19.999-16.136l.055.067z" class="D"/><use href="#Bd" class="B"/><use href="#Bd" fill="url(#i)"/><path d="M640.556 699.167c-3.306-5.005 1.867.525 0 0 6.385 9.61 4.874-7.444 5.301 2.122-57.281 51.977-119.863 114.563-218.518 199.424C357.865 960.474 78.514 1142 199.277 1033.31c10.262-9.24 16.783-14.61 37.79-29.72.927-.66 2.092-.92 3.224-.78 16.625 1.99 33.053-8.641 35.229-16.208.97-3.374-.006-9.265 2.848-11.308 42.647-30.524 90.311-65.316 153.214-117.011 19.295-15.858 91.937-66.095 112.442-80.619 25.458-18.033 48.795-37.127 65.768-51.978 9.031-7.903 18.032-18.033 30.764-26.519z" class="D"/><g filter="url(#C)"><use href="#Be" class="B"/><use href="#Be" fill="url(#j)"/><use href="#Bf" class="B"/><use href="#Bf" fill="url(#k)"/><use href="#Bg" class="B"/><use href="#Bg" fill="url(#l)"/><use href="#Bh" class="B"/><use href="#Bh" fill="url(#m)"/><use href="#Bi" class="B"/><use href="#Bi" fill="url(#n)"/><use href="#Bj" class="B"/><use href="#Bj" fill="url(#o)"/><use href="#Bk" class="B"/><use href="#Bk" fill="url(#p)"/><use href="#Bl" class="B"/><use href="#Bl" fill="url(#q)"/><use href="#Bm" class="B"/><use href="#Bm" fill="url(#r)"/><use href="#Bn" class="B"/><use href="#Bn" fill="url(#s)"/><use href="#Bo" class="B"/><use href="#Bo" fill="url(#t)"/><use href="#Bp" class="B"/><use href="#Bp" fill="url(#u)"/><use href="#Bq" class="B"/><use href="#Bq" fill="url(#v)"/><use href="#Br" class="B"/><use href="#Br" fill="url(#w)"/><use href="#Bs" class="B"/><use href="#Bs" fill="url(#x)"/></g><path d="M1860.44 485.95l-28.66 103.956c-6.36 25.458-7.42 46.089-7.42 51.978 0 15.911-15.27 76.357-11.33 114.394-1.96 7.771-5.13 78.564-18.37 74.423-16.55-5.177-30.32-126.274-27.38-137.93 2.95-11.657 7.45-39.733-2.62-25.412s-31.55-.152-30.27-7.252c3.17-17.591-7.77-33.811-6.31-42.205-4.39-1.606-48.18 13.862-55.66-13.461-11.09-40.506 8.4-45.115-10.84-72.795-8.34-12.012-31.33 6.198-47.24-5.387-34.86-25.379-34.29-1.401-60.46-22.276-15.96-12.729 3.03-22.105-10.6-28.603-8.95-4.267-19.11 8.448-22.29 3.144-7.11-11.852-9.99-21.769-7.61-24.714-6.05 2.801-17.91 6.051-28.27 1.533-14.35-6.256 9.19-24.815 7.67-33.954-1.51-9.138-26.64 17.5-34.39 5.158-6.2-9.873 2.79-21.571 6.36-26.519 4.61-6.365 21.22-18.033 10.61-23.337-17.87-8.935-19.09 9.548-27.58-9.547-11.21-25.222-26.87-2.121-40.31-22.276-17.11-25.672-40.98 2.765-58.34-18.033-23.32-27.936-31.75 14.869-65.77 18.033-45.61 4.243 3.19-45.445-36.06-22.277-83.88 49.51-57.28 10.608-50.5 0 34.7-54.237-126.65 22.276-93.76-24.397 32.88-46.673 191.98-103.956 260.95-103.956 68.96 0 203.19 75.998 272.97 143.036 37.33 35.858 93.63 6.665 114.22 46.842 26.09 50.917 48.77 78.704 55.48 89.777 14.38 23.697 50.4 11.698 53.78 12.057z" fill="url(#y)"/><g filter="url(#D)"><use href="#Bt" class="B"/><use href="#Bt" fill="url(#z)"/></g><use href="#Bu" class="B"/><use href="#Bu" fill="url(#AA)"/><g class="C"><use href="#Bv" class="D"/><use href="#Bv" class="E"/></g><use href="#Bw" class="B"/><use href="#Bw" fill="url(#AB)"/><use href="#Bx" class="D"/><use href="#Bx" class="E"/><use href="#By" class="B"/><use href="#By" fill="url(#AC)"/><use href="#Bz" class="D"/><use href="#Bz" class="E"/><use href="#CA" class="B"/><use href="#CA" fill="url(#AD)"/><g class="C"><use href="#CB" class="D"/><use href="#CB" class="E"/></g><use href="#CC" class="B"/><use href="#CC" fill="url(#AE)"/><use href="#CD" class="D"/><use href="#CD" class="E"/><use href="#CE" class="B"/><use href="#CE" fill="url(#AF)"/><use href="#CF" class="D"/><use href="#CF" class="E"/><use href="#CG" class="B"/><use href="#CG" fill="url(#AG)"/><path d="M2909.51 303.646c-1.61-1.2 1.18-10.575-4.71-9.922-11.36 1.224-15.74 8.862-23.18 15.029 4.95 87.722-24.19 113.294 25.3 240.354 61.78 158.624 83.16 494.463 111.83 392.301 9.94-35.429-80.9-363.818-79.48-500.536.28-26.896-8.84-79.626-11.56-102.086-3.85-31.757.5-15.23-7.06-21.854-.57-8.76-1.02-6.062-11.03-13.306l-.11.02z" class="D"/><use href="#CH" class="B"/><use href="#CH" fill="url(#AH)"/><path d="M2959.13 323.171c-1.25-1.025-2.22-3.422-6.17-2.7-7.59 1.361-7.92 2.257-12.23 7.904 14.3 77.634 28.62 137.15 69.47 255.167 54 156.025 83.44 414.4 155.17 415.852 25.29.512-127.22-344.073-125.67-483.019.26-24.053-15.95-70.363-20.6-90.204-6.58-28.055-47.95-51.487-53.45-80.241-1.48-7.751 1.29-16.602-6.45-22.78l-.07.021z" class="D"/><use href="#CI" class="J"/><use href="#CI" fill="url(#AI)"/><path d="M3026.99 399.991c.48 1.366.89 2.535 1.41 2.784l.08-.04c6.79 3.104 7.93 8.89 9.08 14.668.46 2.333.92 4.665 1.76 6.819 4.61 11.889 8.77 24.711 12.94 37.592 5.58 17.204 11.2 34.513 17.97 49.836 8.39 18.95 24.9 68.824 33.57 91.755 20.96 55.452 77.35 168.121 121.23 246.651 32.34 57.876 119.84 243.074 120.93 256.914 2.43 30.65-11.36 22.72-32.72-5.81l-11.74-41.3c-1.63-5.72-9.6-6.06-11.7-.5l-1.73 4.55c-44.01-70.117-162.95-320.947-190.02-383.914-31.36-72.942-46.98-128.361-60.84-177.509-8.91-31.567-17.08-60.548-28.22-89.923.96-1.707 1.75-3.458 2.53-5.174 2.3-5.096 4.46-9.886 10.56-12.313 2.78-1.122 3.97 2.267 4.91 4.914z" class="C D"/><use href="#CJ" class="J"/><use href="#CJ" fill="url(#AJ)"/><path d="M3117.39 527.739c.52 1.19.97 2.209 1.5 2.364l.07-.048c6.8 1.899 8.15 7.066 9.5 12.227.55 2.083 1.09 4.166 1.99 6.032 5 10.298 25.18 31.724 29.79 42.997 6.15 15.058 19.97 40.072 27.23 53.228 8.98 16.269 33.43 55.877 41.6 76.361 23.94 59.947 153.98 246.071 200.18 312.2 34.05 48.73 61.33 87.78 62.95 100.38 2.64 20.55 1.84 27.54-5.15 26.76l-27.76-62.49c-2.75-6.19-12.08-2.96-10.41 3.6l10.17 40.09c-51.11-52.19-214.72-316.874-250.17-382.937-48.02-89.479-71.54-117.683-94.23-165.683-3.44-7.284-109.13-205.248-113.21-213.832 3.49-6.782 103.05 149.059 110.93 144.919 2.7-1.427 4 1.526 5.02 3.832z" class="C D"/><use href="#CK" class="B"/><use href="#CK" fill="url(#AK)"/><path d="M3223.35 633.463c-1.64-.087 9.03 19.094 5.37 22.211-7.07 5.976-19.62-13.667-21.77-6.102 44 57.441 132.53 211.43 202.03 301.509 135.9 176.129 145.16 164.319 212.22 199.969 35.86 19.07-161.35-177.855-223.78-271.518-12.28-18.426-40.32-56.587-52.57-70.634-17.31-19.864-89.78-138.922-106.28-160.068-4.44-5.705-5.06-15.036-15.15-15.431l-.07.064z" class="D"/><use href="#CL" class="B"/><use href="#CL" fill="url(#AL)"/><path d="M3235.97 630.374c-1.77-.093-6.29-8.084-9.44-4.831-6.09 6.235-3.69 13.743-4.13 21.644 61.17 60.053 136.51 147.467 227.75 246.056 40.56 43.83 190.69 139.177 203.47 177.027 40.49 60.76 132.59 95.13 79.82 35-30.83-29.56-223.48-188.872-313.25-286.787-17.66-19.262-57.03-59.158-73.57-73.845-23.39-20.77-67.76-76.087-90.6-98.195-6.15-5.965-9.11-15.714-20-16.136l-.05.067z" class="D"/><use href="#CM" class="B"/><use href="#CM" fill="url(#AM)"/><path d="M3333.76 699.165c3.31-5.005-1.87.525 0 0-6.39 9.61-4.87-7.444-5.3 2.122 57.28 51.977 119.86 114.563 218.52 199.424 69.47 59.761 348.82 241.289 228.06 132.599-10.26-9.24-16.78-14.61-37.79-29.72-.93-.66-2.09-.92-3.23-.79-16.62 2-33.05-8.633-35.22-16.2-.97-3.374 0-9.265-2.85-11.308-42.65-30.524-90.31-65.316-153.22-117.011-19.29-15.858-91.93-66.095-112.44-80.619-25.46-18.033-48.79-37.127-65.77-51.978-9.03-7.903-18.03-18.033-30.76-26.519z" class="D"/><g filter="url(#E)"><use href="#CN" class="B"/><use href="#CN" fill="url(#AN)"/><use href="#CO" class="B"/><use href="#CO" fill="url(#AO)"/><use href="#CP" class="B"/><use href="#CP" fill="url(#AP)"/><use href="#CQ" class="B"/><use href="#CQ" fill="url(#AQ)"/><use href="#CR" class="B"/><use href="#CR" fill="url(#AR)"/><use href="#CS" class="B"/><use href="#CS" fill="url(#AS)"/><use href="#CT" class="B"/><use href="#CT" fill="url(#AT)"/><use href="#CU" class="B"/><use href="#CU" fill="url(#AU)"/><use href="#CV" class="B"/><use href="#CV" fill="url(#AV)"/><use href="#CW" class="B"/><use href="#CW" fill="url(#AW)"/><use href="#CX" class="B"/><use href="#CX" fill="url(#AX)"/><use href="#CY" class="B"/><use href="#CY" fill="url(#AY)"/><use href="#CZ" class="B"/><use href="#CZ" fill="url(#AZ)"/><use href="#Ca" class="B"/><use href="#Ca" fill="url(#Aa)"/><use href="#Cb" class="B"/><use href="#Cb" fill="url(#Ab)"/></g><path d="M2113.89 485.95c9.14 34.596 25.52 84.862 28.7 97.591 6.36 25.459 7.42 46.09 7.42 51.978 0 15.912 15.23 82.722 11.29 120.759 1.96 7.772 6.24 91.293 19.48 87.152 16.55-5.177 29.21-139.003 26.26-150.659-2.94-11.657-7.44-39.732 2.63-25.412s31.55-.152 30.27-7.252c-3.17-17.591 7.77-33.811 6.31-42.205 4.39-1.606 48.18 13.862 55.66-13.461 11.09-40.506-8.4-45.115 10.83-72.795 8.35-12.012 31.34 6.198 47.25-5.387 34.85-25.379 34.29-1.401 60.46-22.276 15.96-12.729-3.03-22.105 10.6-28.603 8.95-4.267 19.1 8.448 22.28 3.144 7.12-11.852 10-21.769 7.62-24.713 6.05 2.8 17.91 6.05 28.27 1.532 14.35-6.256-9.19-24.815-7.67-33.954 1.51-9.138 26.64 17.5 34.39 5.158 6.2-9.873-2.79-21.571-6.37-26.519-4.6-6.365-21.21-18.033-10.61-23.337 17.87-8.935 19.1 9.548 27.58-9.547 11.21-25.222 26.88-2.121 40.31-22.276 17.12-25.672 40.98 2.765 58.35-18.033 23.32-27.936 31.75 14.869 65.76 18.033 45.62 4.243-3.18-45.445 36.07-22.277 83.87 49.51 57.28 10.609 50.49 0-34.69-54.237 126.65 22.276 93.77-24.397s-191.99-103.956-260.95-103.956-203.19 75.998-272.98 143.036c-37.32 35.858-93.63 6.665-114.21 46.842-26.09 50.917-48.77 78.705-55.49 89.777-14.37 23.697-50.39 11.698-53.77 12.057z" fill="url(#Ac)"/><g filter="url(#F)"><use href="#Cc" class="B"/><use href="#Cc" fill="url(#Ad)"/></g><path d="M2073.29 2108.96c-14.15-.66-4.88-883.21-101.32-889.33V933.595l105.92 46.858s213.35 211.337 263.66 350.827c17.62 48.84 48.82 123.6 28.46 125.48-20.37 1.88-69.92-160.98-147.11-218.45 96.77 135.7 175.33 424.34 156.47 423.46-18.86-.87-84.18-312.52-293.09-483.4 0 0 159.55 178.47 197.04 295.54 22.97 71.72 39.46 185.24 20.59 184.37-18.86-.88-60.95-154.94-108.03-254.74 0 0 59.75 210.17 60.13 342.82.14 49.62-11.53 127.85-25.68 127.2-14.14-.66-35.7-261.37-96.13-427.72 0 0 54.33 354.8-12.26 573.66-12.27 40.35-34.5 90.11-48.65 89.46z" fill="url(#Ae)"/><path d="M1964.01 2132.47c-70.91-123.81-32.44-635.05-12.79-869.83 0-29 28.7-79.14 55.41-9.55 33.38 86.98 7.81 967.42-42.62 879.38z" fill="url(#Af)"/><path d="M1877.42 2110.28c14.15-.65 4.88-883.21 101.32-889.33l-1.29-287.355-104.63 48.18s-213.35 211.335-263.67 350.825c-17.61 48.84-48.81 123.6-28.45 125.48 20.37 1.88 69.92-160.97 147.11-218.45-96.77 135.7-175.34 424.34-156.47 423.46 18.86-.87 84.18-312.52 293.09-483.4 0 0-159.56 178.47-197.04 295.54-22.97 71.72-39.46 185.24-20.59 184.37 18.86-.88 60.95-154.94 108.03-254.73 0 0-59.75 210.17-60.13 342.81-.14 49.63 11.53 127.86 25.67 127.2 14.15-.66 35.71-261.36 96.14-427.72 0 0-54.33 354.81 12.25 573.67 12.28 40.34 34.51 90.11 48.66 89.45z" fill="url(#Ag)"/><g filter="url(#G)" class="C"><g filter="url(#H)"><use href="#Cd" fill="url(#Ah)"/><use href="#Cd" fill="url(#Ai)"/></g><g filter="url(#I)"><use href="#Ce" fill="url(#Aj)"/><use href="#Ce" fill="url(#Ak)"/></g><g filter="url(#J)"><use href="#Cf" fill="url(#Al)"/><use href="#Cf" fill="url(#Am)"/></g><g filter="url(#K)"><use href="#Cg" fill="url(#An)"/><use href="#Cg" fill="url(#Ao)"/></g><use href="#Ch" class="D"/><use href="#Ch" class="E"/><use href="#Ci" class="D"/><use href="#Ci" class="E"/><use href="#Cj" class="D"/><use href="#Cj" class="E"/><use href="#Ck" class="D"/><use href="#Ck" class="E"/><g filter="url(#L)"><use href="#Cl" fill="url(#Ap)"/><use href="#Cl" fill="url(#Aq)"/></g><g filter="url(#M)"><use href="#Cm" fill="url(#Ar)"/><use href="#Cm" fill="url(#As)"/></g><g filter="url(#N)"><use href="#Cn" fill="url(#At)"/><use href="#Cn" fill="url(#Au)"/></g><use href="#Co" class="D"/><use href="#Co" class="E"/><use href="#Cp" class="D"/><use href="#Cp" class="E"/><use href="#Cq" class="D"/><use href="#Cq" class="E"/><g filter="url(#O)"><use href="#Cr" fill="url(#Av)"/><use href="#Cr" fill="url(#Aw)"/></g><g filter="url(#P)"><use href="#Cs" fill="url(#Ax)"/><use href="#Cs" fill="url(#Ay)"/></g><use href="#Ct" class="D"/><use href="#Ct" class="E"/><g filter="url(#Q)"><use href="#Cu" fill="url(#Az)"/><use href="#Cu" fill="url(#BA)"/></g><use href="#Cv" class="D"/><use href="#Cv" class="E"/><g filter="url(#R)"><use href="#Cw" fill="url(#BB)"/><use href="#Cw" fill="url(#BC)"/></g><use href="#Cx" class="D"/><use href="#Cx" class="E"/><use href="#Cy" class="D"/><use href="#Cy" class="E"/></g><g filter="url(#S)"><use href="#Cz" class="B"/><use href="#Cz" fill="url(#BD)"/></g><path d="M1932.24 1100.88c9.91 9.18 9.57 55.96 7.43 59.46l-38 17.23-42.32-13.79s-21.21-20.15-20.15-21.21c-2.08-9.59 23.17-37.58 49.86-57.28 15.8-11.67-5.3-135.782-36.22-182.753-15.07-22.911.01-2.886 7.58-2.886 5.21 16.868 26.5 36.386 36.38 79.702 12.34 54.147 11.49 76.367 22.38 93.017s.66 17.04 13.06 28.51zm106.45.04c-9.91 9.17-9.57 55.96-7.43 59.45l38 17.24 42.32-13.79s21.21-20.16 20.15-21.22c2.08-9.59-23.17-37.57-49.86-57.28-15.8-11.67 5.3-135.777 36.22-182.748 15.07-22.911-.01-2.886-7.58-2.886-5.21 16.868-26.5 36.386-36.37 79.702-12.35 54.142-11.5 76.372-22.39 93.012-10.89 16.65-.66 17.05-13.06 28.52z" fill="#74301c"/><g filter="url(#T)"><path d="M1907.33 1158.15c-2.81-12.08-10.77-24.98-14.24-37.29 20.05 4.27 33.57 25.88 14.24 37.29z" fill="#3a2724"/><path d="M1847.34 1264.13c4.58 2.05 8.69 6.17 10.17 7.98 1.06-7.4 5.24-27.45 13.53-49.27 3.59 1.32 6.34 7.54 7.26 10.48-1.01 3.55-2.99 12.06-2.75 17.67.24 5.6 8.46 11.8 12.54 14.2 3.36-3.66 11.72-11.6 18.35-14.13 8.28-3.16 8.66-27.04 9.15-31.97.39-3.95-4.58-14.08-7.12-18.65-.07-12.63.45-38.62 3.13-41.54 3.35-3.66-13.25-47.16-26.47-44.49-13.22 2.68-14.32-6.4-26.26-6.59s-29.08 41.96-34.2 53.41 5.24 7.49 7.91 20.71-4.63 6.52-1.17 21.81c3.47 15.29-2.26 12.73-3.73 27.53-1.17 11.84 3.28 27.23 5.65 33.45 2.76-1.06 9.43-2.65 14.01-.6z" class="K"/><path d="M1880.71 1227.21c1.66-.63 4.71 6.12 6.03 9.57-1.12 1.22-3.07 6.87-1.96 19.74 1.39 16.08 18.27 16.76 23.99 19.32 5.73 2.56 10.85-8.89 26.14-12.35 2.67 13.22-15.18 22.41-21.39 24.78-6.22 2.37-26.26-6.59-29.12-7.88h0c-2.86-1.28-10.47-14.99-12.35-26.14-1.88-11.14 6.59-26.25 8.66-27.04z" class="H"/><path d="M1838.28 1237.94c1.43-1.05 6.16 4.65 8.34 7.63-.75 1.47-1.14 7.43 3.34 19.55 5.61 15.13 22.06 11.32 28.26 12.27s8.1-11.45 21.93-18.84c6.08 12.04-8.7 25.63-14.06 29.57-5.37 3.93-27.06.6-30.16.12h0c-3.1-.48-14.07-11.68-18.84-21.93s-.6-27.06 1.19-28.37z" class="H"/><mask id="A" maskUnits="userSpaceOnUse" x="1823" y="1107" width="93" height="166" mask-type="alpha"><path d="M1847.34 1264.13c4.58 2.05 8.69 6.17 10.17 7.98 1.06-7.4 5.24-27.45 13.53-49.27 3.59 1.32 6.34 7.54 7.26 10.48-1.01 3.55-2.99 12.06-2.75 17.67.24 5.6 8.47 11.8 12.55 14.2 3.35-3.66 11.71-11.6 18.34-14.13 8.29-3.16 8.66-27.04 9.15-31.97.39-3.95-4.58-14.08-7.12-18.65-.07-12.63.45-38.62 3.13-41.54 3.36-3.66-13.25-47.16-26.47-44.49-13.22 2.68-14.32-6.4-26.25-6.59-11.94-.19-29.08 41.96-34.21 53.41-5.12 11.45 5.24 7.49 7.91 20.71 2.68 13.22-4.63 6.52-1.17 21.81 3.47 15.29-2.26 12.73-3.73 27.53-1.17 11.84 3.28 27.23 5.65 33.45 2.76-1.06 9.43-2.65 14.01-.6z" fill="#765e52"/></mask><g mask="url(#A)"><path d="M1895.07 1215.05c.63 1.66 13.35-10.63 19.62-16.98 1.95 7.16 5.55 24.46 4.37 36.3s-25.07 31.73-36.88 40.19l-15.81-41.43 1.66-26.75c.49-4.93 4.14-1.58 11.15-1.88 7-.3-3.77-22.29-2.79-32.16s5.12-11.45 5.91-9.38c.8 2.07 11.98 50.02 12.77 52.09z" class="K"/><path d="M1882.82 1207.86c-1.41 6.23-10.98.24-15.59-3.54l5.01-30.4c1.38-.53 4.3-1.17 4.94.49.79 2.07 7.42 25.65 5.64 33.45z" fill="#37261f"/><path d="M1885.24 1133.36c-8.29 3.16-21.7 17.77-23.77 18.56l-29.16 72.84c-2.66 3.39-6.93 11.67-2.75 17.67 4.19 6 16.39 5.61 16.39 5.61s-14.6 3.2-14.5 5.54c.1 2.33-.83 10.28-.19 11.94.63 1.65 6.31-.04 9.07-1.09l13.04 9.26 1.58 4.15c2.4-4.08 6.6-16.29 7.38-24.19 1.77-7.79 1.47-14.8 4.03-20.52 2.87-6.4 3.35-3.66 5.92-9.38-1.51-8.92-1.76-19.11-1.7-23.09 2.26-12.73 7.32-33.06 13-40.56 12.62-16.69 7.52-28.98 1.66-26.74z" class="I"/><path d="M1868.7 1257.91c-.63-1.66 2.65-63.52 1.02-90.59l-2.67-13.22-6.75 88.03-.98 9.86c-.68 16.88 10.01 7.57 9.38 5.92z" class="L"/><path d="M1835.79 1240.06c-2.77-12.23-6.03-9.56-7.31-6.7-.43.95-1.66.63-3.16-8.29-1.89-11.15 1.77-7.8 3.54-15.59 1.77-7.8-2.67-13.22-2.18-18.16.49-4.93.98-9.87-.61-14.01-1.58-4.14-6.51-4.63-4.74-12.43s25.43-45.3 27.99-51.03c2.05-4.58 8.61-6.45 11.64-6.82 1.21 1.12 3.08 3.1.79 2.07-2.87-1.28-15.49 15.41-.98 9.87 11.6-4.43 10.03-.66 7.79 1.77-1.38.53-5.23 2.47-9.56 6.03-5.43 4.44-.49 4.93 3.95 10.36 4.44 5.42-1.96 19.73-1.66 26.74.3 7-16.54 56.16-19.1 61.88s.11 18.95-6.4 14.31z" class="L"/></g><path d="M1880.72 1133.8c-6.57 5.95-13.76 24.44-15.41 25.92l-1.47 66.82c-1.25 4.12-1.49 25.03 4.58 29.1 6.08 4.07 17.31-.72 17.31-.72s-12.45 8.29-11.5 10.43c.94 2.14 2.96 9.87 4.15 11.19 1.19 1.31 5.3-8.96 7.49-10.94l6.52 4.63c.75-4.67 12.78-8.38 10.64-16.02-1.18-7.91-8.83-11.75-8.52-18.02.34-7 1.79-4.62 2.1-10.88-4.64-7.77-8.57-17.17-9.95-20.9-2.52-12.69-.34-36.04 2.22-45.09 5.71-20.13-3.51-29.73-8.16-25.52z" class="I"/><path d="M1916.18 1186.55c-1.19.26-.39 5.29.17 7.77 1.1.27 4.36 2.77 8.59 10.57 5.28 9.75-4.14 16.52-6.45 20.16-2.32 3.63-9.58-.99-19.66 2.8 3.46 8.6 17.18 7.11 21.64 6.12s12.56-13.71 13.72-15.53c1.15-1.82.33-12.56-2.81-19.66-3.14-7.11-13.71-12.56-15.2-12.23z" class="H"/><path d="M1880.84 1132.99c6.02.92 17.14 8.8 18.64 9.03l26.12 37.76c2.28 1.89 10.33 13.79 8.39 18.42-1.95 4.63-10.2 6.14-10.2 6.14s10.27.04 10.54 1.62 2.04 6.79 1.85 7.99c-.18 1.21-6.42-3.13-8.43-3.44l-1.99 5.12c-2.2-2.39-10.49.03-12.16-5.16-2.31-4.98.62-10.08-1.93-13.55-2.84-3.89-2.78-1.97-5.32-5.45-.28-6.21-1.58-13.09-2.2-15.75-3.36-8.22-13.44-20.79-18.33-25.01-10.89-9.39-9.24-18.38-4.98-17.72z" class="I"/></g><g filter="url(#U)"><path d="M2072.48 1153.47c2.81-12.08 10.78-24.99 14.24-37.29-20.05 4.26-33.57 25.87-14.24 37.29z" fill="#3a2724"/><path d="M2132.48 1259.44c-4.58 2.05-8.69 6.18-10.17 7.99-1.06-7.4-5.24-27.45-13.54-49.27-3.59 1.31-6.33 7.53-7.26 10.48 1.02 3.55 2.99 12.06 2.75 17.66s-8.46 11.8-12.54 14.2c-3.35-3.65-11.71-11.59-18.34-14.12-8.29-3.17-8.67-27.05-9.16-31.98-.39-3.95 4.59-14.08 7.12-18.65.08-12.63-.44-38.62-3.13-41.54-3.35-3.65 13.26-47.15 26.48-44.48s14.31-6.41 26.25-6.6c11.94-.18 29.08 41.96 34.2 53.41 5.13 11.45-5.23 7.5-7.9 20.72-2.68 13.22 4.63 6.51 1.16 21.8-3.46 15.3 2.27 12.73 3.73 27.54 1.18 11.84-3.27 27.23-5.64 33.44-2.77-1.05-9.43-2.65-14.01-.6z" class="K"/><path d="M2099.1 1222.53c-1.66-.64-4.71 6.11-6.02 9.56 1.11 1.22 3.07 6.87 1.96 19.74-1.4 16.08-18.27 16.76-24 19.32-5.72 2.56-10.84-8.89-26.14-12.35-2.67 13.22 15.18 22.41 21.4 24.78 6.21 2.37 26.25-6.59 29.11-7.87h0c2.87-1.28 10.47-14.99 12.36-26.14 1.88-11.15-6.6-26.25-8.67-27.04z" class="H"/><path d="M2141.54 1233.25c-1.43-1.05-6.16 4.65-8.35 7.63.76 1.47 1.15 7.44-3.34 19.55-5.6 15.14-22.05 11.32-28.25 12.27s-8.11-11.44-21.93-18.84c-6.08 12.04 8.69 25.63 14.06 29.57 5.36 3.93 27.06.6 30.16.12h0c3.1-.47 14.07-11.68 18.84-21.93s.6-27.06-1.19-28.37z" class="H"/><mask id="B" maskUnits="userSpaceOnUse" x="2064" y="1103" width="93" height="165" mask-type="alpha"><path d="M2132.47 1259.44c-4.58 2.05-8.69 6.18-10.17 7.99-1.06-7.4-5.24-27.45-13.53-49.27-3.59 1.31-6.34 7.53-7.26 10.48 1.02 3.55 2.99 12.06 2.75 17.66s-8.46 11.8-12.54 14.2c-3.35-3.65-11.72-11.59-18.35-14.12-8.28-3.17-8.66-27.05-9.15-31.98-.39-3.95 4.58-14.08 7.12-18.65.07-12.63-.45-38.62-3.13-41.54-3.35-3.65 13.26-47.15 26.48-44.48s14.31-6.41 26.25-6.6c11.94-.18 29.08 41.96 34.2 53.41s-5.23 7.5-7.91 20.72c-2.67 13.22 4.63 6.51 1.17 21.8-3.46 15.3 2.26 12.73 3.73 27.54 1.18 11.84-3.27 27.23-5.65 33.44-2.76-1.05-9.43-2.65-14.01-.6z" fill="#765e52"/></mask><g mask="url(#B)"><path d="M2084.74 1210.37c-.63 1.65-13.34-10.64-19.62-16.99-1.95 7.17-5.54 24.47-4.37 36.31 1.18 11.84 25.08 31.72 36.88 40.18l15.82-41.43-1.66-26.74c-.49-4.93-4.15-1.58-11.15-1.88-7.01-.3 3.76-22.3 2.78-32.17-.98-9.86-5.12-11.45-5.91-9.37-.79 2.07-11.98 50.02-12.77 52.09z" class="K"/><path d="M2096.99 1203.17c1.42 6.24 10.99.24 15.59-3.54l-5.01-30.39c-1.38-.53-4.3-1.17-4.93.49-.79 2.07-7.42 25.65-5.65 33.44z" fill="#37261f"/><path d="M2094.58 1128.67c8.28 3.17 21.69 17.78 23.76 18.57l29.16 72.84c2.66 3.39 6.94 11.67 2.75 17.67-4.19 5.99-16.38 5.61-16.38 5.61s14.6 3.2 14.5 5.54c-.1 2.33.82 10.28.19 11.93-.64 1.66-6.32-.03-9.08-1.09l-13.03 9.27-1.58 4.14c-2.4-4.08-6.6-16.28-7.39-24.18-1.77-7.79-1.47-14.8-4.03-20.52-2.86-6.4-3.35-3.66-5.91-9.38 1.5-8.92 1.76-19.11 1.69-23.09-2.26-12.73-7.32-33.06-12.99-40.56-12.62-16.69-7.52-28.98-1.66-26.75z" class="I"/><path d="M2111.12 1253.22c.63-1.65-2.66-63.51-1.02-90.58l2.67-13.22 6.75 88.02.97 9.87c.68 16.87-10.01 7.57-9.37 5.91z" class="L"/><path d="M2144.03 1235.38c2.77-12.24 6.02-9.57 7.3-6.71.43.96 1.66.63 3.17-8.29 1.88-11.14-1.77-7.79-3.54-15.59-1.78-7.8 2.67-13.22 2.18-18.15-.49-4.94-.98-9.87.6-14.01s6.52-4.64 4.75-12.43c-1.77-7.8-25.43-45.31-27.99-51.04-2.05-4.58-8.61-6.45-11.64-6.81-1.22 1.12-3.08 3.09-.79 2.07 2.86-1.28 15.48 15.4.98 9.87-11.6-4.43-10.03-.67-7.8 1.77 1.38.52 5.23 2.47 9.57 6.02 5.42 4.45.49 4.94-3.96 10.36-4.44 5.42 1.96 19.74 1.66 26.74-.3 7.01 16.54 56.16 19.1 61.88 2.56 5.73-.11 18.95 6.41 14.32z" class="L"/></g><path d="M2099.09 1129.11c6.57 5.96 13.77 24.44 15.41 25.93l1.47 66.81c1.25 4.13 1.5 25.03-4.58 29.1s-17.31-.71-17.31-.71 12.45 8.28 11.51 10.42-2.97 9.88-4.16 11.19c-1.19 1.32-5.3-8.95-7.49-10.94l-6.52 4.63c-.75-4.67-12.77-8.38-10.64-16.02 1.18-7.9 8.84-11.75 8.53-18.01-.35-7.01-1.8-4.63-2.11-10.89 4.64-7.76 8.57-17.17 9.96-20.9 2.51-12.68.34-36.04-2.23-45.09-5.7-20.12 3.51-29.73 8.16-25.52z" class="I"/><path d="M2063.63 1181.86c1.19.27.39 5.29-.16 7.77-1.1.28-4.36 2.78-8.59 10.58-5.29 9.75 4.13 16.52 6.45 20.15 2.31 3.64 9.58-.99 19.66 2.81-3.47 8.59-17.18 7.11-21.64 6.12-4.47-.99-12.56-13.72-13.72-15.53-1.16-1.82-.33-12.56 2.81-19.67 3.13-7.1 13.71-12.56 15.19-12.23z" class="H"/><path d="M2098.98 1128.3c-6.03.93-17.14 8.8-18.65 9.04l-26.12 37.75c-2.28 1.89-10.33 13.79-8.38 18.42s10.19 6.14 10.19 6.14-10.27.04-10.54 1.62c-.27 1.59-2.03 6.79-1.85 7.99.19 1.21 6.43-3.13 8.44-3.44l1.98 5.13c2.2-2.4 10.5.02 12.17-5.16 2.31-4.98-.62-10.09 1.92-13.56 2.85-3.89 2.78-1.97 5.33-5.45.28-6.2 1.58-13.08 2.2-15.75 3.35-8.22 13.43-20.79 18.33-25.01 10.88-9.38 9.23-18.38 4.98-17.72z" class="I"/></g><g fill="#a01326"><path d="M1985.95 754.41l-12.54 44.934c-1.14 5.487-2.56 9.187-2.56 9.187l2.56-9.187c2.16-10.422 3.29-27.291-8.35-37.482-19.08-16.698-49.18 6.801-66.44-7.452s-53.44-67.66-48.65-87.236c12.03-49.175-11.41-160.926 7.85-199.839 19.27-38.912 54.17-1.459 64.87 4.185 18.24 9.623 3.07 80.683 19.67 92.915 9.51 7.004 26.75 14.11 26.75 14.11l29.26 169.136-12.42 6.729z"/><path d="M1999.5 754.396l12.53 44.934c1.14 5.487 2.57 9.187 2.57 9.187l-2.57-9.187c-2.16-10.422-3.28-27.291 8.36-37.482 19.08-16.698 49.17 6.801 66.44-7.452 17.26-14.252 53.44-67.66 48.65-87.236-12.03-49.175 11.41-160.926-7.85-199.839-19.27-38.912-54.17-1.459-64.87 4.185-18.24 9.623-3.07 80.683-19.68 92.915-9.5 7.004-26.74 14.11-26.74 14.11l-29.27 169.136 12.43 6.729z"/></g><use href="#DA" fill="#f88b13"/><use href="#DA" fill="url(#BE)"/><use href="#DB" fill="#f88b13"/><use href="#DB" fill="url(#BE)"/><path d="M1936.13 443.271c-5.43 2.77-17.2 13.734-17.57 21.449-1.76 12.606 1.17 28.693 0 41.851 3.39 1.174 3.09 6.299 9.13 4.242 5.93-10.417 10.68-22.773 14.29-37.023 14.44-25.366 92.58-32.539 87.96 3.6-8.61-.52-4.61 8.36.12 13.888 1.83 24.974 31.12 32.005 32.82 22.094 2.49-14.657-3.13-62.881-9.94-66.439-16.06-8.399-35.8-9.646-52.05-11.346-18.56-1.909-48.25-.746-64.76 7.684z" fill="#450708"/><use href="#DC" class="B"/><use href="#DC" fill="url(#BF)"/><use href="#DD" class="B"/><use href="#DD" fill="url(#BG)"/><use href="#DE" class="B"/><use href="#DE" fill="#c0897c"/><use href="#DF" class="B"/><use href="#DF" fill="url(#BH)"/><g filter="url(#V)"><path d="M1917.57 556.555l5.8-20.952a3.26 3.26 0 0 1 1.54-1.976c2.42-1.387 5.36.7 4.85 3.45l-1 5.422c-.21 1.134-.08 2.305.38 3.365l4.65 10.851a11.58 11.58 0 0 1 .93 4.534v42.433a11.51 11.51 0 0 0 .52 3.447l27.36 87.144a11.81 11.81 0 0 1 .48 2.356l1.98 20.769 1.64 9.021c.29 1.628 1.03 3.145 2.12 4.391l2.48 2.843c1.79 2.037 4.85 2.339 6.99.688a5.13 5.13 0 0 1 6.07-.136l1.41.984c.49.344.94.748 1.33 1.2 3.35 3.825 9.45 3.345 12.14-.964l6.85-10.961c.54-.871.97-1.81 1.26-2.793l33.6-111.992a11.58 11.58 0 0 0 .49-3.307V592.89v-13.193a4.07 4.07 0 0 1 4.07-4.07c2.52 0 4.43-2.27 4.01-4.755l-2.85-16.694-1.27-24.483c-.12-2.271 2.5-3.615 4.28-2.194.42.338.73.799.88 1.32l6.51 22.297c.39 1.332.53 2.722.42 4.105l-1.84 23.93c-.06.786-.2 1.563-.42 2.32l-48.02 165.753a11.66 11.66 0 0 0-.4 2.112l-7.96 83.589c-.2 2.108-.98 4.12-2.25 5.814l-2.85 3.801a7.46 7.46 0 0 1-7.96 2.709 7.44 7.44 0 0 1-5.34-5.864l-24.5-136.476c-.2-1.147-.58-2.256-1.12-3.29l-4.83-9.264c-.42-.803-.75-1.653-.97-2.532l-20.39-81.565a11.16 11.16 0 0 0-.52-1.591l-6.46-15.693c-.36-.875-.61-1.79-.75-2.726l-3.63-24.97a11.59 11.59 0 0 1 .29-4.725z" fill="url(#BI)"/></g><path d="M1975.59 540.498l4.37-23.678c.14-.752.43-1.47.85-2.11 3.16-4.82 10.65-2.516 10.56 3.247l-.27 16.916a9.53 9.53 0 0 1-1.32 4.682l-3.03 5.122c-2.37 4.003-8.18 3.951-10.47-.093-.71-1.239-.95-2.685-.69-4.086z" fill="url(#BJ)"/><path d="M1994.88 677.639l-.69 5.828c-.51 4.242-5.84 5.83-8.59 2.56a4.91 4.91 0 0 1-1.09-2.438l-13.4-92.375c-.19-1.314-.16-2.65.11-3.951l5.28-25.921a3.97 3.97 0 0 1 .21-.675c1.56-3.717 7.12-2.443 6.91 1.583l-.57 10.644c-.12 2.273 1.18 4.381 3.27 5.288l7.36 3.199a11.45 11.45 0 0 1 2.26 1.306l6.66 4.936c3.86 2.854 5.53 7.799 4.22 12.41l-9.99 34.942c-.25.888-.4 1.803-.43 2.725l-1.52 39.939z" fill="url(#BK)"/><circle cx="16" cy="16" r="16" transform="matrix(-.852392 -.522903 -.522903 .852392 1901.3 501.855)" fill="#2a2a2a"/><circle cx="5.333" cy="5.333" r="5.333" transform="matrix(-.852392 -.522903 -.522903 .852392 1877.55 499.797)" fill="#fff"/><circle cx="2104.24" cy="507.127" r="16" transform="rotate(328.473 2104.24 507.127)" fill="#2a2a2a"/><circle cx="2113.32" cy="501.552" r="5.333" transform="rotate(328.473 2113.32 501.552)" fill="#fff"/><defs><filter id="C" x="635.896" y="132.517" width="1216.76" height="703.748" filterUnits="userSpaceOnUse" class="F"><feFlood result="A" class="G"/><feColorMatrix in="SourceAlpha" values="0 0 0 0 0 0 0 0 0 0 0 0 0 0 0 0 0 0 127 0" result="B"/><feOffset dx="-53.0013" dy="13.2503"/><feGaussianBlur stdDeviation="54.989"/><feComposite in2="B" operator="out"/><feColorMatrix values="0 0 0 0 0 0 0 0 0 0 0 0 0 0 0 0 0 0 0.35 0"/><feBlend in2="A"/><feBlend in="SourceGraphic"/></filter><filter id="D" x="3.865" y="141.509" width="1471.7" height="1023.26" filterUnits="userSpaceOnUse" class="F"><feFlood result="A" class="G"/><feColorMatrix in="SourceAlpha" values="0 0 0 0 0 0 0 0 0 0 0 0 0 0 0 0 0 0 127 0" result="B"/><feOffset dx="27.58" dy="13.2503"/><feGaussianBlur stdDeviation="31.399"/><feComposite in2="B" operator="out"/><feColorMatrix values="0 0 0 0 0 0 0 0 0 0 0 0 0 0 0 0 0 0 0.17 0"/><feBlend in2="A"/><feBlend in="SourceGraphic"/></filter><filter id="E" x="2015.66" y="132.517" width="1216.76" height="703.748" filterUnits="userSpaceOnUse" class="F"><feFlood result="A" class="G"/><feColorMatrix in="SourceAlpha" values="0 0 0 0 0 0 0 0 0 0 0 0 0 0 0 0 0 0 127 0" result="B"/><feOffset dx="-53.0013" dy="13.2503"/><feGaussianBlur stdDeviation="54.989"/><feComposite in2="B" operator="out"/><feColorMatrix values="0 0 0 0 0 0 0 0 0 0 0 0 0 0 0 0 0 0 0.35 0"/><feBlend in2="A"/><feBlend in="SourceGraphic"/></filter><filter id="F" x="2562.41" y="141.509" width="1471.7" height="1023.26" filterUnits="userSpaceOnUse" class="F"><feFlood result="A" class="G"/><feColorMatrix in="SourceAlpha" values="0 0 0 0 0 0 0 0 0 0 0 0 0 0 0 0 0 0 127 0" result="B"/><feOffset dx="27.58" dy="13.2503"/><feGaussianBlur stdDeviation="31.399"/><feComposite in2="B" operator="out"/><feColorMatrix values="0 0 0 0 0 0 0 0 0 0 0 0 0 0 0 0 0 0 0.17 0"/><feBlend in2="A"/><feBlend in="SourceGraphic"/></filter><filter id="G" x="1628.62" y="961.971" width="693.159" height="790.648" filterUnits="userSpaceOnUse" class="F"><feFlood result="A" class="G"/><feColorMatrix in="SourceAlpha" values="0 0 0 0 0 0 0 0 0 0 0 0 0 0 0 0 0 0 127 0" result="B"/><feOffset dy="33.9446"/><feGaussianBlur stdDeviation="27.474"/><feComposite in2="B" operator="out"/><feColorMatrix values="0 0 0 0 0 0 0 0 0 0 0 0 0 0 0 0 0 0 0.25 0"/><feBlend in2="A"/><feBlend in="SourceGraphic"/></filter><filter id="H" x="1672.78" y="987.256" width="223.234" height="243.312" filterUnits="userSpaceOnUse" class="F"><feFlood result="A" class="G"/><feColorMatrix in="SourceAlpha" values="0 0 0 0 0 0 0 0 0 0 0 0 0 0 0 0 0 0 127 0" result="B"/><feOffset dy="1.30023"/><feGaussianBlur stdDeviation="5.396"/><feComposite in2="B" operator="out"/><feColorMatrix values="0 0 0 0 0 0 0 0 0 0 0 0 0 0 0 0 0 0 0.31 0"/><feBlend in2="A"/><feBlend in="SourceGraphic"/></filter><filter id="I" x="2075.83" y="973.483" width="201.79" height="282.547" filterUnits="userSpaceOnUse" class="F"><feFlood result="A" class="G"/><feColorMatrix in="SourceAlpha" values="0 0 0 0 0 0 0 0 0 0 0 0 0 0 0 0 0 0 127 0" result="B"/><feOffset dy="1.30023"/><feGaussianBlur stdDeviation="5.396"/><feComposite in2="B" operator="out"/><feColorMatrix values="0 0 0 0 0 0 0 0 0 0 0 0 0 0 0 0 0 0 0.31 0"/><feBlend in2="A"/><feBlend in="SourceGraphic"/></filter><filter id="J" x="1692.11" y="1006.23" width="241.707" height="338.483" filterUnits="userSpaceOnUse" class="F"><feFlood result="A" class="G"/><feColorMatrix in="SourceAlpha" values="0 0 0 0 0 0 0 0 0 0 0 0 0 0 0 0 0 0 127 0" result="B"/><feOffset dy="1.91819"/><feGaussianBlur stdDeviation="7.96"/><feComposite in2="B" operator="out"/><feColorMatrix values="0 0 0 0 0 0 0 0 0 0 0 0 0 0 0 0 0 0 0.31 0"/><feBlend in2="A"/><feBlend in="SourceGraphic"/></filter><filter id="K" x="2035.73" y="988.011" width="213.569" height="375.555" filterUnits="userSpaceOnUse" class="F"><feFlood result="A" class="G"/><feColorMatrix in="SourceAlpha" values="0 0 0 0 0 0 0 0 0 0 0 0 0 0 0 0 0 0 127 0" result="B"/><feOffset dy="1.91819"/><feGaussianBlur stdDeviation="7.96"/><feComposite in2="B" operator="out"/><feColorMatrix values="0 0 0 0 0 0 0 0 0 0 0 0 0 0 0 0 0 0 0.31 0"/><feBlend in2="A"/><feBlend in="SourceGraphic"/></filter><filter id="L" x="2002.86" y="1039.79" width="162.69" height="527.029" filterUnits="userSpaceOnUse" class="F"><feFlood result="A" class="G"/><feColorMatrix in="SourceAlpha" values="0 0 0 0 0 0 0 0 0 0 0 0 0 0 0 0 0 0 127 0" result="B"/><feOffset dy="1.91819"/><feGaussianBlur stdDeviation="7.96"/><feComposite in2="B" operator="out"/><feColorMatrix values="0 0 0 0 0 0 0 0 0 0 0 0 0 0 0 0 0 0 0.31 0"/><feBlend in2="A"/><feBlend in="SourceGraphic"/></filter><filter id="M" x="2013.81" y="1037.18" width="210.669" height="467.85" filterUnits="userSpaceOnUse" class="F"><feFlood result="A" class="G"/><feColorMatrix in="SourceAlpha" values="0 0 0 0 0 0 0 0 0 0 0 0 0 0 0 0 0 0 127 0" result="B"/><feOffset dy="1.91819"/><feGaussianBlur stdDeviation="7.96"/><feComposite in2="B" operator="out"/><feColorMatrix values="0 0 0 0 0 0 0 0 0 0 0 0 0 0 0 0 0 0 0.31 0"/><feBlend in2="A"/><feBlend in="SourceGraphic"/></filter><filter id="N" x="1736.34" y="1032.59" width="219.209" height="369.082" filterUnits="userSpaceOnUse" class="F"><feFlood result="A" class="G"/><feColorMatrix in="SourceAlpha" values="0 0 0 0 0 0 0 0 0 0 0 0 0 0 0 0 0 0 127 0" result="B"/><feOffset dy="1.91819"/><feGaussianBlur stdDeviation="7.96"/><feComposite in2="B" operator="out"/><feColorMatrix values="0 0 0 0 0 0 0 0 0 0 0 0 0 0 0 0 0 0 0.31 0"/><feBlend in2="A"/><feBlend in="SourceGraphic"/></filter><filter id="O" x="1795.63" y="1085.08" width="150.663" height="425.777" filterUnits="userSpaceOnUse" class="F"><feFlood result="A" class="G"/><feColorMatrix in="SourceAlpha" values="0 0 0 0 0 0 0 0 0 0 0 0 0 0 0 0 0 0 127 0" result="B"/><feOffset dy="1.91819"/><feGaussianBlur stdDeviation="7.96"/><feComposite in2="B" operator="out"/><feColorMatrix values="0 0 0 0 0 0 0 0 0 0 0 0 0 0 0 0 0 0 0.31 0"/><feBlend in2="A"/><feBlend in="SourceGraphic"/></filter><filter id="P" x="1942.33" y="1005.7" width="155.242" height="598.004" filterUnits="userSpaceOnUse" class="F"><feFlood result="A" class="G"/><feColorMatrix in="SourceAlpha" values="0 0 0 0 0 0 0 0 0 0 0 0 0 0 0 0 0 0 127 0" result="B"/><feOffset dy="1.91819"/><feGaussianBlur stdDeviation="7.96"/><feComposite in2="B" operator="out"/><feColorMatrix values="0 0 0 0 0 0 0 0 0 0 0 0 0 0 0 0 0 0 0.31 0"/><feBlend in2="A"/><feBlend in="SourceGraphic"/></filter><filter id="Q" x="1859.05" y="1104.54" width="113.098" height="497.543" filterUnits="userSpaceOnUse" class="F"><feFlood result="A" class="G"/><feColorMatrix in="SourceAlpha" values="0 0 0 0 0 0 0 0 0 0 0 0 0 0 0 0 0 0 127 0" result="B"/><feOffset dy="1.91819"/><feGaussianBlur stdDeviation="7.96"/><feComposite in2="B" operator="out"/><feColorMatrix values="0 0 0 0 0 0 0 0 0 0 0 0 0 0 0 0 0 0 0.31 0"/><feBlend in2="A"/><feBlend in="SourceGraphic"/></filter><filter id="R" x="1921.3" y="1123.39" width="105.708" height="558.18" filterUnits="userSpaceOnUse" class="F"><feFlood result="A" class="G"/><feColorMatrix in="SourceAlpha" values="0 0 0 0 0 0 0 0 0 0 0 0 0 0 0 0 0 0 127 0" result="B"/><feOffset dy="1.91819"/><feGaussianBlur stdDeviation="7.96"/><feComposite in2="B" operator="out"/><feColorMatrix values="0 0 0 0 0 0 0 0 0 0 0 0 0 0 0 0 0 0 0.31 0"/><feBlend in2="A"/><feBlend in="SourceGraphic"/></filter><filter id="S" x="1765.86" y="496.559" width="438.955" height="728.98" filterUnits="userSpaceOnUse" class="F"><feFlood result="A" class="G"/><feColorMatrix in="SourceAlpha" values="0 0 0 0 0 0 0 0 0 0 0 0 0 0 0 0 0 0 127 0" result="B"/><feOffset dy="8.48616"/><feGaussianBlur stdDeviation="4.243"/><feComposite in2="B" operator="out"/><feColorMatrix values="0 0 0 0 0 0 0 0 0 0 0 0 0 0 0 0 0 0 0.25 0"/><feBlend in2="A"/><feBlend in="SourceGraphic"/></filter><filter id="T" x="1814.78" y="1107.82" width="129.902" height="199.164" filterUnits="userSpaceOnUse" class="F"><feFlood result="A" class="G"/><feColorMatrix in="SourceAlpha" values="0 0 0 0 0 0 0 0 0 0 0 0 0 0 0 0 0 0 127 0" result="B"/><feOffset dy="8.48616"/><feGaussianBlur stdDeviation="4.243"/><feComposite in2="B" operator="out"/><feColorMatrix values="0 0 0 0 0 0 0 0 0 0 0 0 0 0 0 0 0 0 0.25 0"/><feBlend in2="A"/><feBlend in="SourceGraphic"/></filter><filter id="U" x="2035.13" y="1103.13" width="129.901" height="199.162" filterUnits="userSpaceOnUse" class="F"><feFlood result="A" class="G"/><feColorMatrix in="SourceAlpha" values="0 0 0 0 0 0 0 0 0 0 0 0 0 0 0 0 0 0 127 0" result="B"/><feOffset dy="8.48616"/><feGaussianBlur stdDeviation="4.243"/><feComposite in2="B" operator="out"/><feColorMatrix values="0 0 0 0 0 0 0 0 0 0 0 0 0 0 0 0 0 0 0.25 0"/><feBlend in2="A"/><feBlend in="SourceGraphic"/></filter><filter id="V" x="1906.9" y="526.918" width="160.876" height="343.507" filterUnits="userSpaceOnUse" class="F"><feFlood result="A" class="G"/><feColorMatrix in="SourceAlpha" values="0 0 0 0 0 0 0 0 0 0 0 0 0 0 0 0 0 0 127 0" result="B"/><feOffset dy="14.6479"/><feGaussianBlur stdDeviation="5.127"/><feComposite in2="B" operator="out"/><feColorMatrix values="0 0 0 0 0 0 0 0 0 0 0 0 0 0 0 0 0 0 0.23 0"/><feBlend in2="A"/><feBlend in="SourceGraphic"/></filter><linearGradient id="W" x1="1724.67" y1="948.445" x2="1627.7" y2="486.504" href="#DG"><stop stop-color="#fcf0d6"/><stop offset=".58" stop-color="#ffc446"/></linearGradient><linearGradient id="X" x1="1652.57" y1="870.48" x2="1250.92" y2="598.409" href="#DG"><stop stop-color="#fcf0d6"/><stop offset=".58" stop-color="#ffc446"/></linearGradient><linearGradient id="Y" x1="1522.06" y1="877.374" x2="1364.95" y2="288.55" href="#DG"><stop stop-color="#fcf0d6"/><stop offset=".58" stop-color="#ffc446"/></linearGradient><linearGradient id="Z" x1="1493.42" y1="760.69" x2="1133.52" y2="306.881" href="#DG"><stop stop-color="#fcf0d6"/><stop offset=".58" stop-color="#ffc446"/></linearGradient><linearGradient id="a" x1="1306.49" y1="720.05" x2="902.134" y2="577.647" href="#DG"><stop stop-color="#fcf0d6"/><stop offset=".58" stop-color="#ffc446"/></linearGradient><linearGradient id="b" x1="1158.4" y1="802.343" x2="780.733" y2="615.469" href="#DG"><stop stop-color="#fcf0d6"/><stop offset=".58" stop-color="#ffc446"/></linearGradient><linearGradient id="c" x1="1000.1" y1="963.182" x2="644.684" y2="652.844" href="#DG"><stop stop-color="#fcf0d6"/><stop offset=".58" stop-color="#ffc446"/></linearGradient><linearGradient id="d" x1="919.623" y1="986.693" x2="496.96" y2="584.705" href="#DG"><stop stop-color="#fcf0d6"/><stop offset=".58" stop-color="#ffc446"/></linearGradient><linearGradient id="e" x1="701.37" y1="1143.98" x2="624.67" y2="667.344" href="#DG"><stop stop-color="#fcf0d6"/><stop offset="1" stop-color="#ffc446"/></linearGradient><linearGradient id="f" x1="531.662" y1="1207.8" x2="362.659" y2="812.667" href="#DG"><stop stop-color="#fcf0d6"/><stop offset="1" stop-color="#ffc446"/></linearGradient><linearGradient id="g" x1="353.622" y1="1229.51" x2="157.966" y2="823.114" href="#DG"><stop stop-color="#fcf0d6"/><stop offset=".58" stop-color="#ffc446"/></linearGradient><linearGradient id="h" x1="225.166" y1="1203.35" x2="55.908" y2="657.393" href="#DG"><stop stop-color="#fcf0d6"/><stop offset=".58" stop-color="#ffc446"/></linearGradient><linearGradient id="i" x1="244.769" y1="1068.09" x2="99.541" y2="623.813" href="#DG"><stop stop-color="#fcf0d6"/><stop offset=".58" stop-color="#ffc446"/></linearGradient><linearGradient id="j" x1="1826.77" y1="588.2" x2="1397.55" y2="359.331" href="#DG"><stop stop-color="#fcf0d6"/><stop offset=".58" stop-color="#ffc446"/></linearGradient><linearGradient id="k" x1="1726.08" y1="630.732" x2="1328.97" y2="425.981" href="#DG"><stop stop-color="#fcf0d6"/><stop offset=".58" stop-color="#ffc446"/></linearGradient><linearGradient id="l" x1="1663.85" y1="571.216" x2="1363.83" y2="413.765" href="#DG"><stop stop-color="#fcf0d6"/><stop offset=".58" stop-color="#ffc446"/></linearGradient><linearGradient id="m" x1="1606.57" y1="558.487" x2="1306.55" y2="401.036" href="#DG"><stop stop-color="#fcf0d6"/><stop offset=".58" stop-color="#ffc446"/></linearGradient><linearGradient id="n" x1="1560.77" y1="526.663" x2="1260.74" y2="369.212" href="#DG"><stop stop-color="#fcf0d6"/><stop offset=".58" stop-color="#ffc446"/></linearGradient><linearGradient id="o" x1="1505.19" y1="505.448" x2="1205.17" y2="347.997" href="#DG"><stop stop-color="#fcf0d6"/><stop offset=".58" stop-color="#ffc446"/></linearGradient><linearGradient id="p" x1="1450.4" y1="487.017" x2="1150.37" y2="329.566" href="#DG"><stop stop-color="#fcf0d6"/><stop offset=".58" stop-color="#ffc446"/></linearGradient><linearGradient id="q" x1="1386.84" y1="455.366" x2="1086.24" y2="299.018" href="#DG"><stop stop-color="#fcf0d6"/><stop offset=".58" stop-color="#ffc446"/></linearGradient><linearGradient id="r" x1="1306.46" y1="484.314" x2="908.971" y2="280.292" href="#DG"><stop stop-color="#fcf0d6"/><stop offset=".58" stop-color="#ffc446"/></linearGradient><linearGradient id="s" x1="1248.86" y1="470.044" x2="948.839" y2="312.593" href="#DG"><stop stop-color="#fcf0d6"/><stop offset=".58" stop-color="#ffc446"/></linearGradient><linearGradient id="t" x1="1116.25" y1="454.106" x2="1406.19" y2="278.78" href="#DG"><stop stop-color="#fcf0d6"/><stop offset=".58" stop-color="#ffc446"/></linearGradient><linearGradient id="u" x1="1124.83" y1="451.761" x2="824.809" y2="294.31" href="#DG"><stop stop-color="#fcf0d6"/><stop offset=".58" stop-color="#ffc446"/></linearGradient><linearGradient id="v" x1="1056.31" y1="462.402" x2="781.474" y2="264.23" href="#DG"><stop stop-color="#fcf0d6"/><stop offset=".58" stop-color="#ffc446"/></linearGradient><linearGradient id="w" x1="980.219" y1="486.883" x2="766.629" y2="223.855" href="#DG"><stop stop-color="#fcf0d6"/><stop offset=".58" stop-color="#ffc446"/></linearGradient><linearGradient id="x" x1="895.983" y1="530.989" x2="747.199" y2="226.575" href="#DG"><stop stop-color="#fcf0d6"/><stop offset=".58" stop-color="#ffc446"/></linearGradient><linearGradient id="y" x1="1636.6" y1=".118" x2="1867.36" y2="803.32" href="#DG"><stop stop-color="#ffcc3f"/><stop offset="1" stop-color="#a01326"/></linearGradient><linearGradient id="z" x1="1094.53" y1="122.997" x2="1379.45" y2="531.171" href="#DG"><stop stop-color="#a01326"/><stop offset="1" stop-color="#ffcc3f"/></linearGradient><linearGradient id="AA" x1="2249.64" y1="948.447" x2="2346.62" y2="486.506" href="#DG"><stop stop-color="#fcf0d6"/><stop offset=".58" stop-color="#ffc446"/></linearGradient><linearGradient id="AB" x1="2321.75" y1="870.48" x2="2723.4" y2="598.409" href="#DG"><stop stop-color="#fcf0d6"/><stop offset=".58" stop-color="#ffc446"/></linearGradient><linearGradient id="AC" x1="2452.25" y1="877.374" x2="2609.36" y2="288.55" href="#DG"><stop stop-color="#fcf0d6"/><stop offset=".58" stop-color="#ffc446"/></linearGradient><linearGradient id="AD" x1="2480.89" y1="760.69" x2="2840.79" y2="306.881" href="#DG"><stop stop-color="#fcf0d6"/><stop offset=".58" stop-color="#ffc446"/></linearGradient><linearGradient id="AE" x1="2667.82" y1="720.05" x2="3072.18" y2="577.647" href="#DG"><stop stop-color="#fcf0d6"/><stop offset=".58" stop-color="#ffc446"/></linearGradient><linearGradient id="AF" x1="2815.92" y1="802.345" x2="3193.58" y2="615.471" href="#DG"><stop stop-color="#fcf0d6"/><stop offset=".58" stop-color="#ffc446"/></linearGradient><linearGradient id="AG" x1="2974.22" y1="963.18" x2="3329.63" y2="652.842" href="#DG"><stop stop-color="#fcf0d6"/><stop offset=".58" stop-color="#ffc446"/></linearGradient><linearGradient id="AH" x1="3054.69" y1="986.691" x2="3477.35" y2="584.703" href="#DG"><stop stop-color="#fcf0d6"/><stop offset=".58" stop-color="#ffc446"/></linearGradient><linearGradient id="AI" x1="3272.95" y1="1143.98" x2="3349.65" y2="667.344" href="#DG"><stop stop-color="#fcf0d6"/><stop offset="1" stop-color="#ffc446"/></linearGradient><linearGradient id="AJ" x1="3442.65" y1="1207.8" x2="3611.66" y2="812.665" href="#DG"><stop stop-color="#fcf0d6"/><stop offset="1" stop-color="#ffc446"/></linearGradient><linearGradient id="AK" x1="3620.69" y1="1229.51" x2="3816.35" y2="823.114" href="#DG"><stop stop-color="#fcf0d6"/><stop offset=".58" stop-color="#ffc446"/></linearGradient><linearGradient id="AL" x1="3749.15" y1="1203.35" x2="3918.41" y2="657.393" href="#DG"><stop stop-color="#fcf0d6"/><stop offset=".58" stop-color="#ffc446"/></linearGradient><linearGradient id="AM" x1="3729.55" y1="1068.09" x2="3874.77" y2="623.813" href="#DG"><stop stop-color="#fcf0d6"/><stop offset=".58" stop-color="#ffc446"/></linearGradient><linearGradient id="AN" x1="2147.55" y1="588.2" x2="2576.76" y2="359.331" href="#DG"><stop stop-color="#fcf0d6"/><stop offset=".58" stop-color="#ffc446"/></linearGradient><linearGradient id="AO" x1="2248.23" y1="630.734" x2="2645.35" y2="425.982" href="#DG"><stop stop-color="#fcf0d6"/><stop offset=".58" stop-color="#ffc446"/></linearGradient><linearGradient id="AP" x1="2310.46" y1="571.216" x2="2610.49" y2="413.765" href="#DG"><stop stop-color="#fcf0d6"/><stop offset=".58" stop-color="#ffc446"/></linearGradient><linearGradient id="AQ" x1="2367.75" y1="558.487" x2="2667.77" y2="401.036" href="#DG"><stop stop-color="#fcf0d6"/><stop offset=".58" stop-color="#ffc446"/></linearGradient><linearGradient id="AR" x1="2413.55" y1="526.665" x2="2713.57" y2="369.214" href="#DG"><stop stop-color="#fcf0d6"/><stop offset=".58" stop-color="#ffc446"/></linearGradient><linearGradient id="AS" x1="2469.12" y1="505.448" x2="2769.15" y2="347.997" href="#DG"><stop stop-color="#fcf0d6"/><stop offset=".58" stop-color="#ffc446"/></linearGradient><linearGradient id="AT" x1="2523.92" y1="487.019" x2="2823.94" y2="329.568" href="#DG"><stop stop-color="#fcf0d6"/><stop offset=".58" stop-color="#ffc446"/></linearGradient><linearGradient id="AU" x1="2587.48" y1="455.366" x2="2888.08" y2="299.018" href="#DG"><stop stop-color="#fcf0d6"/><stop offset=".58" stop-color="#ffc446"/></linearGradient><linearGradient id="AV" x1="2667.85" y1="484.316" x2="3065.35" y2="280.294" href="#DG"><stop stop-color="#fcf0d6"/><stop offset=".58" stop-color="#ffc446"/></linearGradient><linearGradient id="AW" x1="2725.45" y1="470.046" x2="3025.48" y2="312.595" href="#DG"><stop stop-color="#fcf0d6"/><stop offset=".58" stop-color="#ffc446"/></linearGradient><linearGradient id="AX" x1="2858.07" y1="454.106" x2="2568.13" y2="278.78" href="#DG"><stop stop-color="#fcf0d6"/><stop offset=".58" stop-color="#ffc446"/></linearGradient><linearGradient id="AY" x1="2849.48" y1="451.761" x2="3149.51" y2="294.31" href="#DG"><stop stop-color="#fcf0d6"/><stop offset=".58" stop-color="#ffc446"/></linearGradient><linearGradient id="AZ" x1="2918.01" y1="462.402" x2="3192.84" y2="264.23" href="#DG"><stop stop-color="#fcf0d6"/><stop offset=".58" stop-color="#ffc446"/></linearGradient><linearGradient id="Aa" x1="2994.1" y1="486.885" x2="3207.69" y2="223.857" href="#DG"><stop stop-color="#fcf0d6"/><stop offset=".58" stop-color="#ffc446"/></linearGradient><linearGradient id="Ab" x1="3078.33" y1="530.987" x2="3227.12" y2="226.573" href="#DG"><stop stop-color="#fcf0d6"/><stop offset=".58" stop-color="#ffc446"/></linearGradient><linearGradient id="Ac" x1="2337.73" y1=".118" x2="2106.97" y2="803.32" href="#DG"><stop stop-color="#ffcc3f"/><stop offset="1" stop-color="#a01326"/></linearGradient><linearGradient id="Ad" x1="2888.29" y1="122.997" x2="2603.37" y2="531.171" href="#DG"><stop stop-color="#a01326"/><stop offset="1" stop-color="#ffcc3f"/></linearGradient><linearGradient id="Ae" x1="1740.59" y1="1565.9" x2="2294.35" y2="1867.22" href="#DG"><stop stop-color="#ffcc3f"/><stop offset="1" stop-color="#a01326"/></linearGradient><linearGradient id="Af" x1="1967.49" y1="1346.67" x2="1964.82" y2="2168.02" href="#DG"><stop stop-color="#ffcc3f"/><stop offset="1" stop-color="#a01326"/></linearGradient><linearGradient id="Ag" x1="2209.31" y1="1566.64" x2="1655.95" y2="1867.75" href="#DG"><stop stop-color="#ffcc3f"/><stop offset="1" stop-color="#a01326"/></linearGradient><linearGradient id="Ah" x1="1684.14" y1="1205.6" x2="1834.53" y2="1152.58" href="#DG"><stop stop-color="#fcf0d6"/><stop offset=".433" stop-color="#ffc446"/><stop offset="1" stop-color="#3c3024"/></linearGradient><linearGradient id="Ai" x1="1697.38" y1="1211.35" x2="1844.91" y2="1106" href="#DG"><stop stop-color="#fcf0d6"/><stop offset="1" stop-color="#ffc446"/></linearGradient><linearGradient id="Aj" x1="2265.61" y1="1235.35" x2="2116.33" y2="1159.55" href="#DG"><stop stop-color="#fcf0d6"/><stop offset=".433" stop-color="#ffc446"/><stop offset="1" stop-color="#3c3024"/></linearGradient><linearGradient id="Ak" x1="2251.92" y1="1237.8" x2="2115.08" y2="1100.66" href="#DG"><stop stop-color="#fcf0d6"/><stop offset="1" stop-color="#ffc446"/></linearGradient><linearGradient id="Al" x1="1715.73" y1="1323.57" x2="1880.27" y2="1192.55" href="#DG"><stop stop-color="#fcf0d6"/><stop offset=".433" stop-color="#ffc446"/><stop offset="1" stop-color="#3c3024"/></linearGradient><linearGradient id="Am" x1="1713.16" y1="1297.96" x2="1890.39" y2="1220.24" href="#DG"><stop stop-color="#fcf0d6"/><stop offset="1" stop-color="#ffc446"/></linearGradient><linearGradient id="An" x1="2221.53" y1="1344.03" x2="2072.44" y2="1175.57" href="#DG"><stop stop-color="#fcf0d6"/><stop offset=".433" stop-color="#ffc446"/><stop offset="1" stop-color="#3c3024"/></linearGradient><linearGradient id="Ao" x1="2226.87" y1="1319.38" x2="2052.75" y2="1212.07" href="#DG"><stop stop-color="#fcf0d6"/><stop offset="1" stop-color="#ffc446"/></linearGradient><linearGradient id="Ap" x1="2128.01" y1="1549.05" x2="2073.66" y2="1235.9" href="#DG"><stop stop-color="#fcf0d6"/><stop offset=".433" stop-color="#ffc446"/><stop offset="1" stop-color="#3c3024"/></linearGradient><linearGradient id="Aq" x1="2138.13" y1="1525.91" x2="1957.47" y2="1293.33" href="#DG"><stop stop-color="#fcf0d6"/><stop offset="1" stop-color="#ffc446"/></linearGradient><linearGradient id="Ar" x1="2192.82" y1="1487" x2="2080.23" y2="1220.37" href="#DG"><stop stop-color="#fcf0d6"/><stop offset=".433" stop-color="#ffc446"/><stop offset="1" stop-color="#3c3024"/></linearGradient><linearGradient id="As" x1="2200.06" y1="1463.12" x2="2004.59" y2="1282.18" href="#DG"><stop stop-color="#fcf0d6"/><stop offset="1" stop-color="#ffc446"/></linearGradient><linearGradient id="At" x1="1755.37" y1="1375.18" x2="1923.6" y2="1258.54" href="#DG"><stop stop-color="#fcf0d6"/><stop offset=".433" stop-color="#ffc446"/><stop offset="1" stop-color="#3c3024"/></linearGradient><linearGradient id="Au" x1="1772.69" y1="1376.36" x2="1916.29" y2="1189.91" href="#DG"><stop stop-color="#fcf0d6"/><stop offset="1" stop-color="#ffc446"/></linearGradient><linearGradient id="Av" x1="1833.43" y1="1492.93" x2="1911.66" y2="1253.96" href="#DG"><stop stop-color="#fcf0d6"/><stop offset=".433" stop-color="#ffc446"/><stop offset="1" stop-color="#3c3024"/></linearGradient><linearGradient id="Aw" x1="1823.18" y1="1472.03" x2="1971.67" y2="1293.28" href="#DG"><stop stop-color="#fcf0d6"/><stop offset="1" stop-color="#ffc446"/></linearGradient><linearGradient id="Ax" x1="2071.56" y1="1583.9" x2="1895.59" y2="1305.18" href="#DG"><stop stop-color="#fcf0d6"/><stop offset=".433" stop-color="#ffc446"/><stop offset="1" stop-color="#3c3024"/></linearGradient><linearGradient id="Ay" x1="2053.13" y1="1569.69" x2="2033.21" y2="1199.8" href="#DG"><stop stop-color="#fcf0d6"/><stop offset="1" stop-color="#ffc446"/></linearGradient><linearGradient id="Az" x1="1902.26" y1="1584.28" x2="1916.76" y2="1290.24" href="#DG"><stop stop-color="#fcf0d6"/><stop offset=".433" stop-color="#ffc446"/><stop offset="1" stop-color="#3c3024"/></linearGradient><linearGradient id="BA" x1="1889.7" y1="1564.12" x2="2026.15" y2="1323.51" href="#DG"><stop stop-color="#fcf0d6"/><stop offset="1" stop-color="#ffc446"/></linearGradient><linearGradient id="BB" x1="1968.01" y1="1663.38" x2="2029.18" y2="1342.73" href="#DG"><stop stop-color="#fcf0d6"/><stop offset=".433" stop-color="#ffc446"/><stop offset="1" stop-color="#3c3024"/></linearGradient><linearGradient id="BC" x1="1983.88" y1="1644.38" x2="1886.39" y2="1331.83" href="#DG"><stop stop-color="#fcf0d6"/><stop offset="1" stop-color="#ffc446"/></linearGradient><linearGradient id="BD" x1="1946.74" y1="496.286" x2="2052.85" y2="1132.23" href="#DG"><stop stop-color="#ffcc3f"/><stop offset=".851" stop-color="#a01326"/><stop offset="1" stop-color="#6c0206"/></linearGradient><linearGradient id="BE" x1="2025.79" y1="380.781" x2="1990.46" y2="553.951" href="#DG"><stop stop-color="#fbac0e"/><stop offset="1" stop-color="#eb5415"/></linearGradient><linearGradient id="BF" x1="1987.55" y1="610.876" x2="1986.33" y2="798.963" href="#DG"><stop stop-color="#ffcc3f"/><stop offset="1" stop-color="#a01326"/></linearGradient><linearGradient id="BG" x1="1987.05" y1="550.213" x2="1997.13" y2="801.532" href="#DG"><stop stop-color="#ffcc3f"/><stop offset="1" stop-color="#a01326"/></linearGradient><linearGradient id="BH" x1="1987.03" y1="409.792" x2="1979.18" y2="855.893" href="#DG"><stop stop-color="#ffcc3f"/><stop offset="1" stop-color="#a01326"/></linearGradient><linearGradient id="BI" x1="1916.93" y1="685.225" x2="2057.65" y2="685.225" href="#DG"><stop stop-color="#fcf0d6"/><stop offset="1" stop-color="#ffc446"/></linearGradient><linearGradient id="BJ" x1="1978.56" y1="524.411" x2="1996.67" y2="531.479" href="#DG"><stop stop-color="#fcf0d6"/><stop offset="1" stop-color="#ffc446"/></linearGradient><linearGradient id="BK" x1="1976.57" y1="569.873" x2="1995.67" y2="573.535" href="#DG"><stop stop-color="#fcf0d6"/><stop offset="1" stop-color="#ffc446"/></linearGradient><path id="BL" d="M1727.87 443.519L1608 346.989s20.48 480.999 36.87 547.209c29.82 120.442 126.11 60.978 139.08 11.184 26.87-103.095-56.08-461.863-56.08-461.863z"/><path id="BM" d="M1657.17 470.092c.24.97.44 1.799.08 2.127l-.09.004c-4.76 4.173-2.93 7.972-1.1 11.765.74 1.532 1.48 3.063 1.78 4.617 1.5 7.727 2.1 15.71 2.7 23.779.96 12.877 1.94 25.973 6.62 38.599 2.87 7.765 7.96 55.623 10.77 82.089l1.24 11.632c3.47 31.541 5.26 72.218 6.98 111.527 2.93 66.703 5.68 129.47 16.19 136.985 26.34 18.824 27.76-1.104 30.46-35.996l-8.56-25.472 18.4 10.295c.64-39.603-5.72-91.96-10.7-132.91l-2.43-20.164c-6.53-55.764-20.98-108.951-33.28-154.198-6.4-23.579-12.23-45.003-16.03-63.51-1.75-.671-3.37-1.427-4.94-2.168-4.7-2.201-9.11-4.269-15.98-3.589-3.16.305-2.57 2.71-2.11 4.588z"/><path id="BN" d="M1618.61 412.758l-123.05-61.524s53.43 314.1 51.98 530.384c-.22 33.094 31.89 110.274 56.82 87.354 80.02-73.564 14.25-556.214 14.25-556.214z"/><path id="BO" d="M1530.68 318.211c.77-1.451-2.71-9.439 1.07-10.125 7.28-1.35 11.43 4.699 17.2 8.735 13.29 81.525 33.21 126.015 48.06 254.01 10.92 94.13 39.87 226.842 10.1 272.744-4.09 15.897 11.13 63.251-15.19 35.325-15.13-16.053-24.36-246.621-38.77-374.97l-17.24-141.419c-7.75-31.005 1.32 10.69-3.42-19.577-1.29-8.156-6.75-15.895-1.88-24.717l.07-.006z"/><path id="BP" d="M1487.07 272.735l-117.75 4.243s20.62 527.245 37.01 593.454c29.82 120.444 126.11 60.978 139.09 11.185 26.86-103.096-58.35-608.882-58.35-608.882z"/><path id="BQ" d="M1390.59 245.134c.84-1.691-3.44-10.728.88-11.647 8.29-1.802 13.26 4.987 20.02 9.412 18.09 93.004 36.92 115.698 58.44 261.927 15.82 107.54 53.67 258.681 21.15 312.354-4.14 18.37 14.98 72.129-16.18 41.034-17.91-17.874-36.58-281.903-57.6-428.552l-24.74-161.536c-9.98-35.276 7.47 39.826.97 5.29-1.76-9.306-8.29-17.987-3.02-28.273l.08-.009z"/><path id="BR" d="M1370.67 300.763l-131.33-49.609 79.08 599.701c14.8 125.416 70.6 80.619 82.88 63.89 63.06-85.874-30.63-613.982-30.63-613.982z"/><path id="BS" d="M1294.74 324.948c.26 1.112.49 2.064.1 2.442l-.1.005c-5.13 4.809-3.11 9.167-1.09 13.518.82 1.757 1.63 3.514 1.98 5.298 1.69 8.871 2.41 18.039 3.13 27.306 1.16 14.788 2.34 29.828 7.53 44.316 3.19 8.91 9.14 63.867 12.43 94.259l1.45 13.358c4.45 39.784 5.78 92.982 7.04 142.99 1.82 72.772 3.48 138.788 14.3 146.888 35.36 26.472 46-14.578 46.48-73.348l-8.58-15.925a60.51 60.51 0 0 1-5.19-44.392l8.88-33.167c-2.45-26.423-5.41-51.704-7.86-72.365-7.58-64.034-23.75-125.082-37.51-177.015-7.16-27.065-13.68-51.654-17.98-72.901-1.9-.765-3.66-1.629-5.38-2.475-5.12-2.512-9.93-4.873-17.39-4.07-3.42.361-2.76 3.121-2.24 5.278z"/><path id="BT" d="M1232.5 230.306l-75.32 38.187 21.21 565.391c16.07 125.259 99.64 125.937 123.05 93.347 62.16-86.524-68.94-696.925-68.94-696.925z"/><path id="BU" d="M1182.15 290.467c1.04-1.289-2.87-8.457 1.87-9.033 9.13-1.136 13.98 4.306 20.94 7.966 12.23 72.942 42.06 179.542 53.77 294.004 8.61 84.178 37.62 202.988-1.86 243.702-5.94 14.159 10.5 56.599-20.78 31.405-17.98-14.482-17.27-220.505-28.41-335.279-2.62-27.053-10.42-114.134-13.98-126.475-8.01-27.766-6.31-57.112-10.61-84.191-1.16-7.297-7.55-14.261-1.03-22.095l.09-.004z"/><path id="BV" d="M1158.77 265.309l-73.19 39.249s-9.77 444.948-24.39 580.241c-10.02 92.747 79.89 144.081 113.5-18.033 18.02-86.984-15.92-601.457-15.92-601.457z"/><path id="BW" d="M1166.27 262.126c1.12-1.518-2.66-10.42 2.27-10.897 9.48-.949-17.72 55.451-17.72 47.465 0 0 3.16-118.341-7.43 20.715-21.58 283.097 43.53 625.419-36.4 584.92-21.66-10.971 29.61-468.239 6.58-605.635-4.53-27.03 4.07 43.854 2.7 20.715-1.93-32.718 53.62 2.771 50.17-30.363-.94-8.929-7.29-17.701-.27-26.919l.1-.001z"/><path id="BX" d="M1094.59 299.256l-59.4 31.824-137.906 647.069c-6.993 23.391-13.14 70.371 31.867 57.581 202.569-57.581 165.439-736.474 165.439-736.474z"/><path id="BY" d="M1050.04 324.715l-70.012 44.552-227.923 686.183c-11.003 37.28-38.716 108.92 29.199 64.97 180.314-116.69 268.736-795.705 268.736-795.705z"/><path id="BZ" d="M527.64 1294.85c219.823-145.79 326.094-558.582 470.42-935.13l-15.912 24.393-129.046 220.835c-142.467 296.306-257.803 489.482-306.36 582.162-34.41 65.67-77.95 146.77-19.102 107.74z"/><path id="Ba" d="M1025.64 320.47L741.342 688.559C567.38 967.541 431.644 1146.97 373.26 1233.79c-41.374 61.53-93.506 137.39-30.75 105.02 234.426-120.93 498.56-659.798 683.13-1018.34z"/><path id="Bb" d="M765.7 659.916L643.239 740.54c-119.394 181.386-394.333 462.08-434.414 511.56-20.127 24.85-50.253 78.75 11.978 58.72C431.971 1242.85 738.48 692.012 765.7 659.916z"/><path id="Bc" d="M751.925 622.79l-101.82 66.46c9.164 8.475-478.676 413.3-561.297 480.46-26.312 21.39-94.272 84.36-8.476 70.27 244.648-40.19 730.331-647.066 671.593-617.19z"/><path id="Bd" d="M48.609 1109.2c-81.504-22.74 617.394-465.194 617.394-465.194h38.188S295.625 1049.76 179.103 1087.41c-44.348 14.33-87.597 33.75-130.494 21.79z"/><path id="Be" d="M1792.59 471.101h-67.89s-8.78 119.011-3.62 196.23c1.66 24.838 28.84 65.041 42.87 35.017 45.61-97.591 28.64-231.247 28.64-231.247z"/><path id="Bf" d="M1720.84 405.412l-76.37-21.215 25.74 252.674c2.13 20.558 12.64 65.923 28.38 48.977 53.56-57.647 22.25-280.436 22.25-280.436z"/><path id="Bg" d="M1634.8 365.647l-31.8 24.191s-1.26 193.382 11.03 246.855c7.11 30.931 26.11 45.434 40.63 12.4 48.16-109.56-19.86-283.446-19.86-283.446z"/><path id="Bh" d="M1577.52 352.918l-31.8 24.191s7.56 197.512 19.86 250.986c7.11 30.93 17.28 41.303 31.8 8.269 48.16-109.561-19.86-283.446-19.86-283.446z"/><path id="Bi" d="M1531.73 321.093l-31.81 24.191s-12.3 184.784 0 238.257c7.11 30.93 37.15 54.033 51.67 20.999 48.15-109.561-19.86-283.447-19.86-283.447z"/><path id="Bj" d="M1476.15 299.878l-43.18-33.507s-.92 242.482 11.38 295.955c7.11 30.931 37.14 54.033 51.66 20.999 48.16-109.561-19.86-283.447-19.86-283.447z"/><path id="Bk" d="M1426.58 265.31l-48.39-17.37s-12.3 246.728-.01 300.201c7.11 30.931 65.52 20.334 69.62-15.517 12.73-111.381-21.22-267.314-21.22-267.314z"/><path id="Bl" d="M1372.48 250.46l-73.2-21.215s-20.58 258.842-8.09 312.27c7.23 30.904 87.65 17.221 91.62-18.645 12.32-111.427-10.33-272.41-10.33-272.41z"/><path id="Bm" d="M1297.16 257.884l-72.78-19.955s20.8 174.827 20.81 290.451c0 20.667 21.41 43.495 37.12 26.52 53.45-57.746 14.85-297.016 14.85-297.016z"/><path id="Bn" d="M1229.74 249.004l-53.1-18.037s-12.3 246.729 0 300.202c7.11 30.93 63.85 42.215 67.95 6.364 12.73-111.38-14.85-288.529-14.85-288.529z"/><path id="Bo" d="M1143.36 250.461l31.82 4.243s3.8 207.623-5.24 261.743c-5.22 31.304-23.31 46.932-39.8 14.837-54.7-106.444 13.22-280.823 13.22-280.823z"/><path id="Bp" d="M1120.01 256.824l-63.65 40.309s-4.67 176.066 7.62 229.54c7.11 30.93 28.83 39.398 43.35 6.364 48.16-109.56 12.68-276.213 12.68-276.213z"/><path id="Bq" d="M1058.48 293.951l-36.07 22.276s-21.13 154.637-16.5 209.309c2.68 31.624 11.29 43.328 30.32 12.67 63.12-101.678 22.25-244.255 22.25-244.255z"/><path id="Br" d="M1033.02 316.226l-39.247 21.216s-57.026 140.133-66.82 194.121c-5.665 31.227 2.864 47.75 29.236 23.122 87.471-81.682 76.831-238.459 76.831-238.459z"/><path id="Bs" d="M994.128 348.052l-46.794 23.792S829.858 555.43 808.143 605.819c-12.56 29.146-16.395 32.899 14.852 14.851 103.632-59.857 171.133-272.618 171.133-272.618z"/><path id="Bt" d="M1228.23 205.422c75.45-12.45 156.96-14.365 156.96-14.365s-180.95 26.864-307.56 115.849c-22.29 15.668-140.47 97.041-216.403 229.806-135.754 237.356-267.361 338.429-394.64 420.22-353.25 227.008-262.352 125.418-114.552-39.734 33.946-55.362-335.082 203.262-311.903 163.732 27.566-47 182.459-156.682 426.455-337.393 161.139-119.345 617.443-514.321 761.643-538.115z"/><path id="Bu" d="M2246.44 443.521l119.87-96.531s-20.47 481-36.86 547.21c-29.82 120.44-126.11 60.978-139.09 11.184-26.86-103.095 56.08-461.863 56.08-461.863z"/><path id="Bv" d="M2317.14 470.094c-.24.97-.44 1.799-.08 2.127l.1.004c4.75 4.173 2.92 7.972 1.09 11.765-.74 1.532-1.47 3.063-1.78 4.617-1.49 7.727-2.09 15.71-2.69 23.779-.96 12.877-1.94 25.973-6.62 38.599-2.88 7.765-7.96 55.623-10.77 82.089l-1.25 11.632c-3.47 31.541-5.25 72.217-6.97 111.527-2.93 66.703-5.68 129.47-16.2 136.985-26.33 18.824-27.75-1.104-30.46-35.996l8.57-25.472-18.4 10.295c-.65-39.603 5.72-91.96 10.7-132.91l2.42-20.164c6.53-55.765 20.99-108.951 33.28-154.198 6.41-23.579 12.23-45.003 16.04-63.51 1.75-.671 3.36-1.427 4.94-2.168 4.69-2.201 9.1-4.269 15.98-3.589 3.15.305 2.56 2.71 2.1 4.588z"/><path id="Bw" d="M2355.7 412.758l123.05-61.524s-53.42 314.1-51.97 530.384c.22 33.094-31.89 110.274-56.82 87.354-80.02-73.564-14.26-556.214-14.26-556.214z"/><path id="Bx" d="M2443.64 318.211c-.78-1.451 2.71-9.439-1.08-10.125-7.27-1.35-11.42 4.699-17.19 8.735-13.29 81.525-33.22 126.015-48.06 254.01-10.92 94.13-39.87 226.842-10.11 272.744 4.1 15.897-11.12 63.251 15.2 35.325 15.13-16.053 24.36-246.621 38.76-374.97l17.24-141.419c7.76-31.005-1.31 10.69 3.43-19.577 1.28-8.156 6.74-15.895 1.88-24.717l-.07-.006z"/><path id="By" d="M2487.25 272.735l117.74 4.243s-20.61 527.245-37 593.454c-29.82 120.444-126.12 60.978-139.09 11.185-26.87-103.096 58.35-608.882 58.35-608.882z"/><path id="Bz" d="M2583.72 245.136c-.83-1.691 3.44-10.728-.87-11.647-8.3-1.802-13.27 4.987-20.02 9.411-18.1 93.005-36.93 115.699-58.44 261.928-15.82 107.54-53.68 258.681-21.16 312.354 4.14 18.37-14.97 72.129 16.18 41.034 17.91-17.874 36.59-281.903 57.61-428.552l24.73-161.537c9.98-35.275-7.46 39.827-.97 5.291 1.76-9.306 8.29-17.987 3.03-28.273l-.09-.009z"/><path id="CA" d="M2603.64 300.763l131.34-49.609-79.09 599.701c-14.8 125.416-70.59 80.619-82.88 63.89-63.05-85.874 30.63-613.982 30.63-613.982z"/><path id="CB" d="M2679.58 324.946c-.27 1.113-.49 2.064-.1 2.442l.1.005c5.13 4.81 3.1 9.167 1.08 13.518-.81 1.758-1.63 3.514-1.97 5.298-1.69 8.871-2.41 18.039-3.14 27.306-1.16 14.788-2.34 29.828-7.53 44.316-3.19 8.91-9.13 63.867-12.42 94.259l-1.46 13.358c-4.44 39.784-5.78 92.982-7.03 142.99-1.83 72.772-3.49 138.789-14.3 146.888-35.37 26.472-46-14.578-46.49-73.348l8.59-15.925a60.51 60.51 0 0 0 5.19-44.392l-8.89-33.167 7.86-72.365c7.59-64.034 23.76-125.082 37.51-177.015 7.17-27.065 13.68-51.654 17.98-72.901 1.91-.765 3.67-1.629 5.39-2.475 5.11-2.512 9.92-4.873 17.38-4.07 3.43.361 2.77 3.121 2.25 5.278z"/><path id="CC" d="M2741.82 230.306l75.31 38.187-21.2 565.391c-16.07 125.259-99.64 125.937-123.05 93.347-62.16-86.524 68.94-696.925 68.94-696.925z"/><path id="CD" d="M2792.17 290.467c-1.05-1.289 2.87-8.457-1.88-9.033-9.13-1.136-13.97 4.306-20.94 7.966-12.22 72.942-42.05 179.542-53.76 294.004-8.61 84.178-37.62 202.988 1.86 243.702 5.94 14.159-10.5 56.599 20.78 31.405 17.98-14.482 17.27-220.505 28.41-335.279 2.62-27.053 10.41-114.134 13.97-126.475 8.02-27.766 6.32-57.112 10.61-84.191 1.17-7.297 7.56-14.261 1.04-22.095l-.09-.004z"/><path id="CE" d="M2815.54 265.311l73.2 39.248s9.77 444.949 24.39 580.242c10.02 92.747-79.9 144.079-113.5-18.034-18.03-86.983 15.91-601.456 15.91-601.456z"/><path id="CF" d="M2808.05 262.128c-1.13-1.518 2.66-10.42-2.27-10.897-9.48-.949 17.72 55.451 17.72 47.465 0 0-3.17-118.341 7.43 20.715 21.58 283.097-43.53 625.419 36.4 584.92 21.65-10.971-29.61-468.239-6.59-605.635 4.53-27.03-4.06 43.854-2.7 20.715 1.94-32.718-53.61 2.771-50.16-30.363.94-8.929 7.29-17.701.26-26.919l-.09-.001z"/><path id="CG" d="M2879.73 299.254l59.4 31.824 137.9 647.069c6.99 23.393 13.14 70.373-31.87 57.583-202.56-57.583-165.43-736.476-165.43-736.476z"/><path id="CH" d="M2924.28 324.713l70.01 44.552 227.92 686.185c11 37.28 38.72 108.92-29.2 64.97-180.31-116.69-268.73-795.707-268.73-795.707z"/><path id="CI" d="M3446.68 1294.85c-219.83-145.79-326.1-558.582-470.43-935.13l15.92 24.393 129.04 220.835c142.47 296.306 257.81 489.482 306.36 582.162 34.41 65.67 77.95 146.77 19.11 107.74z"/><path id="CJ" d="M2948.67 320.468l284.3 368.089c173.96 278.982 309.7 458.413 368.08 545.233 41.38 61.53 93.51 137.39 30.75 105.02-234.42-120.93-498.56-659.8-683.13-1018.342z"/><path id="CK" d="M3208.61 659.916l122.46 80.624c119.4 181.386 394.34 462.08 434.42 511.56 20.12 24.85 50.25 78.75-11.98 58.72-211.17-67.97-517.68-618.808-544.9-650.904z"/><path id="CL" d="M3222.39 622.79l101.82 66.46c-9.16 8.475 478.68 413.3 561.3 480.46 26.31 21.39 94.27 84.36 8.47 70.27-244.64-40.19-730.33-647.066-671.59-617.19z"/><path id="CM" d="M3925.71 1109.2c81.5-22.74-617.4-465.194-617.4-465.194h-38.19s408.57 405.754 525.09 443.404c44.35 14.33 87.6 33.75 130.5 21.79z"/><path id="CN" d="M2181.72 471.101h67.89s8.79 119.011 3.62 196.23c-1.66 24.838-28.83 65.041-42.87 35.017-45.61-97.591-28.64-231.247-28.64-231.247z"/><path id="CO" d="M2253.48 405.414l76.37-21.215-25.75 252.674c-2.12 20.558-12.63 65.923-28.38 48.977-53.55-57.647-22.24-280.436-22.24-280.436z"/><path id="CP" d="M2339.51 365.647l31.81 24.191s1.26 193.382-11.04 246.855c-7.11 30.931-26.11 45.434-40.63 12.4-48.15-109.56 19.86-283.446 19.86-283.446z"/><path id="CQ" d="M2396.79 352.918l31.81 24.191s-7.57 197.512-19.86 250.986c-7.12 30.93-17.29 41.303-31.81 8.269-48.15-109.561 19.86-283.446 19.86-283.446z"/><path id="CR" d="M2442.59 321.095l31.8 24.191s12.3 184.784.01 238.257c-7.12 30.93-37.15 54.033-51.67 20.999-48.16-109.561 19.86-283.447 19.86-283.447z"/><path id="CS" d="M2498.16 299.878l43.18-33.507s.93 242.482-11.37 295.955c-7.11 30.931-37.15 54.033-51.67 20.999-48.15-109.561 19.86-283.447 19.86-283.447z"/><path id="CT" d="M2547.73 265.312l48.4-17.37s12.3 246.728 0 300.201c-7.11 30.931-65.51 20.334-69.61-15.517-12.73-111.381 21.21-267.314 21.21-267.314z"/><path id="CU" d="M2601.84 250.46l73.19-21.215s20.59 258.842 8.09 312.27c-7.22 30.904-87.65 17.221-91.61-18.645-12.32-111.427 10.33-272.41 10.33-272.41z"/><path id="CV" d="M2677.15 257.886l72.79-19.955s-20.81 174.827-20.81 290.451c0 20.667-21.41 43.495-37.13 26.52-53.45-57.746-14.85-297.016-14.85-297.016z"/><path id="CW" d="M2744.58 249.006l53.1-18.037s12.3 246.729 0 300.202c-7.11 30.93-63.86 42.215-67.95 6.364-12.74-111.38 14.85-288.529 14.85-288.529z"/><path id="CX" d="M2830.96 250.461l-31.82 4.243s-3.8 207.623 5.23 261.743c5.23 31.304 23.32 46.932 39.81 14.837 54.7-106.444-13.22-280.823-13.22-280.823z"/><path id="CY" d="M2854.31 256.824l63.64 40.309s4.68 176.066-7.62 229.54c-7.11 30.93-28.83 39.398-43.35 6.364-48.15-109.56-12.67-276.213-12.67-276.213z"/><path id="CZ" d="M2915.84 293.951l36.06 22.276s21.14 154.637 16.5 209.309c-2.68 31.624-11.29 43.328-30.32 12.67-63.12-101.678-22.24-244.255-22.24-244.255z"/><path id="Ca" d="M2941.29 316.228l39.25 21.216s57.03 140.133 66.82 194.121c5.67 31.227-2.86 47.75-29.23 23.122-87.47-81.683-76.84-238.459-76.84-238.459z"/><path id="Cb" d="M2980.19 348.05l46.79 23.792s117.48 183.586 139.19 233.975c12.56 29.146 16.4 32.899-14.85 14.851-103.63-59.857-171.13-272.618-171.13-272.618z"/><path id="Cc" d="M2754.58 205.422c-75.45-12.45-156.95-14.365-156.95-14.365s180.95 26.864 307.55 115.849c22.3 15.668 140.47 97.041 216.41 229.806 135.75 237.356 267.36 338.429 394.64 420.22 353.25 227.008 262.35 125.418 114.55-39.734-33.95-55.362 335.08 203.262 311.9 163.732-27.56-47-182.46-156.682-426.45-337.393-161.14-119.345-617.45-514.321-761.65-538.115z"/><path id="Cd" d="M1875.65 997.257c8.07 3.543 14.55 33.633 4.28 49.113-25.25 38.11-103.51 116.18-149.9 157.57-29.41 26.25-17.86 8.94-17.86 8.94s-10.78 12.29-24.44-1.18c-13.66-13.48 10.18-44.68 15.96-51.64 1.09-1.32 2.28-2.67 3.55-4.04l27.01-8.84-17.39-.63c14.12-12.87 11.45-22.97 37.49-52.12 37.86-42.38 105.95-103.91 121.3-97.173z"/><path id="Ce" d="M2099.47 983.054c-8.34 1.521-18.02 29.626-9.59 47.406 20.74 43.77 89.4 139.89 130.63 192.05 26.15 33.07 16.65 13.18 16.65 13.18s9.28 14.75 24.24 4.8c14.95-9.96-5.16-46.56-10.1-54.84-.93-1.57-1.95-3.19-3.05-4.85l-25.69-15.32 17.23 3.63c-12.52-16.15-8.78-25.46-31.28-60.58-32.71-51.05-93.15-128.372-109.04-125.476z"/><path id="Cf" d="M1917.74 1048.13c-1.59-15.63-25.24-37.06-39.6-23.71-35.37 32.86-112.12 147.72-153.6 217.39-26.31 44.19-10.23 29.12-10.23 29.12s-11.84 15.31-3 44.21 38.31-3.68 44.96-11.76c1.26-1.54 2.56-3.22 3.89-5.05l11.64-45.56-2.31 31.4c31.54-51.84 153.38-185.84 148.25-236.04z"/><path id="Cg" d="M2052.39 1022.97c3.28-15.03 28.95-30.398 41.66-13.72 31.3 41.05 94.44 173.1 127.74 251.96 21.12 50.02 6.91 31.23 6.91 31.23s9.99 17.99-1.89 44.34-37.39-12.98-43.07-22.58a138.18 138.18 0 0 1-3.28-5.92l-6.49-47.79-1.16 31.54c-25.44-58.84-130.97-220.79-120.42-269.06z"/><path id="Ch" d="M1863.7 1045.19c-.31.23-.59.42-.61.66l.02.03c-.26 3.09-1.68 3.66-3.11 4.22-.57.23-1.14.46-1.64.85-2.47 1.97-4.83 4.34-7.22 6.74-3.82 3.83-7.7 7.72-12.16 10.12-2.74 1.47-17.21 15.15-25.21 22.72l-3.52 3.32c-9.56 8.98-21.37 21.53-32.77 33.66-19.36 20.59-37.58 39.96-41.73 38.57-10.41-3.48-5.07-10.47 4.24-22.78l8.84-5.15-6.47-3.35c11.04-13.09 27.02-27.77 39.52-39.25l6.15-5.66c16.98-15.72 34.76-27.72 49.89-37.93 7.88-5.32 15.05-10.16 21-14.78.53.42 1.05.76 1.57 1.1 1.52.99 2.96 1.93 4.1 4.65.52 1.25-.27 1.82-.89 2.26z"/><path id="Ci" d="M2106.02 1033.25c.29.31.54.57.53.81l-.02.03c-.08 3.1 1.26 4.01 2.6 4.92.54.36 1.08.73 1.53 1.24 2.22 2.53 4.29 5.45 6.39 8.4 3.34 4.71 6.74 9.5 10.88 12.96 2.55 2.12 15.33 19.15 22.39 28.57l3.11 4.13c8.45 11.19 18.72 26.46 28.65 41.21 16.84 25.04 32.7 48.59 36.94 48.24 10.65-.9 6.14-9.09-1.69-23.51l-8.15-7.24 6.74-1.73c-9.45-15.61-23.62-33.99-34.69-48.36l-5.45-7.09c-15.03-19.66-31.26-35.84-45.06-49.6-7.2-7.18-13.74-13.69-19.1-19.71-.57.29-1.13.5-1.67.7-1.62.61-3.14 1.18-4.56 3.59-.65 1.1.07 1.86.63 2.44z"/><path id="Cj" d="M1872.46 1048.17c-.24.5-.44.93-.64.89l-.03-.04c-2.57-.55-3.27 1.82-3.96 4.18-.28.96-.56 1.92-.97 2.68-2.01 3.78-4.34 7.25-6.7 10.75-3.76 5.59-7.58 11.28-10.27 18.5-1.65 4.44-15.23 25.92-22.73 37.8l-3.3 5.22c-8.91 14.21-21.13 31.29-32.93 47.79-20.03 28-38.88 54.35-38.42 62.25 1.17 19.78 7.77 12.49 19.38-.18l5.66-14.17 1.71 12.69c12.52-15.52 27.16-39.39 38.6-58.06l5.65-9.18c15.65-25.31 28.38-53.29 39.21-77.09l15.53-32.83c-.26-1.08-.45-2.14-.64-3.17-.57-3.06-1.1-5.95-3.16-8.88-.93-1.35-1.53-.11-1.99.85z"/><path id="Ck" d="M2097.06 1034.06c.18.55.34 1.02.54 1.03l.03-.03c2.6.08 3.03 2.59 3.45 5.1.17 1.01.35 2.02.66 2.87 1.57 4.22 3.49 8.21 5.43 12.24 3.1 6.44 6.25 12.98 8.11 20.76 1.15 4.78 12.19 29.29 18.29 42.84l2.68 5.96c7.24 16.2 17.42 36.02 27.26 55.18 16.7 32.52 32.41 63.11 31.09 70.79-3.32 19.24-9.03 10.43-19.1-4.91l-4.03-15.35-3.07 12.1c-10.67-18.37-22.49-45.49-31.74-66.71l-4.56-10.43c-12.67-28.8-22.17-59.5-30.25-85.62l-11.73-36.19c.38-1 .68-1.99.99-2.97.89-2.88 1.73-5.59 4.08-7.98 1.07-1.11 1.52.26 1.87 1.32z"/><path id="Cl" d="M2021.65 1062.02c6.19-14.09 34.79-11.16 44.23 17.19 23.24 69.78 60.58 265.1 78.48 378.32 11.35 71.81.82 39.96.82 39.96s6.48 27.69-10.49 47.64c-16.98 19.95-34.78-43.43-38.58-58.48-.72-2.85-1.42-5.9-2.12-9.11l-4.48-23.95c-5.68-34.61-15.48-34.61-30.65-101.26-22.06-96.9-49-263.5-37.21-290.31z"/><path id="Cm" d="M2030.75 1063.11c4.44-14.55 32.93-18.9 45.56 4.97 31.1 58.77 90.87 230.08 121.82 330.31 19.64 63.56 5.52 36.72 5.52 36.72s9.64 24-4.72 46.63c-14.36 22.62-39.35-31.57-44.86-44.54-1.04-2.46-2.1-5.1-3.16-7.9l-7.23-21.03c-9.67-30.58-19.31-28.17-42.1-86.02-33.14-84.12-79.28-231.45-70.83-259.14z"/><path id="Cn" d="M1917.91 1046.61c10.57.75 27.29 33.65 19.88 56.38-18.22 55.93-86.77 181.82-128.88 250.65-26.71 43.65-18.34 18.21-18.34 18.21s-8.97 19.16-29.13 9.02-1.52-57.28 3.18-68c.89-2.03 1.88-4.13 2.96-6.29l29.14-22.01-20.67 6.69c12.74-21.28 6.53-32.12 28.39-77.77 31.77-66.37 93.35-168.31 113.47-166.88z"/><path id="Co" d="M1918.33 1108.5c-.31.41-.57.75-.52 1.05l.03.03c.63 3.77-.87 5.05-2.38 6.32-.61.52-1.21 1.03-1.68 1.71-2.31 3.38-4.38 7.2-6.47 11.06-3.33 6.17-6.72 12.44-11.25 17.18-2.79 2.92-15.69 25.3-22.83 37.68l-3.14 5.44c-8.54 14.71-18.65 34.62-28.41 53.86-16.58 32.65-32.18 63.38-37.48 63.5-13.3.31-9.13-10.24-1.89-28.8l8.85-9.87-8.63-1.22c9.04-20.22 23.42-44.43 34.68-63.36l5.53-9.33c15.23-25.88 32.55-47.68 47.28-66.23 7.67-9.67 14.65-18.45 20.26-26.46.74.27 1.47.45 2.17.63 2.1.52 4.08 1.02 6.24 3.76 1 1.25.24 2.26-.36 3.05z"/><path id="Cp" d="M2058.38 1110.26c.09.79.16 1.47.36 1.65l.04-.01c2.61 2.28 2.58 5.56 2.56 8.83l.14 3.9c.82 6.23 2.03 12.49 3.26 18.81 1.96 10.09 3.95 20.35 4.41 30.97.29 6.53 6.98 44.32 10.68 65.21l1.62 9.19c4.37 24.93 11.05 56.56 17.5 87.12 10.95 51.87 21.26 100.67 18.51 108.49-6.86 19.58-11.03 4.53-18.41-21.78l-1.27-21.25-5.32 11.49c-7.43-30.33-14.44-71.83-19.92-104.29l-2.71-15.97c-7.56-44.15-11.56-87.86-14.96-125.04l-5.26-51.95c.56-.86 1.05-1.75 1.54-2.63 1.43-2.6 2.77-5.05 5.58-5.86 1.29-.38 1.49 1.59 1.65 3.12z"/><path id="Cq" d="M2072.59 1098.64c.17.71.32 1.32.54 1.43l.04-.02c2.84 1.47 3.2 4.51 3.56 7.54.14 1.22.29 2.44.6 3.56 1.54 5.56 3.47 11.04 5.42 16.58 3.12 8.84 6.29 17.84 7.99 27.53 1.05 5.97 12.09 39.25 18.2 57.65l2.68 8.09c7.23 21.96 17.53 49.55 27.48 76.2 16.89 45.24 32.78 87.8 31.01 95.7-4.45 19.8-10.33 6.92-20.69-15.58l-3.76-19.32-3.88 11.92c-10.89-26.2-22.67-62.82-31.89-91.47l-4.55-14.1c-12.65-38.94-21.73-78.35-29.46-111.87l-11.3-46.72c.45-.93.83-1.88 1.21-2.81 1.1-2.75 2.13-5.35 4.8-6.79 1.22-.66 1.66 1.1 2 2.48z"/><path id="Cr" d="M1926.58 1108.82c-6.28-12.73-33.88-15.29-42.45 6.5-21.09 53.64-53.3 208.61-68.34 299.1-9.54 57.38 0 32.88 0 32.88s-5.71 21.77 11.11 41.22 32.77-29.84 36.15-41.62c.63-2.23 1.26-4.62 1.87-7.16l-3.88-48.42 7.73 29.4c11.79-67.79 77.97-271.01 57.81-311.9z"/><path id="Cs" d="M1995.05 1021.34c-11.25-8.62-38.04 17.83-36.76 53.26 3.16 87.21 39.03 308.43 63.47 433.57 15.5 79.37 13.98 39.63 13.98 39.63s3.93 32.35 27.86 37.79c23.93 5.43 17.83-71.04 15.97-88.84l-1.3-10.64-4.5-27.04c-7.26-38.43 2.28-46.51-7.58-124.01-14.35-112.67-49.72-297.31-71.14-313.72z"/><path id="Ct" d="M1887.11 1141.39c-.06.6-.11 1.12-.3 1.23l-.03-.02c-2.45 1.3-2.33 3.88-2.21 6.46.05 1.04.1 2.08-.02 3.03-.6 4.75-1.59 9.44-2.59 14.17-1.59 7.56-3.2 15.25-3.34 23.51-.08 5.08-5.41 33.52-8.36 49.25l-1.29 6.92c-3.47 18.77-8.97 42.37-14.29 65.17-9.02 38.69-17.51 75.11-14.64 81.78 7.19 16.71 10.77 5.67 17.1-13.61l.6-16.47 5.46 10.05c6.27-22.44 11.8-53.73 16.12-78.21l2.14-12.05c5.98-33.27 8.55-66.88 10.73-95.47l3.53-39.85c-.57-.78-1.07-1.58-1.56-2.36-1.45-2.32-2.82-4.5-5.55-5.67-1.25-.54-1.39.96-1.5 2.14z"/><path id="Cu" d="M1948.36 1124.65c-7.69-12.26-35.16-6.41-41.01 20.71-14.39 66.74-27.7 250.48-31.77 356.57-2.58 67.29 3.9 36.84 3.9 36.84s-3.04 26.18 15.83 42.65c18.87 16.46 28.72-43.79 30.64-58.05.36-2.7.69-5.58.99-8.61l-9.56-53 11.09 30.48c3.57-79.64 44.59-328.16 19.89-367.59z"/><path id="Cv" d="M1977.09 1098.7c.21.84.39 1.56.26 1.9l-.04.02c-1.7 4.38-.46 7.55.77 10.72.5 1.28 1 2.56 1.31 3.92 1.51 6.75 2.64 13.85 3.78 21.02 1.82 11.45 3.68 23.1 7.15 33.83 2.14 6.61 9.6 48.97 13.72 72.39l1.82 10.3c4.97 27.9 10.16 64.24 15.18 99.37 8.51 59.59 16.52 115.67 22.09 121.03 13.93 13.43 12.43-4.68 9.89-36.42l-6.62-21.77 9.43 6.82c-3.98-35.7-12.5-81.94-19.16-118.11l-3.27-17.81c-8.97-49.28-21.24-95.19-31.68-134.24l-14.1-54.98c-.86-.37-1.67-.84-2.46-1.3-2.36-1.35-4.58-2.62-7.62-1.1-1.39.69-.86 2.78-.45 4.41z"/><path id="Cw" d="M1961.76 1141.43c9.7-11.55 39.52 2.26 43.35 33.89 9.42 77.84 6.26 285.14.44 403.87-3.7 75.3-7.91 39.8-7.91 39.8s.81 29.84-21.66 43.07-27.5-56.21-28.24-72.53a293.58 293.58 0 0 1-.26-9.82l15.74-56.22-15.24 30.85c1.55-36.38-8.88-40.12-10.4-111.79-2.2-104.19 5.72-279.12 24.18-301.12z"/><path id="Cx" d="M1990.41 1203.58c-.09.76-.16 1.42.01 1.66h.04c2.28 3.08 1.53 6.13.79 9.17-.31 1.23-.61 2.46-.71 3.69-.5 6.12-.59 12.39-.67 18.74-.13 10.12-.27 20.42-2.11 30.5-1.14 6.19-2.33 43.88-2.99 64.72l-.29 9.16c-.84 24.85-.69 56.78-.55 87.64.25 52.35.48 101.63-4.16 107.94-11.62 15.81-12.75.26-14.82-26.95l3.32-20.3-8.19 8.81c-1.24-30.99.43-72.26 1.74-104.53l.63-15.89c1.67-43.94 7.03-86.18 11.59-122.12l5.84-50.39c.78-.6 1.51-1.26 2.21-1.9 2.1-1.92 4.07-3.71 7.24-3.46 1.45.11 1.24 2.02 1.08 3.51z"/><path id="Cy" d="M1920.18 1138.87c.01.75.01 1.39-.17 1.59l-.04-.01c-2.31 2.51-1.93 5.58-1.56 8.63.16 1.24.31 2.47.28 3.67-.13 5.94-.65 11.97-1.17 18.06-.84 9.72-1.69 19.6-1.01 29.6.42 6.15-2.08 42.46-3.46 62.53l-.6 8.83c-1.61 23.94-4.75 54.49-7.79 84-5.16 50.08-10.02 97.21-6.5 104.13 8.81 17.34 11.27 2.67 15.68-23l-1.03-20.06 6.43 9.98c4.02-29.43 6.43-69.26 8.32-100.4l.94-15.34c2.67-42.38 1.9-83.84 1.26-119.1l-.42-49.35c-.64-.72-1.22-1.49-1.79-2.24-1.68-2.23-3.25-4.32-6.09-4.68-1.29-.17-1.28 1.7-1.28 3.16z"/><path id="Cz" d="M1817.34 645.066l9.77-73.093c4.94-42.977 41.33-75.414 84.59-75.414h149.66c45.01 0 83.93 31.411 93.42 75.414l6.51 73.093 14.11 120.663 17.38 116.854c4 26.908 4.62 54.212 1.83 81.272l-4.77 46.335c-6.43 62.37-39.05 119.08-89.72 156l-12.09 8.8c-29.95 21.82-66.05 33.58-103.11 33.58-29.5 0-58.52-7.46-84.38-21.67l-18.43-10.14a191.88 191.88 0 0 1-69.26-64.84c-14.78-23.14-24.43-49.19-28.28-76.39l-6.29-44.338a398.3 398.3 0 0 1-1.66-98.427l5.31-49.335 18.05-71.9 17.36-126.464z"/><path id="DA" d="M1888.17 402.99c-6.19 3.22-27.82 24.074-32.82 32.958-22.38 39.759-20.86 65.02-22.38 68.008-3.9 7.75-4.88 71.547 0 74.286 27.75-7.706 7.96-60.161 22.38-103.582s71.61 7.847 71.61 7.847c3.81 6.141 49.41-25.704 48.24-38.189 46.08-11.928 36.45-50.06 87.37-54.557-60.39-22.956-115.22-17.517-174.4 13.229z"/><path id="DB" d="M2097.55 404.395c6.2 3.22 27.82 24.074 32.82 32.957 22.38 39.759 20.86 65.021 22.38 68.009 3.9 7.749 4.88 71.546 0 74.285-27.75-7.706-7.96-60.161-22.38-103.581s-71.61 7.847-71.61 7.847c-3.81 6.141-49.41-25.705-48.24-38.189-46.08-11.929-36.45-50.06-87.37-54.558 60.39-22.956 115.22-17.516 174.4 13.23z"/><path id="DC" d="M1934.54 675.517c-1.49-3.869-15.87-41.999-18.85-41.999s-5.46 13.815-5.95 18.789c-.5 4.973.5 40.341 2.48 55.814s10.41 37.026 14.38 44.762 18.35 27.078 24.31 31.499c5.95 4.421 13.39 7.737 18.85 8.842 5.45 1.105 25.29.553 31.74-1.658s18.35-7.736 23.81-14.368c5.45-6.631 22.81-29.288 25.29-37.025s10.42-26.526 12.4-38.683c1.99-12.158 4.77-43.657 2.98-53.604s-2.48-11.052-4.96-14.368-6.45-1.658-8.93 0-6.94 10.5-8.43 14.368-1.98 12.71-2.98 20.999c-.99 8.29-36.7 18.547-39.18 21.31s3.97 51.083 1.49 51.636-26.79.552-33.23-1.658c-6.45-2.211-5.96-49.654-9.93-55.732-3.96-6.079-23.8-5.056-25.29-8.924z"/><path id="DD" d="M1936.51 611.518c-1.42-3.669-15.13-39.831-17.97-39.831s-5.2 13.102-5.68 17.819c-.47 4.717.48 38.259 2.37 52.933s9.93 35.115 13.71 42.452 17.5 25.681 23.17 29.874c5.68 4.192 12.77 7.337 17.97 8.385s24.12.524 30.26-1.572c6.15-2.097 17.5-7.337 22.7-13.627s21.75-27.777 24.12-35.114c2.36-7.337 9.93-25.157 11.82-36.687s4.54-41.403 2.83-50.837c-1.7-9.434-2.36-10.482-4.72-13.626-2.37-3.145-6.15-1.573-8.52 0-2.36 1.572-6.62 9.957-8.03 13.626-1.42 3.669-1.9 12.054-2.84 19.916-.95 7.861-18.92 59.747-21.28 62.367-2.37 2.621-12.29 6.289-14.66 6.813-2.36.524-31.68 4.717-37.83 2.621-6.14-2.097-8.04-5.241-11.82-11.006s-14.18-50.837-15.6-54.506z"/><path id="DE" d="M1914.51 541.673l2.42 15.121 49.69-81.61 50.23 2.092 40.28 77.425 1.89-4.856c3.51-9.037 3.78-19.013.75-28.225l-16.24-49.464c-1.37-4.175-3.89-7.88-7.26-10.694a23.49 23.49 0 0 0-9.64-4.809l-14.99-3.527c-4.18-.985-8.48-1.416-12.78-1.284l-21.48.661a49.22 49.22 0 0 0-11.87 1.83l-13.32 3.765a27.45 27.45 0 0 0-9.01 4.461 27.36 27.36 0 0 0-9.2 12.221l-17.27 45.409a41.84 41.84 0 0 0-2.2 21.484z"/><path id="DF" d="M1919.27 569.376c-1.01-15.222 1.23-23.99 5.23-38.712 2.39-8.793 4.57-13.471 7.85-21.972 3.26-8.46 3.98-13.825 8.89-21.449 6.18-9.596 11.04-14.704 20.93-20.402 9.57-5.521 16.15-8.173 27.2-7.847 6.69.197 10.63.937 16.74 3.662 9.64 4.296 13.22 10.124 19.88 18.309 6.48 7.962 9.1 13.266 13.6 22.495 6.05 12.43 8.43 20.003 11.51 33.481 3.25 14.231 6.99 21.919 3.42 38.686-1.08 5.055-1.78 10.794-3.42 15.694-13.91 41.475-11.63 25.533-21.97 68.035-3.7 15.171-22.79 74.259-25.11 98.873l-7.33 77.425c-1.57 9.94-12.55 11.509-15.69 0s-24.07-135.493-24.07-135.493-6.27-13.079-7.84-17.264-17.27-72.716-21.98-81.086c-4.7-8.371-6.98-19.432-7.84-32.435z"/><linearGradient id="DG" gradientUnits="userSpaceOnUse"/></defs></svg>