<svg width="536" height="393" viewBox="0 0 536 393" fill="none" xmlns="http://www.w3.org/2000/svg">
<path d="M241.177 271.831C242.65 263.809 245.723 262.284 251.409 260.78C257.852 259.077 264.711 261.599 267.167 267.329C270.236 274.492 279.855 279.198 283.333 283.496C286.812 287.793 284.766 289.43 285.585 292.909C286.403 296.388 292.542 297.616 294.589 296.388C296.635 295.16 296.635 290.863 294.589 289.635C293.865 289.201 289.063 283.496 287.836 280.017C286.608 276.538 281.492 275.31 279.855 273.059C278.217 270.808 276.99 263.85 281.492 263.236C285.994 262.622 285.994 264.464 289.882 267.943C293.77 271.422 300.114 274.287 302.57 274.287C305.026 274.287 313.007 277.561 315.053 281.04C317.1 284.519 320.578 286.565 326.718 283.496C332.857 280.426 340.02 280.017 342.885 278.38C345.75 276.743 344.522 275.31 349.842 274.287C355.163 273.264 358.233 276.333 360.484 272.65C362.735 268.966 368.465 266.92 374.809 264.669C381.153 262.418 376.651 256.074 384.018 256.688C391.385 257.302 389.748 266.51 388.315 269.58C386.883 272.65 382.176 272.65 379.925 276.947C377.674 281.245 371.944 286.361 367.237 288.407C362.53 290.454 352.093 289.226 348.41 294.137C345.463 298.066 339.815 300.549 337.359 301.3C339.61 304.028 345.095 310.058 349.024 312.35C353.935 315.215 357.823 317.671 360.484 323.197C363.144 328.722 371.739 328.313 373.99 334.043C376.241 339.773 376.446 338.545 381.562 343.661C386.678 348.777 380.13 353.688 373.99 352.051C367.851 350.414 366.214 343.661 364.986 341C363.758 338.34 354.754 337.931 352.912 337.112C351.07 336.294 349.433 335.68 345.545 332.61C341.657 329.54 337.768 328.108 335.927 327.494C334.453 327.003 332.175 323.606 331.22 321.969C331.356 323.265 331.793 326.594 332.448 329.54C333.266 333.224 328.355 339.977 326.718 344.889C325.081 349.8 321.806 356.553 316.69 354.916C311.574 353.279 312.597 351.437 313.621 343.661C314.644 335.884 315.258 338.749 311.165 331.587C307.072 324.424 317.918 315.011 308.709 314.192C299.5 313.374 293.975 326.062 290.087 335.27C286.198 344.479 285.38 364.33 297.045 370.878C308.709 377.427 316.281 370.878 326.718 362.693C337.155 354.507 349.638 355.735 366.214 356.553C382.79 357.372 395.887 366.376 404.073 392.57C412.258 418.765 398.547 440.048 394.455 445.573C390.362 451.098 382.79 451.508 375.627 456.01C368.465 460.512 370.316 467.47 358.028 471.153C348.658 473.962 344.98 471.153 334.355 472.644C325.892 473.831 324.467 476.474 319.555 475.86C314.644 475.246 311.983 469.721 307.481 467.47C302.979 465.219 297.863 467.47 289.063 463.172C280.264 458.875 276.376 451.303 275.148 446.392C273.92 441.48 271.873 441.48 267.167 436.159C262.46 430.839 262.869 428.792 262.255 425.927C261.764 423.635 262.46 412.557 262.869 407.305C260.686 410.852 255.993 419.297 254.683 424.699C253.046 431.453 255.502 434.318 255.911 441.48C256.239 447.21 253.183 450.416 251.614 451.303C251.682 452.463 251.491 455.355 250.181 457.647C248.544 460.512 235.447 463.582 231.15 461.535C226.852 459.489 226.443 453.759 224.192 447.21C221.941 440.662 219.076 438.001 216.415 433.294C213.755 428.588 216.415 412.625 213.141 406.895C209.867 401.165 207.82 391.547 209.662 387.25C211.135 383.812 214.778 382.407 216.415 382.134L241.177 311.104C239.745 308.785 236.88 304.433 236.061 299.849C235.038 294.119 232.582 291.886 236.061 287.998C239.54 284.11 239.335 281.859 241.177 271.831Z" fill="url(#paint0_linear_24_9492)" stroke="#F2C78B" stroke-width="0.91191"/>
<path d="M121.462 68.8251C111.311 81.5948 105.158 107.98 104.886 116.711C107.887 111.391 117.128 94.2936 122.076 93.5868C126.373 92.9729 128.624 97.6797 127.806 101.159C126.987 104.638 122.28 108.321 120.643 110.163C119.006 112.005 123.508 120.6 129.238 114.87C134.968 109.14 140.584 104.015 146.428 105.047C149.907 105.661 155.228 107.503 159.116 111.391C160.903 113.178 172.268 127.858 177.377 134.457L177.738 134.925C177.125 131.446 174.26 124.897 173.646 121.418C173.238 119.11 172.963 115.62 172.827 114.256L184.901 112.619C189.335 115.415 205.979 124.815 224.806 135.129C243.633 145.443 311.984 163.848 343.295 172.579C348.138 171.01 359.461 166.644 366.01 161.733C374.196 155.594 377.47 139.018 374.4 131.65C371.331 124.283 363.35 125.306 360.689 127.762C358.029 130.218 358.643 135.334 355.778 136.357C352.913 137.38 352.094 139.222 350.048 140.245C348.001 141.269 341.248 138.404 336.541 137.79C331.835 137.176 327.946 136.357 325.286 136.357C322.626 136.357 319.965 133.697 314.44 131.446C308.915 129.195 300.958 128.132 298.478 127.148C292.754 124.879 290.299 121.809 285.387 119.763C281.642 118.202 276.447 117.669 272.904 116.489C267.993 114.851 263.688 112.209 261.233 109.549C258.777 106.889 252.433 103.614 251.205 103.205C250.223 102.878 241.519 96.52 237.29 93.3822C238.381 93.8597 241.914 95.5514 247.317 98.4983C254.07 102.182 259.596 99.7261 261.233 98.4983C262.87 97.2704 267.577 91.3358 267.372 87.6522C267.167 83.9686 264.712 83.15 263.688 83.15C262.665 83.15 259.596 83.15 258.777 86.015C257.958 88.88 257.958 89.9033 255.912 89.6986C253.866 89.494 252.433 85.6058 251.205 83.15C250.223 81.1855 246.976 75.3736 245.475 72.7133C247.112 72.0993 250.796 70.8715 252.433 70.8715H259.596C259.255 71.6218 258.777 73.409 259.596 74.555C260.619 75.9875 263.688 76.1922 264.712 74.555C265.735 72.9179 264.302 69.2343 260.414 64.7322C257.304 61.1305 249.159 58.5929 245.475 57.7743C243.975 52.8629 240.85 40.5434 240.359 30.5568C239.745 18.0736 244.657 10.7065 246.908 7.8415C249.159 4.9765 251.41 6.81828 254.889 6.61364C258.368 6.409 256.321 1.49757 254.889 0.883642C253.456 0.269714 236.88 -1.57207 218.872 12.5483C204.465 23.8446 194.042 48.6336 190.631 59.6161C189.881 59.5479 187.398 59.4524 183.468 59.6161C179.539 59.7798 175.556 62.0036 174.055 63.0951C174.396 62.3447 175.119 60.2301 175.283 57.7743C175.487 54.7047 174.669 48.1561 162.8 47.9515C150.93 47.7468 134.15 52.8629 121.462 68.8251Z" fill="url(#paint1_linear_24_9492)" stroke="#F2C78B" stroke-width="0.91191"/>
<path d="M104.679 115.484C106.654 109.498 116.013 96.8618 117.776 93.9968C119.54 91.1318 123.902 91.1343 126.781 93.1782C129.502 95.1102 129.58 98.0442 129.236 101.364C128.751 106.057 122.483 109.345 121.665 110.778C120.846 112.21 121.665 115.484 124.939 115.484C128.213 115.484 131.078 110.778 133.534 108.526C135.99 106.275 142.129 101.773 153.384 105.661C162.389 108.772 172.825 125.648 176.918 133.698C174.258 126.262 168.814 110.245 168.323 105.661C167.709 99.9314 168.937 94.8154 173.439 93.3829C177.941 91.9504 178.555 98.7036 178.146 100.341C177.737 101.978 176.918 103.615 180.806 104.843C183.917 105.825 186.468 110.027 187.355 112.005C200.998 119.714 231.763 136.522 245.678 142.088C263.073 149.046 307.89 163.166 320.168 165.622C332.447 168.078 395.305 177.274 404.719 178.093C414.132 178.911 420.271 182.595 421.09 187.097C421.09 188.593 419.847 194.419 417.477 195.283C413.378 196.776 409.826 195.658 405.946 195.283C391.826 193.919 376.159 193.208 367.645 193.044C357.004 192.839 320.373 193.862 302.978 213.508C285.584 233.154 281.286 258.734 280.468 269.171C280.002 275.106 278.805 297.4 280.468 301.095C282.309 305.188 287.384 307.562 292.132 314.602C298.067 323.401 303.797 344.275 304.82 354.302C305.843 364.33 313.006 413.854 312.596 426.746C312.187 439.639 315.666 466.447 317.713 495.711C319.759 524.975 328.559 527.43 332.651 530.705C336.744 533.979 341.86 538.276 341.246 542.983C340.633 547.69 337.358 548.918 333.265 548.304C329.173 547.69 327.74 545.03 320.373 543.392C313.006 541.755 307.48 545.439 301.341 547.485C295.202 549.532 293.565 545.848 289.676 549.941C285.788 554.034 281.491 556.899 279.24 556.08C276.989 555.262 273.305 549.122 274.533 538.481C275.761 527.84 282.923 527.43 284.56 528.454C286.198 529.477 297.248 529.886 301.75 527.43C306.253 524.975 307.89 520.472 308.094 514.538C308.299 508.603 299.09 464.196 293.769 440.048C289.513 420.73 270.576 386.295 261.64 371.492C250.999 390.32 249.157 397.073 249.157 417.537C249.157 424.93 248.339 520.677 248.339 524.361C248.339 528.044 259.799 536.23 262.664 541.141C265.529 546.053 264.505 551.169 261.026 552.397C257.548 553.625 249.771 549.532 246.906 548.304C244.041 547.076 235.241 545.848 230.125 546.667C225.009 547.485 214.573 546.257 213.549 544.825C213.208 544.825 212.24 544.948 211.094 545.439C209.661 546.053 205.978 548.713 204.545 550.76C203.113 552.806 199.429 553.42 197.383 552.397C195.336 551.374 191.243 544.825 191.243 536.844C191.243 528.863 199.02 523.542 201.68 523.747C204.34 523.951 206.182 526.407 210.07 527.84C213.181 528.986 221.735 529.381 225.623 529.436C229.208 528.134 232.868 527.04 235.241 526.407C234.628 512.491 233.154 481.754 232.172 470.13C230.944 455.601 223.781 412.012 222.758 404.645C221.94 398.751 221.305 374.456 225.214 355.735C229.728 334.118 245.144 315.74 246.497 303.346C247.849 290.953 246.62 282.596 247.111 269.171C247.725 252.39 237.697 225.787 235.241 216.782C232.786 207.778 233.809 202.253 231.558 189.565C229.757 179.415 206.66 177.696 195.336 178.105C193.685 178.093 189.673 177.74 186.831 176.429C183.279 174.789 182.542 172.603 182.186 170.417C181.901 168.668 181.83 166.355 181.83 165.417C183.058 162.757 186.741 160.71 189.401 160.71H236.265C228.898 156.549 212.854 147.695 207.615 145.567C201.066 142.906 190.22 142.088 183.467 143.111C176.714 144.134 172.825 147.613 161.775 154.162C150.724 160.71 145.813 161.734 140.083 161.324C135.499 160.997 133.807 156.004 133.534 153.548C132.784 154.094 131.119 155.267 130.464 155.594C129.646 156.004 127.395 156.413 125.553 155.185C124.079 154.203 124.939 151.774 125.553 150.683C125.007 150.683 123.67 151.542 122.688 151.706C121.46 151.911 119.209 154.366 118.39 154.776C117.572 155.185 114.707 156.413 112.046 155.185C109.918 154.203 109.25 150.342 108.977 149.046C107.203 152.866 103.124 161.283 100.996 164.394C98.3354 168.282 92.6054 166.85 93.8332 164.803C95.0611 162.757 98.1308 135.335 104.679 115.484Z" fill="url(#paint2_linear_24_9492)" stroke="#F2C78B" stroke-width="0.91191"/>
<path d="M495.078 316.105C501.461 307.706 514.903 295.702 516.928 294.255C518.954 292.808 522.937 290.645 527.381 295.089C531.825 299.533 524.668 308.22 515.337 317.552C477.856 355.033 451.667 384.985 422.002 416.096C418.095 419.714 412.886 422.318 408.979 423.91C405.853 425.183 399.286 426.217 393.351 424.778C383.8 422.463 373.816 416.819 373.382 413.491C373.034 410.829 375.938 407.365 377.433 405.967C374.829 403.362 368.143 398.124 362.239 398.008C356.335 397.892 348.01 404.713 344.585 408.137C343.958 407.221 342.965 404.954 344.007 403.217C345.309 401.047 351.965 395.548 353.557 394.535C355.149 393.522 363.686 390.483 371.211 392.22C378.736 393.956 383.656 399.455 391.325 407.414C398.994 415.372 408.545 416.241 411.149 415.372C413.754 414.504 428.803 399.455 431.842 395.837C434.881 392.22 484.08 330.576 495.078 316.105Z" fill="url(#paint3_linear_24_9492)" stroke="#F2C78B" stroke-width="0.91191"/>
<path d="M502.491 285.612C501.333 283.992 444.008 234.392 414.511 199.947C411.091 195.954 405.921 189.223 407.876 185.122C409.832 181.02 416.218 180.238 419.431 183.451C426.275 190.295 436.361 200.092 441.281 205.302C446.201 210.511 520.579 282.863 525.788 287.204C528.862 290.401 534.119 297.685 530.564 301.24C526.12 305.684 520.368 301.784 516.464 298.732C513.34 296.291 505.847 288.969 502.491 285.612Z" fill="url(#paint4_linear_24_9492)" stroke="#F2C78B" stroke-width="0.91191"/>
<path d="M185.194 206.777C183.91 193.88 182.292 175.369 182.244 166.513C182.22 162.096 189.627 161.478 193.506 163.591C198.173 166.133 196.833 170.153 196.907 176.767C197.334 214.934 200.43 271.824 200.662 274.433C200.754 275.468 201.896 289.931 203.43 309.473C203.198 314.693 200.836 316.715 197.135 317.044C193.433 317.373 189.82 314.228 189.82 314.228C189.82 314.228 186.676 241.915 185.194 206.777Z" fill="url(#paint5_linear_24_9492)" stroke="#F2C78B" stroke-width="0.91191"/>
<path d="M51.9023 278.385C56.2291 279.695 139.953 292.358 191.625 303.01C199.45 305.546 203.481 309 202.731 312.639C201.98 316.279 195.74 318.13 192.261 317.412C151.032 308.466 86.7522 294.488 81.0329 293.166C72.6562 291.23 50.0017 287.604 43.7181 284.637C37.4345 281.671 32.496 275.22 27.888 267.166C23.28 259.112 22.2877 243.654 24.5584 239.734C26.3749 236.598 31.1834 236.991 33.3605 237.579C33.6794 235.694 33.6925 230.292 31.1947 223.76C28.6968 217.227 18.1804 214.251 13.2345 213.58C13.5609 212.672 14.4307 210.818 15.2985 210.662C16.3833 210.468 24.4541 209.833 33.054 214.74C41.6539 219.648 45.6896 229.464 44.6153 234.675C43.541 239.886 37.8162 264.616 39.5128 269.562C41.2093 274.509 47.5755 277.075 51.9023 278.385Z" fill="url(#paint6_linear_24_9492)" stroke="#F2C78B" stroke-width="0.91191"/>
<path d="M173.762 217.127C173.443 215.854 173.248 212.735 175.016 210.441C177.226 207.573 178.621 204.778 177.163 202.237C175.704 199.696 176.655 196.53 179.151 199.184C181.647 201.838 185.806 207.016 186.001 211.518C186.157 215.12 185.722 218.391 185.485 219.577C186.744 219.876 189.303 220.922 189.462 222.716C189.622 224.509 188.671 226.142 188.176 226.734C188.442 226.641 189.317 226.632 190.694 227.331C192.071 228.031 194.774 228.544 195.954 228.713C194.927 229.489 192.496 230.951 190.984 230.593C189.473 230.234 187.009 229.782 185.965 229.601L186.904 251.706C185.341 251.845 181.672 251.555 179.498 249.283C177.965 247.681 177.071 246.533 176.617 245.856C177.977 248.2 180.186 252.403 180.359 254.343C180.594 256.993 181.401 261.441 180.785 263.756C180.169 266.07 176.36 271.751 176.686 275.42C177.013 279.089 178.394 283.075 180.782 284.506C183.169 285.938 189.578 286.395 185.316 286.979C181.053 287.564 175.124 287.886 171.328 277.54C168.29 269.263 168.138 260.155 168.441 256.635C167.743 256.492 166.301 255.675 166.113 253.555C165.924 251.435 166.496 250.166 166.805 249.796C165.593 247.712 163.266 242.344 163.661 237.543C164.056 232.741 166.721 226.519 168.005 224.008C166.467 223.665 163.35 222.49 163.176 220.534C162.958 218.087 163.497 217.218 164.888 216.683C166 216.255 169.017 217.686 170.387 218.454C170.585 218.368 170.896 217.71 171.519 217.326C172.493 216.726 173.354 217.163 173.762 217.127Z" fill="url(#paint7_linear_24_9492)"/>
<path d="M200.246 234.123C202.737 233.698 203.147 236.249 202.829 240.057C202.43 244.818 199.966 244.832 199.029 250.462C198.091 256.093 197.566 259.427 198.354 263.671C198.985 267.067 195.344 271.404 193.445 273.148C194.314 270.605 195.669 264.896 194.133 262.403C192.212 259.287 192.062 250.671 193.679 248.062C195.296 245.453 198.843 241.439 198.032 239.251C197.383 237.501 198.096 234.491 200.246 234.123Z" fill="url(#paint8_linear_24_9492)"/>
<path d="M176.617 245.856C177.071 246.533 177.965 247.681 179.498 249.283C181.672 251.555 185.341 251.845 186.904 251.706L185.965 229.601C187.009 229.782 189.473 230.234 190.984 230.593C192.496 230.951 194.927 229.489 195.954 228.713C194.774 228.544 192.071 228.031 190.694 227.331C189.317 226.632 188.442 226.641 188.176 226.734C188.671 226.142 189.622 224.509 189.462 222.716C189.303 220.922 186.744 219.876 185.485 219.577C185.722 218.391 186.157 215.12 186.001 211.518C185.806 207.016 181.647 201.838 179.151 199.184C176.655 196.53 175.704 199.696 177.163 202.237C178.621 204.778 177.226 207.573 175.016 210.441C173.248 212.735 173.443 215.854 173.762 217.127C173.354 217.163 172.493 216.726 171.519 217.326C170.896 217.71 170.585 218.368 170.387 218.454C169.017 217.686 166 216.255 164.888 216.683C163.497 217.218 162.958 218.087 163.176 220.534C163.35 222.49 166.467 223.665 168.005 224.008C166.721 226.519 164.056 232.741 163.661 237.543C163.266 242.344 165.593 247.712 166.805 249.796C166.496 250.166 165.924 251.435 166.113 253.555C166.301 255.675 167.743 256.492 168.441 256.635C168.138 260.155 168.29 269.263 171.328 277.54C175.124 287.886 181.053 287.564 185.316 286.979C189.578 286.395 183.169 285.938 180.782 284.506C178.394 283.075 177.013 279.089 176.686 275.42C176.36 271.751 180.169 266.07 180.785 263.756C181.401 261.441 180.594 256.993 180.359 254.343C180.186 252.403 177.977 248.2 176.617 245.856ZM176.617 245.856C176.491 245.639 176.372 245.438 176.263 245.256C176.314 245.373 176.427 245.573 176.617 245.856ZM200.246 234.123C202.737 233.698 203.147 236.249 202.829 240.057C202.43 244.818 199.966 244.832 199.029 250.462C198.091 256.093 197.566 259.427 198.354 263.671C198.985 267.067 195.344 271.404 193.445 273.148C194.314 270.605 195.669 264.896 194.133 262.403C192.212 259.287 192.062 250.671 193.679 248.062C195.296 245.453 198.843 241.439 198.032 239.251C197.383 237.501 198.096 234.491 200.246 234.123Z" stroke="#F2C78B" stroke-width="0.91191"/>
<path d="M484.471 257.833C485.513 261.422 487.992 264.538 489.101 265.647C485.05 264.489 483.255 261.132 482.445 259.859C481.432 258.267 477.795 250.416 473.039 249.585C470.64 249.166 468.698 249.874 465.949 251.466C463.199 253.058 461.463 253.058 460.739 250.887C460.016 248.717 463.457 245.178 469.277 244.954C476.801 244.665 483.168 253.347 484.471 257.833Z" fill="url(#paint9_linear_24_9492)"/>
<path d="M479.284 242.545C479.622 242.111 479.453 241.971 479.916 241.045C480.379 240.119 480.109 238.344 479.916 237.572C481.219 238.778 483.968 241.566 484.547 243.071C485.27 244.952 488.309 248.859 491.927 250.451C495.544 252.043 499.451 252.187 502.056 255.66C504.661 259.133 504.661 260.001 504.805 261.304C504.95 262.606 502.201 263.329 502.345 264.632C502.49 265.934 504.371 265.789 505.818 264.342C507.265 262.895 508.134 260.58 508.278 259.567C508.423 258.554 508.857 254.937 504.082 249.004C500.262 244.257 493.904 237.476 491.203 234.678C491.686 234.292 492.477 233.173 491.782 231.784C490.914 230.047 482.666 219.773 478.035 216.59C474.331 214.043 469.835 213.889 468.05 214.13C468.533 213.841 469.497 212.509 469.497 209.499C469.497 205.737 467.761 202.264 465.59 204.145C463.42 206.027 463.854 209.355 461.828 210.802C460.207 211.959 458.934 212.538 458.5 212.683C458.259 211.67 456.821 209.499 453.001 208.921C448.226 208.197 444.753 205.014 445.187 202.843C445.621 200.672 442.148 200.094 441.57 202.698C440.991 205.303 439.254 207.618 442.582 211.815C444.496 214.227 445.81 215.533 447.32 216.628C447.188 217.821 447.387 220.555 449.239 221.944C451.091 223.333 453.747 223.995 454.844 224.153C454.567 224.622 454.246 225.909 455.172 227.298C456.329 229.035 457.342 229.758 456.763 231.205C456.185 232.652 456.908 233.376 458.066 232.507C459.223 231.639 460.236 230.048 459.513 228.166C458.934 226.661 460.17 224.518 460.381 224.115L479.284 242.545Z" fill="url(#paint10_linear_24_9492)"/>
<path d="M484.471 257.833C485.513 261.422 487.992 264.538 489.101 265.647C485.05 264.489 483.255 261.132 482.445 259.859C481.432 258.267 477.795 250.416 473.039 249.585C470.64 249.166 468.698 249.874 465.949 251.466C463.199 253.058 461.463 253.058 460.739 250.887C460.016 248.717 463.457 245.178 469.277 244.954C476.801 244.665 483.168 253.347 484.471 257.833Z" stroke="#F2C78B" stroke-width="0.91191"/>
<path d="M479.284 242.545C479.622 242.111 479.453 241.971 479.916 241.045C480.379 240.119 480.109 238.344 479.916 237.572C481.219 238.778 483.968 241.566 484.547 243.071C485.27 244.952 488.309 248.859 491.927 250.451C495.544 252.043 499.451 252.187 502.056 255.66C504.661 259.133 504.661 260.001 504.805 261.304C504.95 262.606 502.201 263.329 502.345 264.632C502.49 265.934 504.371 265.789 505.818 264.342C507.265 262.895 508.134 260.58 508.278 259.567C508.423 258.554 508.857 254.937 504.082 249.004C500.262 244.257 493.904 237.476 491.203 234.678C491.686 234.292 492.477 233.173 491.782 231.784C490.914 230.047 482.666 219.773 478.035 216.59C474.331 214.043 469.835 213.889 468.05 214.13C468.533 213.841 469.497 212.509 469.497 209.499C469.497 205.737 467.761 202.264 465.59 204.145C463.42 206.027 463.854 209.355 461.828 210.802C460.207 211.959 458.934 212.538 458.5 212.683C458.259 211.67 456.821 209.499 453.001 208.921C448.226 208.197 444.753 205.014 445.187 202.843C445.621 200.672 442.148 200.094 441.57 202.698C440.991 205.303 439.254 207.618 442.582 211.815C444.496 214.227 445.81 215.533 447.32 216.628C447.188 217.821 447.387 220.555 449.239 221.944C451.091 223.333 453.747 223.995 454.844 224.153C454.567 224.622 454.246 225.909 455.172 227.298C456.329 229.035 457.342 229.758 456.763 231.205C456.185 232.652 456.908 233.376 458.066 232.507C459.223 231.639 460.236 230.048 459.513 228.166C458.934 226.661 460.17 224.518 460.381 224.115L479.284 242.545Z" stroke="#F2C78B" stroke-width="0.91191"/>
<path d="M253.867 193.249C243.226 194.681 242.203 186.291 243.635 185.268C244.353 184.755 245.068 185.309 245.886 185.472C246.909 185.677 248.137 184.858 247.728 183.63C247.587 183.207 247.3 182.857 246.909 182.588C247.523 182.254 248.792 181.216 248.956 179.742C249.16 177.9 248.342 175.854 246.909 172.989C245.763 170.697 238.519 164.803 238.519 162.552L236.268 160.71C235.653 164.803 242.641 170.173 243.84 171.557C246.499 174.626 247.728 177.287 247.319 179.538C246.991 181.338 244.863 181.925 243.84 181.993C241.998 182.198 239.951 183.63 240.361 187.314C240.77 190.998 244.454 194.681 245.477 195.909C246.5 197.137 253.867 200.82 259.802 206.96C264.549 211.871 266.419 215.145 266.76 216.169C268.943 214.054 274.495 208.965 279.243 205.527C285.178 201.23 286.405 202.048 289.884 200.82C293.363 199.593 299.912 196.728 298.275 190.793C298.034 189.92 297.775 189.251 297.512 188.747C297.121 187.246 296.574 183.876 297.512 182.403C298.684 180.561 301.958 180.765 303.595 179.742C305.233 178.719 307.484 176.059 306.665 172.989C305.846 169.919 304.619 167.464 305.233 165.827C305.724 164.517 308.575 163.507 309.939 163.166C309.257 162.689 307.729 161.775 307.074 161.938C306.256 162.143 302.981 163.166 302.572 165.622C302.163 168.078 304.414 170.943 304.619 172.989C304.823 175.035 304.414 176.673 302.777 177.9C301.14 179.128 298.479 178.514 296.842 179.947C295.205 181.379 295.205 182.198 295 183.835C294.837 185.145 295.164 186.925 295.348 187.652C294.875 188.054 294.668 188.824 295 189.156C295.819 189.974 296.638 191.816 295 194.067C293.363 196.318 288.043 195.5 277.81 193.249C267.578 190.998 264.509 191.816 253.867 193.249Z" fill="url(#paint11_linear_24_9492)" stroke="#F2C78B" stroke-width="0.91191"/>
<path d="M256.115 273.468C252.186 275.269 252.022 281.859 252.432 284.928C251.749 285.406 249.812 286.688 247.52 287.998C245.228 289.308 244.246 291.409 244.041 292.295C243.905 290.999 243.018 287.998 240.562 286.361C237.493 284.314 232.991 287.589 233.195 292.295C233.359 296.061 234.491 300.413 235.037 302.118C232.854 304.915 228.038 311.532 226.237 315.625C223.986 320.741 219.484 324.424 216.005 330.154C212.526 335.884 214.573 346.935 213.754 352.051C212.936 357.167 210.275 360.442 206.796 366.99C204.013 372.229 209.457 376.404 212.526 377.836C211.912 379.814 211.053 384.63 212.526 388.068C214.368 392.366 223.986 394.617 225.214 399.938C226.442 405.258 233.604 405.258 238.107 408.328C242.609 411.398 248.339 417.946 253.046 417.946C257.752 417.946 257.957 412.625 257.957 410.579C257.957 408.533 254.273 405.258 254.683 397.891C255.01 391.997 258.047 391.097 257.343 386.636C256.729 382.748 257.793 383.853 261.231 385.817C265.529 388.273 269.826 395.435 271.668 400.756C273.51 406.077 278.626 403.417 282.105 406.691C285.584 409.965 283.333 412.625 287.426 415.695C291.518 418.765 302.16 414.672 307.685 420.197C313.211 425.723 320.782 419.993 321.192 415.695C321.601 411.398 317.099 407.714 315.462 405.258C313.824 402.803 313.824 396.868 315.462 393.184C317.099 389.501 314.234 377.632 313.824 373.743C313.415 369.855 308.094 358.6 308.913 352.87C309.732 347.14 308.708 338.954 305.025 328.108C301.341 317.262 291.518 308.667 294.383 304.779C297.248 300.89 290.495 295.365 288.244 294.137C285.993 292.909 280.263 296.593 276.989 294.137C273.714 291.682 271.463 286.361 270.44 278.994C269.417 271.627 261.027 271.217 256.115 273.468Z" fill="url(#paint12_linear_24_9492)" stroke="#F2C78B" stroke-width="0.91191"/>
<path fill-rule="evenodd" clip-rule="evenodd" d="M438.214 365.063C439.803 366.267 442.779 370.726 440.814 377.777C438.85 384.827 436.336 392.465 435.324 395.403C438.503 398.485 444.051 405.459 440.814 408.695C437.578 411.931 434.891 411.729 432.146 411.296C432.146 412.933 431.972 416.092 430.123 417.942C427.089 420.976 424.344 421.987 420.01 417.653C420.01 417.653 421.091 416.804 421.743 416.208C422.396 415.612 423.35 414.601 423.35 414.601C424.361 415.42 425.904 416.092 426.945 415.052C428.245 413.752 428.1 411.585 425.066 408.551C422.032 405.517 419.143 403.783 417.843 405.083C416.802 406.123 417.987 408.791 418.276 409.562C418.276 409.562 417.351 410.486 416.759 411.079C416.167 411.671 415.097 412.451 415.097 412.451C414.471 411.825 412.41 409.36 412.063 407.395C411.717 405.43 412.882 404.072 413.508 403.638C413.027 403.06 412.15 401.587 412.497 400.315C412.93 398.726 415.675 396.848 417.265 396.414C418.854 395.981 421.599 393.814 422.755 392.08C423.679 390.693 423.814 389.48 423.766 389.046C424.103 389.191 424.835 389.653 425.066 390.346C425.298 391.04 425.066 392.273 424.922 392.803C428.438 389.383 435.758 381.389 436.914 376.766C438.069 372.142 438.262 367.037 438.214 365.063ZM437.202 405.661C435.931 407.395 433.157 407.973 429.256 407.539L427.956 406.239C428.149 406.239 429.719 404.823 430.412 403.205C431.106 401.587 432.049 399.448 432.435 398.582C434.265 400.123 438.474 403.927 437.202 405.661Z" fill="url(#paint13_linear_24_9492)" stroke="#F2C78B" stroke-width="0.91191"/>
<path fill-rule="evenodd" clip-rule="evenodd" d="M98.4162 269.721C98.2843 271.711 96.1954 276.648 89.2258 278.883C82.2562 281.118 74.4939 283.218 71.484 283.988C70.6569 288.337 67.882 296.805 63.3995 295.881C58.9169 294.957 57.6085 292.601 56.4614 290.07C55.0936 290.97 52.3593 292.562 49.7979 292.034C45.5955 291.168 42.7904 290.798 44.028 284.795C44.028 284.795 45.5319 285.273 46.3881 285.49C47.2444 285.707 48.7482 286.185 48.7482 286.185C48.6204 287.48 49.0233 287.494 50.4641 287.791C52.2651 288.162 53.996 286.85 54.8623 282.647C55.7286 278.445 55.5882 275.078 53.7872 274.707C52.3464 274.41 50.7243 277.274 50.2395 277.939C50.2395 277.939 48.9851 277.429 48.1831 277.098C47.4085 276.778 46.2022 276.272 46.2022 276.272C46.3809 275.405 47.2284 272.52 48.6791 271.15C50.1297 269.78 51.9049 270.007 52.6112 270.292C52.8291 269.572 53.5782 268.03 54.8309 267.62C56.3967 267.109 59.4747 268.369 60.7105 269.458C61.9463 270.548 65.2657 271.649 67.3494 271.661C69.0163 271.671 70.1042 271.117 70.4397 270.838C70.5044 271.199 70.5206 272.065 70.0685 272.639C69.6163 273.214 68.4593 273.698 67.9374 273.869C72.7264 274.926 83.4287 276.645 87.926 275.069C92.4233 273.493 96.7934 270.847 98.4162 269.721ZM63.9481 291.196C61.8009 291.087 59.7931 289.088 58.0105 285.591L58.3818 283.79C58.4877 283.951 60.5336 284.484 62.2665 284.174C63.9994 283.863 66.3045 283.476 67.2404 283.322C66.9592 285.697 66.0953 291.305 63.9481 291.196Z" fill="url(#paint14_linear_24_9492)" stroke="#F2C78B" stroke-width="0.91191"/>
<defs>
<linearGradient id="paint0_linear_24_9492" x1="208.967" y1="366.299" x2="406.632" y2="366.299" gradientUnits="userSpaceOnUse">
<stop stop-color="#BD7B49"/>
<stop offset="1" stop-color="#3C3024"/>
</linearGradient>
<linearGradient id="paint1_linear_24_9492" x1="104.886" y1="86.5175" x2="375.535" y2="86.5175" gradientUnits="userSpaceOnUse">
<stop stop-color="#3C3024"/>
<stop offset="1" stop-color="#BD7B49"/>
</linearGradient>
<linearGradient id="paint2_linear_24_9492" x1="93.6631" y1="323.977" x2="421.09" y2="323.977" gradientUnits="userSpaceOnUse">
<stop stop-color="#FCF0D6"/>
<stop offset="1" stop-color="#FFC446"/>
</linearGradient>
<linearGradient id="paint3_linear_24_9492" x1="415.641" y1="331.271" x2="461.234" y2="376.864" gradientUnits="userSpaceOnUse">
<stop stop-color="#FCF0D6"/>
<stop offset="1" stop-color="#FFC446"/>
</linearGradient>
<linearGradient id="paint4_linear_24_9492" x1="462.535" y1="249.633" x2="475.376" y2="236.792" gradientUnits="userSpaceOnUse">
<stop stop-color="#FCF0D6"/>
<stop offset="1" stop-color="#FFC446"/>
</linearGradient>
<linearGradient id="paint5_linear_24_9492" x1="183.268" y1="240.556" x2="203.172" y2="238.785" gradientUnits="userSpaceOnUse">
<stop stop-color="#FCF0D6"/>
<stop offset="1" stop-color="#FFC446"/>
</linearGradient>
<linearGradient id="paint6_linear_24_9492" x1="114.814" y1="229.974" x2="100.68" y2="298.533" gradientUnits="userSpaceOnUse">
<stop stop-color="#FCF0D6"/>
<stop offset="1" stop-color="#FFC446"/>
</linearGradient>
<linearGradient id="paint7_linear_24_9492" x1="164.043" y1="244.142" x2="203.206" y2="240.659" gradientUnits="userSpaceOnUse">
<stop stop-color="#3C3024"/>
<stop offset="1" stop-color="#BD7B49"/>
</linearGradient>
<linearGradient id="paint8_linear_24_9492" x1="164.043" y1="244.142" x2="203.206" y2="240.659" gradientUnits="userSpaceOnUse">
<stop stop-color="#3C3024"/>
<stop offset="1" stop-color="#BD7B49"/>
</linearGradient>
<linearGradient id="paint9_linear_24_9492" x1="458.144" y1="248.793" x2="485.353" y2="221.584" gradientUnits="userSpaceOnUse">
<stop stop-color="#3C3024"/>
<stop offset="1" stop-color="#BD7B49"/>
</linearGradient>
<linearGradient id="paint10_linear_24_9492" x1="458.144" y1="248.793" x2="485.353" y2="221.584" gradientUnits="userSpaceOnUse">
<stop stop-color="#3C3024"/>
<stop offset="1" stop-color="#BD7B49"/>
</linearGradient>
<linearGradient id="paint11_linear_24_9492" x1="236.23" y1="188.44" x2="309.939" y2="188.44" gradientUnits="userSpaceOnUse">
<stop stop-color="#3C3024"/>
<stop offset="1" stop-color="#BD7B49"/>
</linearGradient>
<linearGradient id="paint12_linear_24_9492" x1="206.028" y1="347.369" x2="321.218" y2="347.369" gradientUnits="userSpaceOnUse">
<stop stop-color="#3C3024"/>
<stop offset="1" stop-color="#BD7B49"/>
</linearGradient>
<linearGradient id="paint13_linear_24_9492" x1="420.529" y1="382.748" x2="443.645" y2="405.864" gradientUnits="userSpaceOnUse">
<stop stop-color="#3C3024"/>
<stop offset="1" stop-color="#BD7B49"/>
</linearGradient>
<linearGradient id="paint14_linear_24_9492" x1="73.84" y1="264.655" x2="67.2394" y2="296.673" gradientUnits="userSpaceOnUse">
<stop stop-color="#3C3024"/>
<stop offset="1" stop-color="#BD7B49"/>
</linearGradient>
</defs>
</svg>
