<svg xmlns="http://www.w3.org/2000/svg" width="536" height="393" fill="none" viewBox="0 0 536 393"><path fill="url(#a)" stroke="#f2c78b" stroke-width=".91" d="M241.18 271.83c1.47-8.02 4.54-9.55 10.23-11.05 6.44-1.7 13.3.82 15.76 6.55 3.07 7.16 12.69 11.87 16.16 16.17 3.48 4.29 1.44 5.93 2.25 9.41.82 3.48 6.96 4.71 9.01 3.48 2.04-1.23 2.04-5.53 0-6.76-.72-.43-5.53-6.13-6.75-9.61-1.23-3.48-6.35-4.71-7.98-6.96-1.64-2.25-2.87-9.21 1.63-9.82 4.5-.62 4.5 1.22 8.39 4.7s10.23 6.35 12.69 6.35 10.44 3.27 12.48 6.75c2.05 3.48 5.53 5.52 11.67 2.46 6.14-3.07 13.3-3.48 16.16-5.12 2.87-1.64 1.64-3.07 6.96-4.09 5.32-1.03 8.39 2.04 10.64-1.64 2.26-3.68 7.98-5.73 14.33-7.98 6.34-2.25 1.84-8.6 9.21-7.98 7.36.61 5.73 9.82 4.29 12.89-1.43 3.07-6.13 3.07-8.38 7.37-2.26 4.3-7.99 9.41-12.69 11.46-4.71 2.04-15.15.82-18.83 5.73-2.95 3.93-8.6 6.41-11.05 7.16 2.25 2.73 7.74 8.76 11.66 11.05 4.92 2.86 8.8 5.32 11.46 10.85 2.66 5.52 11.26 5.11 13.51 10.84s2.46 4.51 7.57 9.62c5.12 5.12-1.43 10.03-7.57 8.39s-7.78-8.39-9-11.05c-1.23-2.66-10.24-3.07-12.08-3.89s-3.48-1.43-7.36-4.5c-3.89-3.07-7.78-4.5-9.62-5.12-1.48-.49-3.75-3.88-4.71-5.52.14 1.29.57 4.62 1.23 7.57.82 3.68-4.09 10.44-5.73 15.35s-4.91 11.66-10.03 10.03c-5.12-1.64-4.09-3.48-3.07-11.26s1.64-4.91-2.45-12.07c-4.1-7.17 6.75-16.58-2.46-17.4s-14.73 11.87-18.62 21.08-4.71 29.06 6.96 35.61c11.66 6.55 19.23 0 29.67-8.19 10.43-8.18 22.92-6.95 39.49-6.14 16.58.82 29.68 9.83 37.86 36.02 8.19 26.19-5.52 47.48-9.62 53-4.09 5.53-11.66 5.94-18.82 10.44-7.17 4.5-5.31 11.46-17.6 15.14-9.37 2.81-13.05 0-23.67 1.49-8.47 1.19-9.89 3.83-14.8 3.22-4.92-.61-7.58-6.14-12.08-8.39s-9.62 0-18.42-4.3c-8.8-4.29-12.68-11.87-13.91-16.78s-3.28-4.91-7.98-10.23c-4.71-5.32-4.3-7.37-4.92-10.23-.49-2.3.21-13.37.62-18.62-2.18 3.54-6.88 11.99-8.19 17.39-1.63 6.75.82 9.62 1.23 16.78.33 5.73-2.73 8.94-4.3 9.82.07 1.16-.12 4.06-1.43 6.35-1.64 2.86-14.73 5.93-19.03 3.89-4.3-2.05-4.71-7.78-6.96-14.33s-5.11-9.21-7.78-13.92c-2.66-4.7 0-20.66-3.27-26.4-3.27-5.72-5.32-15.34-3.48-19.64 1.47-3.44 5.12-4.84 6.75-5.12l24.77-71.03c-1.43-2.31-4.3-6.67-5.12-11.25-1.02-5.73-3.48-7.96 0-11.85s3.28-6.14 5.12-16.17Z"/><path fill="url(#b)" stroke="#f2c78b" stroke-width=".91" d="M121.46 68.83c-10.15 12.76-16.3 39.15-16.57 47.88 3-5.32 12.24-22.42 17.19-23.12 4.29-.62 6.54 4.09 5.73 7.57-.82 3.48-5.53 7.16-7.17 9-1.63 1.84 2.87 10.44 8.6 4.71s11.34-10.85 17.19-9.82c3.48.61 8.8 2.45 12.69 6.34 1.78 1.79 13.15 16.47 18.26 23.07l.36.47c-.61-3.48-3.48-10.03-4.09-13.51-.41-2.31-.69-5.8-.82-7.16l12.07-1.64c4.44 2.8 21.08 12.19 39.91 22.51 18.82 10.31 87.17 28.72 118.49 37.45 4.84-1.57 16.16-5.94 22.71-10.85 8.19-6.14 11.46-22.71 8.39-30.08s-11.05-6.34-13.71-3.89c-2.66 2.46-2.05 7.57-4.91 8.6-2.87 1.02-3.69 2.86-5.73 3.89-2.05 1.02-8.8-1.85-13.51-2.46s-8.59-1.43-11.25-1.43-5.33-2.66-10.85-4.91c-5.52-2.26-13.48-3.32-15.96-4.3-5.73-2.27-8.18-5.34-13.09-7.39-3.75-1.56-8.94-2.09-12.49-3.27-4.91-1.64-9.21-4.28-11.67-6.94-2.45-2.66-8.8-5.94-10.02-6.35-.99-.32-9.69-6.68-13.92-9.82 1.09.48 4.62 2.17 10.03 5.12 6.75 3.68 12.28 1.23 13.91 0 1.64-1.23 6.35-7.16 6.14-10.85-.2-3.68-2.66-4.5-3.68-4.5s-4.09 0-4.91 2.87c-.82 2.86-.82 3.88-2.87 3.68-2.04-.21-3.48-4.09-4.7-6.55-.99-1.96-4.23-7.78-5.74-10.44 1.64-.61 5.33-1.84 6.96-1.84h7.17c-.35.75-.82 2.54 0 3.69 1.02 1.43 4.09 1.63 5.11 0 1.03-1.64-.41-5.33-4.3-9.83-3.11-3.6-11.25-6.14-14.94-6.96-1.5-4.91-4.62-17.23-5.11-27.21-.61-12.49 4.3-19.85 6.55-22.72 2.25-2.86 4.5-1.02 7.98-1.23 3.48-.2 1.43-5.11 0-5.73-1.43-.61-18.01-2.45-36.02 11.67-14.4 11.29-24.83 36.08-28.24 47.07-.75-.07-3.23-.17-7.16 0-3.93.16-7.91 2.38-9.41 3.48.34-.76 1.06-2.87 1.22-5.33.21-3.07-.61-9.61-12.48-9.82-11.87-.2-28.65 4.91-41.34 20.88Z"/><path fill="url(#c)" stroke="#f2c78b" stroke-width=".91" d="M104.68 115.48c1.97-5.98 11.33-18.62 13.1-21.48 1.76-2.87 6.12-2.87 9-.82 2.72 1.93 2.8 4.86 2.46 8.18-.49 4.7-6.76 7.98-7.57 9.42-.82 1.43 0 4.7 3.27 4.7s6.14-4.7 8.59-6.95c2.46-2.25 8.6-6.76 19.85-2.87 9.01 3.11 19.44 19.99 23.54 28.04-2.66-7.44-8.11-23.45-8.6-28.04-.61-5.73.62-10.84 5.12-12.28 4.5-1.43 5.12 5.32 4.71 6.96s-1.23 3.27 2.66 4.5c3.11.99 5.66 5.19 6.54 7.16 13.65 7.71 44.41 24.52 58.33 30.09 17.39 6.96 62.21 21.08 74.49 23.53 12.28 2.46 75.14 11.65 84.55 12.47s15.55 4.5 16.37 9.01c0 1.49-1.24 7.32-3.61 8.18-4.1 1.5-7.65.38-11.53 0-14.12-1.36-29.79-2.07-38.31-2.24-10.64-.2-47.27.82-64.66 20.47-17.4 19.64-21.69 45.22-22.51 55.66-.47 5.94-1.66 28.23 0 31.93 1.84 4.09 6.91 6.46 11.66 13.5 5.94 8.8 11.67 29.67 12.69 39.7s8.19 59.55 7.78 72.45c-.41 12.89 3.07 39.7 5.11 68.96 2.05 29.27 10.85 31.72 14.94 35 4.09 3.27 9.21 7.57 8.6 12.27-.62 4.71-3.89 5.94-7.99 5.32-4.09-.61-5.52-3.27-12.89-4.91-7.36-1.64-12.89 2.05-19.03 4.1-6.14 2.04-7.78-1.64-11.66 2.45-3.89 4.09-8.19 6.96-10.44 6.14s-5.93-6.96-4.71-17.6c1.23-10.64 8.39-11.05 10.03-10.03 1.64 1.03 12.69 1.44 17.19-1.02 4.5-2.45 6.14-6.96 6.34-12.89.21-5.94-9-50.34-14.32-74.49-4.26-19.32-23.19-53.75-32.13-68.56-10.64 18.83-12.48 25.58-12.48 46.05 0 7.39-.82 103.14-.82 106.82s11.46 11.87 14.32 16.78c2.87 4.91 1.84 10.03-1.63 11.26-3.48 1.23-11.26-2.87-14.12-4.1-2.87-1.22-11.67-2.45-16.78-1.63-5.12.82-15.56-.41-16.58-1.84-.34 0-1.31.12-2.46.61-1.43.61-5.11 3.27-6.55 5.32-1.43 2.05-5.11 2.66-7.16 1.64-2.04-1.03-6.14-7.57-6.14-15.56 0-7.98 7.78-13.3 10.44-13.09 2.66.2 4.5 2.66 8.39 4.09 3.11 1.15 11.67 1.54 15.55 1.6 3.59-1.31 7.25-2.4 9.62-3.03-.61-13.92-2.09-44.66-3.07-56.28-1.23-14.53-8.39-58.12-9.41-65.49-.82-5.89-1.45-30.18 2.45-48.9 4.52-21.62 19.93-40 21.29-52.39 1.35-12.4.12-20.75.61-34.18.61-16.78-9.41-43.38-11.87-52.39-2.45-9-1.43-14.53-3.68-27.22-1.8-10.15-24.9-11.86-36.22-11.46-1.65-.01-5.67-.36-8.51-1.67-3.55-1.64-4.29-3.83-4.64-6.01-.29-1.75-.36-4.07-.36-5 1.23-2.66 4.91-4.71 7.57-4.71h46.86c-7.36-4.16-23.41-13.02-28.64-15.14-6.55-2.66-17.4-3.48-24.15-2.46-6.76 1.02-10.65 4.5-21.69 11.05-11.06 6.55-15.97 7.57-21.7 7.16-4.58-.32-6.27-5.32-6.55-7.77-.75.54-2.41 1.72-3.07 2.04-.81.41-3.07.82-4.91-.4-1.47-.99-.61-3.42 0-4.51-.54 0-1.88.86-2.86 1.03-1.23.2-3.48 2.66-4.3 3.07s-3.68 1.63-6.34.41c-2.13-.99-2.8-4.85-3.07-6.14-1.78 3.82-5.86 12.23-7.98 15.34-2.66 3.89-8.39 2.46-7.17.41 1.23-2.04 4.3-29.46 10.85-49.32Z"/><path fill="url(#d)" stroke="#f2c78b" stroke-width=".91" d="M495.08 316.11c6.38-8.4 19.82-20.41 21.85-21.86 2.02-1.44 6.01-3.61 10.45.84 4.45 4.44-2.71 13.13-12.04 22.46-37.48 37.48-63.67 67.44-93.34 98.55-3.9 3.61-9.11 6.22-13.02 7.81-3.13 1.27-9.69 2.31-15.63.87-9.55-2.32-19.53-7.96-19.97-11.29-.35-2.66 2.56-6.12 4.05-7.52-2.6-2.61-9.29-7.85-15.19-7.96-5.91-.12-14.23 6.7-17.66 10.13-.62-.92-1.62-3.19-.57-4.92 1.3-2.17 7.95-7.67 9.55-8.68 1.59-1.02 10.13-4.06 17.65-2.32 7.53 1.74 12.45 7.23 20.11 15.19 7.67 7.96 17.23 8.83 19.83 7.96s17.65-15.92 20.69-19.53c3.04-3.62 52.24-65.26 63.24-79.73Z"/><path fill="url(#e)" stroke="#f2c78b" stroke-width=".91" d="M502.49 285.61c-1.16-1.62-58.48-51.22-87.98-85.66-3.42-4-8.59-10.73-6.63-14.83 1.95-4.1 8.34-4.88 11.55-1.67 6.84 6.84 16.93 16.64 21.85 21.85s79.3 77.56 84.51 81.9c3.07 3.2 8.33 10.49 4.77 14.04-4.44 4.44-10.19.54-14.1-2.51-3.12-2.44-10.61-9.76-13.97-13.12Z"/><path fill="url(#f)" stroke="#f2c78b" stroke-width=".91" d="M185.19 206.78c-1.28-12.9-2.9-31.41-2.95-40.27-.02-4.41 7.39-5.03 11.27-2.92 4.66 2.54 3.32 6.56 3.4 13.18.42 38.16 3.52 95.05 3.75 97.66.09 1.04 1.24 15.5 2.77 35.04-.23 5.22-2.59 7.24-6.3 7.57-3.7.33-7.31-2.81-7.31-2.81s-3.14-72.32-4.63-107.45Z"/><path fill="url(#g)" stroke="#f2c78b" stroke-width=".91" d="M51.9 278.38c4.33 1.31 88.05 13.98 139.73 24.63 7.82 2.54 11.85 5.99 11.1 9.63s-6.99 5.49-10.47 4.77c-41.23-8.94-105.51-22.92-111.23-24.24-8.37-1.94-31.03-5.57-37.31-8.53-6.29-2.97-11.22-9.42-15.83-17.47-4.61-8.06-5.6-23.52-3.33-27.44 1.81-3.13 6.62-2.74 8.8-2.15.32-1.89.33-7.29-2.17-13.82-2.49-6.53-13.01-9.51-17.96-10.18.33-.91 1.2-2.76 2.07-2.92 1.08-.19 9.15-.83 17.75 4.08s12.64 14.72 11.57 19.94c-1.08 5.21-6.8 29.94-5.11 34.88 1.7 4.95 8.07 7.51 12.39 8.82Z"/><path fill="url(#h)" d="M173.76 217.13c-.32-1.28-.51-4.39 1.26-6.69 2.21-2.87 3.6-5.66 2.14-8.2s-.5-5.71 1.99-3.06c2.5 2.66 6.66 7.84 6.85 12.34.16 3.6-.28 6.87-.51 8.06 1.25.3 3.81 1.34 3.97 3.14.16 1.79-.79 3.42-1.28 4.01.26-.09 1.14-.1 2.51.6 1.38.7 4.08 1.21 5.26 1.38-1.02.78-3.45 2.24-4.97 1.88-1.51-.36-3.97-.81-5.01-.99l.93 22.11c-1.56.13-5.23-.15-7.4-2.43-1.53-1.6-2.43-2.75-2.88-3.42 1.36 2.34 3.57 6.54 3.74 8.48.23 2.65 1.04 7.1.42 9.42-.61 2.31-4.42 7.99-4.09 11.66.32 3.67 1.7 7.65 4.09 9.09 2.39 1.43 8.8 1.88 4.54 2.47-4.27.58-10.2.91-13.99-9.44-3.04-8.28-3.19-17.39-2.89-20.91-.7-.14-2.14-.95-2.33-3.07s.39-3.39.7-3.76c-1.22-2.09-3.54-7.46-3.15-12.26.4-4.8 3.06-11.02 4.34-13.53-1.53-.35-4.65-1.52-4.82-3.48-.22-2.44.32-3.31 1.71-3.85 1.11-.43 4.13 1.01 5.5 1.77.2-.08.51-.74 1.13-1.12.97-.6 1.83-.17 2.24-.2"/><path fill="url(#i)" d="M200.25 234.12c2.49-.42 2.9 2.13 2.58 5.94-.4 4.76-2.86 4.77-3.8 10.4s-1.46 8.97-.68 13.21c.64 3.4-3.01 7.73-4.91 9.48.87-2.54 2.23-8.25.69-10.75-1.92-3.11-2.07-11.73-.45-14.34s5.16-6.62 4.35-8.81c-.65-1.75.07-4.76 2.22-5.13"/><path stroke="#f2c78b" stroke-width=".91" d="M176.62 245.86c.45.67 1.35 1.82 2.88 3.42 2.17 2.28 5.84 2.56 7.4 2.43l-.93-22.11c1.04.18 3.5.63 5.01.99 1.52.36 3.95-1.1 4.97-1.88-1.18-.17-3.88-.68-5.26-1.38-1.37-.7-2.25-.69-2.51-.6.49-.59 1.44-2.22 1.28-4.01-.16-1.8-2.72-2.84-3.97-3.14.23-1.19.67-4.46.51-8.06-.19-4.5-4.35-9.68-6.85-12.34-2.49-2.65-3.45.52-1.99 3.06s.07 5.33-2.14 8.2c-1.77 2.3-1.58 5.41-1.26 6.69-.41.03-1.27-.4-2.24.2-.62.38-.93 1.04-1.13 1.12-1.37-.76-4.39-2.2-5.5-1.77-1.39.54-1.93 1.41-1.71 3.85.17 1.96 3.29 3.13 4.82 3.48-1.28 2.51-3.94 8.73-4.34 13.53-.39 4.8 1.93 10.17 3.15 12.26-.31.37-.89 1.64-.7 3.76s1.63 2.93 2.33 3.07c-.3 3.52-.15 12.63 2.89 20.91 3.79 10.35 9.72 10.02 13.99 9.44 4.26-.59-2.15-1.04-4.54-2.47-2.39-1.44-3.77-5.42-4.09-9.09-.33-3.67 3.48-9.35 4.09-11.66.62-2.32-.19-6.77-.42-9.42-.17-1.94-2.38-6.14-3.74-8.48Zm0 0q-.195-.33-.36-.6.075.165.36.6Zm23.63-11.74c2.49-.42 2.9 2.13 2.58 5.94-.4 4.76-2.86 4.77-3.8 10.4s-1.46 8.97-.68 13.21c.64 3.4-3.01 7.73-4.91 9.48.87-2.54 2.23-8.25.69-10.75-1.92-3.11-2.07-11.73-.45-14.34s5.16-6.62 4.35-8.81c-.65-1.75.07-4.76 2.22-5.13Z"/><path fill="url(#j)" d="M484.47 257.83c1.04 3.59 3.52 6.71 4.63 7.82-4.05-1.16-5.85-4.52-6.66-5.79-1.01-1.59-4.64-9.44-9.4-10.27-2.4-.42-4.34.28-7.09 1.88-2.75 1.59-4.49 1.59-5.21-.58s2.72-5.71 8.54-5.94c7.52-.29 13.89 8.4 15.19 12.88"/><path fill="url(#k)" d="M479.28 242.54c.34-.43.17-.57.64-1.5.46-.92.19-2.7 0-3.47 1.3 1.21 4.05 4 4.63 5.5.72 1.88 3.76 5.79 7.38 7.38 3.61 1.59 7.52 1.74 10.13 5.21 2.6 3.47 2.6 4.34 2.75 5.64.14 1.31-2.61 2.03-2.46 3.33.14 1.3 2.02 1.16 3.47-.29 1.44-1.45 2.31-3.76 2.46-4.77.14-1.02.58-4.63-4.2-10.57-3.82-4.74-10.18-11.52-12.88-14.32.49-.39 1.28-1.51.58-2.9-.87-1.73-9.11-12.01-13.74-15.19-3.71-2.55-8.21-2.7-9.99-2.46.48-.29 1.45-1.62 1.45-4.63 0-3.76-1.74-7.24-3.91-5.35-2.17 1.88-1.74 5.2-3.76 6.65-1.62 1.16-2.9 1.74-3.33 1.88-.24-1.01-1.68-3.18-5.5-3.76-4.77-.72-8.25-3.91-7.81-6.08.43-2.17-3.04-2.75-3.62-.14-.58 2.6-2.32 4.92 1.01 9.11 1.92 2.42 3.23 3.72 4.74 4.82-.13 1.19.07 3.93 1.92 5.31 1.85 1.39 4.51 2.06 5.6 2.21-.27.47-.59 1.76.33 3.15 1.16 1.73 2.17 2.46 1.59 3.91-.57 1.44.15 2.17 1.31 1.3 1.15-.87 2.17-2.46 1.44-4.34-.58-1.51.66-3.65.87-4.05z"/><path stroke="#f2c78b" stroke-width=".91" d="M484.47 257.83c1.04 3.59 3.52 6.71 4.63 7.82-4.05-1.16-5.85-4.52-6.66-5.79-1.01-1.59-4.64-9.44-9.4-10.27-2.4-.42-4.34.28-7.09 1.88-2.75 1.59-4.49 1.59-5.21-.58s2.72-5.71 8.54-5.94c7.52-.29 13.89 8.4 15.19 12.88Z"/><path stroke="#f2c78b" stroke-width=".91" d="M479.28 242.54c.34-.43.17-.57.64-1.5.46-.92.19-2.7 0-3.47 1.3 1.21 4.05 4 4.63 5.5.72 1.88 3.76 5.79 7.38 7.38 3.61 1.59 7.52 1.74 10.13 5.21 2.6 3.47 2.6 4.34 2.75 5.64.14 1.31-2.61 2.03-2.46 3.33.14 1.3 2.02 1.16 3.47-.29 1.44-1.45 2.31-3.76 2.46-4.77.14-1.02.58-4.63-4.2-10.57-3.82-4.74-10.18-11.52-12.88-14.32.49-.39 1.28-1.51.58-2.9-.87-1.73-9.11-12.01-13.74-15.19-3.71-2.55-8.21-2.7-9.99-2.46.48-.29 1.45-1.62 1.45-4.63 0-3.76-1.74-7.24-3.91-5.35-2.17 1.88-1.74 5.2-3.76 6.65-1.62 1.16-2.9 1.74-3.33 1.88-.24-1.01-1.68-3.18-5.5-3.76-4.77-.72-8.25-3.91-7.81-6.08.43-2.17-3.04-2.75-3.62-.14-.58 2.6-2.32 4.92 1.01 9.11 1.92 2.42 3.23 3.72 4.74 4.82-.13 1.19.07 3.93 1.92 5.31 1.85 1.39 4.51 2.06 5.6 2.21-.27.47-.59 1.76.33 3.15 1.16 1.73 2.17 2.46 1.59 3.91-.57 1.44.15 2.17 1.31 1.3 1.15-.87 2.17-2.46 1.44-4.34-.58-1.51.66-3.65.87-4.05z"/><path fill="url(#l)" stroke="#f2c78b" stroke-width=".91" d="M253.87 193.25c-10.64 1.43-11.67-6.96-10.24-7.98.72-.52 1.44.04 2.26.2 1.02.21 2.25-.61 1.84-1.84-.14-.42-.43-.77-.82-1.04.61-.34 1.88-1.37 2.05-2.85.2-1.84-.62-3.89-2.05-6.75-1.15-2.29-8.39-8.19-8.39-10.44l-2.25-1.84c-.62 4.09 6.37 9.46 7.57 10.85 2.66 3.07 3.89 5.73 3.48 7.98-.33 1.8-2.46 2.39-3.48 2.45-1.84.21-3.89 1.64-3.48 5.32.41 3.69 4.09 7.37 5.12 8.6 1.02 1.23 8.39 4.91 14.32 11.05 4.75 4.91 6.62 8.19 6.96 9.21 2.18-2.12 7.74-7.2 12.48-10.64 5.94-4.3 7.16-3.48 10.64-4.71s10.03-4.09 8.39-10.03c-.24-.87-.5-1.54-.76-2.04-.39-1.5-.94-4.87 0-6.35 1.17-1.84 4.45-1.64 6.09-2.66 1.63-1.02 3.88-3.68 3.07-6.75-.82-3.07-2.05-5.53-1.44-7.16.49-1.31 3.34-2.32 4.71-2.66-.68-.48-2.21-1.39-2.87-1.23-.81.2-4.09 1.23-4.5 3.68-.41 2.46 1.84 5.32 2.05 7.37.2 2.04-.21 3.68-1.84 4.91-1.64 1.23-4.3.61-5.94 2.05-1.64 1.43-1.64 2.25-1.84 3.89-.16 1.31.16 3.09.35 3.81-.47.4-.68 1.17-.35 1.51.82.81 1.64 2.66 0 4.91s-6.96 1.43-17.19-.82-13.3-1.43-23.94 0Z"/><path fill="url(#m)" stroke="#f2c78b" stroke-width=".91" d="M256.12 273.47c-3.93 1.8-4.1 8.39-3.69 11.46-.68.48-2.62 1.76-4.91 3.07s-3.27 3.41-3.48 4.3c-.13-1.3-1.02-4.3-3.48-5.94-3.07-2.05-7.57 1.23-7.37 5.94.17 3.76 1.3 8.11 1.85 9.82-2.19 2.8-7 9.41-8.8 13.51-2.25 5.11-6.76 8.79-10.24 14.52-3.47 5.73-1.43 16.79-2.25 21.9-.81 5.12-3.47 8.39-6.95 14.94-2.79 5.24 2.66 9.41 5.73 10.85-.62 1.97-1.48 6.79 0 10.23 1.84 4.3 11.46 6.55 12.68 11.87 1.23 5.32 8.39 5.32 12.9 8.39 4.5 3.07 10.23 9.62 14.94 9.62 4.7 0 4.91-5.32 4.91-7.37s-3.69-5.32-3.28-12.69c.33-5.89 3.37-6.79 2.66-11.25-.61-3.89.45-2.79 3.89-.82 4.3 2.45 8.6 9.62 10.44 14.94s6.96 2.66 10.44 5.93c3.47 3.27 1.22 5.94 5.32 9 4.09 3.07 14.73-1.02 20.26 4.51 5.52 5.52 13.09-.21 13.5-4.51.41-4.29-4.09-7.98-5.73-10.43-1.64-2.46-1.64-8.39 0-12.08 1.64-3.68-1.23-15.55-1.64-19.44-.4-3.88-5.73-15.14-4.91-20.87s-.2-13.92-3.89-24.76c-3.68-10.85-13.5-19.44-10.64-23.33 2.87-3.89-3.88-9.41-6.14-10.64-2.25-1.23-7.98 2.45-11.25 0-3.28-2.46-5.53-7.78-6.55-15.15-1.02-7.36-9.41-7.77-14.32-5.52Z"/><path fill="url(#n)" fill-rule="evenodd" stroke="#f2c78b" stroke-width=".91" d="M438.21 365.06c1.59 1.21 4.57 5.67 2.6 12.72-1.96 7.05-4.47 14.68-5.49 17.62 3.18 3.09 8.73 10.06 5.49 13.29-3.23 3.24-5.92 3.04-8.66 2.61 0 1.63-.18 4.79-2.03 6.64-3.03 3.04-5.78 4.05-10.11-.29 0 0 1.08-.85 1.73-1.44.66-.6 1.61-1.61 1.61-1.61 1.01.82 2.55 1.49 3.59.45 1.31-1.3 1.16-3.47-1.87-6.5-3.04-3.03-5.93-4.77-7.23-3.47-1.04 1.04.15 3.71.44 4.48l-1.52 1.52c-.59.59-1.66 1.37-1.66 1.37-.63-.63-2.69-3.09-3.04-5.06-.34-1.96.82-3.32 1.45-3.75-.48-.58-1.36-2.05-1.01-3.33.43-1.58 3.18-3.46 4.76-3.9 1.59-.43 4.34-2.6 5.49-4.33.93-1.39 1.06-2.6 1.02-3.03.33.14 1.06.6 1.3 1.3.23.69 0 1.92-.15 2.45 3.52-3.42 10.84-11.41 11.99-16.03 1.16-4.63 1.35-9.73 1.3-11.71Zm-1.01 40.6c-1.27 1.73-4.04 2.31-7.94 1.88l-1.3-1.3c.19 0 1.76-1.42 2.45-3.04.7-1.61 1.64-3.75 2.03-4.62 1.82 1.54 6.03 5.35 4.76 7.08Z" clip-rule="evenodd"/><path fill="url(#o)" fill-rule="evenodd" stroke="#f2c78b" stroke-width=".91" d="M98.42 269.72c-.14 1.99-2.22 6.93-9.19 9.16-6.97 2.24-14.74 4.34-17.75 5.11-.82 4.35-3.6 12.82-8.08 11.89-4.48-.92-5.79-3.28-6.94-5.81-1.37.9-4.1 2.49-6.66 1.96-4.2-.86-7.01-1.23-5.77-7.23 0 0 1.5.47 2.36.69.85.22 2.36.7 2.36.7-.13 1.29.27 1.3 1.71 1.6 1.81.37 3.54-.94 4.4-5.14.87-4.21.73-7.57-1.07-7.94-1.44-.3-3.07 2.56-3.55 3.23l-2.06-.84c-.77-.32-1.98-.83-1.98-.83.18-.87 1.03-3.75 2.48-5.12s3.22-1.14 3.93-.86c.22-.72.97-2.26 2.22-2.67 1.57-.51 4.64.75 5.88 1.84s4.56 2.19 6.64 2.2c1.67.01 2.75-.54 3.09-.82.06.36.08 1.22-.37 1.8-.45.57-1.61 1.06-2.13 1.23 4.79 1.06 15.49 2.77 19.99 1.2 4.49-1.58 8.86-4.22 10.49-5.35ZM63.95 291.2c-2.15-.11-4.16-2.11-5.94-5.61l.37-1.8c.11.16 2.15.69 3.89.38 1.73-.31 4.03-.69 4.97-.85-.28 2.38-1.14 7.99-3.29 7.88Z" clip-rule="evenodd"/><defs><linearGradient id="a" x1="208.97" x2="406.63" y1="366.3" y2="366.3" gradientUnits="userSpaceOnUse"><stop stop-color="#bd7b49"/><stop offset="1" stop-color="#3c3024"/></linearGradient><linearGradient id="b" x1="104.89" x2="375.54" y1="86.52" y2="86.52" gradientUnits="userSpaceOnUse"><stop stop-color="#3c3024"/><stop offset="1" stop-color="#bd7b49"/></linearGradient><linearGradient id="c" x1="93.66" x2="421.09" y1="323.98" y2="323.98" gradientUnits="userSpaceOnUse"><stop stop-color="#fcf0d6"/><stop offset="1" stop-color="#ffc446"/></linearGradient><linearGradient id="d" x1="415.64" x2="461.23" y1="331.27" y2="376.86" gradientUnits="userSpaceOnUse"><stop stop-color="#fcf0d6"/><stop offset="1" stop-color="#ffc446"/></linearGradient><linearGradient id="e" x1="462.54" x2="475.38" y1="249.63" y2="236.79" gradientUnits="userSpaceOnUse"><stop stop-color="#fcf0d6"/><stop offset="1" stop-color="#ffc446"/></linearGradient><linearGradient id="f" x1="183.27" x2="203.17" y1="240.56" y2="238.78" gradientUnits="userSpaceOnUse"><stop stop-color="#fcf0d6"/><stop offset="1" stop-color="#ffc446"/></linearGradient><linearGradient id="g" x1="114.81" x2="100.68" y1="229.97" y2="298.53" gradientUnits="userSpaceOnUse"><stop stop-color="#fcf0d6"/><stop offset="1" stop-color="#ffc446"/></linearGradient><linearGradient id="h" x1="164.04" x2="203.21" y1="244.14" y2="240.66" gradientUnits="userSpaceOnUse"><stop stop-color="#3c3024"/><stop offset="1" stop-color="#bd7b49"/></linearGradient><linearGradient id="i" x1="164.04" x2="203.21" y1="244.14" y2="240.66" gradientUnits="userSpaceOnUse"><stop stop-color="#3c3024"/><stop offset="1" stop-color="#bd7b49"/></linearGradient><linearGradient id="j" x1="458.14" x2="485.35" y1="248.79" y2="221.58" gradientUnits="userSpaceOnUse"><stop stop-color="#3c3024"/><stop offset="1" stop-color="#bd7b49"/></linearGradient><linearGradient id="k" x1="458.14" x2="485.35" y1="248.79" y2="221.58" gradientUnits="userSpaceOnUse"><stop stop-color="#3c3024"/><stop offset="1" stop-color="#bd7b49"/></linearGradient><linearGradient id="l" x1="236.23" x2="309.94" y1="188.44" y2="188.44" gradientUnits="userSpaceOnUse"><stop stop-color="#3c3024"/><stop offset="1" stop-color="#bd7b49"/></linearGradient><linearGradient id="m" x1="206.03" x2="321.22" y1="347.37" y2="347.37" gradientUnits="userSpaceOnUse"><stop stop-color="#3c3024"/><stop offset="1" stop-color="#bd7b49"/></linearGradient><linearGradient id="n" x1="420.53" x2="443.64" y1="382.75" y2="405.86" gradientUnits="userSpaceOnUse"><stop stop-color="#3c3024"/><stop offset="1" stop-color="#bd7b49"/></linearGradient><linearGradient id="o" x1="73.84" x2="67.24" y1="264.65" y2="296.67" gradientUnits="userSpaceOnUse"><stop stop-color="#3c3024"/><stop offset="1" stop-color="#bd7b49"/></linearGradient></defs></svg>