<svg xmlns="http://www.w3.org/2000/svg" width="536" height="393" fill="none" xmlns:v="https://vecta.io/nano"><g stroke="#f2c78b" stroke-width=".912"><path d="M241.177 271.831c1.473-8.022 4.546-9.547 10.232-11.051 6.443-1.703 13.302.819 15.758 6.549 3.069 7.163 12.688 11.869 16.166 16.167s1.433 5.934 2.252 9.413 6.957 4.707 9.004 3.479 2.046-5.525 0-6.753c-.724-.434-5.526-6.139-6.753-9.618s-6.344-4.707-7.981-6.958-2.865-9.209 1.637-9.823 4.502 1.228 8.39 4.707 10.232 6.344 12.688 6.344 10.437 3.274 12.483 6.753 5.525 5.525 11.665 2.456 13.302-3.479 16.167-5.116 1.637-3.07 6.957-4.093 8.391 2.046 10.642-1.637 7.981-5.73 14.325-7.981 1.842-8.595 9.209-7.981 5.73 9.822 4.297 12.892-6.139 3.07-8.39 7.367-7.981 9.414-12.688 11.46-15.144.819-18.827 5.73c-2.947 3.929-8.595 6.412-11.051 7.163 2.251 2.728 7.736 8.758 11.665 11.05 4.911 2.865 8.799 5.321 11.46 10.847s11.255 5.116 13.506 10.846 2.456 4.502 7.572 9.618-1.432 10.027-7.572 8.39-7.776-8.39-9.004-11.051-10.232-3.069-12.074-3.888-3.479-1.432-7.367-4.502-7.777-4.502-9.618-5.116c-1.474-.491-3.752-3.888-4.707-5.525.136 1.296.573 4.625 1.228 7.571.818 3.684-4.093 10.437-5.73 15.349s-4.912 11.664-10.028 10.027-4.093-3.479-3.069-11.255 1.637-4.912-2.456-12.074 6.753-16.576-2.456-17.395-14.734 11.87-18.622 21.078-4.707 29.06 6.958 35.608 19.236 0 29.673-8.185 22.92-6.958 39.496-6.14 29.673 9.823 37.859 36.017-5.526 47.478-9.618 53.003-11.665 5.935-18.828 10.437-5.311 11.46-17.599 15.143c-9.37 2.809-13.048 0-23.673 1.491-8.463 1.187-9.888 3.83-14.8 3.216s-7.572-6.139-12.074-8.39-9.618 0-18.418-4.298-12.687-11.869-13.915-16.78-3.275-4.912-7.981-10.233-4.298-7.367-4.912-10.232c-.491-2.292.205-13.37.614-18.622-2.183 3.547-6.876 11.992-8.186 17.394-1.637 6.754.819 9.619 1.228 16.781.328 5.73-2.728 8.936-4.297 9.823.068 1.16-.123 4.052-1.433 6.344-1.637 2.865-14.734 5.935-19.031 3.888s-4.707-7.776-6.958-14.325-5.116-9.209-7.777-13.916 0-20.669-3.274-26.399-5.321-15.348-3.479-19.645c1.473-3.438 5.116-4.843 6.753-5.116l24.762-71.03c-1.432-2.319-4.297-6.671-5.116-11.255-1.023-5.73-3.479-7.963 0-11.851s3.274-6.139 5.116-16.167z" fill="url(#A)"/><path d="M121.462 68.825c-10.151 12.77-16.304 39.155-16.576 47.886 3.001-5.32 12.242-22.417 17.19-23.124 4.297-.614 6.548 4.093 5.73 7.572s-5.526 7.162-7.163 9.004 2.865 10.437 8.595 4.707 11.346-10.855 17.19-9.823c3.479.614 8.8 2.456 12.688 6.344 1.787 1.787 13.152 16.467 18.261 23.066l.361.468c-.613-3.479-3.478-10.028-4.092-13.507-.408-2.308-.683-5.798-.819-7.162l12.074-1.637c4.434 2.796 21.078 12.196 39.905 22.51s87.178 28.719 118.489 37.45c4.843-1.569 16.166-5.935 22.715-10.846 8.186-6.139 11.46-22.715 8.39-30.083s-11.05-6.344-13.711-3.888-2.046 7.572-4.911 8.595-3.684 2.865-5.73 3.888-8.8-1.841-13.507-2.455-8.595-1.433-11.255-1.433-5.321-2.66-10.846-4.911-13.482-3.314-15.962-4.298c-5.724-2.269-8.179-5.339-13.091-7.385-3.745-1.561-8.94-2.094-12.483-3.274-4.911-1.638-9.216-4.28-11.671-6.94s-8.8-5.935-10.028-6.344c-.982-.327-9.686-6.685-13.915-9.823 1.091.478 4.624 2.169 10.027 5.116 6.753 3.684 12.279 1.228 13.916 0s6.344-7.162 6.139-10.846-2.66-4.502-3.684-4.502-4.092 0-4.911 2.865-.819 3.888-2.865 3.684-3.479-4.093-4.707-6.549c-.982-1.965-4.229-7.776-5.73-10.437 1.637-.614 5.321-1.842 6.958-1.842h7.163c-.341.75-.819 2.538 0 3.684 1.023 1.432 4.092 1.637 5.116 0s-.41-5.321-4.298-9.823c-3.11-3.602-11.255-6.139-14.939-6.958-1.5-4.911-4.625-17.231-5.116-27.217-.614-12.483 4.298-19.85 6.549-22.715s4.502-1.023 7.981-1.228 1.432-5.116 0-5.73-18.009-2.456-36.017 11.665c-14.407 11.296-24.83 36.085-28.241 47.068-.75-.068-3.233-.164-7.163 0s-7.912 2.387-9.413 3.479c.341-.75 1.064-2.865 1.228-5.321.204-3.07-.614-9.618-12.483-9.823s-28.65 4.911-41.338 20.874z" fill="url(#B)"/><path d="M104.679 115.484c1.975-5.986 11.334-18.622 13.097-21.487s6.126-2.862 9.005-.819c2.721 1.932 2.799 4.866 2.455 8.186-.485 4.693-6.753 7.981-7.571 9.414s0 4.706 3.274 4.706 6.139-4.706 8.595-6.958 8.595-6.753 19.85-2.865c9.005 3.111 19.441 19.987 23.534 28.037-2.66-7.436-8.104-23.453-8.595-28.037-.614-5.73.614-10.846 5.116-12.278s5.116 5.321 4.707 6.958-1.228 3.274 2.66 4.502c3.111.982 5.662 5.184 6.549 7.162 13.643 7.709 44.408 24.517 58.323 30.083 17.395 6.958 62.212 21.078 74.49 23.534s75.137 11.652 84.551 12.471 15.552 4.502 16.371 9.004c0 1.496-1.243 7.322-3.613 8.186-4.099 1.493-7.651.375-11.531 0-14.12-1.364-29.787-2.075-38.301-2.239-10.641-.205-47.272.818-64.667 20.464s-21.692 45.226-22.51 55.663c-.466 5.935-1.663 28.229 0 31.924 1.841 4.093 6.916 6.467 11.664 13.507 5.935 8.799 11.665 29.673 12.688 39.7s8.186 59.552 7.776 72.444 3.07 39.701 5.117 68.965 10.846 31.719 14.938 34.994 9.209 7.571 8.595 12.278-3.888 5.935-7.981 5.321-5.525-3.274-12.892-4.912-12.893 2.047-19.032 4.093-7.776-1.637-11.665 2.456-8.185 6.958-10.436 6.139-5.935-6.958-4.707-17.599 8.39-11.051 10.027-10.027 12.688 1.432 17.19-1.024 6.14-6.958 6.344-12.892-9.004-50.342-14.325-74.49c-4.256-19.318-23.193-53.753-32.129-68.556-10.641 18.828-12.483 25.581-12.483 46.045l-.818 106.824c0 3.683 11.46 11.869 14.325 16.78s1.841 10.028-1.638 11.256-11.255-2.865-14.12-4.093-11.665-2.456-16.781-1.637-15.552-.41-16.576-1.842c-.341 0-1.309.123-2.455.614-1.433.614-5.116 3.274-6.549 5.321s-5.116 2.66-7.162 1.637-6.14-7.572-6.14-15.553 7.777-13.302 10.437-13.097 4.502 2.66 8.39 4.093c3.111 1.146 11.665 1.541 15.553 1.596 3.585-1.302 7.245-2.396 9.618-3.029l-3.069-56.277c-1.228-14.529-8.391-58.118-9.414-65.485-.818-5.894-1.453-30.189 2.456-48.91 4.514-21.617 19.93-39.995 21.283-52.389s.123-20.75.614-34.175c.614-16.781-9.414-43.384-11.87-52.389s-1.432-14.529-3.683-27.217c-1.801-10.15-24.898-11.869-36.222-11.46-1.651-.012-5.663-.365-8.505-1.676-3.552-1.64-4.289-3.826-4.645-6.012-.285-1.749-.356-4.062-.356-5 1.228-2.66 4.911-4.707 7.571-4.707h46.864c-7.367-4.161-23.411-13.015-28.65-15.143-6.549-2.661-17.395-3.479-24.148-2.456s-10.642 4.502-21.692 11.051-15.962 7.572-21.692 7.162c-4.584-.327-6.276-5.32-6.549-7.776-.75.546-2.415 1.719-3.07 2.046-.818.41-3.069.819-4.911-.409-1.474-.982-.614-3.411 0-4.502-.546 0-1.883.859-2.865 1.023-1.228.205-3.479 2.66-4.298 3.07s-3.683 1.637-6.344.409c-2.128-.982-2.796-4.843-3.069-6.139-1.774 3.82-5.853 12.237-7.981 15.348-2.661 3.888-8.391 2.456-7.163.409s4.298-29.468 10.846-49.319z" fill="url(#C)"/><path d="M495.078 316.105c6.383-8.399 19.825-20.403 21.85-21.85s6.009-3.61 10.453.834-2.713 13.131-12.044 22.463c-37.481 37.481-63.67 67.433-93.335 98.544-3.907 3.618-9.116 6.222-13.023 7.814-3.126 1.273-9.693 2.307-15.628.868-9.551-2.315-19.535-7.959-19.969-11.287-.348-2.662 2.556-6.126 4.051-7.524-2.604-2.605-9.29-7.843-15.194-7.959s-14.229 6.705-17.654 10.129c-.627-.916-1.62-3.183-.578-4.92 1.302-2.17 7.958-7.669 9.55-8.682s10.129-4.052 17.654-2.315 12.445 7.235 20.114 15.194 17.22 8.827 19.824 7.958 17.654-15.917 20.693-19.535 52.238-65.261 63.236-79.732z" fill="url(#D)"/><path d="M502.491 285.612c-1.158-1.62-58.483-51.22-87.98-85.665-3.42-3.993-8.59-10.724-6.635-14.825s8.342-4.884 11.555-1.671l21.85 21.851c4.92 5.209 79.298 77.561 84.507 81.902 3.074 3.197 8.331 10.481 4.776 14.036-4.444 4.444-10.196.544-14.1-2.508-3.124-2.441-10.617-9.763-13.973-13.12z" fill="url(#E)"/><path d="M185.194 206.777c-1.284-12.897-2.902-31.408-2.95-40.264-.024-4.417 7.383-5.035 11.262-2.922 4.667 2.542 3.327 6.562 3.401 13.176.427 38.167 3.523 95.057 3.755 97.666l2.768 35.04c-.232 5.22-2.594 7.242-6.295 7.571s-7.315-2.816-7.315-2.816l-4.626-107.451z" fill="url(#F)"/><path d="M51.902 278.385c4.327 1.31 88.051 13.973 139.723 24.625 7.825 2.536 11.856 5.99 11.106 9.629s-6.991 5.491-10.47 4.773L81.033 293.166c-8.377-1.936-31.031-5.562-37.315-8.529s-11.222-9.417-15.83-17.471-5.6-23.512-3.33-27.432c1.817-3.136 6.625-2.743 8.802-2.155.319-1.885.332-7.287-2.166-13.819s-13.014-9.509-17.96-10.18c.326-.908 1.196-2.762 2.064-2.918 1.085-.194 9.156-.829 17.756 4.078s12.636 14.724 11.561 19.935-6.799 29.941-5.102 34.887 8.063 7.513 12.389 8.823z" fill="url(#G)"/></g><path d="M173.762 217.127c-.319-1.273-.514-4.392 1.254-6.686 2.21-2.868 3.605-5.663 2.147-8.204s-.508-5.707 1.988-3.053 6.655 7.832 6.85 12.334c.156 3.602-.279 6.873-.516 8.059 1.259.299 3.818 1.345 3.977 3.139s-.791 3.426-1.286 4.018c.266-.093 1.141-.102 2.518.597s4.08 1.213 5.26 1.382c-1.027.776-3.458 2.238-4.97 1.88s-3.975-.811-5.019-.992l.939 22.105c-1.563.139-5.232-.151-7.406-2.423-1.533-1.602-2.427-2.75-2.881-3.427 1.36 2.344 3.569 6.547 3.742 8.487.235 2.65 1.042 7.098.426 9.413s-4.425 7.995-4.099 11.664 1.708 7.655 4.096 9.086 8.796 1.889 4.534 2.473-10.192.907-13.988-9.439c-3.038-8.277-3.19-17.385-2.887-20.905-.698-.143-2.14-.96-2.328-3.08s.383-3.389.692-3.759c-1.212-2.084-3.539-7.452-3.144-12.253s3.06-11.024 4.344-13.535c-1.538-.343-4.655-1.518-4.829-3.474-.218-2.447.321-3.316 1.712-3.851 1.112-.428 4.129 1.003 5.499 1.771.198-.086.509-.744 1.132-1.128.974-.6 1.835-.163 2.243-.199z" fill="url(#H)"/><path d="M200.246 234.123c2.491-.425 2.901 2.126 2.583 5.934-.399 4.761-2.863 4.775-3.8 10.405s-1.463 8.965-.675 13.209c.631 3.396-3.01 7.733-4.909 9.477.869-2.543 2.224-8.252.688-10.745-1.921-3.116-2.071-11.732-.454-14.341s5.164-6.623 4.353-8.811c-.649-1.75.064-4.76 2.214-5.128z" fill="url(#H)"/><path d="M176.617 245.856c.454.677 1.348 1.825 2.881 3.427 2.174 2.272 5.843 2.562 7.406 2.423l-.939-22.105 5.019.992c1.512.358 3.943-1.104 4.97-1.88-1.18-.169-3.883-.682-5.26-1.382s-2.252-.69-2.518-.597c.495-.592 1.446-2.225 1.286-4.018s-2.718-2.84-3.977-3.139c.237-1.186.672-4.457.516-8.059-.195-4.502-4.354-9.68-6.85-12.334s-3.447.512-1.988 3.053.063 5.336-2.147 8.204c-1.768 2.294-1.573 5.413-1.254 6.686-.408.036-1.269-.401-2.243.199-.623.384-.934 1.042-1.132 1.128-1.37-.768-4.387-2.199-5.499-1.771-1.391.535-1.93 1.404-1.712 3.851.174 1.956 3.291 3.131 4.829 3.474-1.284 2.511-3.949 8.733-4.344 13.535s1.932 10.169 3.144 12.253c-.309.37-.881 1.639-.692 3.759s1.63 2.937 2.328 3.08c-.303 3.52-.151 12.628 2.887 20.905 3.796 10.346 9.725 10.024 13.988 9.439s-2.147-1.041-4.534-2.473-3.769-5.417-4.096-9.086 3.483-9.35 4.099-11.664-.191-6.763-.426-9.413c-.173-1.94-2.382-6.143-3.742-8.487zm0 0l-.354-.6a4.34 4.34 0 0 0 .354.6zm23.629-11.733c2.491-.425 2.901 2.126 2.583 5.934-.399 4.761-2.863 4.775-3.8 10.405s-1.463 8.965-.675 13.209c.631 3.396-3.01 7.733-4.909 9.477.869-2.543 2.224-8.252.688-10.745-1.921-3.116-2.071-11.732-.454-14.341s5.164-6.623 4.353-8.811c-.649-1.75.064-4.76 2.214-5.128z" stroke="#f2c78b" stroke-width=".912"/><use href="#N" fill="url(#I)"/><use href="#O" fill="url(#I)"/><g stroke="#f2c78b" stroke-width=".912"><use href="#N"/><use href="#O"/><path d="M253.867 193.249c-10.641 1.432-11.664-6.958-10.232-7.981.718-.513 1.433.041 2.251.204 1.023.205 2.251-.614 1.842-1.842-.141-.423-.428-.773-.819-1.042.614-.334 1.883-1.372 2.047-2.846.204-1.842-.614-3.888-2.047-6.753-1.146-2.292-8.39-8.186-8.39-10.437l-2.251-1.842c-.615 4.093 6.373 9.463 7.572 10.847 2.659 3.069 3.888 5.73 3.479 7.981-.328 1.8-2.456 2.387-3.479 2.455-1.842.205-3.889 1.637-3.479 5.321s4.093 7.367 5.116 8.595 8.39 4.911 14.325 11.051c4.747 4.911 6.617 8.185 6.958 9.209 2.183-2.115 7.735-7.204 12.483-10.642 5.935-4.297 7.162-3.479 10.641-4.707s10.028-4.092 8.391-10.027c-.241-.873-.5-1.542-.763-2.046-.391-1.501-.938-4.871 0-6.344 1.172-1.842 4.446-1.638 6.083-2.661s3.889-3.683 3.07-6.753-2.046-5.525-1.432-7.162c.491-1.31 3.342-2.32 4.706-2.661-.682-.477-2.21-1.391-2.865-1.228-.818.205-4.093 1.228-4.502 3.684s1.842 5.321 2.047 7.367-.205 3.684-1.842 4.911-4.298.614-5.935 2.047-1.637 2.251-1.842 3.888c-.163 1.31.164 3.09.348 3.817-.473.402-.68 1.172-.348 1.504.819.818 1.638 2.66 0 4.911s-6.957 1.433-17.19-.818-13.301-1.433-23.943 0z" fill="url(#J)"/><path d="M256.115 273.468c-3.929 1.801-4.093 8.391-3.683 11.46-.683.478-2.62 1.76-4.912 3.07s-3.274 3.411-3.479 4.297c-.136-1.296-1.023-4.297-3.479-5.934-3.069-2.047-7.571 1.228-7.367 5.934.164 3.766 1.296 8.118 1.842 9.823-2.183 2.797-6.999 9.414-8.8 13.507-2.251 5.116-6.753 8.799-10.232 14.529s-1.432 16.781-2.251 21.897-3.479 8.391-6.958 14.939c-2.783 5.239 2.661 9.414 5.73 10.846-.614 1.978-1.473 6.794 0 10.232 1.842 4.298 11.46 6.549 12.688 11.87s8.39 5.32 12.893 8.39 10.232 9.618 14.939 9.618 4.911-5.321 4.911-7.367-3.684-5.321-3.274-12.688c.327-5.894 3.364-6.794 2.66-11.255-.614-3.888.45-2.783 3.888-.819 4.298 2.456 8.595 9.618 10.437 14.939s6.958 2.661 10.437 5.935 1.228 5.934 5.321 9.004 14.734-1.023 20.259 4.502 13.097-.204 13.507-4.502-4.093-7.981-5.73-10.437-1.638-8.39 0-12.074-1.228-15.552-1.638-19.441-5.73-15.143-4.911-20.873-.205-13.916-3.888-24.762-13.507-19.441-10.642-23.329-3.888-9.414-6.139-10.642-7.981 2.456-11.255 0-5.526-7.776-6.549-15.143-9.413-7.777-14.325-5.526z" fill="url(#K)"/><g fill-rule="evenodd"><path d="M438.214 365.063c1.589 1.204 4.565 5.663 2.6 12.714s-4.478 14.688-5.49 17.626c3.179 3.082 8.727 10.056 5.49 13.292s-5.923 3.034-8.668 2.601c0 1.637-.174 4.796-2.023 6.646-3.034 3.034-5.779 4.045-10.113-.289 0 0 1.081-.849 1.733-1.445s1.607-1.607 1.607-1.607c1.011.819 2.554 1.491 3.595.451 1.3-1.3 1.155-3.467-1.879-6.501s-5.923-4.768-7.223-3.468c-1.041 1.04.144 3.708.433 4.479l-1.517 1.517c-.592.592-1.662 1.372-1.662 1.372-.626-.626-2.687-3.091-3.034-5.056s.819-3.323 1.445-3.757c-.481-.578-1.358-2.051-1.011-3.323.433-1.589 3.178-3.467 4.768-3.901s4.334-2.6 5.49-4.334c.924-1.387 1.059-2.6 1.011-3.034.337.145 1.069.607 1.3 1.3s0 1.927-.144 2.457c3.516-3.42 10.836-11.414 11.992-16.037s1.348-9.729 1.3-11.703zm-1.012 40.598c-1.271 1.734-4.045 2.312-7.946 1.878l-1.3-1.3c.193 0 1.763-1.416 2.456-3.034l2.023-4.623c1.83 1.541 6.039 5.345 4.767 7.079z" fill="url(#L)"/><path d="M98.416 269.721c-.132 1.99-2.221 6.927-9.19 9.162s-14.732 4.335-17.742 5.105c-.827 4.349-3.602 12.817-8.084 11.893s-5.791-3.28-6.938-5.811c-1.368.9-4.102 2.492-6.663 1.964-4.202-.866-7.007-1.236-5.77-7.239 0 0 1.504.478 2.36.695s2.36.695 2.36.695c-.128 1.295.275 1.309 1.716 1.606 1.801.371 3.532-.941 4.398-5.144s.726-7.569-1.075-7.94c-1.441-.297-3.063 2.567-3.548 3.232l-2.056-.841-1.981-.826c.179-.867 1.026-3.752 2.477-5.122a3.85 3.85 0 0 1 3.932-.858c.218-.72.967-2.262 2.22-2.672 1.566-.511 4.644.749 5.88 1.838s4.555 2.191 6.639 2.203c1.667.01 2.755-.544 3.09-.823.065.361.081 1.227-.371 1.801s-1.609 1.059-2.131 1.23c4.789 1.057 15.491 2.776 19.989 1.2s8.867-4.222 10.49-5.348zm-34.468 21.475c-2.147-.109-4.155-2.108-5.938-5.605l.371-1.801c.106.161 2.152.694 3.885.384l4.974-.852c-.281 2.375-1.145 7.983-3.292 7.874z" fill="url(#M)"/></g></g><defs><linearGradient id="A" x1="208.967" y1="366.299" x2="406.632" y2="366.299" href="#P"><stop stop-color="#bd7b49"/><stop offset="1" stop-color="#3c3024"/></linearGradient><linearGradient id="B" x1="104.886" y1="86.518" x2="375.535" y2="86.518" href="#P"><stop stop-color="#3c3024"/><stop offset="1" stop-color="#bd7b49"/></linearGradient><linearGradient id="C" x1="93.663" y1="323.977" x2="421.09" y2="323.977" href="#P"><stop stop-color="#fcf0d6"/><stop offset="1" stop-color="#ffc446"/></linearGradient><linearGradient id="D" x1="415.641" y1="331.271" x2="461.234" y2="376.864" href="#P"><stop stop-color="#fcf0d6"/><stop offset="1" stop-color="#ffc446"/></linearGradient><linearGradient id="E" x1="462.535" y1="249.633" x2="475.376" y2="236.792" href="#P"><stop stop-color="#fcf0d6"/><stop offset="1" stop-color="#ffc446"/></linearGradient><linearGradient id="F" x1="183.268" y1="240.556" x2="203.172" y2="238.785" href="#P"><stop stop-color="#fcf0d6"/><stop offset="1" stop-color="#ffc446"/></linearGradient><linearGradient id="G" x1="114.814" y1="229.974" x2="100.68" y2="298.533" href="#P"><stop stop-color="#fcf0d6"/><stop offset="1" stop-color="#ffc446"/></linearGradient><linearGradient id="H" x1="164.043" y1="244.142" x2="203.206" y2="240.659" href="#P"><stop stop-color="#3c3024"/><stop offset="1" stop-color="#bd7b49"/></linearGradient><linearGradient id="I" x1="458.144" y1="248.793" x2="485.353" y2="221.584" href="#P"><stop stop-color="#3c3024"/><stop offset="1" stop-color="#bd7b49"/></linearGradient><linearGradient id="J" x1="236.23" y1="188.44" x2="309.939" y2="188.44" href="#P"><stop stop-color="#3c3024"/><stop offset="1" stop-color="#bd7b49"/></linearGradient><linearGradient id="K" x1="206.028" y1="347.369" x2="321.218" y2="347.369" href="#P"><stop stop-color="#3c3024"/><stop offset="1" stop-color="#bd7b49"/></linearGradient><linearGradient id="L" x1="420.529" y1="382.748" x2="443.645" y2="405.864" href="#P"><stop stop-color="#3c3024"/><stop offset="1" stop-color="#bd7b49"/></linearGradient><linearGradient id="M" x1="73.84" y1="264.655" x2="67.239" y2="296.673" href="#P"><stop stop-color="#3c3024"/><stop offset="1" stop-color="#bd7b49"/></linearGradient><path id="N" d="M484.471 257.833c1.042 3.589 3.521 6.705 4.63 7.814-4.051-1.158-5.846-4.515-6.656-5.788-1.013-1.592-4.65-9.443-9.406-10.274-2.399-.419-4.341.289-7.09 1.881s-4.486 1.592-5.21-.579 2.718-5.709 8.538-5.933c7.524-.289 13.891 8.393 15.194 12.879z"/><path id="O" d="M479.284 242.545c.338-.434.169-.574.632-1.5s.193-2.701 0-3.473c1.303 1.206 4.052 3.994 4.631 5.499.723 1.881 3.762 5.788 7.38 7.38s7.524 1.736 10.129 5.209 2.605 4.341 2.749 5.644-2.604 2.025-2.46 3.328 2.026 1.157 3.473-.29 2.316-3.762 2.46-4.775.579-4.63-4.196-10.563c-3.82-4.747-10.178-11.528-12.879-14.326.483-.386 1.274-1.505.579-2.894-.868-1.737-9.116-12.011-13.747-15.194-3.704-2.547-8.2-2.701-9.985-2.46.483-.289 1.447-1.621 1.447-4.631 0-3.762-1.736-7.235-3.907-5.354s-1.736 5.21-3.762 6.657c-1.621 1.157-2.894 1.736-3.328 1.881-.241-1.013-1.679-3.184-5.499-3.762-4.775-.724-8.248-3.907-7.814-6.078s-3.039-2.749-3.617-.145-2.316 4.92 1.012 9.117c1.914 2.412 3.228 3.718 4.738 4.813-.132 1.193.067 3.927 1.919 5.316s4.508 2.051 5.605 2.209c-.277.469-.598 1.756.328 3.145 1.157 1.737 2.17 2.46 1.591 3.907s.145 2.171 1.303 1.302 2.17-2.459 1.447-4.341c-.579-1.505.657-3.648.868-4.051l18.903 18.43z"/><linearGradient id="P" gradientUnits="userSpaceOnUse"/></defs></svg>