<svg xmlns="http://www.w3.org/2000/svg" width="231" height="518" fill="none" viewBox="0 0 231 518"><path fill="url(#a)" d="M147.5 512.69c.33-1.49-19.33-1.15-27.09-13.83-8.15-13.3-21.68-2.25-25.26 8.52-4.49 13.46 2.99 13.96 5.81 18.61 2.83 4.65.17 9.47 3.33 19.11 3.15 9.64 16.95 10.47 30.24 7.98 13.3-2.49 15.63-13.63 16.29-20.11.53-5.19-4.21-11.91-6.65-14.63 1-1.38 3.06-4.45 3.33-5.65"/><path fill="url(#b)" d="M59.08 454.19c0-7.48 1-8.81 5.15-26.42-5.54-22.49-22.5-68.77-46.03-73.96-29.42-6.48-73.63 36.57-87.75 46.04-14.13 9.47-22.11 25.26-30.91 30.74-8.81 5.49-14.46-3.32-9.64-7.14s1.82-8.48-4.82-8.48c-6.65 0-9.97 5.98-10.97 8.48-1 2.49-5.15 18.94-5.15 20.61 0 1.66-5.82 16.62-3.83 20.77 2 4.15 4.16 16.95 3.83 20.61-.34 3.65 13.96 26.59 15.29 28.25s6.15 10.14 8.14 12.3c1.59 1.73 7.2 5.37 9.81 6.98 2.49 2.05 8.77 7.34 13.96 12.13 6.48 5.99 13.12 3.82 15.62 4.49 2.49.66 19.94 3.49 21.77 3.82s14.46-5.15 17.95-8.31 8.47-3.66 19.28-5.98c10.8-2.33 18.44-13.13 23.1-13.13 4.65 0 14.29-11.3 19.11-18.61 4.82-7.32 7.48-10.97 9.8-13.47 2.33-2.49 7.48-18.28 10.14-22.27s6.15-9.97 6.15-17.45"/><path stroke="#f2c78b" stroke-width=".89" d="M147.5 512.69c.33-1.49-19.33-1.15-27.09-13.83-8.15-13.3-21.68-2.25-25.26 8.52-4.49 13.46 2.99 13.96 5.81 18.61 2.83 4.65.17 9.47 3.33 19.11 3.15 9.64 16.95 10.47 30.24 7.98 13.3-2.49 15.63-13.63 16.29-20.11.53-5.19-4.21-11.91-6.65-14.63 1-1.38 3.06-4.45 3.33-5.65Zm-88.42-58.5c0-7.48 1-8.81 5.15-26.42-5.54-22.49-22.5-68.77-46.03-73.96-29.42-6.48-73.63 36.57-87.75 46.04-14.13 9.47-22.11 25.26-30.91 30.74-8.81 5.49-14.46-3.32-9.64-7.14s1.82-8.48-4.82-8.48c-6.65 0-9.97 5.98-10.97 8.48-1 2.49-5.15 18.94-5.15 20.61 0 1.66-5.82 16.62-3.83 20.77 2 4.15 4.16 16.95 3.83 20.61-.34 3.65 13.96 26.59 15.29 28.25s6.15 10.14 8.14 12.3c1.59 1.73 7.2 5.37 9.81 6.98 2.49 2.05 8.77 7.34 13.96 12.13 6.48 5.99 13.12 3.82 15.62 4.49 2.49.66 19.94 3.49 21.77 3.82s14.46-5.15 17.95-8.31 8.47-3.66 19.28-5.98c10.8-2.33 18.44-13.13 23.1-13.13 4.65 0 14.29-11.3 19.11-18.61 4.82-7.32 7.48-10.97 9.8-13.47 2.33-2.49 7.48-18.28 10.14-22.27s6.15-9.97 6.15-17.45Z"/><path fill="url(#c)" stroke="#f2c78b" stroke-width=".89" d="M138.52 141.09c-1.66 8.8-4.65 8.8-11.63 15.29-6.98 6.48-12.3 10.46 1.99 15.12 14.3 4.65 25.76 7.64 28.75 7.64 3 0 18.45-2.16 21.44-3.49s7.81-5.48 8.65-11.3c.83-5.81 23.1-38.22 25.59-47.2 2.49-8.97-6.48-42.54-7.98-55.5-1.2-10.38-.5-14.85 0-15.79-1.49.83-5.12 3.25-7.64 6.31-2.53 3.06-5.04 7.59-5.99 9.48-3.26-3-11.2-8.81-16.78-8.15-6.98.83-24.76-7.64-29.42-7.64-4.65 0-2.66 2.16-12.79-12.97-8.12-12.09-18.56-20.33-22.77-22.93-.61-2.99-4.13-9.07-13.3-9.47-11.33-.5-14.55 3.72-16.71 6.54l-.07.1c-2.17 2.83-15.13 6.32-17.12 10.31-1.6 3.19-6.98 5.65-9.48 6.48-2.93-2.94-11.16-9.84-20.6-13.96-11.8-5.15-23.94.5-21.61 3.99s5.49-1 7.65 3.49 5.65 21.6.66 26.76c-4.98 5.15-9.97 6.98-10.97 12.63-.99 5.65 1.83 10.96 0 12.79s-4.48 2.99-3.65 6.32c.66 2.66 4.48 4.98 6.31 5.81v9.98c0 2.82-6.48 5.81-8.81 12.63-2.32 6.81-.66 10.8-5.98 12.46s-3.32-2.82-1.66-4.15-.17-4.32-2.83-1.67c-2.66 2.66-4.82 7.98-.99 12.14 2.82 3.07 4.63 3.54 5.33 3.37-3.93 1.42-11.83 6.8-13.14 17.57-1.33 10.9 7.2 22.38 11.63 26.75-4.71 5.32-14.06 18.25-13.8 27.43.27 9.17 2.22 11.46 3.16 11.46-2.71 1.06-8.37 5.19-9.3 13.3-1.17 10.14-1 9.97-2 17.78s-8.97 14.63-7.81 22.27c1.16 7.65-10.3 15.62-10.14 19.94.17 4.32-4.98 8.65-8.14 13.63-3.16 4.99.66 8.98 12.63 4.49s11.47-16.79 15.46-19.94c3.98-3.16 9.3-8.31 9.3-12.14 0-3.05 3.44-9.36 5.15-12.13-2.21 5.1-6.34 17.09-5.15 24.27 1.5 8.97-5.98 19.61-5.81 23.26.16 3.66-2.83 8.81-5.49 13.13s-8.97 14.3-13.46 19.11c-4.49 4.82 11.8 3.99 16.95 0 5.15-3.98 7.65-7.81 10.31-10.8 2.65-2.99 6.48-18.11 7.81-21.44 1.33-3.32 11.46-14.79 11.8-21.44.33-6.64 2.32-13.62 4.32-17.95 1.99-4.32 3.32-22.43 3.82-27.25s-3.66-12.47-1.83-20.28 22.27-40.71 45.87-52.51c18.88-9.44 66.03-38.84 87.25-52.35z"/><path fill="url(#d)" d="M180.56 112.43c-10.47-6.48-20.61 7.82-31.58 28.26-.5-3.66-.97-11.67 1.16-14.46 2.66-3.49 5.49-13.8 0-18.62-4.39-3.85-6.59 1.61-7.14 4.82-5.43 3.99-18.92 13.66-29.42 20.45-10.5 6.78-54.35 30.41-74.95 41.38v28.58h42.04v-28.58c1.11-1.44 10.44-7.79 17.45-12.3 15.09-9.71 34.41-17.45 39.56-18.61 10.13 7.92 33.07 21.47 39.05 22.93 7.48 1.83 10.8-.83 11.97-2.33.93-1.19 1.27-3.15 1.33-3.98 0 0 2.05 1.73 3.65 1.99 2.32.37 3.93.13 5.66-1.99 1.72-2.13 1.05-3.27 0-4.66 1.82 1.5 5.48 2.36 9.47 2.5 3.99.13 4.54-3.05 4.32-4.66 2.05 3.49 7.58 11.17 13.29 13.96 7.15 3.49 3-2.66-1.82-16.29-4.82-13.62-11.14-44.54-20.61-51.51-9.48-6.98-19.61 3.82-12.13 10.47 7.48 6.64-.83 9.14-11.3 2.65"/><path fill="url(#e)" d="M143.49 552.68c-21.77-5.65-17.94-7.48-21.6-43.54l-18.61-9.31c1.55 13.68 4.42 43.14 3.49 51.52-1.17 10.47-1.33 12.13 2.49 14.13 3.82 1.99 8.64-3.66 20.11-4.16s15.79 11.66 32.74-1.16c6.81-5.15 3.15-1.83-18.62-7.48"/><path fill="url(#f)" d="M-50.77 547.43c-3.99-7.15.16-13.13 10.47-38.89l-21.94-9.81c-1.33 7.92-4.65 27.32-7.31 41.55-2.18 11.63-10.97 4.32-10.97 15.79 0 5.65 2.49 8.47 10.97 6.98 8.47-1.5 16.95 4.82 35.23 7.48s18.78-7.31 10.8-10.31c-7.97-2.99-23.26-5.65-27.25-12.79"/><path stroke="#f2c78b" stroke-width=".89" d="M180.56 112.43c-10.47-6.48-20.61 7.82-31.58 28.26-.5-3.66-.97-11.67 1.16-14.46 2.66-3.49 5.49-13.8 0-18.62-4.39-3.85-6.59 1.61-7.14 4.82-5.43 3.99-18.92 13.66-29.42 20.45-10.5 6.78-54.35 30.41-74.95 41.38v28.58h42.04v-28.58c1.11-1.44 10.44-7.79 17.45-12.3 15.09-9.71 34.41-17.45 39.56-18.61 10.13 7.92 33.07 21.47 39.05 22.93 7.48 1.83 10.8-.83 11.97-2.33.93-1.19 1.27-3.15 1.33-3.98 0 0 2.05 1.73 3.65 1.99 2.32.37 3.93.13 5.66-1.99 1.72-2.13 1.05-3.27 0-4.66 1.82 1.5 5.48 2.36 9.47 2.5 3.99.13 4.54-3.05 4.32-4.66 2.05 3.49 7.58 11.17 13.29 13.96 7.15 3.49 3-2.66-1.82-16.29-4.82-13.62-11.14-44.54-20.61-51.51-9.48-6.98-19.61 3.82-12.13 10.47 7.48 6.64-.83 9.14-11.3 2.65Zm-37.07 440.25c-21.77-5.65-17.94-7.48-21.6-43.54l-18.61-9.31c1.55 13.68 4.42 43.14 3.49 51.52-1.17 10.47-1.33 12.13 2.49 14.13 3.82 1.99 8.64-3.66 20.11-4.16s15.79 11.66 32.74-1.16c6.81-5.15 3.15-1.83-18.62-7.48Zm-194.26-5.25c-3.99-7.15.16-13.13 10.47-38.89l-21.94-9.81c-1.33 7.92-4.65 27.32-7.31 41.55-2.18 11.63-10.97 4.32-10.97 15.79 0 5.65 2.49 8.47 10.97 6.98 8.47-1.5 16.95 4.82 35.23 7.48s18.78-7.31 10.8-10.31c-7.97-2.99-23.26-5.65-27.25-12.79Z"/><path fill="url(#g)" d="M99.13 331.21c9.42.67 25.93 4.92 16.62 16.62-8.7 10.94-7.36 12.95-5.02 16.47.79 1.19 1.69 2.54 2.36 4.47.5 1.42 1.06 2.9 1.63 4.41 2.52 6.6 5.25 13.78 3.36 19.19-1.06 3.04.24 7.1 1.65 11.47 1.66 5.19 3.48 10.83 1.67 15.79-1.81 4.99-.65 8.85.24 11.78.73 2.43 1.27 4.22-.24 5.5-1.04.89-1.9 1-2.55 1.09-1.41.19-1.8.25-.77 7.88 1.5 11.14 5.82 46.2 5.82 50.53 0 1.96.65 1.59 1.54 1.09 1.08-.61 2.52-1.42 3.61 1.4.63 1.63 1.43 2.89 2.13 4.01 1.53 2.42 2.63 4.16.69 7.46-.83 1.42-1.65 3.26-2.45 5.06-1.92 4.33-3.76 8.46-5.52 6.24-2-2.53-6.93-6.48-9.14-8.15-3.94.89-12.5 1.5-15.29-3.15-2.8-4.66-3.16-11.25-3-13.96.2-1.29-.03-5.86-1.77-15.13-.21-1.09-.43-2.26-.69-3.49-.63-3.1-1.4-6.63-2.35-10.63-4.53-19.02-12.08-28.09-15.29-30.25-.84 7.31-.97 23.83 5.15 31.41 6.11 7.58 10.88 9.47 12.49 9.47.26 1.23.48 2.4.69 3.49-2.57-.16-9.39-2.19-16.17-8.97s-19.78-32.74-25.43-44.87c-5.54 4.48-18.42 14.45-25.6 18.44-5.31 2.96-7.01 5.91-8.79 9-1.23 2.13-2.49 4.32-5 6.63-1.98 1.82-4.07 3.38-6.11 4.91-4.3 3.22-8.42 6.31-11.01 11.37-2.14 4.2-6.13 8.46-9.88 12.47-2.93 3.13-5.73 6.11-7.4 8.8-2.35 3.78-2.44 6.99-2.54 10.59-.07 2.27-.14 4.7-.78 7.53-1.07 4.67-3.76 5.21-6.99 5.85-1.83.36-3.83.76-5.81 1.96-5.49 3.33-9.81 1.83-10.64 0-.27-.6-.13-1.95.03-3.53.33-3.25.77-7.49-2.02-8.27-4.16-1.16-15.62 1.66-17.29 3.99-.52.73-1.11 2.07-1.76 3.52-1.4 3.16-3.06 6.91-4.88 6.45-.29-.07-.63-.14-1.01-.22-3.16-.66-8.97-1.88-7.64-8.25.49-2.35.97-4.09 1.36-5.52.8-2.93 1.25-4.6.8-7.61-.66-4.49-1.49-14.13 1.67-16.79 1.97-1.66 1.48-5 .83-9.42-.39-2.66-.83-5.71-.83-9.03 0-5.6.94-7.77 1.71-9.55.44-1.02.82-1.91.95-3.24.21-2.39-2.84-8.77-5.35-14.01-1.33-2.77-2.5-5.22-2.96-6.6-1.33-3.99 7.81-30.91 12.46-36.73 2.53-3.17 8.81-7.81 14-11.65 4.35-3.22 6.19-4.72 10.6-6.96 5.15-2.63 8.65-2.67 13.96-4.99 12.45-5.43 16.62-10.8 29.25-18.85 10.1-6.44 36.78-10.39 48.86-11.56 1.33-5.71 4.85-19.31 8.31-28.09 3.45-8.77 2.77-33.46 1.99-44.7.11 1.55 1.5 5.71 6.15 9.97 5.82 5.32 10.8 1.99 24.79 20.11 4.11 10.82 9.22 21.42 12.6 27.75"/><path stroke="#f2c78b" stroke-width=".89" d="M94.01 477.79c-.63-3.1-1.4-6.63-2.35-10.63-4.53-19.02-12.08-28.09-15.29-30.25-.84 7.31-.97 23.83 5.15 31.41 6.11 7.58 10.88 9.47 12.49 9.47Zm-168.39 49.14c-3.16-.66-8.97-1.88-7.64-8.25.49-2.35.97-4.09 1.36-5.52.8-2.93 1.25-4.6.8-7.61-.66-4.49-1.49-14.13 1.67-16.79 1.97-1.66 1.48-5 .83-9.42-.39-2.66-.83-5.71-.83-9.03 0-5.6.94-7.77 1.71-9.55.44-1.02.82-1.91.95-3.24.21-2.39-2.84-8.77-5.35-14.01-1.33-2.77-2.5-5.22-2.96-6.6-1.33-3.99 7.81-30.91 12.46-36.73 2.53-3.17 8.81-7.81 14-11.65 4.35-3.22 6.19-4.72 10.6-6.96 5.15-2.63 8.65-2.67 13.96-4.99 12.45-5.43 16.62-10.8 29.25-18.85 10.1-6.44 36.78-10.39 48.86-11.56 1.33-5.71 4.85-19.31 8.31-28.09 3.45-8.77 2.77-33.46 1.99-44.7.11 1.55 1.5 5.71 6.15 9.97 5.82 5.32 10.8 1.99 24.79 20.11 4.11 10.82 9.22 21.42 12.6 27.75 9.42.67 25.93 4.92 16.62 16.62-8.7 10.94-7.36 12.95-5.02 16.47.79 1.19 1.69 2.54 2.36 4.47.5 1.42 1.06 2.9 1.63 4.41 2.52 6.6 5.25 13.78 3.36 19.19-1.06 3.04.24 7.1 1.65 11.47 1.66 5.19 3.48 10.83 1.67 15.79-1.81 4.99-.65 8.85.24 11.78.73 2.43 1.27 4.22-.24 5.5-1.04.89-1.9 1-2.55 1.09-1.41.19-1.8.25-.77 7.88 1.5 11.14 5.82 46.2 5.82 50.53 0 1.96.65 1.59 1.54 1.09 1.08-.61 2.52-1.42 3.61 1.4.63 1.63 1.43 2.89 2.13 4.01 1.53 2.42 2.63 4.16.69 7.46-.83 1.42-1.65 3.26-2.45 5.06-1.92 4.33-3.76 8.46-5.52 6.24-2-2.53-6.93-6.48-9.14-8.15-3.94.89-12.5 1.5-15.29-3.15-2.8-4.66-3.16-11.25-3-13.96.2-1.29-.03-5.86-1.77-15.13-.21-1.09-.43-2.26-.69-3.49m-168.39 49.14c.38.08.72.15 1.01.22 1.82.46 3.48-3.29 4.88-6.45.65-1.45 1.24-2.79 1.76-3.52 1.67-2.33 13.13-5.15 17.29-3.99 2.79.78 2.35 5.02 2.02 8.27-.16 1.58-.3 2.93-.03 3.53.83 1.83 5.15 3.33 10.64 0 1.98-1.2 3.98-1.6 5.81-1.96 3.23-.64 5.92-1.18 6.99-5.85.64-2.83.71-5.26.78-7.53.1-3.6.19-6.81 2.54-10.59 1.67-2.69 4.47-5.67 7.4-8.8 3.75-4.01 7.74-8.27 9.88-12.47 2.59-5.06 6.71-8.15 11.01-11.37 2.04-1.53 4.13-3.09 6.11-4.91 2.51-2.31 3.77-4.5 5-6.63 1.78-3.09 3.48-6.04 8.79-9 7.18-3.99 20.06-13.96 25.6-18.44 5.65 12.13 18.65 38.09 25.43 44.87s13.6 8.81 16.17 8.97m-169.08 45.65"/><path fill="url(#h)" stroke="#f2c78b" stroke-width=".89" d="M81.85 172.83c-1.55 1.11-5.05 3.72-6.65 5.32-.56.56-1.26 1.87-2.19 3.58-2.36 4.38-6.15 11.42-12.6 15.36-.72-1-3.19-3.92-7.31-7.64-4.12-3.73-7.7-12.63-8.98-16.62-20.55-1.05-68.9-3.56-97.88-5.15-36.23-2-30.25 10.47-23.11 15.12 3.44 2.24 12.09 3.59 23.48 5.37 12.3 1.92 27.8 4.35 43.33 8.92 29.92 8.81 42.05 31.91 45.87 51.85 3.83 19.95-8.31 48.53-32.07 60-14.8 7.14-29.98 24.45-41.5 37.59-6.98 7.97-12.62 14.4-16 16.09-5.68 2.84-7.5-1.1-9.25-4.89-1.01-2.2-2.01-4.35-3.72-5.08-4.65-2-4.65 7.15 0 16.12 3.12 6.01 6.33 10.94 12.97 12.89 7.59 2.23 15.85 4.14 22.6 0 2.43-1.49 1.13-2.92 5.65-4.65 5.65-2.16 7.14.83 11.3-1 4.15-1.83 4.82-5.32 8.14-8.31 3.33-2.99 11.47 0 17.12-1.99 5.65-2 10.14-7.98 15.12-9.31 4.99-1.33 8.48 1.33 13.96 1.33 4.39 0 6.38-4.32 6.82-6.48 1.33-5.71 3.19-24.39 6.65-33.17 3.45-8.77 2.77-33.46 1.99-44.7.11 1.55 1.5 5.71 6.15 9.97 5.82 5.32 10.8 1.99 24.79 20.11-3.84-10.11-6.8-20.4-6.68-27.59.31-16.88 6.08-28.57 11.36-39.28.55-1.1 1.08-2.19 1.61-3.27 2.74-5.64 3.53-13.25 4.23-20.11.76-7.28 1.42-13.72 4.24-16.12 3.63-3.08 5.95-3.03 10.66-2.93 2.41.05 5.45.11 9.62-.22 12.3-1 17.95-3.33 18.78-11.14.73-6.89-6.43-7.19-16.91-7.62-1.4-.05-2.86-.11-4.36-.19-10.24-.53-29.09-1.66-37.23-2.16Z"/><path fill="url(#i)" stroke="#f2c78b" stroke-width=".91" d="m77.2 175.4 3.09-2.54c.38.85 1.27 3.04 1.84 5.07.7 2.53 3.34 9.75 0 15.19-3.38 5.49-21.02 11.54-22.01 14.36-.79 2.25.33 6.85.99 8.87-.66.23-2.9.05-6.62-2.54s-2.71-5.93-2.9-8.19c-1.97-1.17-8.87-6.37-11.46-10.53-3.24-5.21-3.24-15.19-1.97-19.69 1.01-3.61 4.36-4.98 5.91-5.21-.98 2.06-4.73 8.01-3.09 14.22 4.65 17.64 17.85 17.9 32.13 9.41 9.6-5.7 6.53-14.34 4.09-18.42Z"/><path fill="url(#j)" stroke="#f2c78b" stroke-width=".89" d="M139.49 226.27c.54-14.5 1.07-35.3.53-45.2-.27-4.94-8.42-5.14-12.52-2.53-4.94 3.15-3.2 7.56-2.84 14.96 2.09 42.69 2.52 106.48 2.44 109.41-.03 1.16-.59 8.45-.96 30.4.6 5.82 3.32 7.92 7.39 8.05 4.08.12 7.82-3.63 7.82-3.63s-1.12-72.09-1.86-111.46Z"/><path fill="url(#k)" d="M150.25 233.81c.22-1.21.22-4.12-1.51-6.15-2.18-2.55-3.6-5.07-2.42-7.51 1.19-2.44.15-5.34-1.98-2.73-2.12 2.6-5.62 7.64-5.54 11.84.06 3.36.64 6.37.92 7.46-1.13.35-3.4 1.46-3.45 3.14-.04 1.67.91 3.14 1.4 3.66-.25-.07-1.05-.03-2.26.7-1.22.72-3.65 1.34-4.71 1.57.98.66 3.27 1.89 4.63 1.47 1.35-.41 3.57-.97 4.51-1.19l.38 20.6c1.43.04 4.75-.43 6.6-2.66 1.31-1.57 2.06-2.69 2.43-3.34-1.1 2.25-2.88 6.28-2.93 8.09-.06 2.48-.55 6.66.14 8.78.69 2.11 4.47 7.19 4.38 10.61-.09 3.43-1.13 7.22-3.22 8.68s-7.9 2.23-3.99 2.54 9.33.29 12.21-9.54c2.3-7.86 1.93-16.33 1.46-19.59.62-.17 1.89-1.01 1.95-2.99.05-1.98-.54-3.13-.85-3.46.99-2 2.81-7.12 2.18-11.56-.62-4.44-3.4-10.08-4.7-12.34 1.37-.41 4.15-1.67 4.2-3.5.06-2.28-.48-3.06-1.78-3.48-1.03-.34-3.7 1.15-4.9 1.94-.19-.07-.51-.66-1.1-.98-.92-.51-1.68-.05-2.05-.06"/><path fill="url(#l)" d="M125.18 251.7c-2.29-.26-2.52 2.14-2.02 5.66.63 4.4 2.87 4.28 4.04 9.46 1.17 5.19 1.83 8.26 1.35 12.25-.39 3.19 3.17 7.02 4.99 8.54-.93-2.32-2.48-7.55-1.22-9.95 1.57-3.01 1.23-11.02-.39-13.36-1.61-2.34-5.07-5.87-4.45-7.95.49-1.66-.32-4.42-2.3-4.65"/><path stroke="#f2c78b" stroke-width=".89" d="M149.25 260.67c-.37.65-1.12 1.77-2.43 3.34-1.85 2.23-5.17 2.7-6.6 2.66l-.38-20.6c-.94.22-3.16.78-4.51 1.19-1.36.42-3.65-.81-4.63-1.47 1.06-.23 3.49-.85 4.71-1.57 1.21-.73 2.01-.77 2.26-.7-.49-.52-1.44-1.99-1.4-3.66.05-1.68 2.32-2.79 3.45-3.14-.28-1.09-.86-4.1-.92-7.46-.08-4.2 3.42-9.24 5.54-11.84 2.13-2.61 3.17.29 1.98 2.73-1.18 2.44.24 4.96 2.42 7.51 1.73 2.03 1.73 4.94 1.51 6.15.37.01 1.13-.45 2.05.06.59.32.91.91 1.1.98 1.2-.79 3.87-2.28 4.9-1.94 1.3.42 1.84 1.2 1.78 3.48-.05 1.83-2.83 3.09-4.2 3.5 1.3 2.26 4.08 7.9 4.7 12.34.63 4.44-1.19 9.56-2.18 11.56.31.33.9 1.48.85 3.46-.06 1.98-1.33 2.82-1.95 2.99.47 3.26.84 11.73-1.46 19.59-2.88 9.83-8.3 9.85-12.21 9.54s1.9-1.08 3.99-2.54 3.13-5.25 3.22-8.68c.09-3.42-3.69-8.5-4.38-10.61-.69-2.12-.2-6.3-.14-8.78.05-1.81 1.83-5.84 2.93-8.09Zm0 0c.11-.21.2-.4.29-.58-.04.11-.13.3-.29.58Zm-24.07-8.97c-2.29-.26-2.52 2.14-2.02 5.66.63 4.4 2.87 4.28 4.04 9.46 1.17 5.19 1.83 8.26 1.35 12.25-.39 3.19 3.17 7.02 4.99 8.54-.93-2.32-2.48-7.55-1.22-9.95 1.57-3.01 1.23-11.02-.39-13.36-1.61-2.34-5.07-5.87-4.45-7.95.49-1.66-.32-4.42-2.3-4.65Z"/><path fill="url(#m)" stroke="#f2c78b" stroke-width=".89" d="M133.25 321.62c4.07-.07 6.97 5.08 8.12 14.21.74 43.89-1.52 84.3-2.5 104.24-4.93 0-8.83.55-10.17.83-.14-8.91-.04-18.3-.25-23.32-.26-6.56-1.19-38.2-2.47-85.43-.06-3.98 3.2-10.46 7.27-10.53Z"/><path fill="url(#n)" stroke="#f2c78b" stroke-width=".89" d="M145.46 468.17c-4.98-2.9-6.46-10.43-6.99-15.47-.14-1.29.05-5.74.4-12.63-4.93 0-8.83.55-10.17.83.13 8.16.45 15.91 1.37 19.52 1.93 7.52 7.87 14.3 15.62 21.04 7.74 6.74 24.19 11.03 28.88 9.34 3.74-1.35 4.3-6.72 4.1-9.24 2.1.04 7.92 1.15 14.45 5.25 6.54 4.1 7.61 16.29 7.33 21.87 1.04-.17 3.22-.74 3.56-1.66.43-1.16 2.75-9.91-.79-20.39s-13.3-16.95-19.13-16.85c-5.84.1-33.64 1.28-38.63-1.61Z"/><path fill="url(#o)" fill-rule="evenodd" stroke="#f2c78b" stroke-width=".89" d="M149.02 419.37c-1.52-.19-5.54.71-8.22 5.75-2.67 5.05-5.36 10.73-6.37 12.93-3.4.01-9.19 1.48-9.97 4.98-.82 3.7.7 5.31 2.44 6.56-.87.92-1.65 1.96-1.62 4.01.06 3.36-.15 5.54 4.55 5.46 0 0-.28-1.14-.32-1.83-.05-.69-.17-1.99-.17-1.99-.99-.09-.74-.39-.76-1.54-.03-1.44 1.21-2.59 4.5-2.64 3.3-.06 6.19.59 6.37 2.02.14 1.16-.12 1.67-.69 1.95 0 0 .21 1.04.35 1.7.13.65.34 1.65.34 1.65.68-.01 1.24-.47 1.77-.98.86-.83.98-2.23.86-2.82.58-.06 1.85-.41 2.33-1.32.61-1.13.1-3.69-.55-4.8-.64-1.11-1-3.83-.72-5.43.23-1.29.8-2.05 1.06-2.27-.26-.1-.91-.24-1.41.03s-1.03 1.09-1.23 1.46c-.12-3.84.11-12.33 1.93-15.57 1.83-3.24 4.45-6.22 5.53-7.31Zm-21.47 23.66c-.65 1.49-.65 3.4 1.3 5.15h3.87c-.11-.11-.22-1.76.26-3.05s1.1-3.01 1.35-3.71c-1.83-.13-6.11.07-6.78 1.61Z" clip-rule="evenodd"/><defs><linearGradient id="a" x1="150.86" x2="-135.28" y1="453.71" y2="453.71" gradientUnits="userSpaceOnUse"><stop stop-color="#3c3024"/><stop offset="1" stop-color="#bd7b49"/></linearGradient><linearGradient id="b" x1="150.86" x2="-135.28" y1="453.71" y2="453.71" gradientUnits="userSpaceOnUse"><stop stop-color="#3c3024"/><stop offset="1" stop-color="#bd7b49"/></linearGradient><linearGradient id="c" x1="213.74" x2="-54.49" y1="170.23" y2="170.23" gradientUnits="userSpaceOnUse"><stop stop-color="#3c3024"/><stop offset="1" stop-color="#bd7b49"/></linearGradient><linearGradient id="d" x1="230.26" x2="-80.52" y1="334.01" y2="334.01" gradientUnits="userSpaceOnUse"><stop stop-color="#fcf0d6"/><stop offset="1" stop-color="#ffc446"/></linearGradient><linearGradient id="e" x1="230.26" x2="-80.52" y1="334.01" y2="334.01" gradientUnits="userSpaceOnUse"><stop stop-color="#fcf0d6"/><stop offset="1" stop-color="#ffc446"/></linearGradient><linearGradient id="f" x1="230.26" x2="-80.52" y1="334.01" y2="334.01" gradientUnits="userSpaceOnUse"><stop stop-color="#fcf0d6"/><stop offset="1" stop-color="#ffc446"/></linearGradient><linearGradient id="g" x1="132.91" x2="-83.98" y1="400.28" y2="400.28" gradientUnits="userSpaceOnUse"><stop stop-color="#3c3024"/><stop offset="1" stop-color="#bd7b49"/></linearGradient><linearGradient id="h" x1="140.4" x2="-82.26" y1="275.78" y2="275.78" gradientUnits="userSpaceOnUse"><stop stop-color="#fcf0d6"/><stop offset="1" stop-color="#ffc446"/></linearGradient><linearGradient id="i" x1="83.78" x2="37.37" y1="193.3" y2="193.3" gradientUnits="userSpaceOnUse"><stop stop-color="#3c3024"/><stop offset="1" stop-color="#bd7b49"/></linearGradient><linearGradient id="j" x1="143.46" x2="122.08" y1="259.42" y2="258.84" gradientUnits="userSpaceOnUse"><stop stop-color="#fcf0d6"/><stop offset="1" stop-color="#ffc446"/></linearGradient><linearGradient id="k" x1="160.6" x2="122.86" y1="258.39" y2="257.37" gradientUnits="userSpaceOnUse"><stop stop-color="#3c3024"/><stop offset="1" stop-color="#bd7b49"/></linearGradient><linearGradient id="l" x1="160.6" x2="122.86" y1="258.39" y2="257.37" gradientUnits="userSpaceOnUse"><stop stop-color="#3c3024"/><stop offset="1" stop-color="#bd7b49"/></linearGradient><linearGradient id="m" x1="142.13" x2="126.81" y1="381.06" y2="381.32" gradientUnits="userSpaceOnUse"><stop stop-color="#fcf0d6"/><stop offset="1" stop-color="#ffc446"/></linearGradient><linearGradient id="n" x1="204.74" x2="129.28" y1="473.75" y2="475.02" gradientUnits="userSpaceOnUse"><stop stop-color="#fcf0d6"/><stop offset="1" stop-color="#ffc446"/></linearGradient><linearGradient id="o" x1="149.35" x2="124.14" y1="439.03" y2="439.45" gradientUnits="userSpaceOnUse"><stop stop-color="#3c3024"/><stop offset="1" stop-color="#bd7b49"/></linearGradient></defs></svg>