<svg width="231" height="518" viewBox="0 0 231 518" fill="none" xmlns="http://www.w3.org/2000/svg">
<path d="M147.496 512.694C147.828 511.198 128.17 511.535 120.406 498.859C112.263 485.564 98.7349 496.606 95.1451 507.375C90.6579 520.837 98.1366 521.336 100.962 525.989C103.787 530.642 101.128 535.462 104.286 545.101C107.443 554.74 121.237 555.571 134.533 553.078C147.828 550.586 150.155 539.451 150.82 532.969C151.352 527.784 146.61 521.059 144.172 518.344C145.169 516.959 147.23 513.89 147.496 512.694Z" fill="url(#paint0_linear_24_9468)"/>
<path d="M59.0813 454.193C59.0813 446.714 60.0784 445.385 64.2333 427.768C58.6935 405.277 41.7308 358.998 18.1978 353.813C-11.2183 347.331 -55.4256 390.375 -69.552 399.848C-83.6784 409.321 -91.6557 425.109 -100.464 430.594C-109.272 436.078 -114.923 427.27 -110.103 423.447C-105.283 419.625 -108.275 414.971 -114.923 414.971C-121.57 414.971 -124.894 420.954 -125.891 423.447C-126.889 425.94 -131.043 442.393 -131.043 444.055C-131.043 445.717 -136.86 460.675 -134.866 464.829C-132.871 468.984 -130.711 481.781 -131.043 485.437C-131.376 489.093 -117.083 512.028 -115.754 513.69C-114.424 515.352 -109.604 523.828 -107.61 525.989C-106.015 527.718 -100.408 531.362 -97.8048 532.968C-95.3119 535.018 -89.0298 540.314 -83.8446 545.101C-77.3631 551.085 -70.7154 548.923 -68.2225 549.588C-65.7296 550.252 -48.2793 553.078 -46.4512 553.41C-44.6231 553.743 -31.9924 548.258 -28.5024 545.101C-25.0123 541.944 -20.0265 541.444 -9.22399 539.118C1.57855 536.791 9.22343 525.989 13.8768 525.989C18.5302 525.989 28.1694 514.687 32.989 507.375C37.8086 500.064 40.4677 496.406 42.7944 493.914C45.1211 491.422 50.2731 475.632 52.9322 471.643C55.5912 467.655 59.0813 461.672 59.0813 454.193Z" fill="url(#paint1_linear_24_9468)"/>
<path d="M147.496 512.694C147.828 511.198 128.17 511.535 120.406 498.859C112.263 485.564 98.7349 496.606 95.1451 507.375C90.6579 520.837 98.1366 521.336 100.962 525.989C103.787 530.642 101.128 535.462 104.286 545.101C107.443 554.74 121.237 555.571 134.533 553.078C147.828 550.586 150.155 539.451 150.82 532.969C151.352 527.784 146.61 521.059 144.172 518.344C145.169 516.959 147.23 513.89 147.496 512.694Z" stroke="#F2C78B" stroke-width="0.893363"/>
<path d="M59.0813 454.193C59.0813 446.714 60.0784 445.385 64.2333 427.768C58.6935 405.277 41.7308 358.998 18.1978 353.813C-11.2183 347.331 -55.4256 390.375 -69.552 399.848C-83.6784 409.321 -91.6557 425.109 -100.464 430.594C-109.272 436.078 -114.923 427.27 -110.103 423.447C-105.283 419.625 -108.275 414.971 -114.923 414.971C-121.57 414.971 -124.894 420.954 -125.891 423.447C-126.889 425.94 -131.043 442.393 -131.043 444.055C-131.043 445.717 -136.86 460.675 -134.866 464.829C-132.871 468.984 -130.711 481.781 -131.043 485.437C-131.376 489.093 -117.083 512.028 -115.754 513.69C-114.424 515.352 -109.604 523.828 -107.61 525.989C-106.015 527.718 -100.408 531.362 -97.8048 532.968C-95.3119 535.018 -89.0298 540.314 -83.8446 545.101C-77.3631 551.085 -70.7154 548.923 -68.2225 549.588C-65.7296 550.252 -48.2793 553.078 -46.4512 553.41C-44.6231 553.743 -31.9924 548.258 -28.5024 545.101C-25.0123 541.944 -20.0265 541.444 -9.22399 539.118C1.57855 536.791 9.22343 525.989 13.8768 525.989C18.5302 525.989 28.1694 514.687 32.989 507.375C37.8086 500.064 40.4677 496.406 42.7944 493.914C45.1211 491.422 50.2731 475.632 52.9322 471.643C55.5912 467.655 59.0813 461.672 59.0813 454.193Z" stroke="#F2C78B" stroke-width="0.893363"/>
<path d="M138.522 141.086C136.86 149.894 133.868 149.894 126.888 156.375C119.908 162.857 114.59 166.845 128.882 171.499C143.175 176.152 154.642 179.144 157.634 179.144C160.625 179.144 176.081 176.983 179.073 175.654C182.064 174.324 186.884 170.169 187.715 164.353C188.546 158.536 210.816 126.128 213.308 117.154C215.801 108.179 206.827 74.6084 205.331 61.6454C204.135 51.2749 204.833 46.7988 205.331 45.857C203.835 46.688 200.212 49.1144 197.686 52.1724C195.16 55.2303 192.645 59.7618 191.703 61.6454C188.435 58.6539 180.502 52.8371 174.918 53.5019C167.938 54.3329 150.155 45.857 145.502 45.857C140.848 45.857 142.843 48.0175 132.705 32.894C124.595 20.7951 114.147 12.5631 109.936 9.95937C109.327 6.9679 105.815 0.885245 96.641 0.486382C85.3114 -0.00621158 82.0931 4.20577 79.9338 7.03171L79.8555 7.1341C77.695 9.95937 64.732 13.4494 62.7377 17.438C61.1422 20.629 55.7576 23.0886 53.2647 23.9196C50.3286 20.9835 42.0965 14.081 32.6568 9.95937C20.8571 4.80739 8.72498 10.4579 11.0517 13.948C13.3784 17.438 16.536 12.9508 18.6965 17.438C20.8571 21.9253 24.3471 39.0431 19.3613 44.1951C14.3755 49.3471 9.38976 51.1752 8.39259 56.8258C7.39543 62.4763 10.2207 67.7945 8.39259 69.6226C6.56447 71.4507 3.90538 72.6141 4.73634 75.9379C5.40112 78.597 9.22356 80.9237 11.0517 81.7547V91.7263C11.0517 94.5515 4.57016 97.543 2.24345 104.357C-0.0832367 111.171 1.57869 115.159 -3.73949 116.821C-9.05766 118.483 -7.06334 113.996 -5.40141 112.667C-3.73949 111.337 -5.56761 108.346 -8.2267 111.005C-10.8858 113.664 -13.0463 118.982 -9.22385 123.137C-6.39919 126.207 -4.58603 126.678 -3.88922 126.513C-7.82164 127.928 -15.7223 133.313 -17.0349 144.077C-18.3645 154.979 -9.83322 166.458 -5.40141 170.834C-10.1102 176.152 -19.4613 189.082 -19.1954 198.256C-18.9295 207.43 -16.9795 209.723 -16.0378 209.723C-18.7522 210.776 -24.4139 214.908 -25.3446 223.019C-26.5079 233.156 -26.3417 232.99 -27.3389 240.801C-28.336 248.612 -36.3133 255.426 -35.1499 263.071C-33.9866 270.716 -45.4539 278.693 -45.2877 283.014C-45.1215 287.335 -50.2735 291.656 -53.4312 296.642C-56.5888 301.628 -52.7664 305.616 -40.8005 301.129C-28.8346 296.642 -29.3332 284.344 -25.3446 281.186C-21.3559 278.028 -16.0378 272.876 -16.0378 269.054C-16.0378 265.996 -12.6031 259.692 -10.8858 256.922C-13.1017 262.019 -17.2343 274.007 -16.0378 281.186C-14.542 290.161 -22.0207 300.797 -21.8545 304.453C-21.6883 308.109 -24.6798 313.261 -27.3389 317.582C-29.998 321.903 -36.3133 331.875 -40.8005 336.695C-45.2877 341.514 -29.0008 340.683 -23.8488 336.695C-18.6969 332.706 -16.2039 328.883 -13.5449 325.892C-10.8858 322.901 -7.06334 307.777 -5.73381 304.453C-4.40427 301.129 5.73351 289.662 6.06589 283.014C6.39828 276.367 8.39259 269.386 10.3869 265.065C12.3812 260.744 13.7108 242.629 14.2094 237.81C14.7079 232.99 10.5531 225.345 12.3812 217.534C14.2094 209.723 34.6511 176.817 58.2505 165.017C77.13 155.578 124.284 126.184 145.502 112.667L138.522 141.086Z" fill="url(#paint2_linear_24_9468)" stroke="#F2C78B" stroke-width="0.893363"/>
<path d="M180.555 112.434C170.085 105.953 159.947 120.246 148.978 140.687C148.48 137.031 148.015 129.02 150.142 126.228C152.801 122.738 155.626 112.434 150.142 107.615C145.754 103.759 143.549 109.221 142.995 112.434C137.567 116.423 124.083 126.095 113.579 132.876C103.076 139.657 59.2343 163.289 38.6264 174.258V202.843H80.6732V174.258C81.7811 172.818 91.113 166.472 98.1234 161.96C113.209 152.25 132.525 144.51 137.677 143.346C147.815 151.268 170.75 164.818 176.733 166.281C184.211 168.109 187.535 165.45 188.699 163.954C189.629 162.758 189.973 160.796 190.028 159.965C190.028 159.965 192.079 161.701 193.684 161.96C195.995 162.333 197.606 162.093 199.335 159.965C201.063 157.838 200.387 156.697 199.335 155.312C201.163 156.808 204.819 157.672 208.808 157.805C212.797 157.938 213.35 154.758 213.129 153.152C215.179 156.642 220.707 164.32 226.424 167.112C233.571 170.602 229.416 164.453 224.596 150.825C219.777 137.197 213.461 106.285 203.988 99.3051C194.515 92.325 184.378 103.128 191.856 109.775C199.335 116.423 191.025 118.916 180.555 112.434Z" fill="url(#paint3_linear_24_9468)"/>
<path d="M143.494 552.679C121.723 547.029 125.545 545.201 121.889 509.137L103.275 499.83C104.827 513.513 107.696 542.974 106.765 551.35C105.602 561.82 105.436 563.482 109.258 565.476C113.081 567.47 117.9 561.82 129.368 561.321C140.835 560.823 145.156 572.975 162.108 560.158C168.922 555.006 165.265 558.33 143.494 552.679Z" fill="url(#paint4_linear_24_9468)"/>
<path d="M-50.7722 547.427C-54.7608 540.28 -50.606 534.297 -40.302 508.538L-62.2395 498.732C-63.569 506.654 -66.8929 526.054 -69.552 540.28C-71.7265 551.914 -80.5207 544.601 -80.5207 556.069C-80.5207 561.722 -78.0278 564.544 -69.552 563.049C-61.0761 561.553 -52.6003 567.868 -34.3191 570.527C-16.0379 573.187 -15.5393 563.215 -23.5165 560.223C-31.4938 557.232 -46.7836 554.573 -50.7722 547.427Z" fill="url(#paint5_linear_24_9468)"/>
<path d="M180.555 112.434C170.085 105.953 159.947 120.246 148.978 140.687C148.48 137.031 148.015 129.02 150.142 126.228C152.801 122.738 155.626 112.434 150.142 107.615C145.754 103.759 143.549 109.221 142.995 112.434C137.567 116.423 124.083 126.095 113.579 132.876C103.076 139.657 59.2343 163.289 38.6264 174.258V202.843H80.6732V174.258C81.7811 172.818 91.113 166.472 98.1234 161.96C113.209 152.25 132.525 144.51 137.677 143.346C147.815 151.268 170.75 164.818 176.733 166.281C184.211 168.109 187.535 165.45 188.699 163.954C189.629 162.758 189.973 160.796 190.028 159.965C190.028 159.965 192.079 161.701 193.684 161.96C195.995 162.333 197.606 162.093 199.335 159.965C201.063 157.838 200.387 156.697 199.335 155.312C201.163 156.808 204.819 157.672 208.808 157.805C212.797 157.938 213.35 154.758 213.129 153.152C215.179 156.642 220.707 164.32 226.424 167.112C233.571 170.602 229.416 164.453 224.596 150.825C219.777 137.197 213.461 106.285 203.988 99.3051C194.515 92.325 184.378 103.128 191.856 109.775C199.335 116.423 191.025 118.916 180.555 112.434Z" stroke="#F2C78B" stroke-width="0.893363"/>
<path d="M143.494 552.679C121.723 547.029 125.545 545.201 121.889 509.137L103.275 499.83C104.827 513.513 107.696 542.974 106.765 551.35C105.602 561.82 105.436 563.482 109.258 565.476C113.081 567.47 117.9 561.82 129.368 561.321C140.835 560.823 145.156 572.975 162.108 560.158C168.922 555.006 165.265 558.33 143.494 552.679Z" stroke="#F2C78B" stroke-width="0.893363"/>
<path d="M-50.7722 547.427C-54.7608 540.28 -50.606 534.297 -40.302 508.538L-62.2395 498.732C-63.569 506.654 -66.8929 526.054 -69.552 540.28C-71.7265 551.914 -80.5207 544.601 -80.5207 556.069C-80.5207 561.722 -78.0278 564.544 -69.552 563.049C-61.0761 561.553 -52.6003 567.868 -34.3191 570.527C-16.0379 573.187 -15.5393 563.215 -23.5165 560.223C-31.4938 557.232 -46.7836 554.573 -50.7722 547.427Z" stroke="#F2C78B" stroke-width="0.893363"/>
<path d="M99.134 331.211C108.552 331.875 125.06 336.13 115.753 347.83C107.052 358.768 108.392 360.782 110.732 364.3C111.521 365.486 112.424 366.843 113.094 368.77C113.588 370.19 114.151 371.668 114.725 373.175C117.241 379.781 119.975 386.957 118.08 392.37C117.015 395.413 118.318 399.466 119.726 403.844C121.393 409.029 123.206 414.669 121.404 419.625C119.586 424.624 120.751 428.48 121.636 431.41C122.369 433.837 122.91 435.629 121.404 436.909C120.36 437.796 119.497 437.913 118.85 438.001C117.436 438.193 117.054 438.245 118.08 445.884C119.576 457.019 123.897 492.085 123.897 496.406C123.897 498.366 124.546 498.001 125.442 497.498C126.522 496.891 127.959 496.084 129.049 498.899C129.679 500.529 130.476 501.792 131.182 502.911C132.707 505.33 133.806 507.071 131.874 510.367C131.041 511.787 130.223 513.627 129.419 515.434C127.495 519.757 125.655 523.895 123.897 521.668C121.902 519.142 116.972 515.186 114.756 513.524C110.823 514.411 102.258 515.02 99.4664 510.367C96.6744 505.713 96.3087 499.121 96.4749 496.406C96.6704 495.116 96.4409 490.546 94.699 481.283C94.4928 480.186 94.2653 479.023 94.0149 477.793C93.384 474.692 92.6071 471.159 91.6553 467.156C87.1349 448.144 79.5786 439.07 76.3656 436.909C75.5346 444.222 75.4017 460.741 81.5176 468.32C87.6335 475.898 92.3974 477.793 94.0149 477.793C94.2653 479.023 94.4928 480.186 94.699 481.283C92.1333 481.117 85.3068 479.089 78.5261 472.308C71.7454 465.528 58.7491 439.568 53.0986 427.436C47.5588 431.924 34.6844 441.895 27.5049 445.884C22.1903 448.836 20.4892 451.789 18.7086 454.879C17.4824 457.008 16.2185 459.202 13.7109 461.506C11.7287 463.327 9.6429 464.89 7.59823 466.421C3.29988 469.641 -0.816727 472.725 -3.40701 477.793C-5.55432 481.994 -9.53732 486.248 -13.2935 490.259C-16.2238 493.389 -19.0159 496.371 -20.6911 499.065C-23.0354 502.837 -23.1293 506.045 -23.2347 509.65C-23.3012 511.923 -23.3723 514.353 -24.0149 517.18C-25.0765 521.851 -27.7654 522.386 -30.9988 523.029C-32.8276 523.393 -34.8305 523.791 -36.8118 524.992C-42.2961 528.315 -46.6172 526.82 -47.4481 524.992C-47.7207 524.392 -47.582 523.041 -47.4191 521.455C-47.0854 518.207 -46.6506 513.974 -49.4424 513.192C-53.5973 512.029 -65.0646 514.854 -66.7265 517.18C-67.2512 517.915 -67.8421 519.246 -68.4889 520.702C-69.8907 523.859 -71.5546 527.607 -73.3742 527.152C-73.6596 527.081 -74.0006 527.009 -74.3799 526.93L-74.3831 526.929C-77.5392 526.269 -83.351 525.053 -82.0162 518.676C-81.5252 516.33 -81.0521 514.593 -80.6616 513.159C-79.8625 510.226 -79.4092 508.561 -79.8557 505.547C-80.5205 501.06 -81.3515 491.421 -78.1938 488.762C-76.2235 487.102 -76.7121 483.761 -77.358 479.342C-77.7473 476.68 -78.1938 473.626 -78.1938 470.314C-78.1938 464.713 -77.253 462.539 -76.4824 460.759C-76.0412 459.739 -75.6557 458.849 -75.5347 457.517C-75.3172 455.125 -78.3729 448.748 -80.8839 443.507C-82.2104 440.739 -83.3848 438.288 -83.8444 436.909C-85.1739 432.921 -76.0333 405.997 -71.3799 400.181C-68.8464 397.014 -62.569 392.369 -57.3754 388.526C-53.0295 385.311 -51.1926 383.815 -46.7834 381.567C-41.626 378.937 -38.1292 378.896 -32.8232 376.581C-20.3676 371.147 -16.2039 365.779 -3.5732 357.731C6.53133 351.293 33.2108 347.34 45.2875 346.168C46.6171 340.462 50.1403 326.856 53.5972 318.081C57.054 309.306 56.367 284.621 55.5915 273.375C55.7023 274.927 57.0872 279.093 61.7406 283.347C67.5574 288.665 72.5431 285.341 86.5314 303.456C90.6422 314.278 95.7534 324.879 99.134 331.211Z" fill="url(#paint6_linear_24_9468)"/>
<path d="M94.0149 477.793C93.384 474.692 92.6071 471.159 91.6553 467.156C87.1349 448.144 79.5786 439.07 76.3656 436.909C75.5346 444.222 75.4017 460.741 81.5176 468.32C87.6335 475.898 92.3974 477.793 94.0149 477.793ZM-74.3831 526.929C-77.5392 526.269 -83.351 525.053 -82.0162 518.676C-81.5252 516.33 -81.0521 514.593 -80.6616 513.159C-79.8625 510.226 -79.4092 508.561 -79.8557 505.547C-80.5205 501.06 -81.3515 491.421 -78.1938 488.762C-76.2235 487.102 -76.712 483.761 -77.3581 479.342C-77.7473 476.68 -78.1938 473.626 -78.1938 470.314C-78.1938 464.713 -77.253 462.539 -76.4824 460.759C-76.0412 459.739 -75.6558 458.849 -75.5347 457.517C-75.3172 455.125 -78.3729 448.748 -80.8839 443.507C-82.2104 440.739 -83.3848 438.288 -83.8444 436.909C-85.1739 432.921 -76.0333 405.997 -71.3799 400.181C-68.8464 397.014 -62.569 392.369 -57.3753 388.526C-53.0295 385.311 -51.1926 383.815 -46.7834 381.567C-41.626 378.937 -38.1292 378.896 -32.8231 376.581C-20.3676 371.147 -16.2039 365.779 -3.5732 357.731C6.53133 351.293 33.2108 347.34 45.2875 346.168C46.6171 340.462 50.1403 326.856 53.5972 318.081C57.054 309.306 56.367 284.621 55.5915 273.375C55.7023 274.927 57.0872 279.093 61.7406 283.347C67.5574 288.665 72.5431 285.341 86.5314 303.456C90.6422 314.278 95.7534 324.879 99.134 331.211C108.552 331.875 125.06 336.13 115.753 347.83C107.052 358.768 108.392 360.782 110.732 364.3C111.521 365.486 112.424 366.843 113.094 368.77C113.588 370.19 114.151 371.668 114.725 373.175C117.241 379.781 119.975 386.957 118.08 392.37C117.015 395.413 118.318 399.466 119.726 403.844C121.393 409.029 123.206 414.669 121.404 419.625C119.586 424.624 120.751 428.48 121.636 431.41C122.369 433.837 122.91 435.629 121.404 436.909C120.36 437.796 119.497 437.913 118.85 438.001C117.436 438.193 117.054 438.245 118.08 445.884C119.576 457.019 123.897 492.085 123.897 496.406C123.897 498.366 124.546 498.001 125.442 497.498C126.522 496.891 127.959 496.084 129.049 498.899C129.679 500.529 130.476 501.792 131.182 502.911C132.707 505.33 133.806 507.071 131.874 510.367C131.041 511.787 130.223 513.627 129.419 515.434C127.495 519.757 125.655 523.895 123.897 521.668C121.902 519.142 116.972 515.186 114.756 513.524C110.823 514.411 102.258 515.02 99.4664 510.367C96.6744 505.713 96.3087 499.121 96.4749 496.406C96.6704 495.116 96.4409 490.546 94.699 481.283C94.4928 480.186 94.2653 479.023 94.0149 477.793M-74.3831 526.929C-74.3821 526.93 -74.381 526.93 -74.3799 526.93C-74.0006 527.009 -73.6596 527.081 -73.3742 527.152C-71.5546 527.607 -69.8907 523.859 -68.4889 520.702C-67.8421 519.246 -67.2512 517.915 -66.7265 517.18C-65.0646 514.854 -53.5973 512.029 -49.4424 513.192C-46.6506 513.974 -47.0854 518.207 -47.4191 521.455C-47.582 523.041 -47.7207 524.392 -47.4481 524.992C-46.6172 526.82 -42.2961 528.315 -36.8118 524.992C-34.8305 523.791 -32.8276 523.393 -30.9988 523.029C-27.7654 522.386 -25.0765 521.851 -24.0149 517.18C-23.3723 514.353 -23.3012 511.923 -23.2347 509.65C-23.1293 506.045 -23.0354 502.837 -20.6911 499.065C-19.016 496.371 -16.2237 493.389 -13.2935 490.259C-9.53733 486.248 -5.55433 481.994 -3.40701 477.793C-0.816733 472.725 3.29989 469.641 7.59823 466.421C9.6429 464.89 11.7287 463.327 13.7109 461.506C16.2185 459.202 17.4824 457.008 18.7086 454.879C20.4892 451.789 22.1903 448.836 27.5049 445.884C34.6844 441.895 47.5588 431.924 53.0986 427.436C58.7491 439.568 71.7454 465.528 78.5261 472.308C85.3068 479.089 92.1333 481.117 94.699 481.283M-74.3831 526.929L-74.3799 526.93" stroke="#F2C78B" stroke-width="0.893363"/>
<path d="M81.849 172.828C80.2979 173.936 76.7967 176.551 75.2013 178.146C74.6408 178.707 73.9358 180.016 73.0126 181.73C70.6513 186.114 66.8621 193.149 60.4101 197.092C59.69 196.095 57.2192 193.17 53.0977 189.447C48.9761 185.725 45.3974 176.817 44.1232 172.828C23.5707 171.776 -24.7803 169.272 -53.7644 167.676C-89.9944 165.682 -84.0115 178.146 -76.8652 182.8C-73.4307 185.036 -64.7758 186.39 -53.391 188.17L-53.3908 188.17C-41.0865 190.094 -25.5935 192.517 -10.0556 197.092C19.8591 205.901 31.9912 229.001 35.8136 248.944C39.636 268.888 27.5039 297.473 3.73836 308.94C-11.0569 316.079 -26.2387 333.395 -37.7569 346.533L-37.7571 346.533C-44.7404 354.498 -50.377 360.927 -53.7644 362.62C-59.4398 365.458 -61.2602 361.516 -63.0086 357.73C-64.0249 355.53 -65.0168 353.382 -66.7274 352.649C-71.3808 350.655 -71.3808 359.795 -66.7274 368.77C-63.6123 374.777 -60.4043 379.714 -53.7644 381.662C-46.1692 383.891 -37.9084 385.802 -31.1621 381.662C-28.7257 380.167 -30.032 378.737 -25.5116 377.009C-19.861 374.848 -18.3653 377.84 -14.2105 376.012C-10.0556 374.184 -9.39087 370.693 -6.06702 367.702C-2.74315 364.711 5.4003 367.702 11.0509 365.708C16.7014 363.713 21.1886 357.73 26.1744 356.401C31.1602 355.071 34.6502 357.73 40.1346 357.73C44.5221 357.73 46.5053 353.409 46.9485 351.249C48.2781 345.543 50.1394 326.856 53.5962 318.081C57.053 309.306 56.3661 284.621 55.5905 273.375C55.7013 274.926 57.0863 279.092 61.7397 283.346C67.5564 288.665 72.5422 285.341 86.5305 303.456C82.6924 293.352 79.7263 283.058 79.8547 275.868C80.1562 258.985 85.9264 247.298 91.2132 236.59C91.7553 235.492 92.2923 234.404 92.8178 233.322C95.5601 227.676 96.3452 220.073 97.0539 213.21V213.21C97.8054 205.933 98.4709 199.487 101.294 197.092C104.92 194.015 107.239 194.063 111.95 194.16C114.363 194.21 117.403 194.272 121.569 193.935C133.867 192.937 139.518 190.611 140.349 182.8C141.082 175.908 133.924 175.614 123.439 175.184C122.041 175.127 120.583 175.067 119.076 174.989C108.839 174.457 89.9925 173.327 81.849 172.828Z" fill="url(#paint7_linear_24_9468)" stroke="#F2C78B" stroke-width="0.893363"/>
<path d="M77.1974 175.395L80.2949 172.861C80.6703 173.705 81.562 175.902 82.1252 177.929C82.8292 180.464 85.4685 187.682 82.1251 193.115C78.746 198.606 61.1085 204.66 60.123 207.476C59.3345 209.729 60.4515 214.328 61.1085 216.346C60.4515 216.581 58.2082 216.403 54.4912 213.812C50.7742 211.221 51.7753 207.875 51.5875 205.622C49.6164 204.449 42.7208 199.254 40.1302 195.086C36.8919 189.877 36.892 179.9 38.1592 175.395C39.1729 171.791 42.5238 170.42 44.0725 170.186C43.087 172.251 39.3364 178.197 40.9751 184.406C45.6318 202.049 58.8266 202.306 73.1142 193.819C82.7054 188.122 79.6378 179.478 77.1974 175.395Z" fill="url(#paint8_linear_24_9468)" stroke="#F2C78B" stroke-width="0.91191"/>
<path d="M139.494 226.272C140.034 211.771 140.564 190.973 140.022 181.071C139.752 176.132 131.605 175.928 127.502 178.544C122.565 181.692 124.301 186.098 124.663 193.496C126.755 236.186 127.182 299.98 127.103 302.912C127.072 304.074 126.506 311.364 126.137 333.308C126.741 339.128 129.461 341.233 133.534 341.358C137.607 341.483 141.351 337.729 141.351 337.729C141.351 337.729 140.229 265.645 139.494 226.272Z" fill="url(#paint9_linear_24_9468)" stroke="#F2C78B" stroke-width="0.893363"/>
<path d="M150.251 233.805C150.47 232.604 150.474 229.694 148.737 227.658C146.565 225.113 145.139 222.591 146.325 220.149C147.511 217.707 146.469 214.815 144.345 217.419C142.221 220.023 138.725 225.063 138.799 229.259C138.858 232.616 139.436 235.633 139.718 236.722C138.588 237.069 136.318 238.181 136.273 239.857C136.228 241.534 137.184 242.999 137.668 243.522C137.421 243.451 136.623 243.49 135.409 244.216C134.195 244.941 131.763 245.565 130.699 245.787C131.677 246.452 133.971 247.679 135.327 247.263C136.682 246.847 138.9 246.293 139.84 246.067L140.218 266.668C141.648 266.712 144.971 266.242 146.824 264.011C148.13 262.438 148.879 261.322 149.255 260.668C148.148 262.921 146.371 266.949 146.322 268.762C146.256 271.238 145.77 275.417 146.459 277.535C147.149 279.654 150.933 284.726 150.841 288.155C150.748 291.584 149.713 295.365 147.62 296.826C145.527 298.287 139.719 299.062 143.631 299.372C147.543 299.683 152.958 299.658 155.836 289.833C158.139 281.973 157.77 273.498 157.297 270.242C157.924 270.071 159.191 269.233 159.245 267.252C159.298 265.271 158.707 264.122 158.404 263.794C159.392 261.791 161.21 256.674 160.583 252.232C159.956 247.79 157.183 242.151 155.875 239.887C157.255 239.484 160.027 238.222 160.076 236.394C160.138 234.108 159.598 233.329 158.303 232.908C157.267 232.571 154.6 234.065 153.397 234.854C153.212 234.785 152.892 234.191 152.303 233.867C151.383 233.363 150.624 233.816 150.251 233.805Z" fill="url(#paint10_linear_24_9468)"/>
<path d="M125.178 251.701C122.887 251.442 122.656 253.835 123.159 257.359C123.787 261.763 126.03 261.641 127.198 266.824C128.365 272.007 129.029 275.078 128.548 279.066C128.163 282.257 131.719 286.09 133.545 287.608C132.612 285.291 131.06 280.058 132.32 277.657C133.894 274.655 133.55 266.637 131.933 264.3C130.316 261.963 126.864 258.425 127.48 256.347C127.973 254.685 127.156 251.925 125.178 251.701Z" fill="url(#paint11_linear_24_9468)"/>
<path d="M149.255 260.668C148.879 261.322 148.13 262.438 146.824 264.011C144.971 266.242 141.648 266.712 140.218 266.668L139.84 246.067C138.9 246.293 136.682 246.847 135.327 247.263C133.971 247.679 131.677 246.452 130.699 245.787C131.763 245.565 134.195 244.941 135.409 244.216C136.623 243.49 137.421 243.451 137.668 243.522C137.184 242.999 136.228 241.534 136.273 239.857C136.318 238.181 138.588 237.069 139.718 236.722C139.436 235.633 138.858 232.616 138.799 229.259C138.725 225.063 142.221 220.023 144.345 217.419C146.469 214.815 147.511 217.707 146.325 220.149C145.139 222.591 146.565 225.113 148.737 227.658C150.474 229.694 150.47 232.604 150.251 233.805C150.624 233.816 151.383 233.363 152.303 233.867C152.892 234.191 153.212 234.785 153.397 234.854C154.6 234.065 157.267 232.571 158.303 232.908C159.598 233.329 160.138 234.108 160.076 236.394C160.027 238.222 157.255 239.484 155.875 239.887C157.183 242.151 159.956 247.79 160.583 252.232C161.21 256.674 159.392 261.791 158.404 263.794C158.707 264.122 159.298 265.271 159.245 267.252C159.191 269.233 157.924 270.071 157.297 270.242C157.77 273.498 158.139 281.973 155.836 289.833C152.958 299.658 147.543 299.683 143.631 299.372C139.719 299.062 145.527 298.287 147.62 296.826C149.713 295.365 150.748 291.584 150.841 288.155C150.933 284.726 147.149 279.654 146.459 277.535C145.77 275.417 146.256 271.238 146.322 268.762C146.371 266.949 148.148 262.921 149.255 260.668ZM149.255 260.668C149.357 260.46 149.454 260.266 149.543 260.091C149.503 260.202 149.412 260.395 149.255 260.668ZM125.178 251.701C122.887 251.442 122.656 253.835 123.159 257.359C123.787 261.763 126.03 261.641 127.198 266.824C128.365 272.007 129.029 275.078 128.548 279.066C128.163 282.257 131.719 286.09 133.545 287.608C132.612 285.291 131.06 280.058 132.32 277.657C133.894 274.655 133.55 266.637 131.933 264.3C130.316 261.963 126.864 258.425 127.48 256.347C127.973 254.685 127.156 251.925 125.178 251.701Z" stroke="#F2C78B" stroke-width="0.893363"/>
<path d="M133.248 321.619C137.322 321.547 140.225 326.698 141.37 335.834C142.11 379.721 139.855 420.128 138.866 440.066C133.936 440.066 130.037 440.62 128.704 440.897C128.564 431.993 128.655 422.603 128.454 417.585C128.19 411.017 127.258 379.375 125.982 332.151C125.915 328.174 129.175 321.69 133.248 321.619Z" fill="url(#paint12_linear_24_9468)" stroke="#F2C78B" stroke-width="0.893363"/>
<path d="M145.462 468.167C140.477 465.275 139.003 457.738 138.47 452.705C138.333 451.411 138.523 446.964 138.866 440.066C133.936 440.066 130.037 440.62 128.703 440.897C128.832 449.06 129.153 456.814 130.073 460.416C131.995 467.945 137.943 474.717 145.686 481.456C153.429 488.196 169.882 492.49 174.566 490.803C178.313 489.454 178.866 484.081 178.674 481.564C180.769 481.603 186.592 482.708 193.123 486.81C199.655 490.912 200.728 503.102 200.448 508.684C201.492 508.512 203.667 507.939 204.01 507.017C204.44 505.863 206.76 497.113 203.218 486.633C199.675 476.152 189.917 469.677 184.085 469.78C178.252 469.882 150.448 471.059 145.462 468.167Z" fill="url(#paint13_linear_24_9468)" stroke="#F2C78B" stroke-width="0.893363"/>
<path fill-rule="evenodd" clip-rule="evenodd" d="M149.019 419.371C147.499 419.184 143.477 420.077 140.801 425.123C138.125 430.169 135.439 435.846 134.431 438.053C131.032 438.059 125.24 439.528 124.462 443.027C123.637 446.734 125.156 448.336 126.902 449.587C126.029 450.511 125.246 451.545 125.281 453.596C125.337 456.959 125.127 459.143 129.831 459.06C129.831 459.06 129.548 457.924 129.506 457.232C129.464 456.541 129.343 455.238 129.343 455.238C128.348 455.149 128.596 454.851 128.577 453.698C128.552 452.256 129.788 451.113 133.081 451.055C136.375 450.997 139.267 451.647 139.447 453.077C139.594 454.241 139.334 454.75 138.763 455.027C138.763 455.027 138.97 456.068 139.106 456.734C139.237 457.377 139.447 458.38 139.447 458.38C140.127 458.368 140.688 457.913 141.221 457.399C142.082 456.568 142.197 455.167 142.082 454.582C142.656 454.518 143.926 454.165 144.413 453.259C145.021 452.127 144.508 449.572 143.862 448.462C143.215 447.352 142.856 444.634 143.142 443.027C143.372 441.741 143.945 440.983 144.202 440.765C143.939 440.663 143.289 440.525 142.791 440.79C142.294 441.055 141.764 441.876 141.561 442.254C141.444 438.41 141.666 429.915 143.494 426.678C145.322 423.441 147.939 420.458 149.019 419.371ZM127.553 443.027C126.902 444.523 126.902 446.43 128.855 448.177L132.719 448.177C132.613 448.072 132.501 446.419 132.981 445.128C133.462 443.838 134.081 442.118 134.331 441.42C132.498 441.292 128.224 441.487 127.553 443.027Z" fill="url(#paint14_linear_24_9468)" stroke="#F2C78B" stroke-width="0.893363"/>
<defs>
<linearGradient id="paint0_linear_24_9468" x1="150.861" y1="453.714" x2="-135.282" y2="453.714" gradientUnits="userSpaceOnUse">
<stop stop-color="#3C3024"/>
<stop offset="1" stop-color="#BD7B49"/>
</linearGradient>
<linearGradient id="paint1_linear_24_9468" x1="150.861" y1="453.714" x2="-135.282" y2="453.714" gradientUnits="userSpaceOnUse">
<stop stop-color="#3C3024"/>
<stop offset="1" stop-color="#BD7B49"/>
</linearGradient>
<linearGradient id="paint2_linear_24_9468" x1="213.743" y1="170.226" x2="-54.4894" y2="170.226" gradientUnits="userSpaceOnUse">
<stop stop-color="#3C3024"/>
<stop offset="1" stop-color="#BD7B49"/>
</linearGradient>
<linearGradient id="paint3_linear_24_9468" x1="230.26" y1="334.009" x2="-80.5207" y2="334.009" gradientUnits="userSpaceOnUse">
<stop stop-color="#FCF0D6"/>
<stop offset="1" stop-color="#FFC446"/>
</linearGradient>
<linearGradient id="paint4_linear_24_9468" x1="230.26" y1="334.009" x2="-80.5207" y2="334.009" gradientUnits="userSpaceOnUse">
<stop stop-color="#FCF0D6"/>
<stop offset="1" stop-color="#FFC446"/>
</linearGradient>
<linearGradient id="paint5_linear_24_9468" x1="230.26" y1="334.009" x2="-80.5207" y2="334.009" gradientUnits="userSpaceOnUse">
<stop stop-color="#FCF0D6"/>
<stop offset="1" stop-color="#FFC446"/>
</linearGradient>
<linearGradient id="paint6_linear_24_9468" x1="132.906" y1="400.283" x2="-83.9751" y2="400.283" gradientUnits="userSpaceOnUse">
<stop stop-color="#3C3024"/>
<stop offset="1" stop-color="#BD7B49"/>
</linearGradient>
<linearGradient id="paint7_linear_24_9468" x1="140.4" y1="275.782" x2="-82.2605" y2="275.782" gradientUnits="userSpaceOnUse">
<stop stop-color="#FCF0D6"/>
<stop offset="1" stop-color="#FFC446"/>
</linearGradient>
<linearGradient id="paint8_linear_24_9468" x1="83.7803" y1="193.304" x2="37.3716" y2="193.304" gradientUnits="userSpaceOnUse">
<stop stop-color="#3C3024"/>
<stop offset="1" stop-color="#BD7B49"/>
</linearGradient>
<linearGradient id="paint9_linear_24_9468" x1="143.46" y1="259.418" x2="122.084" y2="258.842" gradientUnits="userSpaceOnUse">
<stop stop-color="#FCF0D6"/>
<stop offset="1" stop-color="#FFC446"/>
</linearGradient>
<linearGradient id="paint10_linear_24_9468" x1="160.603" y1="258.388" x2="122.864" y2="257.371" gradientUnits="userSpaceOnUse">
<stop stop-color="#3C3024"/>
<stop offset="1" stop-color="#BD7B49"/>
</linearGradient>
<linearGradient id="paint11_linear_24_9468" x1="160.603" y1="258.388" x2="122.864" y2="257.371" gradientUnits="userSpaceOnUse">
<stop stop-color="#3C3024"/>
<stop offset="1" stop-color="#BD7B49"/>
</linearGradient>
<linearGradient id="paint12_linear_24_9468" x1="142.133" y1="381.061" x2="126.811" y2="381.32" gradientUnits="userSpaceOnUse">
<stop stop-color="#FCF0D6"/>
<stop offset="1" stop-color="#FFC446"/>
</linearGradient>
<linearGradient id="paint13_linear_24_9468" x1="204.743" y1="473.753" x2="129.278" y2="475.025" gradientUnits="userSpaceOnUse">
<stop stop-color="#FCF0D6"/>
<stop offset="1" stop-color="#FFC446"/>
</linearGradient>
<linearGradient id="paint14_linear_24_9468" x1="149.35" y1="439.026" x2="124.137" y2="439.451" gradientUnits="userSpaceOnUse">
<stop stop-color="#3C3024"/>
<stop offset="1" stop-color="#BD7B49"/>
</linearGradient>
</defs>
</svg>
