<svg xmlns="http://www.w3.org/2000/svg" width="231" height="518" fill="none" xmlns:v="https://vecta.io/nano"><style><![CDATA[.B{stroke-width:.893}.C{stroke:#f2c78b}]]></style><use href="#L" fill="url(#A)"/><use href="#M" fill="url(#A)"/><g class="B C"><use href="#L"/><use href="#M"/><path d="M138.522 141.086c-1.662 8.808-4.654 8.808-11.634 15.289s-12.298 10.47 1.994 15.124 25.76 7.645 28.752 7.645 18.447-2.161 21.439-3.49 7.811-5.485 8.642-11.301 23.101-38.225 25.593-47.199-6.481-42.546-7.977-55.509c-1.196-10.37-.498-14.847 0-15.788-1.496.831-5.119 3.257-7.645 6.315s-5.041 7.589-5.983 9.473c-3.268-2.992-11.201-8.808-16.785-8.144-6.98.831-24.763-7.645-29.416-7.645s-2.659 2.16-12.797-12.963c-8.11-12.099-18.558-20.331-22.769-22.935-.609-2.991-4.121-9.074-13.295-9.473-11.33-.493-14.548 3.719-16.707 6.545l-.078.102c-2.161 2.825-15.124 6.315-17.118 10.304-1.595 3.191-6.98 5.651-9.473 6.482-2.936-2.936-11.168-9.839-20.608-13.96-11.8-5.152-23.932.499-21.605 3.989s5.484-.997 7.645 3.49 5.651 21.605.665 26.757-9.972 6.98-10.969 12.631 1.828 10.969 0 12.797-4.487 2.991-3.656 6.315c.665 2.659 4.487 4.986 6.315 5.817v9.972c0 2.825-6.482 5.817-8.808 12.631s-.665 10.802-5.983 12.464-3.324-2.825-1.662-4.154-.166-4.321-2.825-1.662-4.82 7.977-.997 12.132c2.825 3.07 4.638 3.541 5.335 3.376-3.932 1.415-11.833 6.8-13.146 17.564-1.33 10.902 7.202 22.381 11.633 26.757-4.709 5.318-14.06 18.248-13.794 27.422s2.216 11.467 3.158 11.467c-2.714 1.053-8.376 5.185-9.307 13.296l-1.994 17.782c-.997 7.811-8.974 14.625-7.811 22.27s-10.304 15.622-10.138 19.943-4.986 8.642-8.143 13.628.665 8.974 12.631 4.487 11.467-16.785 15.456-19.943 9.307-8.31 9.307-12.132c0-3.058 3.435-9.362 5.152-12.132-2.216 5.097-6.349 17.085-5.152 24.264 1.496 8.975-5.983 19.611-5.817 23.267s-2.825 8.808-5.484 13.129-8.974 14.293-13.462 19.113 11.8 3.988 16.952 0 7.645-7.812 10.304-10.803 6.482-18.115 7.811-21.439 11.467-14.791 11.8-21.439 2.327-13.628 4.321-17.949 3.324-22.436 3.823-27.255-3.656-12.465-1.828-20.276 22.27-40.717 45.869-52.517c18.879-9.439 66.034-38.833 87.252-52.35l-6.98 28.419z" fill="url(#B)"/></g><use href="#N" fill="url(#C)"/><use href="#O" fill="url(#C)"/><use href="#P" fill="url(#C)"/><g class="B C"><use href="#N"/><use href="#O"/><use href="#P"/></g><path d="M99.134 331.211c9.418.664 25.926 4.919 16.619 16.619-8.701 10.938-7.361 12.952-5.021 16.47.789 1.186 1.692 2.543 2.362 4.47.494 1.42 1.057 2.898 1.631 4.405 2.516 6.606 5.25 13.782 3.355 19.195-1.065 3.043.238 7.096 1.646 11.474 1.667 5.185 3.48 10.825 1.678 15.781-1.818 4.999-.653 8.855.232 11.785.733 2.427 1.274 4.219-.232 5.499-1.044.887-1.907 1.004-2.554 1.092-1.414.192-1.796.244-.77 7.883 1.496 11.135 5.817 46.201 5.817 50.522 0 1.96.649 1.595 1.545 1.092 1.08-.607 2.517-1.414 3.607 1.401.63 1.63 1.427 2.893 2.133 4.012 1.525 2.419 2.624 4.16.692 7.456-.833 1.42-1.651 3.26-2.455 5.067-1.924 4.323-3.764 8.461-5.522 6.234-1.995-2.526-6.925-6.482-9.141-8.144-3.933.887-12.498 1.496-15.29-3.157s-3.158-11.246-2.991-13.961c.195-1.29-.034-5.86-1.776-15.123l-.684-3.49c-.631-3.101-1.408-6.634-2.36-10.637-4.52-19.012-12.077-28.086-15.29-30.247-.831 7.313-.964 23.832 5.152 31.411s10.88 9.473 12.497 9.473l.684 3.49c-2.566-.166-9.392-2.194-16.173-8.975s-19.777-32.74-25.428-44.872c-5.54 4.488-18.414 14.459-25.594 18.448-5.315 2.952-7.016 5.905-8.796 8.995-1.226 2.129-2.49 4.323-4.998 6.627-1.982 1.821-4.068 3.384-6.113 4.915-4.298 3.22-8.415 6.304-11.005 11.372-2.147 4.201-6.13 8.455-9.886 12.466-2.93 3.13-5.722 6.112-7.398 8.806-2.344 3.772-2.438 6.98-2.544 10.585-.067 2.273-.138 4.703-.78 7.53-1.062 4.671-3.75 5.206-6.984 5.849-1.829.364-3.832.762-5.813 1.963-5.484 3.323-9.805 1.828-10.636 0-.273-.6-.134-1.951.029-3.537.334-3.248.769-7.481-2.023-8.263-4.155-1.163-15.622 1.662-17.284 3.988-.525.735-1.116 2.066-1.762 3.522-1.402 3.157-3.066 6.905-4.885 6.45a28.32 28.32 0 0 0-1.006-.222l-.003-.001c-3.156-.66-8.968-1.876-7.633-8.253.491-2.346.964-4.083 1.355-5.517.799-2.933 1.252-4.598.806-7.612-.665-4.487-1.496-14.126 1.662-16.785 1.97-1.66 1.482-5.001.836-9.42-.389-2.662-.836-5.716-.836-9.028 0-5.601.941-7.775 1.711-9.555.441-1.02.827-1.91.948-3.242.218-2.392-2.838-8.769-5.349-14.01-1.327-2.768-2.501-5.219-2.96-6.598-1.33-3.988 7.811-30.912 12.464-36.728 2.534-3.167 8.811-7.812 14.005-11.655 4.346-3.215 6.183-4.711 10.592-6.959 5.157-2.63 8.654-2.671 13.96-4.986 12.456-5.434 16.619-10.802 29.25-18.85 10.105-6.438 36.784-10.391 48.861-11.563 1.33-5.706 4.853-19.312 8.31-28.087s2.77-33.46 1.994-44.706c.111 1.552 1.496 5.718 6.149 9.972 5.817 5.318 10.802 1.994 24.791 20.109 4.111 10.822 9.222 21.423 12.603 27.755z" fill="url(#D)"/><g class="C"><g class="B"><path d="M94.015 477.793c-.631-3.101-1.408-6.634-2.36-10.637-4.52-19.012-12.077-28.086-15.29-30.247-.831 7.313-.964 23.832 5.152 31.411s10.88 9.473 12.497 9.473zm-168.398 49.136c-3.156-.66-8.968-1.876-7.633-8.253.491-2.346.964-4.083 1.355-5.517.799-2.933 1.252-4.598.806-7.612-.665-4.487-1.496-14.126 1.662-16.785 1.97-1.66 1.482-5.001.836-9.42-.389-2.662-.836-5.716-.836-9.028 0-5.601.941-7.775 1.711-9.555.441-1.02.827-1.91.948-3.242.218-2.392-2.838-8.769-5.349-14.01-1.327-2.768-2.501-5.219-2.96-6.598-1.33-3.988 7.811-30.912 12.464-36.728 2.534-3.167 8.811-7.812 14.005-11.655 4.346-3.215 6.183-4.711 10.592-6.959 5.157-2.63 8.654-2.671 13.96-4.986 12.455-5.434 16.619-10.802 29.25-18.85 10.105-6.438 36.784-10.391 48.861-11.563 1.33-5.706 4.853-19.312 8.31-28.087s2.77-33.46 1.994-44.706c.111 1.552 1.496 5.718 6.149 9.972 5.817 5.318 10.802 1.994 24.791 20.109 4.111 10.822 9.222 21.423 12.603 27.755 9.418.664 25.926 4.919 16.619 16.619-8.701 10.938-7.361 12.952-5.021 16.47.789 1.186 1.692 2.543 2.362 4.47.494 1.42 1.057 2.898 1.631 4.405 2.516 6.606 5.25 13.782 3.355 19.195-1.065 3.043.238 7.096 1.646 11.474 1.667 5.185 3.48 10.825 1.678 15.781-1.818 4.999-.653 8.855.232 11.785.733 2.427 1.274 4.219-.232 5.499-1.044.887-1.907 1.004-2.554 1.092-1.414.192-1.796.244-.77 7.883 1.496 11.135 5.817 46.201 5.817 50.522 0 1.96.649 1.595 1.545 1.092 1.08-.607 2.517-1.414 3.607 1.401.63 1.63 1.427 2.893 2.133 4.012 1.525 2.419 2.624 4.16.692 7.456-.833 1.42-1.651 3.26-2.455 5.067-1.924 4.323-3.764 8.461-5.522 6.234-1.995-2.526-6.925-6.482-9.141-8.144-3.933.887-12.498 1.496-15.29-3.157s-3.158-11.246-2.991-13.961c.195-1.29-.034-5.86-1.776-15.123l-.684-3.49m-168.398 49.136l1.009.223c1.82.455 3.484-3.293 4.885-6.45.647-1.456 1.238-2.787 1.762-3.522 1.662-2.326 13.129-5.151 17.284-3.988 2.792.782 2.357 5.015 2.023 8.263-.163 1.586-.302 2.937-.029 3.537.831 1.828 5.152 3.323 10.636 0 1.981-1.201 3.984-1.599 5.813-1.963 3.233-.643 5.922-1.178 6.984-5.849.643-2.827.714-5.257.78-7.53.105-3.605.199-6.813 2.544-10.585 1.675-2.694 4.467-5.676 7.398-8.806 3.756-4.011 7.739-8.265 9.886-12.466 2.59-5.068 6.707-8.152 11.005-11.372 2.045-1.531 4.13-3.094 6.113-4.915 2.508-2.304 3.771-4.498 4.998-6.627 1.781-3.09 3.482-6.043 8.796-8.995 7.179-3.989 20.054-13.96 25.594-18.448 5.651 12.132 18.647 38.092 25.428 44.872s13.607 8.809 16.173 8.975m-169.082 45.646l.003.001"/><path d="M81.849 172.828c-1.551 1.108-5.052 3.723-6.648 5.318-.561.561-1.266 1.87-2.189 3.584-2.361 4.384-6.151 11.419-12.603 15.362-.72-.997-3.191-3.922-7.312-7.645s-7.7-12.63-8.975-16.619l-97.888-5.152c-36.23-1.994-30.247 10.47-23.101 15.124 3.435 2.236 12.089 3.59 23.474 5.37h0c12.304 1.924 27.797 4.347 43.335 8.922 29.915 8.809 42.047 31.909 45.869 51.852s-8.31 48.529-32.075 59.996c-14.795 7.139-29.977 24.455-41.495 37.593h0c-6.983 7.965-12.62 14.394-16.007 16.087-5.675 2.838-7.496-1.104-9.244-4.89-1.016-2.2-2.008-4.348-3.719-5.081-4.653-1.994-4.653 7.146 0 16.121 3.115 6.007 6.323 10.944 12.963 12.892 7.595 2.229 15.856 4.14 22.602 0 2.436-1.495 1.13-2.925 5.65-4.653 5.651-2.161 7.146.831 11.301-.997s4.82-5.319 8.143-8.31 11.467 0 17.118-1.994 10.138-7.978 15.123-9.307 8.476 1.329 13.96 1.329c4.388 0 6.371-4.321 6.814-6.481 1.33-5.706 3.191-24.393 6.648-33.168s2.77-33.46 1.994-44.706c.111 1.551 1.496 5.717 6.149 9.971 5.817 5.319 10.802 1.995 24.791 20.11-3.838-10.104-6.804-20.398-6.676-27.588.302-16.883 6.072-28.57 11.359-39.278l1.605-3.268c2.742-5.646 3.527-13.249 4.236-20.112h0c.752-7.277 1.417-13.723 4.24-16.118 3.626-3.077 5.945-3.029 10.656-2.932 2.413.05 5.453.112 9.619-.225 12.298-.998 17.949-3.324 18.78-11.135.733-6.892-6.425-7.186-16.91-7.616l-4.363-.195-37.227-2.161z" fill="url(#E)"/></g><path d="M77.197 175.395l3.097-2.534a41.87 41.87 0 0 1 1.83 5.068c.704 2.535 3.343 9.753 0 15.186-3.379 5.491-21.017 11.545-22.002 14.361-.788 2.253.329 6.852.986 8.87-.657.235-2.9.057-6.617-2.534s-2.716-5.937-2.904-8.19c-1.971-1.173-8.867-6.368-11.457-10.536-3.238-5.209-3.238-15.186-1.971-19.691 1.014-3.604 4.365-4.975 5.913-5.209-.985 2.065-4.736 8.011-3.097 14.22 4.657 17.643 17.852 17.9 32.139 9.413 9.591-5.697 6.524-14.341 4.083-18.424z" fill="url(#F)" stroke-width=".912"/><path d="M139.494 226.272c.54-14.501 1.07-35.299.528-45.201-.27-4.939-8.417-5.143-12.52-2.527-4.937 3.148-3.201 7.554-2.839 14.952 2.092 42.69 2.519 106.484 2.44 109.416-.031 1.162-.597 8.452-.966 30.396.604 5.82 3.324 7.925 7.397 8.05s7.817-3.629 7.817-3.629l-1.857-111.457z" fill="url(#G)" class="B"/></g><path d="M150.251 233.805c.219-1.201.223-4.111-1.514-6.147-2.172-2.545-3.598-5.067-2.412-7.509s.144-5.334-1.98-2.73-5.62 7.644-5.546 11.84c.059 3.357.637 6.374.919 7.463-1.13.347-3.4 1.459-3.445 3.135s.911 3.142 1.395 3.665c-.247-.071-1.045-.032-2.259.694s-3.646 1.349-4.71 1.571c.978.665 3.272 1.892 4.628 1.476s3.573-.97 4.513-1.196l.378 20.601c1.43.044 4.753-.426 6.606-2.657 1.306-1.573 2.055-2.689 2.431-3.343-1.107 2.253-2.884 6.281-2.933 8.094-.066 2.476-.552 6.655.137 8.773s4.474 7.191 4.382 10.62-1.128 7.21-3.221 8.671-7.901 2.236-3.989 2.546 9.327.286 12.205-9.539c2.303-7.86 1.934-16.335 1.461-19.591.627-.171 1.894-1.009 1.948-2.99s-.538-3.13-.841-3.458c.988-2.003 2.806-7.12 2.179-11.562s-3.4-10.081-4.708-12.345c1.38-.403 4.152-1.665 4.201-3.493.062-2.286-.478-3.065-1.773-3.486-1.036-.337-3.703 1.157-4.906 1.946-.185-.069-.505-.663-1.094-.987-.92-.504-1.679-.051-2.052-.062z" fill="url(#H)"/><path d="M125.178 251.701c-2.291-.259-2.522 2.134-2.019 5.658.628 4.404 2.871 4.282 4.039 9.465s1.831 8.254 1.35 12.242c-.385 3.191 3.171 7.024 4.997 8.542-.933-2.317-2.485-7.55-1.225-9.951 1.574-3.002 1.23-11.02-.387-13.357s-5.069-5.875-4.453-7.953c.493-1.662-.324-4.422-2.302-4.646z" fill="url(#H)"/><g class="B C"><path d="M149.255 260.668c-.376.654-1.125 1.77-2.431 3.343-1.853 2.231-5.176 2.701-6.606 2.657l-.378-20.601-4.513 1.196c-1.356.416-3.65-.811-4.628-1.476 1.064-.222 3.496-.846 4.71-1.571s2.012-.765 2.259-.694c-.484-.523-1.44-1.988-1.395-3.665s2.315-2.788 3.445-3.135c-.282-1.089-.86-4.106-.919-7.463-.074-4.196 3.422-9.236 5.546-11.84s3.166.288 1.98 2.73.24 4.964 2.412 7.509c1.737 2.036 1.733 4.946 1.514 6.147.373.011 1.132-.442 2.052.062.589.324.909.918 1.094.987 1.203-.789 3.87-2.283 4.906-1.946 1.295.421 1.835 1.2 1.773 3.486-.049 1.828-2.821 3.09-4.201 3.493 1.308 2.264 4.081 7.903 4.708 12.345s-1.191 9.559-2.179 11.562c.303.328.894 1.477.841 3.458s-1.321 2.819-1.948 2.99c.473 3.256.842 11.731-1.461 19.591-2.878 9.825-8.293 9.85-12.205 9.539s1.896-1.085 3.989-2.546 3.128-5.242 3.221-8.671-3.692-8.501-4.382-10.62-.203-6.297-.137-8.773c.049-1.813 1.826-5.841 2.933-8.094zm0 0l.288-.577c-.04.111-.131.304-.288.577zm-24.077-8.967c-2.291-.259-2.522 2.134-2.019 5.658.628 4.404 2.871 4.282 4.039 9.465s1.831 8.254 1.35 12.242c-.385 3.191 3.171 7.024 4.997 8.542-.933-2.317-2.485-7.55-1.225-9.951 1.574-3.002 1.23-11.02-.387-13.357s-5.069-5.875-4.453-7.953c.493-1.662-.324-4.422-2.302-4.646z"/><path d="M133.248 321.619c4.074-.072 6.977 5.079 8.122 14.215.74 43.887-1.515 84.294-2.504 104.232-4.93 0-8.829.554-10.162.831l-.25-23.312-2.472-85.434c-.067-3.977 3.193-10.461 7.266-10.532z" fill="url(#I)"/><path d="M145.462 468.167c-4.985-2.892-6.459-10.429-6.992-15.462-.137-1.294.053-5.741.396-12.639-4.93 0-8.829.554-10.163.831.129 8.163.45 15.917 1.37 19.519 1.922 7.529 7.87 14.301 15.613 21.04s24.196 11.034 28.88 9.347c3.747-1.349 4.3-6.722 4.108-9.239 2.095.039 7.918 1.144 14.449 5.246s7.605 16.292 7.325 21.874c1.044-.172 3.219-.745 3.562-1.667.43-1.154 2.75-9.904-.792-20.384s-13.301-16.956-19.133-16.853-33.637 1.279-38.623-1.613z" fill="url(#J)"/><path fill-rule="evenodd" d="M149.019 419.371c-1.52-.187-5.542.706-8.218 5.752s-5.362 10.723-6.37 12.93c-3.399.006-9.191 1.475-9.969 4.974-.825 3.707.694 5.309 2.44 6.56-.873.924-1.656 1.958-1.621 4.009.056 3.363-.154 5.547 4.55 5.464 0 0-.283-1.136-.325-1.828s-.163-1.994-.163-1.994c-.995-.089-.747-.387-.766-1.54-.025-1.442 1.211-2.585 4.504-2.643s6.186.592 6.366 2.022c.147 1.164-.113 1.673-.684 1.95l.343 1.707.341 1.646c.68-.012 1.241-.467 1.774-.981.861-.831.976-2.232.861-2.817.574-.064 1.844-.417 2.331-1.323.608-1.132.095-3.687-.551-4.797s-1.006-3.828-.72-5.435c.23-1.286.803-2.044 1.06-2.262-.263-.102-.913-.24-1.411.025s-1.027 1.086-1.23 1.464c-.117-3.844.105-12.339 1.933-15.576s4.445-6.22 5.525-7.307zm-21.466 23.656c-.651 1.496-.651 3.403 1.302 5.15h3.864c-.106-.105-.218-1.758.262-3.049l1.35-3.708c-1.833-.128-6.107.067-6.778 1.607z" fill="url(#K)"/></g><defs><linearGradient id="A" x1="150.861" y1="453.714" x2="-135.282" y2="453.714" href="#Q"><stop stop-color="#3c3024"/><stop offset="1" stop-color="#bd7b49"/></linearGradient><linearGradient id="B" x1="213.743" y1="170.226" x2="-54.489" y2="170.226" href="#Q"><stop stop-color="#3c3024"/><stop offset="1" stop-color="#bd7b49"/></linearGradient><linearGradient id="C" x1="230.26" y1="334.009" x2="-80.521" y2="334.009" href="#Q"><stop stop-color="#fcf0d6"/><stop offset="1" stop-color="#ffc446"/></linearGradient><linearGradient id="D" x1="132.906" y1="400.283" x2="-83.975" y2="400.283" href="#Q"><stop stop-color="#3c3024"/><stop offset="1" stop-color="#bd7b49"/></linearGradient><linearGradient id="E" x1="140.4" y1="275.782" x2="-82.26" y2="275.782" href="#Q"><stop stop-color="#fcf0d6"/><stop offset="1" stop-color="#ffc446"/></linearGradient><linearGradient id="F" x1="83.78" y1="193.304" x2="37.372" y2="193.304" href="#Q"><stop stop-color="#3c3024"/><stop offset="1" stop-color="#bd7b49"/></linearGradient><linearGradient id="G" x1="143.46" y1="259.418" x2="122.084" y2="258.842" href="#Q"><stop stop-color="#fcf0d6"/><stop offset="1" stop-color="#ffc446"/></linearGradient><linearGradient id="H" x1="160.603" y1="258.388" x2="122.864" y2="257.371" href="#Q"><stop stop-color="#3c3024"/><stop offset="1" stop-color="#bd7b49"/></linearGradient><linearGradient id="I" x1="142.133" y1="381.061" x2="126.811" y2="381.32" href="#Q"><stop stop-color="#fcf0d6"/><stop offset="1" stop-color="#ffc446"/></linearGradient><linearGradient id="J" x1="204.743" y1="473.753" x2="129.278" y2="475.025" href="#Q"><stop stop-color="#fcf0d6"/><stop offset="1" stop-color="#ffc446"/></linearGradient><linearGradient id="K" x1="149.35" y1="439.026" x2="124.137" y2="439.451" href="#Q"><stop stop-color="#3c3024"/><stop offset="1" stop-color="#bd7b49"/></linearGradient><path id="L" d="M147.496 512.694c.332-1.496-19.326-1.159-27.09-13.835-8.143-13.295-21.671-2.253-25.261 8.516-4.487 13.462 2.992 13.961 5.817 18.614s.166 9.473 3.324 19.112 16.951 10.47 30.247 7.977 15.622-13.627 16.287-20.109c.532-5.185-4.21-11.91-6.648-14.625.997-1.385 3.058-4.454 3.324-5.65z"/><path id="M" d="M59.081 454.193c0-7.479.997-8.808 5.152-26.425-5.54-22.491-22.502-68.77-46.035-73.955-29.416-6.482-73.623 36.562-87.75 46.035s-22.104 25.261-30.912 30.746-14.459-3.324-9.639-7.147 1.828-8.476-4.82-8.476-9.971 5.983-10.968 8.476-5.152 18.946-5.152 20.608-5.817 16.62-3.823 20.774 4.155 16.952 3.823 20.608 13.96 26.591 15.289 28.253 6.15 10.138 8.144 12.299c1.595 1.729 7.202 5.373 9.805 6.979 2.493 2.05 8.775 7.346 13.96 12.133 6.481 5.984 13.129 3.822 15.622 4.487s19.943 3.49 21.771 3.822 14.459-5.152 17.949-8.309 8.476-3.657 19.278-5.983 18.447-13.129 23.101-13.129 14.293-11.302 19.112-18.614 7.479-10.969 9.805-13.461 7.479-18.282 10.138-22.271 6.149-9.971 6.149-17.45z"/><path id="N" d="M180.555 112.434c-10.47-6.481-20.608 7.812-31.577 28.253-.498-3.656-.963-11.667 1.164-14.459 2.659-3.49 5.484-13.794 0-18.613-4.388-3.856-6.593 1.606-7.147 4.819-5.428 3.989-18.912 13.661-29.416 20.442s-54.345 30.413-74.953 41.382v28.585h42.047v-28.585c1.108-1.44 10.44-7.786 17.45-12.298 15.086-9.71 34.402-17.45 39.554-18.614 10.138 7.922 33.073 21.472 39.056 22.935 7.478 1.828 10.802-.831 11.966-2.327.93-1.196 1.274-3.158 1.329-3.989 0 0 2.051 1.736 3.656 1.995 2.311.373 3.922.133 5.651-1.995s1.052-3.268 0-4.653c1.828 1.496 5.484 2.36 9.473 2.493s4.542-3.047 4.321-4.653c2.05 3.49 7.578 11.168 13.295 13.96 7.147 3.49 2.992-2.659-1.828-16.287s-11.135-44.54-20.608-51.52-19.61 3.823-12.132 10.47-.831 9.141-11.301 2.659z"/><path id="O" d="M143.494 552.679c-21.771-5.65-17.949-7.478-21.605-43.542l-18.614-9.307c1.552 13.683 4.421 43.144 3.49 51.52-1.163 10.47-1.329 12.132 2.493 14.126s8.642-3.656 20.11-4.155 15.788 11.654 32.74-1.163c6.814-5.152 3.157-1.828-18.614-7.479z"/><path id="P" d="M-50.772 547.427c-3.989-7.147.166-13.13 10.47-38.889l-21.937-9.806-7.313 41.548c-2.174 11.634-10.969 4.321-10.969 15.789 0 5.653 2.493 8.475 10.969 6.98s16.952 4.819 35.233 7.478 18.78-7.312 10.803-10.304-23.267-5.65-27.256-12.796z"/><linearGradient id="Q" gradientUnits="userSpaceOnUse"/></defs></svg>