<svg xmlns="http://www.w3.org/2000/svg" width="509" height="444" fill="none" xmlns:v="https://vecta.io/nano"><style><![CDATA[.B{stroke:#f2c78b}.C{stroke-width:.912}.D{fill-rule:evenodd}]]></style><use href="#N" fill="url(#A)"/><use href="#O" fill="url(#A)"/><g class="B C"><use href="#N"/><use href="#O"/><path d="M310.039 90.266c0 11.223-2.551 17.005-3.827 18.493 0-7.015-.595-22.574-2.975-28.696-2.976-7.652-8.928-2.551-8.503.638s-.637 4.251-2.763 7.865c-1.7 2.891-1.559 5.172-1.275 5.952-14.384 14.95-44.808 46.168-51.44 51.439-8.289 6.59-67.806 7.227-98.415 10.628s-31.033 3.826-30.821 13.179 34.648 5.314 63.13 6.589 40.812 19.768 39.324 50.164-42.937 163.671-47.826 195.129-6.589 34.86-5.314 72.058-2.763 36.347-8.502 42.724-4.039 13.391 2.55 12.966 14.242.425 31.034 1.063 7.227-8.502 0-11.691-12.116-7.014-12.116-14.666 3.826-34.01 11.478-61.855c6.122-22.276 23.665-56.045 31.672-70.144l10.415 125.197c.213 15.729-9.352 18.067-9.14 26.145s21.894 5.101 39.961 4.038 3.614-10.203-3.826-12.116-11.053-4.251-11.478-12.541 2.551-26.357 3.401-42.511 3.826-154.531-3.826-171.748-9.353-26.783-9.565-42.299.212-25.295 7.439-36.348 20.406-15.304 27.633-17.855 15.092-7.014 19.555-20.831c3.571-11.053-1.488-20.476-4.463-23.806 7.014-1.913 22.446-6.292 28.057-8.503 7.015-2.763 7.227-8.077 0-11.69-5.781-2.891-33.584-.638-46.763.85 4.393-4.322 16.112-15.177 27.846-24.019 14.666-11.053 29.97-7.652 52.714-8.503 18.195-.68 18.776-8.219 16.792-11.903 1.205.283 3.869.383 4.889-1.488s-.992-3.755-2.125-4.464c.283-.071 1.105-.255 2.125-.425s.851-2.622.638-3.826c2.48.142 7.865-.212 9.565-2.763s.142-5.456-.85-6.589c1.134.638 5.739 1.701 15.092.85s10.557-3.614 9.99-4.889c-2.551-.354-9.395-2.126-16.367-6.377-8.715-5.314-18.918-13.816-26.145-17.005s-14.879.638-19.98-2.976-9.141-.85-9.991 3.613 14.242 5.952 9.991 8.927-12.754-4.676-19.556 2.126-7.439 7.865-7.439 21.894z" fill="url(#B)"/></g><path d="M201.846 148.293c-3.259-.992-11.266-1.53-17.217 4.252 3.613.283 11.563 2.465 14.454 8.927 1.31 2.928 2.033 5.855 2.706 8.58 1.184 4.794 2.214 8.961 6.009 11.401 4.761 3.06 9.069 9.211 10.628 11.903-1.205.638-4.719 1.743-9.14 1.063s-7.794-7.369-8.928-10.628c-.85 2.976-2.295 10.585-1.275 17.217s7.227 9.424 10.203 9.99c.212 3.33.51 12.626 0 23.169s-2.197 15.163-2.976 16.155c-1.842.425-5.867 2.04-7.227 5.101s-.567 5.243 0 5.952c-.071.708-.893 2.423-3.614 3.613-2.463 1.078-6.935.818-13.576.43l-8.53-.43c-4.932-.182-7.98-.993-10.409-1.639-3.224-.857-5.358-1.425-9.359.151-4.746 1.87-5.308 4.13-6.097 7.305-.377 1.517-.805 3.244-1.767 5.236-1.712 3.545-4.056 4.77-6.911 6.263-2.11 1.103-4.499 2.352-7.118 4.79-3.125 2.91-3.847 5.492-4.546 7.995-.68 2.434-1.34 4.795-4.169 7.31-5.739 5.101-7.44 6.164-19.768 5.951-9.226-.159-12.143 2.42-14.63 4.619-.837.739-1.624 1.436-2.587 1.971-3.826 2.125-12.328-3.189-10.628-7.44s-1.488-6.377-3.826-3.826-3.401 6.589 0 11.266l9.14 12.753c1.913 1.417 6.249 4.251 8.29 4.251 1.625 0 2.647 2.762 3.449 4.931.457 1.235.842 2.278 1.228 2.509 1.063.638 5.314 1.913 6.59 1.275s3.188-1.275 6.164-1.275h.425c1.134.921 3.571 2.763 4.251 2.763h9.566c4.251 0 6.801-1.7 8.077-3.401 1.085-1.447 4.636-2.587 7.634-3.549l1.506-.489 1.922-.667c2.159-.767 4.033-1.432 7.856-2.097 3.911-.68 13.107-.283 17.217 0-.284 1.347-1.318 4.252-3.189 5.102-.785.357-1.955 1.05-3.243 1.814-2.544 1.507-5.548 3.287-6.959 3.287-1.991 0-8.267 3.541-11.85 5.562l-.368.208-.323.182c-3.401 1.913-11.266 2.126-13.604 1.7-.911-.165-2.113-.557-3.429-.986-2.061-.671-4.403-1.435-6.349-1.564-2.551-.17-7.156-3.472-9.14-5.102-3.96 5.165-1.366 8.238.893 10.914.53.628 1.041 1.234 1.445 1.84l1.298 1.971c1.868 2.853 3.962 6.052 5.504 7.594.648.647 1.684 1.538 2.822 2.516h.001c2.225 1.912 4.836 4.155 5.679 5.561 1.276 2.126 11.479 8.503 14.88 8.503 1.249 0 2.354-.602 3.695-1.333 2.311-1.258 5.322-2.897 10.971-2.493 7.142.51 9.92-1.913 10.416-3.189-.284 1.63-1.148 5.867-2.339 9.778-.563 1.85-.273 4.187.062 6.896.55 4.449 1.225 9.902-1.549 15.848-2.84 6.084-2.153 8.9-1.222 12.716.532 2.182 1.144 4.692 1.222 8.327.102 4.802-1.367 7.59-2.945 10.584-1.704 3.235-3.534 6.709-3.645 13.223-.128 7.573 5.324 11.348 10.834 15.163 3.615 2.502 7.254 5.022 9.359 8.643 1.774 4.309 2.34 10.506 2.732 14.809.266 2.914.453 4.959.882 4.959 1.063 0 24.657-5.951 30.183-14.879 4.421-7.142 4.96-42.228 4.677-58.879 2.196 2.197 6.844 7.185 7.864 9.565.361.842.518 1.82.691 2.905.441 2.75.992 6.19 5.261 9.849 5.952 5.101 8.927 7.44 15.729 9.778 3.741.85 8.219 13.391 9.99 19.555.638-2.196 1.914-7.482 1.914-11.053 0-1.288-.283-4.432-.65-8.51-.906-10.06-2.322-25.802-1.264-33.364.788-5.413.254-10.187-.273-14.894-.61-5.459-1.21-10.826.273-16.99 2.211-9.183 2.055-16.438 1.701-18.918 1.63.213 5.612-.34 8.502-4.251 2.38-3.219.059-6.162-2.715-9.678-1.438-1.823-2.998-3.801-4.087-6.051-1.496-3.093-1.588-4.547-1.659-5.68-.081-1.282-.136-2.154-2.167-4.523-3.06-3.571-4.237-11.48 0-16.155 2.355-2.598 4.029-2.838 7.52-3.34l3.108-.486c7.227-1.275 5.527-11.265-.85-14.029-5.101-2.21-5.952-4.747-5.739-5.739 1.771-1.629 5.399-5.824 5.739-9.565.323-3.548-1.068-5.627-2.407-7.631-.426-.637-.847-1.267-1.206-1.934-.19-.353-.401-.713-.616-1.083h0c-1.135-1.945-2.406-4.121-1.51-6.569.582-1.592 1.995-2.03 3.445-2.479 1.267-.393 2.564-.795 3.357-1.985 1.317-1.975.267-4.033-.772-6.07-.638-1.251-1.273-2.495-1.354-3.708-.185-2.777.114-3.458 2.02-7.802l.956-2.188c1.247-3.366.519-4.392-.253-5.481-.544-.766-1.11-1.564-1.022-3.234.111-2.108 1.265-3.232 2.463-4.399 1.097-1.068 2.232-2.173 2.638-4.103.322-1.527-.056-2.841-.408-4.069-.58-2.02-1.093-3.806 1.684-5.921 3.571-2.721 2.196-7.794 1.062-9.991 1.488-.496 6.079-2.763 12.541-7.864s6.235-17.147 5.314-22.532c-.425 2.976-2.465 9.566-7.227 12.116-4.815 2.58-9.213.707-13.757-1.228-1.072-.457-2.152-.917-3.248-1.322-4.591-1.701-18.634-1.701-25.082-1.488-.425-1.913-2.465-6.632-7.227-10.203-3.378-2.534-5.797-8.287-8.23-14.071-1.853-4.405-3.713-8.829-6.011-11.861-4.251-5.612-11.407-5.173-14.454-4.252zm37.623 131.787c-.435 2.753.612 3.827 1.794 5.039.552.567 1.133 1.163 1.607 1.975.701 1.202 1.354 2.45 1.916 3.523.632 1.206 1.148 2.192 1.485 2.642.51.68 3.613 2.834 5.101 3.826-.637.637-1.913 2.125-1.913 2.976 0 .339.261.614.532.9.578.608 1.204 1.267-.532 2.713-2.04 1.701-3.542 2.267-4.038 2.338.141-.992.042-3.571-1.488-5.951-.814-1.266-2.051-2.147-3.138-2.922-1.469-1.047-2.665-1.899-2.176-3.243.85-2.338-.213-5.739-.85-6.802s-2.126-4.888-1.913-6.376c.17-1.191 2.479-.921 3.613-.638zm9.488-12.543c-.683.54-1.526 1.208-2.048 2.34-.425-.496-1.318-1.573-1.488-1.913-.056-.111-.316-.369-.67-.719-.996-.985-2.731-2.703-2.731-3.957a3.72 3.72 0 0 1 .23-1.336c.171-.512.295-.883-.23-2.065-.334-.751-1.193-1.077-2.048-1.4-1.322-.501-2.636-.999-1.991-3.064.715-2.288.564-2.555.13-3.327-.211-.375-.489-.87-.768-1.774-.455-1.48.065-2.29.386-2.788.277-.431.404-.628-.386-.826-1.36-.34-2.975 1.276-3.613 2.126.213-1.417.808-4.846 1.488-7.227s2.834-6.802 3.826-8.715c.779.425 2.721 1.275 4.251 1.275h2.763v3.614c0 .878 1.079 2.041 2.121 3.164.975 1.051 1.918 2.068 1.918 2.787 0 .579-.675 1.736-1.425 3.022-1.179 2.021-2.543 4.359-1.763 5.268 1.275 1.488.85 6.164 0 7.865-.752 1.504.325 2.675 1.907 4.397l.643.704c1.13 1.255.481 1.769-.502 2.549z" fill="url(#C)" class="D"/><g class="B C"><path d="M246.058 237.781v-3.614m-2.763 0h2.763v3.614m0 0c0 .878 1.079 2.041 2.121 3.164.975 1.051 1.918 2.068 1.918 2.787 0 .579-.675 1.736-1.425 3.022-1.179 2.021-2.543 4.359-1.763 5.268 1.275 1.488.85 6.164 0 7.865-.752 1.504.325 2.675 1.907 4.397l.643.704c1.13 1.255.481 1.769-.502 2.549-.683.54-1.526 1.208-2.048 2.34l-1.488-1.913c-.056-.111-.316-.369-.67-.719-.996-.985-2.731-2.703-2.731-3.957a3.72 3.72 0 0 1 .23-1.336c.171-.512.295-.883-.23-2.065-.334-.751-1.193-1.077-2.048-1.4-1.322-.501-2.636-.999-1.991-3.064.715-2.288.564-2.555.13-3.327-.211-.375-.489-.87-.768-1.774-.455-1.48.065-2.29.386-2.788.277-.431.404-.628-.386-.826-1.36-.34-2.975 1.276-3.613 2.126.213-1.417.808-4.846 1.488-7.227s2.834-6.802 3.826-8.715c.779.425 2.721 1.275 4.251 1.275m2.763 0h-2.763m-122.646 107.98c4.251 0 6.801-1.7 8.077-3.401 1.085-1.447 4.636-2.587 7.634-3.549l1.506-.489 1.922-.667c2.159-.767 4.033-1.432 7.856-2.097 3.911-.68 13.107-.283 17.217 0-.284 1.347-1.318 4.252-3.189 5.102-.785.357-1.955 1.05-3.243 1.814-2.544 1.507-5.548 3.287-6.959 3.287-1.991 0-8.267 3.541-11.85 5.562l-.368.208-.323.182c-3.401 1.913-11.266 2.126-13.604 1.7-.911-.165-2.113-.557-3.429-.986-2.061-.671-4.403-1.435-6.349-1.564-2.551-.17-7.156-3.472-9.14-5.102-3.96 5.165-1.366 8.238.893 10.914.53.628 1.041 1.234 1.445 1.84l1.298 1.971c1.868 2.853 3.962 6.052 5.504 7.594.648.647 1.684 1.538 2.822 2.516h.001c2.225 1.912 4.836 4.155 5.679 5.561 1.276 2.126 11.479 8.503 14.88 8.503 1.249 0 2.354-.602 3.695-1.333 2.311-1.258 5.322-2.897 10.971-2.493 7.142.51 9.92-1.913 10.416-3.189-.284 1.63-1.148 5.867-2.339 9.778-.563 1.85-.273 4.187.062 6.896.55 4.449 1.225 9.902-1.549 15.848-2.84 6.084-2.153 8.9-1.222 12.716.532 2.182 1.144 4.692 1.222 8.327.102 4.802-1.367 7.59-2.945 10.584-1.704 3.235-3.534 6.709-3.645 13.223-.128 7.573 5.324 11.348 10.834 15.163 3.615 2.502 7.254 5.022 9.359 8.643 1.774 4.309 2.34 10.506 2.732 14.809.266 2.914.453 4.959.882 4.959 1.063 0 24.657-5.951 30.183-14.879 4.421-7.142 4.96-42.228 4.677-58.879 2.196 2.197 6.844 7.185 7.864 9.565.361.842.518 1.82.691 2.905.441 2.75.992 6.19 5.261 9.849 5.952 5.101 8.927 7.44 15.729 9.778 3.741.85 8.219 13.391 9.99 19.555.638-2.196 1.914-7.482 1.914-11.053 0-1.288-.283-4.432-.65-8.51-.906-10.06-2.322-25.802-1.264-33.364.788-5.413.254-10.187-.273-14.894-.61-5.459-1.21-10.826.273-16.99 2.211-9.183 2.055-16.438 1.701-18.918 1.63.213 5.612-.34 8.502-4.251 2.38-3.219.059-6.162-2.715-9.678-1.438-1.823-2.998-3.801-4.087-6.051-1.496-3.093-1.588-4.547-1.659-5.68-.081-1.282-.136-2.154-2.167-4.523-3.06-3.571-4.237-11.48 0-16.155 2.355-2.598 4.029-2.838 7.52-3.34l3.108-.486c7.227-1.275 5.527-11.265-.85-14.029-5.101-2.21-5.952-4.747-5.739-5.739 1.771-1.629 5.399-5.824 5.739-9.565.323-3.548-1.068-5.627-2.407-7.631-.426-.637-.847-1.267-1.206-1.934-.19-.353-.401-.713-.616-1.083h0c-1.135-1.945-2.406-4.121-1.51-6.569.582-1.592 1.995-2.03 3.445-2.479 1.267-.393 2.564-.795 3.357-1.985 1.317-1.975.267-4.033-.772-6.07-.638-1.251-1.273-2.495-1.354-3.708-.185-2.777.114-3.458 2.02-7.802l.956-2.188c1.247-3.366.519-4.392-.253-5.481-.544-.766-1.11-1.564-1.022-3.234.111-2.108 1.265-3.232 2.463-4.399 1.097-1.068 2.232-2.173 2.638-4.103.322-1.527-.056-2.841-.408-4.069-.58-2.02-1.093-3.806 1.684-5.921 3.571-2.721 2.196-7.794 1.062-9.991 1.488-.496 6.079-2.763 12.541-7.864s6.235-17.147 5.314-22.532c-.425 2.976-2.465 9.566-7.227 12.116-4.815 2.58-9.213.707-13.757-1.228-1.072-.457-2.152-.917-3.248-1.322-4.591-1.701-18.634-1.701-25.082-1.488-.425-1.913-2.465-6.632-7.227-10.203-3.378-2.534-5.797-8.287-8.23-14.071-1.853-4.405-3.713-8.829-6.011-11.861-4.251-5.612-11.407-5.173-14.454-4.252-3.259-.992-11.266-1.53-17.217 4.252 3.613.283 11.563 2.465 14.454 8.927 1.31 2.928 2.033 5.855 2.706 8.58 1.184 4.794 2.214 8.961 6.009 11.401 4.761 3.06 9.069 9.211 10.628 11.903-1.205.638-4.719 1.743-9.14 1.063s-7.794-7.369-8.928-10.628c-.85 2.976-2.295 10.585-1.275 17.217s7.227 9.424 10.203 9.99c.212 3.33.51 12.626 0 23.169s-2.197 15.163-2.976 16.155c-1.842.425-5.867 2.04-7.227 5.101s-.567 5.243 0 5.952c-.071.708-.893 2.423-3.614 3.613-2.463 1.078-6.935.818-13.576.43l-8.53-.43c-4.932-.182-7.98-.993-10.409-1.639-3.224-.857-5.358-1.425-9.359.151-4.746 1.87-5.308 4.13-6.097 7.305-.377 1.517-.805 3.244-1.767 5.236-1.712 3.545-4.056 4.77-6.911 6.263-2.11 1.103-4.499 2.352-7.118 4.79-3.125 2.91-3.847 5.492-4.546 7.995-.68 2.434-1.34 4.795-4.169 7.31-5.739 5.101-7.44 6.164-19.768 5.951-9.226-.159-12.143 2.42-14.63 4.619-.837.739-1.624 1.436-2.587 1.971-3.826 2.125-12.328-3.189-10.628-7.44s-1.488-6.377-3.826-3.826-3.401 6.589 0 11.266l9.14 12.753c1.913 1.417 6.249 4.251 8.29 4.251 1.625 0 2.647 2.762 3.449 4.931.457 1.235.842 2.278 1.228 2.509 1.063.638 5.314 1.913 6.59 1.275s3.188-1.275 6.164-1.275m14.242 2.763h-9.566m9.566 0h-9.566m0 0c-.68 0-3.117-1.842-4.251-2.763m0 0c.85 0 1.956 0-.425 0m.425 0h-.425m133.062-59.304c-1.134-.283-3.443-.553-3.613.638-.213 1.488 1.275 5.314 1.913 6.376s1.7 4.464.85 6.802c-.489 1.344.707 2.196 2.176 3.243 1.087.775 2.324 1.656 3.138 2.922 1.53 2.38 1.629 4.959 1.488 5.951.496-.071 1.998-.637 4.038-2.338 1.736-1.446 1.11-2.105.532-2.713-.271-.286-.532-.561-.532-.9 0-.851 1.276-2.339 1.913-2.976-1.488-.992-4.591-3.146-5.101-3.826-.337-.45-.853-1.436-1.485-2.642-.562-1.073-1.215-2.321-1.916-3.523-.474-.812-1.055-1.408-1.607-1.975-1.182-1.212-2.229-2.286-1.794-5.039z"/><path d="M310.889 12.256c-3.231 1.701-1.913 12.187-.85 17.217-2.48-.425-11.138-.467-25.932 2.764s-23.027 6.873-25.295 8.29c-.921-4.251-3.316-13.349-5.526-15.729-2.764-2.976-10.628-6.164-12.541-9.14s-7.015-4.251-12.966-7.44-27.42-10.628-32.309-6.59-1.063 4.677.425 3.614 2.976 1.275 3.613 2.976.213 5.101 2.126 7.44 1.913 5.739 2.763 10.415-.85 6.164 1.913 11.691c2.211 4.421 2.48 10.203 2.338 12.541-.708-.213-2.338-1.148-3.188-3.188s-1.63-5.243-1.913-6.589c-.709 2.976-1.701 10.713 0 17.855 2.125 8.928-2.338 8.715-4.676 14.454-1.871 4.591 3.613 6.731 6.589 7.227 0 1.134-.383 3.826-1.913 5.526-1.913 2.126-6.164.638-9.14 9.565-2.381 7.142-5.385 11.479-6.589 12.754 0-.567-.213-2.083-1.063-3.614-1.063-1.913-6.802-3.826-7.44 3.614-.51 5.952 5.456 8.857 8.503 9.565.566 1.559 2.125 5.016 3.826 6.377 2.125 1.7 5.101 1.063 9.565 0s8.502 0 11.903 1.063 8.502.637 11.903-1.063c2.721-1.361 6.802 1.133 8.503 2.551-1.488 1.133-6.42 4.421-14.242 8.502-9.777 5.101-17.217 3.188-27.632 0s-9.353-14.029-6.165-14.242 1.063-3.826-3.188-4.251-13.816 4.889-9.778 21.044 29.971 23.381 52.502 18.067 55.053-48.676 63.768-58.454 11.478-20.406 13.816-16.367c1.871 3.231.78 21.752 0 30.609 1.134-.142 3.997-1.233 6.377-4.464 2.976-4.039 2.763-27.845 4.889-31.671s9.565-7.865 16.792-7.44 9.565-1.488 8.715-5.952-9.14-2.338-10.415-4.889 4.038-4.251 7.864-2.338 7.44 1.913 10.203 2.338 5.952 1.7 8.29-2.338-1.063-7.865-4.251-7.865c-2.551 0-4.18-1.7-4.676-2.551.708.283 2.763.298 5.314-1.913 3.188-2.763-5.102-2.976-9.14-3.826s-7.44-5.101-11.266-7.652-2.126-5.527-3.613-4.464-3.614 3.188-7.653 0-7.227-8.927-6.589-11.478 1.488-4.676-2.551-2.551z" fill="url(#D)"/><path d="M255.411 156.159l4.463-4.676c.567 1.063 1.786 3.868 2.126 6.589.425 3.401.213 11.266-5.952 17.643s-6.801 5.526-8.927 9.352c-1.701 3.061 3.117 5.527 5.739 6.377-1.913.779-6.504 1.615-9.565-1.275-3.826-3.614-1.913-4.039-5.102-5.102s-10.202-8.715-14.453-15.517.637-19.13 6.164-22.744c4.421-2.89 11.053-1.842 12.753-.85l-9.14 6.802c-5.526 3.826-4.464 19.556 9.778 20.193 11.393.51 12.824-10.982 12.116-16.792z" fill="url(#E)"/><path d="M311.383 193.635c1.284-12.904 2.904-31.424 2.952-40.285.024-4.419-7.387-5.037-11.268-2.923-4.669 2.543-3.329 6.565-3.403 13.183-.427 38.186-3.525 95.105-3.757 97.716l-2.769 35.057c.231 5.223 2.595 7.246 6.298 7.575s7.319-2.818 7.319-2.818l4.628-107.505z" fill="url(#F)"/></g><path d="M322.82 203.991c.318-1.274.514-4.394-1.255-6.689-2.212-2.869-3.608-5.666-2.148-8.208s.508-5.711-1.99-3.055-6.658 7.836-6.853 12.341c-.156 3.604.279 6.876.517 8.062-1.26.299-3.82 1.346-3.98 3.141s.792 3.428 1.287 4.02c-.266-.092-1.142-.102-2.52.598s-4.082 1.213-5.262 1.382c1.028.776 3.46 2.24 4.972 1.881s3.978-.811 5.022-.992l-.94 22.116c1.564.139 5.235-.151 7.41-2.424 1.535-1.603 2.429-2.752 2.883-3.429-1.361 2.345-3.571 6.55-3.744 8.491-.236 2.651-1.043 7.102-.426 9.418s4.427 7.999 4.101 11.67-1.709 7.659-4.098 9.091-8.801 1.889-4.537 2.474 10.198.907 13.996-9.444c3.039-8.281 3.191-17.394 2.888-20.915.698-.144 2.141-.961 2.33-3.082s-.384-3.391-.694-3.761c1.214-2.085 3.541-7.456 3.146-12.26s-3.061-11.029-4.345-13.542c1.538-.342 4.657-1.518 4.831-3.475.218-2.448-.322-3.318-1.713-3.853-1.113-.428-4.132 1.003-5.502 1.772-.198-.086-.509-.744-1.133-1.129-.974-.6-1.835-.163-2.243-.199z" fill="url(#G)"/><path d="M296.321 220.996c-2.492-.425-2.902 2.127-2.583 5.937.398 4.763 2.864 4.777 3.802 10.411s1.463 8.969.674 13.215c-.631 3.397 3.012 7.737 4.913 9.481-.87-2.544-2.226-8.255-.689-10.75 1.922-3.118 2.072-11.738.454-14.348s-5.166-6.626-4.355-8.815c.649-1.751-.064-4.763-2.216-5.131z" fill="url(#G)"/><g class="B C"><path d="M319.963 232.735c-.454.677-1.348 1.826-2.883 3.429-2.175 2.273-5.846 2.563-7.41 2.424l.94-22.116-5.022.992c-1.512.359-3.944-1.105-4.972-1.881 1.18-.169 3.885-.682 5.262-1.382s2.254-.69 2.52-.598c-.495-.592-1.446-2.226-1.287-4.02s2.72-2.842 3.98-3.141c-.238-1.186-.673-4.458-.517-8.062.195-4.505 4.356-9.685 6.853-12.341s3.449.512 1.99 3.055-.064 5.339 2.148 8.208c1.769 2.295 1.573 5.415 1.255 6.689.408.036 1.269-.401 2.243.199.624.385.935 1.043 1.133 1.129 1.37-.769 4.389-2.2 5.502-1.772 1.391.535 1.931 1.405 1.713 3.853-.174 1.957-3.293 3.133-4.831 3.475 1.284 2.513 3.95 8.738 4.345 13.542s-1.932 10.175-3.146 12.26c.31.37.882 1.64.694 3.761s-1.632 2.938-2.33 3.082c.303 3.521.151 12.634-2.888 20.915-3.798 10.351-9.731 10.029-13.996 9.444s2.149-1.042 4.537-2.474 3.771-5.42 4.098-9.091-3.485-9.354-4.101-11.67.19-6.767.426-9.418c.173-1.941 2.383-6.146 3.744-8.491zm0 0l.354-.6a4.34 4.34 0 0 1-.354.6zm-23.642-11.739c-2.492-.425-2.902 2.127-2.583 5.937.398 4.763 2.864 4.777 3.802 10.411s1.463 8.969.674 13.215c-.631 3.397 3.012 7.737 4.913 9.481-.87-2.544-2.226-8.255-.689-10.75 1.922-3.118 2.072-11.738.454-14.348s-5.166-6.626-4.355-8.815c.649-1.751-.064-4.763-2.216-5.131z"/><path d="M448.148 285c-4.462.741-89.163 2.504-141.804 6.407-8.09 1.506-12.535 4.413-12.26 8.121s6.227 6.349 9.772 6.086l113.483-9.707c8.561-.84 31.506-1.514 38.123-3.647s12.349-7.897 17.96-15.293 8.589-22.605 6.842-26.787c-1.398-3.345-6.219-3.576-8.455-3.274-.073-1.911.611-7.272 3.932-13.431s14.138-7.755 19.132-7.783c-.207-.943-.83-2.895-1.671-3.161-1.052-.333-8.977-2.004-18.143 1.756s-14.436 12.978-14.042 18.287 2.883 30.582.562 35.271-8.969 6.414-13.431 7.155z" fill="url(#H)"/><path d="M403.115 270.403c-.125 1.991 1.31 7.159 7.937 10.276s14.057 6.201 16.944 7.353c.259 4.422 1.92 13.182 6.487 12.843s6.168-2.507 7.633-4.87c1.241 1.069 3.748 3.002 6.358 2.808 4.281-.317 7.112-.322 6.658-6.438 0 0-1.553.28-2.431.385s-2.431.385-2.431.385c-.04 1.302-.442 1.263-1.91 1.372-1.835.136-3.383-1.389-3.7-5.671s.256-7.603 2.091-7.739c1.468-.109 2.708 2.942 3.103 3.665l2.149-.57 2.072-.563c-.066-.884-.534-3.855-1.797-5.402s-3.053-1.55-3.791-1.359c-.123-.742-.667-2.369-1.857-2.937-1.488-.709-4.704.144-6.071 1.065s-4.802 1.586-6.871 1.33c-1.655-.205-2.663-.896-2.96-1.216-.11.35-.238 1.207.136 1.835s1.46 1.258 1.956 1.495c-4.888.431-15.728.756-19.987-1.388s-8.253-5.333-9.718-6.659zm31.428 25.753c2.144.169 4.394-1.556 6.614-4.795l-.136-1.835c-.126.146-2.225.411-3.904-.12l-4.825-1.487c-.027 2.393.106 8.068 2.251 8.237z" fill="url(#I)" class="D"/><path d="M73.384 293.963c.415-1.949 33.196-70.342 46.5-113.72 1.543-5.029 3.598-13.268.165-16.249s-9.602-1.149-11.266 3.081l-11.319 28.771c-2.433 6.743-41.771 102.818-44.816 108.881-1.543 4.16-3.457 12.941 1.224 14.783 5.851 2.302 9.571-3.573 11.934-7.931 1.89-3.487 5.84-13.197 7.579-17.616z" fill="url(#J)"/></g><use href="#P" fill="url(#K)"/><use href="#Q" fill="url(#K)"/><g class="B C"><use href="#P"/><use href="#Q"/><path d="M79.752 336.314c-5.098-9.241-14.537-23.536-16.332-25.262s-5.423-4.447-10.468-.694.777 13.393 8.658 23.987c31.655 42.548 45.576 63.226 70.42 98.334 3.342 4.148 8.12 7.484 11.756 9.627 2.909 1.715 9.26 3.692 15.344 3.131 9.791-.904 20.494-5.04 21.408-8.272.731-2.585-1.641-6.435-2.918-8.037 2.957-2.2 10.336-6.414 16.198-5.67s13.111 8.704 16.003 12.592c.754-.816 2.067-2.916 1.288-4.786-.974-2.338-6.764-8.749-8.192-9.983s-9.438-5.482-17.139-4.857-13.371 5.354-22.119 12.118-18.329 6.235-20.781 4.997-15.162-18.322-17.645-22.344l-45.481-74.881z" fill="url(#L)"/><path d="M123.398 379.808c-1.748.961-5.343 4.943-4.422 12.207s2.299 15.191 2.873 18.246c-3.594 2.59-10.099 8.686-7.366 12.36s5.423 3.864 8.203 3.834c-.238 1.621-.525 4.774 1.037 6.873 2.562 3.444 5.133 4.844 10.053 1.184 0 0-.947-.998-1.506-1.682s-1.357-1.824-1.357-1.824c-1.12.663-2.745 1.105-3.624-.076-1.098-1.477-.64-3.601 2.804-6.163s6.557-3.859 7.655-2.383c.878 1.181-.682 3.65-1.08 4.371l1.281 1.722c.5.672 1.445 1.6 1.445 1.6.711-.529 3.11-2.67 3.739-4.565s-.328-3.408-.885-3.928c.561-.502 1.643-1.834 1.484-3.143-.198-1.636-2.642-3.894-4.153-4.554s-3.912-3.204-4.804-5.088c-.714-1.508-.671-2.729-.561-3.151-.354.094-1.146.446-1.476 1.098s-.28 1.907-.214 2.453c-2.983-3.896-9.067-12.873-9.54-17.618s.079-9.826.414-11.773zm-4.899 40.335c1.007 1.901 3.669 2.876 7.593 3.014l1.476-1.098c-.19-.028-1.539-1.658-1.99-3.361l-1.33-4.87c-2.036 1.259-6.755 4.414-5.749 6.315z" fill="url(#M)" class="D"/></g><defs><linearGradient id="A" x1="253.919" y1="356.321" x2="16.033" y2="356.321" href="#R"><stop stop-color="#bd7b49"/><stop offset="1" stop-color="#3c3024"/></linearGradient><linearGradient id="B" x1="399.643" y1="301.265" x2="109.995" y2="301.265" href="#R"><stop stop-color="#fcf0d6"/><stop offset="1" stop-color="#ffc446"/></linearGradient><linearGradient id="C" x1="287.562" y1="321.323" x2="69.377" y2="321.323" href="#R"><stop stop-color="#3c3024"/><stop offset="1" stop-color="#bd7b49"/></linearGradient><linearGradient id="D" x1="356.089" y1="78.851" x2="171.54" y2="78.851" href="#R"><stop stop-color="#3c3024"/><stop offset="1" stop-color="#bd7b49"/></linearGradient><linearGradient id="E" x1="262.137" y1="168.556" x2="222.127" y2="168.556" href="#R"><stop stop-color="#bd7b49"/><stop offset="1" stop-color="#3c3024"/></linearGradient><linearGradient id="F" x1="313.31" y1="227.431" x2="293.396" y2="225.66" href="#R"><stop stop-color="#fcf0d6"/><stop offset="1" stop-color="#ffc446"/></linearGradient><linearGradient id="G" x1="332.543" y1="231.02" x2="293.36" y2="227.535" href="#R"><stop stop-color="#3c3024"/><stop offset="1" stop-color="#bd7b49"/></linearGradient><linearGradient id="H" x1="391.976" y1="228.852" x2="397.154" y2="298.697" href="#R"><stop stop-color="#fcf0d6"/><stop offset="1" stop-color="#ffc446"/></linearGradient><linearGradient id="I" x1="428.152" y1="268.547" x2="430.571" y2="301.165" href="#R"><stop stop-color="#3c3024"/><stop offset="1" stop-color="#bd7b49"/></linearGradient><linearGradient id="J" x1="95.67" y1="245.001" x2="78.762" y2="238.349" href="#R"><stop stop-color="#fcf0d6"/><stop offset="1" stop-color="#ffc446"/></linearGradient><linearGradient id="K" x1="99.36" y1="242.474" x2="63.534" y2="228.379" href="#R"><stop stop-color="#3c3024"/><stop offset="1" stop-color="#bd7b49"/></linearGradient><linearGradient id="L" x1="155.076" y1="355.58" x2="103.318" y2="394.087" href="#R"><stop stop-color="#fcf0d6"/><stop offset="1" stop-color="#ffc446"/></linearGradient><linearGradient id="M" x1="138.334" y1="399.884" x2="112.092" y2="419.408" href="#R"><stop stop-color="#3c3024"/><stop offset="1" stop-color="#bd7b49"/></linearGradient><path id="N" d="M253.5 468.409c4.251-10.203-24.87-29.971-40.387-50.377-.496-3.826-5.526-9.947-21.681-3.826-20.134 7.63-29.491 28.786-34.392 39.865l-.042.097c-4.889 11.053-17.643 21.681-29.971 28.27s-10.628 7.439-16.792 12.966-15.517 4.039-21.894 6.377-7.865 7.014-21.043 12.541-14.879 9.14-25.932 17.217-18.28-.638-17.217-2.338 4.676-.638 4.676-5.739-13.604.85-12.753 9.14 5.314 12.753 19.768 14.879 8.29-.213 31.459 0 61.429-12.754 81.41-14.879 38.686-6.802 49.526-16.155 51.014-37.835 55.266-48.038z"/><path id="O" d="M195.471 204.836c4.251-5.952 4.579-12.902 5.739-21.256 1.063-7.653.043-17.94-5.739-19.13-7.227-1.488-15.729 6.164-17.855 11.478-1.7 4.251-1.842 8.856-1.7 10.628-1.63-.709-5.612-1.701-8.503 0-3.613 2.125-4.464 7.014-6.377 8.927s-4.888 5.314-7.439 7.227-7.44 11.478-11.053 12.116-4.464 4.676-6.164 6.589-4.039 3.827-7.653 6.165-2.975 4.038-3.826 5.314c-.68 1.02-4.676 5.526-6.589 7.652-3.897 1.7-12.286 6.206-14.667 10.628-2.975 5.526-.425 6.589 2.976 9.352s6.165-.85 8.715-2.763 5.314-2.763 7.44-4.251 6.802-7.015 9.565-10.416 6.164-3.4 8.077-4.038 3.401-5.314 4.889-7.44 1.913-1.063 7.227-4.889 3.614-4.463 5.101-6.801 5.527-5.952 10.841-9.991 4.676-7.227 10.415-10.84 7.865-10.628 7.865-8.928-2.338 8.715-5.526 12.541-5.314 3.614-8.078 5.314-8.077 7.865-8.077 9.778-4.464 7.014-6.589 8.927-4.464 6.165-7.865 10.203-5.526 7.227-6.802 9.565-6.377 3.189-8.502 6.165-2.763 5.101-5.739 6.376-6.802 4.464-8.078 7.227 2.339 8.29 5.102 7.015 10.415-4.251 10.84-5.102 6.59-5.526 8.715-7.652 2.764-7.014 9.991-9.352 5.526-2.764 8.927-7.015 9.778-12.753 10.841-14.454 6.376-5.314 9.352-9.777 5.952-9.141 10.203-15.092z"/><path id="P" d="M78.819 261.28c.477 3.709-.553 7.557-1.127 9.018 3.255-2.68 3.56-6.476 3.795-7.968.294-1.865.495-10.52 4.526-13.181 2.034-1.343 4.098-1.468 7.256-1.106s4.751-.331 4.548-2.611-4.773-4.152-10.201-2.034c-7.018 2.74-9.392 13.247-8.795 17.882z"/><path id="Q" d="M77.472 245.185c-.483-.264-.384-.459-1.179-1.124s-1.256-2.401-1.387-3.186c-.713 1.626-2.122 5.282-2.052 6.894.087 2.014-1.14 6.812-3.823 9.717s-6.209 4.598-7.212 8.824-.656 5.022-.268 6.275 3.198.818 3.586 2.07-1.396 1.871-3.301 1.122-3.626-2.527-4.164-3.398-2.38-4.017-.369-11.367c1.609-5.879 4.733-14.639 6.093-18.284-.596-.162-1.769-.872-1.687-2.424.103-1.94 3.567-14.659 6.543-19.428 2.381-3.816 6.444-5.753 8.177-6.244-.558-.073-1.975-.909-3.177-3.67-1.502-3.451-1.296-7.331 1.446-6.472s3.673 4.085 6.11 4.604c1.949.415 3.348.437 3.804.397-.183-1.026.269-3.591 3.542-5.648 4.092-2.57 6.006-6.878 4.741-8.696s1.69-3.735 3.261-1.577 4.089 3.589 2.711 8.768c-.792 2.977-1.476 4.699-2.423 6.307.598 1.042 1.507 3.629.362 5.643s-3.317 3.682-4.26 4.265c.441.32 1.25 1.372.956 3.016-.368 2.055-1.009 3.123.1 4.22s.734 2.048-.675 1.714-2.973-1.39-3.061-3.404c-.07-1.612-2.06-3.084-2.415-3.37l-9.981 24.456z"/><linearGradient id="R" gradientUnits="userSpaceOnUse"/></defs></svg>