<svg xmlns="http://www.w3.org/2000/svg" width="509" height="444" fill="none" viewBox="0 0 509 444"><path fill="url(#a)" d="M253.5 468.41c4.25-10.2-24.87-29.97-40.39-50.38-.49-3.82-5.52-9.95-21.68-3.82-20.13 7.63-29.49 28.78-34.39 39.86l-.04.1c-4.89 11.05-17.65 21.68-29.97 28.27-12.33 6.59-10.63 7.44-16.8 12.96-6.16 5.53-15.51 4.04-21.89 6.38s-7.86 7.02-21.04 12.54c-13.18 5.53-14.88 9.14-25.93 17.22-11.06 8.08-18.28-.64-17.22-2.34s4.67-.64 4.67-5.74-13.6.85-12.75 9.14 5.32 12.76 19.77 14.88c14.45 2.13 8.29-.21 31.46 0s61.43-12.75 81.41-14.88c19.98-2.12 38.68-6.8 49.52-16.15s51.02-37.84 55.27-48.04"/><path fill="url(#b)" d="M195.47 204.84c4.25-5.96 4.58-12.91 5.74-21.26 1.06-7.65.04-17.94-5.74-19.13-7.23-1.49-15.73 6.16-17.85 11.48-1.7 4.25-1.85 8.85-1.7 10.63-1.63-.71-5.62-1.71-8.51 0-3.61 2.12-4.46 7.01-6.37 8.92-1.92 1.92-4.89 5.32-7.44 7.23s-7.44 11.48-11.06 12.12c-3.61.63-4.46 4.67-6.16 6.58-1.7 1.92-4.04 3.83-7.65 6.17-3.62 2.34-2.98 4.04-3.83 5.31-.68 1.02-4.68 5.53-6.59 7.66-3.89 1.7-12.28 6.2-14.67 10.62-2.97 5.53-.42 6.59 2.98 9.36 3.4 2.76 6.17-.85 8.72-2.77 2.55-1.91 5.31-2.76 7.44-4.25 2.12-1.49 6.8-7.01 9.56-10.41s6.16-3.4 8.08-4.04c1.91-.64 3.4-5.32 4.89-7.44 1.48-2.13 1.91-1.06 7.22-4.89 5.32-3.83 3.62-4.46 5.1-6.8 1.49-2.34 5.53-5.95 10.85-9.99 5.31-4.04 4.67-7.23 10.41-10.84 5.74-3.62 7.87-10.63 7.87-8.93s-2.34 8.71-5.53 12.54-5.31 3.61-8.08 5.31c-2.76 1.7-8.08 7.87-8.08 9.78 0 1.92-4.46 7.02-6.58 8.93-2.13 1.91-4.47 6.16-7.87 10.2s-5.53 7.23-6.8 9.57c-1.28 2.34-6.38 3.19-8.5 6.16-2.13 2.98-2.77 5.1-5.74 6.38-2.98 1.27-6.8 4.46-8.08 7.22-1.28 2.77 2.34 8.3 5.1 7.02 2.77-1.28 10.42-4.25 10.84-5.1.43-.85 6.59-5.53 8.72-7.65 2.12-2.13 2.76-7.02 9.99-9.36 7.23-2.33 5.52-2.76 8.92-7.01 3.41-4.25 9.78-12.75 10.85-14.45 1.06-1.71 6.37-5.32 9.35-9.78 2.97-4.47 5.95-9.14 10.2-15.09"/><path stroke="#f2c78b" stroke-width=".91" d="M253.5 468.41c4.25-10.2-24.87-29.97-40.39-50.38-.49-3.82-5.52-9.95-21.68-3.82-20.13 7.63-29.49 28.78-34.39 39.86l-.04.1c-4.89 11.05-17.65 21.68-29.97 28.27-12.33 6.59-10.63 7.44-16.8 12.96-6.16 5.53-15.51 4.04-21.89 6.38s-7.86 7.02-21.04 12.54c-13.18 5.53-14.88 9.14-25.93 17.22-11.06 8.08-18.28-.64-17.22-2.34s4.67-.64 4.67-5.74-13.6.85-12.75 9.14 5.32 12.76 19.77 14.88c14.45 2.13 8.29-.21 31.46 0s61.43-12.75 81.41-14.88c19.98-2.12 38.68-6.8 49.52-16.15s51.02-37.84 55.27-48.04Zm-58.03-263.57c4.25-5.96 4.58-12.91 5.74-21.26 1.06-7.65.04-17.94-5.74-19.13-7.23-1.49-15.73 6.16-17.85 11.48-1.7 4.25-1.85 8.85-1.7 10.63-1.63-.71-5.62-1.71-8.51 0-3.61 2.12-4.46 7.01-6.37 8.92-1.92 1.92-4.89 5.32-7.44 7.23s-7.44 11.48-11.06 12.12c-3.61.63-4.46 4.67-6.16 6.58-1.7 1.92-4.04 3.83-7.65 6.17-3.62 2.34-2.98 4.04-3.83 5.31-.68 1.02-4.68 5.53-6.59 7.66-3.89 1.7-12.28 6.2-14.67 10.62-2.97 5.53-.42 6.59 2.98 9.36 3.4 2.76 6.17-.85 8.72-2.77 2.55-1.91 5.31-2.76 7.44-4.25 2.12-1.49 6.8-7.01 9.56-10.41s6.16-3.4 8.08-4.04c1.91-.64 3.4-5.32 4.89-7.44 1.48-2.13 1.91-1.06 7.22-4.89 5.32-3.83 3.62-4.46 5.1-6.8 1.49-2.34 5.53-5.95 10.85-9.99 5.31-4.04 4.67-7.23 10.41-10.84 5.74-3.62 7.87-10.63 7.87-8.93s-2.34 8.71-5.53 12.54-5.31 3.61-8.08 5.31c-2.76 1.7-8.08 7.87-8.08 9.78 0 1.92-4.46 7.02-6.58 8.93-2.13 1.91-4.47 6.16-7.87 10.2s-5.53 7.23-6.8 9.57c-1.28 2.34-6.38 3.19-8.5 6.16-2.13 2.98-2.77 5.1-5.74 6.38-2.98 1.27-6.8 4.46-8.08 7.22-1.28 2.77 2.34 8.3 5.1 7.02 2.77-1.28 10.42-4.25 10.84-5.1.43-.85 6.59-5.53 8.72-7.65 2.12-2.13 2.76-7.02 9.99-9.36 7.23-2.33 5.52-2.76 8.92-7.01 3.41-4.25 9.78-12.75 10.85-14.45 1.06-1.71 6.37-5.32 9.35-9.78 2.97-4.47 5.95-9.14 10.2-15.09Z"/><path fill="url(#c)" stroke="#f2c78b" stroke-width=".91" d="M310.04 90.27c0 11.22-2.55 17-3.83 18.49 0-7.02-.59-22.58-2.97-28.7-2.98-7.65-8.93-2.55-8.51.64.43 3.19-.63 4.25-2.76 7.87-1.7 2.89-1.56 5.17-1.27 5.95-14.39 14.95-44.81 46.17-51.44 51.44-8.29 6.59-67.81 7.22-98.42 10.62-30.61 3.41-31.03 3.83-30.82 13.18.21 9.36 34.65 5.32 63.13 6.59 28.48 1.28 40.81 19.77 39.32 50.17-1.48 30.39-42.93 163.67-47.82 195.12-4.89 31.46-6.59 34.86-5.32 72.06 1.28 37.2-2.76 36.35-8.5 42.73-5.74 6.37-4.04 13.39 2.55 12.96 6.59-.42 14.24.43 31.04 1.07 16.79.63 7.22-8.51 0-11.7-7.23-3.18-12.12-7.01-12.12-14.66s3.83-34.01 11.48-61.86c6.12-22.27 23.66-56.04 31.67-70.14 3.4 36.49 10.24 112.61 10.42 125.2.21 15.73-9.36 18.06-9.15 26.14.22 8.08 21.9 5.1 39.97 4.04 18.06-1.06 3.61-10.2-3.83-12.12-7.44-1.91-11.05-4.25-11.48-12.54-.42-8.29 2.55-26.35 3.4-42.51.85-16.15 3.83-154.53-3.82-171.75-7.65-17.21-9.36-26.78-9.57-42.3-.21-15.51.21-25.29 7.44-36.34 7.23-11.06 20.41-15.31 27.63-17.86 7.23-2.55 15.1-7.01 19.56-20.83 3.57-11.05-1.49-20.48-4.46-23.8 7.01-1.92 22.44-6.3 28.05-8.51 7.02-2.76 7.23-8.08 0-11.69-5.78-2.89-33.58-.64-46.76.85 4.39-4.32 16.11-15.17 27.85-24.02 14.66-11.05 29.97-7.65 52.71-8.5 18.2-.68 18.78-8.22 16.79-11.9 1.21.28 3.87.38 4.89-1.49s-.99-3.76-2.12-4.46c.28-.08 1.1-.26 2.12-.43s.85-2.62.64-3.83c2.48.15 7.86-.21 9.56-2.76 1.71-2.55.15-5.45-.85-6.59 1.14.64 5.74 1.7 15.1.85 9.35-.85 10.55-3.61 9.99-4.89-2.55-.35-9.4-2.12-16.37-6.37-8.72-5.32-18.92-13.82-26.15-17.01-7.22-3.19-14.88.64-19.98-2.97-5.1-3.62-9.14-.85-9.99 3.61s14.25 5.95 9.99 8.93c-4.25 2.97-12.75-4.68-19.55 2.12s-7.44 7.87-7.44 21.9Z"/><path fill="url(#d)" fill-rule="evenodd" d="M201.85 148.29c-3.26-.99-11.27-1.53-17.22 4.25 3.61.29 11.56 2.47 14.45 8.93 1.31 2.93 2.04 5.86 2.71 8.58 1.18 4.8 2.21 8.96 6.01 11.4 4.76 3.06 9.07 9.21 10.63 11.91-1.21.63-4.72 1.74-9.14 1.06-4.43-.68-7.8-7.37-8.93-10.63-.85 2.98-2.3 10.59-1.28 17.22s7.23 9.42 10.21 9.99c.21 3.33.51 12.62 0 23.17-.51 10.54-2.2 15.16-2.98 16.15-1.84.43-5.87 2.04-7.23 5.1s-.56 5.25 0 5.96c-.07.7-.89 2.42-3.61 3.61-2.46 1.08-6.94.82-13.58.43-2.52-.15-5.36-.31-8.53-.43-4.93-.18-7.98-.99-10.41-1.64-3.22-.86-5.35-1.43-9.36.15-4.74 1.87-5.3 4.13-6.09 7.31-.38 1.51-.81 3.24-1.77 5.23-1.71 3.55-4.05 4.77-6.91 6.26-2.11 1.11-4.5 2.36-7.12 4.79-3.12 2.91-3.84 5.5-4.54 8-.68 2.43-1.34 4.79-4.17 7.31-5.74 5.1-7.44 6.16-19.77 5.95-9.23-.16-12.14 2.42-14.63 4.62-.84.74-1.63 1.43-2.59 1.97-3.82 2.12-12.33-3.19-10.63-7.44s-1.48-6.38-3.82-3.83c-2.34 2.56-3.4 6.59 0 11.27 2.72 3.74 7.22 10.06 9.14 12.75 1.91 1.42 6.25 4.25 8.29 4.25 1.62 0 2.64 2.77 3.45 4.94.45 1.23.84 2.27 1.22 2.5 1.07.64 5.32 1.92 6.59 1.28 1.28-.64 3.19-1.28 6.17-1.28h.42c1.14.93 3.57 2.77 4.25 2.77h9.57c4.25 0 6.8-1.7 8.08-3.4 1.08-1.45 4.63-2.59 7.63-3.55.52-.17 1.03-.33 1.51-.49.69-.23 1.32-.46 1.92-.67 2.16-.77 4.03-1.43 7.85-2.1 3.92-.68 13.11-.28 17.22 0-.28 1.35-1.32 4.26-3.19 5.11-.78.35-1.95 1.05-3.24 1.81-2.55 1.51-5.55 3.29-6.96 3.29-1.99 0-8.27 3.54-11.85 5.56-.13.07-.25.14-.37.21-.11.06-.22.12-.32.18-3.4 1.91-11.27 2.13-13.6 1.7-.92-.17-2.12-.56-3.43-.99-2.07-.67-4.41-1.43-6.35-1.56-2.55-.17-7.16-3.47-9.14-5.1-3.96 5.16-1.37 8.23.89 10.91.53.63 1.04 1.24 1.45 1.84.41.62.84 1.29 1.29 1.97 1.87 2.86 3.96 6.05 5.51 7.6.64.64 1.68 1.53 2.82 2.51 2.22 1.91 4.84 4.16 5.68 5.56 1.28 2.13 11.48 8.51 14.88 8.51 1.25 0 2.35-.61 3.69-1.34 2.32-1.26 5.33-2.89 10.97-2.49 7.15.51 9.92-1.91 10.42-3.19-.28 1.63-1.15 5.87-2.34 9.78-.56 1.85-.27 4.19.06 6.89.55 4.45 1.23 9.91-1.54 15.85-2.85 6.09-2.16 8.9-1.23 12.72.54 2.18 1.15 4.69 1.23 8.33.1 4.8-1.37 7.59-2.95 10.58-1.7 3.24-3.53 6.71-3.65 13.22-.12 7.58 5.33 11.35 10.84 15.17 3.61 2.5 7.25 5.02 9.36 8.64 1.77 4.31 2.34 10.5 2.73 14.81.27 2.91.45 4.96.88 4.96 1.07 0 24.66-5.95 30.19-14.88 4.42-7.14 4.95-42.23 4.67-58.88 2.2 2.2 6.85 7.18 7.87 9.56.36.85.51 1.82.69 2.91.44 2.75.99 6.19 5.26 9.85 5.95 5.1 8.92 7.44 15.73 9.78 3.74.85 8.22 13.39 9.99 19.55.64-2.19 1.91-7.48 1.91-11.05 0-1.29-.28-4.43-.65-8.51-.9-10.06-2.32-25.8-1.26-33.37.79-5.41.25-10.18-.28-14.89-.61-5.46-1.21-10.83.28-16.99 2.21-9.18 2.05-16.44 1.7-18.92 1.63.22 5.61-.34 8.5-4.25 2.38-3.22.06-6.16-2.71-9.68-1.44-1.82-3-3.8-4.09-6.05-1.5-3.09-1.59-4.54-1.66-5.68-.08-1.28-.14-2.15-2.17-4.52-3.06-3.57-4.24-11.48 0-16.16 2.36-2.59 4.03-2.83 7.52-3.34.9-.13 1.92-.27 3.11-.48 7.23-1.28 5.53-11.27-.85-14.03-5.1-2.21-5.95-4.75-5.74-5.74 1.77-1.63 5.4-5.82 5.74-9.57.32-3.54-1.07-5.62-2.41-7.63-.42-.63-.84-1.26-1.2-1.93-.19-.35-.4-.71-.62-1.08-1.13-1.95-2.41-4.12-1.51-6.57.58-1.59 2-2.03 3.45-2.48 1.26-.39 2.56-.8 3.35-1.99 1.32-1.97.27-4.03-.77-6.07-.64-1.25-1.27-2.49-1.35-3.7-.19-2.78.11-3.46 2.02-7.81.28-.64.6-1.36.95-2.18 1.25-3.37.52-4.4-.25-5.48-.54-.77-1.11-1.57-1.02-3.24.11-2.11 1.26-3.23 2.46-4.4 1.1-1.07 2.23-2.17 2.64-4.1.32-1.53-.06-2.84-.41-4.07-.58-2.02-1.09-3.81 1.69-5.92 3.57-2.72 2.19-7.8 1.06-9.99 1.48-.5 6.08-2.76 12.54-7.87 6.46-5.1 6.23-17.14 5.31-22.53-.42 2.98-2.46 9.57-7.22 12.12-4.82 2.58-9.22.71-13.76-1.23-1.07-.46-2.15-.92-3.25-1.32-4.59-1.7-18.63-1.7-25.08-1.49-.43-1.91-2.47-6.63-7.23-10.2-3.38-2.54-5.8-8.29-8.23-14.07-1.85-4.41-3.71-8.83-6.01-11.87-4.25-5.61-11.41-5.17-14.45-4.25m37.62 131.79c-.44 2.75.61 3.83 1.79 5.04.55.57 1.14 1.16 1.61 1.97.7 1.21 1.35 2.45 1.92 3.53.63 1.2 1.14 2.19 1.48 2.64.51.68 3.61 2.83 5.1 3.82-.63.64-1.91 2.13-1.91 2.98 0 .34.26.62.53.9.58.61 1.2 1.27-.53 2.71-2.04 1.71-3.54 2.27-4.04 2.34.14-.99.04-3.57-1.49-5.95-.81-1.26-2.05-2.15-3.14-2.92-1.46-1.05-2.66-1.9-2.17-3.24.85-2.34-.21-5.74-.85-6.81-.64-1.06-2.13-4.88-1.91-6.37.17-1.19 2.48-.92 3.61-.64m9.49-12.54c-.69.54-1.53 1.21-2.05 2.34-.43-.5-1.32-1.58-1.49-1.92-.05-.11-.32-.36-.67-.71-1-.99-2.73-2.71-2.73-3.96 0-.65.12-1.02.23-1.34.17-.51.29-.88-.23-2.06-.33-.75-1.19-1.08-2.05-1.4-1.32-.5-2.63-1-1.99-3.07.72-2.29.56-2.55.13-3.32-.21-.38-.49-.87-.77-1.78-.45-1.48.07-2.29.39-2.79.28-.43.4-.62-.39-.82-1.36-.34-2.97 1.27-3.61 2.12.21-1.41.81-4.84 1.49-7.22s2.83-6.8 3.82-8.72c.78.43 2.72 1.28 4.25 1.28h2.77v3.61c0 .88 1.08 2.04 2.12 3.16.97 1.06 1.92 2.07 1.92 2.79 0 .58-.68 1.74-1.43 3.02-1.18 2.03-2.54 4.36-1.76 5.27 1.27 1.49.85 6.17 0 7.87-.75 1.5.32 2.67 1.91 4.39.2.23.42.46.64.71 1.13 1.25.48 1.77-.5 2.55" clip-rule="evenodd"/><path stroke="#f2c78b" stroke-width=".91" d="M246.06 237.78v-3.61m-2.77 0h2.77v3.61m0 0c0 .88 1.08 2.04 2.12 3.16.97 1.06 1.92 2.07 1.92 2.79 0 .58-.68 1.74-1.43 3.02-1.18 2.03-2.54 4.36-1.76 5.27 1.27 1.49.85 6.17 0 7.87-.75 1.5.32 2.67 1.91 4.39.2.23.42.46.64.71 1.13 1.25.48 1.77-.5 2.55-.69.54-1.53 1.21-2.05 2.34-.43-.5-1.32-1.58-1.49-1.92-.05-.11-.32-.36-.67-.71-1-.99-2.73-2.71-2.73-3.96 0-.65.12-1.02.23-1.34.17-.51.29-.88-.23-2.06-.33-.75-1.19-1.08-2.05-1.4-1.32-.5-2.63-1-1.99-3.07.72-2.29.56-2.55.13-3.32-.21-.38-.49-.87-.77-1.78-.45-1.48.07-2.29.39-2.79.28-.43.4-.62-.39-.82-1.36-.34-2.97 1.27-3.61 2.12.21-1.41.81-4.84 1.49-7.22s2.83-6.8 3.82-8.72c.78.43 2.72 1.28 4.25 1.28m2.77 0h-2.77M120.65 342.15c4.25 0 6.8-1.7 8.08-3.4 1.08-1.45 4.63-2.59 7.63-3.55.52-.17 1.03-.33 1.51-.49.69-.23 1.32-.46 1.92-.67 2.16-.77 4.03-1.43 7.85-2.1 3.92-.68 13.11-.28 17.22 0-.28 1.35-1.32 4.26-3.19 5.11-.78.35-1.95 1.05-3.24 1.81-2.55 1.51-5.55 3.29-6.96 3.29-1.99 0-8.27 3.54-11.85 5.56-.13.07-.25.14-.37.21-.11.06-.22.12-.32.18-3.4 1.91-11.27 2.13-13.6 1.7-.92-.17-2.12-.56-3.43-.99-2.07-.67-4.41-1.43-6.35-1.56-2.55-.17-7.16-3.47-9.14-5.1-3.96 5.16-1.37 8.23.89 10.91.53.63 1.04 1.24 1.45 1.84.41.62.84 1.29 1.29 1.97 1.87 2.86 3.96 6.05 5.51 7.6.64.64 1.68 1.53 2.82 2.51 2.22 1.91 4.84 4.16 5.68 5.56 1.28 2.13 11.48 8.51 14.88 8.51 1.25 0 2.35-.61 3.69-1.34 2.32-1.26 5.33-2.89 10.97-2.49 7.15.51 9.92-1.91 10.42-3.19-.28 1.63-1.15 5.87-2.34 9.78-.56 1.85-.27 4.19.06 6.89.55 4.45 1.23 9.91-1.54 15.85-2.85 6.09-2.16 8.9-1.23 12.72.54 2.18 1.15 4.69 1.23 8.33.1 4.8-1.37 7.59-2.95 10.58-1.7 3.24-3.53 6.71-3.65 13.22-.12 7.58 5.33 11.35 10.84 15.17 3.61 2.5 7.25 5.02 9.36 8.64 1.77 4.31 2.34 10.5 2.73 14.81.27 2.91.45 4.96.88 4.96 1.07 0 24.66-5.95 30.19-14.88 4.42-7.14 4.95-42.23 4.67-58.88 2.2 2.2 6.85 7.18 7.87 9.56.36.85.51 1.82.69 2.91.44 2.75.99 6.19 5.26 9.85 5.95 5.1 8.92 7.44 15.73 9.78 3.74.85 8.22 13.39 9.99 19.55.64-2.19 1.91-7.48 1.91-11.05 0-1.29-.28-4.43-.65-8.51-.9-10.06-2.32-25.8-1.26-33.37.79-5.41.25-10.18-.28-14.89-.61-5.46-1.21-10.83.28-16.99 2.21-9.18 2.05-16.44 1.7-18.92 1.63.22 5.61-.34 8.5-4.25 2.38-3.22.06-6.16-2.71-9.68-1.44-1.82-3-3.8-4.09-6.05-1.5-3.09-1.59-4.54-1.66-5.68-.08-1.28-.14-2.15-2.17-4.52-3.06-3.57-4.24-11.48 0-16.16 2.36-2.59 4.03-2.83 7.52-3.34.9-.13 1.92-.27 3.11-.48 7.23-1.28 5.53-11.27-.85-14.03-5.1-2.21-5.95-4.75-5.74-5.74 1.77-1.63 5.4-5.82 5.74-9.57.32-3.54-1.07-5.62-2.41-7.63-.42-.63-.84-1.26-1.2-1.93-.19-.35-.4-.71-.62-1.08-1.13-1.95-2.41-4.12-1.51-6.57.58-1.59 2-2.03 3.45-2.48 1.26-.39 2.56-.8 3.35-1.99 1.32-1.97.27-4.03-.77-6.07-.64-1.25-1.27-2.49-1.35-3.7-.19-2.78.11-3.46 2.02-7.81.28-.64.6-1.36.95-2.18 1.25-3.37.52-4.4-.25-5.48-.54-.77-1.11-1.57-1.02-3.24.11-2.11 1.26-3.23 2.46-4.4 1.1-1.07 2.23-2.17 2.64-4.1.32-1.53-.06-2.84-.41-4.07-.58-2.02-1.09-3.81 1.69-5.92 3.57-2.72 2.19-7.8 1.06-9.99 1.48-.5 6.08-2.76 12.54-7.87 6.46-5.1 6.23-17.14 5.31-22.53-.42 2.98-2.46 9.57-7.22 12.12-4.82 2.58-9.22.71-13.76-1.23-1.07-.46-2.15-.92-3.25-1.32-4.59-1.7-18.63-1.7-25.08-1.49-.43-1.91-2.47-6.63-7.23-10.2-3.38-2.54-5.8-8.29-8.23-14.07-1.85-4.41-3.71-8.83-6.01-11.87-4.25-5.61-11.41-5.17-14.45-4.25-3.26-.99-11.27-1.53-17.22 4.25 3.61.29 11.56 2.47 14.45 8.93 1.31 2.93 2.04 5.86 2.71 8.58 1.18 4.8 2.21 8.96 6.01 11.4 4.76 3.06 9.07 9.21 10.63 11.91-1.21.63-4.72 1.74-9.14 1.06-4.43-.68-7.8-7.37-8.93-10.63-.85 2.98-2.3 10.59-1.28 17.22s7.23 9.42 10.21 9.99c.21 3.33.51 12.62 0 23.17-.51 10.54-2.2 15.16-2.98 16.15-1.84.43-5.87 2.04-7.23 5.1s-.56 5.25 0 5.96c-.07.7-.89 2.42-3.61 3.61-2.46 1.08-6.94.82-13.58.43-2.52-.15-5.36-.31-8.53-.43-4.93-.18-7.98-.99-10.41-1.64-3.22-.86-5.35-1.43-9.36.15-4.74 1.87-5.3 4.13-6.09 7.31-.38 1.51-.81 3.24-1.77 5.23-1.71 3.55-4.05 4.77-6.91 6.26-2.11 1.11-4.5 2.36-7.12 4.79-3.12 2.91-3.84 5.5-4.54 8-.68 2.43-1.34 4.79-4.17 7.31-5.74 5.1-7.44 6.16-19.77 5.95-9.23-.16-12.14 2.42-14.63 4.62-.84.74-1.63 1.43-2.59 1.97-3.82 2.12-12.33-3.19-10.63-7.44s-1.48-6.38-3.82-3.83c-2.34 2.56-3.4 6.59 0 11.27 2.72 3.74 7.22 10.06 9.14 12.75 1.91 1.42 6.25 4.25 8.29 4.25 1.62 0 2.64 2.77 3.45 4.94.45 1.23.84 2.27 1.22 2.5 1.07.64 5.32 1.92 6.59 1.28 1.28-.64 3.19-1.28 6.17-1.28m14.24 2.77h-9.57m9.57 0h-9.57m0 0c-.68 0-3.11-1.84-4.25-2.77m0 0h-.42m.42 0h-.42m133.06-59.3c-1.13-.28-3.44-.55-3.61.64-.22 1.49 1.27 5.31 1.91 6.37.64 1.07 1.7 4.47.85 6.81-.49 1.34.71 2.19 2.17 3.24 1.09.77 2.33 1.66 3.14 2.92 1.53 2.38 1.63 4.96 1.49 5.95.5-.07 2-.63 4.04-2.34 1.73-1.44 1.11-2.1.53-2.71-.27-.28-.53-.56-.53-.9 0-.85 1.28-2.34 1.91-2.98-1.49-.99-4.59-3.14-5.1-3.82-.34-.45-.85-1.44-1.48-2.64-.57-1.08-1.22-2.32-1.92-3.53-.47-.81-1.06-1.4-1.61-1.97-1.18-1.21-2.23-2.29-1.79-5.04Z"/><path fill="url(#e)" stroke="#f2c78b" stroke-width=".91" d="M310.89 12.26c-3.23 1.7-1.91 12.18-.85 17.21-2.48-.42-11.14-.46-25.93 2.77-14.8 3.23-23.03 6.87-25.3 8.29-.92-4.25-3.31-13.35-5.52-15.73-2.77-2.98-10.63-6.17-12.54-9.14-1.92-2.98-7.02-4.25-12.97-7.44s-27.42-10.63-32.31-6.59-1.06 4.67.43 3.61c1.48-1.06 2.97 1.28 3.61 2.98s.21 5.1 2.12 7.44c1.92 2.34 1.92 5.74 2.77 10.41.85 4.68-.85 6.17 1.91 11.69 2.21 4.42 2.48 10.21 2.34 12.54-.71-.21-2.34-1.14-3.19-3.18s-1.63-5.25-1.91-6.59c-.71 2.97-1.7 10.71 0 17.85 2.12 8.93-2.34 8.72-4.68 14.46-1.87 4.59 3.61 6.73 6.59 7.22 0 1.14-.38 3.83-1.91 5.53-1.92 2.12-6.17.64-9.14 9.56-2.38 7.15-5.39 11.48-6.59 12.76 0-.57-.22-2.08-1.07-3.62-1.06-1.91-6.8-3.82-7.44 3.62-.5 5.95 5.46 8.86 8.51 9.56.56 1.56 2.12 5.02 3.82 6.38 2.13 1.7 5.11 1.06 9.57 0s8.5 0 11.9 1.06 8.5.64 11.9-1.06c2.73-1.36 6.81 1.13 8.51 2.55-1.49 1.13-6.42 4.42-14.24 8.5-9.78 5.1-17.22 3.19-27.64 0-10.41-3.18-9.35-14.03-6.16-14.24s1.06-3.83-3.19-4.25c-4.25-.43-13.82 4.89-9.78 21.04 4.04 16.16 29.97 23.39 52.5 18.07 22.54-5.31 55.06-48.68 63.77-58.45 8.72-9.78 11.48-20.41 13.82-16.37 1.87 3.23.78 21.75 0 30.61 1.13-.14 4-1.23 6.38-4.47 2.97-4.03 2.76-27.84 4.89-31.67 2.12-3.82 9.56-7.86 16.79-7.44 7.22.43 9.56-1.48 8.71-5.95-.85-4.46-9.14-2.34-10.41-4.89-1.28-2.55 4.04-4.25 7.86-2.33 3.83 1.91 7.44 1.91 10.2 2.33 2.77.43 5.96 1.7 8.29-2.33 2.34-4.04-1.06-7.87-4.25-7.87-2.55 0-4.18-1.7-4.67-2.55.71.28 2.76.3 5.31-1.91 3.19-2.77-5.1-2.98-9.14-3.83s-7.44-5.1-11.26-7.65c-3.83-2.55-2.13-5.53-3.62-4.46-1.49 1.06-3.61 3.18-7.65 0-4.04-3.19-7.23-8.93-6.59-11.48s1.49-4.68-2.55-2.55Z"/><path fill="url(#f)" stroke="#f2c78b" stroke-width=".91" d="m255.41 156.16 4.46-4.68c.57 1.07 1.79 3.87 2.13 6.59.43 3.4.21 11.27-5.95 17.65-6.17 6.37-6.8 5.52-8.93 9.35-1.7 3.06 3.12 5.52 5.74 6.37-1.91.78-6.5 1.62-9.57-1.27-3.82-3.61-1.91-4.04-5.1-5.1-3.19-1.07-10.2-8.72-14.45-15.52s.64-19.13 6.16-22.74c4.42-2.89 11.06-1.85 12.76-.85-1.7 1.27-6.38 4.89-9.14 6.8-5.53 3.82-4.47 19.55 9.77 20.19 11.4.51 12.83-10.98 12.12-16.79Z"/><path fill="url(#g)" stroke="#f2c78b" stroke-width=".91" d="M311.38 193.63c1.29-12.9 2.91-31.42 2.95-40.28.03-4.42-7.38-5.04-11.26-2.92-4.67 2.54-3.33 6.56-3.41 13.18-.42 38.19-3.52 95.1-3.75 97.72-.1 1.03-1.24 15.5-2.77 35.05.23 5.23 2.59 7.25 6.3 7.58 3.7.33 7.31-2.82 7.31-2.82s3.15-72.35 4.63-107.51Z"/><path fill="url(#h)" d="M322.82 203.99c.32-1.27.51-4.39-1.26-6.69-2.21-2.87-3.6-5.66-2.14-8.21 1.46-2.54.51-5.71-1.99-3.05-2.5 2.65-6.66 7.84-6.86 12.34-.15 3.6.28 6.88.52 8.06-1.26.3-3.82 1.35-3.98 3.14-.16 1.8.79 3.43 1.29 4.02-.27-.09-1.14-.1-2.52.6s-4.08 1.21-5.26 1.38c1.02.78 3.46 2.24 4.97 1.88s3.98-.81 5.02-.99l-.94 22.12c1.56.14 5.23-.15 7.41-2.43 1.54-1.6 2.43-2.75 2.88-3.42-1.36 2.34-3.57 6.54-3.74 8.49-.24 2.65-1.04 7.1-.43 9.41.62 2.32 4.43 8 4.1 11.67-.32 3.68-1.7 7.66-4.09 9.09-2.39 1.44-8.8 1.89-4.54 2.48 4.26.58 10.2.91 13.99-9.44 3.04-8.29 3.2-17.4 2.89-20.92.7-.14 2.14-.96 2.33-3.08s-.38-3.39-.69-3.76c1.21-2.09 3.54-7.46 3.15-12.26-.4-4.81-3.07-11.03-4.35-13.54 1.54-.35 4.66-1.52 4.83-3.48.22-2.45-.32-3.32-1.71-3.85-1.12-.43-4.13 1-5.5 1.77-.2-.09-.51-.75-1.14-1.13-.97-.6-1.83-.16-2.24-.2"/><path fill="url(#i)" d="M296.32 221c-2.49-.43-2.9 2.12-2.58 5.93.4 4.77 2.86 4.78 3.8 10.41.94 5.64 1.46 8.97.67 13.22-.63 3.4 3.02 7.74 4.92 9.48-.87-2.54-2.23-8.26-.69-10.75 1.92-3.12 2.07-11.74.45-14.35s-5.16-6.62-4.35-8.81c.65-1.75-.07-4.77-2.22-5.13"/><path stroke="#f2c78b" stroke-width=".91" d="M319.96 232.74c-.45.67-1.34 1.82-2.88 3.42-2.18 2.28-5.85 2.57-7.41 2.43l.94-22.12c-1.04.18-3.51.63-5.02.99s-3.95-1.1-4.97-1.88c1.18-.17 3.88-.68 5.26-1.38s2.25-.69 2.52-.6c-.5-.59-1.45-2.22-1.29-4.02.16-1.79 2.72-2.84 3.98-3.14-.24-1.18-.67-4.46-.52-8.06.2-4.5 4.36-9.69 6.86-12.34 2.5-2.66 3.45.51 1.99 3.05-1.46 2.55-.07 5.34 2.14 8.21 1.77 2.3 1.58 5.42 1.26 6.69.41.04 1.27-.4 2.24.2.63.38.94 1.04 1.14 1.13 1.37-.77 4.38-2.2 5.5-1.77 1.39.53 1.93 1.4 1.71 3.85-.17 1.96-3.29 3.13-4.83 3.48 1.28 2.51 3.95 8.73 4.35 13.54.39 4.8-1.94 10.17-3.15 12.26.31.37.88 1.64.69 3.76s-1.63 2.94-2.33 3.08c.31 3.52.15 12.63-2.89 20.92-3.79 10.35-9.73 10.02-13.99 9.44-4.26-.59 2.15-1.04 4.54-2.48 2.39-1.43 3.77-5.41 4.09-9.09.33-3.67-3.48-9.35-4.1-11.67-.61-2.31.19-6.76.43-9.41.17-1.95 2.38-6.15 3.74-8.49Zm0 0c.13-.22.25-.42.36-.61-.05.12-.17.32-.36.61ZM296.32 221c-2.49-.43-2.9 2.12-2.58 5.93.4 4.77 2.86 4.78 3.8 10.41.94 5.64 1.46 8.97.67 13.22-.63 3.4 3.02 7.74 4.92 9.48-.87-2.54-2.23-8.26-.69-10.75 1.92-3.12 2.07-11.74.45-14.35s-5.16-6.62-4.35-8.81c.65-1.75-.07-4.77-2.22-5.13Z"/><path fill="url(#j)" stroke="#f2c78b" stroke-width=".91" d="M448.15 285c-4.46.74-89.16 2.5-141.81 6.41-8.09 1.5-12.53 4.41-12.26 8.12.28 3.71 6.23 6.35 9.78 6.08 42.06-3.55 107.63-9.13 113.48-9.7 8.56-.84 31.51-1.52 38.12-3.65 6.62-2.13 12.35-7.9 17.96-15.29 5.61-7.4 8.59-22.61 6.84-26.79-1.39-3.34-6.21-3.58-8.45-3.27-.07-1.91.61-7.28 3.93-13.44 3.32-6.15 14.14-7.75 19.13-7.78-.2-.94-.83-2.89-1.67-3.16-1.05-.33-8.97-2-18.14 1.76s-14.44 12.97-14.04 18.28c.39 5.31 2.88 30.59.56 35.28-2.32 4.68-8.97 6.41-13.43 7.15Z"/><path fill="url(#k)" fill-rule="evenodd" stroke="#f2c78b" stroke-width=".91" d="M403.12 270.4c-.13 1.99 1.31 7.16 7.93 10.28 6.63 3.12 14.06 6.2 16.95 7.35.25 4.42 1.92 13.18 6.48 12.85 4.57-.34 6.17-2.51 7.64-4.88 1.24 1.07 3.74 3.01 6.35 2.81 4.28-.31 7.12-.32 6.66-6.43 0 0-1.55.27-2.43.38s-2.43.38-2.43.38c-.04 1.31-.44 1.27-1.91 1.38-1.84.13-3.38-1.39-3.7-5.67-.32-4.29.26-7.61 2.09-7.74 1.47-.11 2.71 2.94 3.1 3.66 0 0 1.31-.34 2.15-.57.81-.21 2.07-.56 2.07-.56-.06-.89-.53-3.86-1.79-5.4-1.27-1.55-3.05-1.55-3.79-1.36-.13-.74-.67-2.37-1.86-2.94-1.49-.71-4.7.14-6.07 1.07-1.37.92-4.8 1.58-6.87 1.33-1.66-.21-2.67-.9-2.96-1.22-.11.35-.24 1.21.13 1.83.38.63 1.46 1.26 1.96 1.5-4.89.43-15.73.76-19.99-1.39-4.26-2.14-8.25-5.33-9.71-6.66Zm31.42 25.76c2.15.16 4.4-1.56 6.62-4.8l-.14-1.83c-.13.14-2.22.41-3.9-.12-1.68-.54-3.92-1.22-4.83-1.49-.03 2.39.11 8.07 2.25 8.24Z" clip-rule="evenodd"/><path fill="url(#l)" stroke="#f2c78b" stroke-width=".91" d="M73.38 293.96c.42-1.95 33.2-70.34 46.5-113.72 1.55-5.03 3.6-13.27.17-16.25s-9.6-1.15-11.27 3.08c-3.54 9.02-8.88 22.03-11.32 28.78-2.43 6.74-41.77 102.81-44.81 108.88-1.54 4.16-3.46 12.94 1.22 14.78 5.85 2.3 9.57-3.57 11.94-7.93 1.89-3.49 5.84-13.2 7.57-17.62Z"/><path fill="url(#m)" d="M78.82 261.28c.48 3.71-.55 7.56-1.13 9.02 3.26-2.68 3.56-6.48 3.8-7.97.29-1.87.49-10.52 4.52-13.18 2.04-1.34 4.1-1.47 7.26-1.11 3.16.37 4.75-.33 4.55-2.61-.21-2.28-4.78-4.15-10.21-2.03-7.01 2.74-9.39 13.24-8.79 17.88"/><path fill="url(#n)" d="M77.47 245.19c-.48-.27-.38-.46-1.18-1.13-.79-.66-1.25-2.4-1.38-3.18-.72 1.62-2.13 5.28-2.06 6.89.09 2.01-1.14 6.81-3.82 9.72-2.68 2.9-6.21 4.59-7.21 8.82s-.66 5.02-.27 6.27c.39 1.26 3.2.82 3.59 2.07.38 1.26-1.4 1.88-3.3 1.13-1.91-.75-3.63-2.53-4.17-3.4s-2.38-4.02-.37-11.37c1.61-5.88 4.74-14.64 6.1-18.28-.6-.16-1.77-.87-1.69-2.43.1-1.94 3.57-14.65 6.54-19.42 2.38-3.82 6.45-5.76 8.18-6.25-.56-.07-1.97-.91-3.18-3.67-1.5-3.45-1.29-7.33 1.45-6.47s3.67 4.08 6.11 4.6c1.95.42 3.35.44 3.8.4-.18-1.02.27-3.59 3.55-5.65 4.09-2.57 6-6.87 4.74-8.69-1.27-1.82 1.69-3.74 3.26-1.58s4.09 3.59 2.71 8.77c-.79 2.97-1.48 4.7-2.42 6.31.59 1.04 1.5 3.62.36 5.64-1.15 2.01-3.32 3.68-4.26 4.26.44.32 1.25 1.38.95 3.02-.37 2.05-1.01 3.12.1 4.22 1.11 1.09.74 2.05-.67 1.71-1.41-.33-2.98-1.39-3.06-3.4-.07-1.61-2.06-3.09-2.42-3.37z"/><path stroke="#f2c78b" stroke-width=".91" d="M78.82 261.28c.48 3.71-.55 7.56-1.13 9.02 3.26-2.68 3.56-6.48 3.8-7.97.29-1.87.49-10.52 4.52-13.18 2.04-1.34 4.1-1.47 7.26-1.11 3.16.37 4.75-.33 4.55-2.61-.21-2.28-4.78-4.15-10.21-2.03-7.01 2.74-9.39 13.24-8.79 17.88Z"/><path stroke="#f2c78b" stroke-width=".91" d="M77.47 245.19c-.48-.27-.38-.46-1.18-1.13-.79-.66-1.25-2.4-1.38-3.18-.72 1.62-2.13 5.28-2.06 6.89.09 2.01-1.14 6.81-3.82 9.72-2.68 2.9-6.21 4.59-7.21 8.82s-.66 5.02-.27 6.27c.39 1.26 3.2.82 3.59 2.07.38 1.26-1.4 1.88-3.3 1.13-1.91-.75-3.63-2.53-4.17-3.4s-2.38-4.02-.37-11.37c1.61-5.88 4.74-14.64 6.1-18.28-.6-.16-1.77-.87-1.69-2.43.1-1.94 3.57-14.65 6.54-19.42 2.38-3.82 6.45-5.76 8.18-6.25-.56-.07-1.97-.91-3.18-3.67-1.5-3.45-1.29-7.33 1.45-6.47s3.67 4.08 6.11 4.6c1.95.42 3.35.44 3.8.4-.18-1.02.27-3.59 3.55-5.65 4.09-2.57 6-6.87 4.74-8.69-1.27-1.82 1.69-3.74 3.26-1.58s4.09 3.59 2.71 8.77c-.79 2.97-1.48 4.7-2.42 6.31.59 1.04 1.5 3.62.36 5.64-1.15 2.01-3.32 3.68-4.26 4.26.44.32 1.25 1.38.95 3.02-.37 2.05-1.01 3.12.1 4.22 1.11 1.09.74 2.05-.67 1.71-1.41-.33-2.98-1.39-3.06-3.4-.07-1.61-2.06-3.09-2.42-3.37z"/><path fill="url(#o)" stroke="#f2c78b" stroke-width=".91" d="M79.75 336.31c-5.1-9.24-14.53-23.53-16.33-25.26-1.79-1.73-5.42-4.44-10.47-.69-5.04 3.75.78 13.39 8.66 23.99 31.66 42.54 45.58 63.22 70.42 98.33 3.34 4.15 8.12 7.48 11.76 9.63 2.9 1.71 9.26 3.69 15.34 3.13 9.79-.91 20.49-5.04 21.41-8.27.73-2.59-1.64-6.44-2.92-8.04 2.96-2.2 10.34-6.42 16.2-5.67 5.86.74 13.11 8.7 16 12.59.75-.82 2.07-2.92 1.29-4.79-.98-2.33-6.77-8.75-8.19-9.98-1.43-1.23-9.44-5.48-17.14-4.86-7.7.63-13.37 5.36-22.12 12.12-8.75 6.77-18.33 6.24-20.78 5s-15.16-18.32-17.65-22.35c-2.48-4.02-36.69-58.95-45.48-74.88Z"/><path fill="url(#p)" fill-rule="evenodd" stroke="#f2c78b" stroke-width=".91" d="M123.4 379.81c-1.75.96-5.34 4.94-4.42 12.2.92 7.27 2.3 15.2 2.87 18.25-3.6 2.59-10.1 8.69-7.37 12.36 2.74 3.68 5.43 3.87 8.21 3.83-.24 1.63-.53 4.78 1.03 6.88 2.56 3.44 5.14 4.84 10.06 1.18 0 0-.95-1-1.51-1.68-.56-.69-1.36-1.82-1.36-1.82-1.12.66-2.74 1.1-3.62-.08-1.1-1.48-.64-3.6 2.8-6.16 3.45-2.57 6.56-3.86 7.66-2.39.88 1.18-.68 3.65-1.08 4.37 0 0 .78 1.05 1.28 1.73.5.67 1.44 1.6 1.44 1.6.71-.53 3.11-2.67 3.74-4.57.63-1.89-.32-3.41-.88-3.93.56-.5 1.64-1.83 1.48-3.14-.2-1.63-2.64-3.89-4.15-4.55s-3.91-3.21-4.8-5.09c-.72-1.51-.68-2.73-.57-3.15-.35.09-1.14.44-1.47 1.1-.33.65-.28 1.9-.22 2.45-2.98-3.9-9.06-12.87-9.54-17.62-.47-4.74.08-9.83.42-11.77Zm-4.9 40.33c1.01 1.9 3.67 2.88 7.59 3.02l1.48-1.1c-.19-.03-1.54-1.66-1.99-3.36s-1.08-3.96-1.33-4.87c-2.04 1.26-6.76 4.41-5.75 6.31Z" clip-rule="evenodd"/><defs><linearGradient id="a" x1="253.92" x2="16.03" y1="356.32" y2="356.32" gradientUnits="userSpaceOnUse"><stop stop-color="#bd7b49"/><stop offset="1" stop-color="#3c3024"/></linearGradient><linearGradient id="b" x1="253.92" x2="16.03" y1="356.32" y2="356.32" gradientUnits="userSpaceOnUse"><stop stop-color="#bd7b49"/><stop offset="1" stop-color="#3c3024"/></linearGradient><linearGradient id="c" x1="399.64" x2="110" y1="301.26" y2="301.26" gradientUnits="userSpaceOnUse"><stop stop-color="#fcf0d6"/><stop offset="1" stop-color="#ffc446"/></linearGradient><linearGradient id="d" x1="287.56" x2="69.38" y1="321.32" y2="321.32" gradientUnits="userSpaceOnUse"><stop stop-color="#3c3024"/><stop offset="1" stop-color="#bd7b49"/></linearGradient><linearGradient id="e" x1="356.09" x2="171.54" y1="78.85" y2="78.85" gradientUnits="userSpaceOnUse"><stop stop-color="#3c3024"/><stop offset="1" stop-color="#bd7b49"/></linearGradient><linearGradient id="f" x1="262.14" x2="222.13" y1="168.56" y2="168.56" gradientUnits="userSpaceOnUse"><stop stop-color="#bd7b49"/><stop offset="1" stop-color="#3c3024"/></linearGradient><linearGradient id="g" x1="313.31" x2="293.4" y1="227.43" y2="225.66" gradientUnits="userSpaceOnUse"><stop stop-color="#fcf0d6"/><stop offset="1" stop-color="#ffc446"/></linearGradient><linearGradient id="h" x1="332.54" x2="293.36" y1="231.02" y2="227.53" gradientUnits="userSpaceOnUse"><stop stop-color="#3c3024"/><stop offset="1" stop-color="#bd7b49"/></linearGradient><linearGradient id="i" x1="332.54" x2="293.36" y1="231.02" y2="227.53" gradientUnits="userSpaceOnUse"><stop stop-color="#3c3024"/><stop offset="1" stop-color="#bd7b49"/></linearGradient><linearGradient id="j" x1="391.98" x2="397.15" y1="228.85" y2="298.7" gradientUnits="userSpaceOnUse"><stop stop-color="#fcf0d6"/><stop offset="1" stop-color="#ffc446"/></linearGradient><linearGradient id="k" x1="428.15" x2="430.57" y1="268.55" y2="301.17" gradientUnits="userSpaceOnUse"><stop stop-color="#3c3024"/><stop offset="1" stop-color="#bd7b49"/></linearGradient><linearGradient id="l" x1="95.67" x2="78.76" y1="245" y2="238.35" gradientUnits="userSpaceOnUse"><stop stop-color="#fcf0d6"/><stop offset="1" stop-color="#ffc446"/></linearGradient><linearGradient id="m" x1="99.36" x2="63.53" y1="242.47" y2="228.38" gradientUnits="userSpaceOnUse"><stop stop-color="#3c3024"/><stop offset="1" stop-color="#bd7b49"/></linearGradient><linearGradient id="n" x1="99.36" x2="63.53" y1="242.47" y2="228.38" gradientUnits="userSpaceOnUse"><stop stop-color="#3c3024"/><stop offset="1" stop-color="#bd7b49"/></linearGradient><linearGradient id="o" x1="155.08" x2="103.32" y1="355.58" y2="394.09" gradientUnits="userSpaceOnUse"><stop stop-color="#fcf0d6"/><stop offset="1" stop-color="#ffc446"/></linearGradient><linearGradient id="p" x1="138.33" x2="112.09" y1="399.88" y2="419.41" gradientUnits="userSpaceOnUse"><stop stop-color="#3c3024"/><stop offset="1" stop-color="#bd7b49"/></linearGradient></defs></svg>