<svg width="509" height="444" viewBox="0 0 509 444" fill="none" xmlns="http://www.w3.org/2000/svg">
<path d="M253.5 468.409C257.751 458.206 228.63 438.438 213.113 418.032C212.617 414.206 207.587 408.085 191.432 414.206C171.298 421.836 161.941 442.992 157.04 454.071L156.998 454.168C152.109 465.221 139.355 475.849 127.027 482.438C114.699 489.027 116.399 489.877 110.235 495.404C104.071 500.931 94.718 499.443 88.3412 501.781C81.9645 504.119 80.4766 508.795 67.2979 514.322C54.1192 519.848 52.4188 523.462 41.3657 531.539C30.3126 539.616 23.0856 530.901 24.1484 529.201C25.2112 527.5 28.8247 528.563 28.8247 523.462C28.8247 518.36 15.2209 524.312 16.0712 532.602C16.9214 540.892 21.3851 545.355 35.8392 547.481C50.2932 549.607 44.129 547.268 67.2979 547.481C90.4668 547.694 128.727 534.727 148.708 532.602C168.689 530.476 187.394 525.8 198.234 516.447C209.075 507.095 249.248 478.612 253.5 468.409Z" fill="url(#paint0_linear_24_9448)"/>
<path d="M195.471 204.836C199.722 198.884 200.05 191.934 201.21 183.58C202.273 175.927 201.253 165.64 195.471 164.45C188.244 162.962 179.742 170.614 177.616 175.928C175.916 180.179 175.774 184.784 175.916 186.556C174.286 185.847 170.304 184.855 167.413 186.556C163.8 188.681 162.949 193.57 161.036 195.483C159.123 197.396 156.148 200.797 153.597 202.71C151.046 204.623 146.157 214.188 142.544 214.826C138.93 215.464 138.08 219.502 136.38 221.415C134.679 223.328 132.341 225.242 128.727 227.58C125.114 229.918 125.752 231.618 124.901 232.894C124.221 233.914 120.225 238.42 118.312 240.546C114.415 242.246 106.026 246.752 103.645 251.174C100.67 256.7 103.22 257.763 106.621 260.526C110.022 263.29 112.786 259.676 115.336 257.763C117.887 255.85 120.65 255 122.776 253.512C124.901 252.024 129.578 246.497 132.341 243.096C135.104 239.696 138.505 239.696 140.418 239.058C142.331 238.42 143.819 233.744 145.307 231.618C146.795 229.493 147.22 230.555 152.534 226.729C157.848 222.903 156.148 222.266 157.635 219.928C159.123 217.589 163.162 213.976 168.476 209.937C173.79 205.899 173.152 202.71 178.891 199.097C184.631 195.483 186.756 188.469 186.756 190.169C186.756 191.87 184.418 198.884 181.23 202.71C178.041 206.536 175.916 206.324 173.152 208.024C170.389 209.725 165.075 215.889 165.075 217.802C165.075 219.715 160.611 224.816 158.486 226.729C156.36 228.642 154.022 232.894 150.621 236.932C147.22 240.971 145.095 244.159 143.819 246.497C142.544 248.836 137.442 249.686 135.317 252.662C133.191 255.637 132.554 257.763 129.578 259.038C126.602 260.314 122.776 263.502 121.5 266.265C120.225 269.029 123.839 274.555 126.602 273.28C129.365 272.005 137.017 269.029 137.442 268.178C137.868 267.328 144.032 262.652 146.157 260.526C148.283 258.401 148.921 253.512 156.148 251.174C163.375 248.836 161.674 248.41 165.075 244.159C168.476 239.908 174.853 231.406 175.916 229.705C176.978 228.005 182.292 224.391 185.268 219.928C188.244 215.464 191.22 210.787 195.471 204.836Z" fill="url(#paint1_linear_24_9448)"/>
<path d="M253.5 468.409C257.751 458.206 228.63 438.438 213.113 418.032C212.617 414.206 207.587 408.085 191.432 414.206C171.298 421.836 161.941 442.992 157.04 454.071L156.998 454.168C152.109 465.221 139.355 475.849 127.027 482.438C114.699 489.027 116.399 489.877 110.235 495.404C104.071 500.931 94.718 499.443 88.3412 501.781C81.9645 504.119 80.4766 508.795 67.2979 514.322C54.1192 519.848 52.4188 523.462 41.3657 531.539C30.3126 539.616 23.0856 530.901 24.1484 529.201C25.2112 527.5 28.8247 528.563 28.8247 523.462C28.8247 518.36 15.2209 524.312 16.0712 532.602C16.9214 540.892 21.3851 545.355 35.8392 547.481C50.2932 549.607 44.129 547.268 67.2979 547.481C90.4668 547.694 128.727 534.727 148.708 532.602C168.689 530.476 187.394 525.8 198.234 516.447C209.075 507.095 249.248 478.612 253.5 468.409Z" stroke="#F2C78B" stroke-width="0.91191"/>
<path d="M195.471 204.836C199.722 198.884 200.05 191.934 201.21 183.58C202.273 175.927 201.253 165.64 195.471 164.45C188.244 162.962 179.742 170.614 177.616 175.928C175.916 180.179 175.774 184.784 175.916 186.556C174.286 185.847 170.304 184.855 167.413 186.556C163.8 188.681 162.949 193.57 161.036 195.483C159.123 197.396 156.148 200.797 153.597 202.71C151.046 204.623 146.157 214.188 142.544 214.826C138.93 215.464 138.08 219.502 136.38 221.415C134.679 223.328 132.341 225.242 128.727 227.58C125.114 229.918 125.752 231.618 124.901 232.894C124.221 233.914 120.225 238.42 118.312 240.546C114.415 242.246 106.026 246.752 103.645 251.174C100.67 256.7 103.22 257.763 106.621 260.526C110.022 263.29 112.786 259.676 115.336 257.763C117.887 255.85 120.65 255 122.776 253.512C124.901 252.024 129.578 246.497 132.341 243.096C135.104 239.696 138.505 239.696 140.418 239.058C142.331 238.42 143.819 233.744 145.307 231.618C146.795 229.493 147.22 230.555 152.534 226.729C157.848 222.903 156.148 222.266 157.635 219.928C159.123 217.589 163.162 213.976 168.476 209.937C173.79 205.899 173.152 202.71 178.891 199.097C184.631 195.483 186.756 188.469 186.756 190.169C186.756 191.87 184.418 198.884 181.23 202.71C178.041 206.536 175.916 206.324 173.152 208.024C170.389 209.725 165.075 215.889 165.075 217.802C165.075 219.715 160.611 224.816 158.486 226.729C156.36 228.642 154.022 232.894 150.621 236.932C147.22 240.971 145.095 244.159 143.819 246.497C142.544 248.836 137.442 249.686 135.317 252.662C133.191 255.637 132.554 257.763 129.578 259.038C126.602 260.314 122.776 263.502 121.5 266.265C120.225 269.029 123.839 274.555 126.602 273.28C129.365 272.005 137.017 269.029 137.442 268.178C137.868 267.328 144.032 262.652 146.157 260.526C148.283 258.401 148.921 253.512 156.148 251.174C163.375 248.836 161.674 248.41 165.075 244.159C168.476 239.908 174.853 231.406 175.916 229.705C176.978 228.005 182.292 224.391 185.268 219.928C188.244 215.464 191.22 210.787 195.471 204.836Z" stroke="#F2C78B" stroke-width="0.91191"/>
<path d="M310.039 90.2659C310.039 101.489 307.488 107.271 306.212 108.759C306.212 101.744 305.617 86.1846 303.237 80.0629C300.261 72.4108 294.309 77.5122 294.734 80.7006C295.159 83.889 294.097 84.9518 291.971 88.5653C290.271 91.4561 290.412 93.7375 290.696 94.5169C276.312 109.467 245.888 140.685 239.256 145.956C230.967 152.546 171.45 153.183 140.841 156.584C110.233 159.985 109.808 160.41 110.02 169.763C110.233 179.115 144.668 175.077 173.15 176.352C201.633 177.628 213.962 196.12 212.474 226.516C210.986 256.912 169.537 390.187 164.648 421.645C159.759 453.104 158.059 456.505 159.334 493.703C160.609 530.901 156.571 530.05 150.832 536.427C145.093 542.804 146.793 549.818 153.382 549.393C159.972 548.968 167.624 549.818 184.416 550.456C201.208 551.094 191.643 541.954 184.416 538.765C177.189 535.577 172.3 531.751 172.3 524.099C172.3 516.447 176.126 490.089 183.778 462.244C189.9 439.968 207.443 406.199 215.45 392.1C218.851 428.589 225.695 504.713 225.865 517.297C226.078 533.026 216.513 535.364 216.725 543.442C216.938 551.519 238.619 548.543 256.686 547.48C274.754 546.418 260.3 537.277 252.86 535.364C245.421 533.451 241.807 531.113 241.382 522.823C240.957 514.534 243.933 496.466 244.783 480.312C245.633 464.157 248.609 325.781 240.957 308.564C233.305 291.347 231.604 281.781 231.392 266.265C231.179 250.748 231.604 240.97 238.831 229.917C246.058 218.864 259.237 214.613 266.464 212.062C273.691 209.511 281.556 205.048 286.019 191.231C289.59 180.178 284.531 170.755 281.556 167.425C288.57 165.512 304.002 161.133 309.613 158.922C316.628 156.159 316.84 150.845 309.613 147.232C303.832 144.341 276.029 146.594 262.85 148.082C267.243 143.76 278.962 132.905 290.696 124.063C305.362 113.01 320.666 116.411 343.41 115.56C361.605 114.88 362.186 107.341 360.202 103.657C361.407 103.94 364.071 104.04 365.091 102.169C366.112 100.299 364.099 98.4138 362.966 97.7053C363.249 97.6345 364.071 97.4502 365.091 97.2802C366.112 97.1102 365.942 94.6586 365.729 93.4541C368.209 93.5958 373.594 93.2416 375.294 90.6909C376.995 88.1402 375.436 85.2352 374.444 84.1015C375.578 84.7392 380.183 85.802 389.536 84.9518C398.888 84.1015 400.093 81.3383 399.526 80.0629C396.975 79.7086 390.131 77.9373 383.159 73.6861C374.444 68.3722 364.241 59.8698 357.014 56.6814C349.787 53.493 342.135 57.3193 337.034 53.7058C331.932 50.0922 327.893 52.8555 327.043 57.3193C326.193 61.783 341.285 63.2709 337.034 66.2467C332.782 69.2225 324.28 61.5704 317.478 68.3723C310.676 75.1742 310.039 76.237 310.039 90.2659Z" fill="url(#paint2_linear_24_9448)" stroke="#F2C78B" stroke-width="0.91191"/>
<path fill-rule="evenodd" clip-rule="evenodd" d="M201.846 148.293C198.587 147.301 190.58 146.763 184.629 152.545C188.242 152.828 196.192 155.01 199.083 161.472C200.393 164.4 201.116 167.327 201.789 170.052C202.973 174.846 204.003 179.013 207.798 181.453C212.559 184.513 216.867 190.664 218.426 193.356C217.221 193.994 213.707 195.099 209.286 194.419C204.864 193.739 201.492 187.05 200.358 183.791C199.508 186.767 198.063 194.376 199.083 201.008C200.103 207.64 206.31 210.432 209.286 210.998C209.498 214.328 209.796 223.624 209.286 234.167C208.776 244.71 207.089 249.33 206.31 250.322C204.468 250.747 200.443 252.362 199.083 255.423C197.722 258.484 198.516 260.666 199.083 261.375C199.012 262.083 198.19 263.798 195.469 264.988C193.006 266.066 188.534 265.806 181.893 265.418C179.367 265.271 176.526 265.105 173.363 264.988C168.431 264.806 165.383 263.995 162.954 263.349C159.73 262.492 157.596 261.924 153.595 263.5C148.849 265.37 148.287 267.63 147.498 270.805C147.121 272.322 146.693 274.049 145.731 276.041C144.019 279.586 141.675 280.811 138.82 282.304C136.71 283.407 134.321 284.656 131.702 287.094C128.577 290.004 127.855 292.586 127.156 295.089C126.476 297.523 125.816 299.884 122.987 302.399C117.248 307.5 115.547 308.563 103.219 308.35C93.993 308.191 91.076 310.77 88.5887 312.969C87.7522 313.708 86.9643 314.405 86.0014 314.94C82.1753 317.065 73.673 311.751 75.3735 307.5C77.0739 303.249 73.8855 301.123 71.5474 303.674C69.2092 306.225 68.1464 310.263 71.5474 314.94C74.2681 318.681 78.7744 325.001 80.6874 327.693C82.6005 329.11 86.9367 331.944 88.9772 331.944C90.6025 331.944 91.6237 334.706 92.4257 336.875C92.8823 338.11 93.2679 339.153 93.6535 339.384C94.7163 340.022 98.9675 341.297 100.243 340.659C101.518 340.022 103.431 339.384 106.407 339.384H106.832C107.966 340.305 110.403 342.147 111.083 342.147H120.649C124.9 342.147 127.45 340.447 128.726 338.746C129.811 337.299 133.362 336.159 136.36 335.197C136.884 335.029 137.392 334.866 137.866 334.708C138.561 334.476 139.185 334.254 139.788 334.041C141.947 333.274 143.821 332.609 147.644 331.944C151.555 331.264 160.751 331.661 164.861 331.944C164.577 333.291 163.543 336.196 161.672 337.046C160.887 337.403 159.717 338.096 158.429 338.86C155.885 340.367 152.881 342.147 151.47 342.147C149.479 342.147 143.203 345.688 139.62 347.709C139.494 347.78 139.371 347.85 139.252 347.917C139.141 347.98 139.033 348.04 138.929 348.099C135.528 350.012 127.663 350.225 125.325 349.799C124.414 349.634 123.212 349.242 121.896 348.813C119.835 348.142 117.493 347.378 115.547 347.249C112.996 347.079 108.391 343.777 106.407 342.147C102.447 347.312 105.041 350.385 107.3 353.061C107.83 353.689 108.341 354.295 108.745 354.901C109.158 355.519 109.594 356.186 110.043 356.872C111.911 359.725 114.005 362.924 115.547 364.466C116.195 365.113 117.231 366.004 118.369 366.982L118.37 366.982C120.595 368.894 123.206 371.137 124.049 372.543C125.325 374.669 135.528 381.046 138.929 381.046C140.178 381.046 141.283 380.444 142.624 379.713C144.935 378.455 147.946 376.816 153.595 377.22C160.737 377.73 163.515 375.307 164.011 374.031C163.727 375.661 162.863 379.898 161.672 383.809C161.109 385.659 161.399 387.996 161.734 390.705C162.284 395.154 162.959 400.607 160.185 406.553C157.345 412.637 158.032 415.453 158.963 419.269C159.495 421.451 160.107 423.961 160.185 427.596C160.287 432.398 158.818 435.186 157.24 438.18C155.536 441.415 153.706 444.889 153.595 451.403C153.467 458.976 158.919 462.751 164.429 466.566C168.044 469.068 171.683 471.588 173.788 475.209C175.562 479.518 176.128 485.715 176.52 490.018C176.786 492.932 176.973 494.977 177.402 494.977C178.465 494.977 202.059 489.026 207.585 480.098C212.006 472.956 212.545 437.87 212.262 421.219C214.458 423.416 219.106 428.404 220.126 430.784C220.487 431.626 220.644 432.604 220.817 433.689C221.258 436.439 221.809 439.879 226.078 443.538C232.03 448.639 235.005 450.978 241.807 453.316C245.548 454.166 250.026 466.707 251.797 472.871C252.435 470.675 253.711 465.389 253.711 461.818C253.711 460.53 253.428 457.386 253.061 453.308C252.155 443.248 250.739 427.506 251.797 419.944C252.585 414.531 252.051 409.757 251.524 405.05C250.914 399.591 250.314 394.224 251.797 388.06C254.008 378.877 253.852 371.622 253.498 369.142C255.128 369.355 259.11 368.802 262 364.891C264.38 361.672 262.059 358.729 259.285 355.213C257.847 353.39 256.287 351.412 255.198 349.162C253.702 346.069 253.61 344.615 253.539 343.482C253.458 342.2 253.403 341.328 251.372 338.959C248.312 335.388 247.135 327.479 251.372 322.804C253.727 320.206 255.401 319.966 258.892 319.464C259.793 319.334 260.815 319.188 262 318.978C269.227 317.703 267.527 307.713 261.15 304.949C256.049 302.739 255.198 300.202 255.411 299.21C257.182 297.581 260.81 293.386 261.15 289.645C261.473 286.097 260.082 284.018 258.743 282.014C258.317 281.377 257.896 280.747 257.537 280.08C257.347 279.727 257.136 279.367 256.921 278.997L256.921 278.997C255.786 277.052 254.515 274.876 255.411 272.428C255.993 270.836 257.406 270.398 258.856 269.949C260.123 269.556 261.42 269.154 262.213 267.964C263.53 265.989 262.48 263.931 261.441 261.894C260.803 260.643 260.168 259.399 260.087 258.186C259.902 255.409 260.201 254.728 262.107 250.384C262.39 249.741 262.707 249.018 263.063 248.196C264.31 244.83 263.582 243.804 262.81 242.715C262.266 241.949 261.7 241.151 261.788 239.481C261.899 237.373 263.053 236.249 264.251 235.082C265.348 234.014 266.483 232.909 266.889 230.979C267.211 229.452 266.833 228.138 266.481 226.91C265.901 224.89 265.388 223.104 268.165 220.989C271.736 218.268 270.361 213.195 269.227 210.998C270.715 210.502 275.306 208.235 281.768 203.134C288.23 198.032 288.003 185.987 287.082 180.602C286.657 183.578 284.617 190.168 279.855 192.718C275.04 195.298 270.642 193.425 266.098 191.49C265.026 191.033 263.946 190.573 262.85 190.168C258.259 188.467 244.216 188.467 237.768 188.68C237.343 186.767 235.303 182.048 230.541 178.477C227.163 175.943 224.744 170.19 222.311 164.406C220.458 160.001 218.598 155.577 216.3 152.545C212.049 146.933 204.893 147.372 201.846 148.293ZM239.469 280.08C239.034 282.833 240.081 283.907 241.263 285.119C241.815 285.686 242.396 286.282 242.87 287.094C243.571 288.296 244.224 289.544 244.786 290.617C245.418 291.823 245.934 292.809 246.271 293.259C246.781 293.939 249.884 296.093 251.372 297.085C250.735 297.722 249.459 299.21 249.459 300.061C249.459 300.4 249.72 300.675 249.991 300.961C250.569 301.569 251.195 302.228 249.459 303.674C247.419 305.375 245.917 305.941 245.421 306.012C245.562 305.02 245.463 302.441 243.933 300.061C243.119 298.795 241.882 297.914 240.795 297.139C239.326 296.092 238.13 295.24 238.619 293.896C239.469 291.558 238.406 288.157 237.769 287.094C237.131 286.032 235.643 282.206 235.856 280.718C236.026 279.527 238.335 279.797 239.469 280.08ZM248.957 267.537C248.274 268.077 247.431 268.745 246.909 269.877C246.484 269.381 245.591 268.304 245.421 267.964C245.365 267.853 245.105 267.595 244.751 267.245C243.755 266.26 242.02 264.542 242.02 263.288C242.02 262.638 242.144 262.268 242.25 261.952C242.421 261.44 242.545 261.069 242.02 259.887C241.686 259.136 240.827 258.81 239.972 258.487C238.65 257.986 237.336 257.488 237.981 255.423C238.696 253.135 238.545 252.868 238.111 252.096C237.9 251.721 237.622 251.226 237.343 250.322C236.888 248.842 237.408 248.032 237.729 247.534C238.006 247.103 238.133 246.906 237.343 246.708C235.983 246.368 234.368 247.984 233.73 248.834C233.943 247.417 234.538 243.988 235.218 241.607C235.898 239.226 238.052 234.805 239.044 232.892C239.823 233.317 241.765 234.167 243.295 234.167H246.058V237.781C246.058 238.659 247.137 239.822 248.179 240.945C249.154 241.996 250.097 243.013 250.097 243.732C250.097 244.311 249.422 245.468 248.672 246.754C247.493 248.775 246.129 251.113 246.909 252.022C248.184 253.51 247.759 258.186 246.909 259.887C246.157 261.391 247.234 262.562 248.816 264.284C249.023 264.508 249.238 264.743 249.459 264.988C250.589 266.243 249.94 266.757 248.957 267.537Z" fill="url(#paint3_linear_24_9448)"/>
<path d="M246.058 237.781C246.058 236.42 246.058 234.805 246.058 234.167M243.295 234.167C244.826 234.167 245.775 234.167 246.058 234.167V237.781M246.058 237.781C246.058 238.659 247.137 239.822 248.179 240.945C249.154 241.996 250.097 243.013 250.097 243.732C250.097 244.311 249.422 245.468 248.672 246.754C247.493 248.775 246.129 251.113 246.909 252.022C248.184 253.51 247.759 258.186 246.909 259.887C246.157 261.391 247.234 262.562 248.816 264.284C249.023 264.508 249.238 264.743 249.459 264.988C250.589 266.243 249.94 266.757 248.957 267.537C248.274 268.077 247.431 268.745 246.909 269.877C246.484 269.381 245.591 268.304 245.421 267.964C245.365 267.853 245.105 267.595 244.751 267.245C243.755 266.26 242.02 264.542 242.02 263.288C242.02 262.638 242.144 262.268 242.25 261.952C242.421 261.44 242.545 261.069 242.02 259.887C241.686 259.136 240.827 258.81 239.972 258.487C238.65 257.986 237.336 257.488 237.981 255.423C238.696 253.135 238.545 252.868 238.111 252.096C237.9 251.721 237.622 251.226 237.343 250.322C236.888 248.842 237.408 248.032 237.729 247.534C238.006 247.103 238.133 246.906 237.343 246.708C235.983 246.368 234.368 247.984 233.73 248.834C233.943 247.417 234.538 243.988 235.218 241.607C235.898 239.226 238.052 234.805 239.044 232.892C239.823 233.317 241.765 234.167 243.295 234.167M246.058 234.167H243.295M120.649 342.147C124.9 342.147 127.45 340.447 128.726 338.746C129.811 337.299 133.362 336.159 136.36 335.197C136.884 335.029 137.392 334.866 137.866 334.708C138.561 334.476 139.185 334.254 139.788 334.041C141.947 333.274 143.821 332.609 147.644 331.944C151.555 331.264 160.751 331.661 164.861 331.944C164.577 333.291 163.543 336.196 161.672 337.046C160.887 337.403 159.717 338.096 158.429 338.86C155.885 340.367 152.881 342.147 151.47 342.147C149.479 342.147 143.203 345.688 139.62 347.709C139.494 347.78 139.371 347.85 139.252 347.917C139.141 347.98 139.033 348.04 138.929 348.099C135.528 350.012 127.663 350.225 125.325 349.799C124.414 349.634 123.212 349.242 121.896 348.813C119.835 348.142 117.493 347.378 115.547 347.249C112.996 347.079 108.391 343.777 106.407 342.147C102.447 347.312 105.041 350.385 107.3 353.061C107.83 353.689 108.341 354.295 108.745 354.901C109.158 355.519 109.594 356.186 110.043 356.872C111.911 359.725 114.005 362.924 115.547 364.466C116.195 365.113 117.231 366.004 118.369 366.982L118.37 366.982C120.595 368.894 123.206 371.137 124.049 372.543C125.325 374.669 135.528 381.046 138.929 381.046C140.178 381.046 141.283 380.444 142.624 379.713C144.935 378.455 147.946 376.816 153.595 377.22C160.737 377.73 163.515 375.307 164.011 374.031C163.727 375.661 162.863 379.898 161.672 383.809C161.109 385.659 161.399 387.996 161.734 390.705C162.284 395.154 162.959 400.607 160.185 406.553C157.345 412.637 158.032 415.453 158.963 419.269C159.495 421.451 160.107 423.961 160.185 427.596C160.287 432.398 158.818 435.186 157.24 438.18C155.536 441.415 153.706 444.889 153.595 451.403C153.467 458.976 158.919 462.751 164.429 466.566C168.044 469.068 171.683 471.588 173.788 475.209C175.562 479.518 176.128 485.715 176.52 490.018C176.786 492.932 176.973 494.977 177.402 494.977C178.465 494.977 202.059 489.026 207.585 480.098C212.006 472.956 212.545 437.87 212.262 421.219C214.458 423.416 219.106 428.404 220.126 430.784C220.487 431.626 220.644 432.604 220.817 433.689C221.258 436.439 221.809 439.879 226.078 443.538C232.03 448.639 235.005 450.978 241.807 453.316C245.548 454.166 250.026 466.707 251.797 472.871C252.435 470.675 253.711 465.389 253.711 461.818C253.711 460.53 253.428 457.386 253.061 453.308C252.155 443.248 250.739 427.506 251.797 419.944C252.585 414.531 252.051 409.757 251.524 405.05C250.914 399.591 250.314 394.224 251.797 388.06C254.008 378.877 253.852 371.622 253.498 369.142C255.128 369.355 259.11 368.802 262 364.891C264.38 361.672 262.059 358.729 259.285 355.213C257.847 353.39 256.287 351.412 255.198 349.162C253.702 346.069 253.61 344.615 253.539 343.482C253.458 342.2 253.403 341.328 251.372 338.959C248.312 335.388 247.135 327.479 251.372 322.804C253.727 320.206 255.401 319.966 258.892 319.464C259.793 319.334 260.815 319.188 262 318.978C269.227 317.703 267.527 307.713 261.15 304.949C256.049 302.739 255.198 300.202 255.411 299.21C257.182 297.581 260.81 293.386 261.15 289.645C261.473 286.097 260.082 284.018 258.743 282.014C258.317 281.377 257.896 280.747 257.537 280.08C257.347 279.727 257.136 279.367 256.921 278.997L256.921 278.997C255.786 277.052 254.515 274.876 255.411 272.428C255.993 270.836 257.406 270.398 258.856 269.949C260.123 269.556 261.42 269.154 262.213 267.964C263.53 265.989 262.48 263.931 261.441 261.894C260.803 260.643 260.168 259.399 260.087 258.186C259.902 255.409 260.201 254.728 262.107 250.384C262.39 249.741 262.707 249.018 263.063 248.196C264.31 244.83 263.582 243.804 262.81 242.715C262.266 241.949 261.7 241.151 261.788 239.481C261.899 237.373 263.053 236.249 264.251 235.082C265.348 234.014 266.483 232.909 266.889 230.979C267.211 229.452 266.833 228.138 266.481 226.91C265.901 224.89 265.388 223.104 268.165 220.989C271.736 218.268 270.361 213.195 269.227 210.998C270.715 210.502 275.306 208.235 281.768 203.134C288.23 198.032 288.003 185.987 287.082 180.602C286.657 183.578 284.617 190.168 279.855 192.718C275.04 195.298 270.642 193.425 266.098 191.49C265.026 191.033 263.946 190.573 262.85 190.168C258.259 188.467 244.216 188.467 237.768 188.68C237.343 186.767 235.303 182.048 230.541 178.477C227.163 175.943 224.744 170.19 222.311 164.406C220.458 160.001 218.598 155.577 216.3 152.545C212.049 146.933 204.893 147.372 201.846 148.293C198.587 147.301 190.58 146.763 184.629 152.545C188.242 152.828 196.192 155.01 199.083 161.472C200.393 164.4 201.116 167.327 201.789 170.052C202.973 174.846 204.003 179.013 207.798 181.453C212.559 184.513 216.867 190.664 218.426 193.356C217.221 193.994 213.707 195.099 209.286 194.419C204.864 193.739 201.492 187.05 200.358 183.791C199.508 186.767 198.063 194.376 199.083 201.008C200.103 207.64 206.31 210.432 209.286 210.998C209.498 214.328 209.796 223.624 209.286 234.167C208.776 244.71 207.089 249.33 206.31 250.322C204.468 250.747 200.443 252.362 199.083 255.423C197.722 258.484 198.516 260.666 199.083 261.375C199.012 262.083 198.19 263.798 195.469 264.988C193.006 266.066 188.534 265.806 181.893 265.418C179.367 265.271 176.526 265.105 173.363 264.988C168.431 264.806 165.383 263.995 162.954 263.349C159.73 262.492 157.596 261.924 153.595 263.5C148.849 265.37 148.287 267.63 147.498 270.805C147.121 272.322 146.693 274.049 145.731 276.041C144.019 279.586 141.675 280.811 138.82 282.304C136.71 283.407 134.321 284.656 131.702 287.094C128.577 290.004 127.855 292.586 127.156 295.089C126.476 297.523 125.816 299.884 122.987 302.399C117.248 307.5 115.547 308.563 103.219 308.35C93.993 308.191 91.076 310.77 88.5887 312.969C87.7522 313.708 86.9643 314.405 86.0014 314.94C82.1753 317.065 73.673 311.751 75.3735 307.5C77.0739 303.249 73.8855 301.123 71.5474 303.674C69.2092 306.225 68.1464 310.263 71.5474 314.94C74.2681 318.681 78.7744 325.001 80.6874 327.693C82.6005 329.11 86.9367 331.944 88.9772 331.944C90.6025 331.944 91.6237 334.706 92.4257 336.875C92.8823 338.11 93.2679 339.153 93.6535 339.384C94.7163 340.022 98.9675 341.297 100.243 340.659C101.518 340.022 103.431 339.384 106.407 339.384M120.649 342.147C116.397 342.147 111.934 342.147 111.083 342.147M120.649 342.147H111.083M111.083 342.147C110.403 342.147 107.966 340.305 106.832 339.384M106.832 339.384C107.682 339.384 108.788 339.384 106.407 339.384M106.832 339.384H106.407M239.469 280.08C238.335 279.797 236.026 279.527 235.856 280.718C235.643 282.206 237.131 286.032 237.769 287.094C238.406 288.157 239.469 291.558 238.619 293.896C238.13 295.24 239.326 296.092 240.795 297.139C241.882 297.914 243.119 298.795 243.933 300.061C245.463 302.441 245.562 305.02 245.421 306.012C245.917 305.941 247.419 305.375 249.459 303.674C251.195 302.228 250.569 301.569 249.991 300.961C249.72 300.675 249.459 300.4 249.459 300.061C249.459 299.21 250.735 297.722 251.372 297.085C249.884 296.093 246.781 293.939 246.271 293.259C245.934 292.809 245.418 291.823 244.786 290.617C244.224 289.544 243.571 288.296 242.87 287.094C242.396 286.282 241.815 285.686 241.263 285.119C240.081 283.907 239.034 282.833 239.469 280.08Z" stroke="#F2C78B" stroke-width="0.91191"/>
<path d="M310.889 12.2562C307.658 13.9567 308.976 24.443 310.039 29.4735C307.559 29.0485 298.901 29.0061 284.107 32.237C269.313 35.4679 261.08 39.1096 258.812 40.5267C257.891 36.2755 255.496 27.178 253.286 24.7974C250.522 21.8216 242.658 18.6332 240.745 15.6573C238.832 12.6814 233.73 11.4059 227.779 8.21771C221.827 5.02953 200.359 -2.41046 195.47 1.62817C190.581 5.66679 194.407 6.30467 195.895 5.24188C197.383 4.17908 198.871 6.51723 199.508 8.21771C200.146 9.91818 199.721 13.3191 201.634 15.6573C203.547 17.9954 203.547 21.3964 204.397 26.0727C205.247 30.749 203.547 32.2369 206.31 37.7634C208.521 42.1846 208.79 47.9663 208.648 50.3044C207.94 50.0918 206.31 49.1566 205.46 47.116C204.61 45.0754 203.83 41.8729 203.547 40.5267C202.838 43.5025 201.846 51.2397 203.547 58.3816C205.672 67.3091 201.209 67.0966 198.871 72.8357C197 77.4269 202.484 79.5667 205.46 80.0627C205.46 81.1963 205.077 83.8887 203.547 85.5892C201.634 87.7148 197.383 86.2269 194.407 95.1544C192.026 102.296 189.022 106.633 187.818 107.908C187.818 107.341 187.605 105.825 186.755 104.294C185.692 102.381 179.953 100.468 179.315 107.908C178.805 113.86 184.771 116.765 187.818 117.473C188.384 119.032 189.943 122.489 191.644 123.85C193.769 125.55 196.745 124.913 201.209 123.85C205.672 122.787 209.711 123.85 213.112 124.913C216.513 125.975 221.614 125.55 225.015 123.85C227.736 122.489 231.817 124.983 233.518 126.401C232.03 127.534 227.098 130.822 219.276 134.903C209.499 140.004 202.059 138.091 191.644 134.903C181.228 131.715 182.291 120.874 185.479 120.661C188.668 120.449 186.542 116.835 182.291 116.41C178.04 115.985 168.475 121.299 172.513 137.454C176.552 153.608 202.484 160.835 225.015 155.521C247.547 150.207 280.068 106.845 288.783 97.0674C297.498 87.2897 300.261 76.6617 302.599 80.7003C304.47 83.9312 303.379 102.452 302.599 111.309C303.733 111.167 306.596 110.076 308.976 106.845C311.952 102.806 311.739 78.9999 313.865 75.1738C315.991 71.3477 323.43 67.3091 330.657 67.7342C337.884 68.1594 340.222 66.2463 339.372 61.7826C338.522 57.3188 330.232 59.4444 328.957 56.8937C327.681 54.343 332.995 52.6426 336.821 54.5556C340.648 56.4686 344.261 56.4686 347.024 56.8937C349.788 57.3188 352.976 58.5942 355.314 54.5556C357.652 50.517 354.251 46.6909 351.063 46.6909C348.512 46.6909 346.883 44.9904 346.387 44.1402C347.095 44.4236 349.15 44.4378 351.701 42.2272C354.889 39.4639 346.599 39.2513 342.561 38.4011C338.522 37.5509 335.121 33.2997 331.295 30.749C327.469 28.1983 329.169 25.2224 327.682 26.2852C326.194 27.348 324.068 29.4735 320.029 26.2852C315.991 23.0969 312.802 17.3577 313.44 14.807C314.078 12.2562 314.928 10.1307 310.889 12.2562Z" fill="url(#paint4_linear_24_9448)" stroke="#F2C78B" stroke-width="0.91191"/>
<path d="M255.411 156.159L259.874 151.483C260.441 152.546 261.66 155.351 262 158.072C262.425 161.473 262.213 169.338 256.048 175.715C249.884 182.091 249.247 181.241 247.121 185.067C245.42 188.128 250.238 190.594 252.86 191.444C250.947 192.223 246.356 193.059 243.295 190.169C239.469 186.555 241.382 186.13 238.193 185.067C235.005 184.004 227.991 176.352 223.74 169.55C219.488 162.749 224.377 150.42 229.904 146.806C234.325 143.916 240.957 144.964 242.657 145.956C240.957 147.232 236.275 150.849 233.517 152.758C227.991 156.584 229.053 172.314 243.295 172.951C254.688 173.461 256.119 161.969 255.411 156.159Z" fill="url(#paint5_linear_24_9448)" stroke="#F2C78B" stroke-width="0.91191"/>
<path d="M311.383 193.635C312.667 180.731 314.287 162.211 314.335 153.35C314.359 148.931 306.948 148.313 303.067 150.427C298.398 152.97 299.738 156.992 299.664 163.61C299.237 201.796 296.139 258.715 295.907 261.326C295.815 262.361 294.673 276.831 293.138 296.383C293.369 301.606 295.733 303.629 299.436 303.958C303.14 304.287 306.755 301.14 306.755 301.14C306.755 301.14 309.901 228.791 311.383 193.635Z" fill="url(#paint6_linear_24_9448)" stroke="#F2C78B" stroke-width="0.91191"/>
<path d="M322.82 203.991C323.138 202.717 323.334 199.597 321.565 197.302C319.353 194.433 317.957 191.636 319.417 189.094C320.876 186.551 319.925 183.383 317.427 186.039C314.93 188.695 310.769 193.875 310.574 198.38C310.418 201.984 310.853 205.256 311.091 206.442C309.831 206.741 307.271 207.788 307.111 209.583C306.952 211.377 307.903 213.011 308.398 213.603C308.132 213.511 307.256 213.501 305.878 214.201C304.501 214.901 301.796 215.414 300.616 215.583C301.644 216.359 304.076 217.823 305.588 217.464C307.1 217.105 309.566 216.653 310.61 216.472L309.67 238.588C311.234 238.727 314.905 238.437 317.08 236.164C318.615 234.561 319.509 233.412 319.963 232.735C318.602 235.08 316.392 239.285 316.219 241.226C315.983 243.877 315.176 248.328 315.793 250.644C316.409 252.96 320.22 258.643 319.894 262.314C319.567 265.985 318.185 269.973 315.796 271.405C313.408 272.837 306.995 273.294 311.259 273.879C315.524 274.464 321.457 274.786 325.255 264.435C328.294 256.154 328.446 247.041 328.143 243.52C328.841 243.376 330.284 242.559 330.473 240.438C330.661 238.317 330.089 237.047 329.779 236.677C330.993 234.592 333.32 229.221 332.925 224.417C332.53 219.613 329.864 213.388 328.58 210.875C330.118 210.533 333.237 209.357 333.411 207.4C333.629 204.952 333.089 204.082 331.698 203.547C330.585 203.119 327.566 204.55 326.196 205.319C325.998 205.233 325.687 204.575 325.063 204.19C324.089 203.59 323.228 204.027 322.82 203.991Z" fill="url(#paint7_linear_24_9448)"/>
<path d="M296.321 220.996C293.829 220.571 293.419 223.123 293.738 226.933C294.136 231.696 296.602 231.71 297.54 237.344C298.478 242.977 299.003 246.313 298.214 250.559C297.583 253.956 301.226 258.296 303.127 260.04C302.257 257.496 300.901 251.785 302.438 249.29C304.36 246.172 304.51 237.552 302.892 234.942C301.274 232.331 297.726 228.316 298.537 226.127C299.186 224.376 298.473 221.364 296.321 220.996Z" fill="url(#paint8_linear_24_9448)"/>
<path d="M319.963 232.735C319.509 233.412 318.615 234.561 317.08 236.164C314.905 238.437 311.234 238.727 309.67 238.588L310.61 216.472C309.566 216.653 307.1 217.105 305.588 217.464C304.076 217.823 301.644 216.359 300.616 215.583C301.796 215.414 304.501 214.901 305.878 214.201C307.256 213.501 308.132 213.511 308.398 213.603C307.903 213.011 306.952 211.377 307.111 209.583C307.271 207.788 309.831 206.741 311.091 206.442C310.853 205.256 310.418 201.984 310.574 198.38C310.769 193.875 314.93 188.695 317.427 186.039C319.925 183.383 320.876 186.551 319.417 189.094C317.957 191.636 319.353 194.433 321.565 197.302C323.334 199.597 323.138 202.717 322.82 203.991C323.228 204.027 324.089 203.59 325.063 204.19C325.687 204.575 325.998 205.233 326.196 205.319C327.566 204.55 330.585 203.119 331.698 203.547C333.089 204.082 333.629 204.952 333.411 207.4C333.237 209.357 330.118 210.533 328.58 210.875C329.864 213.388 332.53 219.613 332.925 224.417C333.32 229.221 330.993 234.592 329.779 236.677C330.089 237.047 330.661 238.317 330.473 240.438C330.284 242.559 328.841 243.376 328.143 243.52C328.446 247.041 328.294 256.154 325.255 264.435C321.457 274.786 315.524 274.464 311.259 273.879C306.995 273.294 313.408 272.837 315.796 271.405C318.185 269.973 319.567 265.985 319.894 262.314C320.22 258.643 316.409 252.96 315.793 250.644C315.176 248.328 315.983 243.877 316.219 241.226C316.392 239.285 318.602 235.08 319.963 232.735ZM319.963 232.735C320.089 232.518 320.207 232.317 320.317 232.135C320.266 232.252 320.153 232.452 319.963 232.735ZM296.321 220.996C293.829 220.571 293.419 223.123 293.738 226.933C294.136 231.696 296.602 231.71 297.54 237.344C298.478 242.977 299.003 246.313 298.214 250.559C297.583 253.956 301.226 258.296 303.127 260.04C302.257 257.496 300.901 251.785 302.438 249.29C304.36 246.172 304.51 237.552 302.892 234.942C301.274 232.331 297.726 228.316 298.537 226.127C299.186 224.376 298.473 221.364 296.321 220.996Z" stroke="#F2C78B" stroke-width="0.91191"/>
<path d="M448.148 285C443.686 285.741 358.985 287.504 306.344 291.407C298.254 292.913 293.809 295.82 294.084 299.528C294.359 303.236 300.311 305.877 303.856 305.614C345.915 302.057 411.494 296.481 417.339 295.907C425.9 295.067 448.845 294.393 455.462 292.26C462.079 290.126 467.811 284.363 473.422 276.967C479.033 269.571 482.011 254.362 480.264 250.18C478.866 246.835 474.045 246.604 471.809 246.906C471.736 244.995 472.42 239.634 475.741 233.475C479.062 227.316 489.879 225.72 494.873 225.692C494.666 224.749 494.043 222.797 493.202 222.531C492.15 222.198 484.225 220.527 475.059 224.287C465.894 228.046 460.623 237.265 461.017 242.574C461.411 247.882 463.9 273.156 461.579 277.845C459.257 282.534 452.61 284.259 448.148 285Z" fill="url(#paint9_linear_24_9448)" stroke="#F2C78B" stroke-width="0.91191"/>
<path fill-rule="evenodd" clip-rule="evenodd" d="M403.115 270.403C402.99 272.394 404.425 277.562 411.052 280.679C417.678 283.795 425.109 286.88 427.996 288.032C428.255 292.454 429.916 301.214 434.483 300.875C439.049 300.537 440.651 298.368 442.116 296.005C443.357 297.074 445.864 299.007 448.474 298.813C452.755 298.496 455.586 298.491 455.132 292.375C455.132 292.375 453.579 292.655 452.701 292.76C451.823 292.865 450.27 293.145 450.27 293.145C450.23 294.447 449.828 294.408 448.36 294.517C446.525 294.653 444.977 293.128 444.66 288.846C444.343 284.565 444.916 281.243 446.751 281.107C448.219 280.998 449.459 284.049 449.854 284.772C449.854 284.772 451.164 284.428 452.003 284.202C452.813 283.985 454.075 283.639 454.075 283.639C454.009 282.755 453.541 279.784 452.278 278.237C451.015 276.691 449.225 276.687 448.487 276.878C448.364 276.136 447.82 274.509 446.63 273.941C445.142 273.232 441.926 274.085 440.559 275.006C439.193 275.928 435.757 276.592 433.688 276.336C432.033 276.131 431.025 275.44 430.728 275.12C430.618 275.47 430.49 276.327 430.864 276.955C431.239 277.583 432.324 278.213 432.82 278.45C427.932 278.881 417.092 279.206 412.833 277.062C408.575 274.918 404.58 271.729 403.115 270.403ZM434.543 296.156C436.687 296.325 438.937 294.6 441.157 291.361L441.021 289.526C440.895 289.672 438.796 289.937 437.117 289.406C435.438 288.874 433.201 288.193 432.292 287.919C432.265 290.312 432.398 295.987 434.543 296.156Z" fill="url(#paint10_linear_24_9448)" stroke="#F2C78B" stroke-width="0.91191"/>
<path d="M73.3844 293.963C73.7991 292.014 106.58 223.621 119.884 180.243C121.427 175.214 123.482 166.975 120.049 163.994C116.617 161.012 110.447 162.845 108.783 167.075C105.238 176.087 99.8973 189.102 97.4642 195.846C95.0312 202.589 55.6933 298.664 52.648 304.727C51.1055 308.887 49.1908 317.668 53.8719 319.51C59.7233 321.812 63.4427 315.937 65.8057 311.579C67.6961 308.092 71.6458 298.382 73.3844 293.963Z" fill="url(#paint11_linear_24_9448)" stroke="#F2C78B" stroke-width="0.91191"/>
<path d="M78.8191 261.28C79.2964 264.989 78.2664 268.837 77.6917 270.298C80.9462 267.618 81.2517 263.822 81.4865 262.33C81.7801 260.465 81.9814 251.81 86.0121 249.149C88.0459 247.806 90.1101 247.681 93.2679 248.043C96.4258 248.405 98.0189 247.712 97.8158 245.432C97.6128 243.152 93.0427 241.28 87.6144 243.398C80.5961 246.138 78.2224 256.645 78.8191 261.28Z" fill="url(#paint12_linear_24_9448)"/>
<path d="M77.4719 245.185C76.9888 244.921 77.0877 244.726 76.2931 244.061C75.4985 243.396 75.0374 241.66 74.9062 240.875C74.1931 242.501 72.7842 246.157 72.8542 247.769C72.9417 249.783 71.7143 254.581 69.0313 257.486C66.3483 260.391 62.822 262.084 61.8195 266.31C60.8169 270.536 61.1636 271.332 61.551 272.585C61.9383 273.837 64.7494 273.403 65.1367 274.655C65.5241 275.908 63.7406 276.526 61.8353 275.777C59.9299 275.027 58.2089 273.25 57.6716 272.379C57.1344 271.507 55.2915 268.362 57.3028 261.012C58.9119 255.133 62.0356 246.373 63.3963 242.728C62.7998 242.566 61.6272 241.856 61.7096 240.304C61.8127 238.364 65.2763 225.645 68.2529 220.876C70.6341 217.06 74.6964 215.123 76.4299 214.632C75.8719 214.559 74.4553 213.723 73.2533 210.962C71.7509 207.511 71.9569 203.631 74.6993 204.49C77.4418 205.349 78.3726 208.575 80.8089 209.094C82.7579 209.509 84.1573 209.531 84.6133 209.491C84.43 208.465 84.8818 205.9 88.1552 203.843C92.2468 201.273 94.1614 196.965 92.8964 195.147C91.6314 193.33 94.5861 191.412 96.1572 193.57C97.7284 195.728 100.246 197.159 98.8686 202.338C98.0768 205.315 97.3928 207.037 96.4452 208.645C97.0428 209.687 97.9518 212.274 96.8074 214.288C95.663 216.302 93.4905 217.97 92.5473 218.553C92.9887 218.873 93.7977 219.925 93.5029 221.569C93.1344 223.624 92.4941 224.692 93.6029 225.789C94.7118 226.885 94.337 227.837 92.9283 227.503C91.5196 227.169 89.9548 226.113 89.8673 224.099C89.7973 222.487 87.8072 221.015 87.4528 220.729L77.4719 245.185Z" fill="url(#paint13_linear_24_9448)"/>
<path d="M78.8191 261.28C79.2964 264.989 78.2664 268.837 77.6917 270.298C80.9462 267.618 81.2517 263.822 81.4865 262.33C81.7801 260.465 81.9814 251.81 86.0121 249.149C88.0459 247.806 90.1101 247.681 93.2679 248.043C96.4258 248.405 98.0189 247.712 97.8158 245.432C97.6128 243.152 93.0427 241.28 87.6144 243.398C80.5961 246.138 78.2224 256.645 78.8191 261.28Z" stroke="#F2C78B" stroke-width="0.91191"/>
<path d="M77.4719 245.185C76.9888 244.921 77.0877 244.726 76.2931 244.061C75.4985 243.396 75.0374 241.66 74.9062 240.875C74.1931 242.501 72.7842 246.157 72.8542 247.769C72.9417 249.783 71.7143 254.581 69.0313 257.486C66.3483 260.391 62.822 262.084 61.8195 266.31C60.8169 270.536 61.1636 271.332 61.551 272.585C61.9383 273.837 64.7494 273.403 65.1367 274.655C65.5241 275.908 63.7406 276.526 61.8353 275.777C59.9299 275.027 58.2089 273.25 57.6716 272.379C57.1344 271.507 55.2915 268.362 57.3028 261.012C58.9119 255.133 62.0356 246.373 63.3963 242.728C62.7998 242.566 61.6272 241.856 61.7096 240.304C61.8127 238.364 65.2763 225.645 68.2529 220.876C70.6341 217.06 74.6964 215.123 76.4299 214.632C75.8719 214.559 74.4553 213.723 73.2533 210.962C71.7509 207.511 71.9569 203.631 74.6993 204.49C77.4418 205.349 78.3726 208.575 80.8089 209.094C82.7579 209.509 84.1573 209.531 84.6133 209.491C84.43 208.465 84.8818 205.9 88.1552 203.843C92.2468 201.273 94.1614 196.965 92.8964 195.147C91.6314 193.33 94.5861 191.412 96.1572 193.57C97.7284 195.728 100.246 197.159 98.8686 202.338C98.0768 205.315 97.3928 207.037 96.4452 208.645C97.0428 209.687 97.9518 212.274 96.8074 214.288C95.663 216.302 93.4905 217.97 92.5473 218.553C92.9887 218.873 93.7977 219.925 93.5029 221.569C93.1344 223.624 92.4941 224.692 93.6029 225.789C94.7118 226.885 94.337 227.837 92.9283 227.503C91.5196 227.169 89.9548 226.113 89.8673 224.099C89.7973 222.487 87.8072 221.015 87.4528 220.729L77.4719 245.185Z" stroke="#F2C78B" stroke-width="0.91191"/>
<path d="M79.7521 336.314C74.6539 327.073 65.2152 312.778 63.4201 311.052C61.625 309.325 57.997 306.605 52.9522 310.358C47.9073 314.112 53.7288 323.751 61.6103 334.345C93.2656 376.893 107.186 397.571 132.03 432.679C135.372 436.827 140.15 440.163 143.786 442.306C146.695 444.021 153.046 445.998 159.13 445.437C168.921 444.533 179.624 440.397 180.538 437.165C181.269 434.58 178.897 430.73 177.62 429.128C180.577 426.928 187.956 422.714 193.818 423.458C199.679 424.201 206.929 432.162 209.821 436.05C210.575 435.234 211.888 433.134 211.109 431.264C210.135 428.926 204.345 422.515 202.917 421.281C201.488 420.047 193.479 415.799 185.778 416.424C178.077 417.05 172.407 421.778 163.659 428.542C154.91 435.306 145.33 434.777 142.878 433.539C140.426 432.301 127.716 415.217 125.233 411.195C122.751 407.172 88.5358 352.237 79.7521 336.314Z" fill="url(#paint14_linear_24_9448)" stroke="#F2C78B" stroke-width="0.91191"/>
<path fill-rule="evenodd" clip-rule="evenodd" d="M123.398 379.808C121.65 380.769 118.055 384.751 118.976 392.015C119.896 399.28 121.275 407.206 121.849 410.261C118.255 412.851 111.75 418.947 114.483 422.621C117.216 426.295 119.906 426.485 122.686 426.455C122.448 428.076 122.161 431.229 123.723 433.328C126.285 436.772 128.856 438.172 133.776 434.512C133.776 434.512 132.829 433.514 132.27 432.83C131.711 432.145 130.913 431.006 130.913 431.006C129.793 431.669 128.168 432.111 127.289 430.93C126.191 429.453 126.649 427.329 130.093 424.767C133.537 422.204 136.65 420.908 137.748 422.384C138.626 423.565 137.066 426.034 136.668 426.755C136.668 426.755 137.449 427.804 137.949 428.477C138.449 429.149 139.394 430.077 139.394 430.077C140.105 429.548 142.504 427.407 143.133 425.512C143.761 423.617 142.805 422.104 142.248 421.584C142.809 421.082 143.891 419.75 143.732 418.441C143.534 416.805 141.09 414.547 139.579 413.887C138.069 413.227 135.667 410.683 134.775 408.799C134.061 407.291 134.104 406.07 134.214 405.648C133.86 405.742 133.068 406.094 132.738 406.746C132.409 407.399 132.458 408.653 132.524 409.199C129.541 405.303 123.457 396.326 122.984 391.581C122.512 386.837 123.063 381.755 123.398 379.808ZM118.499 420.143C119.506 422.044 122.168 423.019 126.092 423.157L127.568 422.059C127.378 422.031 126.029 420.401 125.578 418.698C125.127 416.996 124.503 414.742 124.248 413.828C122.212 415.087 117.493 418.242 118.499 420.143Z" fill="url(#paint15_linear_24_9448)" stroke="#F2C78B" stroke-width="0.91191"/>
<defs>
<linearGradient id="paint0_linear_24_9448" x1="253.919" y1="356.321" x2="16.0329" y2="356.321" gradientUnits="userSpaceOnUse">
<stop stop-color="#BD7B49"/>
<stop offset="1" stop-color="#3C3024"/>
</linearGradient>
<linearGradient id="paint1_linear_24_9448" x1="253.919" y1="356.321" x2="16.0329" y2="356.321" gradientUnits="userSpaceOnUse">
<stop stop-color="#BD7B49"/>
<stop offset="1" stop-color="#3C3024"/>
</linearGradient>
<linearGradient id="paint2_linear_24_9448" x1="399.643" y1="301.265" x2="109.995" y2="301.265" gradientUnits="userSpaceOnUse">
<stop stop-color="#FCF0D6"/>
<stop offset="1" stop-color="#FFC446"/>
</linearGradient>
<linearGradient id="paint3_linear_24_9448" x1="287.562" y1="321.323" x2="69.3771" y2="321.323" gradientUnits="userSpaceOnUse">
<stop stop-color="#3C3024"/>
<stop offset="1" stop-color="#BD7B49"/>
</linearGradient>
<linearGradient id="paint4_linear_24_9448" x1="356.089" y1="78.851" x2="171.54" y2="78.851" gradientUnits="userSpaceOnUse">
<stop stop-color="#3C3024"/>
<stop offset="1" stop-color="#BD7B49"/>
</linearGradient>
<linearGradient id="paint5_linear_24_9448" x1="262.137" y1="168.556" x2="222.127" y2="168.556" gradientUnits="userSpaceOnUse">
<stop stop-color="#BD7B49"/>
<stop offset="1" stop-color="#3C3024"/>
</linearGradient>
<linearGradient id="paint6_linear_24_9448" x1="313.31" y1="227.431" x2="293.396" y2="225.66" gradientUnits="userSpaceOnUse">
<stop stop-color="#FCF0D6"/>
<stop offset="1" stop-color="#FFC446"/>
</linearGradient>
<linearGradient id="paint7_linear_24_9448" x1="332.543" y1="231.02" x2="293.36" y2="227.535" gradientUnits="userSpaceOnUse">
<stop stop-color="#3C3024"/>
<stop offset="1" stop-color="#BD7B49"/>
</linearGradient>
<linearGradient id="paint8_linear_24_9448" x1="332.543" y1="231.02" x2="293.36" y2="227.535" gradientUnits="userSpaceOnUse">
<stop stop-color="#3C3024"/>
<stop offset="1" stop-color="#BD7B49"/>
</linearGradient>
<linearGradient id="paint9_linear_24_9448" x1="391.976" y1="228.852" x2="397.154" y2="298.697" gradientUnits="userSpaceOnUse">
<stop stop-color="#FCF0D6"/>
<stop offset="1" stop-color="#FFC446"/>
</linearGradient>
<linearGradient id="paint10_linear_24_9448" x1="428.152" y1="268.547" x2="430.571" y2="301.165" gradientUnits="userSpaceOnUse">
<stop stop-color="#3C3024"/>
<stop offset="1" stop-color="#BD7B49"/>
</linearGradient>
<linearGradient id="paint11_linear_24_9448" x1="95.6699" y1="245.001" x2="78.7623" y2="238.349" gradientUnits="userSpaceOnUse">
<stop stop-color="#FCF0D6"/>
<stop offset="1" stop-color="#FFC446"/>
</linearGradient>
<linearGradient id="paint12_linear_24_9448" x1="99.3597" y1="242.474" x2="63.5335" y2="228.379" gradientUnits="userSpaceOnUse">
<stop stop-color="#3C3024"/>
<stop offset="1" stop-color="#BD7B49"/>
</linearGradient>
<linearGradient id="paint13_linear_24_9448" x1="99.3597" y1="242.474" x2="63.5335" y2="228.379" gradientUnits="userSpaceOnUse">
<stop stop-color="#3C3024"/>
<stop offset="1" stop-color="#BD7B49"/>
</linearGradient>
<linearGradient id="paint14_linear_24_9448" x1="155.076" y1="355.58" x2="103.318" y2="394.087" gradientUnits="userSpaceOnUse">
<stop stop-color="#FCF0D6"/>
<stop offset="1" stop-color="#FFC446"/>
</linearGradient>
<linearGradient id="paint15_linear_24_9448" x1="138.334" y1="399.884" x2="112.092" y2="419.408" gradientUnits="userSpaceOnUse">
<stop stop-color="#3C3024"/>
<stop offset="1" stop-color="#BD7B49"/>
</linearGradient>
</defs>
</svg>
