<svg xmlns="http://www.w3.org/2000/svg" width="284" height="221" fill="none" viewBox="0 0 284 221"><g filter="url(#a)"><mask id="c" width="284" height="220" x="-.43" y="-.43" fill="#000" maskUnits="userSpaceOnUse"><path fill="#fff" d="M-.43-.43h284v220h-284z"/><path d="M263.6 7.74c0 6.89 5.51 12.48 12.32 12.51v178.52c-6.75.02-12.23 5.53-12.32 12.34H19.78c-.09-6.78-5.5-12.25-12.21-12.34V20.25c6.76-.09 12.21-5.65 12.21-12.51v-.17H263.6z"/></mask><path fill="#fde0a3" d="M263.6 7.74c0 6.89 5.51 12.48 12.32 12.51v178.52c-6.75.02-12.23 5.53-12.32 12.34H19.78c-.09-6.78-5.5-12.25-12.21-12.34V20.25c6.76-.09 12.21-5.65 12.21-12.51v-.17H263.6z"/><path fill="url(#b)" d="M263.6 7.74c0 6.89 5.51 12.48 12.32 12.51v178.52c-6.75.02-12.23 5.53-12.32 12.34H19.78c-.09-6.78-5.5-12.25-12.21-12.34V20.25c6.76-.09 12.21-5.65 12.21-12.51v-.17H263.6z"/><path fill="#fcf0d6" d="M263.6 7.74c0 6.89 5.51 12.48 12.32 12.51v178.52c-6.75.02-12.23 5.53-12.32 12.34H19.78c-.09-6.78-5.5-12.25-12.21-12.34V20.25c6.76-.09 12.21-5.65 12.21-12.51v-.17H263.6z"/><path fill="#fde0a3" d="M263.6 7.74h-7.57zm12.32 12.51h7.57c0-4.17-3.37-7.55-7.54-7.57zm0 178.52.03 7.57c4.17-.02 7.54-3.4 7.54-7.57zm-12.32 12.34v7.58c4.15 0 7.52-3.34 7.58-7.48zm-243.82 0-7.57.1a7.57 7.57 0 0 0 7.57 7.48zM7.57 198.77H0c0 4.14 3.33 7.52 7.47 7.57zm0-178.52-.1-7.57C3.33 12.73 0 16.11 0 20.25zM19.78 7.74h7.58zm0-.17V0a7.565 7.565 0 0 0-7.57 7.67zm243.82 0 7.58.1A7.62 7.62 0 0 0 269 2.25 7.6 7.6 0 0 0 263.6 0zm0 .17h-7.57c0 10.99 8.8 20.04 19.86 20.09l.03-7.58.03-7.57c-2.56-.01-4.77-2.14-4.77-4.94zm12.32 12.51h-7.57v178.52h15.14V20.25zm0 178.52-.03-7.58c-10.97.05-19.72 8.96-19.86 19.82l7.57.1 7.58.1c.03-2.77 2.24-4.86 4.77-4.87zm-12.32 12.34v-7.57H19.78v15.15H263.6zm-243.82 0 7.57-.1c-.14-10.8-8.79-19.67-19.68-19.82l-.1 7.58-.1 7.57c2.52.03 4.7 2.12 4.74 4.87zM7.57 198.77h7.58V20.25H0v178.52zm0-178.52.1 7.57c10.98-.14 19.69-9.15 19.69-20.08H12.21c0 2.78-2.19 4.9-4.74 4.94zM19.78 7.74h7.58c0-.08-.01-.15-.01-.19v-.07l-7.57.09-7.57.1v.1-.03zm0-.17v7.58H263.6V0H19.78zm243.82 0-7.57-.09v-.03.29h15.15v.09-.16z" mask="url(#c)"/><path fill="url(#d)" d="M263.6 7.74h-7.57zm12.32 12.51h7.57c0-4.17-3.37-7.55-7.54-7.57zm0 178.52.03 7.57c4.17-.02 7.54-3.4 7.54-7.57zm-12.32 12.34v7.58c4.15 0 7.52-3.34 7.58-7.48zm-243.82 0-7.57.1a7.57 7.57 0 0 0 7.57 7.48zM7.57 198.77H0c0 4.14 3.33 7.52 7.47 7.57zm0-178.52-.1-7.57C3.33 12.73 0 16.11 0 20.25zM19.78 7.74h7.58zm0-.17V0a7.565 7.565 0 0 0-7.57 7.67zm243.82 0 7.58.1A7.62 7.62 0 0 0 269 2.25 7.6 7.6 0 0 0 263.6 0zm0 .17h-7.57c0 10.99 8.8 20.04 19.86 20.09l.03-7.58.03-7.57c-2.56-.01-4.77-2.14-4.77-4.94zm12.32 12.51h-7.57v178.52h15.14V20.25zm0 178.52-.03-7.58c-10.97.05-19.72 8.96-19.86 19.82l7.57.1 7.58.1c.03-2.77 2.24-4.86 4.77-4.87zm-12.32 12.34v-7.57H19.78v15.15H263.6zm-243.82 0 7.57-.1c-.14-10.8-8.79-19.67-19.68-19.82l-.1 7.58-.1 7.57c2.52.03 4.7 2.12 4.74 4.87zM7.57 198.77h7.58V20.25H0v178.52zm0-178.52.1 7.57c10.98-.14 19.69-9.15 19.69-20.08H12.21c0 2.78-2.19 4.9-4.74 4.94zM19.78 7.74h7.58c0-.08-.01-.15-.01-.19v-.07l-7.57.09-7.57.1v.1-.03zm0-.17v7.58H263.6V0H19.78zm243.82 0-7.57-.09v-.03.29h15.15v.09-.16z" mask="url(#c)"/></g><defs><linearGradient id="b" x1="7.57" x2="275.92" y1="109.34" y2="109.34" gradientUnits="userSpaceOnUse"><stop stop-color="#3c3024"/><stop offset="1" stop-color="#bd7b49"/></linearGradient><linearGradient id="d" x1="141.75" x2="141.75" y1="211.11" y2="7.57" gradientUnits="userSpaceOnUse"><stop stop-color="#3c3024"/><stop offset="1" stop-color="#bd7b49"/></linearGradient><filter id="a" width="283.49" height="220.47" x="0" y="0" color-interpolation-filters="sRGB" filterUnits="userSpaceOnUse"><feFlood flood-opacity="0" result="BackgroundImageFix"/><feColorMatrix in="SourceAlpha" result="hardAlpha" values="0 0 0 0 0 0 0 0 0 0 0 0 0 0 0 0 0 0 127 0"/><feOffset dy="1.78"/><feComposite in2="hardAlpha" operator="out"/><feColorMatrix values="0 0 0 0 0.91 0 0 0 0 0.50 0 0 0 0 0.04 0 0 0 1 0"/><feBlend in2="BackgroundImageFix" result="effect1_dropShadow_24_6383"/><feBlend in="SourceGraphic" in2="effect1_dropShadow_24_6383" result="shape"/></filter></defs></svg>