<svg xmlns="http://www.w3.org/2000/svg" width="284" height="221" fill="none" xmlns:v="https://vecta.io/nano"><g filter="url(#B)"><mask id="A" maskUnits="userSpaceOnUse" x="-.426" y="-.426" width="284" height="220" fill="#000"><path fill="#fff" d="M-.426-.426h284v220h-284z"/><path d="M263.602 7.741c0 6.892 5.51 12.482 12.318 12.512v178.513c-6.753.029-12.228 5.53-12.316 12.345H19.779c-.087-6.778-5.503-12.255-12.205-12.343V20.251c6.757-.089 12.207-5.655 12.207-12.51l-.002-.167h243.825l-.002.167z"/></mask><use href="#F" fill="#fde0a3"/><use href="#F" fill="url(#C)"/><use href="#F" fill="url(#D)"/><path d="M263.602 7.741h-7.575 0 7.575zm12.318 12.512h7.574c0-4.17-3.371-7.556-7.541-7.574l-.033 7.574zm0 178.513l.033 7.574c4.17-.018 7.541-3.404 7.541-7.574h-7.574zm-12.316 12.345v7.574c4.145 0 7.52-3.331 7.574-7.476l-7.574-.098zm-243.825 0l-7.573.098c.053 4.145 3.429 7.476 7.573 7.476v-7.574zM7.574 198.768H0c0 4.144 3.33 7.518 7.474 7.573l.1-7.573zm0-178.517l-.1-7.574C3.33 12.732 0 16.107 0 20.251h7.574zm12.207-12.51h7.574 0-7.574zm-.002-.167V0c-2.026 0-3.967.812-5.39 2.253s-2.209 3.393-2.183 5.419l7.573-.098zm243.825 0l7.574.098c.026-2.026-.76-3.977-2.183-5.419S265.63 0 263.604 0v7.574zm-.002.167h-7.575c0 10.985 8.805 20.038 19.86 20.086l.033-7.574.033-7.574c-2.561-.011-4.777-2.138-4.777-4.938h-7.574zm12.318 12.512h-7.574v178.513h7.574 7.574V20.253h-7.574zm0 178.513l-.033-7.574c-10.968.047-19.716 8.958-19.856 19.822l7.573.097 7.574.098c.036-2.767 2.237-4.858 4.775-4.869l-.033-7.574zm-12.316 12.345v-7.574H19.779v7.574 7.574h243.825v-7.574zm-243.825 0l7.574-.097c-.14-10.806-8.793-19.676-19.678-19.82l-.1 7.574-.1 7.573c2.519.033 4.696 2.118 4.732 4.868l7.573-.098zM7.574 198.768h7.574V20.251H7.574 0v178.517h7.574zm0-178.517l.1 7.573c10.973-.145 19.681-9.157 19.681-20.083h-7.574-7.574c0 2.783-2.192 4.903-4.733 4.936l.1 7.574zm12.207-12.51h7.574l-.002-.192-.001-.073-7.574.098-7.573.098.001.062v.032c0 .014 0 0 0-.025h7.574zm-.002-.167v7.574h243.825V7.574 0H19.779v7.574zm243.825 0l-7.573-.098v-.028.035l-.004.258h7.575 7.574l-.001.077v.014c0-.024.001-.036.001-.049.001-.026.001-.065.002-.112l-7.574-.098z" fill="#fde0a3" mask="url(#A)"/><path d="M263.602 7.741h-7.575 0 7.575zm12.318 12.512h7.574c0-4.17-3.371-7.556-7.541-7.574l-.033 7.574zm0 178.513l.033 7.574c4.17-.018 7.541-3.404 7.541-7.574h-7.574zm-12.316 12.345v7.574c4.145 0 7.52-3.331 7.574-7.476l-7.574-.098zm-243.825 0l-7.573.098c.053 4.145 3.429 7.476 7.573 7.476v-7.574zM7.574 198.768H0c0 4.144 3.33 7.518 7.474 7.573l.1-7.573zm0-178.517l-.1-7.574C3.33 12.732 0 16.107 0 20.251h7.574zm12.207-12.51h7.574 0-7.574zm-.002-.167V0c-2.026 0-3.967.812-5.39 2.253s-2.209 3.393-2.183 5.419l7.573-.098zm243.825 0l7.574.098c.026-2.026-.76-3.977-2.183-5.419S265.63 0 263.604 0v7.574zm-.002.167h-7.575c0 10.985 8.805 20.038 19.86 20.086l.033-7.574.033-7.574c-2.561-.011-4.777-2.138-4.777-4.938h-7.574zm12.318 12.512h-7.574v178.513h7.574 7.574V20.253h-7.574zm0 178.513l-.033-7.574c-10.968.047-19.716 8.958-19.856 19.822l7.573.097 7.574.098c.036-2.767 2.237-4.858 4.775-4.869l-.033-7.574zm-12.316 12.345v-7.574H19.779v7.574 7.574h243.825v-7.574zm-243.825 0l7.574-.097c-.14-10.806-8.793-19.676-19.678-19.82l-.1 7.574-.1 7.573c2.519.033 4.696 2.118 4.732 4.868l7.573-.098zM7.574 198.768h7.574V20.251H7.574 0v178.517h7.574zm0-178.517l.1 7.573c10.973-.145 19.681-9.157 19.681-20.083h-7.574-7.574c0 2.783-2.192 4.903-4.733 4.936l.1 7.574zm12.207-12.51h7.574l-.002-.192-.001-.073-7.574.098-7.573.098.001.062v.032c0 .014 0 0 0-.025h7.574zm-.002-.167v7.574h243.825V7.574 0H19.779v7.574zm243.825 0l-7.573-.098v-.028.035l-.004.258h7.575 7.574l-.001.077v.014c0-.024.001-.036.001-.049.001-.026.001-.065.002-.112l-7.574-.098z" fill="url(#E)" mask="url(#A)"/></g><defs><filter id="B" x="0" y="0" width="283.494" height="220.468" filterUnits="userSpaceOnUse" color-interpolation-filters="sRGB"><feFlood flood-opacity="0" result="A"/><feColorMatrix in="SourceAlpha" values="0 0 0 0 0 0 0 0 0 0 0 0 0 0 0 0 0 0 127 0" result="B"/><feOffset dy="1.78216"/><feComposite in2="B" operator="out"/><feColorMatrix values="0 0 0 0 0.913725 0 0 0 0 0.498039 0 0 0 0 0.0392157 0 0 0 1 0"/><feBlend in2="A"/><feBlend in="SourceGraphic"/></filter><linearGradient id="C" x1="7.574" y1="109.343" x2="275.92" y2="109.343" gradientUnits="userSpaceOnUse"><stop stop-color="#3c3024"/><stop offset="1" stop-color="#bd7b49"/></linearGradient><linearGradient id="D" x1="141.747" y1="7.574" x2="141.747" y2="211.111" gradientUnits="userSpaceOnUse"><stop stop-color="#3c3024"/><stop offset="1" stop-color="#bd7b49"/></linearGradient><linearGradient id="E" x1="141.747" y1="211.111" x2="141.747" y2="7.574" gradientUnits="userSpaceOnUse"><stop stop-color="#3c3024"/><stop offset="1" stop-color="#bd7b49"/></linearGradient><path id="F" d="M263.602 7.741c0 6.892 5.51 12.482 12.318 12.512v178.513c-6.753.029-12.228 5.53-12.316 12.345H19.779c-.087-6.778-5.503-12.255-12.205-12.343V20.251c6.757-.089 12.207-5.655 12.207-12.51l-.002-.167h243.825l-.002.167z"/></defs></svg>