<svg xmlns="http://www.w3.org/2000/svg" width="211" height="528" fill="none" viewBox="0 0 211 528"><path fill="url(#a)" fill-rule="evenodd" d="M153.52 281.55c-1.3 1.15-3.85 4.18-3.67 7.12.2 3.36-.06 3.18-1.82 1.92-.16-.11-.33-.24-.52-.36-.13-.1-.27-.19-.4-.29-2.07-1.46-3.96-2.79-4.38-.49-.36 1.95.22 2.96.55 3.22-.74.08-2.75.67-4.89 2.45-2.67 2.23-2.67 4.12-2.56 5.67.04.54-3.04 14.08-7.23 32.53-7.88 34.68-11.92 87.86-14.46 103.76-3.12 19.49-5.23 35.15-9.35 45.05-1.45-1.18-4.92-3.4-7.23-2.78-1.64.45-1.89 1.54-2.14 2.66-.19.85-.38 1.73-1.2 2.35-.69.53-1.45.72-2.13.89-1.16.28-2.1.51-2.1 2.34 0 2.89-1.33 5.11-2.55 5.22-1.23.12-4.01 2.34-2.01 4.68.68.78 1.04 4.1 1.5 8.42.93 8.53 2.27 20.97 7.29 25.62 7.57 7.01 28.04 8.79 31.49 2.23 2.12-4.05 3.15-9.71 4.25-15.77.69-3.77 1.4-7.69 2.42-11.49 1.4-5.17 2.55-7.88 3.46-10.03.83-1.96 1.46-3.43 1.88-5.88.71-4.09-2.67-9.37-5.34-8.46.5-4.26-1.07-17.99 1.37-33.37.43 1.07 8.62 5.9 12.98 5.45 5.46-.56 10.24-4.23 11.02-6.12.62-1.51.7-3.22.66-3.89 1.23.48 3.97.73 5.12-2.12 1.16-2.84.48-6.45 0-7.89.93-.56 2.98-1.87 3.78-2.68 1.01-1 11.58 1.67 12.35 8.35.36 3.06-.03 5.21-.37 7.05-.39 2.17-.71 3.9.37 6.19.94 1.97 1.75 2.71 2.38 3.28.71.64 1.18 1.06 1.3 2.84.07 1.17-.34 2.14-.76 3.11-.77 1.79-1.55 3.61.76 6.79 3.56 4.89 3.89 6.23 4 9.34.04 1.24-.28 2.02-.59 2.76-.47 1.15-.91 2.21.03 4.7.88 2.3 2.09 4.04 3.02 5.37.73 1.04 1.27 1.83 1.32 2.42.04.38-.13.85-.32 1.42-.49 1.39-1.18 3.4.32 6.25.92 1.74 2.04 2.93 3 3.94 1.24 1.32 2.2 2.34 2.01 3.85-.33 2.67.22 6.68 2.78 8.46.31.24.65.51 1.01.79 3.78 3 9.95 7.89 10.56 4.43.25-1.43.93-2.35 1.59-3.24 1.09-1.47 2.12-2.86 1.08-6.32-1.67-5.57-2.67-8.24-5.67-9.13-1.89-.55-1.49-2.38-1.05-4.46.26-1.24.55-2.57.38-3.77-.26-1.87-1.56-3.1-2.74-4.22-.86-.81-1.65-1.57-1.93-2.46-.31-.96.09-1.94.54-3.05.54-1.31 1.15-2.81.79-4.73-.4-2.16-1.54-3.09-2.45-3.83-.59-.49-1.09-.9-1.22-1.51-.16-.75.04-2.48.24-4.25.22-1.93.44-3.9.21-4.65-.23-.73-.84-1.34-1.45-1.95s-1.22-1.22-1.45-1.95c-.19-.64.36-1.47 1.04-2.47.83-1.24 1.86-2.75 1.86-4.54 0-2.58.74-6.19 1.11-7.67 1.59 3.19 5.65 10.08 9.12 12.12 3.05 1.8 4.07 4.1 4.94 6.07.37.84.72 1.62 1.18 2.28.5.71 1.29 1.19 2.15 1.71 1.82 1.09 3.96 2.37 4.41 6.52.67 6.12 3.56 7.23 7.57 8.57 2.29.76 2.25 3.5 2.21 5.94-.02 1.83-.05 3.5.9 4.07.36.22.81.5 1.32.83v.01c2.67 1.72 7.15 4.61 10.7 4.61 4.23 0 8.23-.11 10.12-1.22 1.52-.89 2.04-.37 2.12 0-.45 3.67.31 12.79 6.9 19.91 6.58 7.12 16.9 8.16 21.24 7.79.93-2.6 4.79-7.79 12.8-7.79 10.01 0 18.91-2.44 16.58-7.9-1.02-2.36-1.28-4.18-1.51-5.81-.3-2.13-.56-3.93-2.39-6.2-3.22-4.01-3.78-5.79-2.67-6.68.35-.28 1.17-.35 2.21-.44 2.22-.19 5.46-.46 7.36-3.12 2.78-3.89 12.13-10.23 10.12-5.11-2 5.11-1.22 10.12 2.89 12.34 1.13.61 2.36 1.63 3.65 2.7 3.41 2.83 7.31 6.06 11.26 3.31 5.45-3.78 5.57-4.67 2.78-8.45-2.78-3.79-4.56-5.9-7.45-7.12-1.37-.58-1.24-2.1-1.1-3.92.17-2.03.36-4.44-1.46-6.32-2.1-2.17-2.26-3.76-2.44-5.58-.12-1.16-.24-2.42-.9-3.99-1.05-2.52-2.94-3.63-4.42-4.5-.87-.51-1.59-.93-1.92-1.5-.41-.72.16-2.11.81-3.71.75-1.85 1.61-3.97 1.19-5.64-.44-1.76-2.19-2.99-3.68-4.03-1.14-.79-2.12-1.47-2.21-2.2-.09-.64.36-1.55.9-2.64.87-1.77 1.99-4.03 1.43-6.37-.45-1.93-1.6-3.02-2.7-4.07-1.06-1.01-2.09-1.97-2.41-3.61-.28-1.37 1.04-2.31 2.72-3.52 2.4-1.72 5.56-3.99 5.95-8.83.67-8.23-6.11-18.58-12.9-21.8-2.16-1.03-4.69-1.31-7.46-1.62-5.95-.67-13.01-1.46-19.91-9.95-8.1-9.97-37.56-43.91-51.29-59.63 7.49-5.94 21.32-20.74 16.69-32.49s-8.38-15.2-9.68-15.46c.11-4.45-2-13.86-11.34-15.91-11.69-2.56-20.36-.11-24.26 9.79-2.68 6.81.18 11.62 2.14 14.94.89 1.51 1.6 2.7 1.53 3.64-.17 2.4-6.08 4.63-9.01 5.45-1.78-3.38-5.96-10.9-8.45-14.02-2.5-3.11-13.57-4.22-22.48-3.89-8.71.32-20.39 4.19-21.69 5.34m84.55 144.74c3.38 5.07 11.57 7.97 13.35 9.45 2.78 7.38 9.39 23.74 13.58 30.15 5.01 7.68-2.56 14.35-4.74 17.42-.09.13-.19.26-.27.38-1.63 2.32-1.41 5.24-1.22 7.67.05.72.11 1.4.11 2.01 0 1.79-1.31.98-2.64.15-.65-.41-1.3-.82-1.81-.93-.39-.08-.8-.16-1.21-.23-1.23-.23-2.47-.46-3.13-.88-.45-.28-1.23-1.4-2.14-2.7-.91-1.29-1.93-2.76-2.87-3.75-.86-.91-2.17-1.22-3.38-1.51-1.46-.35-2.78-.66-2.96-1.94-.07-.46-.12-.98-.18-1.54-.23-2.27-.53-5.22-2.05-7.81-1.39-2.38-3.94-3.61-5.49-4.36-.55-.26-.98-.47-1.18-.64-.42-.36-.45-1.47-.5-3.06-.04-1.35-.08-3.06-.39-4.95-.35-2.17-2.49-2.86-4.47-3.49-1.78-.57-3.44-1.1-3.54-2.63-.09-1.33.42-2.11.99-2.98.82-1.25 1.76-2.68 1.23-6.14-.18-1.23-.38-2.34-.56-3.36-.69-3.87-1.11-6.24.56-7.21 1.69-.98 6.79-9.02 9.13-12.91.52-.18 2.4.71 5.78 5.79m-78.65-11.35c2.4-2.49-5.23-14.13-7.23-19.14-3.83 8.65-12.01 29.79-15.23 47.4 1.73-.45 9.51-.69 9.77-2.12.34-1.78 2.23-2.89 4.01-3.89s2.11-1.23 1.45-4.23c-.06-.25-.11-.47-.16-.68-.53-2.3-.53-2.32 1.71-4.77 2.45-2.67 2.67-3.89 2.67-6.34s0-3.12 3.01-6.23m142.23 30.14c.89-.49 2.21-1.22 3.4-3.11 2.22.23 6.4.91 5.34 1.89-1.34 1.23-1.34 8.57-1.34 10.24 0 1.34 3.78.56 5.68 0 .44 1.11 1.06 3.72 0 5.23-1.34 1.89 0 8.45 2.11 11.12 1.69 2.14 3.74.89 4.56 0 .3.6.71 2.12 0 3.45-.4.76-.12 2.19.17 3.61.34 1.71.68 3.41-.17 3.96-1.25.8-6.01.33-8.23 0-1.37.52-4.65 1.04-6.79-1-2.26-2.17-1.65-2.9-.19-4.64.26-.31.55-.65.86-1.04 2-2.56-2-7.56-3.45-8.9-1.14-1.05-.28-3.47.67-6.18.27-.74.54-1.51.78-2.27 1.11-3.56-1.12-7.01-3.56-9.9-1.36-1.61-.94-1.84.16-2.46" clip-rule="evenodd"/><path stroke="#f2c78b" stroke-width=".91" d="M235.16 496.77c2.67 1.72 7.15 4.61 10.7 4.61 4.23 0 8.23-.11 10.12-1.22 1.52-.89 2.04-.37 2.12 0-.45 3.67.31 12.79 6.9 19.91 6.58 7.12 16.9 8.16 21.24 7.79.93-2.6 4.79-7.79 12.8-7.79 10.01 0 18.91-2.44 16.58-7.9-1.02-2.36-1.28-4.18-1.51-5.81-.3-2.13-.56-3.93-2.39-6.2-3.22-4.01-3.78-5.79-2.67-6.68.35-.28 1.17-.35 2.21-.44 2.22-.19 5.46-.46 7.36-3.12 2.78-3.89 12.13-10.23 10.12-5.11-2 5.11-1.22 10.12 2.89 12.34 1.13.61 2.36 1.63 3.65 2.7 3.41 2.83 7.31 6.06 11.26 3.31 5.45-3.78 5.57-4.67 2.78-8.45-2.78-3.79-4.56-5.9-7.45-7.12-1.37-.58-1.24-2.1-1.1-3.92.17-2.03.36-4.44-1.46-6.32-2.1-2.17-2.26-3.76-2.44-5.58-.12-1.16-.24-2.42-.9-3.99-1.05-2.52-2.94-3.63-4.42-4.5-.87-.51-1.59-.93-1.92-1.5-.41-.72.16-2.11.81-3.71.75-1.85 1.61-3.97 1.19-5.64-.44-1.76-2.19-2.99-3.68-4.03-1.14-.79-2.12-1.47-2.21-2.2-.09-.64.36-1.55.9-2.64.87-1.77 1.99-4.03 1.43-6.37-.45-1.93-1.6-3.02-2.7-4.07-1.06-1.01-2.09-1.97-2.41-3.61-.28-1.37 1.04-2.31 2.72-3.52 2.4-1.72 5.56-3.99 5.95-8.83.67-8.23-6.11-18.58-12.9-21.8-2.16-1.03-4.69-1.31-7.46-1.62-5.95-.67-13.01-1.46-19.91-9.95-8.1-9.97-37.56-43.91-51.29-59.63 7.49-5.94 21.32-20.74 16.69-32.49s-8.38-15.2-9.68-15.46c.11-4.45-2-13.86-11.34-15.91-11.69-2.56-20.36-.11-24.26 9.79-2.68 6.81.18 11.62 2.14 14.94.89 1.51 1.6 2.7 1.53 3.64-.17 2.4-6.08 4.63-9.01 5.45-1.78-3.38-5.96-10.9-8.45-14.02-2.5-3.11-13.57-4.22-22.48-3.89-8.71.32-20.39 4.19-21.69 5.34s-3.85 4.18-3.67 7.12c.2 3.36-.06 3.18-1.82 1.92-.16-.11-.33-.24-.52-.36-.13-.1-.27-.19-.4-.29-2.07-1.46-3.96-2.79-4.38-.49-.36 1.95.22 2.96.55 3.22-.74.08-2.75.67-4.89 2.45-2.67 2.23-2.67 4.12-2.56 5.67.04.54-3.04 14.08-7.23 32.53-7.88 34.68-11.92 87.86-14.46 103.76-3.12 19.49-5.23 35.15-9.35 45.05-1.45-1.18-4.92-3.4-7.23-2.78-1.64.45-1.89 1.54-2.14 2.66-.19.85-.38 1.73-1.2 2.35-.69.53-1.45.72-2.13.89-1.16.28-2.1.51-2.1 2.34 0 2.89-1.33 5.11-2.55 5.22-1.23.12-4.01 2.34-2.01 4.68.68.78 1.04 4.1 1.5 8.42.93 8.53 2.27 20.97 7.29 25.62 7.57 7.01 28.04 8.79 31.49 2.23 2.12-4.05 3.15-9.71 4.25-15.77.69-3.77 1.4-7.69 2.42-11.49 1.4-5.17 2.55-7.88 3.46-10.03.83-1.96 1.46-3.43 1.88-5.88.71-4.09-2.67-9.37-5.34-8.46.5-4.26-1.07-17.99 1.37-33.37.27-1.74 1.3-1.78 1.97-3.45.25-.62 1.11-1.44 1.24-2.11m0 0c3.22-17.61 11.4-38.75 15.23-47.4 2 5.01 9.63 16.65 7.23 19.14-3.01 3.11-3.01 3.78-3.01 6.23s-.22 3.67-2.67 6.34c-2.24 2.45-2.24 2.47-1.71 4.77.05.21.1.43.16.68.66 3 .33 3.23-1.45 4.23s-3.67 2.11-4.01 3.89c-.26 1.43-8.04 1.67-9.77 2.12Zm98.2 53.57v-.01c-.51-.33-.96-.61-1.32-.83-.95-.57-.92-2.24-.9-4.07.04-2.44.08-5.18-2.21-5.94-4.01-1.34-6.9-2.45-7.57-8.57-.45-4.15-2.59-5.43-4.41-6.52-.86-.52-1.65-1-2.15-1.71-.46-.66-.81-1.44-1.18-2.28-.87-1.97-1.89-4.27-4.94-6.07-3.47-2.04-7.53-8.93-9.12-12.12-.37 1.48-1.11 5.09-1.11 7.67 0 1.79-1.03 3.3-1.86 4.54-.68 1-1.23 1.83-1.04 2.47.23.73.84 1.34 1.45 1.95s1.22 1.22 1.45 1.95c.23.75.01 2.72-.21 4.65-.2 1.77-.4 3.5-.24 4.25.13.61.63 1.02 1.22 1.51.91.74 2.05 1.67 2.45 3.83.36 1.92-.25 3.42-.79 4.73-.45 1.11-.85 2.09-.54 3.05.28.89 1.07 1.65 1.93 2.46 1.18 1.12 2.48 2.35 2.74 4.22.17 1.2-.12 2.53-.38 3.77-.44 2.08-.84 3.91 1.05 4.46 3 .89 4 3.56 5.67 9.13 1.04 3.46.01 4.85-1.08 6.32-.66.89-1.34 1.81-1.59 3.24-.61 3.46-6.78-1.43-10.56-4.43-.36-.28-.7-.55-1.01-.79-2.56-1.78-3.11-5.79-2.78-8.46.19-1.51-.77-2.53-2.01-3.85-.96-1.01-2.08-2.2-3-3.94-1.5-2.85-.81-4.86-.32-6.25.19-.57.36-1.04.32-1.42-.05-.59-.59-1.38-1.32-2.42-.93-1.33-2.14-3.07-3.02-5.37-.94-2.49-.5-3.55-.03-4.7.31-.74.63-1.52.59-2.76-.11-3.11-.44-4.45-4-9.34-2.31-3.18-1.53-5-.76-6.79.42-.97.83-1.94.76-3.11-.12-1.78-.59-2.2-1.3-2.84-.63-.57-1.44-1.31-2.38-3.28-1.08-2.29-.76-4.02-.37-6.19.34-1.84.73-3.99.37-7.05-.77-6.68-11.34-9.35-12.35-8.35-.8.81-2.85 2.12-3.78 2.68.48 1.44 1.16 5.05 0 7.89-1.15 2.85-3.89 2.6-5.12 2.12.04.67-.04 2.38-.66 3.89-.78 1.89-5.56 5.56-11.02 6.12-4.36.45-12.55-4.38-12.98-5.45m101.41 48.01v-.01m25.1-13.45c2.18-3.07 9.75-9.74 4.74-17.42-4.19-6.41-10.8-22.77-13.58-30.15-1.78-1.48-9.97-4.38-13.35-9.45-3.38-5.08-5.26-5.97-5.78-5.79-2.34 3.89-7.44 11.93-9.13 12.91-1.67.97-1.25 3.34-.56 7.21.18 1.02.38 2.13.56 3.36.53 3.46-.41 4.89-1.23 6.14-.57.87-1.08 1.65-.99 2.98.1 1.53 1.76 2.06 3.54 2.63 1.98.63 4.12 1.32 4.47 3.49.31 1.89.35 3.6.39 4.95.05 1.59.08 2.7.5 3.06.2.17.63.38 1.18.64 1.55.75 4.1 1.98 5.49 4.36 1.52 2.59 1.82 5.54 2.05 7.81.06.56.11 1.08.18 1.54.18 1.28 1.5 1.59 2.96 1.94 1.21.29 2.52.6 3.38 1.51.94.99 1.96 2.46 2.87 3.75.91 1.3 1.69 2.42 2.14 2.7.66.42 1.9.65 3.13.88.41.07.82.15 1.21.23.51.11 1.16.52 1.81.93 1.33.83 2.64 1.64 2.64-.15 0-.61-.06-1.29-.11-2.01-.19-2.43-.41-5.35 1.22-7.67.08-.12.18-.25.27-.38Zm44.79-41.34c2.22.23 6.4.91 5.34 1.89-1.34 1.23-1.34 8.57-1.34 10.24 0 1.34 3.78.56 5.68 0 .44 1.11 1.06 3.72 0 5.23-1.34 1.89 0 8.45 2.11 11.12 1.69 2.14 3.74.89 4.56 0 .3.6.71 2.12 0 3.45-.4.76-.12 2.19.17 3.61.34 1.71.68 3.41-.17 3.96-1.25.8-6.01.33-8.23 0-1.37.52-4.65 1.04-6.79-1-2.26-2.17-1.65-2.9-.19-4.64.26-.31.55-.65.86-1.04 2-2.56-2-7.56-3.45-8.9-1.14-1.05-.28-3.47.67-6.18.27-.74.54-1.51.78-2.27 1.11-3.56-1.12-7.01-3.56-9.9-1.36-1.61-.94-1.84.16-2.46.89-.49 2.21-1.22 3.4-3.11Z"/><path fill="url(#b)" stroke="#f2c78b" stroke-width=".91" d="M6 169.85c-10.24-2.23-6.46-6.56 12.68-20.03-1.67-1.48-5.23-1.89-5.23-8.23 0-3.07 2.45-5.86 3.78-6.9-.44-.18-1.44-1.29-1.89-4.22-.44-2.94 1.6-5.08 2.67-5.79.56-.41 2.41-2.2 5.34-6.12 2.94-3.91 9.46-17.65 11.13-22.36 1.63.71 5.45 3.61 18.35 4.67 12.91 1.07 23.15 1.34 26.82.89.55 1.52 2.51 3.72 3.67 5.23s3 1.45 3.78 1.23c-.56-3.19-3.25-11.73 1.11-16.8 5.45-6.34 20.7-1.56 16.13 13.01-1.66 5.32-1.74 11.76-1.22 14.35l67.98 54.41c32.22-2.26 100.72-6.79 116.92-6.79 20.25 0 16.8 8.9 12.35 13.24s-20.25 5.23-43.28 8.68-40.49 7.23-54.84 25.14c-11.48 14.33-6.64 66.2-2.78 90.34 10.31 7.82 34.66 28.79 49.61 50.06 18.69 26.59 51.07 157.42 53.52 162.21 2.44 4.78 15.35 11.01 19.24 15.02 3.9 4 2.56 11.79-4.89 12.46-7.46.66-17.47-2.9-26.7 2.11-7.39 4-12.06 4.12-13.46 3.67-1.04.74-4.12 2.98-8.12 6.01-5.01 3.78-9.57 2.56-14.02-3.78s-3.12-17.8 0-21.14c2.49-2.67 16.24-1.11 22.8 0 2.64-.93 7.84-4.67 7.57-12.24-.33-9.46-32.38-77.43-40.16-89.89-6.23-9.97-38.94-50.36-54.52-69.31-15.57 18.24-47.24 56.4-49.28 63.08-2.56 8.34-9.01 51.95-12.13 76.43-3.11 24.48-4.12 29.04 0 34.49s14.35 16.8 11.02 22.14c-3.34 5.34-9.79 2.89-17.14.78-5.87-1.69-20.62-.71-27.25 0-4.94 3.48-15.6 10.14-18.81 8.9-4-1.56-6.67-6.01-8.01-13.69-1.33-7.68-2.33-11.23 3.34-15.35 4.54-3.29 18.43-1.37 24.81 0 2.15-.45 6.92-2.18 8.79-5.56 2.34-4.23 5.79-94.9 7.79-112.7s42.16-103.69 43.16-110.7 0-18.13-4.22-35.38c-4.23-17.24-13.69-19.58-17.58-28.59-3.12-7.21-9.24-31.93-11.91-43.39-3.41-.22-12.52-.71-21.69-.89-11.46-.22-21.47-1.11-22.14-8.45-.67-7.35 6.56-10.13 12.35-10.46 4.63-.27 30.85-1.82 43.39-2.56l-13.69-12.13c-2.15 1.3-9.14 4.01-19.91 4.46-10.77.44-17.47-2.79-19.47-4.46-1 .71-3.56 2.39-5.78 3.45-2.23 1.07-4.71 1.78-5.68 2.01.89.55 1.63 1.33.89 3.22-1.56 4.01-6.12 2.9-9.01 2.9s-5.9 1.85-7.79-.12c-1.49-1.55-1.22-3.19-.11-4.67-.81-.33-2.98-1.33-3.78-3.11s-.34-2.93.33-3.68c-.67 0-1.22 0-3.34.67-5.96 1.89-4.45-2.78-4.45-2.78s-1.11-.56-3.67.34c-3.68 1.27-3.22 2.89-8.34 2.89-5.53 0-5.27-5.31-4.45-7.79-3.45 4.6-12.39 13.35-20.58 11.57Z"/><path fill="url(#c)" stroke="#f2c78b" stroke-width=".91" d="M170.65 290c-.82-1.52-1.29-5.72 3.34-10.35 1.66-.81 6.05-1.96 10.23 0s4.56 6.23 4.23 8.12c.44.34 1.6 1.25 2.67 2.23 1.33 1.22 5.45 9.57 11.68 15.8s7.01 1.11 14.35 1.11c5.88 0 15.43 8.31 19.47 12.46.82-1 3.56-3.36 8.01-4.78 5.56-1.78 9.23-1.01 10.9 4.78s4.79 4.45 7.79 9.23c3 4.79 5.45 13.24 6.56 13.8 1.12.56 9.02 5.34 10.35 8.12 1.34 2.78 3.23 9.12 4.56 10.68 1.34 1.56 5.34 3.9 9.68 7.12 1.78 2.12.56 6.23 6.9 9.57 5.07 2.67 6.19 5.12 6.12 6.01.78.22 2.8 1.53 4.67 5 2.31 4.3-2.24 6.2-3.63 6.77l-.04.02c-1.34.56-4.67 1.22-7.12 2.34-2.45 1.11-5.34-1.12-8.68 0-2.67.89-7.27-.38-9.23-1.12 4 1.6 13.19 5.46 17.91 8.13 4.72 2.66 7.6 3.18 8.45 3.11-.7.41-3.38 1.16-8.45.89s-14.06-2.78-17.91-4c-.85.22-2.7 1.95-3.23 7.11-.46 4.42-1.96 4.25-3.29 3.78-.2.3-.29 2.1.95 6.9 1.56 6.01 9.57 30.38 13.13 34.27 3.56 3.9 7.01 5.79 10.35 9.46s-2.67 9.45-5.45 10.9-7.12 1.34-10.46 4.23c-2.34 1.78-7.68 1.67-10.23 3.33-2.56 1.67-10.13-2-11.46-5.78-1.34-3.78-.56-7.34-5.01-16.35-3.56-7.21-9.2-20.33-11.57-25.98-1.13.23-2.42.13-3.67-.5-1.96-.98-6.31-8.12-8.24-11.57.56 3.11 2.79 10.97 7.24 17.46 4.45 6.5 10.82 13.91 13.46 16.8-1.74-.74-7.14-3.49-14.8-8.56-7.65-5.08-13.94-15.32-16.13-19.81-1.48 1.6-5.25 4.79-8.46 4.79H203.8c.33 6.71 1.85 21.74 5.23 28.15 3.38 6.4 12.91 9.12 17.24 9.67-2.67.82-9.85 1.49-17.24-2.33-7.39-3.83-14.72-25.26-17.47-35.49-4.26 1.81-14.3 4.36-20.36 0-6.05-4.36-4-11.16-2.22-14.02-.85-.7-3.45-2.6-7.01-4.56s-5.27-6.01-5.67-7.79c-1.27 0-3.99 1.56-4.79 7.79s-5.67 9.42-8.01 10.23c0 1.78-.38 7.19-1.89 14.58-1.89 9.23-3.56 15.69-5.23 24.47-1.33 7.03-.41 18.58.22 23.48-.66.3-2.93 1.02-6.67 1.56-4.67.66-7.34 3.22-12.57 3.22-4.19 0-10.57-3.19-13.24-4.78-.82-4.34-1.96-16.62 0-31.04s2.82-30.78 3-37.16c-1.26-2.08-4.14-8.99-5.56-20.02-1.07-8.26-.87-11.35-.45-12.17-.74.12-2.11-.23-4-2.19-3-3.11.22-6.67 1.11-7.78.89-1.12-.89-1.67 0-4.12s3.01-2.89 2.34-6.57c-.67-3.67-.34-6.78 2.78-9.34 3.11-2.56-.11-3.34 0-5.79.11-2.44 5.12-5.22 6.12-7.34 1-2.11-2.23-4.45-1-7.56.98-2.49 5.89-5.79 8.23-7.12-.11-1.67.27-6.17 2.67-10.79 3-5.79 5.12-8.9 6.23-13.8.69-3.03 2.1-3.97 4.78-4.25 3.01-.65 5.68-5.87 8.68-8.1 2.41-1.78 3.82-1.93 4.23-1.78-1.59.37-4.61 1.91-3.89 5.12.71 3.2 1.8 6.73 7.45 8.01 1.75.4 7.57.11 8.79 0 4-.36 11.83-10.42 15.02-15.91Z"/><path fill="url(#d)" fill-rule="evenodd" stroke="#f2c78b" stroke-width=".91" d="M195.79 133.58c.96-10.86 6.77-39.47 21.25-59.41 5.24-7.22 8.46-11.22 15.24-17.02 11.58-9.9 27.28-16.88 34.6-18.02 8.01-1.25 19.8 1 17.47 5.56-1.82 3.56-2.83 3.76-5.68 3.23-3.56-.67-18.69 5-21.13 31.26-1.96 21-.23 38.86.89 45.17 1.07-.78 4.22-2.54 8.23-3.34 4-.8 6.34 1.89 7.01 3.34-3.86-.3-11.71 4.98-12.24 28.48-.1 4.52.07 9.43.34 14.57-16.7 1.89-47.07 3.12-50.96 3.12-3.37 0-2.89 7.6-2.67 10.12 1.74-2.08 5.63-6.05 7.23-5.34s.97 3.12.45 4.23c.33.19 1.09 1.09 1.44 3.23.36 2.13.15 3.41 0 3.78.41.18 1.49.44 2.56 0 1.07-.45 2.3-1 2.78-1.23-.18 1.53-1 5.01-2.78 6.79s-3.71 1.63-4.45 1.34c-.3.4-.84 1.71-.67 3.67.18 1.96.56 3.15 1.12 3.89 3.15-2.37 12.17-6.96 19.91-9.46 7.74-2.49 21.36-4.07 27.2-4.56 1.16 23.3.4 46.94-15.63 57.63-19.49 13-46.65 12.69-51.51 11.24v-5.56c-.7 1.63-2.87 5.02-5.9 5.56-3.02.53-6.97 1.11-8.56 1.33-.45 3.94-1.2 13.18-.67 18.69.53 5.52.67 12.69.67 15.58-3.01-6.56-9.37-20.8-10.79-25.25-1.43-4.45-2.16-7.05-2.34-7.79-1.97-.11-6.61-.65-9.46-1.89-2.84-1.25-9.19-1.86-12.01-2.01.44 1.12 1.64 4.08 2.89 7.01 1.25 2.94 2.3 6.12 2.67 7.35-2.56-1.67-8.81-6.21-13.35-11.02-4.54-4.8-5.67-8.53-5.67-9.79-5.57-3.56-15.07-15.6-16.13-30.82-1.77-25.14 15.35-42.27 15.35-42.27l8.01 6.9c-2 1.74-6.63 6.34-9.12 10.79-3.12 5.56-5.46 13.35-3.68 23.25s4.9 17.58 15.24 23.7c8.28 4.89 18.51 3.3 22.59 1.89-.26-2.23.38-9.15 5.01-19.03 5.78-12.35 8.9-37.04 5.67-42.61-2.58-4.45-12.3-12.23-16.83-15.57.2-5 .21-11.42-1.3-14.24-2.45-4.56-6.93-2.92-7.46-.89-.58 2.25-.33 4.31-.14 5.91.06.53.12 1.01.14 1.43l-4.78-4.34c-.52-2.78.18-7.52 4-12.24 4.79-5.89 16.75-9.12 22.37-9.12 5 0 19.8 1.97 23.58 2.78Zm.78 38.27-14.13.89c1.26.6 3.43 2.81 4.23 10.46.85 8.19-4.32 22.32-7.43 30.83-.53 1.44-.99 2.71-1.36 3.77-2.56 7.34-1.89 11.46-.56 14.02.29.55.63 1.23 1.02 2 1.43 2.82 3.44 6.79 5.1 9.24 1.69 2.49 8.49 1.16 11.9.13 0-3.3.34-11.64 1.67-18.58 1.34-6.95 5.64-12.89 7.57-14.49-1.45-4.15-4.36-13.7-5.79-22.25-1.42-8.54-2.07-14.24-2.22-16.02Z" clip-rule="evenodd"/><path fill="url(#e)" fill-rule="evenodd" d="M19.79 102.65c-2.89 15.47-3.23 20.92-2.23 22.81 1.71-1.26 5.81-4.65 8.57-8.12s8.94-12.94 11.68-17.25c1.26.34 4.67 1.07 8.23 1.34 2.56.19 6.47.97 10.57 1.79 3.06.6 6.22 1.23 9.02 1.66 5.25.8 11.82-1.15 14.46-2.23.7 2.38 2.73 7.12 5.23 7.12 2.49 0 3.71-.89 4-1.33-1.18-.82-3.07-4.18-1.11-11.13 2.45-8.67 13.91-4.11 14.46-1.44.56 2.67 1.11 6.23-.55 8.45-1.34 1.78-.56 10.01 0 13.91l29.7 23.92 4.34-3.67c2.82-.41 9.17-1.32 12.01-1.67 2.34-.29 4.38-1.44 6.46-2.61 1.09-.61 2.18-1.23 3.34-1.73 1.87-.81 3.63-1.2 5.27-1.57 1.29-.28 2.5-.55 3.63-.99 2.55-1 7.89-4.89 8.67-6.23.47-.8 2.79-2.65 4.78-4.24 1.32-1.05 2.5-1.99 2.9-2.44.8-.89 5.52-7.63 7.79-10.9.92-.96 3.02-3.07 4-3.78.64-.47 1.01-1.64 1.41-2.9.36-1.15.74-2.37 1.37-3.22.41-.54.76-.91 1.08-1.23.71-.74 1.21-1.25 1.59-3.11.56-2.67 2.23-10.57 4.12-12.01 1.51-1.16 3.15-4.71 3.78-6.34 3.86.37 12.6.53 16.69-1.78 5.12-2.9 5.34-7.41 1.67-9.02-8.12-3.56-1.67 8.35-17.25-4.78 1.41-.19 7.44-1.11 9.13-.67 2.11.56 8.12 2.23 10.23 2.9 1.69.53 1.89 1.92 1.78 2.55.71-.33 2.07-1.75 1.89-4.78-.17-3.03-3.93-6.01-5.78-7.12 1-1.93 3-5.92 3-6.45 0-.54-2.3.22-3.45.66.45-1.44 1.36-4.47 1.45-5 .09-.54-2.86.81-4.34 1.56-.11-.56-.33-2.85-.33-7.57 0-5.9-1.78-11.01-3.79-15.24-1.6-3.38-.66-6.16 0-7.12 1.27-.26 3.79-1.31 3.79-3.45 0-2.67-5.9-4.45-13.02-1.56-5.69 2.32-16.09 10.91-20.58 14.91-9.2-10.64-33.67-29.01-57.96-17.35-24.3 11.65-25.11 31.63-22.48 40.16-.26.66-1.78 2.13-5.78 2.67-1.93.25-4.71-.44-8.37-1.36-5.85-1.47-13.94-3.5-24.34-3.09-13.53.53-23.51 10.97-26.81 16.13-1.04-2.45-4.1-8.61-8.01-13.68-4.9-6.35-6.12-.67-4.12 3.11s.67 6.34-2.78 12.57c-2.76 4.99-.63 9.5.78 11.13-.59-.63-2.29-1.78-4.34-1.34-2.05.45-2.56 1.08-2.56 1.34 1.23.92 3.74 3.31 4.01 5.45.13 1.1-.53 2.99-1.56 5.93-1.46 4.14-3.65 10.38-5.34 19.43m108.25-47.39c1.07 1.04 3.05 5.16 2.33 13.35-.89 10.24.89 13.02 2.67 13.24.02 0 .04 0 .06.01h.04c2.21.28 18.7 2.37 25.71-8.8 5.7-9.08 7.5-17.73 7.68-20.91-.78.22-2.49.15-3.11-1.9-.63-2.04.18-3.44.66-3.89-.52-.11-1.71-.87-2.33-3-.63-2.14.85-3.86 1.67-4.45-2.3-3.45-9.06-10.55-17.69-11.35-10.79-1-21.14 5.34-23.03 10.79-1.81 5.22-1.07 5.75.36 6.76.07.05.13.09.19.14.46.32.99.49 1.52.66 1.29.4 2.64.82 3.27 3.57.71 3.11.29 5.15 0 5.78m-24.03 0c1.78-1.16 4.97-5.15 5.89-7.01 1.19 2.12 4.01 6.48 7.12 7.46 3.12.97 5.94 1.11 7.23 1 .49.33 1.58 1.64 2.12 4.22.53 2.59-1.85 5.83-3.12 7.12-.22-.29-1.35-1.31-4.11-3-3.45-2.11-11.35-6.67-18.03-6.01-5.34.54-3.93-1.33-2.55-2.33 1.07 0 3.67-.29 5.45-1.45" clip-rule="evenodd"/><path stroke="#f2c78b" stroke-width=".91" d="M133.1 81.86h.04c2.21.28 18.7 2.37 25.71-8.8 5.7-9.08 7.5-17.73 7.68-20.91-.78.22-2.49.15-3.11-1.9-.63-2.04.18-3.44.66-3.89-.52-.11-1.71-.87-2.33-3-.63-2.14.85-3.86 1.67-4.45-2.3-3.45-9.06-10.55-17.69-11.35-10.79-1-21.14 5.34-23.03 10.79-1.81 5.22-1.07 5.75.36 6.76.07.05.13.09.19.14.46.32.99.49 1.52.66 1.29.4 2.64.82 3.27 3.57.71 3.11.29 5.15 0 5.78 1.07 1.04 3.05 5.16 2.33 13.35-.89 10.24.89 13.02 2.67 13.24.02 0 .04 0 .06.01Zm.04 0h-.04m-115.54 43.6c-1-1.89-.66-7.34 2.23-22.81 1.69-9.05 3.88-15.29 5.34-19.43 1.03-2.94 1.69-4.83 1.56-5.93-.27-2.14-2.78-4.53-4.01-5.45 0-.26.51-.89 2.56-1.34 2.05-.44 3.75.71 4.34 1.34-1.41-1.63-3.54-6.14-.78-11.13 3.45-6.23 4.78-8.79 2.78-12.57s-.78-9.46 4.12-3.11c3.91 5.07 6.97 11.23 8.01 13.68 3.3-5.16 13.28-15.6 26.81-16.13 10.4-.41 18.49 1.62 24.34 3.09 3.66.92 6.44 1.61 8.37 1.36 4-.54 5.52-2.01 5.78-2.67-2.63-8.53-1.82-28.51 22.48-40.16 24.29-11.66 48.76 6.71 57.96 17.35 4.49-4 14.89-12.59 20.58-14.91 7.12-2.89 13.02-1.11 13.02 1.56 0 2.14-2.52 3.19-3.79 3.45-.66.96-1.6 3.74 0 7.12 2.01 4.23 3.79 9.34 3.79 15.24 0 4.72.22 7.01.33 7.57 1.48-.75 4.43-2.1 4.34-1.56-.09.53-1 3.56-1.45 5 1.15-.44 3.45-1.2 3.45-.66 0 .53-2 4.52-3 6.45 1.85 1.11 5.61 4.09 5.78 7.12.18 3.03-1.18 4.45-1.89 4.78.11-.63-.09-2.02-1.78-2.55-2.11-.67-8.12-2.34-10.23-2.9-1.69-.44-7.72.48-9.13.67 15.58 13.13 9.13 1.22 17.25 4.78 3.67 1.61 3.45 6.12-1.67 9.02-4.09 2.31-12.83 2.15-16.69 1.78-.63 1.63-2.27 5.18-3.78 6.34-1.89 1.44-3.56 9.34-4.12 12.01-.38 1.86-.88 2.37-1.59 3.11-.32.32-.67.69-1.08 1.23-.63.85-1.01 2.07-1.37 3.22-.4 1.26-.77 2.43-1.41 2.9-.98.71-3.08 2.82-4 3.78-2.27 3.27-6.99 10.01-7.79 10.9-.4.45-1.58 1.39-2.9 2.44-1.99 1.59-4.31 3.44-4.78 4.24-.78 1.34-6.12 5.23-8.67 6.23-1.13.44-2.34.71-3.63.99-1.64.37-3.4.76-5.27 1.57-1.16.5-2.25 1.12-3.34 1.73-2.08 1.17-4.12 2.32-6.46 2.61-2.84.35-9.19 1.26-12.01 1.67l-4.34 3.67-29.7-23.92c-.56-3.9-1.34-12.13 0-13.91 1.66-2.22 1.11-5.78.55-8.45-.55-2.67-12.01-7.23-14.46 1.44-1.96 6.95-.07 10.31 1.11 11.13-.29.44-1.51 1.33-4 1.33-2.5 0-4.53-4.74-5.23-7.12-2.64 1.08-9.21 3.03-14.46 2.23-2.8-.43-5.96-1.06-9.02-1.66-4.1-.82-8.01-1.6-10.57-1.79-3.56-.27-6.97-1-8.23-1.34-2.74 4.31-8.92 13.78-11.68 17.25s-6.86 6.86-8.57 8.12Zm92.34-77.21c-.92 1.86-4.11 5.85-5.89 7.01s-4.38 1.45-5.45 1.45c-1.38 1-2.79 2.87 2.55 2.33 6.68-.66 14.58 3.9 18.03 6.01 2.76 1.69 3.89 2.71 4.11 3 1.27-1.29 3.65-4.53 3.12-7.12-.54-2.58-1.63-3.89-2.12-4.22-1.29.11-4.11-.03-7.23-1-3.11-.98-5.93-5.34-7.12-7.46Z"/><path fill="url(#f)" stroke="#f2c78b" stroke-width=".91" d="M94.55 310.81c0 12.23 1.9 18.13-9.56 18.13-9.57 0-7.9-11.81-7.9-18.13 0-7.9 1.22-100.69.78-115.04-.45-14.35 7.45-16.69 12.12-15.46 4.68 1.22 8.9 4.89 7.12 19.47-1.78 14.57-2.56 86.1-2.56 111.03Z"/><path fill="url(#g)" d="M94.88 260.08v10.12c1.9-.7 5.95-3.16 7.01-7.34 1.34-5.23-.67-11.8-7.01-10.57-6.34 1.22-8.67 4.78-10.01 11.57-1.33 6.79-4.12 14.46-6.34 16.58-2.23 2.11-3.12 2.11-1.34 3.67s9.13 1.67 11.02-11.8c1.51-10.76 5.08-12.64 6.67-12.23"/><path fill="url(#h)" d="M70.85 280.44c.45-2.41.63-8.79.67-11.69 2.56 1.79 4.23 1.45 6.01-.22l.22-19.02c1.41.26 4.36.4 4.9-1.11.66-1.9-4.23-4.79-4.45-14.69-.23-9.9-3.79-7.79-5.79-7.12s-1.56 2.67-1.56 3.89c0 1.23-5.11 1.34-5.89 3.23-.63 1.51.63 3.3 1.33 4.01-.96.63-3.29 1.82-4.89 1.55-1.61-.26-1.12-2.56-.67-3.67-3.15 2.86-8.92 12.71-6.79 29.26 2.67 20.69 15.13 24.7 19.92 24.37 4.78-.34 2-5.12.55-4.57-1.44.56-4.11-1.22-3.56-4.22"/><path stroke="#f2c78b" stroke-width=".91" d="M94.88 260.08v10.12c1.9-.7 5.95-3.16 7.01-7.34 1.34-5.23-.67-11.8-7.01-10.57-6.34 1.22-8.67 4.78-10.01 11.57-1.33 6.79-4.12 14.46-6.34 16.58-2.23 2.11-3.12 2.11-1.34 3.67s9.13 1.67 11.02-11.8c1.51-10.76 5.08-12.64 6.67-12.23Z"/><path stroke="#f2c78b" stroke-width=".91" d="M70.85 280.44c.45-2.41.63-8.79.67-11.69 2.56 1.79 4.23 1.45 6.01-.22l.22-19.02c1.41.26 4.36.4 4.9-1.11.66-1.9-4.23-4.79-4.45-14.69-.23-9.9-3.79-7.79-5.79-7.12s-1.56 2.67-1.56 3.89c0 1.23-5.11 1.34-5.89 3.23-.63 1.51.63 3.3 1.33 4.01-.96.63-3.29 1.82-4.89 1.55-1.61-.26-1.12-2.56-.67-3.67-3.15 2.86-8.92 12.71-6.79 29.26 2.67 20.69 15.13 24.7 19.92 24.37 4.78-.34 2-5.12.55-4.57-1.44.56-4.11-1.22-3.56-4.22Z"/><path fill="url(#i)" stroke="#f2c78b" stroke-width=".91" d="M20.9 490.59c5.34 6.34 22.25-14.13 40.61-12.46.33 1.78 3.07 3.8 6.45 4.34 4.23.67 6.79-.78 14.35-6.68 6.05-4.71 6.16-8.04 5.45-9.12 2.78-4.12 2.43-11.53 2.78-22.47.45-13.69 5.12-107.14 4.57-122.16-.56-15.02-16.02-12.01-17.58-5.34-1.56 6.68-.34 44.84 2.67 92.68 3 47.83-3.34 48.61-6.79 51.06s-17.91.22-27.92 5.01c-10.02 4.78-27.13 22.12-24.59 25.14Z"/><path fill="url(#j)" fill-rule="evenodd" stroke="#f2c78b" stroke-width=".91" d="m79.98 448.76.89-6.68c-2-3.11 1.4-4.51 6.12-3.89s7.23 4.23 3.56 5.12l-.11 5.78c1.97-.29 7.12-1.76 7.57-6.12.44-4.36-1.15-5.97-2.01-6.23l6.9-8.34-15.91-14.24-18.69 14.8 7.46 7.23c-1.15.81-3.23 3.31-2.34 6.78s4.86 5.34 6.56 5.79Zm6.46-16.47c-2.32 0-3.64.75-4.01 1.12l-4.89-5.01 9.45-6.23 8.23 6.79-3.44 4.78c-.82-.48-3.03-1.45-5.34-1.45Z" clip-rule="evenodd"/><path fill="url(#k)" stroke="#f2c78b" stroke-width=".91" d="M116.02 516.73c1.78-3.11 1.45-4.45 2.78-5.89.19-1.04.67-3.54 1.11-5.23.56-2.12 5.68-5.45 9.24-4.34s5.67 3.45 5.56 7.9c-.09 3.56-3.15 6.45-4.67 7.45 1.33 1.63 2 5.9-.67 8.9-3.86 4.34-8.45 5.01-15.35 4.45-6.17-.49-11.68-1.78-13.35-7.67-1.39-4.89 3.93-6.12 6.67-6.12l-.11 2.56c-1.33.11-3.51 1.02-2 3.78 1.4 2.56 6.23 3.56 11.24 3.56 4.78 0 7.45-.78 9.56-3.12 1.69-1.87 1.45-3.48.34-4l.55-4.45c2.9-1.45 4.41-5.99 2.9-6.79-1.9-1-4.12.22-4.23 2.56s-3.12 7.23-5.68 11.24c-2.55 4-6.11 2.22-7.89 1.44-1.79-.78 2.22-3.11 4-6.23Z"/><path fill="url(#l)" stroke="#f2c78b" stroke-width=".91" d="m146.18 186.26-3.1-2.54c-.38.85-1.27 3.05-1.83 5.07-.71 2.54-2.36 6.82.99 12.25 3.37 5.49 12.67 3.95 13.65 6.76.79 2.25-.33 6.85-.98 8.87.65.24 2.9.06 6.61-2.53 3.72-2.59 5.02-7.75 5.21-10 1.97-1.17 6.56-4.56 9.15-8.73 3.24-5.21 2.26-12.25.99-16.75-1.01-3.61-4.36-4.98-5.91-5.21.98 2.06 2.98 7.8 3.09 14.22.14 8.02-9.15 16.89-22.8 14.08-10.93-2.26-7.51-11.41-5.07-15.49Z"/><defs><linearGradient id="a" x1="204.8" x2="204.71" y1="298.31" y2="546.73" gradientUnits="userSpaceOnUse"><stop stop-color="#433323"/><stop offset="1" stop-color="#bd7b49"/></linearGradient><linearGradient id="b" x1=".46" x2="323.97" y1="326.81" y2="326.81" gradientUnits="userSpaceOnUse"><stop stop-color="#fcf0d6"/><stop offset="1" stop-color="#ffc446"/></linearGradient><linearGradient id="c" x1="95.86" x2="312.81" y1="386.53" y2="386.53" gradientUnits="userSpaceOnUse"><stop stop-color="#3c3024"/><stop offset="1" stop-color="#bd7b49"/></linearGradient><linearGradient id="d" x1="192.57" x2="192.45" y1="74.13" y2="299.51" gradientUnits="userSpaceOnUse"><stop stop-color="#433323"/><stop offset="1" stop-color="#bd7b49"/></linearGradient><linearGradient id="e" x1="17.05" x2="232.52" y1="71.3" y2="71.3" gradientUnits="userSpaceOnUse"><stop stop-color="#3c3024"/><stop offset="1" stop-color="#bd7b49"/></linearGradient><linearGradient id="f" x1="76.98" x2="97.53" y1="254.48" y2="254.48" gradientUnits="userSpaceOnUse"><stop stop-color="#fcf0d6"/><stop offset="1" stop-color="#ffc446"/></linearGradient><linearGradient id="g" x1="53.48" x2="102.28" y1="257.59" y2="257.59" gradientUnits="userSpaceOnUse"><stop stop-color="#3c3024"/><stop offset="1" stop-color="#bd7b49"/></linearGradient><linearGradient id="h" x1="53.48" x2="102.28" y1="257.59" y2="257.59" gradientUnits="userSpaceOnUse"><stop stop-color="#3c3024"/><stop offset="1" stop-color="#bd7b49"/></linearGradient><linearGradient id="i" x1="20.65" x2="95.15" y1="401.51" y2="401.51" gradientUnits="userSpaceOnUse"><stop stop-color="#fcf0d6"/><stop offset="1" stop-color="#ffc446"/></linearGradient><linearGradient id="j" x1="68.3" x2="102.9" y1="431.63" y2="431.63" gradientUnits="userSpaceOnUse"><stop stop-color="#3c3024"/><stop offset="1" stop-color="#bd7b49"/></linearGradient><linearGradient id="k" x1="100.44" x2="134.72" y1="515.59" y2="515.59" gradientUnits="userSpaceOnUse"><stop stop-color="#3c3024"/><stop offset="1" stop-color="#bd7b49"/></linearGradient><linearGradient id="l" x1="140.21" x2="178.07" y1="195.1" y2="195.1" gradientUnits="userSpaceOnUse"><stop stop-color="#3c3024"/><stop offset="1" stop-color="#bd7b49"/></linearGradient></defs></svg>