<svg xmlns="http://www.w3.org/2000/svg" width="211" height="528" fill="none" xmlns:v="https://vecta.io/nano"><style><![CDATA[.B{fill-rule:evenodd}.C{stroke:#f2c78b}.D{stroke-width:.912}]]></style><path d="M153.52 281.547c-1.298 1.15-3.849 4.183-3.671 7.12.204 3.367-.06 3.179-1.82 1.923l-.517-.365-.402-.283-.001-.001c-2.072-1.461-3.962-2.794-4.38-.495-.356 1.958.222 2.967.556 3.226-.742.075-2.759.668-4.895 2.448-2.67 2.225-2.67 4.116-2.559 5.674.039.541-3.037 14.074-7.23 32.529-7.881 34.68-11.923 87.853-14.464 103.755-3.115 19.491-5.229 35.156-9.346 45.057-1.446-1.186-4.917-3.404-7.231-2.781-1.644.443-1.886 1.532-2.136 2.655-.19.854-.385 1.727-1.201 2.351-.696.533-1.453.718-2.131.885-1.164.285-2.096.514-2.096 2.342 0 2.892-1.335 5.117-2.559 5.228s-4.005 2.337-2.003 4.673c.674.786 1.033 4.103 1.5 8.426.923 8.527 2.269 20.966 7.289 25.617 7.566 7.009 28.036 8.789 31.484 2.225 2.127-4.047 3.153-9.702 4.254-15.765.685-3.769 1.397-7.696 2.421-11.491 1.395-5.172 2.546-7.885 3.455-10.027.832-1.958 1.46-3.438 1.885-5.883.712-4.094-2.67-9.366-5.34-8.455.5-4.265-1.073-17.996 1.366-33.375.434 1.075 8.625 5.896 12.986 5.451 5.451-.556 10.235-4.228 11.014-6.119a10.02 10.02 0 0 0 .667-3.894c1.224.482 3.961.734 5.118-2.114s.482-6.452 0-7.899c.927-.556 2.981-1.869 3.782-2.67 1.002-1.001 11.571 1.669 12.349 8.344.358 3.064-.035 5.214-.371 7.053-.395 2.166-.712 3.899.371 6.186.937 1.977 1.751 2.713 2.376 3.278.712.643 1.177 1.064 1.296 2.841.078 1.172-.338 2.138-.756 3.11-.773 1.797-1.555 3.615.756 6.792 3.56 4.895 3.893 6.23 4.005 9.345.044 1.233-.278 2.013-.587 2.76-.471 1.141-.911 2.207.03 4.694.871 2.3 2.088 4.044 3.013 5.368.73 1.046 1.277 1.83 1.326 2.42.032.384-.13.852-.326 1.419-.484 1.4-1.178 3.406.326 6.257.916 1.734 2.039 2.926 2.992 3.937 1.249 1.323 2.204 2.337 2.015 3.851-.334 2.67.222 6.675 2.781 8.455l1.012.798c3.779 2.994 9.949 7.883 10.558 4.431.252-1.429.933-2.35 1.592-3.242 1.087-1.471 2.117-2.864 1.078-6.326-1.668-5.563-2.67-8.233-5.674-9.123-1.882-.557-1.492-2.382-1.049-4.461.264-1.238.548-2.567.382-3.771-.258-1.869-1.56-3.103-2.741-4.221-.857-.813-1.651-1.565-1.932-2.455-.306-.97.091-1.941.546-3.052.535-1.308 1.15-2.81.789-4.735-.404-2.154-1.54-3.086-2.449-3.832-.594-.486-1.09-.893-1.222-1.508-.159-.745.037-2.48.237-4.247.218-1.93.44-3.898.208-4.654-.222-.723-.834-1.335-1.446-1.946s-1.224-1.224-1.447-1.947c-.198-.647.358-1.471 1.034-2.472.838-1.24 1.859-2.753 1.859-4.537 0-2.581.742-6.193 1.113-7.677 1.594 3.19 5.651 10.08 9.122 12.127 3.05 1.799 4.066 4.092 4.942 6.069.37.835.715 1.614 1.177 2.275.502.716 1.292 1.19 2.155 1.709 1.816 1.09 3.956 2.375 4.409 6.523.668 6.119 3.56 7.232 7.565 8.567 2.293.764 2.252 3.497 2.216 5.945-.027 1.828-.052 3.497.899 4.068.359.215.805.503 1.319.834l.001.001c2.667 1.722 7.151 4.616 10.696 4.616 4.227 0 8.232-.111 10.123-1.224 1.514-.89 2.04-.371 2.114 0-.445 3.671.312 12.794 6.898 19.914s16.91 8.159 21.249 7.788c.927-2.596 4.784-7.788 12.794-7.788 10.013 0 18.913-2.447 16.577-7.899-1.014-2.364-1.274-4.185-1.506-5.815-.304-2.128-.561-3.932-2.388-6.2-3.226-4.005-3.783-5.785-2.67-6.675.354-.283 1.169-.352 2.205-.44h.001c2.223-.189 5.465-.465 7.362-3.12 2.781-3.894 12.126-10.235 10.124-5.118s-1.224 10.124 2.892 12.349c1.13.611 2.351 1.623 3.642 2.693 3.413 2.83 7.31 6.06 11.266 3.315 5.451-3.783 5.563-4.673 2.781-8.455s-4.561-5.897-7.454-7.12c-1.366-.578-1.243-2.099-1.096-3.918.164-2.033.358-4.439-1.462-6.318-2.103-2.17-2.262-3.761-2.444-5.581-.117-1.165-.243-2.423-.894-3.986-1.053-2.527-2.947-3.637-4.426-4.503-.864-.507-1.587-.93-1.915-1.505-.413-.721.154-2.111.803-3.705.753-1.847 1.617-3.968 1.199-5.64-.441-1.763-2.199-2.991-3.684-4.028-1.138-.795-2.116-1.478-2.212-2.202-.085-.636.364-1.547.902-2.64.874-1.775 1.985-4.031 1.434-6.372-.454-1.93-1.604-3.02-2.71-4.069-1.06-1.006-2.081-1.973-2.408-3.607-.275-1.376 1.038-2.317 2.724-3.525 2.403-1.722 5.562-3.986 5.954-8.824.668-8.233-6.119-18.579-12.905-21.806-2.159-1.026-4.691-1.309-7.464-1.62-5.944-.665-13.002-1.454-19.904-9.95-8.099-9.968-37.566-43.908-51.288-59.631 7.491-5.934 21.316-20.738 16.688-32.486s-8.381-15.204-9.679-15.464c.112-4.45-2.002-13.862-11.347-15.909-11.682-2.559-20.36-.111-24.253 9.79-2.68 6.815.173 11.627 2.14 14.944.891 1.503 1.6 2.699 1.531 3.635-.178 2.403-6.082 4.636-9.012 5.452-1.78-3.375-5.963-10.903-8.455-14.018s-13.572-4.224-22.473-3.894c-8.719.323-20.396 4.191-21.694 5.34zm84.552 144.74c3.382 5.073 11.57 7.973 13.35 9.456 2.781 7.38 9.39 23.741 13.573 30.149 5.015 7.682-2.553 14.346-4.736 17.419l-.001.002-.269.38c-1.632 2.318-1.408 5.232-1.221 7.669.056.721.108 1.4.108 2.01 0 1.792-1.304.977-2.632.147-.65-.406-1.306-.816-1.818-.926-.389-.083-.8-.16-1.21-.236-1.231-.23-2.461-.459-3.129-.877-.447-.279-1.231-1.401-2.141-2.702h0c-.901-1.289-1.924-2.754-2.865-3.75-.858-.908-2.172-1.221-3.384-1.51-1.462-.349-2.775-.662-2.958-1.939-.066-.463-.119-.983-.176-1.543-.232-2.27-.532-5.215-2.049-7.802-1.395-2.381-3.942-3.611-5.494-4.36-.551-.266-.977-.472-1.181-.647-.42-.36-.452-1.467-.496-3.057-.039-1.354-.087-3.059-.394-4.953-.351-2.167-2.492-2.854-4.472-3.49-1.781-.571-3.433-1.101-3.538-2.629-.092-1.329.421-2.111.994-2.983.817-1.245 1.754-2.673 1.231-6.139-.185-1.223-.383-2.34-.564-3.354-.69-3.877-1.112-6.245.564-7.215 1.691-.979 6.786-9.012 9.123-12.906.519-.185 2.403.712 5.785 5.786zm-78.656-11.348c2.403-2.492-5.228-14.129-7.231-19.136-3.822 8.644-12.006 29.784-15.228 47.394 1.738-.445 9.51-.69 9.777-2.114.333-1.78 2.225-2.892 4.005-3.894s2.113-1.224 1.446-4.227l-.154-.678c-.532-2.309-.535-2.323 1.712-4.774 2.447-2.67 2.67-3.894 2.67-6.341s0-3.115 3.003-6.23zm142.236 30.144c.884-.492 2.205-1.227 3.394-3.11 2.225.223 6.408.912 5.34 1.891-1.335 1.224-1.335 8.567-1.335 10.236 0 1.335 3.782.556 5.674 0 .445 1.112 1.068 3.716 0 5.229-1.335 1.891 0 8.455 2.114 11.125 1.691 2.136 3.745.89 4.561 0 .297.593.712 2.114 0 3.449-.405.759-.119 2.185.166 3.61.342 1.706.683 3.409-.166 3.955-1.246.801-6.008.334-8.233 0-1.372.519-4.65 1.046-6.786-1.001-2.264-2.17-1.649-2.9-.188-4.632.262-.31.551-.653.855-1.042 2.003-2.559-2.002-7.566-3.448-8.901-1.136-1.048-.282-3.468.675-6.184l.771-2.271c1.112-3.56-1.113-7.009-3.56-9.901-1.358-1.605-.936-1.84.166-2.453z" fill="url(#A)" class="B"/><g class="C D"><path d="M235.164 496.766c2.667 1.722 7.151 4.616 10.696 4.616 4.227 0 8.232-.111 10.123-1.224 1.514-.89 2.04-.371 2.114 0-.445 3.671.312 12.794 6.898 19.914s16.91 8.159 21.249 7.788c.927-2.596 4.784-7.788 12.794-7.788 10.013 0 18.913-2.447 16.577-7.899-1.014-2.364-1.274-4.185-1.506-5.815-.304-2.128-.561-3.932-2.388-6.2-3.226-4.005-3.783-5.785-2.67-6.675.354-.283 1.169-.352 2.205-.44h.001c2.223-.189 5.465-.465 7.362-3.12 2.781-3.894 12.126-10.235 10.124-5.118s-1.224 10.124 2.892 12.349c1.13.611 2.351 1.623 3.642 2.693 3.413 2.83 7.31 6.06 11.266 3.315 5.451-3.783 5.563-4.673 2.781-8.455s-4.561-5.897-7.454-7.12c-1.366-.578-1.243-2.099-1.096-3.918.164-2.033.358-4.439-1.462-6.318-2.103-2.17-2.262-3.761-2.444-5.581-.117-1.165-.243-2.423-.894-3.986-1.053-2.527-2.947-3.637-4.426-4.503-.864-.507-1.587-.93-1.915-1.505-.413-.721.154-2.111.803-3.705.753-1.847 1.617-3.968 1.199-5.64-.441-1.763-2.199-2.991-3.684-4.028-1.138-.795-2.116-1.478-2.212-2.202-.085-.636.364-1.547.902-2.64.874-1.775 1.985-4.031 1.434-6.372-.454-1.93-1.604-3.02-2.71-4.069-1.06-1.006-2.081-1.973-2.408-3.607-.275-1.376 1.038-2.317 2.724-3.525 2.403-1.722 5.562-3.986 5.954-8.824.668-8.233-6.119-18.579-12.905-21.806-2.159-1.026-4.691-1.309-7.464-1.62-5.944-.665-13.002-1.454-19.904-9.95-8.099-9.968-37.566-43.908-51.288-59.631 7.491-5.934 21.316-20.738 16.688-32.486s-8.381-15.204-9.679-15.464c.112-4.45-2.002-13.862-11.347-15.909-11.682-2.559-20.36-.111-24.253 9.79-2.68 6.815.173 11.627 2.14 14.944.891 1.503 1.6 2.699 1.531 3.635-.178 2.403-6.082 4.636-9.012 5.452-1.78-3.375-5.963-10.903-8.455-14.018s-13.572-4.224-22.473-3.894c-8.719.323-20.396 4.191-21.694 5.34s-3.849 4.183-3.671 7.12c.204 3.367-.06 3.179-1.82 1.923l-.517-.365-.402-.283-.001-.001c-2.072-1.461-3.962-2.794-4.38-.495-.356 1.958.222 2.967.556 3.226-.742.075-2.759.668-4.895 2.448-2.67 2.225-2.67 4.116-2.559 5.674.039.541-3.037 14.074-7.23 32.529-7.881 34.68-11.923 87.853-14.464 103.755-3.115 19.491-5.229 35.156-9.346 45.057-1.446-1.186-4.917-3.404-7.231-2.781-1.644.443-1.886 1.532-2.136 2.655-.19.854-.385 1.727-1.201 2.351-.696.533-1.453.718-2.131.885-1.164.285-2.096.514-2.096 2.342 0 2.892-1.335 5.117-2.559 5.228s-4.005 2.337-2.003 4.673c.674.786 1.033 4.103 1.5 8.426.923 8.527 2.269 20.966 7.289 25.617 7.566 7.009 28.036 8.789 31.484 2.225 2.127-4.047 3.153-9.702 4.254-15.765.685-3.769 1.397-7.696 2.421-11.491 1.395-5.172 2.546-7.885 3.455-10.027.832-1.958 1.46-3.438 1.885-5.883.712-4.094-2.67-9.366-5.34-8.455.5-4.265-1.073-17.996 1.366-33.375.275-1.736 1.304-1.78 1.972-3.449.249-.623 1.114-1.441 1.237-2.114m0 0c3.222-17.61 11.406-38.75 15.228-47.394 2.003 5.007 9.634 16.644 7.231 19.136-3.003 3.115-3.003 3.782-3.003 6.23s-.223 3.671-2.67 6.341c-2.247 2.451-2.244 2.465-1.712 4.774l.154.678c.667 3.003.334 3.226-1.446 4.227s-3.672 2.114-4.005 3.894c-.267 1.424-8.039 1.669-9.777 2.114zm98.207 53.569l-1.32-.835c-.951-.571-.926-2.24-.899-4.068.036-2.448.077-5.181-2.216-5.945-4.005-1.335-6.897-2.448-7.565-8.567-.453-4.148-2.593-5.433-4.409-6.523-.863-.519-1.653-.993-2.155-1.709-.462-.661-.807-1.44-1.177-2.275-.876-1.977-1.891-4.27-4.942-6.069-3.471-2.047-7.528-8.937-9.122-12.127-.371 1.484-1.113 5.096-1.113 7.677 0 1.784-1.021 3.297-1.859 4.537-.676 1.001-1.232 1.825-1.034 2.472.223.723.835 1.335 1.447 1.947s1.224 1.223 1.446 1.946c.232.756.01 2.724-.208 4.654-.2 1.767-.396 3.502-.237 4.247.132.615.628 1.022 1.222 1.508.909.746 2.045 1.678 2.449 3.832.361 1.925-.254 3.427-.789 4.735-.455 1.111-.852 2.082-.546 3.052.281.89 1.075 1.642 1.932 2.455 1.181 1.118 2.483 2.352 2.741 4.221.166 1.204-.118 2.533-.382 3.771-.443 2.079-.833 3.904 1.049 4.461 3.004.89 4.006 3.56 5.674 9.123 1.039 3.462.009 4.855-1.078 6.326-.659.892-1.34 1.813-1.592 3.242-.609 3.452-6.779-1.437-10.558-4.431l-1.012-.798c-2.559-1.78-3.115-5.785-2.781-8.455.189-1.514-.766-2.528-2.015-3.851-.953-1.011-2.076-2.203-2.992-3.937-1.504-2.851-.81-4.857-.326-6.257.196-.567.358-1.035.326-1.419-.049-.59-.596-1.374-1.326-2.42-.925-1.324-2.142-3.068-3.013-5.368-.941-2.487-.501-3.553-.03-4.694.309-.747.631-1.527.587-2.76-.112-3.115-.445-4.45-4.005-9.345-2.311-3.177-1.529-4.995-.756-6.792.418-.972.834-1.938.756-3.11-.119-1.777-.584-2.198-1.296-2.841-.625-.565-1.439-1.301-2.376-3.278-1.083-2.287-.766-4.02-.371-6.186.336-1.839.729-3.989.371-7.053-.778-6.675-11.347-9.345-12.349-8.344-.801.801-2.855 2.114-3.782 2.67.482 1.447 1.157 5.051 0 7.899s-3.894 2.596-5.118 2.114a10.02 10.02 0 0 1-.667 3.894c-.779 1.891-5.563 5.563-11.014 6.119-4.361.445-12.552-4.376-12.986-5.451m101.416 48.006l-.001-.001m25.095-13.452c2.184-3.075 9.752-9.739 4.737-17.421-4.183-6.408-10.792-22.769-13.573-30.149-1.78-1.483-9.968-4.383-13.35-9.456s-5.266-5.971-5.785-5.786c-2.337 3.894-7.432 11.927-9.123 12.906-1.676.97-1.254 3.338-.564 7.215l.564 3.354c.523 3.466-.414 4.894-1.231 6.139-.573.872-1.086 1.654-.994 2.983.105 1.528 1.757 2.058 3.538 2.629 1.98.636 4.121 1.323 4.472 3.49.307 1.894.355 3.599.394 4.953.044 1.59.076 2.697.496 3.057.204.175.63.381 1.181.647 1.552.749 4.099 1.979 5.494 4.36 1.517 2.587 1.817 5.532 2.049 7.802l.176 1.543c.183 1.277 1.496 1.59 2.958 1.939 1.212.289 2.526.602 3.384 1.51.941.996 1.964 2.461 2.865 3.75h0c.91 1.301 1.694 2.423 2.141 2.702.668.418 1.898.647 3.129.877l1.21.236c.512.11 1.168.52 1.818.926 1.328.83 2.632 1.645 2.632-.147 0-.61-.052-1.289-.108-2.01-.187-2.437-.411-5.351 1.221-7.669l.269-.38zm.001-.002l-.001.002m44.788-41.34c2.225.223 6.408.912 5.34 1.891-1.335 1.224-1.335 8.567-1.335 10.236 0 1.335 3.782.556 5.674 0 .445 1.112 1.068 3.716 0 5.229-1.335 1.891 0 8.455 2.114 11.125 1.691 2.136 3.745.89 4.561 0 .297.593.712 2.114 0 3.449-.405.759-.119 2.185.166 3.61.342 1.706.683 3.409-.166 3.955-1.246.801-6.008.334-8.233 0-1.372.519-4.65 1.046-6.786-1.001-2.264-2.17-1.649-2.9-.188-4.632.262-.31.551-.653.855-1.042 2.003-2.559-2.002-7.566-3.448-8.901-1.136-1.048-.282-3.468.675-6.184l.771-2.271c1.112-3.56-1.113-7.009-3.56-9.901-1.358-1.605-.936-1.84.166-2.453.884-.492 2.205-1.227 3.394-3.11z"/><path d="M5.998 169.85c-10.235-2.226-6.453-6.564 12.683-20.026-1.669-1.483-5.229-1.891-5.229-8.232 0-3.073 2.448-5.86 3.783-6.898-.445-.186-1.446-1.291-1.891-4.228s1.595-5.08 2.67-5.785c.556-.408 2.403-2.203 5.34-6.119s9.456-17.652 11.125-22.361c1.632.705 5.451 3.605 18.357 4.672s23.14 1.335 26.812.89c.556 1.521 2.514 3.716 3.671 5.229s3.004 1.446 3.783 1.224c-.556-3.189-3.249-11.726 1.112-16.799 5.451-6.341 20.693-1.558 16.132 13.016-1.664 5.316-1.743 11.756-1.224 14.352l67.975 54.402 116.926-6.786c20.248 0 16.8 8.9 12.35 13.239s-20.248 5.229-43.278 8.677-40.496 7.232-54.847 25.144c-11.481 14.329-6.638 66.195-2.781 90.337 10.309 7.824 34.666 28.792 49.618 50.063 18.691 26.589 51.065 157.422 53.513 162.206s15.352 11.014 19.246 15.019 2.559 11.793-4.895 12.46-17.467-2.892-26.7 2.114c-7.388 4.005-12.053 4.117-13.462 3.672-1.038.741-4.116 2.981-8.121 6.007-5.007 3.783-9.568 2.559-14.018-3.782s-3.115-17.801 0-21.138c2.492-2.67 16.243-1.113 22.807 0 2.632-.927 7.832-4.673 7.565-12.238-.334-9.457-32.375-77.432-40.162-89.892-6.231-9.968-38.939-50.36-54.514-69.31-15.575 18.245-47.238 56.405-49.285 63.08-2.559 8.344-9.011 51.955-12.126 76.43s-4.117 29.037 0 34.488 14.351 16.8 11.014 22.14-9.791 2.892-17.133.779c-5.875-1.691-20.619-.705-27.257 0-4.932 3.485-15.598 10.146-18.802 8.9-4.005-1.558-6.675-6.008-8.01-13.684s-2.336-11.237 3.338-15.353c4.539-3.293 18.431-1.372 24.809 0 2.151-.445 6.92-2.181 8.789-5.563 2.336-4.227 5.785-94.898 7.787-112.699s42.165-103.687 43.166-110.696 0-18.134-4.227-35.378-13.684-19.58-17.578-28.592c-3.115-7.209-9.234-31.929-11.904-43.388a537.49 537.49 0 0 0-21.694-.89c-11.459-.223-21.472-1.113-22.14-8.456s6.564-10.123 12.349-10.457l43.389-2.559-13.684-12.127c-2.151 1.298-9.145 4.006-19.914 4.451s-17.467-2.782-19.47-4.451c-1.001.705-3.56 2.381-5.785 3.449a31.01 31.01 0 0 1-5.674 2.003c.89.556 1.626 1.335.89 3.226-1.558 4.005-6.119 2.893-9.011 2.893s-5.896 1.859-7.788-.111c-1.495-1.558-1.224-3.19-.111-4.673-.816-.334-2.982-1.335-3.782-3.115s-.334-2.93.334-3.672c-.667 0-1.224 0-3.338.668-5.966 1.884-4.45-2.781-4.45-2.781s-1.113-.557-3.671.334c-3.679 1.279-3.226 2.892-8.344 2.892-5.525 0-5.266-5.303-4.45-7.788-3.449 4.599-12.393 13.351-20.582 11.571z" fill="url(#B)"/><path d="M170.648 290c-.816-1.521-1.291-5.718 3.337-10.347 1.669-.815 6.052-1.958 10.235 0s4.562 6.231 4.228 8.122a40.13 40.13 0 0 1 2.67 2.225c1.335 1.224 5.451 9.568 11.682 15.798s7.009 1.112 14.351 1.112c5.874 0 15.427 8.307 19.469 12.461.816-1.002 3.56-3.36 8.011-4.784 5.562-1.78 9.233-1.002 10.902 4.784s4.784 4.45 7.788 9.233 5.451 13.24 6.564 13.796 9.011 5.34 10.346 8.121 3.227 9.123 4.562 10.68 5.34 3.894 9.679 7.121c1.78 2.113.556 6.23 6.897 9.567 5.073 2.67 6.193 5.118 6.119 6.008.779.222 2.804 1.535 4.673 5.006 2.313 4.296-2.244 6.192-3.63 6.77l-.042.017c-1.335.556-4.672 1.223-7.12 2.336s-5.34-1.113-8.677 0c-2.67.89-7.269-.371-9.234-1.113 4.005 1.595 13.194 5.452 17.911 8.122s7.603 3.189 8.455 3.115c-.704.408-3.382 1.157-8.455.89s-14.055-2.781-17.911-4.005c-.853.222-2.693 1.958-3.227 7.12-.457 4.418-1.957 4.246-3.286 3.77-.203.301-.296 2.104.95 6.91 1.558 6.008 9.568 30.372 13.128 34.266s7.009 5.785 10.346 9.457-2.67 9.456-5.451 10.902-7.12 1.335-10.458 4.228c-2.336 1.78-7.676 1.669-10.235 3.337s-10.124-2.002-11.459-5.785-.556-7.342-5.006-16.354c-3.56-7.209-9.197-20.324-11.571-25.98-1.133.23-2.417.129-3.671-.498-1.958-.979-6.304-8.121-8.233-11.57.557 3.115 2.782 10.969 7.232 17.466s10.828 13.907 13.461 16.8c-1.743-.742-7.142-3.494-14.796-8.567s-13.944-15.316-16.132-19.803c-1.483 1.595-5.251 4.784-8.455 4.784h-12.794c.334 6.712 1.847 21.739 5.229 28.147s12.905 9.123 17.244 9.679c-2.67.816-9.857 1.491-17.244-2.336s-14.723-25.255-17.467-35.49c-4.265 1.817-14.307 4.361-20.359 0s-4.005-11.162-2.225-14.018c-.853-.704-3.449-2.603-7.009-4.561s-5.266-6.008-5.674-7.788c-1.261 0-3.983 1.558-4.784 7.788s-5.674 9.419-8.01 10.235c0 1.78-.378 7.187-1.891 14.574l-5.229 24.476c-1.335 7.031-.408 18.579.222 23.474-.667.297-2.937 1.024-6.675 1.558-4.672.667-7.342 3.226-12.571 3.226-4.183 0-10.569-3.189-13.239-4.784-.816-4.339-1.958-16.621 0-31.039s2.818-30.78 3.004-37.159c-1.261-2.076-4.139-8.989-5.563-20.025-1.066-8.258-.869-11.342-.454-12.169-.733.123-2.105-.222-3.996-2.183-3.004-3.115.222-6.675 1.112-7.787s-.89-1.669 0-4.117 3.004-2.892 2.337-6.564-.334-6.786 2.781-9.345-.111-3.337 0-5.785 5.118-5.229 6.119-7.343-2.225-4.45-1.001-7.565c.979-2.492 5.896-5.785 8.232-7.12-.111-1.669.267-6.163 2.67-10.791 3.004-5.786 5.118-8.901 6.23-13.796.688-3.026 2.099-3.969 4.784-4.248 3.004-.647 5.674-5.876 8.678-8.101 2.403-1.78 3.82-1.928 4.228-1.78-1.595.371-4.606 1.914-3.894 5.118s1.809 6.726 7.454 8.01c1.746.397 7.575.108 8.789 0 4.005-.356 11.829-10.421 15.019-15.909z" fill="url(#C)"/><path d="M195.79 133.582c.964-10.865 6.766-39.475 21.249-59.409 5.245-7.219 8.463-11.219 15.242-17.021 11.575-9.907 27.276-16.884 34.6-18.023 8.01-1.246 19.802 1.002 17.466 5.563-1.821 3.555-2.826 3.76-5.674 3.226-3.56-.668-18.69 5.006-21.138 31.262-1.958 21.004-.222 38.864.89 45.168 1.076-.778 4.228-2.536 8.233-3.337s6.341 1.891 7.009 3.337c-3.857-.296-11.704 4.984-12.238 28.481-.103 4.517.069 9.432.343 14.574-16.697 1.891-47.069 3.115-50.963 3.115-3.364 0-2.892 7.602-2.67 10.124 1.743-2.077 5.63-6.052 7.232-5.34s.964 3.115.445 4.228c.333.185 1.09 1.09 1.446 3.226s.148 3.412 0 3.783c.408.185 1.491.445 2.559 0s2.299-1.002 2.781-1.224c-.185 1.52-1.001 5.006-2.781 6.786s-3.709 1.632-4.45 1.335c-.297.408-.846 1.713-.668 3.671s.556 3.153 1.113 3.894c3.152-2.373 12.171-6.964 19.914-9.456s21.36-4.079 27.2-4.561c1.164 23.292.403 46.94-15.63 57.628-19.491 12.994-46.652 12.684-51.51 11.237v-5.562c-.704 1.631-2.87 5.028-5.896 5.562s-6.972 1.113-8.567 1.335c-.445 3.931-1.201 13.172-.667 18.69s.667 12.683.667 15.576c-3.003-6.564-9.367-20.804-10.791-25.254s-2.151-7.046-2.336-7.788c-1.966-.111-6.609-.645-9.457-1.891s-9.197-1.854-12.015-2.003l2.892 7.009c1.247 2.937 2.3 6.119 2.671 7.343-2.559-1.669-8.812-6.208-13.351-11.014s-5.674-8.53-5.674-9.79c-5.562-3.56-15.063-15.598-16.131-30.818-1.765-25.143 15.353-42.276 15.353-42.276l8.01 6.898c-2.003 1.743-6.631 6.341-9.123 10.791-3.115 5.563-5.451 13.351-3.671 23.252s4.895 17.578 15.241 23.697c8.278 4.895 18.505 3.3 22.585 1.891-.26-2.225.378-9.145 5.006-19.024 5.785-12.349 8.9-37.047 5.674-42.61-2.581-4.45-12.295-12.237-16.829-15.575.202-4.995.209-11.417-1.305-14.24-2.448-4.561-6.927-2.922-7.454-.89-.584 2.251-.334 4.315-.141 5.911.064.533.122 1.014.141 1.432l-4.784-4.339c-.519-2.781.178-7.521 4.005-12.238 4.784-5.896 16.749-9.123 22.362-9.123 5.006 0 19.803 1.965 23.585 2.781zm.779 38.271l-14.129.89c1.261.594 3.427 2.804 4.228 10.458.856 8.188-4.316 22.323-7.429 30.832l-1.36 3.767c-2.559 7.343-1.892 11.459-.557 14.018l1.021 2c1.43 2.825 3.436 6.788 5.098 9.237 1.691 2.492 8.493 1.17 11.904.131 0-3.3.334-11.637 1.669-18.579s5.637-12.888 7.565-14.483c-1.446-4.153-4.361-13.706-5.785-22.25s-2.077-14.241-2.225-16.021z" fill="url(#D)" class="B"/></g><path d="M19.789 102.654c-2.893 15.464-3.226 20.915-2.225 22.806 1.706-1.26 5.807-4.65 8.566-8.121s8.937-12.942 11.681-17.244c1.261.334 4.673 1.068 8.233 1.335 2.553.191 6.461.969 10.569 1.786l9.012 1.663c5.251.801 11.83-1.15 14.463-2.225.705 2.373 2.737 7.12 5.229 7.12s3.708-.89 4.005-1.335c-1.187-.816-3.07-4.183-1.112-11.125 2.448-8.678 13.907-4.116 14.463-1.446s1.113 6.231-.556 8.456c-1.335 1.78-.556 10.012 0 13.906l29.704 23.919 4.339-3.671 12.015-1.669c2.333-.291 4.379-1.442 6.451-2.608 1.091-.614 2.189-1.232 3.34-1.731 1.871-.81 3.637-1.202 5.278-1.565 1.287-.285 2.497-.553 3.622-.993 2.559-1.002 7.899-4.895 8.677-6.231.469-.802 2.787-2.65 4.779-4.238 1.321-1.054 2.499-1.993 2.898-2.437.801-.89 5.525-7.639 7.788-10.902.927-.965 3.026-3.071 4.005-3.783.641-.467 1.008-1.637 1.404-2.901.359-1.147.742-2.371 1.377-3.218.406-.541.761-.908 1.073-1.231.715-.739 1.21-1.25 1.597-3.108.556-2.67 2.225-10.569 4.116-12.015 1.513-1.157 3.153-4.71 3.783-6.341 3.857.371 12.594.534 16.688-1.78 5.117-2.893 5.342-7.401 1.669-9.011-8.122-3.56-1.669 8.344-17.245-4.784 1.41-.185 7.432-1.113 9.123-.668 2.114.556 8.122 2.225 10.235 2.893 1.691.534 1.892 1.928 1.78 2.559.705-.334 2.07-1.758 1.892-4.784s-3.931-6.008-5.785-7.12c1.001-1.928 3.003-5.919 3.003-6.453s-2.299.222-3.448.667c.445-1.446 1.357-4.472 1.446-5.006s-2.856.816-4.339 1.557c-.111-.556-.334-2.848-.334-7.565 0-5.896-1.78-11.014-3.782-15.242-1.602-3.382-.668-6.156 0-7.12 1.261-.26 3.782-1.313 3.782-3.449 0-2.67-5.896-4.45-13.016-1.558-5.696 2.314-16.095 10.903-20.582 14.908-9.197-10.643-33.665-29.015-57.962-17.355s-25.106 31.633-22.473 40.162c-.26.667-1.781 2.136-5.786 2.67-1.927.257-4.711-.442-8.372-1.361-5.849-1.469-13.935-3.499-24.336-3.089-13.528.534-23.511 10.977-26.812 16.132-1.038-2.448-4.094-8.611-8.01-13.684-4.895-6.341-6.119-.668-4.116 3.115s.668 6.341-2.781 12.572c-2.759 4.984-.63 9.494.779 11.125-.593-.63-2.292-1.78-4.339-1.335s-2.559 1.075-2.559 1.335c1.224.927 3.738 3.315 4.005 5.451.138 1.106-.526 2.996-1.556 5.929-1.457 4.147-3.647 10.379-5.341 19.436zM128.038 55.26c1.075 1.038 3.048 5.162 2.336 13.35-.89 10.235.89 13.017 2.67 13.239l.057.007.037.005c2.21.28 18.707 2.37 25.717-8.801 5.696-9.078 7.491-17.726 7.676-20.915-.779.222-2.492.156-3.115-1.891s.185-3.449.667-3.894c-.519-.111-1.713-.868-2.336-3.004s.853-3.857 1.669-4.45c-2.299-3.449-9.056-10.547-17.689-11.348-10.792-1.001-21.138 5.34-23.029 10.792-1.813 5.224-1.071 5.749.365 6.762l.191.135c.458.327.983.491 1.519.658 1.287.401 2.636.821 3.265 3.57.712 3.115.296 5.155 0 5.785zm-24.031 0c1.78-1.157 4.969-5.155 5.897-7.009 1.186 2.114 4.005 6.475 7.12 7.454s5.933 1.112 7.231 1.001c.482.334 1.58 1.647 2.114 4.228s-1.854 5.822-3.115 7.12c-.223-.297-1.357-1.313-4.117-3.004-3.448-2.114-11.347-6.675-18.022-6.008-5.34.534-3.931-1.335-2.559-2.336 1.075 0 3.671-.289 5.451-1.446z" fill="url(#E)" class="B"/><g class="C D"><path d="M133.101 81.857l.037.005c2.21.28 18.707 2.37 25.717-8.801 5.696-9.078 7.491-17.726 7.676-20.915-.779.222-2.492.156-3.115-1.891s.185-3.449.667-3.894c-.519-.111-1.713-.868-2.336-3.004s.853-3.857 1.669-4.45c-2.299-3.449-9.056-10.547-17.689-11.348-10.792-1.001-21.138 5.34-23.029 10.792-1.813 5.224-1.071 5.749.365 6.762l.191.135c.458.327.983.491 1.519.658 1.287.401 2.636.821 3.265 3.57.712 3.115.296 5.155 0 5.785 1.075 1.038 3.048 5.162 2.336 13.35-.89 10.235.89 13.017 2.67 13.239l.057.007zm.037.005l-.037-.005M17.564 125.46c-1.001-1.891-.668-7.342 2.225-22.806 1.694-9.057 3.884-15.29 5.341-19.436 1.031-2.934 1.695-4.823 1.556-5.929-.267-2.136-2.781-4.524-4.005-5.451 0-.26.512-.89 2.559-1.335s3.746.705 4.339 1.335c-1.409-1.632-3.538-6.141-.779-11.125 3.449-6.23 4.784-8.789 2.781-12.571s-.779-9.456 4.116-3.115c3.916 5.073 6.972 11.236 8.01 13.684 3.3-5.155 13.284-15.598 26.812-16.132 10.401-.41 18.487 1.62 24.336 3.089 3.661.919 6.445 1.618 8.372 1.361 4.005-.534 5.526-2.003 5.786-2.67-2.633-8.529-1.825-28.503 22.473-40.162s48.765 6.712 57.962 17.355c4.487-4.005 14.886-12.594 20.582-14.908 7.12-2.893 13.016-1.113 13.016 1.558 0 2.136-2.521 3.189-3.782 3.449-.668.964-1.602 3.738 0 7.12 2.002 4.228 3.782 9.345 3.782 15.242 0 4.717.223 7.009.334 7.565 1.483-.742 4.428-2.092 4.339-1.557s-1.001 3.56-1.446 5.006c1.149-.445 3.448-1.201 3.448-.667s-2.002 4.524-3.003 6.453c1.854 1.112 5.607 4.094 5.785 7.12s-1.187 4.45-1.892 4.784c.112-.63-.089-2.025-1.78-2.559-2.113-.668-8.121-2.336-10.235-2.893-1.691-.445-7.713.482-9.123.668 15.576 13.128 9.123 1.224 17.245 4.784 3.673 1.61 3.448 6.119-1.669 9.011-4.094 2.314-12.831 2.151-16.688 1.78-.63 1.632-2.27 5.184-3.783 6.341-1.891 1.446-3.56 9.345-4.116 12.015-.387 1.858-.882 2.369-1.597 3.108-.312.323-.667.689-1.073 1.231-.635.847-1.018 2.071-1.377 3.218-.396 1.264-.763 2.434-1.404 2.901-.979.712-3.078 2.818-4.005 3.783l-7.788 10.902c-.399.444-1.577 1.383-2.898 2.437-1.992 1.588-4.31 3.436-4.779 4.238-.778 1.336-6.118 5.229-8.677 6.231-1.125.44-2.335.708-3.622.993-1.641.363-3.407.755-5.278 1.565-1.151.499-2.249 1.117-3.34 1.731-2.072 1.166-4.118 2.317-6.451 2.608l-12.015 1.669-4.339 3.671-29.704-23.919c-.556-3.894-1.335-12.126 0-13.906 1.669-2.225 1.112-5.786.556-8.456s-12.015-7.231-14.463 1.446c-1.958 6.942-.074 10.309 1.112 11.125-.297.445-1.513 1.335-4.005 1.335s-4.524-4.747-5.229-7.12c-2.633 1.075-9.212 3.026-14.463 2.225-2.798-.427-5.96-1.056-9.012-1.663-4.108-.817-8.016-1.595-10.569-1.786-3.56-.267-6.972-1.001-8.233-1.335-2.744 4.302-8.922 13.773-11.681 17.244s-6.861 6.861-8.566 8.121zm92.34-77.209c-.928 1.854-4.117 5.852-5.897 7.009s-4.376 1.446-5.451 1.446c-1.372 1.001-2.781 2.87 2.559 2.336 6.675-.667 14.574 3.894 18.022 6.008 2.76 1.691 3.894 2.707 4.117 3.004 1.261-1.298 3.649-4.539 3.115-7.12s-1.632-3.894-2.114-4.228c-1.298.111-4.116-.022-7.231-1.001s-5.934-5.34-7.12-7.454z"/><path d="M94.554 310.806c0 12.238 1.891 18.134-9.568 18.134-9.568 0-7.899-11.815-7.899-18.134l.779-115.035c-.445-14.352 7.454-16.688 12.127-15.464s8.9 4.895 7.12 19.469-2.559 86.107-2.559 111.03z" fill="url(#F)"/></g><use href="#L" fill="url(#G)"/><use href="#M" fill="url(#G)"/><g class="C D"><use href="#L"/><use href="#M"/><path d="M20.901 490.59c5.34 6.341 22.251-14.129 40.607-12.461.334 1.78 3.071 3.805 6.453 4.339 4.228.668 6.786-.779 14.352-6.675 6.052-4.717 6.156-8.047 5.451-9.123 2.781-4.116 2.425-11.525 2.781-22.473l4.561-122.155c-.556-15.019-16.02-12.015-17.578-5.34s-.334 44.835 2.67 92.673-3.338 48.618-6.786 51.065-17.912.223-27.924 5.007-27.126 22.127-24.587 25.143z" fill="url(#H)"/><path d="M79.983 448.759l.89-6.676c-2.002-3.115 1.402-4.516 6.119-3.893s7.231 4.227 3.56 5.117l-.111 5.785c1.965-.296 7.12-1.757 7.565-6.118s-1.15-5.971-2.003-6.231l6.898-8.344-15.909-14.24-18.69 14.797 7.454 7.231c-1.15.816-3.226 3.315-2.336 6.787s4.858 5.34 6.564 5.785zm6.453-16.466c-2.314 0-3.634.742-4.005 1.113l-4.895-5.007 9.456-6.23 8.233 6.787-3.449 4.784c-.816-.482-3.026-1.447-5.34-1.447z" fill="url(#I)" class="B"/><path d="M116.02 516.733c1.781-3.115 1.447-4.45 2.782-5.896l1.112-5.229c.557-2.114 5.674-5.451 9.234-4.339s5.674 3.449 5.563 7.899c-.089 3.56-3.152 6.453-4.673 7.454 1.335 1.632 2.003 5.896-.667 8.9-3.859 4.341-8.455 5.006-15.353 4.45-6.166-.497-11.681-1.78-13.35-7.676-1.384-4.888 3.931-6.119 6.675-6.119l-.111 2.559c-1.335.111-3.516 1.023-2.003 3.782 1.403 2.559 6.229 3.56 11.237 3.56 4.783 0 7.453-.778 9.567-3.115 1.691-1.869 1.447-3.486.334-4.005l.556-4.45c2.893-1.446 4.406-5.985 2.893-6.786-1.891-1.001-4.117.222-4.228 2.559s-3.115 7.231-5.674 11.236-6.119 2.225-7.899 1.446 2.225-3.115 4.005-6.23z" fill="url(#J)"/><path d="M146.177 186.26l-3.098-2.535c-.375.845-1.267 3.041-1.83 5.069-.704 2.534-2.358 6.816.986 12.249 3.379 5.491 12.671 3.942 13.657 6.758.788 2.253-.329 6.852-.986 8.87.657.235 2.901.056 6.618-2.534s5.021-7.744 5.209-9.997c1.971-1.173 6.561-4.561 9.152-8.729 3.238-5.209 2.252-12.249.985-16.754-1.014-3.605-4.364-4.975-5.913-5.21.985 2.065 2.985 7.8 3.097 14.221.141 8.025-9.151 16.895-22.808 14.079-10.926-2.253-7.509-11.404-5.069-15.487z" fill="url(#K)"/></g><defs><linearGradient id="A" x1="204.797" y1="298.306" x2="204.707" y2="546.728" href="#N"><stop stop-color="#433323"/><stop offset="1" stop-color="#bd7b49"/></linearGradient><linearGradient id="B" x1=".456" y1="326.812" x2="323.974" y2="326.812" href="#N"><stop stop-color="#fcf0d6"/><stop offset="1" stop-color="#ffc446"/></linearGradient><linearGradient id="C" x1="95.857" y1="386.527" x2="312.805" y2="386.527" href="#N"><stop stop-color="#3c3024"/><stop offset="1" stop-color="#bd7b49"/></linearGradient><linearGradient id="D" x1="192.567" y1="74.128" x2="192.449" y2="299.511" href="#N"><stop stop-color="#433323"/><stop offset="1" stop-color="#bd7b49"/></linearGradient><linearGradient id="E" x1="17.053" y1="71.302" x2="232.52" y2="71.302" href="#N"><stop stop-color="#3c3024"/><stop offset="1" stop-color="#bd7b49"/></linearGradient><linearGradient id="F" x1="76.976" y1="254.483" x2="97.529" y2="254.483" href="#N"><stop stop-color="#fcf0d6"/><stop offset="1" stop-color="#ffc446"/></linearGradient><linearGradient id="G" x1="53.48" y1="257.589" x2="102.285" y2="257.589" href="#N"><stop stop-color="#3c3024"/><stop offset="1" stop-color="#bd7b49"/></linearGradient><linearGradient id="H" x1="20.647" y1="401.513" x2="95.152" y2="401.513" href="#N"><stop stop-color="#fcf0d6"/><stop offset="1" stop-color="#ffc446"/></linearGradient><linearGradient id="I" x1="68.301" y1="431.626" x2="102.901" y2="431.626" href="#N"><stop stop-color="#3c3024"/><stop offset="1" stop-color="#bd7b49"/></linearGradient><linearGradient id="J" x1="100.442" y1="515.594" x2="134.715" y2="515.594" href="#N"><stop stop-color="#3c3024"/><stop offset="1" stop-color="#bd7b49"/></linearGradient><linearGradient id="K" x1="140.214" y1="195.097" x2="178.067" y2="195.097" href="#N"><stop stop-color="#3c3024"/><stop offset="1" stop-color="#bd7b49"/></linearGradient><path id="L" d="M94.884 260.077v10.124c1.891-.705 5.941-3.16 7.009-7.343 1.335-5.229-.668-11.793-7.009-10.569s-8.678 4.784-10.013 11.571-4.116 14.462-6.341 16.576-3.115 2.114-1.335 3.671 9.123 1.669 11.014-11.792c1.513-10.77 5.081-12.646 6.675-12.238z"/><path id="M" d="M70.853 280.436c.445-2.403.63-8.789.668-11.681 2.559 1.78 4.228 1.446 6.008-.223l.222-19.024c1.409.26 4.361.4 4.895-1.113.668-1.891-4.228-4.783-4.45-14.685s-3.783-7.787-5.785-7.12-1.558 2.67-1.558 3.894-5.118 1.335-5.896 3.226c-.623 1.513.63 3.301 1.335 4.005-.964.631-3.293 1.825-4.895 1.558s-1.113-2.559-.668-3.672c-3.152 2.856-8.922 12.705-6.786 29.26 2.67 20.693 15.13 24.698 19.914 24.364s2.002-5.118.556-4.561-4.116-1.224-3.56-4.228z"/><linearGradient id="N" gradientUnits="userSpaceOnUse"/></defs></svg>