<svg width="211" height="528" viewBox="0 0 211 528" fill="none" xmlns="http://www.w3.org/2000/svg">
<path fill-rule="evenodd" clip-rule="evenodd" d="M153.52 281.547C152.222 282.697 149.671 285.73 149.849 288.667C150.053 292.034 149.789 291.846 148.029 290.59C147.869 290.477 147.697 290.354 147.512 290.225C147.378 290.131 147.244 290.036 147.11 289.942L147.109 289.941C145.037 288.48 143.147 287.147 142.729 289.446C142.373 291.404 142.951 292.413 143.285 292.672C142.543 292.747 140.526 293.34 138.39 295.12C135.72 297.345 135.72 299.236 135.831 300.794C135.87 301.335 132.794 314.868 128.601 333.323C120.72 368.003 116.678 421.176 114.137 437.078C111.022 456.569 108.908 472.234 104.791 482.135C103.345 480.949 99.8741 478.731 97.56 479.354C95.9162 479.797 95.6737 480.886 95.4235 482.009C95.2334 482.863 95.039 483.736 94.2225 484.36C93.5261 484.893 92.7694 485.078 92.0912 485.245C90.9275 485.53 89.9949 485.759 89.9949 487.587C89.9949 490.479 88.6598 492.704 87.4361 492.815C86.2123 492.927 83.431 495.152 85.4335 497.488C86.1072 498.274 86.4662 501.591 86.9339 505.914C87.8565 514.441 89.2025 526.88 94.2225 531.531C101.788 538.54 122.258 540.32 125.707 533.756C127.834 529.709 128.86 524.054 129.961 517.991C130.646 514.222 131.358 510.295 132.382 506.5C133.777 501.328 134.928 498.615 135.837 496.473C136.669 494.515 137.297 493.035 137.722 490.59C138.434 486.496 135.052 481.224 132.382 482.135C132.882 477.87 131.309 464.139 133.748 448.76C134.182 449.835 142.373 454.656 146.734 454.211C152.185 453.655 156.969 449.983 157.748 448.092C158.371 446.579 158.452 444.866 158.415 444.198C159.639 444.68 162.376 444.932 163.533 442.084C164.69 439.236 164.015 435.632 163.533 434.185C164.46 433.629 166.514 432.316 167.315 431.515C168.317 430.514 178.886 433.184 179.664 439.859C180.022 442.923 179.629 445.073 179.293 446.912C178.898 449.078 178.581 450.811 179.664 453.098C180.601 455.075 181.415 455.811 182.04 456.376C182.752 457.019 183.217 457.44 183.336 459.217C183.414 460.389 182.998 461.355 182.58 462.327C181.807 464.124 181.025 465.942 183.336 469.119C186.896 474.014 187.229 475.349 187.341 478.464C187.385 479.697 187.063 480.477 186.754 481.224C186.283 482.365 185.843 483.431 186.784 485.918C187.655 488.218 188.872 489.962 189.797 491.286C190.527 492.332 191.074 493.116 191.123 493.706C191.155 494.09 190.993 494.558 190.797 495.125C190.313 496.525 189.619 498.531 191.123 501.382C192.039 503.116 193.162 504.308 194.115 505.319C195.364 506.642 196.319 507.656 196.13 509.17C195.796 511.84 196.352 515.845 198.911 517.625C199.222 517.868 199.561 518.137 199.923 518.423C203.702 521.417 209.872 526.306 210.481 522.854C210.733 521.425 211.414 520.504 212.073 519.612C213.16 518.141 214.19 516.748 213.151 513.286C211.483 507.723 210.481 505.053 207.477 504.163C205.595 503.606 205.985 501.781 206.428 499.702C206.692 498.464 206.976 497.135 206.81 495.931C206.552 494.062 205.25 492.828 204.069 491.71C203.212 490.897 202.418 490.145 202.137 489.255C201.831 488.285 202.228 487.314 202.683 486.203C203.218 484.895 203.833 483.393 203.472 481.468C203.068 479.314 201.932 478.382 201.023 477.636C200.429 477.15 199.933 476.743 199.801 476.128C199.642 475.383 199.838 473.648 200.038 471.881C200.256 469.951 200.478 467.983 200.246 467.227C200.024 466.504 199.412 465.892 198.8 465.281C198.188 464.669 197.576 464.057 197.353 463.334C197.155 462.687 197.711 461.863 198.387 460.862C199.225 459.622 200.246 458.109 200.246 456.325C200.246 453.744 200.988 450.132 201.359 448.648C202.953 451.838 207.01 458.728 210.481 460.775C213.531 462.574 214.547 464.867 215.423 466.844C215.793 467.679 216.138 468.458 216.6 469.119C217.102 469.835 217.892 470.309 218.755 470.828C220.571 471.918 222.711 473.203 223.164 477.351C223.832 483.47 226.724 484.583 230.729 485.918C233.022 486.682 232.981 489.415 232.945 491.863C232.918 493.691 232.893 495.36 233.844 495.931C234.203 496.146 234.649 496.434 235.163 496.765L235.164 496.766C237.831 498.488 242.315 501.382 245.86 501.382C250.087 501.382 254.092 501.271 255.983 500.158C257.497 499.268 258.023 499.787 258.097 500.158C257.652 503.829 258.409 512.952 264.995 520.072C271.581 527.193 281.905 528.231 286.244 527.86C287.171 525.264 291.028 520.072 299.038 520.072C309.051 520.072 317.951 517.625 315.615 512.173C314.601 509.809 314.341 507.988 314.109 506.358C313.805 504.23 313.548 502.426 311.721 500.158C308.495 496.153 307.938 494.373 309.051 493.483C309.405 493.2 310.22 493.131 311.256 493.043H311.257C313.48 492.854 316.722 492.578 318.619 489.923C321.4 486.029 330.745 479.688 328.743 484.805C326.74 489.923 327.519 494.929 331.635 497.154C332.765 497.765 333.986 498.777 335.277 499.847C338.69 502.677 342.587 505.907 346.543 503.162C351.994 499.379 352.106 498.489 349.324 494.707C346.543 490.924 344.763 488.81 341.87 487.587C340.504 487.009 340.627 485.488 340.774 483.669C340.938 481.636 341.132 479.23 339.312 477.351C337.209 475.181 337.05 473.59 336.868 471.77C336.751 470.605 336.625 469.347 335.974 467.784C334.921 465.257 333.027 464.147 331.548 463.281C330.684 462.774 329.961 462.351 329.633 461.776C329.22 461.055 329.787 459.665 330.436 458.071C331.189 456.224 332.053 454.103 331.635 452.431C331.194 450.668 329.436 449.44 327.951 448.403C326.813 447.608 325.835 446.925 325.739 446.201C325.654 445.565 326.103 444.654 326.641 443.561C327.515 441.786 328.626 439.53 328.075 437.189C327.621 435.259 326.471 434.169 325.365 433.12C324.305 432.114 323.284 431.147 322.957 429.513C322.682 428.137 323.995 427.196 325.681 425.988C328.084 424.266 331.243 422.002 331.635 417.164C332.303 408.931 325.516 398.585 318.73 395.358C316.571 394.332 314.039 394.049 311.266 393.738C305.322 393.073 298.264 392.284 291.362 383.788C283.263 373.82 253.796 339.88 240.074 324.157C247.565 318.223 261.39 303.419 256.762 291.671C252.134 279.923 248.381 276.467 247.083 276.207C247.195 271.757 245.081 262.345 235.736 260.298C224.054 257.739 215.376 260.187 211.483 270.088C208.803 276.903 211.656 281.715 213.623 285.032C214.514 286.535 215.223 287.731 215.154 288.667C214.976 291.07 209.072 293.303 206.142 294.119C204.362 290.744 200.179 283.216 197.687 280.101C195.195 276.986 184.115 275.877 175.214 276.207C166.495 276.53 154.818 280.398 153.52 281.547ZM238.072 426.287C241.454 431.36 249.642 434.26 251.422 435.743C254.203 443.123 260.812 459.484 264.995 465.892C270.01 473.574 262.442 480.238 260.259 483.311L260.258 483.313C260.165 483.444 260.075 483.57 259.989 483.693C258.357 486.011 258.581 488.925 258.768 491.362C258.824 492.083 258.876 492.762 258.876 493.372C258.876 495.164 257.572 494.349 256.244 493.519C255.594 493.113 254.938 492.703 254.426 492.593C254.037 492.51 253.626 492.433 253.216 492.357C251.985 492.127 250.755 491.898 250.087 491.48C249.64 491.201 248.856 490.079 247.946 488.778L247.946 488.778C247.045 487.489 246.022 486.024 245.081 485.028C244.223 484.12 242.909 483.807 241.697 483.518C240.235 483.169 238.922 482.856 238.739 481.579C238.673 481.116 238.62 480.596 238.563 480.036C238.331 477.766 238.031 474.821 236.514 472.234C235.119 469.853 232.572 468.623 231.02 467.874C230.469 467.608 230.043 467.402 229.839 467.227C229.419 466.867 229.387 465.76 229.343 464.17C229.304 462.816 229.256 461.111 228.949 459.217C228.598 457.05 226.457 456.363 224.477 455.727C222.696 455.156 221.044 454.626 220.939 453.098C220.847 451.769 221.36 450.987 221.933 450.115C222.75 448.87 223.687 447.442 223.164 443.976C222.979 442.753 222.781 441.636 222.6 440.622C221.91 436.745 221.488 434.377 223.164 433.407C224.855 432.428 229.95 424.395 232.287 420.501C232.806 420.316 234.69 421.213 238.072 426.287ZM159.416 414.939C161.819 412.447 154.188 400.81 152.185 395.803C148.363 404.447 140.179 425.587 136.957 443.197C138.695 442.752 146.467 442.507 146.734 441.083C147.067 439.303 148.959 438.191 150.739 437.189C152.519 436.188 152.852 435.965 152.185 432.962C152.13 432.715 152.078 432.49 152.031 432.284C151.499 429.975 151.496 429.961 153.743 427.51C156.19 424.84 156.413 423.616 156.413 421.169C156.413 418.721 156.413 418.054 159.416 414.939ZM301.652 445.083C302.536 444.591 303.857 443.856 305.046 441.973C307.271 442.196 311.454 442.885 310.386 443.864C309.051 445.088 309.051 452.431 309.051 454.1C309.051 455.435 312.833 454.656 314.725 454.1C315.17 455.212 315.793 457.816 314.725 459.329C313.39 461.22 314.725 467.784 316.839 470.454C318.53 472.59 320.584 471.344 321.4 470.454C321.697 471.047 322.112 472.568 321.4 473.903C320.995 474.662 321.281 476.088 321.566 477.513C321.908 479.219 322.249 480.922 321.4 481.468C320.154 482.269 315.392 481.802 313.167 481.468C311.795 481.987 308.517 482.514 306.381 480.467C304.117 478.297 304.732 477.567 306.193 475.835C306.455 475.525 306.744 475.182 307.048 474.793C309.051 472.234 305.046 467.227 303.6 465.892C302.464 464.844 303.318 462.424 304.275 459.708C304.537 458.966 304.807 458.202 305.046 457.437C306.158 453.877 303.933 450.428 301.486 447.536C300.128 445.931 300.55 445.696 301.652 445.083Z" fill="url(#paint0_linear_24_9542)"/>
<path d="M235.164 496.766C237.831 498.488 242.315 501.382 245.86 501.382C250.087 501.382 254.092 501.271 255.983 500.158C257.497 499.268 258.023 499.787 258.097 500.158C257.652 503.829 258.409 512.952 264.995 520.072C271.581 527.192 281.905 528.231 286.244 527.86C287.171 525.264 291.028 520.072 299.038 520.072C309.051 520.072 317.951 517.625 315.615 512.173C314.601 509.809 314.341 507.988 314.109 506.358C313.805 504.23 313.548 502.426 311.721 500.158C308.495 496.153 307.938 494.373 309.051 493.483C309.405 493.2 310.22 493.131 311.256 493.043H311.257C313.48 492.854 316.722 492.578 318.619 489.923C321.4 486.029 330.745 479.688 328.743 484.805C326.74 489.923 327.519 494.929 331.635 497.154C332.765 497.765 333.986 498.777 335.277 499.847C338.69 502.677 342.587 505.907 346.543 503.162C351.994 499.379 352.106 498.489 349.324 494.707C346.543 490.924 344.763 488.81 341.87 487.587C340.504 487.009 340.627 485.488 340.774 483.669C340.938 481.636 341.132 479.23 339.312 477.351C337.209 475.181 337.05 473.59 336.868 471.77C336.751 470.605 336.625 469.347 335.974 467.784C334.921 465.257 333.027 464.147 331.548 463.281C330.684 462.774 329.961 462.351 329.633 461.776C329.22 461.055 329.787 459.665 330.436 458.071C331.189 456.224 332.053 454.103 331.635 452.431C331.194 450.668 329.436 449.44 327.951 448.403C326.813 447.608 325.835 446.925 325.739 446.201C325.654 445.565 326.103 444.654 326.641 443.561C327.515 441.786 328.626 439.53 328.075 437.189C327.621 435.259 326.471 434.169 325.365 433.12C324.305 432.114 323.284 431.147 322.957 429.513C322.682 428.137 323.995 427.196 325.681 425.988C328.084 424.266 331.243 422.002 331.635 417.164C332.303 408.931 325.516 398.585 318.73 395.358C316.571 394.332 314.039 394.049 311.266 393.738C305.322 393.073 298.264 392.284 291.362 383.788C283.263 373.82 253.796 339.88 240.074 324.157C247.565 318.223 261.39 303.419 256.762 291.671C252.134 279.923 248.381 276.467 247.083 276.207C247.195 271.757 245.081 262.345 235.736 260.298C224.054 257.739 215.376 260.187 211.483 270.088C208.803 276.903 211.656 281.715 213.623 285.032C214.514 286.535 215.223 287.731 215.154 288.667C214.976 291.07 209.072 293.303 206.142 294.119C204.362 290.744 200.179 283.216 197.687 280.101C195.195 276.986 184.115 275.877 175.214 276.207C166.495 276.53 154.818 280.398 153.52 281.547C152.222 282.697 149.671 285.73 149.849 288.667C150.053 292.034 149.789 291.846 148.029 290.59C147.869 290.477 147.697 290.354 147.512 290.225C147.378 290.131 147.244 290.036 147.11 289.942L147.109 289.941C145.037 288.48 143.147 287.147 142.729 289.446C142.373 291.404 142.951 292.413 143.285 292.672C142.543 292.747 140.526 293.34 138.39 295.12C135.72 297.345 135.72 299.236 135.831 300.794C135.87 301.335 132.794 314.868 128.601 333.323C120.72 368.003 116.678 421.176 114.137 437.078C111.022 456.569 108.908 472.234 104.791 482.135C103.345 480.949 99.8741 478.731 97.56 479.354C95.9162 479.797 95.6737 480.886 95.4235 482.009C95.2334 482.863 95.039 483.736 94.2225 484.36C93.5261 484.893 92.7694 485.078 92.0912 485.245C90.9275 485.53 89.9949 485.759 89.9949 487.587C89.9949 490.479 88.6598 492.704 87.4361 492.815C86.2123 492.927 83.431 495.152 85.4335 497.488C86.1072 498.274 86.4662 501.591 86.9339 505.914C87.8565 514.441 89.2025 526.88 94.2225 531.531C101.788 538.54 122.258 540.32 125.707 533.756C127.834 529.709 128.86 524.054 129.961 517.991C130.646 514.222 131.358 510.295 132.382 506.5C133.777 501.328 134.928 498.615 135.837 496.473C136.669 494.515 137.297 493.035 137.722 490.59C138.434 486.496 135.052 481.224 132.382 482.135C132.882 477.87 131.309 464.139 133.748 448.76C134.023 447.024 135.052 446.98 135.72 445.311C135.969 444.688 136.834 443.87 136.957 443.197M136.957 443.197C140.179 425.587 148.363 404.447 152.185 395.803C154.188 400.81 161.819 412.447 159.416 414.939C156.413 418.054 156.413 418.721 156.413 421.169C156.413 423.616 156.19 424.84 153.743 427.51C151.496 429.961 151.499 429.975 152.031 432.284C152.078 432.49 152.13 432.715 152.185 432.962C152.852 435.965 152.519 436.188 150.739 437.189C148.959 438.191 147.067 439.303 146.734 441.083C146.467 442.507 138.695 442.752 136.957 443.197ZM235.164 496.766C235.163 496.766 235.163 496.765 235.163 496.765C234.649 496.434 234.203 496.146 233.844 495.931C232.893 495.36 232.918 493.691 232.945 491.863C232.981 489.415 233.022 486.682 230.729 485.918C226.724 484.583 223.832 483.47 223.164 477.351C222.711 473.203 220.571 471.918 218.755 470.828C217.892 470.309 217.102 469.835 216.6 469.119C216.138 468.458 215.793 467.679 215.423 466.844C214.547 464.867 213.532 462.574 210.481 460.775C207.01 458.728 202.953 451.838 201.359 448.648C200.988 450.132 200.246 453.744 200.246 456.325C200.246 458.109 199.225 459.622 198.387 460.862C197.711 461.863 197.155 462.687 197.353 463.334C197.576 464.057 198.188 464.669 198.8 465.281C199.412 465.892 200.024 466.504 200.246 467.227C200.478 467.983 200.256 469.951 200.038 471.881C199.838 473.648 199.642 475.383 199.801 476.128C199.933 476.743 200.429 477.15 201.023 477.636C201.932 478.382 203.068 479.314 203.472 481.468C203.833 483.393 203.218 484.895 202.683 486.203C202.228 487.314 201.831 488.285 202.137 489.255C202.418 490.145 203.212 490.897 204.069 491.71C205.25 492.828 206.552 494.062 206.81 495.931C206.976 497.135 206.692 498.464 206.428 499.702C205.985 501.781 205.595 503.606 207.477 504.163C210.481 505.053 211.483 507.723 213.151 513.286C214.19 516.748 213.16 518.141 212.073 519.612C211.414 520.504 210.733 521.425 210.481 522.854C209.872 526.306 203.702 521.417 199.923 518.423C199.561 518.137 199.222 517.868 198.911 517.625C196.352 515.845 195.796 511.84 196.13 509.17C196.319 507.656 195.364 506.642 194.115 505.319C193.162 504.308 192.039 503.116 191.123 501.382C189.619 498.531 190.313 496.525 190.797 495.125C190.993 494.558 191.155 494.09 191.123 493.706C191.074 493.116 190.527 492.332 189.797 491.286C188.872 489.962 187.655 488.218 186.784 485.918C185.843 483.431 186.283 482.365 186.754 481.224C187.063 480.477 187.385 479.697 187.341 478.464C187.229 475.349 186.896 474.014 183.336 469.119C181.025 465.942 181.807 464.124 182.58 462.327C182.998 461.355 183.414 460.389 183.336 459.217C183.217 457.44 182.752 457.019 182.04 456.376C181.415 455.811 180.601 455.075 179.664 453.098C178.581 450.811 178.898 449.078 179.293 446.912C179.629 445.073 180.022 442.923 179.664 439.859C178.886 433.184 168.317 430.514 167.315 431.515C166.514 432.316 164.46 433.629 163.533 434.185C164.015 435.632 164.69 439.236 163.533 442.084C162.376 444.932 159.639 444.68 158.415 444.198C158.452 444.866 158.371 446.579 157.748 448.092C156.969 449.983 152.185 453.655 146.734 454.211C142.373 454.656 134.182 449.835 133.748 448.76M235.164 496.766L235.163 496.765M260.258 483.313C260.258 483.312 260.258 483.312 260.259 483.311C262.442 480.238 270.01 473.574 264.995 465.892C260.812 459.484 254.203 443.123 251.422 435.743C249.642 434.26 241.454 431.36 238.072 426.287C234.69 421.213 232.806 420.316 232.287 420.501C229.95 424.395 224.855 432.428 223.164 433.407C221.488 434.377 221.91 436.745 222.6 440.622C222.781 441.636 222.979 442.753 223.164 443.976C223.687 447.442 222.75 448.87 221.933 450.115C221.36 450.987 220.847 451.769 220.939 453.098C221.044 454.626 222.696 455.156 224.477 455.727C226.457 456.363 228.598 457.05 228.949 459.217C229.256 461.111 229.304 462.816 229.343 464.17C229.387 465.76 229.419 466.867 229.839 467.227C230.043 467.402 230.469 467.608 231.02 467.874C232.572 468.623 235.119 469.853 236.514 472.234C238.031 474.821 238.331 477.766 238.563 480.036C238.62 480.596 238.673 481.116 238.739 481.579C238.922 482.856 240.235 483.169 241.697 483.518C242.909 483.807 244.223 484.12 245.081 485.028C246.022 486.024 247.045 487.489 247.946 488.778L247.946 488.778C248.856 490.079 249.64 491.201 250.087 491.48C250.755 491.898 251.985 492.127 253.216 492.357C253.626 492.433 254.037 492.51 254.426 492.593C254.938 492.703 255.594 493.113 256.244 493.519C257.572 494.349 258.876 495.164 258.876 493.372C258.876 492.762 258.824 492.083 258.768 491.362C258.581 488.925 258.357 486.011 259.989 483.693C260.075 483.57 260.165 483.444 260.258 483.313ZM260.259 483.311L260.258 483.313M305.046 441.973C307.271 442.196 311.454 442.885 310.386 443.864C309.051 445.088 309.051 452.431 309.051 454.1C309.051 455.435 312.833 454.656 314.725 454.1C315.17 455.212 315.793 457.816 314.725 459.329C313.39 461.22 314.725 467.784 316.839 470.454C318.53 472.59 320.584 471.344 321.4 470.454C321.697 471.047 322.112 472.568 321.4 473.903C320.995 474.662 321.281 476.088 321.566 477.513C321.908 479.219 322.249 480.922 321.4 481.468C320.154 482.269 315.392 481.802 313.167 481.468C311.795 481.987 308.517 482.514 306.381 480.467C304.117 478.297 304.732 477.567 306.193 475.835C306.455 475.525 306.744 475.182 307.048 474.793C309.051 472.234 305.046 467.227 303.6 465.892C302.464 464.844 303.318 462.424 304.275 459.708C304.537 458.966 304.807 458.202 305.046 457.437C306.158 453.877 303.933 450.428 301.486 447.536C300.128 445.931 300.55 445.696 301.652 445.083C302.536 444.591 303.857 443.856 305.046 441.973Z" stroke="#F2C78B" stroke-width="0.91191"/>
<path d="M5.99761 169.85C-4.23761 167.624 -0.455029 163.286 18.6804 149.824C17.0116 148.341 13.4515 147.933 13.4515 141.592C13.4515 138.519 15.8991 135.732 17.2341 134.694C16.7891 134.508 15.7878 133.403 15.3428 130.466C14.8978 127.529 16.9374 125.386 18.0128 124.681C18.5691 124.273 20.4159 122.478 23.353 118.562C26.29 114.646 32.8094 100.91 34.4782 96.2008C36.1099 96.9054 39.9296 99.8054 52.8349 100.873C65.7401 101.941 75.9754 102.208 79.6467 101.763C80.203 103.284 82.161 105.479 83.318 106.992C84.4751 108.505 86.3218 108.438 87.1006 108.216C86.5443 105.027 83.852 96.4901 88.2131 91.417C93.6645 85.0756 108.906 89.8595 104.345 104.433C102.681 109.749 102.602 116.189 103.121 118.785L171.096 173.187C203.322 170.925 271.824 166.401 288.022 166.401C308.27 166.401 304.822 175.301 300.372 179.64C295.921 183.979 280.124 184.869 257.094 188.317C234.065 191.766 216.598 195.549 202.247 213.461C190.766 227.79 195.609 279.656 199.466 303.798C209.775 311.622 234.132 332.59 249.084 353.861C267.775 380.45 300.149 511.283 302.597 516.067C305.044 520.851 317.949 527.081 321.843 531.086C325.737 535.091 324.402 542.879 316.948 543.546C309.494 544.214 299.481 540.654 290.248 545.66C282.86 549.665 278.195 549.777 276.786 549.332C275.748 550.073 272.67 552.313 268.665 555.339C263.658 559.122 259.097 557.898 254.647 551.557C250.197 545.215 251.532 533.756 254.647 530.419C257.139 527.749 270.89 529.306 277.454 530.419C280.086 529.492 285.286 525.746 285.019 518.181C284.685 508.724 252.644 440.749 244.857 428.289C238.626 418.321 205.918 377.929 190.343 358.979C174.768 377.224 143.105 415.384 141.058 422.059C138.499 430.403 132.047 474.014 128.932 498.489C125.816 522.965 124.815 527.526 128.932 532.977C133.048 538.429 143.283 549.777 139.946 555.117C136.608 560.457 130.155 558.009 122.813 555.896C116.938 554.205 102.194 555.191 95.5558 555.896C90.6236 559.381 79.9582 566.042 76.7541 564.796C72.749 563.238 70.079 558.788 68.744 551.112C67.4089 543.435 66.4077 539.875 72.0815 535.759C76.6206 532.466 90.5124 534.387 96.8908 535.759C99.0417 535.314 103.811 533.578 105.68 530.196C108.016 525.969 111.465 435.298 113.467 417.497C115.47 399.697 155.632 313.81 156.633 306.801C157.635 299.792 156.633 288.667 152.406 271.423C148.178 254.179 138.722 251.843 134.828 242.831C131.713 235.622 125.594 210.902 122.924 199.443C119.512 199.22 110.397 198.731 101.23 198.553C89.7707 198.33 79.7579 197.44 79.0904 190.097C78.4229 182.755 85.6543 179.974 91.4395 179.64C96.0676 179.373 122.293 177.823 134.828 177.081L121.144 164.954C118.993 166.252 111.999 168.96 101.23 169.405C90.4604 169.85 83.763 166.623 81.7605 164.954C80.7592 165.659 78.2004 167.335 75.9754 168.403C73.7503 169.471 71.2657 170.183 70.3015 170.406C71.1915 170.962 71.927 171.741 71.1915 173.632C69.634 177.637 65.0726 176.525 62.1801 176.525C59.2875 176.525 56.2837 178.384 54.3924 176.414C52.8972 174.856 53.1686 173.224 54.2811 171.741C53.4653 171.407 51.2996 170.406 50.4986 168.626C49.6975 166.846 50.1648 165.696 50.8323 164.954C50.1648 164.954 49.6085 164.954 47.4947 165.622C41.5286 167.506 43.0446 162.841 43.0446 162.841C43.0446 162.841 41.9321 162.284 39.3733 163.175C35.6941 164.454 36.147 166.067 31.0294 166.067C25.5048 166.067 25.7634 160.764 26.5793 158.279C23.1305 162.878 14.1858 171.63 5.99761 169.85Z" fill="url(#paint1_linear_24_9542)" stroke="#F2C78B" stroke-width="0.91191"/>
<path d="M170.648 290C169.832 288.479 169.357 284.282 173.985 279.653C175.654 278.838 180.037 277.695 184.22 279.653C188.404 281.611 188.782 285.884 188.448 287.775C188.893 288.109 190.05 289.021 191.118 290C192.453 291.224 196.569 299.568 202.8 305.798C209.03 312.028 209.809 306.91 217.151 306.91C223.025 306.91 232.578 315.217 236.62 319.371C237.436 318.369 240.18 316.011 244.631 314.587C250.193 312.807 253.864 313.585 255.533 319.371C257.202 325.156 260.317 323.821 263.321 328.604C266.325 333.388 268.772 341.844 269.885 342.4C270.997 342.956 278.896 347.74 280.231 350.521C281.566 353.303 283.458 359.644 284.793 361.201C286.128 362.759 290.133 365.095 294.472 368.322C296.252 370.435 295.028 374.552 301.369 377.889C306.442 380.559 307.562 383.007 307.488 383.897C308.267 384.119 310.292 385.432 312.161 388.903C314.474 393.199 309.917 395.095 308.531 395.673L308.489 395.69C307.154 396.246 303.817 396.913 301.369 398.026C298.922 399.138 296.029 396.913 292.692 398.026C290.022 398.916 285.423 397.655 283.458 396.913C287.463 398.508 296.652 402.365 301.369 405.035C306.086 407.705 308.972 408.224 309.824 408.15C309.12 408.558 306.442 409.307 301.369 409.04C296.296 408.773 287.314 406.259 283.458 405.035C282.605 405.257 280.765 406.993 280.231 412.155C279.774 416.573 278.274 416.401 276.945 415.925C276.742 416.226 276.649 418.029 277.895 422.835C279.453 428.843 287.463 453.207 291.023 457.101C294.583 460.995 298.032 462.886 301.369 466.558C304.707 470.229 298.699 476.014 295.918 477.46C293.137 478.907 288.798 478.795 285.46 481.688C283.124 483.468 277.784 483.357 275.225 485.025C272.666 486.694 265.101 483.023 263.766 479.24C262.431 475.458 263.21 471.898 258.76 462.886C255.2 455.677 249.563 442.562 247.189 436.906C246.056 437.136 244.772 437.035 243.518 436.408C241.56 435.429 237.214 428.287 235.285 424.838C235.842 427.953 238.067 435.807 242.517 442.304C246.967 448.802 253.345 456.211 255.978 459.104C254.235 458.362 248.836 455.61 241.182 450.537C233.528 445.464 227.238 435.221 225.05 430.734C223.567 432.329 219.799 435.518 216.595 435.518H203.801C204.135 442.23 205.648 457.257 209.03 463.665C212.412 470.073 221.935 472.788 226.274 473.344C223.604 474.16 216.417 474.835 209.03 471.008C201.643 467.18 194.307 445.753 191.563 435.518C187.298 437.335 177.256 439.879 171.204 435.518C165.152 431.157 167.199 424.356 168.979 421.5C168.126 420.796 165.53 418.897 161.97 416.939C158.41 414.981 156.704 410.931 156.296 409.151C155.035 409.151 152.313 410.709 151.512 416.939C150.711 423.169 145.838 426.358 143.502 427.174C143.502 428.954 143.124 434.361 141.611 441.748C139.72 450.982 138.051 457.435 136.382 466.224C135.047 473.255 135.974 484.803 136.604 489.698C135.937 489.995 133.667 490.722 129.929 491.256C125.257 491.923 122.587 494.482 117.358 494.482C113.175 494.482 106.789 491.293 104.119 489.698C103.303 485.359 102.161 473.077 104.119 458.659C106.077 444.24 106.937 427.879 107.123 421.5C105.862 419.424 102.984 412.511 101.56 401.475C100.494 393.217 100.691 390.133 101.106 389.306C100.373 389.429 99.0007 389.084 97.1098 387.123C94.106 384.008 97.3323 380.448 98.2223 379.336C99.1123 378.223 97.3323 377.667 98.2223 375.219C99.1123 372.772 101.226 372.327 100.559 368.655C99.8911 364.984 100.225 361.869 103.34 359.31C106.455 356.751 103.229 355.973 103.34 353.525C103.451 351.077 108.458 348.296 109.459 346.182C110.46 344.069 107.234 341.732 108.458 338.617C109.437 336.125 114.354 332.832 116.69 331.497C116.579 329.828 116.957 325.334 119.36 320.706C122.364 314.92 124.478 311.805 125.59 306.91C126.278 303.884 127.689 302.941 130.374 302.662C133.378 302.015 136.048 296.786 139.052 294.561C141.455 292.781 142.872 292.633 143.28 292.781C141.685 293.152 138.674 294.695 139.386 297.899C140.098 301.103 141.195 304.625 146.84 305.909C148.586 306.306 154.415 306.017 155.629 305.909C159.634 305.553 167.458 295.488 170.648 290Z" fill="url(#paint2_linear_24_9542)" stroke="#F2C78B" stroke-width="0.91191"/>
<path fill-rule="evenodd" clip-rule="evenodd" d="M195.79 133.582C196.754 122.717 202.556 94.1071 217.039 74.1734C222.284 66.9549 225.502 62.954 232.281 57.152C243.856 47.2452 259.557 40.2681 266.881 39.1289C274.891 37.8829 286.683 40.1304 284.347 44.6916C282.526 48.2462 281.521 48.452 278.673 47.9179C275.113 47.2504 259.983 52.9243 257.535 79.1799C255.577 100.184 257.313 118.044 258.425 124.348C259.501 123.57 262.653 121.812 266.658 121.011C270.663 120.21 272.999 122.902 273.667 124.348C269.81 124.052 261.963 129.332 261.429 152.829C261.326 157.346 261.498 162.261 261.772 167.403C245.075 169.294 214.703 170.518 210.809 170.518C207.445 170.518 207.917 178.12 208.139 180.642C209.882 178.565 213.769 174.59 215.371 175.302C216.973 176.014 216.335 178.417 215.816 179.53C216.149 179.715 216.906 180.62 217.262 182.756C217.618 184.892 217.41 186.168 217.262 186.539C217.67 186.724 218.753 186.984 219.821 186.539C220.889 186.094 222.12 185.537 222.602 185.315C222.417 186.835 221.601 190.321 219.821 192.101C218.041 193.881 216.112 193.733 215.371 193.436C215.074 193.844 214.525 195.149 214.703 197.107C214.881 199.066 215.259 200.26 215.816 201.001C218.968 198.628 227.987 194.037 235.73 191.545C243.473 189.053 257.09 187.466 262.93 186.984C264.094 210.276 263.333 233.924 247.3 244.612C227.809 257.606 200.648 257.296 195.79 255.849V250.287C195.086 251.918 192.92 255.315 189.894 255.849C186.868 256.383 182.922 256.962 181.327 257.184C180.882 261.115 180.126 270.356 180.66 275.874C181.194 281.393 181.327 288.557 181.327 291.45C178.324 284.886 171.96 270.646 170.536 266.196C169.112 261.746 168.385 259.15 168.2 258.408C166.234 258.297 161.591 257.763 158.743 256.517C155.895 255.271 149.546 254.663 146.728 254.514C147.173 255.627 148.374 258.586 149.62 261.523C150.867 264.46 151.92 267.642 152.291 268.866C149.732 267.197 143.479 262.658 138.94 257.852C134.401 253.046 133.266 249.322 133.266 248.062C127.704 244.502 118.203 232.464 117.135 217.244C115.37 192.101 132.488 174.968 132.488 174.968L140.498 181.866C138.495 183.609 133.867 188.207 131.375 192.657C128.26 198.22 125.924 206.008 127.704 215.909C129.484 225.811 132.599 233.487 142.945 239.606C151.223 244.501 161.45 242.906 165.53 241.497C165.27 239.272 165.908 232.352 170.536 222.473C176.321 210.124 179.436 185.426 176.21 179.863C173.629 175.413 163.915 167.626 159.381 164.288C159.583 159.293 159.59 152.871 158.076 150.048C155.628 145.487 151.149 147.126 150.622 149.158C150.038 151.409 150.288 153.473 150.481 155.069C150.545 155.602 150.603 156.083 150.622 156.501L145.838 152.162C145.319 149.381 146.016 144.641 149.843 139.924C154.627 134.028 166.592 130.801 172.205 130.801C177.211 130.801 192.008 132.766 195.79 133.582ZM196.569 171.853L182.44 172.743C183.701 173.337 185.867 175.547 186.668 183.201C187.524 191.389 182.352 205.524 179.239 214.033C178.714 215.467 178.248 216.741 177.879 217.8C175.32 225.143 175.987 229.259 177.322 231.818C177.608 232.365 177.954 233.049 178.343 233.818C179.773 236.643 181.779 240.606 183.441 243.055C185.132 245.547 191.934 244.225 195.345 243.186C195.345 239.886 195.679 231.549 197.014 224.607C198.349 217.665 202.651 211.719 204.579 210.124C203.133 205.971 200.218 196.418 198.794 187.874C197.37 179.329 196.717 173.633 196.569 171.853Z" fill="url(#paint3_linear_24_9542)" stroke="#F2C78B" stroke-width="0.91191"/>
<path fill-rule="evenodd" clip-rule="evenodd" d="M19.7891 102.654C16.8965 118.118 16.5628 123.569 17.5641 125.46C19.2699 124.2 23.3714 120.81 26.1305 117.339C28.8895 113.868 35.0677 104.397 37.812 100.095C39.0728 100.429 42.4846 101.163 46.0447 101.43C48.5978 101.621 52.5058 102.399 56.6133 103.216C59.6651 103.823 62.827 104.452 65.6251 104.879C70.8762 105.68 77.4549 103.729 80.0879 102.654C80.7925 105.027 82.8247 109.774 85.3168 109.774C87.8088 109.774 89.0252 108.884 89.3218 108.439C88.1352 107.623 86.2513 104.256 88.2093 97.3137C90.6569 88.636 102.116 93.1973 102.672 95.8674C103.228 98.5374 103.785 102.098 102.116 104.323C100.781 106.103 101.56 114.335 102.116 118.229L131.82 142.148L136.159 138.477C138.978 138.069 145.326 137.164 148.174 136.808C150.507 136.517 152.553 135.366 154.625 134.2C155.716 133.586 156.814 132.968 157.965 132.469C159.836 131.659 161.602 131.267 163.243 130.904C164.53 130.619 165.74 130.351 166.865 129.911C169.424 128.909 174.764 125.016 175.542 123.68C176.011 122.878 178.329 121.03 180.321 119.442C181.642 118.388 182.82 117.449 183.219 117.005C184.02 116.115 188.744 109.366 191.007 106.103C191.934 105.138 194.033 103.032 195.012 102.32C195.653 101.853 196.02 100.683 196.416 99.4189C196.775 98.272 197.158 97.0478 197.793 96.2011C198.199 95.6597 198.554 95.2932 198.866 94.9702C199.581 94.2314 200.076 93.7201 200.463 91.8623C201.019 89.1922 202.688 81.2933 204.579 79.847C206.092 78.69 207.732 75.1374 208.362 73.5056C212.219 73.8765 220.956 74.0397 225.05 71.7256C230.167 68.833 230.392 64.3246 226.719 62.7142C218.597 59.1541 225.05 71.0581 209.474 57.9303C210.884 57.7449 216.906 56.8178 218.597 57.2628C220.711 57.8191 226.719 59.4878 228.832 60.1554C230.523 60.6894 230.724 62.0837 230.612 62.7142C231.317 62.3804 232.682 60.9564 232.504 57.9303C232.326 54.9042 228.573 51.9227 226.719 50.8102C227.72 48.8818 229.722 44.8915 229.722 44.3575C229.722 43.8235 227.423 44.58 226.274 45.025C226.719 43.5788 227.631 40.5527 227.72 40.0187C227.809 39.4847 224.864 40.8345 223.381 41.5762C223.27 41.0199 223.047 38.7281 223.047 34.011C223.047 28.1147 221.267 22.9971 219.265 18.7695C217.663 15.3874 218.597 12.6135 219.265 11.6493C220.526 11.3897 223.047 10.3365 223.047 8.20048C223.047 5.53043 217.151 3.75039 210.031 6.64295C204.335 8.957 193.936 17.5457 189.449 21.5507C180.252 10.9076 155.784 -7.46391 131.487 4.19535C107.189 15.8546 106.381 35.8281 109.014 44.3575C108.754 45.025 107.233 46.4935 103.228 47.0275C101.301 47.2845 98.517 46.5853 94.8564 45.6661C89.0074 44.1974 80.9212 42.1669 70.5202 42.5774C56.9919 43.1114 47.0088 53.5543 43.7084 58.709C42.67 56.2615 39.6143 50.0982 35.6982 45.0251C30.8031 38.6837 29.5793 44.3576 31.5818 48.1402C33.5844 51.9227 32.2494 54.4815 28.8005 60.7117C26.0415 65.6958 28.1701 70.2052 29.5793 71.8368C28.9859 71.2064 27.2875 70.0568 25.2404 70.5018C23.1934 70.9468 22.6816 71.5772 22.6816 71.8368C23.9054 72.7639 26.4197 75.1522 26.6867 77.2882C26.825 78.3945 26.1611 80.284 25.1303 83.2176C23.6733 87.3642 21.4832 93.5971 19.7891 102.654ZM128.038 55.2603C129.113 56.2986 131.086 60.4224 130.374 68.6105C129.484 78.8458 131.264 81.6271 133.044 81.8496C133.061 81.8518 133.08 81.8541 133.101 81.8567L133.138 81.8614C135.348 82.1414 151.845 84.2319 158.855 73.0606C164.551 63.9824 166.346 55.3344 166.531 52.1452C165.752 52.3677 164.039 52.3009 163.416 50.2539C162.793 48.2069 163.601 46.8051 164.083 46.3601C163.564 46.2488 162.37 45.4923 161.747 43.3562C161.124 41.2202 162.6 39.4995 163.416 38.9061C161.117 35.4573 154.36 28.3594 145.727 27.5584C134.935 26.5571 124.589 32.8985 122.698 38.3499C120.885 43.5744 121.627 44.0984 123.063 45.1123C123.125 45.1563 123.189 45.2012 123.254 45.2475C123.712 45.5747 124.237 45.7383 124.773 45.9052C126.06 46.3061 127.409 46.7262 128.038 49.4751C128.75 52.5902 128.334 54.6298 128.038 55.2603ZM104.007 55.2603C105.787 54.1032 108.976 50.1056 109.904 48.2514C111.09 50.3651 113.909 54.7262 117.024 55.7053C120.139 56.6843 122.957 56.8178 124.255 56.7065C124.737 57.0403 125.835 58.3531 126.369 60.9341C126.903 63.5152 124.515 66.7563 123.254 68.0543C123.031 67.7576 121.897 66.7415 119.137 65.0505C115.689 62.9367 107.79 58.3753 101.115 59.0428C95.7745 59.5768 97.1837 57.7078 98.5558 56.7065C99.6312 56.7065 102.227 56.4173 104.007 55.2603Z" fill="url(#paint4_linear_24_9542)"/>
<path d="M133.101 81.8567C133.113 81.8582 133.125 81.8598 133.138 81.8614C135.348 82.1414 151.845 84.2319 158.855 73.0606C164.551 63.9824 166.346 55.3344 166.531 52.1452C165.752 52.3677 164.039 52.3009 163.416 50.2539C162.793 48.2069 163.601 46.8051 164.083 46.3601C163.564 46.2488 162.37 45.4923 161.747 43.3562C161.124 41.2202 162.6 39.4995 163.416 38.9061C161.117 35.4573 154.36 28.3594 145.727 27.5584C134.935 26.5571 124.589 32.8985 122.698 38.3499C120.885 43.5744 121.627 44.0984 123.063 45.1123C123.125 45.1563 123.189 45.2012 123.254 45.2475C123.712 45.5747 124.237 45.7383 124.773 45.9052C126.06 46.3061 127.409 46.7262 128.038 49.4751C128.75 52.5902 128.334 54.6298 128.038 55.2603C129.113 56.2986 131.086 60.4224 130.374 68.6105C129.484 78.8458 131.264 81.6271 133.044 81.8496C133.061 81.8518 133.08 81.8541 133.101 81.8567ZM133.138 81.8614L133.101 81.8567M17.5641 125.46C16.5628 123.569 16.8965 118.118 19.7891 102.654C21.4832 93.5971 23.6733 87.3642 25.1303 83.2176C26.1611 80.284 26.825 78.3945 26.6867 77.2882C26.4197 75.1522 23.9054 72.7639 22.6816 71.8368C22.6816 71.5772 23.1934 70.9468 25.2404 70.5018C27.2875 70.0568 28.9859 71.2064 29.5793 71.8368C28.1701 70.2052 26.0415 65.6958 28.8005 60.7117C32.2494 54.4815 33.5844 51.9227 31.5818 48.1402C29.5793 44.3576 30.8031 38.6837 35.6982 45.0251C39.6143 50.0982 42.67 56.2615 43.7084 58.709C47.0088 53.5543 56.9919 43.1114 70.5202 42.5774C80.9212 42.1669 89.0074 44.1974 94.8564 45.6661C98.517 46.5853 101.301 47.2845 103.228 47.0275C107.233 46.4935 108.754 45.025 109.014 44.3575C106.381 35.8281 107.189 15.8546 131.487 4.19535C155.784 -7.46391 180.252 10.9076 189.449 21.5507C193.936 17.5457 204.335 8.957 210.031 6.64295C217.151 3.75039 223.047 5.53042 223.047 8.20048C223.047 10.3365 220.526 11.3897 219.265 11.6493C218.597 12.6135 217.663 15.3874 219.265 18.7695C221.267 22.9971 223.047 28.1147 223.047 34.011C223.047 38.7281 223.27 41.0199 223.381 41.5762C224.864 40.8345 227.809 39.4847 227.72 40.0187C227.631 40.5527 226.719 43.5787 226.274 45.025C227.423 44.58 229.722 43.8235 229.722 44.3575C229.722 44.8915 227.72 48.8818 226.719 50.8102C228.573 51.9227 232.326 54.9042 232.504 57.9303C232.682 60.9564 231.317 62.3804 230.612 62.7142C230.724 62.0837 230.523 60.6894 228.832 60.1554C226.719 59.4878 220.711 57.8191 218.597 57.2628C216.906 56.8178 210.884 57.7449 209.474 57.9303C225.05 71.0581 218.597 59.1541 226.719 62.7142C230.392 64.3246 230.167 68.833 225.05 71.7256C220.956 74.0397 212.219 73.8765 208.362 73.5056C207.732 75.1374 206.092 78.69 204.579 79.847C202.688 81.2933 201.019 89.1922 200.463 91.8623C200.076 93.7201 199.581 94.2314 198.866 94.9702C198.554 95.2932 198.199 95.6597 197.793 96.2011C197.158 97.0478 196.775 98.272 196.416 99.4189C196.02 100.683 195.653 101.853 195.012 102.32C194.033 103.032 191.934 105.138 191.007 106.103C188.744 109.366 184.02 116.115 183.219 117.005C182.82 117.449 181.642 118.388 180.321 119.442C178.329 121.03 176.011 122.878 175.542 123.68C174.764 125.016 169.424 128.909 166.865 129.911C165.74 130.351 164.53 130.619 163.243 130.904C161.602 131.267 159.836 131.659 157.965 132.469C156.814 132.968 155.716 133.586 154.625 134.2C152.553 135.366 150.507 136.517 148.174 136.808C145.326 137.164 138.978 138.069 136.159 138.477L131.82 142.148L102.116 118.229C101.56 114.335 100.781 106.103 102.116 104.323C103.785 102.098 103.228 98.5374 102.672 95.8674C102.116 93.1973 90.6569 88.636 88.2093 97.3137C86.2513 104.256 88.1352 107.623 89.3218 108.439C89.0252 108.884 87.8088 109.774 85.3168 109.774C82.8247 109.774 80.7925 105.027 80.0879 102.654C77.4549 103.729 70.8762 105.68 65.6251 104.879C62.8271 104.452 59.6651 103.823 56.6133 103.216C52.5058 102.399 48.5978 101.621 46.0447 101.43C42.4846 101.163 39.0728 100.429 37.812 100.095C35.0677 104.397 28.8895 113.868 26.1305 117.339C23.3714 120.81 19.2699 124.2 17.5641 125.46ZM109.904 48.2514C108.976 50.1056 105.787 54.1032 104.007 55.2603C102.227 56.4173 99.6312 56.7065 98.5558 56.7065C97.1837 57.7078 95.7745 59.5768 101.115 59.0428C107.79 58.3753 115.689 62.9367 119.137 65.0505C121.897 66.7415 123.031 67.7576 123.254 68.0543C124.515 66.7563 126.903 63.5152 126.369 60.9341C125.835 58.3531 124.737 57.0403 124.255 56.7065C122.957 56.8178 120.139 56.6843 117.024 55.7053C113.909 54.7262 111.09 50.3651 109.904 48.2514Z" stroke="#F2C78B" stroke-width="0.91191"/>
<path d="M94.554 310.806C94.554 323.044 96.4453 328.94 84.9861 328.94C75.4183 328.94 77.0874 317.125 77.0874 310.806C77.0874 302.907 78.3111 210.123 77.8661 195.771C77.4211 181.419 85.3201 179.083 89.9927 180.307C94.6653 181.531 98.8928 185.202 97.1128 199.776C95.3328 214.35 94.554 285.883 94.554 310.806Z" fill="url(#paint5_linear_24_9542)" stroke="#F2C78B" stroke-width="0.91191"/>
<path d="M94.8837 260.077V270.201C96.775 269.496 100.825 267.041 101.893 262.858C103.228 257.629 101.225 251.065 94.8837 252.289C88.5423 253.513 86.206 257.073 84.871 263.86C83.5359 270.646 80.7546 278.322 78.5296 280.436C76.3045 282.55 75.4145 282.55 77.1945 284.107C78.9746 285.665 86.3172 285.776 88.2085 272.315C89.7216 261.545 93.2891 259.669 94.8837 260.077Z" fill="url(#paint6_linear_24_9542)"/>
<path d="M70.8532 280.436C71.2982 278.033 71.4836 271.647 71.5207 268.755C74.0795 270.535 75.7483 270.201 77.5283 268.532L77.7508 249.508C79.16 249.768 82.1119 249.908 82.6459 248.395C83.3134 246.504 78.4183 243.612 78.1958 233.71C77.9733 223.809 74.4132 225.923 72.4107 226.59C70.4081 227.258 70.8532 229.26 70.8532 230.484C70.8532 231.708 65.7355 231.819 64.9568 233.71C64.3338 235.223 65.5872 237.011 66.2918 237.715C65.3276 238.346 62.9987 239.54 61.3967 239.273C59.7947 239.006 60.2842 236.714 60.7292 235.601C57.577 238.457 51.8068 248.306 53.9428 264.861C56.6129 285.554 69.0731 289.559 73.857 289.225C78.6408 288.891 75.8595 284.107 74.4132 284.664C72.967 285.22 70.2969 283.44 70.8532 280.436Z" fill="url(#paint7_linear_24_9542)"/>
<path d="M94.8837 260.077V270.201C96.775 269.496 100.825 267.041 101.893 262.858C103.228 257.629 101.225 251.065 94.8837 252.289C88.5423 253.513 86.206 257.073 84.871 263.86C83.5359 270.646 80.7546 278.322 78.5296 280.436C76.3045 282.55 75.4145 282.55 77.1945 284.107C78.9746 285.665 86.3172 285.776 88.2085 272.315C89.7216 261.545 93.2891 259.669 94.8837 260.077Z" stroke="#F2C78B" stroke-width="0.91191"/>
<path d="M70.8532 280.436C71.2982 278.033 71.4836 271.647 71.5207 268.755C74.0795 270.535 75.7483 270.201 77.5283 268.532L77.7508 249.508C79.16 249.768 82.1119 249.908 82.6459 248.395C83.3134 246.504 78.4183 243.612 78.1958 233.71C77.9733 223.809 74.4132 225.923 72.4107 226.59C70.4081 227.258 70.8532 229.26 70.8532 230.484C70.8532 231.708 65.7355 231.819 64.9568 233.71C64.3338 235.223 65.5872 237.011 66.2918 237.715C65.3276 238.346 62.9987 239.54 61.3967 239.273C59.7947 239.006 60.2842 236.714 60.7292 235.601C57.577 238.457 51.8068 248.306 53.9428 264.861C56.6129 285.554 69.0731 289.559 73.857 289.225C78.6408 288.891 75.8595 284.107 74.4132 284.664C72.967 285.22 70.2969 283.44 70.8532 280.436Z" stroke="#F2C78B" stroke-width="0.91191"/>
<path d="M20.9006 490.59C26.2407 496.931 43.1511 476.461 61.5077 478.129C61.8415 479.909 64.5783 481.934 67.9603 482.468C72.1879 483.136 74.7467 481.689 82.3119 475.793C88.364 471.076 88.4679 467.746 87.7633 466.67C90.5446 462.554 90.1886 455.145 90.5446 444.197C90.9896 430.513 95.6622 337.061 95.1059 322.042C94.5497 307.023 79.0856 310.027 77.5281 316.702C75.9705 323.377 77.1943 361.537 80.1981 409.375C83.2019 457.214 76.8605 457.993 73.4117 460.44C69.9629 462.888 55.5001 460.663 45.4874 465.447C35.4747 470.23 18.3609 487.574 20.9006 490.59Z" fill="url(#paint8_linear_24_9542)" stroke="#F2C78B" stroke-width="0.91191"/>
<path fill-rule="evenodd" clip-rule="evenodd" d="M79.9829 448.759L80.8729 442.083C78.8704 438.968 82.2747 437.567 86.9918 438.19C91.7089 438.813 94.2232 442.417 90.5519 443.307L90.4406 449.092C92.4061 448.796 97.5608 447.335 98.0058 442.974C98.4508 438.612 96.8562 437.003 96.0032 436.743L102.901 428.399L86.9918 414.159L68.3014 428.956L75.7553 436.187C74.6057 437.003 72.529 439.502 73.419 442.974C74.309 446.445 78.277 448.314 79.9829 448.759ZM86.4355 432.293C84.1215 432.293 82.8013 433.035 82.4304 433.406L77.5353 428.399L86.9918 422.169L95.2245 428.956L91.7757 433.74C90.9598 433.258 88.7496 432.293 86.4355 432.293Z" fill="url(#paint9_linear_24_9542)" stroke="#F2C78B" stroke-width="0.91191"/>
<path d="M116.02 516.733C117.801 513.618 117.467 512.283 118.802 510.837C118.987 509.798 119.469 507.299 119.914 505.608C120.471 503.494 125.588 500.157 129.148 501.269C132.708 502.382 134.822 504.718 134.711 509.168C134.622 512.728 131.559 515.621 130.038 516.622C131.373 518.254 132.041 522.518 129.371 525.522C125.512 529.863 120.916 530.528 114.018 529.972C107.852 529.475 102.337 528.192 100.668 522.296C99.2843 517.408 104.599 516.177 107.343 516.177L107.232 518.736C105.897 518.847 103.716 519.759 105.229 522.518C106.632 525.077 111.458 526.078 116.466 526.078C121.249 526.078 123.919 525.3 126.033 522.963C127.724 521.094 127.48 519.477 126.367 518.958L126.923 514.508C129.816 513.062 131.329 508.523 129.816 507.722C127.925 506.721 125.699 507.944 125.588 510.281C125.477 512.617 122.473 517.512 119.914 521.517C117.356 525.522 113.795 523.742 112.015 522.963C110.235 522.185 114.24 519.848 116.02 516.733Z" fill="url(#paint10_linear_24_9542)" stroke="#F2C78B" stroke-width="0.91191"/>
<path d="M146.177 186.26L143.079 183.725C142.704 184.57 141.812 186.766 141.249 188.794C140.545 191.328 138.891 195.61 142.235 201.043C145.614 206.534 154.906 204.985 155.892 207.801C156.68 210.054 155.563 214.653 154.906 216.671C155.563 216.906 157.807 216.727 161.524 214.137C165.241 211.546 166.545 206.393 166.733 204.14C168.704 202.967 173.294 199.579 175.885 195.411C179.123 190.202 178.137 183.162 176.87 178.657C175.856 175.052 172.506 173.682 170.957 173.447C171.942 175.512 173.942 181.247 174.054 187.668C174.195 195.693 164.903 204.563 151.246 201.747C140.32 199.494 143.737 190.343 146.177 186.26Z" fill="url(#paint11_linear_24_9542)" stroke="#F2C78B" stroke-width="0.91191"/>
<defs>
<linearGradient id="paint0_linear_24_9542" x1="204.797" y1="298.306" x2="204.707" y2="546.728" gradientUnits="userSpaceOnUse">
<stop stop-color="#433323"/>
<stop offset="1" stop-color="#BD7B49"/>
</linearGradient>
<linearGradient id="paint1_linear_24_9542" x1="0.455933" y1="326.812" x2="323.974" y2="326.812" gradientUnits="userSpaceOnUse">
<stop stop-color="#FCF0D6"/>
<stop offset="1" stop-color="#FFC446"/>
</linearGradient>
<linearGradient id="paint2_linear_24_9542" x1="95.8569" y1="386.527" x2="312.805" y2="386.527" gradientUnits="userSpaceOnUse">
<stop stop-color="#3C3024"/>
<stop offset="1" stop-color="#BD7B49"/>
</linearGradient>
<linearGradient id="paint3_linear_24_9542" x1="192.567" y1="74.128" x2="192.449" y2="299.511" gradientUnits="userSpaceOnUse">
<stop stop-color="#433323"/>
<stop offset="1" stop-color="#BD7B49"/>
</linearGradient>
<linearGradient id="paint4_linear_24_9542" x1="17.0529" y1="71.3022" x2="232.52" y2="71.3022" gradientUnits="userSpaceOnUse">
<stop stop-color="#3C3024"/>
<stop offset="1" stop-color="#BD7B49"/>
</linearGradient>
<linearGradient id="paint5_linear_24_9542" x1="76.9757" y1="254.483" x2="97.5286" y2="254.483" gradientUnits="userSpaceOnUse">
<stop stop-color="#FCF0D6"/>
<stop offset="1" stop-color="#FFC446"/>
</linearGradient>
<linearGradient id="paint6_linear_24_9542" x1="53.4797" y1="257.589" x2="102.285" y2="257.589" gradientUnits="userSpaceOnUse">
<stop stop-color="#3C3024"/>
<stop offset="1" stop-color="#BD7B49"/>
</linearGradient>
<linearGradient id="paint7_linear_24_9542" x1="53.4797" y1="257.589" x2="102.285" y2="257.589" gradientUnits="userSpaceOnUse">
<stop stop-color="#3C3024"/>
<stop offset="1" stop-color="#BD7B49"/>
</linearGradient>
<linearGradient id="paint8_linear_24_9542" x1="20.6467" y1="401.513" x2="95.1519" y2="401.513" gradientUnits="userSpaceOnUse">
<stop stop-color="#FCF0D6"/>
<stop offset="1" stop-color="#FFC446"/>
</linearGradient>
<linearGradient id="paint9_linear_24_9542" x1="68.3014" y1="431.626" x2="102.901" y2="431.626" gradientUnits="userSpaceOnUse">
<stop stop-color="#3C3024"/>
<stop offset="1" stop-color="#BD7B49"/>
</linearGradient>
<linearGradient id="paint10_linear_24_9542" x1="100.442" y1="515.594" x2="134.715" y2="515.594" gradientUnits="userSpaceOnUse">
<stop stop-color="#3C3024"/>
<stop offset="1" stop-color="#BD7B49"/>
</linearGradient>
<linearGradient id="paint11_linear_24_9542" x1="140.214" y1="195.097" x2="178.067" y2="195.097" gradientUnits="userSpaceOnUse">
<stop stop-color="#3C3024"/>
<stop offset="1" stop-color="#BD7B49"/>
</linearGradient>
</defs>
</svg>
