<svg xmlns="http://www.w3.org/2000/svg" width="339" height="384" fill="none" xmlns:v="https://vecta.io/nano"><g stroke="#f2c78b" stroke-width=".912"><path d="M198.204 279.763c-.722-3.071-.542-5.962-3.613-8.13-7.527 2.951-23.269 8.13-26.015 5.239-3.433-3.613-10.479-12.646-17.344-13.188s-7.227 6.142-12.827 7.949-2.168 6.865-7.046 5.239-9.395 1.807-11.382 5.059-2.71 3.433-6.685 3.975-4.335 1.987-6.323 1.987-3.252-3.433-4.878-5.962-5.6-1.084-6.684-2.349-.903-5.42-5.42-6.323h-.001c-4.516-.903-9.033-1.807-9.574-5.239s-3.794-6.323-7.769-5.42-8.852-3.252-13.369-4.155-3.433 5.6-2.168 9.033 1.445 3.613 3.613 5.781 4.878 0 7.949 2.891.903 5.781 5.239 8.31 5.058-.18 7.407 1.446.723 1.625 2.71 7.045 8.491 3.433 10.117 4.698 3.071 4.697 4.517 7.226 4.878 3.975 1.626 6.685-3.072 3.252-6.143 5.058-8.852-.18-10.117 1.626-3.252 3.975-7.769 2.168-6.685 3.072-9.575 1.807-6.143-2.529-9.575 1.265-5.42 3.432-12.466 6.504-3.613 7.587-1.987 9.936 12.466.723 14.453-1.084 3.071 1.084 7.407 1.084 5.42-3.252 6.865-4.155 3.975 2.529 8.672 1.806 7.588-5.6 13.369-3.251c6.511 2.645 11.021.361 10.84 1.445s1.265 4.878 2.71 6.323 0 2.71 0 5.601.542 3.794 0 6.142-2.89.542-5.781 0-5.781-1.626-7.046 0-1.987 1.084-3.975-2.348-5.781-1.446-7.769-1.446-5.059-1.084-9.395 0-4.517 5.059-6.323 6.866-8.311-.362-12.647 0-2.891 9.755-5.239 10.839-7.407-2.168-11.562 3.072-4.155 12.285-4.155 15.718 0 12.285-2.168 16.801 2.168 13.369 0 18.067 0 16.079 2.168 19.873 6.143 7.588 5.781 13.73 10.298 11.021 16.621 13.731 16.26 6.142 17.344 7.407 6.142 2.529 11.201 2.529 6.685 0 11.563 3.614 11.202 5.239 14.815 5.058 21.318-8.672 22.764-8.672 8.129-5.781 7.768-7.588 9.033-8.31 12.647-11.923c2.168-1.988 8.31-9.576 7.587-14.634s4.517-3.252 9.756-3.252 8.853 0 9.576 3.252-1.988 4.336-1.988 6.504 5.962 2.89 5.962 5.962-2.348 3.252-2.89 5.781 4.516 7.046 5.419 10.117 6.866 6.323 12.828 5.781 7.949-4.697 8.31-9.936 4.336-10.659 5.601-14.815 2.348-8.672 5.6-12.646-1.445-4.697-2.168-7.949 6.143-2.53 4.517-5.601-1.626-5.962 1.626-10.659-6.143-10.479-10.84-14.995-15.718-87.623-16.26-91.236 9.033-8.31 10.84-11.382-1.807-6.142-5.059-8.31-.18-4.156 0-6.323-3.071-1.988-3.794-5.059z" fill="url(#A)"/><path d="M322.321 54.113c-14.453-6.143-32.7-18.247-42.275-21.499-1.987 2.047-7.118 5.709-11.743 3.975-5.782-2.168-9.756 2.529-9.214 8.13s13.55 1.445 12.285 5.059-10.298 2.529-15.898 11.924c-4.481 7.516-1.867 26.377 0 34.868-1.566-5.299-5.601-17.705-9.214-24.932-4.517-9.033-7.227-14.814-13.189-14.634-4.769.145-3.312 5.239-1.987 7.769-.663.662-2.132 3.18-2.71 7.949s1.566 7.648 2.71 8.491c-5.42 8.491-23.197 31.291-50.947 54.561-34.688 29.086-94.488 34.145-122.491 37.578s-31.797 1.806-28.545 13.008 14.815 5.961 46.431 3.793 50.767 4.156 65.762 19.693 18.427 47.695 16.982 79.492-7.046 25.474-24.751 77.686-22.041 119.961-24.751 137.847-3.252 15.717-11.382 26.377-4.155 14.995-1.084 14.453 17.525-4.336 27.823 1.987 15.717 1.084 17.885 1.626 4.878 5.059 6.504 6.143 9.575-2.71 10.84-8.672-1.807-12.647-5.239-12.827-10.659-.181-20.235-2.71-11.02-15.899-8.671-29.991 15.537-65.942 20.234-81.66c3.758-12.574 19.15-40.288 26.377-52.573 4.938 11.141 15.103 40.071 16.26 66.665 1.445 33.242 1.084 72.446 0 85.635s-8.13 14.272-10.117 19.331-1.265 11.02 7.768 9.756 18.067-1.626 27.28-1.626 13.37-.904 20.054 2.89 11.021-6.865 7.407-16.079-13.007-4.878-18.066-3.252-14.453 3.433-20.234-11.02 10.839-90.513 9.755-112.915-19.692-131.163-17.343-150.855 5.42-27.822 11.201-43.901 3.794-33.062 9.033-37.759 16.44-3.433 26.558-9.756 3.974-14.815 0-15.899c-3.18-.867-29.991 1.325-42.998 2.53 5.721-6.685 20.921-23.161 35.952-35.591 18.789-15.537 32.881-11.563 44.443-11.924s17.163-3.975 22.222-7.769c4.047-3.035 3.131-7.407 2.168-9.214 1.385-.241 4.3-1.337 4.878-3.794s-2.65-2.951-4.336-2.891c.903-1.144 3.288-3.65 5.6-4.517 2.891-1.084 5.601.903 9.937-3.975 3.469-3.902.482-7.407-1.445-8.672 3.733 1.084 12.538 2.855 17.886 1.265 6.684-1.987 1.083-3.433-13.37-9.575z" fill="url(#B)"/><path d="M190.437 300.178c3.794 1.445 12.104-.723 16.44-1.445 3.828-.638-4.372 7.371-5.962 7.949-1.987.723-.18 4.516 2.891 7.768s8.852 4.156 11.924 9.395-2.53 18.97-1.807 21.138 5.601 5.058 5.601 7.768-.542 8.853 0 12.285 3.432 4.878 3.252 8.853-5.059 4.697-7.046 9.575.903 12.105 1.987 13.189 7.588 2.348 6.685 7.588-14.634 4.516-15.718 5.961-4.517 4.336-8.853 5.24-4.155 7.226-6.865 8.852-15.537-1.987-15.537-5.962 1.265-8.491 1.265-9.575.722-7.588 0-9.756-.181-9.394-1.265-9.394-2.168-2.168-5.42 0-14.092 5.239-15.718 8.13-8.852 2.89-9.394 3.432-3.433 7.95-7.227 11.021c-3.035 2.457-5.601-2.951-6.504-5.962-3.493.181-10.84.614-12.285.903-1.807.362-.542-7.226 0-9.394s2.529-9.214 1.807-10.298 3.071-9.937 4.155-13.189 1.084-6.865 1.626-9.936.542-2.71.903-4.336 4.336-8.853 3.794-12.105c-.433-2.601 7.046-17.103 10.84-24.028.602-1.265 1.734-4.733 1.445-8.491-.361-4.698 5.782-9.575 5.059-7.588s-3.252 8.31 2.891 9.936 8.129-14.091 10.297-18.97 4.878-5.961 7.408-13.007 9.033 0 9.033-2.168 5.42-.362 8.13 3.432-1.626 11.743 2.168 13.189z" fill="url(#C)"/><path d="M244.274 68.386c3.902 6.648 9.334 21.439 11.562 28.003-1.084-9.214-2.312-29.195 1.446-35.41 4.697-7.769 11.381-7.407 14.995-9.033s2.529-6.323.542-5.781-6.866.542-10.118-.542-2.348-7.227 3.252-7.588 6.143 4.155 8.853 3.794 4.517-4.878 7.407-7.227-2.529-5.962-6.142-8.853-7.227-2.168-10.66-3.975-13.549-3.433-17.705-3.433-10.659-4.517-15.356-4.697-8.13.361-11.201.903-9.395.542-11.744 1.626-5.419 4.155-6.684 5.239-5.059 3.071-6.685 5.601c-1.3 2.023-1.385 3.734-1.264 4.336-1.265.301-4.987 1.12-9.756 1.987s-8.371 3.252-9.575 4.336c.843 0 3.541.361 7.588 1.807 5.058 1.807 5.058 8.491 1.264 10.117s-6.323-5.42-13.369-7.949-11.021.542-11.021 2.529 5.059-.542 8.492 6.865c2.746 5.926-.542 12.586-2.53 15.176-1.626.241-5.239.867-6.684 1.445-1.807.723-5.781.361-8.13 0s-7.407.542-9.033 1.084-5.059-1.265-8.492-2.529-6.503-.542-8.31-1.987-3.975-6.865-5.962-9.575-6.504-5.239-7.227-8.852 2.53-10.478 3.794-14.092 8.311-13.008 21.138-16.982 23.306 9.575 22.944 13.55-1.625 9.033 2.53 10.117 7.046-1.807 8.491-10.117-5.42-18.789-14.634-22.944S138.946.456 129.913.456s-16.44 5.42-17.886 7.046-7.949 5.781-10.659 8.853-5.42 9.033-5.239 11.743-5.239 8.13-6.685 14.634 0 9.033 0 11.924-.361 10.659 0 15.176 6.323 10.298 8.13 13.008 5.962 9.936 9.576 13.008 11.743 5.781 15.175 8.31 9.214 5.782 13.189 8.13 13.911.362 17.344 3.252c2.746 2.313 9.936 2.65 13.188 2.529-.783 1.084-5.203 4.915-16.621 11.563-14.273 8.311-26.377 12.646-37.94 9.395s-8.671-12.647-5.058-14.996-6.323-10.659-10.659 6.866 12.104 27.641 23.667 31.435 46.792-14.092 67.749-31.435c16.765-13.875 37.217-38.903 45.347-49.683-.663-.301-2.132-2.06-2.71-6.685s1.084-7.949 1.987-9.033c-1.144-1.987-2.602-6.287.723-7.588 4.155-1.626 6.865 2.168 11.743 10.479z" fill="url(#D)"/><path d="M186.09 185.186c9.996-.393 9.582-8.282 8.102-8.993-.742-.357-1.308.268-2.033.55-.906.353-2.165-.203-1.987-1.4.061-.412.268-.78.583-1.091-.617-.209-1.949-.961-2.337-2.291-.485-1.662-.064-3.678.788-6.546.682-2.294 7.774-10.517 7.41-12.59l1.769-2.057c1.224 3.669-5.716 11.368-6.593 12.835-1.945 3.253-2.644 5.9-1.905 7.907.591 1.605 2.639 1.803 3.589 1.701 1.723-.108 3.832.882 4.051 4.339s-2.567 7.441-3.308 8.736-6.908 5.87-11.363 12.477c-3.565 5.285-4.752 8.6-4.9 9.597-2.344-1.596-8.261-5.388-13.172-7.79-6.14-3.002-7.134-2.051-10.525-2.622s-9.862-2.155-9.317-7.882c.08-.842.209-1.5.369-2.007.117-1.444.075-4.634-1.023-5.84-1.373-1.507-4.344-.792-6.012-1.471s-4.162-2.766-3.906-5.724 3.576-9.442 2.408-11.429-4.474-1.893-5.781-1.987c.549-.55 2.38-1.268 3.007-1.222.784.057 3.954.472 4.726 2.667s-2.625 9.725-2.482 11.642.782 3.359 2.482 4.226 4.043-.126 5.776.929 1.866 1.81 2.318 3.284c.361 1.179.349 2.871.297 3.57.498.293.813.969.561 1.328-.619.886-1.073 2.713.793 4.522s6.616.2 15.643-3.518 11.975-3.458 21.972-3.85z" fill="url(#E)"/><path d="M41.898 230.426c1.53-15.7 3.459-38.234 3.516-49.014.029-5.377-8.799-6.129-13.422-3.557-5.562 3.094-3.965 7.988-4.053 16.04-.509 46.46-4.199 115.712-4.476 118.888-.11 1.26-1.199 9.133-3.027 32.921.276 6.354 3.091 8.816 7.502 9.217s8.718-3.429 8.718-3.429l5.241-121.066z" fill="url(#F)"/></g><path d="M13.548 237.502c-.316-1.289-.509-4.447 1.243-6.769 2.191-2.903 3.574-5.732 2.128-8.305s-.503-5.778 1.971-3.091 6.596 7.929 6.789 12.487c.155 3.647-.277 6.958-.512 8.158 1.248.303 3.784 1.362 3.942 3.178s-.784 3.469-1.275 4.068c.263-.093 1.131-.103 2.496.605s4.044 1.227 5.213 1.398c-1.018.786-3.428 2.267-4.925 1.904s-3.01-.454-4.044-.638l-.996 21.861c-1.549.14-4.189-.001-6.345-2.301-1.52-1.622-2.405-2.785-2.856-3.47 1.348 2.373 3.538 6.628 3.709 8.592.234 2.683 1.033 7.186.422 9.53s-4.386 8.094-4.063 11.808 1.693 7.75 4.059 9.199 8.719 1.912 4.495 2.504-10.102.918-13.865-9.556c-3.01-8.379-3.162-17.601-2.861-21.164-.691-.145-2.121-.972-2.308-3.118s.38-3.432.687-3.806c-1.202-2.11-3.508-7.544-3.117-12.405s3.033-11.161 4.305-13.703c-1.524-.347-4.614-1.536-4.786-3.517-.216-2.476.319-3.357 1.697-3.898 1.103-.433 4.093 1.015 5.451 1.793.196-.087.505-.753 1.122-1.142.965-.608 1.819-.165 2.223-.202z" fill="url(#G)"/><path d="M41.921 255.29c2.469-.431 2.875 2.151 2.56 6.007-.395 4.82-2.837 4.834-3.766 10.534s-1.45 9.076-.668 13.373c.625 3.437-2.984 7.828-4.867 9.593.862-2.574 2.205-8.353.682-10.877-1.904-3.155-2.052-11.878-.45-14.519s5.118-6.705 4.314-8.92c-.643-1.772.064-4.819 2.195-5.191z" fill="url(#G)"/><g stroke="#f2c78b" stroke-width=".912"><path d="M16.379 266.587c.45.685 1.336 1.848 2.856 3.47 2.155 2.3 4.796 2.441 6.345 2.301l.996-21.861 4.044.638c1.498.363 3.908-1.118 4.925-1.904-1.169-.171-3.848-.69-5.213-1.398s-2.233-.698-2.496-.605c.491-.599 1.433-2.252 1.275-4.068s-2.694-2.875-3.942-3.178c.235-1.2.666-4.511.512-8.158-.193-4.558-4.315-9.8-6.789-12.487s-3.417.518-1.971 3.091.063 5.402-2.128 8.305c-1.753 2.322-1.559 5.48-1.243 6.769-.404.037-1.257-.406-2.223.202-.618.389-.926 1.055-1.122 1.142-1.357-.778-4.348-2.226-5.451-1.793-1.378.541-1.913 1.422-1.697 3.898.173 1.981 3.263 3.17 4.786 3.517-1.272 2.542-3.914 8.842-4.305 13.703s1.915 10.295 3.117 12.405c-.307.374-.874 1.66-.687 3.806s1.617 2.973 2.308 3.118c-.301 3.563-.149 12.785 2.861 21.164 3.763 10.474 9.64 10.148 13.865 9.556s-2.128-1.055-4.495-2.504-3.736-5.484-4.059-9.199 3.452-9.465 4.063-11.808-.189-6.847-.422-9.53c-.171-1.964-2.361-6.219-3.709-8.592zm0 0l-.351-.607a4.41 4.41 0 0 0 .351.607zm25.542-11.297c2.469-.431 2.875 2.151 2.56 6.007-.395 4.82-2.837 4.834-3.766 10.534s-1.45 9.076-.668 13.373c.625 3.437-2.984 7.828-4.867 9.593.862-2.574 2.205-8.353.682-10.877-1.904-3.155-2.052-11.878-.45-14.519s5.118-6.705 4.314-8.92c-.643-1.772.064-4.819 2.195-5.191z"/><path d="M33.924 479.406c-.58-5.471 4.235-62.832 3.153-127.046-1.245-9.932-4.401-15.532-8.829-15.454s-7.972 7.127-7.899 11.45l2.687 92.873c.42 10.457-.329 38.375 1.761 46.56s8.556 15.546 16.973 22.872 26.303 11.995 31.395 10.161c4.073-1.466 4.674-7.307 4.465-10.044 2.278.043 8.607 1.244 15.708 5.703s8.267 17.711 7.962 23.779c1.136-.187 3.499-.809 3.873-1.813.466-1.254 2.989-10.766-.862-22.159s-14.458-18.431-20.799-18.32-36.566 1.391-41.986-1.753-7.021-11.337-7.601-16.809z" fill="url(#H)"/><path d="M245.689 203.323c1.531-15.7 3.459-38.233 3.517-49.014.028-5.377-8.799-6.129-13.422-3.557-5.562 3.094-3.965 7.988-4.054 16.04-.509 46.46-4.199 115.713-4.475 118.889-.11 1.259-1.199 9.133-3.027 32.921.276 6.354 3.091 8.815 7.502 9.216s8.718-3.428 8.718-3.428l5.241-121.067z" fill="url(#I)"/></g><path d="M256.87 212.2c.316-1.289.51-4.446-1.243-6.769-2.191-2.903-3.574-5.732-2.128-8.305s.503-5.778-1.971-3.091-6.596 7.929-6.789 12.487c-.155 3.647.277 6.958.511 8.158-1.248.303-3.784 1.362-3.942 3.178s.784 3.469 1.275 4.068c-.263-.093-1.131-.103-2.496.605s-4.044 1.228-5.213 1.399c1.018.785 3.427 2.266 4.925 1.903s3.941-.821 4.975-1.004l-.93 22.379c1.549.141 5.185-.153 7.341-2.453 1.519-1.622 2.405-2.784 2.855-3.469-1.348 2.372-3.538 6.627-3.709 8.591-.233 2.683-1.033 7.186-.422 9.53s4.386 8.094 4.062 11.809-1.693 7.75-4.059 9.199-8.719 1.912-4.494 2.503 10.102.918 13.865-9.556c3.01-8.379 3.162-17.6 2.861-21.164.691-.145 2.121-.972 2.308-3.118s-.38-3.432-.687-3.806c1.202-2.11 3.508-7.544 3.117-12.405s-3.033-11.16-4.305-13.703c1.523-.347 4.613-1.536 4.786-3.517.216-2.476-.319-3.357-1.697-3.898-1.103-.433-4.093 1.015-5.451 1.793-.196-.087-.504-.753-1.122-1.142-.965-.608-1.819-.165-2.223-.202z" fill="url(#J)"/><path d="M228.498 229.988c-2.469-.431-2.876 2.152-2.56 6.007.395 4.82 2.838 4.834 3.767 10.534s1.449 9.076.668 13.373c-.625 3.437 2.984 7.828 4.867 9.594-.862-2.575-2.205-8.354-.682-10.878 1.903-3.155 2.052-11.877.449-14.519s-5.118-6.705-4.314-8.92c.643-1.772-.064-4.819-2.195-5.191z" fill="url(#J)"/><g stroke="#f2c78b" stroke-width=".912"><path d="M254.04 241.286c-.45.685-1.336 1.847-2.855 3.469-2.156 2.3-5.792 2.594-7.341 2.453l.93-22.379-4.975 1.004c-1.498.363-3.907-1.118-4.925-1.903 1.169-.171 3.848-.691 5.213-1.399s2.233-.698 2.496-.605c-.491-.599-1.433-2.252-1.275-4.068s2.694-2.875 3.942-3.178c-.234-1.2-.666-4.511-.511-8.158.193-4.558 4.315-9.8 6.789-12.487s3.417.519 1.971 3.091-.063 5.402 2.128 8.305c1.753 2.323 1.559 5.48 1.243 6.769.404.037 1.258-.406 2.223.202.618.389.926 1.055 1.122 1.142 1.358-.778 4.348-2.226 5.451-1.793 1.378.541 1.913 1.422 1.697 3.898-.173 1.981-3.263 3.17-4.786 3.517 1.272 2.543 3.913 8.842 4.305 13.703s-1.915 10.295-3.117 12.405c.307.374.874 1.66.687 3.806s-1.617 2.973-2.308 3.118c.301 3.564.149 12.785-2.861 21.164-3.763 10.474-9.64 10.148-13.865 9.556s2.128-1.054 4.494-2.503 3.736-5.485 4.059-9.199-3.452-9.466-4.062-11.809.189-6.847.422-9.53c.171-1.964 2.361-6.219 3.709-8.591zm0 0l.35-.608a4.41 4.41 0 0 1-.35.608zm-25.542-11.298c-2.469-.431-2.876 2.152-2.56 6.007.395 4.82 2.838 4.834 3.767 10.534s1.449 9.076.668 13.373c-.625 3.437 2.984 7.828 4.867 9.594-.862-2.575-2.205-8.354-.682-10.878 1.904-3.155 2.052-11.877.449-14.519s-5.118-6.705-4.314-8.92c.643-1.772-.064-4.819-2.195-5.191z"/><path d="M237.718 452.304c-.58-5.471 4.235-62.833 3.152-127.047-1.244-9.931-4.4-15.531-8.829-15.453s-7.972 7.126-7.899 11.449l2.687 92.874c.42 10.456-.329 38.374 1.761 46.559s8.555 15.546 16.972 22.873 26.303 11.995 31.395 10.161c4.073-1.467 4.674-7.308 4.465-10.044 2.278.043 8.608 1.243 15.708 5.703s8.267 17.71 7.963 23.778c1.135-.186 3.499-.809 3.872-1.812.467-1.254 2.99-10.766-.861-22.159s-14.459-18.432-20.799-18.32-36.567 1.39-41.986-1.754-7.021-11.337-7.601-16.808z" fill="url(#K)"/></g><defs><linearGradient id="A" x1="223.987" y1="372.86" x2="30.012" y2="372.86" href="#L"><stop stop-color="#bd7b49"/><stop offset="1" stop-color="#3c3024"/></linearGradient><linearGradient id="B" x1="338.492" y1="294.128" x2="28.13" y2="294.128" href="#L"><stop stop-color="#fcf0d6"/><stop offset="1" stop-color="#ffc446"/></linearGradient><linearGradient id="C" x1="224.487" y1="353.6" x2="119.944" y2="353.6" href="#L"><stop stop-color="#3c3024"/><stop offset="1" stop-color="#bd7b49"/></linearGradient><linearGradient id="D" x1="283.031" y1="81.651" x2="88.802" y2="81.651" href="#L"><stop stop-color="#3c3024"/><stop offset="1" stop-color="#bd7b49"/></linearGradient><linearGradient id="E" x1="202.86" y1="176.14" x2="135.609" y2="187.925" href="#L"><stop stop-color="#3c3024"/><stop offset="1" stop-color="#bd7b49"/></linearGradient><linearGradient id="F" x1="44.044" y1="266.652" x2="20.886" y2="264.635" href="#L"><stop stop-color="#fcf0d6"/><stop offset="1" stop-color="#ffc446"/></linearGradient><linearGradient id="G" x1="3.916" y1="264.852" x2="44.801" y2="261.292" href="#L"><stop stop-color="#3c3024"/><stop offset="1" stop-color="#bd7b49"/></linearGradient><linearGradient id="H" x1="104.882" y1="437.878" x2="21.881" y2="439.277" href="#L"><stop stop-color="#fcf0d6"/><stop offset="1" stop-color="#ffc446"/></linearGradient><linearGradient id="I" x1="247.836" y1="239.549" x2="224.678" y2="237.533" href="#L"><stop stop-color="#fcf0d6"/><stop offset="1" stop-color="#ffc446"/></linearGradient><linearGradient id="J" x1="266.503" y1="239.55" x2="225.617" y2="235.99" href="#L"><stop stop-color="#3c3024"/><stop offset="1" stop-color="#bd7b49"/></linearGradient><linearGradient id="K" x1="308.676" y1="410.775" x2="225.675" y2="412.174" href="#L"><stop stop-color="#fcf0d6"/><stop offset="1" stop-color="#ffc446"/></linearGradient><linearGradient id="L" gradientUnits="userSpaceOnUse"/></defs></svg>