<svg width="339" height="384" viewBox="0 0 339 384" fill="none" xmlns="http://www.w3.org/2000/svg">
<path d="M198.204 279.763C197.482 276.692 197.662 273.801 194.591 271.633C187.064 274.584 171.322 279.763 168.576 276.872C165.143 273.259 158.097 264.226 151.232 263.684C144.367 263.142 144.005 269.826 138.405 271.633C132.804 273.44 136.237 278.498 131.359 276.872C126.481 275.246 121.964 278.679 119.977 281.931C117.99 285.183 117.267 285.364 113.292 285.906C109.318 286.448 108.957 287.893 106.969 287.893C104.982 287.893 103.717 284.46 102.091 281.931C100.465 279.402 96.4907 280.847 95.4067 279.582C94.3227 278.318 94.5034 274.162 89.9868 273.259L89.9861 273.259C85.4697 272.356 80.9535 271.452 80.4116 268.02C79.8696 264.587 76.6176 261.697 72.643 262.6C68.6684 263.503 63.7905 259.348 59.2738 258.445C54.7572 257.541 55.8412 264.045 57.1059 267.478C58.3705 270.91 58.5512 271.091 60.7192 273.259C62.8871 275.427 65.5971 273.259 68.6684 276.15C71.7397 279.04 69.5717 281.931 73.9077 284.46C78.2436 286.989 78.9662 284.28 81.3149 285.906C83.6635 287.532 82.0375 287.531 84.0249 292.951C86.0122 298.371 92.5161 296.384 94.142 297.649C95.768 298.913 97.2133 302.346 98.6587 304.875C100.104 307.405 103.537 308.85 100.285 311.56C97.0327 314.27 97.2133 314.812 94.142 316.618C91.0708 318.425 85.2895 316.438 84.0249 318.244C82.7602 320.051 80.7729 322.219 76.2563 320.412C71.7397 318.606 69.5717 323.484 66.6811 322.219C63.7905 320.954 60.5385 319.69 57.1059 323.484C53.6732 327.278 51.6859 326.916 44.64 329.988C37.5941 333.059 41.0267 337.575 42.6527 339.924C44.2787 342.273 55.1186 340.647 57.1059 338.84C59.0932 337.034 60.1772 339.924 64.5131 339.924C68.849 339.924 69.933 336.672 71.3784 335.769C72.8237 334.866 75.353 338.298 80.0502 337.575C84.7475 336.853 87.6381 331.975 93.4194 334.324C99.93 336.969 104.44 334.685 104.259 335.769C104.079 336.853 105.524 340.647 106.969 342.092C108.415 343.537 106.969 344.802 106.969 347.693C106.969 350.583 107.511 351.487 106.969 353.835C106.427 356.184 104.079 354.377 101.188 353.835C98.2973 353.293 95.4067 352.209 94.142 353.835C92.8774 355.461 92.1547 354.919 90.1674 351.487C88.1801 348.054 84.3862 350.041 82.3989 350.041C80.4116 350.041 77.3403 348.957 73.0043 350.041C68.6684 351.125 68.4877 355.1 66.6811 356.907C64.8744 358.713 58.3705 356.545 54.0346 356.907C49.6986 357.268 51.144 366.662 48.7953 367.746C46.4467 368.83 41.3881 365.578 37.2328 370.818C33.0775 376.057 33.0775 383.103 33.0775 386.536C33.0775 389.968 33.0775 398.821 30.9096 403.337C28.7416 407.854 33.0775 416.706 30.9096 421.404C28.7416 426.101 30.9096 437.483 33.0775 441.277C35.2455 445.071 39.2201 448.865 38.8588 455.007C38.4975 461.15 49.1566 466.028 55.4799 468.738C61.8031 471.448 71.7397 474.88 72.8237 476.145C73.9077 477.41 78.9662 478.674 84.0249 478.674C89.0835 478.674 90.7094 478.674 95.5874 482.288C100.465 485.901 106.789 487.527 110.402 487.346C114.015 487.166 131.72 478.674 133.166 478.674C134.611 478.674 141.295 472.893 140.934 471.086C140.573 469.28 149.967 462.776 153.581 459.163C155.749 457.175 161.891 449.587 161.168 444.529C160.446 439.47 165.685 441.277 170.924 441.277C176.164 441.277 179.777 441.277 180.5 444.529C181.222 447.781 178.512 448.865 178.512 451.033C178.512 453.201 184.474 453.923 184.474 456.995C184.474 460.066 182.126 460.247 181.584 462.776C181.042 465.305 186.1 469.822 187.003 472.893C187.907 475.964 193.869 479.216 199.831 478.674C205.793 478.132 207.78 473.977 208.141 468.738C208.503 463.498 212.477 458.079 213.742 453.923C215.007 449.768 216.09 445.251 219.342 441.277C222.594 437.302 217.897 436.58 217.174 433.328C216.452 430.076 223.317 430.798 221.691 427.727C220.065 424.656 220.065 421.765 223.317 417.068C226.569 412.37 217.174 406.589 212.477 402.073C207.78 397.556 196.759 314.45 196.217 310.837C195.675 307.224 205.25 302.527 207.057 299.455C208.864 296.384 205.25 293.313 201.998 291.145C198.746 288.977 201.818 286.989 201.998 284.822C202.179 282.654 198.927 282.834 198.204 279.763Z" fill="url(#paint0_linear_24_9428)" stroke="#F2C78B" stroke-width="0.91191"/>
<path d="M322.321 54.1133C307.868 47.9707 289.621 35.8662 280.046 32.6143C278.059 34.6618 272.928 38.3232 268.303 36.5889C262.521 34.4209 258.547 39.1182 259.089 44.7188C259.631 50.3194 272.639 46.1641 271.374 49.7774C270.109 53.3906 261.076 52.3067 255.476 61.7012C250.995 69.2168 253.609 88.0782 255.476 96.5694C253.91 91.2699 249.875 78.8643 246.262 71.6377C241.745 62.6045 239.035 56.8233 233.073 57.0039C228.304 57.1485 229.761 62.2432 231.086 64.7725C230.423 65.4349 228.954 67.9522 228.376 72.7217C227.798 77.4913 229.942 80.3698 231.086 81.2129C225.666 89.7042 207.889 112.504 180.139 135.774C145.451 164.86 85.6511 169.919 57.6481 173.352C29.6452 176.784 25.8512 175.158 29.1032 186.36C32.3552 197.561 43.9177 192.321 75.5339 190.153C107.15 187.986 126.301 194.309 141.296 209.846C156.291 225.383 159.723 257.541 158.278 289.338C156.833 321.135 151.232 314.812 133.527 367.024C115.822 419.236 111.486 486.985 108.776 504.871C106.066 522.756 105.524 520.588 97.3943 531.248C89.2644 541.907 93.239 546.243 96.3103 545.701C99.3816 545.159 113.835 541.365 124.133 547.688C134.43 554.011 139.85 548.772 142.018 549.314C144.186 549.856 146.896 554.373 148.522 555.457C150.148 556.541 158.097 552.747 159.362 546.785C160.627 540.823 157.555 534.138 154.123 533.958C150.69 533.777 143.464 533.777 133.888 531.248C124.313 528.718 122.868 515.349 125.217 501.257C127.565 487.166 140.754 435.315 145.451 419.597C149.209 407.023 164.601 379.309 171.828 367.024C176.766 378.165 186.931 407.095 188.088 433.689C189.533 466.931 189.172 506.135 188.088 519.324C187.004 532.512 179.958 533.596 177.971 538.655C175.983 543.713 176.706 549.675 185.739 548.411C194.772 547.146 203.806 546.785 213.019 546.785C222.233 546.785 226.389 545.881 233.073 549.675C239.758 553.469 244.094 542.81 240.48 533.596C236.867 524.382 227.473 528.718 222.414 530.344C217.355 531.97 207.961 533.777 202.18 519.324C196.398 504.871 213.019 428.811 211.935 406.409C210.851 384.006 192.243 275.246 194.592 255.554C196.94 235.862 200.012 227.732 205.793 211.653C211.574 195.573 209.587 178.591 214.826 173.894C220.065 169.196 231.266 170.461 241.384 164.138C251.501 157.815 245.358 149.323 241.384 148.239C238.204 147.372 211.393 149.564 198.386 150.769C204.107 144.084 219.307 127.608 234.338 115.178C253.127 99.6407 267.219 103.615 278.781 103.254C290.344 102.893 295.944 99.2794 301.003 95.4854C305.05 92.4503 304.134 88.0782 303.171 86.2715C304.556 86.0307 307.471 84.9346 308.049 82.4776C308.627 80.0206 305.399 79.5267 303.713 79.587C304.616 78.4428 307.001 75.9375 309.313 75.0704C312.204 73.9864 314.914 75.9737 319.25 71.0957C322.719 67.1934 319.732 63.6885 317.805 62.4239C321.538 63.5078 330.343 65.2784 335.691 63.6885C342.375 61.7012 336.774 60.2559 322.321 54.1133Z" fill="url(#paint1_linear_24_9428)" stroke="#F2C78B" stroke-width="0.91191"/>
<path d="M190.437 300.178C194.231 301.623 202.541 299.455 206.877 298.733C210.705 298.095 202.505 306.104 200.915 306.682C198.928 307.405 200.735 311.198 203.806 314.45C206.877 317.702 212.658 318.606 215.73 323.845C218.801 329.084 213.2 342.815 213.923 344.983C214.646 347.151 219.524 350.041 219.524 352.751C219.524 355.461 218.982 361.604 219.524 365.036C220.066 368.469 222.956 369.914 222.776 373.889C222.595 377.864 217.717 378.586 215.73 383.464C213.743 388.342 216.633 395.569 217.717 396.653C218.801 397.737 225.305 399.001 224.402 404.241C223.498 409.48 209.768 408.757 208.684 410.202C207.6 411.648 204.167 414.538 199.831 415.442C195.495 416.345 195.676 422.668 192.966 424.294C190.256 425.92 177.429 422.307 177.429 418.332C177.429 414.358 178.694 409.841 178.694 408.757C178.694 407.673 179.416 401.169 178.694 399.001C177.971 396.833 178.513 389.607 177.429 389.607C176.345 389.607 175.261 387.439 172.009 389.607C168.757 391.775 157.917 394.846 156.291 397.737C154.665 400.627 147.439 400.627 146.897 401.169C146.355 401.711 143.464 409.119 139.67 412.19C136.635 414.647 134.069 409.239 133.166 406.228C129.673 406.409 122.326 406.842 120.881 407.131C119.074 407.493 120.339 399.905 120.881 397.737C121.423 395.569 123.41 388.523 122.688 387.439C121.965 386.355 125.759 377.502 126.843 374.25C127.927 370.998 127.927 367.385 128.469 364.314C129.011 361.242 129.011 361.604 129.372 359.978C129.734 358.352 133.708 351.125 133.166 347.873C132.733 345.272 140.212 330.77 144.006 323.845C144.608 322.58 145.74 319.112 145.451 315.354C145.09 310.656 151.233 305.779 150.51 307.766C149.787 309.753 147.258 316.076 153.401 317.702C159.543 319.328 161.53 303.611 163.698 298.732C165.866 293.854 168.576 292.771 171.106 285.725C173.635 278.679 180.139 285.725 180.139 283.557C180.139 281.389 185.559 283.195 188.269 286.989C190.979 290.783 186.643 298.732 190.437 300.178Z" fill="url(#paint2_linear_24_9428)" stroke="#F2C78B" stroke-width="0.91191"/>
<path d="M244.274 68.3858C248.176 75.0343 253.608 89.8247 255.836 96.3888C254.752 87.1749 253.524 67.1934 257.282 60.9786C261.979 53.21 268.663 53.5713 272.277 51.9454C275.89 50.3194 274.806 45.6221 272.819 46.1641C270.831 46.7061 265.953 46.7061 262.701 45.6221C259.45 44.5381 260.353 38.3955 265.953 38.0342C271.554 37.6729 272.096 42.1895 274.806 41.8282C277.516 41.4668 279.323 36.9502 282.213 34.6016C285.104 32.253 279.684 28.6397 276.071 25.749C272.457 22.8584 268.844 23.5811 265.411 21.7744C261.979 19.9678 251.862 18.3418 247.706 18.3418C243.551 18.3418 237.047 13.8252 232.35 13.6445C227.653 13.4639 224.22 14.0059 221.149 14.5479C218.077 15.0899 211.754 15.0899 209.405 16.1738C207.057 17.2578 203.986 20.3291 202.721 21.4131C201.456 22.4971 197.662 24.4844 196.036 27.0137C194.736 29.0371 194.651 30.7474 194.772 31.3496C193.507 31.6507 189.785 32.4698 185.016 33.3369C180.246 34.2041 176.645 36.5889 175.441 37.6729C176.284 37.6729 178.982 38.0342 183.029 39.4795C188.087 41.2862 188.087 47.9707 184.293 49.5967C180.499 51.2227 177.97 44.1768 170.924 41.6475C163.878 39.1182 159.903 42.1895 159.903 44.1768C159.903 46.1641 164.962 43.6348 168.395 51.042C171.141 56.9678 167.853 63.6283 165.865 66.2178C164.239 66.4587 160.626 67.085 159.181 67.6632C157.374 68.3858 153.4 68.0245 151.051 67.6632C148.702 67.3018 143.644 68.2051 142.018 68.7471C140.392 69.2891 136.959 67.4825 133.526 66.2178C130.094 64.9532 127.023 65.6758 125.216 64.2305C123.409 62.7852 121.241 57.3653 119.254 54.6553C117.267 51.9454 112.75 49.4161 112.027 45.8028C111.305 42.1895 114.557 35.3243 115.821 31.711C117.086 28.0977 124.132 18.7031 136.959 14.7285C149.786 10.7539 160.265 24.3037 159.903 28.2783C159.542 32.253 158.278 37.3116 162.433 38.3955C166.588 39.4795 169.479 36.5889 170.924 28.2783C172.369 19.9678 165.504 9.48927 156.29 5.33399C147.076 1.17871 138.946 0.456055 129.913 0.456055C120.88 0.456055 113.473 5.87598 112.027 7.50196C110.582 9.12794 104.078 13.2832 101.368 16.3545C98.6583 19.4258 95.9483 25.3877 96.129 28.0977C96.3097 30.8076 90.8897 36.2276 89.4444 42.7315C87.9991 49.2354 89.4444 51.7647 89.4444 54.6553C89.4444 57.546 89.0831 65.3145 89.4444 69.8311C89.8057 74.3477 95.7677 80.129 97.5743 82.839C99.381 85.5489 103.536 92.7755 107.15 95.8468C110.763 98.9181 118.893 101.628 122.325 104.157C125.758 106.687 131.539 109.939 135.514 112.287C139.488 114.636 149.425 112.649 152.858 115.539C155.604 117.852 162.794 118.189 166.046 118.068C165.263 119.152 160.843 122.983 149.425 129.631C135.152 137.942 123.048 142.277 111.485 139.026C99.9229 135.774 102.814 126.379 106.427 124.03C110.04 121.682 100.104 113.371 95.7677 130.896C91.4317 148.42 107.872 158.537 119.435 162.331C130.997 166.125 166.227 148.239 187.184 130.896C203.949 117.021 224.401 91.9926 232.531 81.213C231.868 80.9119 230.399 79.1534 229.821 74.5284C229.242 69.9034 230.905 66.5792 231.808 65.4952C230.664 63.5079 229.206 59.2081 232.531 57.9073C236.686 56.2813 239.396 60.0753 244.274 68.3858Z" fill="url(#paint3_linear_24_9428)" stroke="#F2C78B" stroke-width="0.91191"/>
<path d="M186.09 185.186C196.086 184.793 195.672 176.904 194.192 176.193C193.45 175.836 192.884 176.461 192.159 176.743C191.253 177.096 189.994 176.54 190.172 175.343C190.233 174.931 190.44 174.563 190.755 174.252C190.138 174.043 188.806 173.291 188.418 171.961C187.933 170.299 188.354 168.283 189.206 165.415C189.888 163.121 196.98 154.898 196.616 152.825L198.385 150.768C199.609 154.437 192.669 162.136 191.792 163.603C189.847 166.856 189.148 169.503 189.887 171.51C190.478 173.115 192.526 173.313 193.476 173.211C195.199 173.103 197.308 174.093 197.527 177.55C197.746 181.007 194.96 184.991 194.219 186.286C193.478 187.58 187.311 192.156 182.856 198.763C179.291 204.048 178.104 207.363 177.956 208.36C175.612 206.764 169.695 202.972 164.784 200.57C158.644 197.568 157.65 198.519 154.259 197.948C150.868 197.377 144.397 195.793 144.942 190.066C145.022 189.224 145.151 188.566 145.311 188.059C145.428 186.615 145.386 183.425 144.288 182.219C142.915 180.712 139.944 181.427 138.276 180.748C136.609 180.069 134.114 177.982 134.37 175.024C134.626 172.067 137.946 165.582 136.778 163.595C135.611 161.608 132.304 161.702 130.997 161.608C131.546 161.058 133.377 160.34 134.004 160.386C134.788 160.443 137.958 160.858 138.73 163.053C139.502 165.248 136.105 172.778 136.248 174.695C136.39 176.612 137.03 178.054 138.73 178.921C140.431 179.788 142.773 178.795 144.506 179.85C146.24 180.906 146.372 181.66 146.824 183.134C147.185 184.313 147.173 186.005 147.121 186.704C147.619 186.997 147.934 187.673 147.682 188.032C147.063 188.918 146.609 190.745 148.475 192.554C150.34 194.363 155.091 192.754 164.118 189.036C173.144 185.318 176.093 185.578 186.09 185.186Z" fill="url(#paint4_linear_24_9428)" stroke="#F2C78B" stroke-width="0.91191"/>
<path d="M41.898 230.426C43.4284 214.726 45.357 192.192 45.4143 181.412C45.4428 176.035 36.6152 175.283 31.9923 177.855C26.43 180.949 28.0272 185.843 27.9389 193.895C27.4295 240.355 23.7397 309.607 23.4632 312.783C23.3535 314.043 22.2645 321.916 20.4365 345.704C20.712 352.058 23.5273 354.52 27.9389 354.921C32.3505 355.321 36.6567 351.492 36.6567 351.492C36.6567 351.492 40.1324 273.199 41.898 230.426Z" fill="url(#paint5_linear_24_9428)" stroke="#F2C78B" stroke-width="0.91191"/>
<path d="M13.5484 237.502C13.2326 236.213 13.039 233.055 14.7918 230.733C16.9827 227.83 18.3654 225.001 16.9195 222.428C15.4737 219.855 16.4164 216.65 18.8904 219.337C21.3645 222.024 25.4864 227.266 25.6797 231.824C25.8343 235.471 25.4031 238.782 25.1682 239.982C26.4164 240.285 28.9524 241.344 29.1105 243.16C29.2686 244.976 28.3264 246.629 27.8356 247.228C28.099 247.135 28.967 247.125 30.332 247.833C31.6969 248.541 34.3759 249.06 35.5448 249.231C34.5271 250.017 32.1173 251.498 30.6195 251.135C29.1216 250.772 27.6093 250.681 26.5751 250.497L25.5787 272.358C24.0297 272.498 21.3893 272.357 19.2341 270.057C17.7144 268.435 16.8287 267.272 16.3786 266.587C17.7263 268.96 19.9164 273.215 20.0874 275.179C20.321 277.862 21.1204 282.365 20.5099 284.709C19.8994 287.052 16.1237 292.803 16.4472 296.517C16.7706 300.232 18.1402 304.267 20.5064 305.716C22.8727 307.165 29.2258 307.628 25.0009 308.22C20.776 308.812 14.8988 309.138 11.1358 298.664C8.1254 290.285 7.97409 281.063 8.27474 277.5C7.58328 277.355 6.15365 276.528 5.96677 274.382C5.77989 272.236 6.34674 270.95 6.65353 270.576C5.45165 268.466 3.1457 263.032 3.53698 258.171C3.92826 253.31 6.57005 247.01 7.84204 244.468C6.31848 244.121 3.22824 242.932 3.05573 240.951C2.8401 238.475 3.37447 237.594 4.75275 237.053C5.85537 236.62 8.84596 238.068 10.2034 238.846C10.3995 238.759 10.708 238.093 11.3258 237.704C12.2911 237.096 13.1443 237.539 13.5484 237.502Z" fill="url(#paint6_linear_24_9428)"/>
<path d="M41.9209 255.29C44.3901 254.859 44.7963 257.441 44.4804 261.297C44.0856 266.117 41.6431 266.131 40.714 271.831C39.7848 277.531 39.2642 280.907 40.0456 285.204C40.6708 288.641 37.0617 293.032 35.1791 294.797C36.041 292.223 37.3841 286.444 35.861 283.92C33.9571 280.765 33.8085 272.042 35.4113 269.401C37.014 266.759 40.5295 262.696 39.7257 260.481C39.0826 258.709 39.7897 255.662 41.9209 255.29Z" fill="url(#paint7_linear_24_9428)"/>
<path d="M16.3786 266.587C16.8287 267.272 17.7144 268.435 19.2341 270.057C21.3893 272.357 24.0297 272.498 25.5787 272.358L26.5751 250.497C27.6093 250.681 29.1216 250.772 30.6195 251.135C32.1173 251.498 34.5271 250.017 35.5448 249.231C34.3759 249.06 31.6969 248.541 30.332 247.833C28.967 247.125 28.099 247.135 27.8356 247.228C28.3264 246.629 29.2686 244.976 29.1105 243.16C28.9524 241.344 26.4164 240.285 25.1682 239.982C25.4031 238.782 25.8343 235.471 25.6797 231.824C25.4864 227.266 21.3645 222.024 18.8904 219.337C16.4164 216.65 15.4737 219.855 16.9195 222.428C18.3654 225.001 16.9827 227.83 14.7918 230.733C13.039 233.055 13.2326 236.213 13.5484 237.502C13.1443 237.539 12.2911 237.096 11.3258 237.704C10.708 238.093 10.3995 238.759 10.2034 238.846C8.84596 238.068 5.85537 236.62 4.75275 237.053C3.37447 237.594 2.8401 238.475 3.05573 240.951C3.22824 242.932 6.31848 244.121 7.84204 244.468C6.57005 247.01 3.92826 253.31 3.53698 258.171C3.1457 263.032 5.45165 268.466 6.65353 270.576C6.34674 270.95 5.77989 272.236 5.96677 274.382C6.15365 276.528 7.58328 277.355 8.27474 277.5C7.97409 281.063 8.1254 290.285 11.1358 298.664C14.8988 309.138 20.776 308.812 25.0009 308.22C29.2258 307.628 22.8727 307.165 20.5064 305.716C18.1402 304.267 16.7706 300.232 16.4472 296.517C16.1237 292.803 19.8994 287.052 20.5099 284.709C21.1204 282.365 20.321 277.862 20.0874 275.179C19.9164 273.215 17.7263 268.96 16.3786 266.587ZM16.3786 266.587C16.2538 266.368 16.1362 266.164 16.0281 265.98C16.0785 266.098 16.1905 266.301 16.3786 266.587ZM41.9209 255.29C44.3901 254.859 44.7963 257.441 44.4804 261.297C44.0856 266.117 41.6431 266.131 40.714 271.831C39.7848 277.531 39.2642 280.907 40.0456 285.204C40.6708 288.641 37.0617 293.032 35.1791 294.797C36.041 292.223 37.3841 286.444 35.861 283.92C33.9571 280.765 33.8085 272.042 35.4113 269.401C37.014 266.759 40.5295 262.696 39.7257 260.481C39.0826 258.709 39.7897 255.662 41.9209 255.29Z" stroke="#F2C78B" stroke-width="0.91191"/>
<path d="M33.9243 479.406C33.3442 473.935 38.1595 416.574 37.0771 352.36C35.8322 342.428 32.6762 336.828 28.2478 336.906C23.8195 336.984 20.2758 344.033 20.3487 348.356C21.7358 399.692 22.7487 434.089 23.0356 441.229C23.4558 451.686 22.7067 479.604 24.7962 487.789C26.8856 495.974 33.3519 503.335 41.7691 510.661C50.1862 517.988 68.0719 522.656 73.1636 520.822C77.2369 519.356 77.8377 513.515 77.6289 510.778C79.9064 510.821 86.2363 512.022 93.3367 516.481C100.437 520.941 101.604 534.192 101.299 540.26C102.435 540.073 104.798 539.451 105.172 538.447C105.638 537.193 108.161 527.681 104.31 516.288C100.459 504.895 89.8516 497.857 83.5113 497.968C77.171 498.08 46.945 499.359 41.5255 496.215C36.1061 493.071 34.5043 484.878 33.9243 479.406Z" fill="url(#paint8_linear_24_9428)" stroke="#F2C78B" stroke-width="0.91191"/>
<path d="M245.689 203.323C247.22 187.623 249.148 165.09 249.206 154.309C249.234 148.932 240.407 148.18 235.784 150.752C230.222 153.846 231.819 158.74 231.73 166.792C231.221 213.252 227.531 282.505 227.255 285.681C227.145 286.94 226.056 294.814 224.228 318.602C224.504 324.956 227.319 327.417 231.73 327.818C236.142 328.219 240.448 324.39 240.448 324.39C240.448 324.39 243.924 246.096 245.689 203.323Z" fill="url(#paint9_linear_24_9428)" stroke="#F2C78B" stroke-width="0.91191"/>
<path d="M256.87 212.2C257.186 210.911 257.38 207.754 255.627 205.431C253.436 202.528 252.053 199.699 253.499 197.126C254.945 194.554 254.002 191.348 251.528 194.035C249.054 196.722 244.932 201.964 244.739 206.522C244.584 210.169 245.016 213.48 245.25 214.68C244.002 214.983 241.466 216.042 241.308 217.858C241.15 219.674 242.092 221.327 242.583 221.926C242.32 221.833 241.452 221.823 240.087 222.531C238.722 223.239 236.043 223.759 234.874 223.93C235.892 224.715 238.301 226.196 239.799 225.833C241.297 225.47 243.74 225.012 244.774 224.829L243.844 247.208C245.393 247.349 249.029 247.055 251.185 244.755C252.704 243.133 253.59 241.971 254.04 241.286C252.692 243.658 250.502 247.913 250.331 249.877C250.098 252.56 249.298 257.063 249.909 259.407C250.519 261.75 254.295 267.501 253.971 271.216C253.648 274.93 252.278 278.966 249.912 280.415C247.546 281.864 241.193 282.327 245.418 282.918C249.643 283.51 255.52 283.836 259.283 273.362C262.293 264.983 262.445 255.762 262.144 252.198C262.835 252.053 264.265 251.226 264.452 249.08C264.639 246.934 264.072 245.648 263.765 245.274C264.967 243.164 267.273 237.73 266.882 232.869C266.49 228.008 263.849 221.709 262.577 219.166C264.1 218.819 267.19 217.63 267.363 215.649C267.579 213.173 267.044 212.292 265.666 211.751C264.563 211.318 261.573 212.766 260.215 213.544C260.019 213.457 259.711 212.791 259.093 212.402C258.128 211.794 257.274 212.237 256.87 212.2Z" fill="url(#paint10_linear_24_9428)"/>
<path d="M228.498 229.988C226.029 229.557 225.622 232.14 225.938 235.995C226.333 240.815 228.776 240.829 229.705 246.529C230.634 252.23 231.154 255.605 230.373 259.902C229.748 263.339 233.357 267.73 235.24 269.496C234.378 266.921 233.035 261.142 234.558 258.618C236.461 255.463 236.61 246.741 235.007 244.099C233.405 241.458 229.889 237.394 230.693 235.179C231.336 233.407 230.629 230.36 228.498 229.988Z" fill="url(#paint11_linear_24_9428)"/>
<path d="M254.04 241.286C253.59 241.971 252.704 243.133 251.185 244.755C249.029 247.055 245.393 247.349 243.844 247.208L244.774 224.829C243.74 225.012 241.297 225.47 239.799 225.833C238.301 226.196 235.892 224.715 234.874 223.93C236.043 223.759 238.722 223.239 240.087 222.531C241.452 221.823 242.32 221.833 242.583 221.926C242.092 221.327 241.15 219.674 241.308 217.858C241.466 216.042 244.002 214.983 245.25 214.68C245.016 213.48 244.584 210.169 244.739 206.522C244.932 201.964 249.054 196.722 251.528 194.035C254.002 191.348 254.945 194.554 253.499 197.126C252.053 199.699 253.436 202.528 255.627 205.431C257.38 207.754 257.186 210.911 256.87 212.2C257.274 212.237 258.128 211.794 259.093 212.402C259.711 212.791 260.019 213.457 260.215 213.544C261.573 212.766 264.563 211.318 265.666 211.751C267.044 212.292 267.579 213.173 267.363 215.649C267.19 217.63 264.1 218.819 262.577 219.166C263.849 221.709 266.49 228.008 266.882 232.869C267.273 237.73 264.967 243.164 263.765 245.274C264.072 245.648 264.639 246.934 264.452 249.08C264.265 251.226 262.835 252.053 262.144 252.198C262.445 255.762 262.293 264.983 259.283 273.362C255.52 283.836 249.643 283.51 245.418 282.918C241.193 282.327 247.546 281.864 249.912 280.415C252.278 278.966 253.648 274.93 253.971 271.216C254.295 267.501 250.519 261.75 249.909 259.407C249.298 257.063 250.098 252.56 250.331 249.877C250.502 247.913 252.692 243.658 254.04 241.286ZM254.04 241.286C254.165 241.066 254.282 240.862 254.39 240.678C254.34 240.796 254.228 240.999 254.04 241.286ZM228.498 229.988C226.029 229.557 225.622 232.14 225.938 235.995C226.333 240.815 228.776 240.829 229.705 246.529C230.634 252.23 231.154 255.605 230.373 259.902C229.748 263.339 233.357 267.73 235.24 269.496C234.378 266.921 233.035 261.142 234.558 258.618C236.462 255.463 236.61 246.741 235.007 244.099C233.405 241.458 229.889 237.394 230.693 235.179C231.336 233.407 230.629 230.36 228.498 229.988Z" stroke="#F2C78B" stroke-width="0.91191"/>
<path d="M237.718 452.304C237.138 446.833 241.953 389.471 240.87 325.257C239.626 315.326 236.47 309.726 232.041 309.804C227.613 309.882 224.069 316.93 224.142 321.253C225.529 372.59 226.542 406.987 226.829 414.127C227.249 424.583 226.5 452.501 228.59 460.686C230.679 468.871 237.145 476.232 245.562 483.559C253.98 490.885 271.865 495.554 276.957 493.72C281.03 492.253 281.631 486.412 281.422 483.676C283.7 483.719 290.03 484.919 297.13 489.379C304.23 493.838 305.397 507.089 305.093 513.157C306.228 512.971 308.592 512.348 308.965 511.345C309.432 510.091 311.955 500.579 308.104 489.186C304.253 477.793 293.645 470.754 287.305 470.866C280.964 470.977 250.738 472.256 245.319 469.112C239.899 465.969 238.298 457.775 237.718 452.304Z" fill="url(#paint12_linear_24_9428)" stroke="#F2C78B" stroke-width="0.91191"/>
<defs>
<linearGradient id="paint0_linear_24_9428" x1="223.987" y1="372.86" x2="30.0116" y2="372.86" gradientUnits="userSpaceOnUse">
<stop stop-color="#BD7B49"/>
<stop offset="1" stop-color="#3C3024"/>
</linearGradient>
<linearGradient id="paint1_linear_24_9428" x1="338.492" y1="294.128" x2="28.1302" y2="294.128" gradientUnits="userSpaceOnUse">
<stop stop-color="#FCF0D6"/>
<stop offset="1" stop-color="#FFC446"/>
</linearGradient>
<linearGradient id="paint2_linear_24_9428" x1="224.487" y1="353.6" x2="119.944" y2="353.6" gradientUnits="userSpaceOnUse">
<stop stop-color="#3C3024"/>
<stop offset="1" stop-color="#BD7B49"/>
</linearGradient>
<linearGradient id="paint3_linear_24_9428" x1="283.031" y1="81.6506" x2="88.8021" y2="81.6506" gradientUnits="userSpaceOnUse">
<stop stop-color="#3C3024"/>
<stop offset="1" stop-color="#BD7B49"/>
</linearGradient>
<linearGradient id="paint4_linear_24_9428" x1="202.86" y1="176.14" x2="135.609" y2="187.925" gradientUnits="userSpaceOnUse">
<stop stop-color="#3C3024"/>
<stop offset="1" stop-color="#BD7B49"/>
</linearGradient>
<linearGradient id="paint5_linear_24_9428" x1="44.0443" y1="266.652" x2="20.8863" y2="264.635" gradientUnits="userSpaceOnUse">
<stop stop-color="#FCF0D6"/>
<stop offset="1" stop-color="#FFC446"/>
</linearGradient>
<linearGradient id="paint6_linear_24_9428" x1="3.91573" y1="264.852" x2="44.8014" y2="261.292" gradientUnits="userSpaceOnUse">
<stop stop-color="#3C3024"/>
<stop offset="1" stop-color="#BD7B49"/>
</linearGradient>
<linearGradient id="paint7_linear_24_9428" x1="3.91573" y1="264.852" x2="44.8014" y2="261.292" gradientUnits="userSpaceOnUse">
<stop stop-color="#3C3024"/>
<stop offset="1" stop-color="#BD7B49"/>
</linearGradient>
<linearGradient id="paint8_linear_24_9428" x1="104.882" y1="437.878" x2="21.8813" y2="439.277" gradientUnits="userSpaceOnUse">
<stop stop-color="#FCF0D6"/>
<stop offset="1" stop-color="#FFC446"/>
</linearGradient>
<linearGradient id="paint9_linear_24_9428" x1="247.836" y1="239.549" x2="224.678" y2="237.533" gradientUnits="userSpaceOnUse">
<stop stop-color="#FCF0D6"/>
<stop offset="1" stop-color="#FFC446"/>
</linearGradient>
<linearGradient id="paint10_linear_24_9428" x1="266.503" y1="239.55" x2="225.617" y2="235.99" gradientUnits="userSpaceOnUse">
<stop stop-color="#3C3024"/>
<stop offset="1" stop-color="#BD7B49"/>
</linearGradient>
<linearGradient id="paint11_linear_24_9428" x1="266.503" y1="239.55" x2="225.617" y2="235.99" gradientUnits="userSpaceOnUse">
<stop stop-color="#3C3024"/>
<stop offset="1" stop-color="#BD7B49"/>
</linearGradient>
<linearGradient id="paint12_linear_24_9428" x1="308.676" y1="410.775" x2="225.675" y2="412.174" gradientUnits="userSpaceOnUse">
<stop stop-color="#FCF0D6"/>
<stop offset="1" stop-color="#FFC446"/>
</linearGradient>
</defs>
</svg>
