<svg xmlns="http://www.w3.org/2000/svg" width="339" height="384" fill="none" viewBox="0 0 339 384"><path fill="url(#a)" stroke="#f2c78b" stroke-width=".91" d="M198.2 279.76c-.72-3.07-.54-5.96-3.61-8.13-7.53 2.95-23.27 8.13-26.01 5.24-3.44-3.61-10.48-12.64-17.35-13.19-6.86-.54-7.23 6.15-12.82 7.95-5.61 1.81-2.17 6.87-7.05 5.24-4.88-1.62-9.4 1.81-11.38 5.06-1.99 3.25-2.71 3.43-6.69 3.98-3.97.54-4.33 1.98-6.32 1.98s-3.25-3.43-4.88-5.96c-1.62-2.53-5.6-1.08-6.68-2.35-1.09-1.26-.91-5.42-5.42-6.32-4.52-.9-9.04-1.81-9.58-5.24s-3.79-6.32-7.77-5.42c-3.97.9-8.85-3.25-13.37-4.16-4.51-.9-3.43 5.61-2.16 9.04 1.26 3.43 1.44 3.61 3.61 5.78s4.88 0 7.95 2.89.9 5.78 5.24 8.31c4.33 2.53 5.06-.18 7.4 1.45 2.35 1.62.73 1.62 2.71 7.04 1.99 5.42 8.5 3.43 10.12 4.7 1.63 1.26 3.07 4.7 4.52 7.23 1.44 2.52 4.88 3.97 1.62 6.68-3.25 2.71-3.07 3.25-6.14 5.06s-8.85-.18-10.12 1.62c-1.26 1.81-3.25 3.98-7.76 2.17-4.52-1.8-6.69 3.07-9.58 1.81-2.89-1.27-6.14-2.53-9.57 1.26-3.44 3.8-5.42 3.44-12.47 6.51s-3.61 7.58-1.99 9.93c1.63 2.35 12.47.73 14.46-1.08 1.98-1.81 3.07 1.08 7.4 1.08 4.34 0 5.42-3.25 6.87-4.15 1.44-.9 3.97 2.53 8.67 1.8 4.7-.72 7.59-5.59 13.37-3.25 6.51 2.65 11.02.37 10.84 1.45s1.26 4.88 2.71 6.32c1.45 1.45 0 2.71 0 5.6s.54 3.8 0 6.14c-.54 2.35-2.89.55-5.78 0-2.89-.54-5.78-1.62-7.05 0-1.26 1.63-1.99 1.09-3.97-2.34-1.99-3.44-5.78-1.45-7.77-1.45s-5.06-1.08-9.4 0c-4.33 1.09-4.51 5.06-6.32 6.87-1.81 1.8-8.31-.36-12.65 0-4.33.36-2.89 9.75-5.23 10.84-2.35 1.08-7.41-2.17-11.57 3.07-4.15 5.24-4.15 12.28-4.15 15.72 0 3.43 0 12.28-2.17 16.8-2.17 4.51 2.17 13.37 0 18.06-2.17 4.7 0 16.08 2.17 19.88 2.17 3.79 6.14 7.59 5.78 13.73s10.3 11.02 16.62 13.73 16.26 6.14 17.34 7.4c1.09 1.27 6.15 2.53 11.2 2.53 5.06 0 6.69 0 11.57 3.62 4.88 3.61 11.2 5.24 14.81 5.06 3.62-.18 21.32-8.68 22.77-8.68 1.44 0 8.12-5.78 7.76-7.58-.36-1.81 9.04-8.31 12.65-11.93 2.17-1.98 8.31-9.57 7.59-14.63s4.52-3.25 9.75-3.25c5.24 0 8.86 0 9.58 3.25s-1.99 4.34-1.99 6.5c0 2.17 5.96 2.89 5.96 5.97 0 3.07-2.34 3.25-2.89 5.78-.54 2.53 4.52 7.04 5.42 10.11.91 3.07 6.87 6.33 12.83 5.78 5.96-.54 7.95-4.69 8.31-9.93s4.34-10.66 5.6-14.82c1.27-4.15 2.35-8.67 5.6-12.64 3.25-3.98-1.44-4.7-2.17-7.95-.72-3.25 6.15-2.53 4.52-5.6s-1.63-5.97 1.63-10.66c3.25-4.7-6.15-10.48-10.84-15-4.7-4.51-15.72-87.62-16.26-91.23-.54-3.62 9.03-8.31 10.84-11.39 1.8-3.07-1.81-6.14-5.06-8.31-3.25-2.16-.18-4.15 0-6.32s-3.07-1.99-3.8-5.06Z"/><path fill="url(#b)" stroke="#f2c78b" stroke-width=".91" d="M322.32 54.11c-14.45-6.14-32.7-18.24-42.27-21.5-1.99 2.05-7.12 5.71-11.75 3.98-5.78-2.17-9.75 2.53-9.21 8.13s13.55 1.44 12.28 5.06c-1.26 3.61-10.29 2.53-15.89 11.92-4.48 7.52-1.87 26.38 0 34.87-1.57-5.3-5.6-17.71-9.22-24.93-4.51-9.04-7.23-14.82-13.19-14.64-4.77.15-3.31 5.24-1.98 7.77-.67.66-2.14 3.18-2.71 7.95-.58 4.77 1.56 7.65 2.71 8.49-5.42 8.49-23.2 31.29-50.95 54.56-34.69 29.09-94.49 34.15-122.49 37.58s-31.8 1.81-28.55 13.01c3.26 11.2 14.82 5.96 46.43 3.79 31.62-2.16 50.77 4.16 65.77 19.7 14.99 15.53 18.42 47.69 16.98 79.49-1.45 31.79-7.05 25.47-24.75 77.68-17.71 52.22-22.04 119.97-24.75 137.85-2.71 17.89-3.26 15.72-11.39 26.38s-4.15 14.99-1.08 14.45 17.52-4.33 27.82 1.99 15.72 1.08 17.89 1.62c2.17.55 4.88 5.06 6.5 6.15 1.63 1.08 9.58-2.71 10.84-8.68 1.27-5.96-1.8-12.64-5.24-12.82-3.43-.18-10.66-.18-20.23-2.71-9.58-2.53-11.02-15.9-8.67-29.99 2.34-14.09 15.53-65.95 20.23-81.66 3.76-12.58 19.15-40.29 26.38-52.58 4.94 11.15 15.1 40.08 16.26 66.67 1.44 33.24 1.08 72.44 0 85.63-1.09 13.19-8.13 14.28-10.12 19.33-1.99 5.06-1.26 11.02 7.77 9.76s18.07-1.63 27.28-1.63 13.37-.9 20.05 2.89c6.69 3.8 11.02-6.86 7.41-16.07-3.61-9.22-13.01-4.88-18.07-3.26-5.06 1.63-14.45 3.44-20.23-11.02-5.78-14.45 10.84-90.51 9.76-112.91-1.09-22.4-19.7-131.16-17.35-150.86 2.35-19.69 5.42-27.82 11.2-43.9s3.8-33.06 9.04-37.76c5.23-4.69 16.44-3.43 26.55-9.75 10.12-6.33 3.98-14.82 0-15.9-3.18-.87-29.99 1.32-42.99 2.53 5.72-6.69 20.92-23.16 35.95-35.59 18.79-15.54 32.88-11.57 44.44-11.93s17.16-3.97 22.22-7.76c4.05-3.04 3.13-7.41 2.17-9.22 1.39-.24 4.3-1.34 4.88-3.79.58-2.46-2.65-2.95-4.34-2.89.91-1.15 3.29-3.65 5.6-4.52 2.89-1.08 5.6.9 9.94-3.97 3.47-3.91.48-7.41-1.44-8.68 3.73 1.09 12.53 2.86 17.88 1.27 6.69-1.99 1.08-3.43-13.37-9.58Z"/><path fill="url(#c)" stroke="#f2c78b" stroke-width=".91" d="M190.44 300.18c3.79 1.44 12.1-.73 16.44-1.45 3.83-.63-4.38 7.37-5.97 7.95-1.98.72-.17 4.52 2.9 7.77s8.85 4.16 11.92 9.4c3.07 5.23-2.53 18.96-1.81 21.13.73 2.17 5.6 5.06 5.6 7.77s-.54 8.85 0 12.29c.55 3.43 3.44 4.87 3.26 8.85-.19 3.97-5.06 4.7-7.05 9.57-1.99 4.88.9 12.11 1.99 13.19 1.08 1.09 7.59 2.35 6.68 7.59-.9 5.24-14.63 4.52-15.72 5.96-1.08 1.45-4.51 4.34-8.85 5.24-4.33.91-4.15 7.23-6.86 8.85-2.71 1.63-15.54-1.98-15.54-5.96 0-3.97 1.26-8.49 1.26-9.57 0-1.09.73-7.59 0-9.76-.72-2.17-.18-9.39-1.26-9.39-1.09 0-2.17-2.17-5.42 0-3.25 2.16-14.09 5.24-15.72 8.13s-8.85 2.89-9.39 3.43c-.55.54-3.44 7.95-7.23 11.02-3.04 2.46-5.6-2.95-6.5-5.96-3.5.18-10.84.61-12.29.9-1.81.36-.54-7.23 0-9.39.54-2.17 2.53-9.22 1.81-10.3s3.07-9.94 4.15-13.19c1.09-3.25 1.09-6.87 1.63-9.94s.54-2.71.9-4.33c.36-1.63 4.34-8.85 3.8-12.11-.44-2.6 7.04-17.1 10.84-24.02.6-1.27 1.73-4.74 1.44-8.5-.36-4.69 5.78-9.57 5.06-7.58-.72 1.98-3.25 8.31 2.89 9.93 6.14 1.63 8.13-14.09 10.3-18.97s4.88-5.96 7.41-13c2.52-7.05 9.03 0 9.03-2.17s5.42-.37 8.13 3.43c2.71 3.79-1.63 11.74 2.17 13.19Z"/><path fill="url(#d)" stroke="#f2c78b" stroke-width=".91" d="M244.27 68.39c3.91 6.64 9.34 21.43 11.57 28-1.09-9.22-2.32-29.2 1.44-35.41 4.7-7.77 11.38-7.41 15-9.03 3.61-1.63 2.53-6.33.54-5.79-1.99.55-6.87.55-10.12-.54-3.25-1.08-2.35-7.22 3.25-7.59 5.6-.36 6.15 4.16 8.86 3.8s4.51-4.88 7.4-7.23-2.53-5.96-6.14-8.85-7.23-2.17-10.66-3.98c-3.43-1.8-13.55-3.43-17.7-3.43-4.16 0-10.66-4.51-15.36-4.7-4.7-.18-8.13.37-11.2.91s-9.4.54-11.74 1.62c-2.35 1.09-5.42 4.16-6.69 5.24-1.26 1.09-5.06 3.07-6.68 5.6-1.3 2.03-1.39 3.74-1.27 4.34-1.26.3-4.99 1.12-9.75 1.99-4.77.86-8.37 3.25-9.58 4.33.84 0 3.54.36 7.59 1.81 5.06 1.81 5.06 8.49 1.26 10.12-3.79 1.62-6.32-5.42-13.37-7.95-7.04-2.53-11.02.54-11.02 2.53 0 1.98 5.06-.55 8.5 6.86 2.74 5.93-.55 12.59-2.53 15.18-1.63.24-5.24.86-6.69 1.44-1.81.73-5.78.36-8.13 0s-7.41.55-9.03 1.09c-1.63.54-5.06-1.27-8.49-2.53-3.44-1.27-6.51-.54-8.31-1.99-1.81-1.44-3.98-6.86-5.97-9.57-1.98-2.71-6.5-5.24-7.22-8.86-.72-3.61 2.53-10.48 3.79-14.09 1.27-3.61 8.31-13.01 21.14-16.98 12.83-3.98 23.3 9.57 22.94 13.55-.36 3.97-1.62 9.03 2.53 10.12 4.16 1.08 7.05-1.81 8.49-10.12 1.45-8.31-5.42-18.79-14.63-22.95-9.21-4.15-17.34-4.87-26.38-4.87-9.03 0-16.44 5.42-17.88 7.04-1.45 1.63-7.95 5.78-10.66 8.85-2.71 3.08-5.42 9.04-5.24 11.75s-5.24 8.13-6.69 14.63c-1.44 6.51 0 9.03 0 11.93 0 2.89-.36 10.65 0 15.17.37 4.52 6.33 10.3 8.13 13.01 1.81 2.71 5.97 9.94 9.58 13.01s11.74 5.78 15.18 8.31c3.43 2.53 9.21 5.78 13.18 8.13 3.98 2.35 13.92.36 17.35 3.25 2.74 2.31 9.93 2.65 13.19 2.53-.79 1.08-5.21 4.91-16.62 11.56-14.28 8.31-26.38 12.65-37.95 9.4-11.56-3.26-8.67-12.65-5.05-15 3.61-2.35-6.33-10.66-10.66 6.87-4.34 17.52 12.1 27.64 23.67 31.43 11.56 3.8 46.79-14.09 67.74-31.43 16.77-13.88 37.22-38.91 45.35-49.69-.66-.3-2.13-2.06-2.71-6.68-.58-4.63 1.09-7.95 1.99-9.03-1.15-1.99-2.6-6.29.72-7.59 4.16-1.63 6.87 2.17 11.74 10.48Z"/><path fill="url(#e)" stroke="#f2c78b" stroke-width=".91" d="M186.09 185.19c10-.4 9.58-8.29 8.1-9-.74-.35-1.31.27-2.03.55-.91.36-2.17-.2-1.99-1.4.06-.41.27-.78.58-1.09-.61-.21-1.94-.96-2.33-2.29-.49-1.66-.07-3.68.79-6.55.68-2.29 7.77-10.51 7.41-12.59l1.76-2.05c1.23 3.67-5.71 11.37-6.59 12.83-1.94 3.26-2.64 5.9-1.9 7.91.59 1.61 2.64 1.8 3.59 1.7 1.72-.11 3.83.88 4.05 4.34s-2.57 7.44-3.31 8.74c-.74 1.29-6.91 5.87-11.36 12.47-3.57 5.29-4.76 8.6-4.9 9.6-2.35-1.6-8.27-5.39-13.18-7.79-6.14-3-7.13-2.05-10.52-2.62s-9.86-2.16-9.32-7.88c.08-.85.21-1.5.37-2.01.12-1.44.08-4.63-1.02-5.84-1.38-1.51-4.35-.79-6.01-1.47-1.67-.68-4.17-2.77-3.91-5.73.26-2.95 3.58-9.44 2.41-11.43-1.17-1.98-4.48-1.89-5.78-1.98.55-.55 2.38-1.27 3-1.22.79.05 3.96.47 4.73 2.66.77 2.2-2.63 9.73-2.48 11.64.14 1.92.78 3.36 2.48 4.23s4.04-.13 5.78.93c1.73 1.06 1.86 1.81 2.31 3.28.37 1.18.35 2.87.3 3.57.5.3.81.97.56 1.33-.62.89-1.07 2.72.79 4.52 1.87 1.81 6.62.2 15.65-3.51 9.02-3.72 11.97-3.46 21.97-3.85Z"/><path fill="url(#f)" stroke="#f2c78b" stroke-width=".91" d="M41.9 230.43c1.53-15.7 3.46-38.24 3.51-49.02.03-5.38-8.79-6.13-13.42-3.56-5.56 3.1-3.96 7.99-4.05 16.05-.51 46.45-4.2 115.71-4.48 118.88-.11 1.26-1.2 9.14-3.02 32.92.27 6.36 3.09 8.82 7.5 9.22s8.72-3.43 8.72-3.43 3.47-78.29 5.24-121.06Z"/><path fill="url(#g)" d="M13.55 237.5c-.32-1.29-.51-4.44 1.24-6.77 2.19-2.9 3.58-5.73 2.13-8.3-1.45-2.58-.5-5.78 1.97-3.09 2.47 2.68 6.6 7.93 6.79 12.48.15 3.65-.28 6.96-.51 8.16 1.25.3 3.78 1.36 3.94 3.18s-.78 3.47-1.27 4.07c.26-.1 1.13-.1 2.49.6 1.37.71 4.05 1.23 5.21 1.4-1.01.79-3.42 2.27-4.92 1.9-1.5-.36-3.01-.45-4.04-.63l-1 21.86c-1.55.14-4.19 0-6.35-2.3-1.52-1.62-2.4-2.79-2.85-3.47 1.35 2.37 3.54 6.62 3.71 8.59.23 2.68 1.03 7.19.42 9.53s-4.39 8.09-4.06 11.81c.32 3.71 1.69 7.75 4.06 9.2 2.36 1.45 8.72 1.91 4.49 2.5-4.22.59-10.1.92-13.86-9.56-3.01-8.37-3.17-17.6-2.87-21.16-.69-.14-2.12-.97-2.3-3.12-.19-2.14.38-3.43.68-3.8-1.2-2.11-3.5-7.55-3.11-12.41s3.03-11.16 4.3-13.7c-1.52-.35-4.61-1.54-4.78-3.52-.22-2.48.31-3.36 1.69-3.9 1.11-.43 4.1 1.02 5.45 1.8.2-.09.51-.76 1.13-1.15.96-.6 1.81-.16 2.22-.2"/><path fill="url(#h)" d="M41.92 255.29c2.47-.43 2.88 2.15 2.56 6.01-.39 4.82-2.84 4.83-3.77 10.53s-1.45 9.08-.66 13.37c.62 3.44-2.99 7.83-4.87 9.6.86-2.58 2.2-8.36.68-10.88-1.9-3.16-2.05-11.88-.45-14.52s5.12-6.7 4.32-8.92c-.65-1.77.06-4.82 2.19-5.19"/><path stroke="#f2c78b" stroke-width=".91" d="M16.38 266.59c.45.68 1.33 1.85 2.85 3.47 2.16 2.3 4.8 2.44 6.35 2.3l1-21.86c1.03.18 2.54.27 4.04.63 1.5.37 3.91-1.11 4.92-1.9-1.16-.17-3.84-.69-5.21-1.4-1.36-.7-2.23-.7-2.49-.6.49-.6 1.43-2.25 1.27-4.07s-2.69-2.88-3.94-3.18c.23-1.2.66-4.51.51-8.16-.19-4.55-4.32-9.8-6.79-12.48-2.47-2.69-3.42.51-1.97 3.09 1.45 2.57.06 5.4-2.13 8.3-1.75 2.33-1.56 5.48-1.24 6.77-.41.04-1.26-.4-2.22.2-.62.39-.93 1.06-1.13 1.15-1.35-.78-4.34-2.23-5.45-1.8-1.38.54-1.91 1.42-1.69 3.9.17 1.98 3.26 3.17 4.78 3.52-1.27 2.54-3.91 8.84-4.3 13.7s1.91 10.3 3.11 12.41c-.3.37-.87 1.66-.68 3.8.18 2.15 1.61 2.98 2.3 3.12-.3 3.56-.14 12.79 2.87 21.16 3.76 10.48 9.64 10.15 13.86 9.56 4.23-.59-2.13-1.05-4.49-2.5-2.37-1.45-3.74-5.49-4.06-9.2-.33-3.72 3.45-9.47 4.06-11.81s-.19-6.85-.42-9.53c-.17-1.97-2.36-6.22-3.71-8.59Zm0 0c-.13-.22-.24-.43-.35-.61.05.12.16.32.35.61Zm25.54-11.3c2.47-.43 2.88 2.15 2.56 6.01-.39 4.82-2.84 4.83-3.77 10.53s-1.45 9.08-.66 13.37c.62 3.44-2.99 7.83-4.87 9.6.86-2.58 2.2-8.36.68-10.88-1.9-3.16-2.05-11.88-.45-14.52s5.12-6.7 4.32-8.92c-.65-1.77.06-4.82 2.19-5.19Z"/><path fill="url(#i)" stroke="#f2c78b" stroke-width=".91" d="M33.92 479.41c-.58-5.47 4.24-62.84 3.16-127.05-1.25-9.93-4.4-15.53-8.83-15.45-4.43.07-7.97 7.12-7.9 11.45 1.39 51.33 2.4 85.73 2.69 92.87.42 10.46-.33 38.37 1.76 46.56 2.09 8.18 8.55 15.54 16.97 22.87s26.3 12 31.39 10.16c4.08-1.46 4.68-7.31 4.47-10.04 2.28.04 8.61 1.24 15.71 5.7s8.26 17.71 7.96 23.78c1.14-.19 3.5-.81 3.87-1.81.47-1.26 2.99-10.77-.86-22.16-3.85-11.4-14.46-18.43-20.8-18.32s-36.56 1.39-41.98-1.76c-5.42-3.14-7.03-11.33-7.61-16.8Z"/><path fill="url(#j)" stroke="#f2c78b" stroke-width=".91" d="M245.69 203.32c1.53-15.7 3.46-38.23 3.52-49.01.02-5.38-8.8-6.13-13.43-3.56-5.56 3.1-3.96 7.99-4.05 16.04-.51 46.46-4.2 115.71-4.48 118.89-.1 1.26-1.19 9.13-3.02 32.92.27 6.36 3.09 8.82 7.5 9.22s8.72-3.43 8.72-3.43 3.47-78.29 5.24-121.07Z"/><path fill="url(#k)" d="M256.87 212.2c.32-1.29.51-4.45-1.24-6.77-2.19-2.9-3.58-5.73-2.13-8.3 1.44-2.58.5-5.78-1.97-3.1-2.48 2.69-6.6 7.93-6.79 12.49-.16 3.65.28 6.96.51 8.16-1.25.3-3.78 1.36-3.94 3.18-.16 1.81.78 3.47 1.27 4.07-.26-.1-1.13-.11-2.49.6-1.37.71-4.05 1.23-5.22 1.4 1.02.79 3.43 2.27 4.93 1.9 1.5-.36 3.94-.82 4.97-1l-.93 22.38c1.55.14 5.19-.15 7.35-2.46 1.51-1.62 2.4-2.78 2.85-3.46-1.35 2.37-3.54 6.62-3.71 8.59-.23 2.68-1.03 7.18-.42 9.53.61 2.34 4.38 8.09 4.06 11.81-.32 3.71-1.69 7.75-4.06 9.2-2.36 1.44-8.72 1.91-4.49 2.5 4.22.59 10.1.92 13.86-9.56 3.01-8.38 3.16-17.6 2.86-21.16.69-.15 2.12-.97 2.31-3.12s-.38-3.43-.69-3.81c1.21-2.11 3.51-7.54 3.12-12.4s-3.03-11.16-4.3-13.7c1.52-.35 4.61-1.54 4.78-3.52.22-2.48-.32-3.36-1.69-3.9-1.11-.43-4.1 1.02-5.46 1.79-.19-.08-.5-.75-1.12-1.14-.96-.61-1.82-.16-2.22-.2"/><path fill="url(#l)" d="M228.5 229.99c-2.47-.43-2.88 2.15-2.56 6.01.39 4.81 2.84 4.83 3.77 10.53.92 5.7 1.44 9.07.66 13.37-.62 3.44 2.99 7.83 4.87 9.6-.86-2.58-2.21-8.36-.68-10.88 1.9-3.16 2.05-11.88.45-14.52s-5.12-6.71-4.32-8.92c.65-1.77-.06-4.82-2.19-5.19"/><path stroke="#f2c78b" stroke-width=".91" d="M254.04 241.29c-.45.68-1.34 1.84-2.85 3.46-2.16 2.31-5.8 2.6-7.35 2.46l.93-22.38c-1.03.18-3.47.64-4.97 1-1.5.37-3.91-1.11-4.93-1.9 1.17-.17 3.85-.69 5.22-1.4 1.36-.71 2.23-.7 2.49-.6-.49-.6-1.43-2.26-1.27-4.07.16-1.82 2.69-2.88 3.94-3.18-.23-1.2-.67-4.51-.51-8.16.19-4.56 4.31-9.8 6.79-12.49 2.47-2.68 3.41.52 1.97 3.1-1.45 2.57-.06 5.4 2.13 8.3 1.75 2.32 1.56 5.48 1.24 6.77.4.04 1.26-.41 2.22.2.62.39.93 1.06 1.12 1.14 1.36-.77 4.35-2.22 5.46-1.79 1.37.54 1.91 1.42 1.69 3.9-.17 1.98-3.26 3.17-4.78 3.52 1.27 2.54 3.91 8.84 4.3 13.7s-1.91 10.29-3.12 12.4c.31.38.88 1.66.69 3.81s-1.62 2.97-2.31 3.12c.3 3.56.15 12.78-2.86 21.16-3.76 10.48-9.64 10.15-13.86 9.56-4.23-.59 2.13-1.06 4.49-2.5 2.37-1.45 3.74-5.49 4.06-9.2.32-3.72-3.45-9.47-4.06-11.81-.61-2.35.19-6.85.42-9.53.17-1.97 2.36-6.22 3.71-8.59Zm0 0c.12-.22.24-.43.35-.61-.05.12-.16.32-.35.61Zm-25.54-11.3c-2.47-.43-2.88 2.15-2.56 6.01.39 4.81 2.84 4.83 3.77 10.53.92 5.7 1.44 9.07.66 13.37-.62 3.44 2.99 7.83 4.87 9.6-.86-2.58-2.21-8.36-.68-10.88 1.9-3.16 2.05-11.88.45-14.52s-5.12-6.71-4.32-8.92c.65-1.77-.06-4.82-2.19-5.19Z"/><path fill="url(#m)" stroke="#f2c78b" stroke-width=".91" d="M237.72 452.3c-.58-5.47 4.23-62.83 3.15-127.04-1.24-9.93-4.4-15.53-8.83-15.46-4.43.08-7.97 7.13-7.9 11.45 1.39 51.34 2.4 85.74 2.69 92.88.42 10.45-.33 38.37 1.76 46.56 2.09 8.18 8.56 15.54 16.97 22.87 8.42 7.32 26.31 11.99 31.4 10.16 4.07-1.47 4.67-7.31 4.46-10.04 2.28.04 8.61 1.24 15.71 5.7s8.27 17.71 7.96 23.78c1.14-.19 3.5-.81 3.87-1.81.47-1.26 2.99-10.77-.86-22.16-3.85-11.4-14.46-18.44-20.79-18.32-6.35.11-36.57 1.39-41.99-1.76-5.42-3.14-7.02-11.34-7.6-16.81Z"/><defs><linearGradient id="a" x1="223.99" x2="30.01" y1="372.86" y2="372.86" gradientUnits="userSpaceOnUse"><stop stop-color="#bd7b49"/><stop offset="1" stop-color="#3c3024"/></linearGradient><linearGradient id="b" x1="338.49" x2="28.13" y1="294.13" y2="294.13" gradientUnits="userSpaceOnUse"><stop stop-color="#fcf0d6"/><stop offset="1" stop-color="#ffc446"/></linearGradient><linearGradient id="c" x1="224.49" x2="119.94" y1="353.6" y2="353.6" gradientUnits="userSpaceOnUse"><stop stop-color="#3c3024"/><stop offset="1" stop-color="#bd7b49"/></linearGradient><linearGradient id="d" x1="283.03" x2="88.8" y1="81.65" y2="81.65" gradientUnits="userSpaceOnUse"><stop stop-color="#3c3024"/><stop offset="1" stop-color="#bd7b49"/></linearGradient><linearGradient id="e" x1="202.86" x2="135.61" y1="176.14" y2="187.93" gradientUnits="userSpaceOnUse"><stop stop-color="#3c3024"/><stop offset="1" stop-color="#bd7b49"/></linearGradient><linearGradient id="f" x1="44.04" x2="20.89" y1="266.65" y2="264.63" gradientUnits="userSpaceOnUse"><stop stop-color="#fcf0d6"/><stop offset="1" stop-color="#ffc446"/></linearGradient><linearGradient id="g" x1="3.92" x2="44.8" y1="264.85" y2="261.29" gradientUnits="userSpaceOnUse"><stop stop-color="#3c3024"/><stop offset="1" stop-color="#bd7b49"/></linearGradient><linearGradient id="h" x1="3.92" x2="44.8" y1="264.85" y2="261.29" gradientUnits="userSpaceOnUse"><stop stop-color="#3c3024"/><stop offset="1" stop-color="#bd7b49"/></linearGradient><linearGradient id="i" x1="104.88" x2="21.88" y1="437.88" y2="439.28" gradientUnits="userSpaceOnUse"><stop stop-color="#fcf0d6"/><stop offset="1" stop-color="#ffc446"/></linearGradient><linearGradient id="j" x1="247.84" x2="224.68" y1="239.55" y2="237.53" gradientUnits="userSpaceOnUse"><stop stop-color="#fcf0d6"/><stop offset="1" stop-color="#ffc446"/></linearGradient><linearGradient id="k" x1="266.5" x2="225.62" y1="239.55" y2="235.99" gradientUnits="userSpaceOnUse"><stop stop-color="#3c3024"/><stop offset="1" stop-color="#bd7b49"/></linearGradient><linearGradient id="l" x1="266.5" x2="225.62" y1="239.55" y2="235.99" gradientUnits="userSpaceOnUse"><stop stop-color="#3c3024"/><stop offset="1" stop-color="#bd7b49"/></linearGradient><linearGradient id="m" x1="308.68" x2="225.68" y1="410.77" y2="412.17" gradientUnits="userSpaceOnUse"><stop stop-color="#fcf0d6"/><stop offset="1" stop-color="#ffc446"/></linearGradient></defs></svg>