<svg xmlns="http://www.w3.org/2000/svg" width="345" height="448" fill="none" viewBox="0 0 345 448"><path fill="url(#a)" stroke="#f2c78b" stroke-width=".91" d="M133.66 488.22c-24.49-9.88 1.45-91.27 12.12-123.27 5.27-15.82 27-10.83 41.22-4.61 17.78 7.77 20.81 56.89 29.9 86.66 9.08 29.76 13.17 23.7 22.65 30.68s11.19 16.33 22.91 19.89c11.73 3.56 25.29 11.06 37.8 22.39 12.51 11.32 37.01 16.46 47.02 10.67 10.01-5.8 14.75-1.85 1.71 11.72-13.04 13.56-28.31 12.64-53.2 7.77-24.9-4.88-30.69-4.88-47.81-5.4-17.12-.53-17.26-2.11-32.14-12.25s-30.68-10.01-38.72-15.94c-8.03-5.92-18.96-18.43-43.46-28.31Z"/><path fill="url(#b)" stroke="#f2c78b" stroke-width=".91" d="M27.51 62.3c9.22-4.35 19.27-16.77 34.24-22.26 3.24-1.19 5.48-2 8.43-2.63 3.69-.8 16.2 2.63 21.21 7.9 4 4.21 10.44 15.36 13.17 20.41 1.27-1.1 4.55-2.98 7.5-1.71 3.69 1.58.27 7.24 1.98 10.01 1.37 2.21 2.06 6.71 2.24 8.69 3.86 5.14 12.48 16.73 16.07 21.99 4.47 6.59 25.41 26.21 43.06 35.83 17.65 9.61 85.61 15.67 106.55 17.78 20.94 2.1 10.93 16.06 5.92 16.33-5 .26-22.38-3.69-46.75-4.22-24.36-.52-43.2 6.46-52.28 14.09-9.09 7.64-15.28 20.68-19.23 45.44s32.77 167.45 37.4 196.63c6.98 43.99 8.56 92.06 8.82 100.23.27 8.16 8.96 13.43 12.12 16.46s2.5 8.95-1.84 11.19c-4.35 2.24-9.49-1.31-12.12-1.84s-8.82 0-15.41 1.05c-5.27.85-7.37-.35-7.77-1.05-1.01-.13-3.84.05-7.11 1.84-4.08 2.24-7.64 1.85-10.93-3.82-3.29-5.66-2.11-10.66 0-14.75 2.1-4.08 3.29-3.03 9.09-1.97 4.63.84 10.88 2.54 13.43 3.29.44-.18 2.03-1.08 4.87-3.29 3.56-2.77 5.4-18.83 3.16-35.82-1.79-13.6-24.67-96.37-36.35-136.31-9.48 50.17-27.92 145.79-26.34 155.67 1.44 9 3.43 12.51 7.9 17.64 4.48 5.14 6.72 9.35 4.88 12.12-1.85 2.77-3.82 4.87-9.88 2.9-6.06-1.98-10.93-4.35-19.36-2.9-6.74 1.16-9.48-.48-10.01-1.45-.35-.22-1.42-.61-2.9-.39-1.84.26-4.61 1.45-7.5 3.16-2.9 1.71-10.8 1.97-11.99-10.41-1.18-12.38 8.96-11.19 13.83-11.32 3.9-.11 11.02 2.06 14.09 3.16 1.45-1.01 5.01-3.87 7.64-7.25 3.29-4.21 3.43-26.34 3.82-38.19.4-11.85 6.32-174.11 16.73-202.29 10.4-28.19-5.4-73.75-10.41-79.02-5-5.27-15.8-3.3-25.28-16.2-7.59-10.33-.09-23.88 4.61-29.37-9.09-2.15-27.93-7.69-30.56-12.65-3.29-6.19 1.84-9.61 4.35-9.61 2 0 33.23 3.42 48.59 5.14-3.2-3.95-11.03-13.36-16.72-19.36-7.11-7.51-18.97-17.52-28.45-18.57-9.48-1.06-32.4 1.58-40.96-3.56-6.85-4.11-3.91-7.94-1.58-9.35-1.49-.31-4.69-1.4-5.53-3.29-.84-1.9 1.4-3.08 2.63-3.43-.48-.65-1.87-2.08-3.55-2.5-2.11-.53-10.01.92-11.2-3.42a5.97 5.97 0 0 1 2.37-6.59c-5.44 1.28-17.41 3.19-21.73.66-5.4-3.16 3.82-4.48 13.04-8.82Z"/><path fill="url(#c)" stroke="#f2c78b" stroke-width=".91" d="M95.81 52.29c2.31 4.19 7.18 12.99 8.75 13.83 1.31-.53 4.37-2.06 6.05-1.85 2.11.26 2.9 1.32 2.77 4.48s-.66 3.42.92 7.11c1.27 2.95 1.58 6.41 1.58 7.77.4.88 2.64 4.85 8.43 13.7 7.25 11.06 24.23 26.47 45.57 40.96 17.07 11.59 52.59 15.63 68.22 16.2.7-.49 2.32-1.79 3.16-3.16s.7-3.21.53-3.95c.79.08 2.71-.16 4.08-1.85s1.01-3.95.66-4.87c.75-.48 2.45-1.9 3.29-3.69s-.35-3.91-1.05-4.74c.92-.44 2.76-1.71 2.76-3.29 0-1.98 1.32-13.17-9.21-13.3-8.43-.11-10.72 5.66-10.8 8.56-1.72-1.1-5.77-3.4-8.3-3.82-3.16-.53-5.93 0-8.69-1.32-2.77-1.32-2.77-4.08-5.4-5.66-2.64-1.58-7.51-.66-9.48-1.58-1.98-.93-3.43-1.98-5.01-5.54-1.26-2.84-6.76-6.19-9.35-7.5 1.54-.79 5.24-3.11 7.77-6.06s3.6-8.43 3.82-10.8c.35.31 2.71 3.24 4.08 4.61 1.71 1.71 10.41 10.67 19.1 7.24 10.88-4.28-7.9.27-6.46-16.86.42-4.86 3.3-10.93 8.7-15.67s4.34-13.43 5.4-19.62c1.05-6.19 0-6.85 7.11-7.24 7.11-.4-1.84-6.33-11.33-6.33-7.58 0-13.34 2.2-15.27 3.3-.09-2.46-1.74-8.49-7.64-12.91-7.38-5.53-19.1-10.14-32.4-7.24-10.64 2.31-16.55 12.38-18.18 17.12-2.54-1.85-10.74-6.51-23.18-10.41-12.43-3.9-21.86-4.61-25.02-4.47.22-1.45.53-5.4 0-9.62-.66-5.27-3.56-3.95-3.82 1.19-.21 4.11-5.09 8.56-7.51 10.27-.3-1.01-1.39-2.79-3.29-1.84-2.37 1.18 0 2.63-1.05 4.08-1.06 1.45-.4.79-8.17 4.21-6.21 2.74-6.71 5.09-6.19 5.93h-2.37c-.92 0-2.9-.53-3.03.39-.1.74 1.19 2.42 1.85 3.16-.62 0-2.24.29-3.82 1.45s-1.71 2.94-1.58 3.69c-1.01-.17-3.22-.42-3.95 0-.93.53-2.37 1.58-2.24 4.22.13 2.63 1.71 3.81 4.87 4.47 2.53.53 3.86-.74 4.21-1.45 1.06.97 3.74 2.61 6.06 1.45 2.9-1.45 1.85-3.16 7.11-4.47 5.27-1.32 9.49 6.58 11.2 9.21 1.37 2.11 4.35 2.46 5.66 2.38z"/><path fill="url(#d)" fill-rule="evenodd" stroke="#f2c78b" stroke-width=".91" d="M109.03 179.51c1.72 10.01 7.51 14.09 10.54 15.8 2.42 1.37 4.43 2.16 5.14 2.38-1.5 1.31-5.14 4.58-7.77 7.11-3.3 3.16-2.64 9.08 0 10.53 2.63 1.45 4.21 3.03 2.63 9.09-1.14 4.37.4 6.28 1.54 7.69.44.54.82 1.02.96 1.53.19.66-.4 2.02-1.12 3.68-1.29 2.95-2.98 6.83-1.38 9.36.27.42.52.8.75 1.16 1.97 3.03 2.74 4.21 1.09 8.45-1.84 4.74 1.45 8.3 3.3 8.96.7.25.87 1.19 1.1 2.52.39 2.16.95 5.34 4.3 8.28 4.32 3.79 6.1 4.65 6.45 4.61-1.8 1.84-5.61 7.42-6.45 15.01-.57 5.12-3.64 6.79-6.84 8.52-2.72 1.48-5.54 3-6.99 6.76-.39 1-.78 1.96-1.14 2.86-2.63 6.48-4.29 10.58 1.14 13.47 4.95 2.63 8.91 4.43 10.27 5-.97 6.02-3.95 19.23-8.16 23.97-5.27 5.93-4.35 12.91 0 14.1 3.47.94 5.75 2.15 6.45 2.63 1.58 8.34 3.79 26.71 0 33.45-3.4 6.05-1.92 15.89-.82 23.26.44 2.9.82 5.42.82 7.16 0 2.96-1.48 7.16-3.02 11.53-1.68 4.78-3.43 9.78-3.43 13.63 0 5.9 2.1 11.85 3.16 14.09 1.97-3.25 7.27-10.61 12.64-14.09 4.44-2.87 5.83-5.69 7.02-8.1.61-1.24 1.17-2.38 2.07-3.36 1.06-1.16 2.35-1.9 3.76-2.71 2.11-1.21 4.49-2.57 6.77-5.72 1.85-2.55 2.78-5.29 3.64-7.85.92-2.73 1.77-5.26 3.61-7.16 2.84-2.95 7.68-9.75 9.74-12.78 1.63 1.1 5.3 4.51 6.98 9.35 1.76 5.06 5.35 7.55 8.33 9.61.59.41 1.16.8 1.68 1.19.86.65 1.71 1.18 2.53 1.7 2.2 1.38 4.28 2.69 6.3 5.94 2.12 3.45 5.03 4.55 7.94 5.66.87.33 1.74.66 2.59 1.06 3.69 1.71 8.94 5.51 10.67 7.11 1.71 1.58 3.99 5.66 4.21 6.32 1.1-2.24-.13-10.85-2.76-21.07-1.69-6.54-.82-11.59.01-16.4.78-4.59 1.53-8.95-.01-14.16-1.17-3.94-2.18-6.47-2.96-8.43-1.34-3.35-2.03-5.08-1.78-9.48.31-5.58 2.06-9.61 2.89-10.93.75.75 3.38 2.32 7.91 2.64 5.23.36 7.87-.17 12.92-1.19.41-.08.85-.17 1.3-.26 2.9-.58 4.63-.31 6.48-.02 1.93.3 3.98.62 7.61.02 3.84-.64 4.88-1.97 5.82-3.18.82-1.04 1.56-1.99 3.93-2.35 5.13-.79 6.98-1.98 11.46-8.96 1.18-1.84 2.41-3.43 3.41-4.72 2.8-3.61 3.76-4.85-3.41-2.52-8.03 2.6-9.72 1.9-15.43-.49-1.23-.51-2.64-1.1-4.33-1.75-4.84-1.86-8.81-1.78-12.13-1.71-3.28.06-5.93.12-8.15-1.72-3.58-2.95-6.06-12.29-6.85-16.59.7 1.58 3.06 5.03 6.85 6.19.33.1.65.2.97.3 4.25 1.29 7.5 2.27 11.54 4.97 2.22 1.48 4.59 1.41 6.91 1.34 2.22-.06 4.4-.13 6.39 1.16 2.82 1.82 7.77 1.13 12.09.52 1.93-.27 3.74-.52 5.17-.52.96 0 1.82.05 2.62.1 2.98.18 5.06.31 8.7-2.6 4.61-3.69 14.88-13.7 12.25-21.21-1.24-3.52-1.52-3.13-2.64-1.54-1.26 1.8-3.6 5.11-9.61 6.02-11.32 1.71-21.99-3.95-27.13-12.38-2-3.29-2.72-5.17-3.29-6.65-.88-2.3-1.38-3.61-5.8-7.7-4.32-4.01-4.89-5.16-5.96-7.3-.73-1.45-1.68-3.36-4.18-6.93-2.63-3.75-4.71-5.1-6.38-6.17-2.26-1.46-3.75-2.43-4.81-8.18-1.85-10.01-5.14-17.12-15.54-13.17-10.41 3.95-10.8 3.95-18.44 1.97-2.74-.71-4.91-.72-6.8-.73-3.38-.02-5.89-.04-9.27-4.01-5.27-6.19-9.48-15.67-8.95-28.84.42-10.54 2.28-20.55 3.16-24.23 2.76.04 9.03-1.06 11.98-5.8s.57-14.4-.66-18.44c-4.61 6.19-7.9 10.01-14.48 9.22-3.07-.37-5.78-1.81-8.93-3.48-3.55-1.9-7.66-4.08-13.46-5.34-10.93-2.37-14.1-2.37-22.39-1.19-6.64.95-15.32-2.85-18.84-4.87Zm37.28 64.27c1.05-7.16-2.11-17.56-3.82-21.86-.57.52-2.11 2.16-3.69 4.48-1.05 1.53-.84 2.07-.49 2.97.31.81.74 1.91.49 4.27-.28 2.66-1.01 3.9-1.64 5-.57.97-1.07 1.82-1.13 3.43-.07 1.78.37 3.21.76 4.51.36 1.18.69 2.26.56 3.39-.12 1.07-.53 1.79-.97 2.56-.54.94-1.12 1.95-1.27 3.76-.14 1.79 1.27 3.08 2.55 4.24 1.07.97 2.05 1.85 1.93 2.87-.11.91-.63 1.83-1.09 2.64-.68 1.19-1.24 2.16-.23 2.63 1.37.63 3.38 2.02 4.22 2.64 0-.79.21-3.67 1.05-8.83.68-4.16 1.08-7 1.64-10.89.31-2.15.66-4.62 1.13-7.81Z" clip-rule="evenodd"/><path fill="url(#e)" stroke="#f2c78b" stroke-width=".91" d="M281.56 199.79c-4.35-32.26-5.53-40.3 4.35-40.69 3.15-.13 6.13.87 8.03 2.76 2.11 2.11 2.24 3.95 2.5 21.21.27 17.25 2.9 49.39 4.74 71.64 1.85 22.26 3.17 50.05 6.06 65.59 2.9 15.54-9.74 16.2-13.17 11.06-3.42-5.13-2.89-18.7-2.89-43.85 0-25.16-5.27-55.45-9.62-87.72Z"/><path fill="url(#f)" d="m300 245.36.79 6.58c.52.14 1.87.19 3.03-.65 1.16-.85 2.68-2.02 3.29-2.51-.53.62-1.5 2.56-1.18 5.4.31 2.85 1.62 4.09 2.23 4.35-.61.61-1.6 2.19-.66 3.56.95 1.37 2.42 1.71 3.03 1.71-.22.44-.68 2.08-.79 5.14-.1 3.05-2.59 3.02-3.81 2.63.35-.62.84-2 0-2.63-1.06-.8-2.38.39-2.38 1.71 0 1.31.8 3.82 4.61 3.55 3.82-.26 7.51-6.32 9.22-9.08 1.72-2.77 1.45-7.91 2.5-10.28.85-1.89-1.66-3.95-3.02-4.74.52-.48 1.87-1.68 3.02-2.63 1.45-1.19-1.71-4.48-1.05-5.67.66-1.18-.39-3.55 1.05-4.74 1.16-.94-1.88-4.52-3.55-6.19.75-.09 2.42-.42 3.16-1.05s.92-2.11.92-2.77c-.39.36-2.03.61-5.4-1.18s-5.18-1.54-5.66-1.19c.31-.65.74-2.42 0-4.21-.92-2.24-2.11-3.29-4.87-5.14-2.22-1.47-2.94-3.86-3.03-4.87-1.32 1.49-3.95 5.08-3.95 7.51 0 2.42.79 3.64 1.18 3.95h-1.71l1.71 3.95c-.66.57-2.21 2.16-3.16 3.95s-1.54 3.29-1.71 3.82l3.69-.92c-.27 1.09-.27 3.87 1.84 6.19 2.11 2.31 1.32 5.27.66 6.45"/><path fill="url(#g)" d="m289.07 252.34-.66-5.4c-2.64-1.32-1.48-3.48 0-3.69 1.84-.26 2.5 1.32 2.5 4.88 0 3.55-.39 4.61 1.84 8.16 2.24 3.56-.52 8.3.53 11.33.85 2.42 4.39 2.68 6.06 2.5-.7-.18-2.29-1.18-3.03-3.82-.92-3.29 1.32-4.61 2.11-8.43s-3.29-4.21-1.71-11.32c1.58-7.12-3.43-11.73-10.28-11.07s-7.24 8.04-5.26 12.12c1.58 3.27 5.92 4.52 7.9 4.74"/><path stroke="#f2c78b" stroke-width=".91" d="m300 245.36.79 6.58c.52.14 1.87.19 3.03-.65 1.16-.85 2.68-2.02 3.29-2.51-.53.62-1.5 2.56-1.18 5.4.31 2.85 1.62 4.09 2.23 4.35-.61.61-1.6 2.19-.66 3.56.95 1.37 2.42 1.71 3.03 1.71-.22.44-.68 2.08-.79 5.14-.1 3.05-2.59 3.02-3.81 2.63.35-.62.84-2 0-2.63-1.06-.8-2.38.39-2.38 1.71 0 1.31.8 3.82 4.61 3.55 3.82-.26 7.51-6.32 9.22-9.08 1.72-2.77 1.45-7.91 2.5-10.28.85-1.89-1.66-3.95-3.02-4.74.52-.48 1.87-1.68 3.02-2.63 1.45-1.19-1.71-4.48-1.05-5.67.66-1.18-.39-3.55 1.05-4.74 1.16-.94-1.88-4.52-3.55-6.19.75-.09 2.42-.42 3.16-1.05s.92-2.11.92-2.77c-.39.36-2.03.61-5.4-1.18s-5.18-1.54-5.66-1.19c.31-.65.74-2.42 0-4.21-.92-2.24-2.11-3.29-4.87-5.14-2.22-1.47-2.94-3.86-3.03-4.87-1.32 1.49-3.95 5.08-3.95 7.51 0 2.42.79 3.64 1.18 3.95h-1.71l1.71 3.95c-.66.57-2.21 2.16-3.16 3.95s-1.54 3.29-1.71 3.82l3.69-.92c-.27 1.09-.27 3.87 1.84 6.19 2.11 2.31 1.32 5.27.66 6.45Z"/><path stroke="#f2c78b" stroke-width=".91" d="m289.07 252.34-.66-5.4c-2.64-1.32-1.48-3.48 0-3.69 1.84-.26 2.5 1.32 2.5 4.88 0 3.55-.39 4.61 1.84 8.16 2.24 3.56-.52 8.3.53 11.33.85 2.42 4.39 2.68 6.06 2.5-.7-.18-2.29-1.18-3.03-3.82-.92-3.29 1.32-4.61 2.11-8.43s-3.29-4.21-1.71-11.32c1.58-7.12-3.43-11.73-10.28-11.07s-7.24 8.04-5.26 12.12c1.58 3.27 5.92 4.52 7.9 4.74Z"/><path fill="url(#h)" stroke="#f2c78b" stroke-width=".91" d="M299.87 385.75c-5-37.93-6.32-49.38-6.32-64.66 0-3.74 5.5-4.19 9.08-3.03 4.48 1.45 6.85 10.01 7.51 29.11.66 19.09 6.32 99.17 7.51 119.84 1.18 20.68-2.37 22.39-7.77 25.95-5.4 3.55-7.9 6.72-13.44 8.82-4.42 1.69-6.4-1.67-6.84-3.55-1.41 0-5.3.42-9.62 2.1-5.36 2.1-9.36 5.6-10.77 6.83l-.03.02c-1.05.92-2.24.66-.66-3.69 1.59-4.34 6.46-9.08 15.41-12.77 8.96-3.69 24.24-6.59 25.95-10.54s-5.01-56.5-10.01-94.43Z"/><path fill="url(#i)" stroke="#f2c78b" stroke-width=".91" d="M85.88 176.12c-1.98-32.5-2.58-40.6 7.3-40.28 3.16.11 6.06 1.32 7.81 3.35 1.95 2.25 1.95 4.1.95 21.33-.99 17.22-.7 49.47-.48 71.8s-.49 50.14 1.27 65.85-10.9 15.45-13.94 10.08-1.53-18.87.3-43.95c1.83-25.09-1.22-55.69-3.21-88.18Z"/><path fill="url(#j)" d="m89.38 219.16.35 6.63c-.49.22-1.81.5-3.09-.13-1.29-.63-2.99-1.53-3.68-1.9.63.51 1.92 2.26 2.1 5.11.17 2.86-.9 4.3-1.46 4.67.71.5 1.95 1.88 1.25 3.39s-2.08 2.1-2.69 2.2c.29.4 1.03 1.94 1.66 4.93s3.07 2.54 4.22 1.94c-.46-.54-1.18-1.83-.46-2.59.91-.96 2.41-.02 2.63 1.28.23 1.29-.12 3.89-3.93 4.29-3.81.39-8.48-4.94-10.64-7.37-2.16-2.44-2.78-7.54-4.22-9.7-1.16-1.72.96-4.17 2.17-5.19-.6-.38-2.13-1.34-3.44-2.07-1.63-.92.92-4.71.07-5.76-.85-1.06-.22-3.57-1.85-4.49-1.3-.74 1.09-4.78 2.44-6.71-.75.04-2.46 0-3.29-.5-.84-.49-1.27-1.92-1.38-2.56.45.27 2.1.25 5.11-2.1 3.02-2.34 4.84-2.4 5.38-2.13-.42-.6-1.14-2.27-.72-4.16.52-2.36 1.51-3.6 3.92-5.89 1.93-1.84 2.23-4.31 2.15-5.32 1.55 1.24 4.76 4.33 5.18 6.72.41 2.38-.16 3.72-.49 4.09l1.68-.29-1.01 4.19c.75.44 2.55 1.74 3.79 3.35 1.24 1.6 2.08 2.98 2.34 3.47l-3.79-.28c.45 1.03.93 3.77-.75 6.41-1.68 2.65-.4 5.42.45 6.47"/><path fill="url(#k)" d="m101.35 224.17-.28-5.43c2.37-1.75.86-3.68-.63-3.64-1.86.06-2.24 1.73-1.63 5.23.61 3.51 1.18 4.48-.42 8.36-1.59 3.89 1.94 8.09 1.43 11.25-.42 2.53-3.87 3.39-5.54 3.5.66-.29 2.05-1.56 2.33-4.28.34-3.4-2.09-4.31-3.52-7.94-1.44-3.63 2.52-4.72-.26-11.45-2.77-6.74 1.37-12.14 8.23-12.66 6.86-.53 8.51 6.67 7.26 11.03-.99 3.49-5.06 5.47-6.97 6.03"/><path stroke="#f2c78b" stroke-width=".91" d="m89.38 219.16.35 6.63c-.49.22-1.81.5-3.09-.13-1.29-.63-2.99-1.53-3.68-1.9.63.51 1.92 2.26 2.1 5.11.17 2.86-.9 4.3-1.46 4.67.71.5 1.95 1.88 1.25 3.39s-2.08 2.1-2.69 2.2c.29.4 1.03 1.94 1.66 4.93s3.07 2.54 4.22 1.94c-.46-.54-1.18-1.83-.46-2.59.91-.96 2.41-.02 2.63 1.28.23 1.29-.12 3.89-3.93 4.29-3.81.39-8.48-4.94-10.64-7.37-2.16-2.44-2.78-7.54-4.22-9.7-1.16-1.72.96-4.17 2.17-5.19-.6-.38-2.13-1.34-3.44-2.07-1.63-.92.92-4.71.07-5.76-.85-1.06-.22-3.57-1.85-4.49-1.3-.74 1.09-4.78 2.44-6.71-.75.04-2.46 0-3.29-.5-.84-.49-1.27-1.92-1.38-2.56.45.27 2.1.25 5.11-2.1 3.02-2.34 4.84-2.4 5.38-2.13-.42-.6-1.14-2.27-.72-4.16.52-2.36 1.51-3.6 3.92-5.89 1.93-1.84 2.23-4.31 2.15-5.32 1.55 1.24 4.76 4.33 5.18 6.72.41 2.38-.16 3.72-.49 4.09l1.68-.29-1.01 4.19c.75.44 2.55 1.74 3.79 3.35 1.24 1.6 2.08 2.98 2.34 3.47l-3.79-.28c.45 1.03.93 3.77-.75 6.41-1.68 2.65-.4 5.42.45 6.47Z"/><path stroke="#f2c78b" stroke-width=".91" d="m101.35 224.17-.28-5.43c2.37-1.75.86-3.68-.63-3.64-1.86.06-2.24 1.73-1.63 5.23.61 3.51 1.18 4.48-.42 8.36-1.59 3.89 1.94 8.09 1.43 11.25-.42 2.53-3.87 3.39-5.54 3.5.66-.29 2.05-1.56 2.33-4.28.34-3.4-2.09-4.31-3.52-7.94-1.44-3.63 2.52-4.72-.26-11.45-2.77-6.74 1.37-12.14 8.23-12.66 6.86-.53 8.51 6.67 7.26 11.03-.99 3.49-5.06 5.47-6.97 6.03Z"/><path fill="url(#l)" stroke="#f2c78b" stroke-width=".91" d="M73.1 359.8c8.64-37.28 11.43-48.47 16.79-62.77 1.31-3.51 6.62-1.99 9.57.35 3.69 2.93 2.9 11.78-3.19 29.89s-28.9 95.08-35.05 114.85c-6.15 19.78-10.08 20.13-16.38 21.57-6.31 1.43-9.76 3.51-15.68 3.54-4.74.03-5.42-3.81-5.16-5.73-1.32-.49-5.11-1.46-9.75-1.4-5.76.08-10.73 1.95-12.48 2.61l-.03.01c-1.31.49-2.33-.17.68-3.69 3-3.51 9.23-6.24 18.91-6.55s25 2.34 27.99-.75c2.99-3.1 15.15-54.66 23.78-91.93Z"/><path fill="url(#m)" fill-rule="evenodd" stroke="#f2c78b" stroke-width=".91" d="m52.08 445.87-1.71 4.57c-1.7-1.34-4.9-4.71-4.1-7.45s2.63-4.03 3.45-4.33c-1.49-1.4-4.05-5.03-2.36-8.34 2.11-4.13 7.23-6.15 13.74-3.99 6.5 2.16 9.54 5.68 8.63 11.11-.41 2.47-3.13 3.85-4.53 4.21.84 1.25 2.2 4.54.92 7.66s-6.68 3.69-9.22 3.58l2.01-4.6c.62-.14 1.83-.83 1.76-2.43-.1-2.01-4.29-3.58-6.57-3.87-1.75-.23-2.85.48-3.04 2.1-.12 1.08.65 1.65 1.02 1.78Zm10.25-6.7c-1.71-.83-5.89-2.38-8.97-1.96-1.08-1.25-1.26-3.64.01-4.92 2.04-2.05 7.08-.86 9.92 1.33 2.27 1.75.3 4.43-.96 5.55Z" clip-rule="evenodd"/><path fill="url(#n)" stroke="#f2c78b" stroke-width=".91" d="M140.12 155.01c-3.69-4.74-5.27-6.19.79-12.64l-.79-.79c-.71.61-2.3 2.08-3.03 3.03-.93 1.18-2.77 3.95-1.58 6.58 1.18 2.64 5.13 6.46 5.92 8.43.79 1.98-1.58 3.43-5.27 4.61-3.68 1.19-3.16 2.9-2.89 5.27.26 2.37.39 3.16 2.37 5.27 1.97 2.11 5.53 3.16 8.82 5.4 2.64 1.79 5.75 1.8 6.98 1.58l2.37 3.42 4.09-2.5c.7.27 2.55.58 4.34-.26 2.24-1.06 8.43-2.64 12.64-2.64 3.38 0 6.15-4.56 7.12-6.84-.57-.62-2.29-2.53-4.61-5.27-2.9-3.43-.66-8.3 5.13-7.25l.2.04c5.66 1.03 8.43 1.53 13.9.49 4.42-.84 4.56-7.81 4.08-11.19l-1.85-.4c.05.53.14 2.24.14 4.87 0 3.3-3.3 6.85-11.99 5.14s-11.85.79-12.51 4.48c-.53 2.95 3.64 7.29 5.79 9.09-.83 1.05-3.03 3.18-5.13 3.29-2.64.13-3.95-.13-9.88-2.64-4.74-2-7.33-5.4-8.03-6.84-1.36.7-5.27 2.5-10.01 4.08-5.93 1.97-9.35 1.18-11.86-1.98-2.5-3.16 2.26-2.72 5.8-5.27 3.29-2.37 2.63-3.82-1.05-8.56Z"/><defs><linearGradient id="a" x1="131.94" x2="327.38" y1="439.7" y2="575.78" gradientUnits="userSpaceOnUse"><stop stop-color="#bd7b49"/><stop offset="1" stop-color="#3c3024"/></linearGradient><linearGradient id="b" x1="12.87" x2="294.71" y1="296.51" y2="296.51" gradientUnits="userSpaceOnUse"><stop stop-color="#fcf0d6"/><stop offset="1" stop-color="#ffc446"/></linearGradient><linearGradient id="c" x1="56.61" x2="251.59" y1="77.47" y2="77.47" gradientUnits="userSpaceOnUse"><stop stop-color="#3c3024"/><stop offset="1" stop-color="#bd7b49"/></linearGradient><linearGradient id="d" x1="109.03" x2="301.88" y1="327.81" y2="327.81" gradientUnits="userSpaceOnUse"><stop stop-color="#3c3024"/><stop offset="1" stop-color="#bd7b49"/></linearGradient><linearGradient id="e" x1="278.33" x2="307.67" y1="246.66" y2="246.66" gradientUnits="userSpaceOnUse"><stop stop-color="#fcf0d6"/><stop offset="1" stop-color="#ffc446"/></linearGradient><linearGradient id="f" x1="280.13" x2="320.41" y1="242.34" y2="242.34" gradientUnits="userSpaceOnUse"><stop stop-color="#3c3024"/><stop offset="1" stop-color="#bd7b49"/></linearGradient><linearGradient id="g" x1="280.13" x2="320.41" y1="242.34" y2="242.34" gradientUnits="userSpaceOnUse"><stop stop-color="#3c3024"/><stop offset="1" stop-color="#bd7b49"/></linearGradient><linearGradient id="h" x1="267.76" x2="317.88" y1="412.55" y2="412.55" gradientUnits="userSpaceOnUse"><stop stop-color="#fcf0d6"/><stop offset="1" stop-color="#ffc446"/></linearGradient><linearGradient id="i" x1="79.26" x2="108.52" y1="222.63" y2="224.76" gradientUnits="userSpaceOnUse"><stop stop-color="#fcf0d6"/><stop offset="1" stop-color="#ffc446"/></linearGradient><linearGradient id="j" x1="108.44" x2="68.76" y1="212.78" y2="219.69" gradientUnits="userSpaceOnUse"><stop stop-color="#3c3024"/><stop offset="1" stop-color="#bd7b49"/></linearGradient><linearGradient id="k" x1="108.44" x2="68.76" y1="212.78" y2="219.69" gradientUnits="userSpaceOnUse"><stop stop-color="#3c3024"/><stop offset="1" stop-color="#bd7b49"/></linearGradient><linearGradient id="l" x1="33.63" x2="80.56" y1="373.62" y2="391.21" gradientUnits="userSpaceOnUse"><stop stop-color="#fcf0d6"/><stop offset="1" stop-color="#ffc446"/></linearGradient><linearGradient id="m" x1="45.72" x2="68.44" y1="434.62" y2="443.14" gradientUnits="userSpaceOnUse"><stop stop-color="#3c3024"/><stop offset="1" stop-color="#bd7b49"/></linearGradient><linearGradient id="n" x1="133.08" x2="200.89" y1="163.38" y2="163.38" gradientUnits="userSpaceOnUse"><stop stop-color="#3c3024"/><stop offset="1" stop-color="#bd7b49"/></linearGradient></defs></svg>