<svg xmlns="http://www.w3.org/2000/svg" width="345" height="448" fill="none" xmlns:v="https://vecta.io/nano"><g stroke="#f2c78b" stroke-width=".912"><path d="M133.662 488.218c-24.497-9.878 1.448-91.269 12.116-123.272 5.273-15.818 26.999-10.826 41.223-4.61 17.779 7.771 20.808 56.895 29.896 86.659s13.17 23.707 22.652 30.687 11.195 16.331 22.916 19.887 25.287 11.063 37.798 22.389 37.008 16.462 47.018 10.668 14.75-1.844 1.712 11.721-28.316 12.643-53.207 7.77-30.687-4.873-47.808-5.399-17.253-2.108-32.135-12.249-30.686-10.009-38.72-15.935-18.965-18.439-43.461-28.316z" fill="url(#A)"/><path d="M27.512 62.297c9.219-4.346 19.267-16.771 34.242-22.257 3.238-1.186 5.479-2.002 8.429-2.634 3.688-.79 16.199 2.634 21.204 7.902 4.004 4.214 10.448 15.365 13.17 20.414 1.273-1.097 4.557-2.977 7.507-1.712 3.688 1.58.263 7.244 1.976 10.009 1.369 2.213 2.063 6.717 2.238 8.692l16.068 21.994c4.478 6.585 25.418 26.209 43.066 35.823s85.606 15.672 106.546 17.78 10.931 16.067 5.927 16.331-22.389-3.688-46.754-4.215-43.198 6.454-52.285 14.092-15.278 20.677-19.229 45.437 32.773 167.447 37.403 196.63c6.981 43.988 8.561 92.059 8.824 100.224s8.956 13.434 12.117 16.463 2.502 8.955-1.844 11.194-9.482-1.317-12.116-1.844-8.824 0-15.409 1.054c-5.268.843-7.376-.351-7.771-1.054-1.01-.131-3.845.053-7.112 1.844-4.082 2.239-7.638 1.844-10.931-3.819s-2.107-10.668 0-14.751 3.293-3.029 9.088-1.975c4.635.843 10.887 2.546 13.433 3.292.439-.175 2.028-1.08 4.873-3.292 3.556-2.766 5.4-18.833 3.161-35.823-1.791-13.591-24.672-96.361-36.35-136.31-9.482 50.178-27.92 145.793-26.34 155.67 1.441 9.007 3.424 12.512 7.902 17.648s6.717 9.351 4.873 12.117-3.819 4.873-9.877 2.897-10.932-4.346-19.361-2.897c-6.743 1.159-9.482-.483-10.009-1.449-.351-.22-1.422-.606-2.897-.395-1.844.263-4.61 1.449-7.507 3.161s-10.8 1.975-11.985-10.405 8.956-11.194 13.829-11.326c3.898-.105 11.019 2.063 14.092 3.161 1.448-1.01 5.004-3.872 7.638-7.244 3.293-4.214 3.425-26.34 3.82-38.193s6.321-174.109 16.726-202.293-5.4-73.752-10.405-79.02-15.804-3.293-25.286-16.2c-7.586-10.325-.088-23.881 4.609-29.369-9.087-2.151-27.92-7.691-30.554-12.643-3.293-6.19 1.844-9.614 4.346-9.614 2.002 0 33.232 3.424 48.597 5.136-3.204-3.951-11.036-13.354-16.726-19.36-7.111-7.507-18.965-17.516-28.447-18.57s-32.398 1.581-40.959-3.556c-6.848-4.109-3.907-7.946-1.581-9.351-1.493-.307-4.688-1.396-5.531-3.292s1.405-3.073 2.634-3.424c-.483-.658-1.87-2.081-3.556-2.502-2.107-.527-10.009.922-11.195-3.424a5.94 5.94 0 0 1 2.371-6.585c-5.444 1.273-17.411 3.187-21.731.658-5.4-3.161 3.819-4.478 13.038-8.824z" fill="url(#B)"/><path d="M95.809 52.294c2.315 4.186 7.184 12.988 8.747 13.822 1.317-.527 4.373-2.054 6.059-1.844 2.107.263 2.897 1.317 2.765 4.478s-.658 3.424.922 7.112c1.265 2.95 1.581 6.409 1.581 7.77.395.878 2.634 4.847 8.429 13.697 7.243 11.062 24.233 26.471 45.568 40.959 17.069 11.589 52.593 15.628 68.221 16.199.703-.483 2.318-1.791 3.161-3.161s.702-3.205.527-3.951c.79.088 2.713-.158 4.083-1.844s1.009-3.951.658-4.873c.746-.483 2.45-1.896 3.293-3.687s-.352-3.908-1.054-4.742c.922-.439 2.766-1.712 2.766-3.292 0-1.976 1.317-13.17-9.219-13.302-8.429-.105-10.712 5.663-10.8 8.561-1.712-1.098-5.768-3.398-8.297-3.82-3.161-.527-5.927 0-8.692-1.317s-2.766-4.083-5.4-5.663-7.507-.658-9.482-1.58-3.425-1.976-5.005-5.532c-1.264-2.845-6.761-6.19-9.351-7.507 1.537-.79 5.242-3.108 7.77-6.058s3.6-8.429 3.82-10.799c.351.307 2.713 3.24 4.083 4.61 1.712 1.712 10.404 10.668 19.096 7.243 10.883-4.287-7.902.263-6.453-16.858.412-4.87 3.292-10.931 8.692-15.672s4.346-13.434 5.4-19.623 0-6.848 7.112-7.243-1.844-6.322-11.327-6.322c-7.586 0-13.345 2.195-15.277 3.293-.088-2.459-1.738-8.482-7.639-12.907-7.375-5.531-19.096-10.141-32.398-7.244-10.641 2.318-16.55 12.38-18.175 17.121-2.546-1.844-10.747-6.506-23.179-10.404s-21.862-4.61-25.023-4.478c.219-1.449.526-5.4 0-9.614-.659-5.268-3.556-3.951-3.82 1.185-.211 4.109-5.093 8.561-7.507 10.273-.307-1.01-1.396-2.792-3.293-1.844-2.371 1.185 0 2.634-1.054 4.083s-.395.79-8.166 4.214c-6.216 2.739-6.717 5.092-6.19 5.927h-2.371c-.922 0-2.897-.527-3.029.395-.105.738 1.185 2.415 1.844 3.161-.615 0-2.239.29-3.819 1.449s-1.712 2.941-1.58 3.688c-1.01-.176-3.214-.422-3.951 0-.922.527-2.371 1.58-2.239 4.214s1.712 3.819 4.873 4.478c2.529.527 3.863-.746 4.214-1.449 1.054.966 3.74 2.608 6.058 1.449 2.897-1.449 1.844-3.161 7.112-4.478s9.483 6.585 11.195 9.219c1.37 2.107 4.346 2.458 5.663 2.371l.077.139z" fill="url(#C)"/><path fill-rule="evenodd" d="M109.034 179.51c1.712 10.01 7.507 14.092 10.536 15.804 2.424 1.37 4.434 2.151 5.137 2.371-1.493 1.317-5.137 4.583-7.771 7.112-3.292 3.161-2.634 9.087 0 10.536s4.215 3.029 2.634 9.087c-1.14 4.373.395 6.276 1.536 7.689.439.545.82 1.017.967 1.53.189.663-.404 2.024-1.126 3.678-1.286 2.949-2.979 6.83-1.377 9.361l.75 1.163c1.97 3.026 2.742 4.213 1.094 8.451-1.844 4.741 1.449 8.297 3.293 8.956.702.251.869 1.19 1.106 2.519.384 2.159.951 5.345 4.293 8.28 4.32 3.793 6.103 4.654 6.454 4.61-1.8 1.843-5.611 7.428-6.454 15.014-.569 5.123-3.637 6.786-6.836 8.52-2.722 1.476-5.539 3.003-6.992 6.757l-1.143 2.865c-2.623 6.475-4.286 10.578 1.143 13.466 4.952 2.634 8.912 4.434 10.273 5.004-.966 6.015-3.951 19.229-8.166 23.97-5.268 5.927-4.346 12.907 0 14.092 3.477.948 5.751 2.151 6.453 2.634 1.581 8.341 3.793 26.709 0 33.452-3.402 6.048-1.921 15.894-.814 23.261.436 2.899.814 5.414.814 7.162 0 2.959-1.475 7.153-3.015 11.531-1.68 4.778-3.438 9.775-3.438 13.624 0 5.9 2.107 11.853 3.161 14.092 1.975-3.249 7.27-10.615 12.643-14.092 4.439-2.873 5.83-5.687 7.022-8.103.612-1.239 1.172-2.373 2.066-3.355 1.058-1.164 2.35-1.903 3.765-2.712 2.107-1.205 4.486-2.566 6.771-5.717 1.85-2.553 2.773-5.291 3.638-7.855.919-2.727 1.772-5.258 3.605-7.159 2.845-2.95 7.683-9.746 9.746-12.775 1.624 1.098 5.294 4.504 6.98 9.351 1.758 5.054 5.35 7.542 8.327 9.604l1.682 1.195c.863.647 1.706 1.177 2.532 1.695 2.201 1.382 4.281 2.688 6.292 5.944 2.128 3.444 5.035 4.551 7.941 5.658.873.332 1.745.664 2.596 1.059 3.687 1.712 8.936 5.514 10.667 7.112 1.712 1.58 3.995 5.663 4.215 6.321 1.097-2.239-.132-10.852-2.766-21.072-1.685-6.538-.817-11.593.008-16.4.787-4.586 1.535-8.946-.008-14.155-1.17-3.948-2.178-6.471-2.963-8.437-1.335-3.346-2.027-5.077-1.778-9.474.316-5.584 2.063-9.614 2.897-10.931.747.746 3.372 2.318 7.902 2.634 5.231.365 7.878-.169 12.922-1.187l1.302-.262c2.901-.58 4.634-.308 6.482-.018 1.927.302 3.979.623 7.61.018 3.834-.639 4.874-1.967 5.823-3.179.811-1.037 1.556-1.988 3.923-2.352 5.136-.79 6.98-1.976 11.458-8.956 1.181-1.84 2.416-3.434 3.417-4.724 2.795-3.604 3.759-4.847-3.417-2.519-8.029 2.604-9.712 1.9-15.431-.49l-4.324-1.749c-4.84-1.856-8.811-1.777-12.134-1.711-3.278.065-5.924.118-8.148-1.714-3.583-2.95-6.058-12.292-6.849-16.594.703 1.581 3.056 5.031 6.849 6.19l.971.296c4.251 1.291 7.497 2.276 11.54 4.972 2.224 1.483 4.586 1.414 6.91 1.345 2.217-.065 4.399-.129 6.392 1.157 2.819 1.819 7.772 1.126 12.086.523 1.934-.27 3.74-.523 5.167-.523.969 0 1.828.053 2.622.101 2.984.182 5.064.309 8.704-2.603 4.61-3.688 14.882-13.697 12.248-21.204-1.236-3.525-1.515-3.13-2.635-1.541-1.265 1.794-3.605 5.111-9.613 6.019-11.326 1.712-21.994-3.951-27.13-12.38-2.004-3.288-2.725-5.173-3.289-6.648-.882-2.307-1.381-3.611-5.799-7.707-4.318-4.005-4.892-5.154-5.962-7.298-.726-1.453-1.679-3.363-4.178-6.926-2.632-3.751-4.716-5.099-6.384-6.177-2.256-1.458-3.751-2.424-4.811-8.178-1.844-10.01-5.136-17.121-15.541-13.17s-10.799 3.951-18.438 1.975c-2.74-.709-4.904-.722-6.796-.734-3.382-.022-5.893-.038-9.271-4.007-5.268-6.19-9.483-15.673-8.956-28.843.421-10.536 2.283-20.545 3.161-24.233 2.765.044 9.034-1.053 11.984-5.794s.571-14.4-.658-18.439c-4.61 6.19-7.902 10.01-14.487 9.219-3.069-.368-5.781-1.812-8.925-3.485-3.555-1.893-7.663-4.08-13.464-5.339-10.931-2.37-14.092-2.37-22.389-1.185-6.638.948-15.322-2.853-18.834-4.873zm37.272 64.27c1.053-7.164-2.108-17.56-3.82-21.862-.57.527-2.107 2.16-3.687 4.478-1.045 1.532-.837 2.07-.488 2.976.312.808.736 1.909.488 4.267-.28 2.658-1.005 3.904-1.644 5.001-.564.97-1.06 1.822-1.122 3.428-.069 1.787.365 3.216.757 4.51.36 1.186.686 2.259.56 3.392-.119 1.069-.532 1.79-.974 2.561-.539.939-1.12 1.953-1.265 3.761-.143 1.792 1.273 3.076 2.552 4.236 1.071.971 2.046 1.855 1.926 2.876-.107.911-.629 1.821-1.094 2.635-.679 1.186-1.239 2.164-.223 2.633 1.37.632 3.38 2.019 4.214 2.634 0-.79.211-3.661 1.054-8.824l1.639-10.895 1.127-7.807z" fill="url(#D)"/><path d="M281.56 199.793c-4.346-32.267-5.531-40.301 4.346-40.696 3.159-.126 6.138.869 8.034 2.766 2.108 2.107 2.239 3.951 2.503 21.204s2.897 49.388 4.741 71.645 3.161 50.046 6.058 65.587-9.746 16.199-13.17 11.063-2.897-18.702-2.897-43.856-5.269-55.447-9.615-87.713z" fill="url(#E)"/></g><use href="#M" fill="url(#F)"/><use href="#N" fill="url(#F)"/><g stroke="#f2c78b" stroke-width=".912"><use href="#M"/><use href="#N"/><path d="M299.869 385.753c-5.004-37.929-6.321-49.387-6.321-64.665 0-3.741 5.505-4.188 9.087-3.029 4.478 1.449 6.849 10.009 7.507 29.106s6.322 99.171 7.507 119.848-2.37 22.389-7.77 25.945-7.902 6.717-13.434 8.824c-4.425 1.686-6.409-1.668-6.848-3.556-1.405 0-5.294.421-9.614 2.107-5.368 2.095-9.364 5.592-10.775 6.827l-.025.022c-1.053.922-2.239.658-.658-3.688s6.453-9.087 15.409-12.775 24.233-6.585 25.945-10.536-5.005-56.5-10.01-94.43z" fill="url(#G)"/><path d="M85.885 176.116c-1.987-32.497-2.585-40.596 7.296-40.272 3.16.104 6.058 1.314 7.812 3.343 1.948 2.255 1.945 4.104.953 21.33s-.704 49.468-.484 71.8-.489 50.144 1.27 65.854-10.898 15.448-13.94 10.076-1.529-18.863.301-43.951-1.22-55.683-3.207-88.18z" fill="url(#H)"/></g><use href="#O" fill="url(#I)"/><use href="#P" fill="url(#I)"/><g stroke="#f2c78b" stroke-width=".912"><use href="#O"/><use href="#P"/><path d="M73.104 359.795c8.631-37.273 11.421-48.463 16.785-62.768 1.313-3.503 6.625-1.989 9.573.354 3.684 2.929 2.898 11.777-3.19 29.889s-28.9 95.077-35.05 114.854-10.081 20.131-16.385 21.565-9.757 3.514-15.676 3.545c-4.735.025-5.416-3.812-5.164-5.734-1.315-.493-5.105-1.464-9.742-1.402-5.761.077-10.731 1.948-12.485 2.609l-.031.011c-1.31.494-2.328-.169.678-3.684s9.233-6.243 18.913-6.551 25.002 2.342 27.993-.756 15.151-54.66 23.782-91.932z" fill="url(#J)"/><path fill-rule="evenodd" d="M52.08 445.874l-1.711 4.562c-1.701-1.341-4.902-4.707-4.1-7.445s2.636-4.028 3.453-4.331c-1.49-1.403-4.048-5.034-2.359-8.339 2.112-4.131 7.229-6.151 13.734-3.993s9.543 5.685 8.632 11.114c-.414 2.47-3.129 3.843-4.532 4.208.843 1.254 2.207 4.541.925 7.661s-6.68 3.684-9.218 3.576l2.004-4.593c.617-.144 1.831-.833 1.757-2.436-.093-2.004-4.285-3.576-6.567-3.869-1.753-.225-2.852.478-3.037 2.097a1.69 1.69 0 0 0 1.017 1.788zm10.25-6.706c-1.706-.827-5.888-2.377-8.971-1.957-1.079-1.249-1.255-3.637.015-4.917 2.035-2.051 7.075-.864 9.911 1.325 2.269 1.751.308 4.429-.956 5.549z" fill="url(#K)"/><path d="M140.116 155.014c-3.688-4.741-5.268-6.19.79-12.643l-.79-.79c-.703.614-2.292 2.08-3.029 3.029-.922 1.185-2.766 3.951-1.581 6.585s5.136 6.453 5.927 8.429-1.581 3.424-5.268 4.609-3.161 2.898-2.898 5.268.395 3.161 2.371 5.268 5.531 3.161 8.824 5.4c2.634 1.791 5.751 1.8 6.98 1.58l2.371 3.425 4.082-2.503c.703.264 2.555.58 4.346-.263 2.239-1.054 8.429-2.634 12.644-2.634 3.371 0 6.146-4.566 7.112-6.849-.571-.614-2.292-2.528-4.61-5.268-2.897-3.424-.658-8.297 5.136-7.243l.198.036c5.661 1.029 8.426 1.532 13.894.491 4.426-.843 4.566-7.815 4.083-11.195l-1.844-.395c.044.527.132 2.239.132 4.873 0 3.292-3.293 6.848-11.985 5.136s-11.853.79-12.511 4.478c-.527 2.95 3.643 7.287 5.794 9.087-.834 1.054-3.029 3.188-5.136 3.293-2.634.132-3.951-.132-9.877-2.634-4.742-2.002-7.332-5.4-8.034-6.849-1.361.703-5.268 2.503-10.009 4.083-5.927 1.976-9.351 1.185-11.854-1.975s2.257-2.721 5.795-5.268c3.293-2.371 2.634-3.82-1.053-8.561z" fill="url(#L)"/></g><defs><linearGradient id="A" x1="131.939" y1="439.699" x2="327.381" y2="575.777" href="#Q"><stop stop-color="#bd7b49"/><stop offset="1" stop-color="#3c3024"/></linearGradient><linearGradient id="B" x1="12.87" y1="296.513" x2="294.709" y2="296.513" href="#Q"><stop stop-color="#fcf0d6"/><stop offset="1" stop-color="#ffc446"/></linearGradient><linearGradient id="C" x1="56.609" y1="77.471" x2="251.587" y2="77.471" href="#Q"><stop stop-color="#3c3024"/><stop offset="1" stop-color="#bd7b49"/></linearGradient><linearGradient id="D" x1="109.034" y1="327.806" x2="301.875" y2="327.806" href="#Q"><stop stop-color="#3c3024"/><stop offset="1" stop-color="#bd7b49"/></linearGradient><linearGradient id="E" x1="278.332" y1="246.661" x2="307.67" y2="246.661" href="#Q"><stop stop-color="#fcf0d6"/><stop offset="1" stop-color="#ffc446"/></linearGradient><linearGradient id="F" x1="280.13" y1="242.341" x2="320.412" y2="242.341" href="#Q"><stop stop-color="#3c3024"/><stop offset="1" stop-color="#bd7b49"/></linearGradient><linearGradient id="G" x1="267.757" y1="412.554" x2="317.878" y2="412.554" href="#Q"><stop stop-color="#fcf0d6"/><stop offset="1" stop-color="#ffc446"/></linearGradient><linearGradient id="H" x1="79.255" y1="222.625" x2="108.515" y2="224.76" href="#Q"><stop stop-color="#fcf0d6"/><stop offset="1" stop-color="#ffc446"/></linearGradient><linearGradient id="I" x1="108.442" y1="212.785" x2="68.755" y2="219.687" href="#Q"><stop stop-color="#3c3024"/><stop offset="1" stop-color="#bd7b49"/></linearGradient><linearGradient id="J" x1="33.627" y1="373.615" x2="80.556" y2="391.212" href="#Q"><stop stop-color="#fcf0d6"/><stop offset="1" stop-color="#ffc446"/></linearGradient><linearGradient id="K" x1="45.717" y1="434.615" x2="68.441" y2="443.136" href="#Q"><stop stop-color="#3c3024"/><stop offset="1" stop-color="#bd7b49"/></linearGradient><linearGradient id="L" x1="133.08" y1="163.377" x2="200.888" y2="163.377" href="#Q"><stop stop-color="#3c3024"/><stop offset="1" stop-color="#bd7b49"/></linearGradient><path id="M" d="M299.998 245.36l.791 6.585c.526.132 1.87.185 3.029-.658l3.292-2.503c-.527.615-1.501 2.555-1.185 5.4s1.624 4.083 2.239 4.346c-.615.615-1.607 2.187-.659 3.556s2.415 1.712 3.029 1.712c-.219.439-.684 2.081-.79 5.137s-2.59 3.029-3.819 2.634c.351-.615.843-2.002 0-2.634-1.054-.79-2.371.395-2.371 1.712s.791 3.819 4.61 3.556 7.507-6.322 9.219-9.088 1.449-7.902 2.502-10.272c.843-1.897-1.668-3.951-3.029-4.742l3.029-2.634c1.449-1.185-1.712-4.477-1.053-5.663s-.395-3.556 1.053-4.741c1.159-.948-1.887-4.522-3.556-6.19.747-.088 2.424-.421 3.161-1.053s.922-2.108.922-2.766c-.395.351-2.028.606-5.4-1.186s-5.18-1.536-5.663-1.185c.307-.658.738-2.423 0-4.214-.922-2.239-2.107-3.293-4.873-5.137-2.212-1.475-2.941-3.863-3.029-4.873-1.317 1.493-3.951 5.084-3.951 7.507s.79 3.644 1.185 3.951h-1.712l1.712 3.951c-.658.571-2.212 2.16-3.16 3.952s-1.537 3.292-1.713 3.819l3.688-.922c-.263 1.097-.263 3.872 1.844 6.19s1.317 5.268.658 6.453z"/><path id="N" d="M289.067 252.34l-.658-5.399c-2.634-1.317-1.475-3.477 0-3.688 1.843-.263 2.502 1.317 2.502 4.873s-.395 4.609 1.844 8.165-.527 8.298.527 11.327c.843 2.423 4.39 2.678 6.058 2.502-.702-.176-2.292-1.185-3.029-3.819-.922-3.293 1.317-4.61 2.107-8.429s-3.292-4.215-1.712-11.326-3.424-11.722-10.273-11.063-7.243 8.033-5.268 12.116c1.581 3.266 5.927 4.522 7.902 4.741z"/><path id="O" d="M89.385 219.164l.35 6.623c-.496.22-1.811.502-3.097-.13l-3.673-1.901c.624.515 1.917 2.26 2.093 5.117s-.901 4.301-1.461 4.665c.711.501 1.958 1.879 1.258 3.391s-2.086 2.1-2.691 2.206c.291.395 1.031 1.932 1.659 4.925s3.071 2.54 4.214 1.94c-.451-.545-1.173-1.827-.451-2.595.903-.959 2.403-.017 2.629 1.281s-.124 3.898-3.932 4.293-8.479-4.942-10.64-7.373-2.781-7.537-4.225-9.693c-1.155-1.724.967-4.178 2.172-5.19l-3.436-2.076c-1.63-.919.92-4.705.068-5.76s-.22-3.571-1.85-4.49c-1.304-.736 1.085-4.779 2.443-6.708-.75.041-2.46 0-3.295-.496s-1.269-1.919-1.382-2.567c.449.278 2.102.249 5.117-2.093s4.84-2.401 5.376-2.138c-.416-.596-1.142-2.261-.722-4.152.525-2.364 1.512-3.605 3.921-5.896 1.927-1.832 2.236-4.31 2.15-5.319 1.553 1.244 4.764 4.331 5.179 6.719s-.154 3.725-.491 4.095l1.687-.293-1.01 4.186c.747.449 2.55 1.749 3.791 3.351s2.078 2.981 2.341 3.47l-3.791-.277c.447 1.036.923 3.77-.756 6.414s-.395 5.416.457 6.471z"/><path id="P" d="M101.35 224.168l-.276-5.432c2.369-1.749.857-3.679-.632-3.634-1.862.057-2.24 1.727-1.631 5.23s1.179 4.474-.418 8.361 1.94 8.084 1.421 11.249c-.415 2.532-3.866 3.39-5.54 3.503.662-.293 2.055-1.56 2.33-4.282.344-3.402-2.087-4.316-3.52-7.943s2.522-4.716-.254-11.452 1.365-12.135 8.226-12.659 8.513 6.674 7.266 11.034c-.998 3.489-5.064 5.471-6.973 6.025z"/><linearGradient id="Q" gradientUnits="userSpaceOnUse"/></defs></svg>