<svg width="345" height="448" viewBox="0 0 345 448" fill="none" xmlns="http://www.w3.org/2000/svg">
<path d="M133.662 488.218C109.165 478.34 135.11 396.949 145.778 364.946C151.051 349.128 172.777 354.12 187.001 360.336C204.78 368.107 207.809 417.231 216.897 446.995C225.984 476.76 230.067 470.702 239.549 477.682C249.032 484.662 250.744 494.013 262.465 497.569C274.187 501.125 287.752 508.632 300.263 519.958C312.775 531.284 337.271 536.42 347.281 530.626C357.29 524.831 362.031 528.782 348.993 542.347C335.954 555.912 320.677 554.99 295.786 550.117C270.894 545.244 265.099 545.244 247.978 544.718C230.857 544.191 230.725 542.61 215.843 532.469C200.961 522.328 185.157 522.46 177.123 516.534C169.089 510.607 158.158 498.095 133.662 488.218Z" fill="url(#paint0_linear_24_9524)" stroke="#F2C78B" stroke-width="0.91191"/>
<path d="M27.5119 62.2966C36.731 57.9505 46.7785 45.5258 61.7541 40.0392C64.9923 38.8528 67.233 38.0373 70.1831 37.4051C73.8707 36.6149 86.3823 40.0392 91.3869 45.3072C95.3906 49.5216 101.835 60.6723 104.557 65.7209C105.83 64.6234 109.114 62.7444 112.064 64.0088C115.752 65.5892 112.327 71.2523 114.04 74.018C115.409 76.2306 116.103 80.7348 116.278 82.7103C120.142 87.8466 128.764 99.4363 132.346 104.704C136.824 111.289 157.764 130.913 175.412 140.527C193.06 150.141 261.018 156.199 281.958 158.307C302.899 160.414 292.889 174.374 287.885 174.638C282.88 174.901 265.496 170.95 241.131 170.423C216.766 169.896 197.933 176.877 188.846 184.515C179.758 192.154 173.568 205.192 169.617 229.952C165.666 254.712 202.39 397.399 207.02 426.582C214.001 470.57 215.581 518.641 215.844 526.806C216.108 534.971 224.8 540.24 227.961 543.269C231.122 546.298 230.463 552.224 226.117 554.463C221.771 556.702 216.635 553.146 214.001 552.619C211.367 552.093 205.177 552.619 198.592 553.673C193.324 554.516 191.216 553.322 190.821 552.619C189.811 552.488 186.976 552.672 183.709 554.463C179.627 556.702 176.071 556.307 172.778 550.644C169.486 544.981 170.671 539.976 172.778 535.893C174.885 531.811 176.071 532.864 181.866 533.918C186.501 534.761 192.753 536.464 195.299 537.21C195.738 537.035 197.327 536.13 200.172 533.918C203.728 531.152 205.572 515.085 203.333 498.095C201.542 484.504 178.661 401.734 166.983 361.785C157.501 411.963 139.063 507.578 140.643 517.455C142.084 526.462 144.067 529.967 148.545 535.103C153.023 540.24 155.262 544.454 153.418 547.22C151.574 549.985 149.599 552.093 143.541 550.117C137.482 548.142 132.609 545.771 124.18 547.22C117.437 548.379 114.698 546.737 114.171 545.771C113.82 545.551 112.749 545.165 111.274 545.376C109.43 545.639 106.664 546.825 103.767 548.537C100.869 550.249 92.9674 550.512 91.782 538.132C90.5967 525.752 100.738 526.938 105.611 526.806C109.509 526.701 116.63 528.869 119.703 529.967C121.151 528.957 124.707 526.095 127.341 522.723C130.634 518.509 130.766 496.383 131.161 484.53C131.556 472.677 137.482 310.421 147.887 282.237C158.291 254.053 142.487 208.485 137.482 203.217C132.478 197.949 121.678 199.924 112.196 187.017C104.61 176.692 112.108 163.136 116.805 157.648C107.718 155.497 88.8846 149.957 86.2506 145.005C82.9581 138.815 88.0944 135.391 90.5967 135.391C92.5986 135.391 123.829 138.815 139.194 140.527C135.99 136.576 128.158 127.173 122.468 121.167C115.357 113.66 103.503 103.651 94.021 102.597C84.5385 101.544 61.6225 104.178 53.062 99.0412C46.2135 94.9321 49.1548 91.0953 51.4815 89.6904C49.9889 89.3831 46.793 88.2944 45.9501 86.3979C45.1072 84.5014 47.3549 83.3249 48.5841 82.9737C48.1012 82.3152 46.714 80.8928 45.0282 80.4714C42.921 79.9446 35.0189 81.3933 33.8336 77.0471C32.8854 73.5702 35.0189 71.2084 36.2042 70.4621C30.7606 71.7352 18.7933 73.6493 14.4735 71.1206C9.07375 67.9598 18.2928 66.6428 27.5119 62.2966Z" fill="url(#paint1_linear_24_9524)" stroke="#F2C78B" stroke-width="0.91191"/>
<path d="M95.809 52.2938C98.1244 56.4796 102.993 65.2819 104.556 66.1154C105.873 65.5886 108.929 64.0609 110.615 64.2716C112.722 64.535 113.512 65.5887 113.38 68.7494C113.249 71.9102 112.722 72.1737 114.302 75.8613C115.567 78.8114 115.883 82.2707 115.883 83.6317C116.278 84.5097 118.517 88.4782 124.312 97.3286C131.555 108.391 148.545 123.8 169.88 138.288C186.949 149.877 222.473 153.916 238.101 154.487C238.804 154.004 240.419 152.696 241.262 151.326C242.105 149.956 241.964 148.121 241.789 147.375C242.579 147.463 244.502 147.217 245.872 145.531C247.241 143.845 246.881 141.58 246.53 140.658C247.276 140.175 248.98 138.762 249.823 136.971C250.665 135.179 249.471 133.063 248.769 132.229C249.691 131.79 251.535 130.517 251.535 128.937C251.535 126.961 252.852 115.767 242.316 115.635C233.887 115.53 231.604 121.298 231.516 124.196C229.804 123.098 225.748 120.798 223.219 120.376C220.058 119.849 217.292 120.376 214.527 119.059C211.761 117.742 211.761 114.976 209.127 113.396C206.493 111.816 201.62 112.738 199.645 111.816C197.669 110.894 196.22 109.84 194.64 106.284C193.376 103.439 187.879 100.094 185.289 98.7773C186.826 97.9871 190.531 95.6691 193.059 92.719C195.588 89.7689 196.659 84.2902 196.879 81.9195C197.23 82.2268 199.592 85.1594 200.962 86.5291C202.674 88.2412 211.366 97.1969 220.058 93.7726C230.941 89.4854 212.156 94.036 213.605 76.9149C214.017 72.0452 216.897 65.9837 222.297 61.2425C227.697 56.5013 226.643 47.809 227.697 41.619C228.75 35.4291 227.697 34.7706 234.809 34.3755C241.921 33.9804 232.965 28.0538 223.482 28.0538C215.896 28.0538 210.137 30.2489 208.205 31.3464C208.117 28.8879 206.467 22.8648 200.566 18.4397C193.191 12.9082 181.47 8.29869 168.168 11.1961C157.527 13.5141 151.618 23.576 149.993 28.3172C147.447 26.4734 139.246 21.8112 126.814 17.9129C114.381 14.0145 104.952 13.3033 101.791 13.435C102.01 11.9863 102.317 8.03531 101.791 3.82088C101.132 -1.44716 98.2348 -0.130154 97.9714 5.00618C97.7606 9.11525 92.8789 13.5667 90.4644 15.2789C90.1571 14.2691 89.0684 12.4868 87.1719 13.435C84.8013 14.6203 87.1719 16.0691 86.1183 17.5178C85.0647 18.9665 85.7232 18.308 77.9528 21.7322C71.7365 24.4716 71.236 26.8246 71.7628 27.6588H69.3922C68.4703 27.6588 66.4948 27.132 66.3631 28.0539C66.2578 28.7914 67.5484 30.4684 68.2069 31.2147C67.5923 31.2147 65.968 31.5044 64.3876 32.6634C62.8072 33.8224 62.6755 35.6047 62.8072 36.3511C61.7975 36.1755 59.5936 35.9296 58.8561 36.3511C57.9342 36.8779 56.4855 37.9315 56.6172 40.5655C56.7489 43.1995 58.3293 44.3848 61.4901 45.0433C64.0188 45.5701 65.3533 44.297 65.7045 43.5946C66.7581 44.5604 69.4448 46.2023 71.7628 45.0433C74.6602 43.5946 73.6066 41.8825 78.8746 40.5655C84.1427 39.2485 88.3571 47.1505 90.0692 49.7846C91.4389 51.8918 94.4153 52.243 95.7323 52.1552L95.809 52.2938Z" fill="url(#paint2_linear_24_9524)" stroke="#F2C78B" stroke-width="0.91191"/>
<path fill-rule="evenodd" clip-rule="evenodd" d="M109.034 179.51C110.746 189.52 116.541 193.602 119.57 195.314C121.994 196.684 124.004 197.465 124.707 197.685C123.214 199.002 119.57 202.268 116.936 204.797C113.644 207.958 114.302 213.884 116.936 215.333C119.57 216.782 121.151 218.362 119.57 224.42C118.43 228.793 119.965 230.696 121.106 232.109C121.545 232.654 121.926 233.126 122.073 233.639C122.262 234.302 121.669 235.663 120.947 237.317C119.661 240.266 117.968 244.147 119.57 246.678C119.836 247.097 120.087 247.482 120.32 247.841C122.29 250.867 123.062 252.054 121.414 256.292C119.57 261.033 122.863 264.589 124.707 265.248C125.409 265.499 125.576 266.438 125.813 267.767C126.197 269.926 126.764 273.112 130.106 276.047C134.426 279.84 136.209 280.701 136.56 280.657C134.76 282.5 130.949 288.085 130.106 295.671C129.537 300.794 126.469 302.457 123.27 304.191C120.548 305.667 117.731 307.194 116.278 310.948C115.889 311.952 115.503 312.906 115.135 313.813C112.512 320.288 110.849 324.391 116.278 327.279C121.23 329.913 125.19 331.713 126.551 332.283C125.585 338.298 122.6 351.512 118.385 356.253C113.117 362.18 114.039 369.16 118.385 370.345C121.862 371.293 124.136 372.496 124.838 372.979C126.419 381.32 128.631 399.688 124.838 406.431C121.436 412.479 122.917 422.325 124.024 429.692C124.46 432.591 124.838 435.106 124.838 436.854C124.838 439.813 123.363 444.007 121.823 448.385C120.143 453.163 118.385 458.16 118.385 462.009C118.385 467.909 120.492 473.862 121.546 476.101C123.521 472.852 128.816 465.486 134.189 462.009C138.628 459.136 140.019 456.322 141.211 453.906C141.823 452.667 142.383 451.533 143.277 450.551C144.335 449.387 145.627 448.648 147.042 447.839C149.149 446.634 151.528 445.273 153.813 442.122C155.663 439.569 156.586 436.831 157.451 434.267C158.37 431.54 159.223 429.009 161.056 427.108C163.901 424.158 168.739 417.362 170.802 414.333C172.426 415.431 176.096 418.837 177.782 423.684C179.54 428.738 183.132 431.226 186.109 433.288C186.701 433.698 187.268 434.091 187.791 434.483C188.654 435.13 189.497 435.66 190.323 436.178C192.524 437.56 194.604 438.866 196.615 442.122C198.743 445.566 201.65 446.673 204.556 447.78C205.429 448.112 206.301 448.444 207.152 448.839C210.839 450.551 216.088 454.353 217.819 455.951C219.531 457.531 221.814 461.614 222.034 462.272C223.131 460.033 221.902 451.42 219.268 441.2C217.583 434.662 218.451 429.607 219.276 424.8C220.063 420.214 220.811 415.854 219.268 410.645C218.098 406.697 217.09 404.174 216.305 402.208C214.97 398.862 214.278 397.131 214.527 392.734C214.843 387.15 216.59 383.12 217.424 381.803C218.171 382.549 220.796 384.121 225.326 384.437C230.557 384.802 233.204 384.268 238.248 383.25C238.665 383.166 239.098 383.079 239.55 382.988C242.451 382.408 244.184 382.68 246.032 382.97C247.959 383.272 250.011 383.593 253.642 382.988C257.476 382.349 258.516 381.021 259.465 379.809C260.276 378.772 261.021 377.821 263.388 377.457C268.524 376.667 270.368 375.481 274.846 368.501C276.027 366.661 277.262 365.067 278.263 363.777C281.058 360.173 282.022 358.93 274.846 361.258C266.817 363.862 265.134 363.158 259.415 360.768C258.192 360.257 256.784 359.668 255.091 359.019C250.251 357.163 246.28 357.242 242.957 357.308C239.679 357.373 237.033 357.426 234.809 355.594C231.226 352.644 228.751 343.302 227.96 339C228.663 340.581 231.016 344.031 234.809 345.19C235.139 345.291 235.462 345.389 235.78 345.486C240.031 346.777 243.277 347.762 247.32 350.458C249.544 351.941 251.906 351.872 254.23 351.803C256.447 351.738 258.629 351.674 260.622 352.96C263.441 354.779 268.394 354.086 272.708 353.483C274.642 353.213 276.448 352.96 277.875 352.96C278.844 352.96 279.703 353.013 280.497 353.061C283.481 353.243 285.561 353.37 289.201 350.458C293.811 346.77 304.083 336.761 301.449 329.254C300.213 325.729 299.934 326.124 298.814 327.713C297.549 329.507 295.209 332.824 289.201 333.732C277.875 335.444 267.207 329.781 262.071 321.352C260.067 318.064 259.346 316.179 258.782 314.704C257.9 312.397 257.401 311.093 252.983 306.997C248.665 302.992 248.091 301.843 247.021 299.699C246.295 298.246 245.342 296.336 242.843 292.773C240.211 289.022 238.127 287.674 236.459 286.596C234.203 285.138 232.708 284.172 231.648 278.418C229.804 268.408 226.512 261.297 216.107 265.248C205.703 269.199 205.308 269.199 197.669 267.223C194.929 266.514 192.765 266.501 190.873 266.489C187.491 266.467 184.98 266.451 181.602 262.482C176.334 256.292 172.119 246.809 172.646 233.639C173.067 223.103 174.929 213.094 175.807 209.406C178.572 209.45 184.841 208.353 187.791 203.612C190.742 198.87 188.362 189.212 187.133 185.173C182.523 191.363 179.231 195.183 172.646 194.392C169.577 194.024 166.865 192.58 163.721 190.907C160.166 189.014 156.058 186.827 150.257 185.568C139.326 183.198 136.165 183.198 127.868 184.383C121.23 185.331 112.546 181.53 109.034 179.51ZM146.306 243.78C147.359 236.616 144.198 226.22 142.486 221.918C141.916 222.445 140.379 224.078 138.799 226.396C137.754 227.928 137.962 228.466 138.311 229.372C138.623 230.18 139.047 231.281 138.799 233.639C138.519 236.297 137.794 237.543 137.155 238.64C136.591 239.61 136.095 240.462 136.033 242.068C135.964 243.855 136.398 245.284 136.79 246.578C137.15 247.764 137.476 248.837 137.35 249.97C137.231 251.039 136.818 251.76 136.376 252.531C135.837 253.47 135.256 254.484 135.111 256.292C134.968 258.084 136.384 259.368 137.663 260.528C138.734 261.499 139.709 262.383 139.589 263.404C139.482 264.315 138.96 265.225 138.495 266.039C137.816 267.225 137.256 268.203 138.272 268.672C139.642 269.304 141.652 270.691 142.486 271.306C142.486 270.516 142.697 267.645 143.54 262.482C144.219 258.325 144.624 255.479 145.179 251.587C145.485 249.437 145.837 246.967 146.306 243.78Z" fill="url(#paint3_linear_24_9524)" stroke="#F2C78B" stroke-width="0.91191"/>
<path d="M281.56 199.793C277.214 167.526 276.029 159.492 285.906 159.097C289.065 158.971 292.044 159.966 293.94 161.863C296.048 163.97 296.179 165.814 296.443 183.067C296.706 200.32 299.34 232.455 301.184 254.712C303.028 276.97 304.345 304.758 307.242 320.299C310.14 335.84 297.496 336.498 294.072 331.362C290.648 326.226 291.175 312.66 291.175 287.506C291.175 262.351 285.906 232.059 281.56 199.793Z" fill="url(#paint4_linear_24_9524)" stroke="#F2C78B" stroke-width="0.91191"/>
<path d="M299.998 245.36L300.789 251.945C301.315 252.077 302.659 252.13 303.818 251.287C304.977 250.444 306.496 249.267 307.11 248.784C306.583 249.399 305.609 251.339 305.925 254.184C306.241 257.029 307.549 258.267 308.164 258.53C307.549 259.145 306.557 260.717 307.505 262.086C308.454 263.456 309.92 263.798 310.534 263.798C310.315 264.237 309.85 265.879 309.744 268.935C309.639 271.99 307.154 271.964 305.925 271.569C306.276 270.954 306.768 269.567 305.925 268.935C304.871 268.145 303.554 269.33 303.554 270.647C303.554 271.964 304.345 274.466 308.164 274.203C311.983 273.939 315.671 267.881 317.383 265.115C319.095 262.35 318.832 257.213 319.885 254.843C320.728 252.946 318.217 250.892 316.856 250.101C317.383 249.619 318.726 248.416 319.885 247.467C321.334 246.282 318.173 242.99 318.832 241.804C319.49 240.619 318.437 238.248 319.885 237.063C321.044 236.115 317.998 232.541 316.329 230.873C317.076 230.785 318.753 230.452 319.49 229.82C320.228 229.187 320.412 227.712 320.412 227.054C320.017 227.405 318.384 227.66 315.012 225.868C311.641 224.077 309.832 224.332 309.349 224.683C309.656 224.025 310.087 222.26 309.349 220.469C308.427 218.23 307.242 217.176 304.476 215.332C302.264 213.857 301.535 211.469 301.447 210.459C300.13 211.952 297.496 215.543 297.496 217.966C297.496 220.39 298.286 221.61 298.681 221.917H296.969L298.681 225.868C298.023 226.439 296.469 228.028 295.521 229.82C294.572 231.611 293.984 233.112 293.808 233.639L297.496 232.717C297.233 233.814 297.233 236.589 299.34 238.907C301.447 241.225 300.657 244.175 299.998 245.36Z" fill="url(#paint5_linear_24_9524)"/>
<path d="M289.067 252.34L288.409 246.941C285.775 245.624 286.934 243.464 288.409 243.253C290.252 242.99 290.911 244.57 290.911 248.126C290.911 251.682 290.516 252.735 292.755 256.291C294.994 259.847 292.228 264.589 293.282 267.618C294.125 270.041 297.672 270.296 299.34 270.12C298.638 269.944 297.048 268.935 296.311 266.301C295.389 263.008 297.628 261.691 298.418 257.872C299.208 254.052 295.126 253.657 296.706 246.546C298.286 239.434 293.282 234.824 286.433 235.483C279.585 236.141 279.19 243.516 281.165 247.599C282.746 250.865 287.092 252.121 289.067 252.34Z" fill="url(#paint6_linear_24_9524)"/>
<path d="M299.998 245.36L300.789 251.945C301.315 252.077 302.659 252.13 303.818 251.287C304.977 250.444 306.496 249.267 307.11 248.784C306.583 249.399 305.609 251.339 305.925 254.184C306.241 257.029 307.549 258.267 308.164 258.53C307.549 259.145 306.557 260.717 307.505 262.086C308.454 263.456 309.92 263.798 310.534 263.798C310.315 264.237 309.85 265.879 309.744 268.935C309.639 271.99 307.154 271.964 305.925 271.569C306.276 270.954 306.768 269.567 305.925 268.935C304.871 268.145 303.554 269.33 303.554 270.647C303.554 271.964 304.345 274.466 308.164 274.203C311.983 273.939 315.671 267.881 317.383 265.115C319.095 262.35 318.832 257.213 319.885 254.843C320.728 252.946 318.217 250.892 316.856 250.101C317.383 249.619 318.726 248.416 319.885 247.467C321.334 246.282 318.173 242.99 318.832 241.804C319.49 240.619 318.437 238.248 319.885 237.063C321.044 236.115 317.998 232.541 316.329 230.873C317.076 230.785 318.753 230.452 319.49 229.82C320.228 229.187 320.412 227.712 320.412 227.054C320.017 227.405 318.384 227.66 315.012 225.868C311.641 224.077 309.832 224.332 309.349 224.683C309.656 224.025 310.087 222.26 309.349 220.469C308.427 218.23 307.242 217.176 304.476 215.332C302.264 213.857 301.535 211.469 301.447 210.459C300.13 211.952 297.496 215.543 297.496 217.966C297.496 220.39 298.286 221.61 298.681 221.917H296.969L298.681 225.868C298.023 226.439 296.469 228.028 295.521 229.82C294.572 231.611 293.984 233.112 293.808 233.639L297.496 232.717C297.233 233.814 297.233 236.589 299.34 238.907C301.447 241.225 300.657 244.175 299.998 245.36Z" stroke="#F2C78B" stroke-width="0.91191"/>
<path d="M289.067 252.34L288.409 246.941C285.775 245.624 286.934 243.464 288.409 243.253C290.252 242.99 290.911 244.57 290.911 248.126C290.911 251.682 290.516 252.735 292.755 256.291C294.994 259.847 292.228 264.589 293.282 267.618C294.125 270.041 297.672 270.296 299.34 270.12C298.638 269.944 297.048 268.935 296.311 266.301C295.389 263.008 297.628 261.691 298.418 257.872C299.208 254.052 295.126 253.657 296.706 246.546C298.286 239.434 293.282 234.824 286.433 235.483C279.585 236.141 279.19 243.516 281.165 247.599C282.746 250.865 287.092 252.121 289.067 252.34Z" stroke="#F2C78B" stroke-width="0.91191"/>
<path d="M299.869 385.753C294.865 347.824 293.548 336.366 293.548 321.088C293.548 317.347 299.053 316.9 302.635 318.059C307.113 319.508 309.484 328.068 310.142 347.165C310.801 366.262 316.464 446.336 317.649 467.013C318.835 487.69 315.279 489.402 309.879 492.958C304.479 496.514 301.977 499.675 296.445 501.782C292.02 503.468 290.036 500.114 289.597 498.226C288.192 498.226 284.303 498.647 279.983 500.333C274.615 502.428 270.619 505.925 269.208 507.16L269.183 507.182C268.13 508.104 266.944 507.84 268.525 503.494C270.105 499.148 274.978 494.407 283.934 490.719C292.889 487.031 308.167 484.134 309.879 480.183C311.591 476.232 304.874 423.683 299.869 385.753Z" fill="url(#paint7_linear_24_9524)" stroke="#F2C78B" stroke-width="0.91191"/>
<path d="M85.8848 176.116C83.8978 143.619 83.3003 135.52 93.1803 135.844C96.3399 135.948 99.2382 137.158 100.992 139.187C102.94 141.442 102.937 143.291 101.945 160.517C100.952 177.743 101.241 209.985 101.461 232.317C101.68 254.65 100.972 282.461 102.731 298.171C104.49 313.882 91.8325 313.619 88.791 308.247C85.7496 302.875 87.2619 289.384 89.0921 264.296C90.9222 239.208 87.8719 208.613 85.8848 176.116Z" fill="url(#paint8_linear_24_9524)" stroke="#F2C78B" stroke-width="0.91191"/>
<path d="M89.3845 219.164L89.7342 225.787C89.2378 226.007 87.9233 226.289 86.6371 225.657C85.3508 225.025 83.6528 224.127 82.9645 223.756C83.5888 224.271 84.8814 226.016 85.0574 228.873C85.2334 231.73 84.1566 233.174 83.5962 233.538C84.307 234.039 85.5537 235.417 84.8542 236.929C84.1546 238.441 82.7687 239.029 82.1632 239.135C82.4546 239.53 83.1944 241.067 83.8217 244.06C84.449 247.052 86.8925 246.6 88.0358 246C87.5845 245.455 86.8624 244.173 87.5845 243.405C88.4872 242.446 89.9878 243.388 90.2134 244.686C90.4391 245.984 90.0892 248.584 86.2813 248.979C82.4733 249.374 77.8022 244.037 75.6416 241.606C73.481 239.174 72.8605 234.069 71.4163 231.913C70.261 230.189 72.383 227.735 73.5884 226.723C72.9866 226.338 71.4571 225.383 70.1528 224.647C68.5224 223.728 71.0724 219.942 70.2206 218.887C69.3687 217.832 70.0006 215.316 68.3703 214.397C67.066 213.661 69.4554 209.618 70.8131 207.689C70.0628 207.73 68.3534 207.689 67.5185 207.193C66.6836 206.696 66.2492 205.274 66.1364 204.626C66.5858 204.904 68.2384 204.875 71.2532 202.533C74.2681 200.191 76.0936 200.132 76.6296 200.395C76.214 199.799 75.4878 198.134 75.9075 196.243C76.4322 193.879 77.4195 192.638 79.8284 190.347C81.7556 188.515 82.0644 186.037 81.9779 185.028C83.5312 186.272 86.7415 189.359 87.1566 191.747C87.5718 194.134 87.0024 195.472 86.6658 195.842L88.3526 195.549L87.3427 199.735C88.0892 200.184 89.8926 201.484 91.1337 203.086C92.3748 204.688 93.2116 206.067 93.4748 206.556L89.6838 206.279C90.1313 207.315 90.6066 210.049 88.9277 212.693C87.2488 215.338 88.5327 218.109 89.3845 219.164Z" fill="url(#paint9_linear_24_9524)"/>
<path d="M101.35 224.168L101.074 218.736C103.443 216.987 101.931 215.057 100.442 215.102C98.5802 215.159 98.2022 216.829 98.8114 220.332C99.4206 223.835 99.9904 224.806 98.3938 228.693C96.7972 232.58 100.334 236.777 99.8152 239.942C99.4 242.474 95.9489 243.332 94.2753 243.445C94.9372 243.152 96.3299 241.885 96.6052 239.163C96.9494 235.761 94.518 234.847 93.0851 231.22C91.6522 227.592 95.6069 226.504 92.8314 219.768C90.056 213.032 94.1969 207.633 101.057 207.109C107.917 206.584 109.57 213.783 108.323 218.143C107.325 221.632 103.259 223.614 101.35 224.168Z" fill="url(#paint10_linear_24_9524)"/>
<path d="M89.3845 219.164L89.7342 225.787C89.2378 226.007 87.9233 226.289 86.6371 225.657C85.3508 225.025 83.6528 224.127 82.9645 223.756C83.5888 224.271 84.8814 226.016 85.0574 228.873C85.2334 231.73 84.1566 233.174 83.5962 233.538C84.307 234.039 85.5537 235.417 84.8542 236.929C84.1546 238.441 82.7687 239.029 82.1632 239.135C82.4546 239.53 83.1944 241.067 83.8217 244.06C84.449 247.052 86.8925 246.6 88.0358 246C87.5845 245.455 86.8624 244.173 87.5845 243.405C88.4872 242.446 89.9878 243.388 90.2134 244.686C90.4391 245.984 90.0892 248.584 86.2813 248.979C82.4733 249.374 77.8022 244.037 75.6416 241.606C73.481 239.174 72.8605 234.069 71.4163 231.913C70.261 230.189 72.383 227.735 73.5884 226.723C72.9866 226.338 71.4571 225.383 70.1528 224.647C68.5224 223.728 71.0724 219.942 70.2206 218.887C69.3687 217.832 70.0006 215.316 68.3703 214.397C67.066 213.661 69.4554 209.618 70.8131 207.689C70.0628 207.73 68.3534 207.689 67.5185 207.193C66.6836 206.696 66.2492 205.274 66.1364 204.626C66.5858 204.904 68.2384 204.875 71.2532 202.533C74.2681 200.191 76.0936 200.132 76.6296 200.395C76.214 199.799 75.4878 198.134 75.9075 196.243C76.4322 193.879 77.4195 192.638 79.8284 190.347C81.7556 188.515 82.0644 186.037 81.9779 185.028C83.5312 186.272 86.7415 189.359 87.1566 191.747C87.5718 194.134 87.0024 195.472 86.6658 195.842L88.3526 195.549L87.3427 199.735C88.0892 200.184 89.8926 201.484 91.1337 203.086C92.3748 204.688 93.2116 206.067 93.4748 206.556L89.6838 206.279C90.1313 207.315 90.6066 210.049 88.9277 212.693C87.2488 215.338 88.5327 218.109 89.3845 219.164Z" stroke="#F2C78B" stroke-width="0.91191"/>
<path d="M101.35 224.168L101.074 218.736C103.443 216.987 101.931 215.057 100.442 215.102C98.5802 215.159 98.2022 216.829 98.8114 220.332C99.4206 223.835 99.9904 224.806 98.3938 228.693C96.7972 232.58 100.334 236.777 99.8152 239.942C99.4 242.474 95.9489 243.332 94.2753 243.445C94.9372 243.152 96.3299 241.885 96.6052 239.163C96.9494 235.761 94.518 234.847 93.0851 231.22C91.6522 227.592 95.6069 226.504 92.8314 219.768C90.056 213.032 94.1969 207.633 101.057 207.109C107.917 206.584 109.57 213.783 108.323 218.143C107.325 221.632 103.259 223.614 101.35 224.168Z" stroke="#F2C78B" stroke-width="0.91191"/>
<path d="M73.1043 359.795C81.7355 322.522 84.5253 311.332 89.8892 297.027C91.2027 293.524 96.5145 295.038 99.4618 297.381C103.146 300.31 102.36 309.158 96.2717 327.27C90.1834 345.382 67.3717 422.347 61.2217 442.124C55.0718 461.9 51.1411 462.255 44.8365 463.689C38.5319 465.122 35.0794 467.203 29.1603 467.234C24.4249 467.259 23.7446 463.422 23.9963 461.5C22.6809 461.007 18.891 460.036 14.2543 460.098C8.4932 460.175 3.52317 462.046 1.76911 462.707L1.73778 462.718C0.427629 463.212 -0.589801 462.549 2.41594 459.034C5.42168 455.52 11.649 452.791 21.3293 452.483C31.0096 452.174 46.3315 454.825 49.3219 451.727C52.3122 448.629 64.473 397.067 73.1043 359.795Z" fill="url(#paint11_linear_24_9524)" stroke="#F2C78B" stroke-width="0.91191"/>
<path fill-rule="evenodd" clip-rule="evenodd" d="M52.0799 445.874L50.369 450.436C48.6682 449.095 45.4671 445.729 46.2686 442.991C47.0701 440.254 48.9043 438.963 49.7213 438.66C48.2312 437.257 45.6734 433.626 47.3627 430.321C49.4744 426.19 54.592 424.17 61.0969 426.328C67.6019 428.486 70.6396 432.013 69.7293 437.442C69.3151 439.912 66.6002 441.285 65.1975 441.65C66.0402 442.904 67.4049 446.191 66.1225 449.311C64.8401 452.431 59.443 452.995 56.9048 452.887L58.9086 448.294C59.5251 448.15 60.7398 447.461 60.6657 445.858C60.5732 443.854 56.3805 442.282 54.0991 441.989C52.3465 441.764 51.2475 442.467 51.0625 444.086C50.9392 445.165 51.71 445.735 52.0799 445.874ZM62.3304 439.168C60.6245 438.341 56.442 436.791 53.3591 437.211C52.2801 435.962 52.104 433.574 53.3744 432.294C55.4091 430.243 60.4496 431.43 63.2859 433.619C65.555 435.37 63.5943 438.048 62.3304 439.168Z" fill="url(#paint12_linear_24_9524)" stroke="#F2C78B" stroke-width="0.91191"/>
<path d="M140.116 155.014C136.428 150.273 134.848 148.824 140.906 142.371L140.116 141.581C139.413 142.195 137.824 143.661 137.087 144.61C136.165 145.795 134.321 148.561 135.506 151.195C136.691 153.829 140.642 157.648 141.433 159.624C142.223 161.599 139.852 163.048 136.165 164.233C132.477 165.418 133.004 167.131 133.267 169.501C133.531 171.872 133.662 172.662 135.638 174.769C137.613 176.876 141.169 177.93 144.462 180.169C147.096 181.96 150.213 181.969 151.442 181.749L153.813 185.174L157.895 182.671C158.598 182.935 160.45 183.251 162.241 182.408C164.48 181.354 170.67 179.774 174.885 179.774C178.256 179.774 181.031 175.208 181.997 172.925C181.426 172.311 179.705 170.397 177.387 167.657C174.49 164.233 176.729 159.36 182.523 160.414L182.721 160.45C188.382 161.479 191.147 161.982 196.615 160.941C201.041 160.098 201.181 153.126 200.698 149.746L198.854 149.351C198.898 149.878 198.986 151.59 198.986 154.224C198.986 157.516 195.693 161.072 187.001 159.36C178.309 157.648 175.148 160.15 174.49 163.838C173.963 166.788 178.133 171.125 180.284 172.925C179.45 173.979 177.255 176.113 175.148 176.218C172.514 176.35 171.197 176.086 165.271 173.584C160.529 171.582 157.939 168.184 157.237 166.735C155.876 167.438 151.969 169.238 147.228 170.818C141.301 172.794 137.877 172.003 135.374 168.843C132.872 165.682 137.631 166.122 141.169 163.575C144.462 161.204 143.803 159.755 140.116 155.014Z" fill="url(#paint13_linear_24_9524)" stroke="#F2C78B" stroke-width="0.91191"/>
<defs>
<linearGradient id="paint0_linear_24_9524" x1="131.939" y1="439.699" x2="327.381" y2="575.777" gradientUnits="userSpaceOnUse">
<stop stop-color="#BD7B49"/>
<stop offset="1" stop-color="#3C3024"/>
</linearGradient>
<linearGradient id="paint1_linear_24_9524" x1="12.8698" y1="296.513" x2="294.709" y2="296.513" gradientUnits="userSpaceOnUse">
<stop stop-color="#FCF0D6"/>
<stop offset="1" stop-color="#FFC446"/>
</linearGradient>
<linearGradient id="paint2_linear_24_9524" x1="56.6088" y1="77.4714" x2="251.587" y2="77.4714" gradientUnits="userSpaceOnUse">
<stop stop-color="#3C3024"/>
<stop offset="1" stop-color="#BD7B49"/>
</linearGradient>
<linearGradient id="paint3_linear_24_9524" x1="109.034" y1="327.806" x2="301.875" y2="327.806" gradientUnits="userSpaceOnUse">
<stop stop-color="#3C3024"/>
<stop offset="1" stop-color="#BD7B49"/>
</linearGradient>
<linearGradient id="paint4_linear_24_9524" x1="278.332" y1="246.661" x2="307.67" y2="246.661" gradientUnits="userSpaceOnUse">
<stop stop-color="#FCF0D6"/>
<stop offset="1" stop-color="#FFC446"/>
</linearGradient>
<linearGradient id="paint5_linear_24_9524" x1="280.13" y1="242.341" x2="320.412" y2="242.341" gradientUnits="userSpaceOnUse">
<stop stop-color="#3C3024"/>
<stop offset="1" stop-color="#BD7B49"/>
</linearGradient>
<linearGradient id="paint6_linear_24_9524" x1="280.13" y1="242.341" x2="320.412" y2="242.341" gradientUnits="userSpaceOnUse">
<stop stop-color="#3C3024"/>
<stop offset="1" stop-color="#BD7B49"/>
</linearGradient>
<linearGradient id="paint7_linear_24_9524" x1="267.757" y1="412.554" x2="317.878" y2="412.554" gradientUnits="userSpaceOnUse">
<stop stop-color="#FCF0D6"/>
<stop offset="1" stop-color="#FFC446"/>
</linearGradient>
<linearGradient id="paint8_linear_24_9524" x1="79.2554" y1="222.625" x2="108.515" y2="224.76" gradientUnits="userSpaceOnUse">
<stop stop-color="#FCF0D6"/>
<stop offset="1" stop-color="#FFC446"/>
</linearGradient>
<linearGradient id="paint9_linear_24_9524" x1="108.442" y1="212.785" x2="68.7554" y2="219.687" gradientUnits="userSpaceOnUse">
<stop stop-color="#3C3024"/>
<stop offset="1" stop-color="#BD7B49"/>
</linearGradient>
<linearGradient id="paint10_linear_24_9524" x1="108.442" y1="212.785" x2="68.7554" y2="219.687" gradientUnits="userSpaceOnUse">
<stop stop-color="#3C3024"/>
<stop offset="1" stop-color="#BD7B49"/>
</linearGradient>
<linearGradient id="paint11_linear_24_9524" x1="33.6268" y1="373.615" x2="80.556" y2="391.212" gradientUnits="userSpaceOnUse">
<stop stop-color="#FCF0D6"/>
<stop offset="1" stop-color="#FFC446"/>
</linearGradient>
<linearGradient id="paint12_linear_24_9524" x1="45.7167" y1="434.615" x2="68.4413" y2="443.136" gradientUnits="userSpaceOnUse">
<stop stop-color="#3C3024"/>
<stop offset="1" stop-color="#BD7B49"/>
</linearGradient>
<linearGradient id="paint13_linear_24_9524" x1="133.08" y1="163.377" x2="200.888" y2="163.377" gradientUnits="userSpaceOnUse">
<stop stop-color="#3C3024"/>
<stop offset="1" stop-color="#BD7B49"/>
</linearGradient>
</defs>
</svg>
