<svg width="467" height="430" viewBox="0 0 467 430" fill="none" xmlns="http://www.w3.org/2000/svg">
<path d="M146.654 106.971C142.781 98.6842 132.548 83.4608 122.603 88.8655C110.172 95.6215 110.172 94.5405 109.091 92.3786C108.01 90.2167 114.496 86.1632 114.766 84.5417C115.037 82.9203 113.415 80.2179 110.983 81.8394C108.551 83.4608 105.849 90.7572 103.416 91.5679C100.984 92.3786 98.2819 98.3239 93.6878 95.3513C90.0126 92.9732 92.5168 87.6945 94.2283 85.3525C94.3182 85.6227 94.336 85.4606 93.6878 82.6501C93.0396 79.8396 93.778 78.2362 94.2283 77.7858C93.3276 77.1553 92.283 75.0834 95.3097 71.8406C98.1775 68.7679 99.4926 68.5258 99.8526 68.8154C98.8665 67.7721 97.5663 64.7405 99.9037 60.4906C102.876 55.0859 107.2 57.2478 108.551 53.1942C109.903 49.1406 112.605 49.1406 113.686 49.1406C114.766 49.1406 125.847 33.4669 145.033 28.6026C160.383 24.7112 168.364 25.5399 170.436 26.4407C174.489 12.5685 190.974 -10.798 224.483 6.71335C257.993 24.2247 240.247 48.0597 227.186 57.7883C230.609 62.2021 236.806 72.3811 234.212 77.7858C231.618 83.1906 231.329 87.2442 231.509 88.5954C235.887 89.4466 243.356 89.1682 250.696 92.6489C255.684 95.0138 260.051 101.329 264.749 105.08C268.502 108.076 273.03 110.307 275.828 114.268C277.748 116.984 278.199 121.18 280.152 125.077C281.755 128.275 285.781 130.736 287.449 134.536C296.637 152.101 292.69 157.427 297.718 168.856C301.22 176.817 307.379 178.648 312.581 187.773C316.189 194.101 314.835 199.76 318.256 204.798C321.933 210.214 329.934 210.14 334.2 214.526C337.885 218.315 339.63 227.051 343.118 230.47C346.89 234.169 354.007 236.378 357.44 239.658C362.788 244.767 364.078 251.194 368.25 255.332C372.417 259.466 377.576 261.238 380.14 264.458C383.68 268.903 385.489 272.502 385.004 275.33C383.383 284.788 387.437 292.355 361.223 288.571C357.038 287.967 348.233 288.919 343.118 286.68C339.161 284.948 337.419 278.669 333.119 276.14C328.627 273.499 318.322 272.179 313.662 268.844C307.423 264.379 308.41 257.15 302.312 251.819C297.457 247.575 287.602 246.908 283.125 242.361C278.835 238.004 280.622 230.045 276.909 225.606C272.798 220.69 265.701 217.674 262.587 212.905C241.238 180.206 216.646 136.427 189.893 118.051C178.613 110.303 170.615 105.891 158.994 96.4322C159.805 84.2715 151.184 77.1607 148.996 77.7858C145.212 78.8668 147.736 78.5966 147.195 85.893C146.763 91.7301 146.654 102.377 146.654 106.971Z" fill="url(#paint0_linear_24_9508)" stroke="#F2C78B" stroke-width="0.91191"/>
<path d="M397.706 310.46C403.327 305.055 404.14 284.01 392.842 280.734C387.724 279.25 383.221 278.734 379.33 282.626C374.466 287.49 376.357 291.003 367.71 293.165C359.062 295.327 359.062 306.407 353.117 305.596C347.172 304.785 337.984 307.217 335.281 297.218C332.579 287.22 323.391 285.868 319.067 275.059C314.743 264.249 309.068 263.439 301.772 265.601C294.475 267.763 296.637 265.601 289.611 265.601C282.585 265.601 286.909 269.924 272.586 265.601C258.263 261.277 243.671 266.411 235.564 275.059C233.936 276.795 235.866 287.069 230.386 289.382C227.485 290.606 223.619 290.463 222.322 289.382C220.701 288.03 222.322 278.572 223.403 273.438C224.484 268.303 224.484 266.952 220.971 265.601C217.458 264.249 217.458 263.979 219.62 262.358C221.782 260.736 223.133 257.494 220.16 254.251C217.188 251.008 216.107 249.116 218.269 246.684C220.431 244.252 218.809 241.009 216.647 237.496C214.485 233.983 216.107 234.794 219.35 232.361C222.593 229.929 223.133 224.254 216.918 215.607C210.702 206.959 200.433 202.906 196.92 205.067C193.407 207.229 192.326 211.013 193.407 216.417C194.488 221.822 195.839 221.552 196.109 222.903C196.38 224.254 193.947 226.146 193.407 231.821C192.974 236.361 196.83 240.198 198.812 241.55C198.091 241.73 196.325 243.063 195.028 246.954C193.407 251.819 196.65 255.332 200.162 258.034C203.675 260.736 201.514 261.007 200.162 264.79C198.811 268.573 204.756 270.735 206.378 275.059C207.999 279.383 207.459 279.383 210.431 283.707C212.81 287.166 220.066 299.506 222.322 310.46C225.792 327.307 216.105 398.535 216.647 446.93C217.458 519.354 233.402 510.976 260.425 519.354C287.449 527.731 280.423 541.243 323.661 543.405C366.899 545.567 363.386 557.728 409.597 549.891C455.807 542.054 453.645 526.65 443.917 528.542C434.188 530.434 425.811 529.082 403.922 516.381C382.032 503.68 382.032 500.978 365.818 494.222C349.604 487.466 345.821 472.332 328.525 466.657C311.23 460.982 300.691 425.311 294.746 408.827C288.8 392.342 295.556 387.748 300.691 385.856C305.825 383.965 306.366 388.289 313.662 389.099C320.959 389.91 322.31 381.262 328.525 383.424C334.741 385.586 338.524 376.398 343.118 374.506C347.712 372.615 347.172 365.318 353.117 361.265C359.062 357.211 354.468 352.347 356.9 349.645C359.332 346.942 361.224 342.618 370.953 339.916C380.681 337.214 385.816 324.783 387.437 320.729C389.059 316.676 390.68 317.216 397.706 310.46Z" fill="url(#paint1_linear_24_9508)" stroke="#F2C78B" stroke-width="0.91191"/>
<path d="M85.5814 119.132C89.689 103.35 92.6976 95.8016 93.6885 94C95.4902 93.5497 99.8503 92.1624 102.877 90.2167C106.66 87.7846 109.092 78.5965 114.497 81.5691C119.902 84.5417 107.471 89.406 110.444 92.6489C113.416 95.8917 118.821 84.812 129.901 85.6227C138.764 86.2713 144.764 99.585 146.655 106.161C145.124 96.7024 143.413 77.0832 148.817 74.2727C152.287 72.4685 158.276 85.6227 160.167 96.4322C173.949 102.107 198.726 111.056 219.89 121.835C263.398 143.994 273.937 138.319 305.015 141.021C336.092 143.724 357.441 131.293 359.603 144.534C361.764 157.776 341.497 156.425 308.798 160.478C276.099 164.532 272.046 175.342 262.317 189.664C252.716 203.799 252.853 208.459 253.378 226.242L253.399 226.957C253.94 245.333 287.179 336.944 292.043 369.642C296.908 402.341 312.041 484.223 311.5 510.436C310.96 536.649 322.04 538 324.742 547.729C327.444 557.458 318.797 556.377 313.662 553.674C308.528 550.972 298.529 551.242 291.773 552.053C286.368 552.701 284.296 550.521 283.936 549.35C280.063 551.602 271.559 555.62 268.533 553.674C264.749 551.242 265.29 536.92 268.533 531.245C271.775 525.57 275.559 529.893 283.125 532.866C290.692 535.839 292.313 536.649 295.827 532.866C299.34 529.083 301.502 529.893 295.827 511.517C290.152 493.141 259.885 392.072 255.291 394.234C250.697 396.396 244.481 525.57 249.075 529.893C253.669 534.217 260.696 540.433 259.885 543.675C259.074 546.918 258.534 550.972 250.697 547.729C242.86 544.486 230.699 544.486 214.485 547.729C198.271 550.972 198.811 547.459 196.109 538C193.406 528.542 200.433 522.327 206.378 521.246C212.323 520.165 224.754 528.542 227.186 528.542C229.618 528.542 231.24 526.11 230.699 516.111C230.159 506.112 215.566 442.336 218.809 358.833C222.052 275.33 243.941 278.032 230.699 245.874C217.458 213.715 199.081 214.526 184.759 201.284C173.301 190.691 179.985 171.468 184.759 163.181C181.966 162.911 175.409 162.262 171.517 161.83C166.653 161.289 150.709 165.073 150.168 153.182C149.628 141.292 163.951 144.264 176.382 143.454C186.326 142.805 197.1 140.301 201.243 139.13C193.226 132.554 174.328 119.294 162.87 118.862C148.547 118.321 140.17 129.131 126.658 136.698C115.848 142.751 112.245 135.977 111.795 131.833C110.804 132.914 108.228 134.86 105.85 133.995C103.471 133.13 104.318 130.392 105.039 129.131C103.792 129.9 102.711 132.02 98.9276 132.602C95.0051 133.206 93.433 130.44 92.9826 128.278L92.9508 128.367C91.6738 131.925 88.8261 139.859 83.5248 142.601C75.6878 146.655 80.4469 138.859 85.5814 119.132Z" fill="url(#paint2_linear_24_9508)" stroke="#F2C78B" stroke-width="0.91191"/>
<path d="M196.209 195.455C182.157 196.32 178.644 190.23 178.644 184.645C178.013 184.105 177.293 185.186 179.455 193.833C181.991 203.98 187.862 207.46 193.042 210.53L193.042 210.531C193.381 210.731 193.716 210.93 194.047 211.129C196.04 212.081 201.891 215.121 209.349 219.661C216.808 224.201 220.091 229.556 220.801 231.667C221.161 232.297 222.314 234.207 224.044 236.801C225.235 238.588 226.344 240.703 227.507 242.92L227.507 242.92C228.454 244.727 229.437 246.601 230.529 248.422C232.095 251.03 231.645 252.072 231.126 253.276C230.838 253.942 230.529 254.658 230.529 255.718C230.529 256.765 230.663 257.744 230.79 258.669C231.022 260.37 231.23 261.884 230.529 263.285C229.763 264.817 230.083 268.388 230.431 272.263L230.431 272.263C230.574 273.853 230.721 275.494 230.799 277.067C231.07 282.471 229.989 285.174 227.286 290.849C226.253 293.019 225.931 294.398 225.716 295.32C225.368 296.809 223.79 296.444 222.591 297.219C220.898 298.314 218.936 299.543 218.369 300.191C217.802 300.84 218.132 302.701 218.369 303.55C219.18 306.252 216.207 311.657 211.072 314.9C205.938 318.143 204.857 326.79 211.072 333.276C215.085 337.463 215.043 338.046 214.873 340.406C214.779 341.701 214.647 343.532 215.126 346.788C215.779 351.227 214.918 370.362 214.006 390.633C213.03 412.321 211.995 435.31 212.694 442.993C214.045 457.856 217.828 499.357 219.45 508.004C222.186 522.597 236.931 527.191 245.663 527.191C257.722 527.191 253.5 512.984 250.797 509.471C248.095 505.958 246.744 502.985 254.851 504.066C262.958 505.147 259.175 497.04 254.851 492.176C250.527 487.312 255.391 485.96 259.175 485.96C262.958 485.96 267.282 475.447 259.175 472.178C251.068 468.91 263.769 462.45 263.769 467.584C263.769 472.719 266.741 477.313 274.308 477.853C279.927 478.255 280.926 474.036 281.29 472.502C281.416 471.97 281.465 471.761 281.604 472.178C281.631 472.258 281.667 472.37 281.713 472.51C282.595 475.235 286.951 488.694 291.063 484.069C292.736 482.187 295.703 481.478 299.199 480.643C304.737 479.32 311.599 477.681 316.735 470.557C322.653 462.349 316.705 450.5 311.463 440.059C309.285 435.718 307.228 431.621 306.196 428.129C304.691 423.035 304.128 414.073 303.467 403.536C302.584 389.478 301.526 372.619 297.819 358.408C293.784 342.941 289.226 336.574 286.943 333.384C285.557 331.447 285.009 330.682 285.928 329.763C286.869 328.822 287.001 326.508 287.138 324.117V324.116C287.354 320.324 287.582 316.338 291.063 317.332C296.738 318.953 298.9 312.198 299.71 306.523C300.121 303.649 302.263 302.716 304.945 301.547C307.56 300.408 310.687 299.045 313.222 295.443C315.579 292.094 315.146 290.169 314.746 288.386C314.274 286.284 313.846 284.381 318.087 280.58C325.923 273.554 315.384 264.366 308.088 266.527C305.006 267.44 302.311 267.197 299.878 266.977C296.551 266.676 293.717 266.42 291.063 269.23C286.469 274.094 269.444 270.04 271.876 264.366C274.308 258.691 268.633 252.745 263.499 250.583C258.364 248.421 257.013 236.531 256.202 223.83C255.722 216.308 258.464 212.767 260.949 209.558C262.66 207.349 263.607 199.776 263.937 196.69C264.748 189.124 262.316 187.502 259.073 194.529C257.304 198.361 249.716 198.698 239.177 197.347C228.638 195.995 213.775 194.374 196.209 195.455Z" fill="url(#paint3_linear_24_9508)" stroke="#F2C78B" stroke-width="0.91191"/>
<path d="M205.028 151.021C200.704 146.698 199.984 141.653 200.164 139.671H202.055C202.325 141.743 203.947 147.292 208.27 152.913C213.675 159.939 209.892 161.831 204.217 163.452C198.542 165.074 196.748 167.943 199.353 171.559C203.439 177.234 205.568 176.316 208 173.721C210.432 171.127 218.81 172.64 219.08 171.559C219.296 170.695 222.773 167.776 224.485 166.425C224.935 167.055 226.701 168.695 230.16 170.208C234.483 172.1 239.077 171.559 242.05 173.181C245.023 174.802 245.023 170.478 250.427 169.668C255.832 168.857 254.751 165.074 252.86 163.993C250.968 162.912 244.212 163.452 240.699 158.588C237.186 153.724 248.536 150.751 250.427 149.13C251.941 147.833 251.959 139.041 251.779 134.807L254.751 135.888C254.571 139.311 253.941 146.86 252.86 149.67C251.508 153.183 242.05 153.724 243.131 157.507C244.212 161.29 246.104 158.588 254.211 161.831C262.318 165.074 256.913 163.723 256.102 171.559C255.292 179.396 251.779 180.477 239.888 185.342C227.998 190.206 216.107 188.584 207.46 186.152C198.812 183.72 195.84 175.343 195.299 169.127C194.759 162.912 201.244 163.182 205.838 161.02C210.432 158.858 210.433 156.426 205.028 151.021Z" fill="url(#paint4_linear_24_9508)" stroke="#F2C78B" stroke-width="0.91191"/>
<path d="M163.575 202.846C148.981 155.014 149.112 153.123 151.685 148.528C155.468 141.773 163.577 145.124 165.739 150.961C168.441 158.257 168.169 166.094 178.708 205.819C189.248 245.544 206.004 290.674 205.734 298.24C205.464 305.807 198.167 308.509 191.411 303.915C184.655 299.321 187.088 292.025 183.845 278.783C180.602 265.541 180.888 259.591 163.575 202.846Z" fill="url(#paint5_linear_24_9508)" stroke="#F2C78B" stroke-width="0.91191"/>
<path d="M13.3232 377.961C24.5651 377.961 30.9787 385.528 32.7803 389.311C32.5099 391.653 31.2669 396.284 32.7803 398.229C35.5127 401.742 38.7252 400.391 42.5085 401.742C46.2918 403.094 65.2085 409.579 74.3965 400.391C83.5846 391.203 165.467 331.751 187.356 316.618C209.245 301.484 204.921 301.754 205.462 298.512C206.002 295.269 203.03 289.864 198.165 289.594C193.301 289.324 189.788 292.296 187.356 295.809C184.924 299.322 176.546 306.348 152.495 326.346C128.444 346.344 84.9358 381.475 64.1275 394.176C58.8471 397.399 51.9668 381.475 43.8597 374.719C35.7526 367.963 14.1339 363.098 5.48627 370.665C-3.16133 378.232 -0.729191 377.961 13.3232 377.961Z" fill="url(#paint6_linear_24_9508)" stroke="#F2C78B" stroke-width="0.91191"/>
<path d="M70.6128 389.852L66.5593 392.554C66.0188 390.933 65.4243 386.609 67.37 383.366C69.8021 379.313 74.6664 377.421 83.0438 386.069C91.4211 394.716 85.4759 401.472 81.4223 403.634C78.1795 405.364 74.3061 402.914 72.7747 401.472L77.639 397.689C77.9993 398.319 79.5308 399.31 81.4223 397.689C83.7163 395.723 81.4223 390.663 75.7473 387.42C71.4918 384.988 70.793 387.69 70.6128 389.852Z" fill="url(#paint7_linear_24_9508)" stroke="#F2C78B" stroke-width="0.91191"/>
<path d="M84.665 380.123L80.8819 383.096C79.2606 381.204 77.0987 376.513 80.87 372.46C84.0899 368.999 88.1664 366.515 96.5438 375.162C104.921 383.81 98.9759 390.566 94.9223 392.728C91.6795 394.457 87.8061 392.007 86.2747 390.566L91.139 386.783C91.4993 387.413 93.0308 388.404 94.9223 386.783C97.2162 384.816 94.9223 379.756 89.2473 376.513C84.9918 374.082 83.3143 377.15 84.665 380.123Z" fill="url(#paint8_linear_24_9508)" stroke="#F2C78B" stroke-width="0.91191"/>
<path d="M333.408 493.016C339.897 483.836 349.777 482.966 353.907 483.678C355.663 485.251 358.727 488.938 361.189 488.826C365.635 488.622 366.386 485.219 369.673 482.909C372.96 480.6 389.175 468.896 386.975 456.09C384.776 443.283 383.49 342.102 383.766 315.493C384.043 288.883 381.768 292.57 379.432 290.257C377.095 287.943 370.966 287.251 367.938 291.067C364.909 294.884 365.309 299.468 366.774 303.482C368.239 307.496 369.141 318.392 371.589 349.575C374.037 380.758 377.611 436.565 375.973 460.888C375.557 467.06 358.582 463.487 348.385 466.208C338.189 468.929 321.738 483.775 322.926 495.204C324.113 506.633 325.297 504.491 333.408 493.016Z" fill="url(#paint9_linear_24_9508)" stroke="#F2C78B" stroke-width="0.91191"/>
<path d="M376.388 452.004L376.146 456.699C374.499 456.241 370.582 454.317 368.98 450.891C366.978 446.609 368.128 441.518 379.981 439.404C391.834 437.291 394.114 445.997 393.641 450.566C393.263 454.222 389.066 456.065 387.015 456.529L386.563 451.442C387.288 451.495 389.016 450.529 388.729 448.054C388.38 445.053 382.884 443.316 377.024 446.21C372.629 448.38 374.296 451.542 376.388 452.004Z" fill="url(#paint10_linear_24_9508)" stroke="#F2C78B" stroke-width="0.91191"/>
<path d="M376.302 434.961L376.307 439.535C373.833 439.822 368.735 438.994 367.481 433.601C366.411 428.996 366.629 424.227 378.482 422.114C390.335 420 392.615 428.706 392.142 433.276C391.764 436.932 387.864 438.452 385.813 438.916L385.545 432.976C386.27 433.029 387.499 432.428 387.212 429.953C386.863 426.952 381.386 426.026 375.525 428.919C371.13 431.089 373.082 434.42 376.302 434.961Z" fill="url(#paint11_linear_24_9508)" stroke="#F2C78B" stroke-width="0.91191"/>
<path d="M352.672 197.065C342.434 148.116 342.734 146.243 345.709 141.899C350.084 135.51 357.859 139.576 359.488 145.584C361.524 153.093 360.549 160.874 367.477 201.385C374.406 241.896 385.012 292.136 384.063 299.648C383.114 307.16 375.605 309.196 369.289 304.014C362.973 298.831 366.05 291.783 364.01 278.304C361.97 264.824 364.818 255.135 352.672 197.065Z" fill="url(#paint12_linear_24_9508)" stroke="#F2C78B" stroke-width="0.91191"/>
<path d="M359.6 234.794L358.789 227.767C357.889 225.786 356.628 221.822 358.789 221.822C361.491 221.822 361.492 227.767 362.032 233.983C362.573 240.198 364.194 238.036 364.735 243.982C365.275 249.927 365.005 252.629 369.869 255.061C374.733 257.494 371.761 253.98 369.869 252.629C367.978 251.278 366.897 248.846 368.518 245.063C370.139 241.279 367.978 238.307 366.086 233.983C364.194 229.659 367.167 230.2 366.086 222.363C365.005 214.526 351.763 214.255 351.493 223.984C351.277 231.767 356.808 234.433 359.6 234.794Z" fill="url(#paint13_linear_24_9508)"/>
<path d="M363.654 210.472C359.762 210.04 363.443 204.447 366.086 202.635C366.67 202.235 367.707 201.825 367.707 201.825C367.347 201.735 366.302 201.338 365.005 200.473C363.383 199.392 362.303 198.041 363.654 189.664C365.005 181.287 367.707 183.448 373.923 185.07C378.895 186.367 379.418 191.195 379.057 193.447C379.237 193.627 380.462 193.88 383.922 193.447C388.245 192.907 391.218 191.826 391.218 196.69C391.218 200.581 389.416 202.275 388.516 202.635C389.416 203.986 391.867 208.526 394.461 215.877C397.001 223.075 394.221 225.677 392.413 226.121C392.91 226.088 393.862 226.947 394.461 230.74C395.109 234.848 392.569 236.055 391.218 236.145C391.128 237.586 390.461 241.387 388.516 245.063C386.083 249.657 382.03 252.629 379.598 255.061C377.166 257.494 378.517 251.008 379.598 249.116C380.679 247.224 377.976 245.873 378.517 242.36C379.057 238.847 384.192 240.469 380.949 238.307C378.355 236.577 377.166 232.542 376.895 230.74C375.274 232.542 371.815 235.875 370.95 234.794C369.869 233.442 373.653 227.767 369.869 222.363C366.957 218.202 367.648 212.373 368.426 209.692C368.108 210.219 366.891 210.832 363.654 210.472Z" fill="url(#paint14_linear_24_9508)"/>
<path d="M359.6 234.794L358.789 227.767C357.889 225.786 356.628 221.822 358.789 221.822C361.491 221.822 361.492 227.767 362.032 233.983C362.573 240.198 364.194 238.036 364.735 243.982C365.275 249.927 365.005 252.629 369.869 255.061C374.733 257.494 371.761 253.98 369.869 252.629C367.978 251.278 366.897 248.846 368.518 245.063C370.139 241.279 367.978 238.307 366.086 233.983C364.194 229.659 367.167 230.2 366.086 222.363C365.005 214.526 351.763 214.255 351.493 223.984C351.277 231.767 356.808 234.433 359.6 234.794Z" stroke="#F2C78B" stroke-width="0.91191"/>
<path d="M363.654 210.472C359.762 210.04 363.443 204.447 366.086 202.635C366.67 202.235 367.707 201.825 367.707 201.825C367.347 201.735 366.302 201.338 365.005 200.473C363.383 199.392 362.303 198.041 363.654 189.664C365.005 181.287 367.707 183.448 373.923 185.07C378.895 186.367 379.418 191.195 379.057 193.447C379.237 193.627 380.462 193.88 383.922 193.447C388.245 192.907 391.218 191.826 391.218 196.69C391.218 200.581 389.416 202.275 388.516 202.635C389.416 203.986 391.867 208.526 394.461 215.877C397.001 223.075 394.221 225.677 392.413 226.121C392.91 226.088 393.862 226.947 394.461 230.74C395.109 234.848 392.569 236.055 391.218 236.145C391.128 237.586 390.461 241.387 388.516 245.063C386.083 249.657 382.03 252.629 379.598 255.061C377.166 257.494 378.517 251.008 379.598 249.116C380.679 247.224 377.976 245.873 378.517 242.36C379.057 238.847 384.192 240.469 380.949 238.307C378.355 236.577 377.166 232.542 376.895 230.74C375.274 232.542 371.815 235.875 370.95 234.794C369.869 233.442 373.653 227.767 369.869 222.363C366.957 218.202 367.648 212.373 368.426 209.692C368.108 210.219 366.891 210.832 363.654 210.472Z" stroke="#F2C78B" stroke-width="0.91191"/>
<path d="M185.947 231.984L183.751 225.26C183.743 223.083 183.235 218.955 181.27 219.858C178.814 220.985 181.295 226.388 183.398 232.262C185.501 238.136 183.126 236.848 185.116 242.476C187.106 248.104 188.479 250.447 185.074 254.688C181.669 258.928 182.904 254.495 184.059 252.478C185.214 250.46 185.181 247.799 182.129 245.038C179.076 242.276 179.8 238.673 179.715 233.954C179.629 229.235 177.153 230.967 174.865 223.394C172.576 215.821 184.497 210.049 188.803 218.777C192.248 225.759 188.334 230.491 185.947 231.984Z" fill="url(#paint15_linear_24_9508)"/>
<path d="M172.112 211.574C175.468 209.557 169.789 206.011 166.631 205.467C165.934 205.347 164.82 205.407 164.82 205.407C165.11 205.175 165.894 204.379 166.711 203.051C167.734 201.392 168.152 199.713 163.428 192.664C158.704 185.615 157.15 188.708 152.179 192.775C148.201 196.029 149.742 200.635 151.009 202.531C150.921 202.77 149.913 203.511 146.589 204.561C142.434 205.875 139.281 206.133 141.312 210.554C142.936 214.09 145.28 214.877 146.249 214.828C145.994 216.432 145.662 221.58 146.373 229.343C147.068 236.944 150.681 238.149 152.509 237.797C152.044 237.975 151.537 239.152 152.576 242.85C153.701 246.853 156.513 246.89 157.778 246.408C158.462 247.68 160.654 250.856 163.956 253.384C168.084 256.543 173.008 257.553 176.233 258.748C179.459 259.943 175.524 254.613 173.752 253.345C171.98 252.078 173.872 249.722 171.915 246.755C169.957 243.788 165.968 247.404 168.013 244.086C169.648 241.432 169.045 237.268 168.538 235.518C170.764 236.479 175.298 238.064 175.633 236.721C176.051 235.042 170.245 231.464 171.427 224.973C172.337 219.977 169.276 214.968 167.45 212.856C167.959 213.203 169.321 213.251 172.112 211.574Z" fill="url(#paint16_linear_24_9508)"/>
<path d="M185.947 231.984L183.751 225.26C183.743 223.083 183.235 218.955 181.27 219.858C178.814 220.985 181.295 226.388 183.398 232.262C185.501 238.136 183.126 236.848 185.116 242.476C187.106 248.104 188.479 250.447 185.074 254.688C181.669 258.928 182.904 254.495 184.059 252.478C185.214 250.46 185.181 247.799 182.129 245.038C179.076 242.276 179.8 238.673 179.715 233.954C179.629 229.235 177.153 230.967 174.865 223.394C172.576 215.821 184.497 210.049 188.803 218.777C192.248 225.759 188.334 230.491 185.947 231.984Z" stroke="#F2C78B" stroke-width="0.91191"/>
<path d="M172.112 211.574C175.468 209.557 169.789 206.011 166.631 205.467C165.934 205.347 164.82 205.407 164.82 205.407C165.11 205.175 165.894 204.379 166.711 203.051C167.734 201.392 168.152 199.713 163.428 192.664C158.704 185.615 157.15 188.708 152.179 192.775C148.201 196.029 149.742 200.635 151.009 202.531C150.921 202.77 149.913 203.511 146.589 204.561C142.434 205.875 139.281 206.133 141.312 210.554C142.936 214.09 145.28 214.877 146.249 214.828C145.994 216.432 145.662 221.58 146.373 229.343C147.068 236.944 150.681 238.149 152.509 237.797C152.044 237.975 151.537 239.152 152.576 242.85C153.701 246.853 156.513 246.89 157.778 246.408C158.462 247.68 160.654 250.856 163.956 253.384C168.084 256.543 173.008 257.553 176.233 258.748C179.459 259.943 175.524 254.613 173.752 253.345C171.98 252.078 173.872 249.722 171.915 246.755C169.957 243.788 165.968 247.404 168.013 244.086C169.648 241.432 169.045 237.268 168.538 235.518C170.764 236.479 175.298 238.064 175.633 236.721C176.051 235.042 170.245 231.464 171.427 224.973C172.337 219.977 169.276 214.968 167.45 212.856C167.959 213.203 169.321 213.251 172.112 211.574Z" stroke="#F2C78B" stroke-width="0.91191"/>
<defs>
<linearGradient id="paint0_linear_24_9508" x1="91.7924" y1="145.011" x2="385.082" y2="145.011" gradientUnits="userSpaceOnUse">
<stop stop-color="#3C3024"/>
<stop offset="1" stop-color="#BD7B49"/>
</linearGradient>
<linearGradient id="paint1_linear_24_9508" x1="193.006" y1="378.493" x2="449.613" y2="378.493" gradientUnits="userSpaceOnUse">
<stop stop-color="#BD7B49"/>
<stop offset="1" stop-color="#3C3024"/>
</linearGradient>
<linearGradient id="paint2_linear_24_9508" x1="79.3766" y1="314.828" x2="359.76" y2="314.828" gradientUnits="userSpaceOnUse">
<stop stop-color="#FCF0D6"/>
<stop offset="1" stop-color="#FFC446"/>
</linearGradient>
<linearGradient id="paint3_linear_24_9508" x1="178.002" y1="355.86" x2="320.856" y2="355.86" gradientUnits="userSpaceOnUse">
<stop stop-color="#3C3024"/>
<stop offset="1" stop-color="#BD7B49"/>
</linearGradient>
<linearGradient id="paint4_linear_24_9508" x1="195.267" y1="161.649" x2="258.617" y2="161.649" gradientUnits="userSpaceOnUse">
<stop stop-color="#3C3024"/>
<stop offset="1" stop-color="#BD7B49"/>
</linearGradient>
<linearGradient id="paint5_linear_24_9508" x1="150.36" y1="225.475" x2="205.737" y2="225.475" gradientUnits="userSpaceOnUse">
<stop stop-color="#FCF0D6"/>
<stop offset="1" stop-color="#FFC446"/>
</linearGradient>
<linearGradient id="paint6_linear_24_9508" x1="0.455933" y1="347.401" x2="205.525" y2="347.401" gradientUnits="userSpaceOnUse">
<stop stop-color="#FCF0D6"/>
<stop offset="1" stop-color="#FFC446"/>
</linearGradient>
<linearGradient id="paint7_linear_24_9508" x1="66.0305" y1="392.089" x2="87.2816" y2="392.089" gradientUnits="userSpaceOnUse">
<stop stop-color="#3C3024"/>
<stop offset="1" stop-color="#BD7B49"/>
</linearGradient>
<linearGradient id="paint8_linear_24_9508" x1="78.7772" y1="381.296" x2="100.782" y2="381.296" gradientUnits="userSpaceOnUse">
<stop stop-color="#3C3024"/>
<stop offset="1" stop-color="#BD7B49"/>
</linearGradient>
<linearGradient id="paint9_linear_24_9508" x1="301.025" y1="485.884" x2="419.391" y2="318.424" gradientUnits="userSpaceOnUse">
<stop stop-color="#FCF0D6"/>
<stop offset="1" stop-color="#FFC446"/>
</linearGradient>
<linearGradient id="paint10_linear_24_9508" x1="375.465" y1="456.877" x2="387.342" y2="439.255" gradientUnits="userSpaceOnUse">
<stop stop-color="#3C3024"/>
<stop offset="1" stop-color="#BD7B49"/>
</linearGradient>
<linearGradient id="paint11_linear_24_9508" x1="373.643" y1="440.278" x2="385.942" y2="422.031" gradientUnits="userSpaceOnUse">
<stop stop-color="#3C3024"/>
<stop offset="1" stop-color="#BD7B49"/>
</linearGradient>
<linearGradient id="paint12_linear_24_9508" x1="337.301" y1="220.385" x2="390.78" y2="225.208" gradientUnits="userSpaceOnUse">
<stop stop-color="#FCF0D6"/>
<stop offset="1" stop-color="#FFC446"/>
</linearGradient>
<linearGradient id="paint13_linear_24_9508" x1="351.487" y1="219.728" x2="395.482" y2="219.728" gradientUnits="userSpaceOnUse">
<stop stop-color="#3C3024"/>
<stop offset="1" stop-color="#BD7B49"/>
</linearGradient>
<linearGradient id="paint14_linear_24_9508" x1="351.487" y1="219.728" x2="395.482" y2="219.728" gradientUnits="userSpaceOnUse">
<stop stop-color="#3C3024"/>
<stop offset="1" stop-color="#BD7B49"/>
</linearGradient>
<linearGradient id="paint15_linear_24_9508" x1="187.032" y1="214.907" x2="147.052" y2="233.269" gradientUnits="userSpaceOnUse">
<stop stop-color="#3C3024"/>
<stop offset="1" stop-color="#BD7B49"/>
</linearGradient>
<linearGradient id="paint16_linear_24_9508" x1="187.032" y1="214.907" x2="147.052" y2="233.269" gradientUnits="userSpaceOnUse">
<stop stop-color="#3C3024"/>
<stop offset="1" stop-color="#BD7B49"/>
</linearGradient>
</defs>
</svg>
