<svg xmlns="http://www.w3.org/2000/svg" width="467" height="430" fill="none" viewBox="0 0 467 430"><path fill="url(#a)" stroke="#f2c78b" stroke-width=".91" d="M146.65 106.97c-3.87-8.29-14.1-23.51-24.05-18.1-12.43 6.75-12.43 5.67-13.51 3.51s5.41-6.22 5.68-7.84-1.35-4.32-3.79-2.7c-2.43 1.62-5.13 8.92-7.56 9.73-2.44.81-5.14 6.75-9.73 3.78-3.68-2.38-1.17-7.66.54-10 .09.27.11.11-.54-2.7s.09-4.41.54-4.86c-.9-.63-1.95-2.71 1.08-5.95 2.87-3.07 4.18-3.31 4.54-3.02-.98-1.05-2.28-4.08.05-8.33 2.98-5.4 7.3-3.24 8.65-7.3 1.35-4.05 4.06-4.05 5.14-4.05s12.16-15.67 31.34-20.54c15.35-3.89 23.33-3.06 25.41-2.16 4.05-13.87 20.53-37.24 54.04-19.73s15.77 41.35 2.71 51.08c3.42 4.41 9.62 14.59 7.02 20-2.59 5.4-2.88 9.45-2.7 10.81 4.38.85 11.85.57 19.19 4.05 4.98 2.36 9.35 8.68 14.05 12.43 3.75 3 8.28 5.23 11.08 9.19 1.92 2.71 2.37 6.91 4.32 10.81 1.6 3.2 5.63 5.66 7.3 9.46 9.19 17.56 5.24 22.89 10.27 34.32 3.5 7.96 9.66 9.79 14.86 18.91 3.61 6.33 2.25 11.99 5.68 17.03 3.67 5.41 11.67 5.34 15.94 9.73 3.68 3.78 5.43 12.52 8.92 15.94 3.77 3.7 10.89 5.91 14.32 9.19 5.35 5.11 6.64 11.53 10.81 15.67s9.33 5.91 11.89 9.13c3.54 4.44 5.35 8.04 4.86 10.87-1.62 9.46 2.44 17.03-23.78 13.24-4.18-.6-12.99.35-18.1-1.89-3.96-1.73-5.7-8.01-10-10.54-4.49-2.64-14.8-3.96-19.46-7.3-6.24-4.46-5.25-11.69-11.35-17.02-4.85-4.25-14.71-4.91-19.18-9.46-4.3-4.36-2.51-12.32-6.22-16.75-4.11-4.92-11.21-7.94-14.32-12.7-21.35-32.7-45.94-76.48-72.7-94.86-11.28-7.75-19.27-12.16-30.9-21.62.82-12.16-7.81-19.27-9.99-18.64-3.79 1.08-1.26.81-1.81 8.1-.43 5.84-.54 16.49-.54 21.08Z"/><path fill="url(#b)" stroke="#f2c78b" stroke-width=".91" d="M397.71 310.46c5.62-5.4 6.43-26.45-4.87-29.73-5.12-1.48-9.62-2-13.51 1.9-4.86 4.86-2.97 8.37-11.62 10.54-8.65 2.16-8.65 13.24-14.59 12.43-5.95-.81-15.14 1.62-17.84-8.38s-11.89-11.35-16.21-22.16c-4.33-10.81-10-11.62-17.3-9.46-7.29 2.16-5.13 0-12.16 0s-2.7 4.32-17.02 0c-14.33-4.32-28.92.81-37.03 9.46-1.62 1.74.31 12.01-5.17 14.32-2.9 1.23-6.77 1.08-8.07 0-1.62-1.35 0-10.81 1.08-15.94 1.08-5.14 1.08-6.49-2.43-7.84s-3.51-1.62-1.35-3.24 3.51-4.87.54-8.11-4.05-5.13-1.89-7.57c2.16-2.43.54-5.67-1.62-9.18-2.16-3.52-.54-2.71 2.7-5.14s3.78-8.11-2.43-16.75c-6.22-8.65-16.49-12.7-20-10.54s-4.59 5.94-3.51 11.35c1.08 5.4 2.43 5.13 2.7 6.48s-2.16 3.25-2.7 8.92c-.44 4.54 3.42 8.38 5.4 9.73-.72.18-2.49 1.51-3.78 5.4-1.62 4.87 1.62 8.38 5.13 11.08 3.52 2.71 1.35 2.98 0 6.76s4.6 5.95 6.22 10.27 1.08 4.32 4.05 8.65c2.38 3.46 9.64 15.8 11.89 26.75 3.47 16.85-6.22 88.08-5.67 136.47.81 72.42 16.75 64.05 43.78 72.42 27.02 8.38 19.99 21.89 63.23 24.05 43.24 2.17 39.73 14.33 85.94 6.49s44.04-23.24 34.32-21.35c-9.73 1.89-18.11.54-40-12.16s-21.89-15.4-38.1-22.16c-16.22-6.75-20-21.89-37.3-27.56-17.29-5.68-27.83-41.35-33.77-57.83-5.95-16.49.81-21.08 5.94-22.97 5.13-1.9 5.68 2.43 12.97 3.24 7.3.81 8.65-7.84 14.86-5.68 6.22 2.17 10-7.02 14.6-8.91 4.59-1.89 4.05-9.19 10-13.25 5.94-4.05 1.35-8.91 3.78-11.62 2.43-2.7 4.32-7.02 14.05-9.72 9.73-2.71 14.87-15.14 16.49-19.19s3.24-3.51 10.27-10.27Z"/><path fill="url(#c)" stroke="#f2c78b" stroke-width=".91" d="M85.58 119.13C89.69 103.35 92.7 95.8 93.69 94c1.8-.45 6.16-1.84 9.19-3.78 3.78-2.44 6.21-11.62 11.62-8.65 5.4 2.97-7.03 7.84-4.06 11.08 2.98 3.24 8.38-7.84 19.46-7.03 8.86.65 14.86 13.96 16.76 20.54-1.54-9.46-3.25-29.08 2.16-31.89 3.47-1.8 9.46 11.35 11.35 22.16 13.78 5.68 38.56 14.63 59.72 25.4 43.51 22.16 54.05 16.49 85.12 19.19 31.08 2.7 52.43-9.73 54.59 3.51 2.16 13.25-18.1 11.9-50.8 15.95s-36.75 14.86-46.48 29.18c-9.6 14.14-9.47 18.8-8.94 36.58l.02.72c.54 18.37 33.78 109.98 38.64 142.68 4.87 32.7 20 114.58 19.46 140.8-.54 26.21 10.54 27.56 13.24 37.29s-5.94 8.65-11.08 5.94c-5.13-2.7-15.13-2.43-21.89-1.62-5.4.65-7.47-1.53-7.83-2.7-3.88 2.25-12.38 6.27-15.41 4.32-3.78-2.43-3.24-16.75 0-22.42 3.24-5.68 7.03-1.36 14.6 1.62 7.56 2.97 9.18 3.78 12.7 0 3.51-3.79 5.67-2.98 0-21.35-5.68-18.38-35.95-119.45-40.54-117.29-4.59 2.17-10.81 131.34-6.22 135.66 4.6 4.33 11.63 10.54 10.81 13.78-.81 3.25-1.35 7.3-9.18 4.06-7.84-3.24-20-3.24-36.21 0-16.22 3.24-15.68-.27-18.38-9.73s4.32-15.67 10.27-16.75c5.94-1.09 18.37 7.29 20.81 7.29 2.43 0 4.05-2.43 3.51-12.43s-15.13-73.77-11.89-157.28c3.24-83.5 25.13-80.8 11.89-112.96-13.24-32.15-31.62-31.34-45.94-44.59-11.46-10.59-4.77-29.81 0-38.1-2.79-.27-9.35-.92-13.24-1.35-4.87-.54-20.81 3.24-21.35-8.65s13.78-8.92 26.21-9.73c9.95-.64 20.72-3.15 24.86-4.32-8.01-6.58-26.91-19.84-38.37-20.27-14.32-.54-22.7 10.27-36.21 17.84-10.81 6.05-14.41-.72-14.86-4.87-1 1.08-3.57 3.03-5.95 2.17-2.38-.87-1.53-3.61-.81-4.87-1.25.77-2.33 2.89-6.11 3.47-3.92.61-5.5-2.16-5.95-4.32l-.03.09c-1.28 3.56-4.12 11.49-9.43 14.23-7.83 4.06-3.07-3.74 2.06-23.47Z"/><path fill="url(#d)" stroke="#f2c78b" stroke-width=".91" d="M196.21 195.46c-14.05.86-17.57-5.23-17.57-10.81-.63-.55-1.35.54.82 9.18 2.53 10.15 8.4 13.63 13.58 16.7.34.2.68.4 1.01.6 1.99.95 7.84 3.99 15.3 8.53s10.74 9.9 11.45 12.01c.36.63 1.51 2.54 3.24 5.13 1.2 1.79 2.3 3.9 3.47 6.12.94 1.81 1.93 3.68 3.02 5.5 1.56 2.61 1.12 3.65.6 4.86-.29.66-.6 1.38-.6 2.44 0 1.04.13 2.02.26 2.95.23 1.7.44 3.21-.26 4.62-.77 1.53-.45 5.1-.1 8.97.14 1.59.29 3.23.37 4.81.27 5.4-.81 8.1-3.51 13.78-1.04 2.17-1.36 3.55-1.57 4.47-.35 1.49-1.93 1.12-3.13 1.9-1.69 1.09-3.65 2.32-4.22 2.97s-.24 2.51 0 3.36c.81 2.7-2.16 8.11-7.3 11.35-5.13 3.24-6.21 11.89 0 18.38 4.02 4.18 3.97 4.77 3.8 7.13-.09 1.29-.22 3.12.26 6.38.65 4.44-.21 23.57-1.12 43.84-.98 21.69-2.01 44.68-1.32 52.36 1.35 14.87 5.14 56.37 6.76 65.01 2.74 14.6 17.48 19.19 26.21 19.19 12.06 0 7.84-14.21 5.14-17.72-2.71-3.51-4.06-6.48 4.05-5.4s4.33-7.03 0-11.89c-4.32-4.87.54-6.22 4.33-6.22 3.78 0 8.1-10.51 0-13.78-8.11-3.27 4.59-9.73 4.59-4.6 0 5.14 2.97 9.73 10.54 10.27 5.62.4 6.62-3.81 6.98-5.35.13-.53.17-.74.31-.32.03.08.07.19.11.33.89 2.73 5.24 16.18 9.35 11.56 1.68-1.88 4.64-2.59 8.14-3.43 5.54-1.32 12.4-2.96 17.54-10.08 5.91-8.21-.04-20.06-5.28-30.5-2.17-4.34-4.23-8.44-5.26-11.93-1.51-5.09-2.07-14.06-2.73-24.59-.89-14.06-1.94-30.92-5.65-45.13-4.04-15.47-8.59-21.84-10.88-25.03-1.38-1.93-1.93-2.7-1.01-3.62.94-.94 1.07-3.25 1.21-5.64.21-3.8.44-7.78 3.92-6.79 5.68 1.62 7.84-5.13 8.65-10.81.41-2.87 2.55-3.8 5.23-4.97 2.62-1.14 5.75-2.5 8.28-6.11 2.36-3.35 1.93-5.27 1.53-7.05-.48-2.11-.9-4.01 3.34-7.81 7.83-7.03-2.71-16.21-10-14.05-3.08.91-5.78.67-8.21.45-3.33-.3-6.16-.56-8.82 2.25-4.59 4.86-21.62.81-19.18-4.86 2.43-5.68-3.25-11.62-8.38-13.79-5.14-2.16-6.49-14.05-7.3-26.75-.48-7.52 2.26-11.06 4.75-14.27 1.71-2.21 2.66-9.78 2.99-12.87.81-7.57-1.62-9.19-4.87-2.16-1.77 3.83-9.35 4.17-19.89 2.82s-25.4-2.98-42.97-1.89Z"/><path fill="url(#e)" stroke="#f2c78b" stroke-width=".91" d="M205.03 151.02c-4.33-4.32-5.05-9.37-4.87-11.35h1.9c.26 2.07 1.89 7.62 6.21 13.24 5.41 7.03 1.62 8.92-4.05 10.54-5.68 1.62-7.47 4.49-4.87 8.11 4.09 5.67 6.22 4.76 8.65 2.16 2.43-2.59 10.81-1.08 11.08-2.16.22-.87 3.69-3.78 5.41-5.13.45.63 2.21 2.26 5.67 3.78 4.32 1.89 8.92 1.35 11.89 2.97s2.97-2.7 8.38-3.51c5.4-.81 4.32-4.6 2.43-5.68s-8.65-.54-12.16-5.4c-3.51-4.87 7.84-7.84 9.73-9.46 1.51-1.3 1.53-10.09 1.35-14.32l2.97 1.08c-.18 3.42-.81 10.97-1.89 13.78-1.35 3.51-10.81 4.05-9.73 7.84 1.08 3.78 2.97 1.08 11.08 4.32s2.7 1.89 1.89 9.73-4.32 8.92-16.21 13.78c-11.89 4.87-23.78 3.24-32.43.81s-11.62-10.81-12.16-17.02c-.54-6.22 5.94-5.95 10.54-8.11 4.59-2.16 4.59-4.59-.81-10Z"/><path fill="url(#f)" stroke="#f2c78b" stroke-width=".91" d="M163.57 202.85c-14.59-47.84-14.46-49.73-11.88-54.32 3.78-6.76 11.89-3.41 14.05 2.43 2.7 7.3 2.43 15.13 12.97 54.86 10.54 39.72 27.29 84.85 27.02 92.42s-7.56 10.27-14.32 5.68c-6.75-4.6-4.32-11.9-7.57-25.14-3.24-13.24-2.95-19.19-20.27-75.93Z"/><path fill="url(#g)" stroke="#f2c78b" stroke-width=".91" d="M13.32 377.96c11.25 0 17.66 7.57 19.46 11.35-.27 2.34-1.51 6.97 0 8.92 2.73 3.51 5.95 2.16 9.73 3.51s22.7 7.84 31.89-1.35c9.18-9.19 91.07-68.64 112.96-83.77 21.89-15.14 17.56-14.87 18.1-18.11s-2.43-8.65-7.3-8.92c-4.86-.27-8.37 2.71-10.8 6.22-2.44 3.51-10.81 10.54-34.86 30.54-24.06 19.99-67.56 55.13-88.37 67.83-5.28 3.22-12.16-12.7-20.27-19.46s-29.73-11.62-38.37-4.05c-8.65 7.56-6.22 7.29 7.83 7.29Z"/><path fill="url(#h)" stroke="#f2c78b" stroke-width=".91" d="m70.61 389.85-4.05 2.7c-.54-1.62-1.14-5.94.81-9.18 2.43-4.06 7.3-5.95 15.67 2.7 8.38 8.65 2.44 15.4-1.62 17.56-3.24 1.73-7.11-.72-8.65-2.16l4.87-3.78c.36.63 1.89 1.62 3.78 0 2.3-1.97 0-7.03-5.67-10.27-4.26-2.43-4.96.27-5.14 2.43Z"/><path fill="url(#i)" stroke="#f2c78b" stroke-width=".91" d="m84.67 380.12-3.79 2.98c-1.62-1.9-3.78-6.59-.01-10.64 3.22-3.46 7.3-5.95 15.67 2.7 8.38 8.65 2.44 15.41-1.62 17.57-3.24 1.73-7.11-.72-8.65-2.16l4.87-3.79c.36.63 1.89 1.62 3.78 0 2.3-1.96 0-7.02-5.67-10.27-4.26-2.43-5.94.64-4.58 3.61Z"/><path fill="url(#j)" stroke="#f2c78b" stroke-width=".91" d="M333.41 493.02c6.49-9.18 16.37-10.05 20.5-9.34 1.75 1.57 4.82 5.26 7.28 5.15 4.44-.21 5.2-3.61 8.48-5.92 3.29-2.31 19.51-14.01 17.31-26.82s-3.49-113.99-3.21-140.6c.27-26.61-2-22.92-4.34-25.23-2.33-2.32-8.46-3.01-11.49.81-3.03 3.81-2.63 8.4-1.17 12.41 1.47 4.02 2.37 14.91 4.82 46.09 2.45 31.19 6.02 86.99 4.38 111.32-.41 6.17-17.39 2.6-27.59 5.32-10.19 2.72-26.64 17.56-25.45 28.99 1.18 11.43 2.37 9.29 10.48-2.18Z"/><path fill="url(#k)" stroke="#f2c78b" stroke-width=".91" d="m376.39 452-.24 4.7c-1.65-.46-5.57-2.38-7.17-5.81-2-4.28-.85-9.37 11-11.49 11.85-2.11 14.13 6.6 13.66 11.17-.38 3.65-4.57 5.49-6.63 5.96l-.45-5.09c.73.06 2.46-.91 2.17-3.39-.35-3-5.85-4.73-11.71-1.84-4.39 2.17-2.72 5.33-.63 5.79Z"/><path fill="url(#l)" stroke="#f2c78b" stroke-width=".91" d="m376.3 434.96.01 4.58c-2.48.28-7.57-.55-8.83-5.94-1.07-4.6-.85-9.37 11-11.49 11.85-2.11 14.14 6.6 13.66 11.17-.38 3.65-4.28 5.17-6.33 5.64l-.26-5.94c.72.05 1.95-.55 1.66-3.03-.35-3-5.82-3.92-11.69-1.03-4.39 2.17-2.44 5.5.78 6.04Z"/><path fill="url(#m)" stroke="#f2c78b" stroke-width=".91" d="M352.67 197.06c-10.24-48.94-9.94-50.82-6.96-55.16 4.37-6.39 12.15-2.32 13.78 3.68 2.03 7.51 1.06 15.29 7.99 55.8 6.93 40.52 17.53 90.76 16.58 98.27s-8.45 9.55-14.77 4.36c-6.32-5.18-3.24-12.23-5.28-25.71s.81-23.17-11.34-81.24Z"/><path fill="url(#n)" d="m359.6 234.79-.81-7.02c-.9-1.98-2.16-5.95 0-5.95 2.7 0 2.7 5.95 3.24 12.16.54 6.22 2.16 4.06 2.71 10 .53 5.95.26 8.65 5.13 11.08 4.86 2.43 1.89-1.08 0-2.43s-2.97-3.78-1.35-7.57c1.62-3.78-.54-6.75-2.43-11.08-1.9-4.32 1.08-3.78 0-11.62-1.09-7.83-14.33-8.11-14.6 1.62-.21 7.79 5.32 10.45 8.11 10.81"/><path fill="url(#o)" d="M363.65 210.47c-3.89-.43-.21-6.02 2.44-7.84.58-.39 1.62-.81 1.62-.81-.36-.08-1.41-.48-2.71-1.35-1.62-1.08-2.7-2.43-1.35-10.81 1.35-8.37 4.06-6.21 10.27-4.59 4.97 1.3 5.5 6.12 5.14 8.38.18.18 1.4.43 4.86 0 4.33-.54 7.3-1.62 7.3 3.24 0 3.89-1.8 5.59-2.7 5.94.9 1.36 3.35 5.9 5.94 13.25 2.54 7.19-.24 9.8-2.05 10.24.5-.03 1.45.83 2.05 4.62.65 4.11-1.89 5.32-3.24 5.41-.09 1.44-.76 5.24-2.7 8.91-2.44 4.6-6.49 7.57-8.92 10s-1.08-4.05 0-5.94c1.08-1.9-1.62-3.25-1.08-6.76s5.67-1.89 2.43-4.05c-2.59-1.73-3.78-5.77-4.06-7.57-1.62 1.8-5.08 5.14-5.94 4.05-1.08-1.35 2.7-7.02-1.08-12.43-2.91-4.16-2.22-9.99-1.44-12.67-.32.53-1.54 1.14-4.78.78"/><path stroke="#f2c78b" stroke-width=".91" d="m359.6 234.79-.81-7.02c-.9-1.98-2.16-5.95 0-5.95 2.7 0 2.7 5.95 3.24 12.16.54 6.22 2.16 4.06 2.71 10 .53 5.95.26 8.65 5.13 11.08 4.86 2.43 1.89-1.08 0-2.43s-2.97-3.78-1.35-7.57c1.62-3.78-.54-6.75-2.43-11.08-1.9-4.32 1.08-3.78 0-11.62-1.09-7.83-14.33-8.11-14.6 1.62-.21 7.79 5.32 10.45 8.11 10.81Z"/><path stroke="#f2c78b" stroke-width=".91" d="M363.65 210.47c-3.89-.43-.21-6.02 2.44-7.84.58-.39 1.62-.81 1.62-.81-.36-.08-1.41-.48-2.71-1.35-1.62-1.08-2.7-2.43-1.35-10.81 1.35-8.37 4.06-6.21 10.27-4.59 4.97 1.3 5.5 6.12 5.14 8.38.18.18 1.4.43 4.86 0 4.33-.54 7.3-1.62 7.3 3.24 0 3.89-1.8 5.59-2.7 5.94.9 1.36 3.35 5.9 5.94 13.25 2.54 7.19-.24 9.8-2.05 10.24.5-.03 1.45.83 2.05 4.62.65 4.11-1.89 5.32-3.24 5.41-.09 1.44-.76 5.24-2.7 8.91-2.44 4.6-6.49 7.57-8.92 10s-1.08-4.05 0-5.94c1.08-1.9-1.62-3.25-1.08-6.76s5.67-1.89 2.43-4.05c-2.59-1.73-3.78-5.77-4.06-7.57-1.62 1.8-5.08 5.14-5.94 4.05-1.08-1.35 2.7-7.02-1.08-12.43-2.91-4.16-2.22-9.99-1.44-12.67-.32.53-1.54 1.14-4.78.78Z"/><path fill="url(#p)" d="m185.95 231.98-2.2-6.72c-.01-2.18-.51-6.3-2.48-5.4-2.46 1.13.02 6.53 2.13 12.4 2.1 5.88-.27 4.59 1.72 10.22 1.99 5.62 3.36 7.97-.05 12.21-3.4 4.24-2.17-.19-1.01-2.21 1.15-2.02 1.12-4.68-1.93-7.44s-2.33-6.37-2.41-11.09c-.09-4.71-2.57-2.98-4.85-10.56-2.29-7.57 9.63-13.34 13.93-4.61 3.45 6.98-.47 11.71-2.85 13.2"/><path fill="url(#q)" d="M172.11 211.57c3.36-2.01-2.32-5.56-5.48-6.1-.7-.12-1.81-.06-1.81-.06.29-.23 1.07-1.03 1.89-2.36 1.02-1.66 1.44-3.34-3.28-10.39-4.73-7.04-6.28-3.95-11.25.12-3.98 3.25-2.44 7.85-1.17 9.75-.09.24-1.1.98-4.42 2.03-4.16 1.32-7.31 1.57-5.28 5.99 1.63 3.54 3.97 4.33 4.94 4.28-.26 1.6-.59 6.75.12 14.51.7 7.6 4.31 8.81 6.14 8.46-.47.17-.97 1.35.07 5.05 1.12 4 3.93 4.04 5.2 3.56.68 1.27 2.87 4.45 6.18 6.97 4.12 3.16 9.05 4.17 12.27 5.37 3.23 1.19-.71-4.14-2.48-5.41-1.77-1.26.12-3.62-1.84-6.59-1.95-2.96-5.94.65-3.9-2.66 1.64-2.66 1.03-6.82.53-8.57 2.22.96 6.76 2.54 7.09 1.2.42-1.68-5.38-5.26-4.2-11.75.91-4.99-2.15-10-3.98-12.11.51.34 1.87.39 4.66-1.29"/><path stroke="#f2c78b" stroke-width=".91" d="m185.95 231.98-2.2-6.72c-.01-2.18-.51-6.3-2.48-5.4-2.46 1.13.02 6.53 2.13 12.4 2.1 5.88-.27 4.59 1.72 10.22 1.99 5.62 3.36 7.97-.05 12.21-3.4 4.24-2.17-.19-1.01-2.21 1.15-2.02 1.12-4.68-1.93-7.44s-2.33-6.37-2.41-11.09c-.09-4.71-2.57-2.98-4.85-10.56-2.29-7.57 9.63-13.34 13.93-4.61 3.45 6.98-.47 11.71-2.85 13.2Z"/><path stroke="#f2c78b" stroke-width=".91" d="M172.11 211.57c3.36-2.01-2.32-5.56-5.48-6.1-.7-.12-1.81-.06-1.81-.06.29-.23 1.07-1.03 1.89-2.36 1.02-1.66 1.44-3.34-3.28-10.39-4.73-7.04-6.28-3.95-11.25.12-3.98 3.25-2.44 7.85-1.17 9.75-.09.24-1.1.98-4.42 2.03-4.16 1.32-7.31 1.57-5.28 5.99 1.63 3.54 3.97 4.33 4.94 4.28-.26 1.6-.59 6.75.12 14.51.7 7.6 4.31 8.81 6.14 8.46-.47.17-.97 1.35.07 5.05 1.12 4 3.93 4.04 5.2 3.56.68 1.27 2.87 4.45 6.18 6.97 4.12 3.16 9.05 4.17 12.27 5.37 3.23 1.19-.71-4.14-2.48-5.41-1.77-1.26.12-3.62-1.84-6.59-1.95-2.96-5.94.65-3.9-2.66 1.64-2.66 1.03-6.82.53-8.57 2.22.96 6.76 2.54 7.09 1.2.42-1.68-5.38-5.26-4.2-11.75.91-4.99-2.15-10-3.98-12.11.51.34 1.87.39 4.66-1.29Z"/><defs><linearGradient id="a" x1="91.79" x2="385.08" y1="145.01" y2="145.01" gradientUnits="userSpaceOnUse"><stop stop-color="#3c3024"/><stop offset="1" stop-color="#bd7b49"/></linearGradient><linearGradient id="b" x1="193.01" x2="449.61" y1="378.49" y2="378.49" gradientUnits="userSpaceOnUse"><stop stop-color="#bd7b49"/><stop offset="1" stop-color="#3c3024"/></linearGradient><linearGradient id="c" x1="79.38" x2="359.76" y1="314.83" y2="314.83" gradientUnits="userSpaceOnUse"><stop stop-color="#fcf0d6"/><stop offset="1" stop-color="#ffc446"/></linearGradient><linearGradient id="d" x1="178" x2="320.86" y1="355.86" y2="355.86" gradientUnits="userSpaceOnUse"><stop stop-color="#3c3024"/><stop offset="1" stop-color="#bd7b49"/></linearGradient><linearGradient id="e" x1="195.27" x2="258.62" y1="161.65" y2="161.65" gradientUnits="userSpaceOnUse"><stop stop-color="#3c3024"/><stop offset="1" stop-color="#bd7b49"/></linearGradient><linearGradient id="f" x1="150.36" x2="205.74" y1="225.47" y2="225.47" gradientUnits="userSpaceOnUse"><stop stop-color="#fcf0d6"/><stop offset="1" stop-color="#ffc446"/></linearGradient><linearGradient id="g" x1=".46" x2="205.53" y1="347.4" y2="347.4" gradientUnits="userSpaceOnUse"><stop stop-color="#fcf0d6"/><stop offset="1" stop-color="#ffc446"/></linearGradient><linearGradient id="h" x1="66.03" x2="87.28" y1="392.09" y2="392.09" gradientUnits="userSpaceOnUse"><stop stop-color="#3c3024"/><stop offset="1" stop-color="#bd7b49"/></linearGradient><linearGradient id="i" x1="78.78" x2="100.78" y1="381.3" y2="381.3" gradientUnits="userSpaceOnUse"><stop stop-color="#3c3024"/><stop offset="1" stop-color="#bd7b49"/></linearGradient><linearGradient id="j" x1="301.02" x2="419.39" y1="485.88" y2="318.42" gradientUnits="userSpaceOnUse"><stop stop-color="#fcf0d6"/><stop offset="1" stop-color="#ffc446"/></linearGradient><linearGradient id="k" x1="375.46" x2="387.34" y1="456.88" y2="439.25" gradientUnits="userSpaceOnUse"><stop stop-color="#3c3024"/><stop offset="1" stop-color="#bd7b49"/></linearGradient><linearGradient id="l" x1="373.64" x2="385.94" y1="440.28" y2="422.03" gradientUnits="userSpaceOnUse"><stop stop-color="#3c3024"/><stop offset="1" stop-color="#bd7b49"/></linearGradient><linearGradient id="m" x1="337.3" x2="390.78" y1="220.38" y2="225.21" gradientUnits="userSpaceOnUse"><stop stop-color="#fcf0d6"/><stop offset="1" stop-color="#ffc446"/></linearGradient><linearGradient id="n" x1="351.49" x2="395.48" y1="219.73" y2="219.73" gradientUnits="userSpaceOnUse"><stop stop-color="#3c3024"/><stop offset="1" stop-color="#bd7b49"/></linearGradient><linearGradient id="o" x1="351.49" x2="395.48" y1="219.73" y2="219.73" gradientUnits="userSpaceOnUse"><stop stop-color="#3c3024"/><stop offset="1" stop-color="#bd7b49"/></linearGradient><linearGradient id="p" x1="187.03" x2="147.05" y1="214.91" y2="233.27" gradientUnits="userSpaceOnUse"><stop stop-color="#3c3024"/><stop offset="1" stop-color="#bd7b49"/></linearGradient><linearGradient id="q" x1="187.03" x2="147.05" y1="214.91" y2="233.27" gradientUnits="userSpaceOnUse"><stop stop-color="#3c3024"/><stop offset="1" stop-color="#bd7b49"/></linearGradient></defs></svg>