<svg xmlns="http://www.w3.org/2000/svg" width="467" height="430" fill="none" xmlns:v="https://vecta.io/nano"><g stroke="#f2c78b" stroke-width=".912"><path d="M146.654 106.971c-3.873-8.287-14.106-23.51-24.051-18.106-12.431 6.756-12.431 5.675-13.512 3.513s5.405-6.215 5.675-7.837-1.351-4.324-3.783-2.702-5.134 8.918-7.567 9.728-5.134 6.756-9.728 3.783c-3.675-2.378-1.171-7.657.541-9.999.09.27.108.108-.541-2.702s.09-4.414.541-4.864c-.901-.63-1.945-2.702 1.081-5.945 2.868-3.073 4.183-3.315 4.543-3.025-.986-1.043-2.286-4.075.051-8.325 2.972-5.405 7.296-3.243 8.647-7.296s4.054-4.054 5.135-4.054 12.161-15.674 31.347-20.538c15.35-3.891 23.331-3.063 25.403-2.162 4.053-13.872 20.538-37.239 54.047-19.727s15.764 41.346 2.703 51.075c3.423 4.414 9.62 14.593 7.026 19.997s-2.883 9.458-2.703 10.81c4.378.851 11.847.573 19.187 4.053 4.988 2.365 9.355 8.68 14.053 12.431 3.753 2.996 8.281 5.227 11.079 9.188 1.92 2.716 2.371 6.912 4.324 10.809 1.603 3.198 5.629 5.659 7.297 9.459 9.188 17.565 5.241 22.891 10.269 34.32 3.502 7.961 9.661 9.792 14.863 18.917 3.608 6.328 2.254 11.987 5.675 17.025 3.677 5.416 11.678 5.342 15.944 9.728 3.685 3.789 5.43 12.525 8.918 15.944 3.772 3.699 10.889 5.908 14.322 9.188 5.348 5.109 6.638 11.536 10.81 15.674 4.167 4.134 9.326 5.906 11.89 9.126 3.54 4.445 5.349 8.044 4.864 10.872-1.621 9.458 2.433 17.025-23.781 13.241-4.185-.604-12.99.348-18.105-1.891-3.957-1.732-5.699-8.011-9.999-10.54-4.492-2.641-14.797-3.961-19.457-7.296-6.239-4.465-5.252-11.694-11.35-17.025-4.855-4.244-14.71-4.911-19.187-9.458-4.29-4.357-2.503-12.316-6.216-16.755-4.111-4.916-11.208-7.932-14.322-12.701-21.349-32.699-45.941-76.478-72.694-94.854-11.28-7.748-19.278-12.16-30.899-21.619.811-12.161-7.81-19.271-9.998-18.646-3.784 1.081-1.26.811-1.801 8.107-.432 5.837-.541 16.484-.541 21.078z" fill="url(#A)"/><path d="M397.706 310.46c5.621-5.405 6.434-26.45-4.864-29.726-5.118-1.484-9.621-2-13.512 1.892-4.864 4.864-2.973 8.377-11.62 10.539s-8.648 13.242-14.593 12.431-15.133 1.621-17.836-8.378-11.89-11.35-16.214-22.159-9.999-11.62-17.295-9.458-5.135 0-12.161 0-2.702 4.323-17.025 0-28.915.81-37.022 9.458c-1.628 1.736.302 12.01-5.178 14.323-2.901 1.224-6.767 1.081-8.064 0-1.621-1.352 0-10.81 1.081-15.944s1.081-6.486-2.432-7.837-3.513-1.622-1.351-3.243 3.513-4.864.54-8.107-4.053-5.135-1.891-7.567.54-5.675-1.622-9.188-.54-2.702 2.703-5.135 3.783-8.107-2.432-16.754-16.485-12.701-19.998-10.54-4.594 5.946-3.513 11.35 2.432 5.135 2.702 6.486-2.162 3.243-2.702 8.918c-.433 4.54 3.423 8.377 5.405 9.729-.721.18-2.487 1.513-3.784 5.404-1.621 4.865 1.622 8.378 5.134 11.08s1.352 2.973 0 6.756 4.594 5.945 6.216 10.269 1.081 4.324 4.053 8.648c2.379 3.459 9.635 15.799 11.891 26.753 3.47 16.847-6.217 88.075-5.675 136.47.811 72.424 16.755 64.046 43.778 72.424s19.998 21.889 63.236 24.051 39.725 14.323 85.936 6.486 44.048-23.241 34.32-21.349-18.106.54-39.995-12.161-21.89-15.403-38.104-22.159-19.997-21.89-37.293-27.565-27.834-41.346-33.779-57.83.81-21.079 5.945-22.971 5.675 2.433 12.971 3.243 8.648-7.837 14.863-5.675 9.999-7.026 14.593-8.918 4.054-9.188 9.999-13.241 1.351-8.918 3.783-11.62 4.324-7.027 14.053-9.729 14.863-15.133 16.484-19.187 3.243-3.513 10.269-10.269z" fill="url(#B)"/><path d="M85.581 119.132c4.108-15.782 7.116-23.33 8.107-25.132 1.802-.45 6.162-1.838 9.188-3.783 3.783-2.432 6.215-11.62 11.62-8.648s-7.026 7.837-4.053 11.08 8.377-7.837 19.457-7.026c8.863.649 14.863 13.962 16.754 20.538-1.531-9.459-3.242-29.078 2.162-31.888 3.47-1.804 9.459 11.35 11.35 22.159 13.782 5.675 38.559 14.624 59.723 25.403 43.508 22.159 54.047 16.484 85.125 19.186s52.426-9.728 54.588 3.513-18.106 11.891-50.805 15.944-36.752 14.864-46.481 29.186c-9.601 14.135-9.464 18.795-8.939 36.578l.021.715c.541 18.376 33.78 109.987 38.644 142.685s19.998 114.581 19.457 140.794 10.54 27.564 13.242 37.293-5.945 8.648-11.08 5.945-15.133-2.432-21.889-1.621c-5.405.648-7.477-1.532-7.837-2.703-3.873 2.252-12.377 6.27-15.403 4.324-3.784-2.432-3.243-16.754 0-22.429s7.026-1.352 14.592 1.621 9.188 3.783 12.702 0 5.675-2.973 0-21.349-35.942-119.445-40.536-117.283-10.81 131.336-6.216 135.659 11.621 10.54 10.81 13.782-1.351 7.297-9.188 4.054-19.998-3.243-36.212 0-15.674-.27-18.376-9.729 4.324-15.673 10.269-16.754 18.376 7.296 20.808 7.296 4.054-2.432 3.513-12.431-15.133-73.775-11.89-157.278 25.132-80.801 11.89-112.959-31.618-31.348-45.94-44.59c-11.458-10.593-4.774-29.816 0-38.103l-13.242-1.351c-4.864-.541-20.808 3.243-21.349-8.648s13.783-8.918 26.214-9.728c9.944-.649 20.718-3.153 24.861-4.324-8.017-6.576-26.915-19.836-38.373-20.268-14.323-.541-22.7 10.269-36.212 17.836-10.81 6.053-14.413-.721-14.863-4.865-.991 1.081-3.567 3.027-5.945 2.162s-1.532-3.603-.811-4.864c-1.247.769-2.328 2.889-6.111 3.471-3.922.604-5.495-2.162-5.945-4.324l-.032.089c-1.277 3.558-4.125 11.492-9.426 14.234-7.837 4.054-3.078-3.742 2.057-23.469z" fill="url(#C)"/><path d="M196.209 195.455c-14.052.865-17.565-5.225-17.565-10.81-.631-.54-1.351.541.811 9.188 2.536 10.147 8.407 13.627 13.587 16.697v.001l1.005.598c1.993.952 7.844 3.992 15.302 8.532s10.742 9.895 11.452 12.006c.36.63 1.513 2.54 3.243 5.134 1.191 1.787 2.3 3.902 3.463 6.119h0c.947 1.807 1.93 3.681 3.022 5.502 1.566 2.608 1.116 3.65.597 4.854-.288.666-.597 1.382-.597 2.442 0 1.047.134 2.026.261 2.951.232 1.701.44 3.215-.261 4.616-.766 1.532-.446 5.103-.098 8.978h0l.368 4.804c.271 5.404-.81 8.107-3.513 13.782-1.033 2.17-1.355 3.549-1.57 4.471-.348 1.489-1.926 1.124-3.125 1.899-1.693 1.095-3.655 2.324-4.222 2.972s-.237 2.51 0 3.359c.811 2.702-2.162 8.107-7.297 11.35s-6.215 11.89 0 18.376c4.013 4.187 3.971 4.77 3.801 7.13-.094 1.295-.226 3.126.253 6.382.653 4.439-.208 23.574-1.12 43.845-.976 21.688-2.011 44.677-1.312 52.36l6.756 65.011c2.736 14.593 17.481 19.187 26.213 19.187 12.059 0 7.837-14.207 5.134-17.72s-4.053-6.486 4.054-5.405 4.324-7.026 0-11.89.54-6.216 4.324-6.216 8.107-10.513 0-13.782 4.594-9.728 4.594-4.594 2.972 9.729 10.539 10.269c5.619.402 6.618-3.817 6.982-5.351.126-.532.175-.741.314-.324l.109.332c.882 2.725 5.238 16.184 9.35 11.559 1.673-1.882 4.64-2.591 8.136-3.426 5.538-1.323 12.4-2.962 17.536-10.086 5.918-8.208-.03-20.057-5.272-30.498-2.178-4.341-4.235-8.438-5.267-11.93-1.505-5.094-2.068-14.056-2.729-24.593-.883-14.058-1.941-30.917-5.648-45.128-4.035-15.467-8.593-21.834-10.876-25.024-1.386-1.937-1.934-2.702-1.015-3.621.941-.941 1.073-3.255 1.21-5.646v-.001c.216-3.792.444-7.778 3.925-6.784 5.675 1.621 7.837-5.134 8.647-10.809.411-2.874 2.553-3.807 5.235-4.976 2.615-1.139 5.742-2.502 8.277-6.104 2.357-3.349 1.924-5.274 1.524-7.057-.472-2.102-.9-4.005 3.341-7.806 7.836-7.026-2.703-16.214-9.999-14.053-3.082.913-5.777.67-8.21.45-3.327-.301-6.161-.557-8.815 2.253-4.594 4.864-21.619.81-19.187-4.864s-3.243-11.621-8.377-13.783-6.486-14.052-7.297-26.753c-.48-7.522 2.262-11.063 4.747-14.272 1.711-2.209 2.658-9.782 2.988-12.868.811-7.566-1.621-9.188-4.864-2.161-1.769 3.832-9.357 4.169-19.896 2.818s-25.402-2.973-42.968-1.892z" fill="url(#D)"/><path d="M205.028 151.021c-4.324-4.323-5.044-9.368-4.864-11.35h1.891c.27 2.072 1.892 7.621 6.215 13.242 5.405 7.026 1.622 8.918-4.053 10.539s-7.469 4.491-4.864 8.107c4.086 5.675 6.215 4.757 8.647 2.162s10.81-1.081 11.08-2.162c.216-.864 3.693-3.783 5.405-5.134.45.63 2.216 2.27 5.675 3.783 4.323 1.892 8.917 1.351 11.89 2.973s2.973-2.703 8.377-3.513 4.324-4.594 2.433-5.675-8.648-.541-12.161-5.405 7.837-7.837 9.728-9.458c1.514-1.297 1.532-10.089 1.352-14.323l2.972 1.081c-.18 3.423-.81 10.972-1.891 13.782-1.352 3.513-10.81 4.054-9.729 7.837s2.973 1.081 11.08 4.324 2.702 1.892 1.891 9.728-4.323 8.918-16.214 13.783-23.781 3.242-32.428.81-11.62-10.809-12.161-17.025 5.945-5.945 10.539-8.107 4.595-4.594-.81-9.999z" fill="url(#E)"/><path d="M163.575 202.846c-14.594-47.832-14.463-49.723-11.89-54.318 3.783-6.755 11.892-3.404 14.054 2.433 2.702 7.296 2.43 15.133 12.969 54.858s27.296 84.855 27.026 92.421-7.567 10.269-14.323 5.675-4.323-11.89-7.566-25.132-2.957-19.192-20.27-75.937z" fill="url(#F)"/><path d="M13.323 377.961c11.242 0 17.656 7.567 19.457 11.35-.27 2.342-1.513 6.973 0 8.918 2.732 3.513 5.945 2.162 9.728 3.513s22.7 7.837 31.888-1.351 91.071-68.64 112.959-83.773 17.565-14.864 18.106-18.106-2.432-8.648-7.297-8.918-8.377 2.702-10.809 6.215-10.81 10.539-34.861 30.537-67.559 55.129-88.367 67.83c-5.28 3.223-12.161-12.701-20.268-19.457s-29.726-11.621-38.373-4.054-6.215 7.296 7.837 7.296z" fill="url(#G)"/><path d="M70.613 389.852l-4.053 2.702c-.54-1.621-1.135-5.945.811-9.188 2.432-4.053 7.296-5.945 15.674 2.703s2.432 15.403-1.621 17.565c-3.243 1.73-7.116-.72-8.648-2.162l4.864-3.783c.36.63 1.892 1.621 3.783 0 2.294-1.966 0-7.026-5.675-10.269-4.255-2.432-4.954.27-5.135 2.432z" fill="url(#H)"/><path d="M84.665 380.123l-3.783 2.973c-1.621-1.892-3.783-6.583-.012-10.636 3.22-3.461 7.296-5.945 15.674 2.702s2.432 15.404-1.621 17.566c-3.243 1.729-7.116-.721-8.648-2.162l4.864-3.783c.36.63 1.892 1.621 3.783 0 2.294-1.967 0-7.027-5.675-10.27-4.255-2.431-5.933.637-4.582 3.61z" fill="url(#I)"/><path d="M333.408 493.016c6.489-9.18 16.369-10.05 20.499-9.338 1.756 1.573 4.82 5.26 7.282 5.148 4.446-.204 5.197-3.607 8.484-5.917s19.502-14.013 17.302-26.819-3.485-113.988-3.209-140.597-1.998-22.923-4.334-25.236-8.466-3.006-11.494.81-2.629 8.401-1.164 12.415 2.367 14.91 4.815 46.093 6.022 86.99 4.384 111.313c-.416 6.172-17.391 2.599-27.588 5.32s-26.647 17.567-25.459 28.996 2.371 9.287 10.482-2.188z" fill="url(#J)"/><path d="M376.388 452.004l-.242 4.695c-1.647-.458-5.564-2.382-7.166-5.808-2.002-4.282-.852-9.373 11.001-11.487s14.133 6.593 13.66 11.162c-.378 3.656-4.575 5.499-6.626 5.963l-.452-5.087c.725.053 2.453-.913 2.166-3.388-.349-3.001-5.845-4.738-11.705-1.844-4.395 2.17-2.728 5.332-.636 5.794z" fill="url(#K)"/><path d="M376.302 434.961l.005 4.574c-2.474.287-7.572-.541-8.826-5.934-1.07-4.605-.852-9.374 11.001-11.487s14.133 6.592 13.66 11.162c-.378 3.656-4.278 5.176-6.329 5.64l-.268-5.94c.725.053 1.954-.548 1.667-3.023-.349-3.001-5.826-3.927-11.687-1.034-4.395 2.17-2.443 5.501.777 6.042z" fill="url(#L)"/><path d="M352.672 197.065c-10.238-48.949-9.938-50.822-6.963-55.166 4.375-6.389 12.15-2.323 13.779 3.685 2.036 7.509 1.061 15.29 7.989 55.801s17.535 90.751 16.586 98.263-8.458 9.548-14.774 4.366-3.239-12.231-5.279-25.71.808-23.169-11.338-81.239z" fill="url(#M)"/></g><use href="#P" fill="url(#N)"/><use href="#Q" fill="url(#N)"/><g stroke="#f2c78b" stroke-width=".912"><use href="#P"/><use href="#Q"/></g><use href="#R" fill="url(#O)"/><use href="#S" fill="url(#O)"/><g stroke="#f2c78b" stroke-width=".912"><use href="#R"/><use href="#S"/></g><defs><linearGradient id="A" x1="91.792" y1="145.011" x2="385.082" y2="145.011" href="#T"><stop stop-color="#3c3024"/><stop offset="1" stop-color="#bd7b49"/></linearGradient><linearGradient id="B" x1="193.006" y1="378.493" x2="449.613" y2="378.493" href="#T"><stop stop-color="#bd7b49"/><stop offset="1" stop-color="#3c3024"/></linearGradient><linearGradient id="C" x1="79.377" y1="314.828" x2="359.76" y2="314.828" href="#T"><stop stop-color="#fcf0d6"/><stop offset="1" stop-color="#ffc446"/></linearGradient><linearGradient id="D" x1="178.002" y1="355.86" x2="320.856" y2="355.86" href="#T"><stop stop-color="#3c3024"/><stop offset="1" stop-color="#bd7b49"/></linearGradient><linearGradient id="E" x1="195.267" y1="161.649" x2="258.617" y2="161.649" href="#T"><stop stop-color="#3c3024"/><stop offset="1" stop-color="#bd7b49"/></linearGradient><linearGradient id="F" x1="150.36" y1="225.475" x2="205.737" y2="225.475" href="#T"><stop stop-color="#fcf0d6"/><stop offset="1" stop-color="#ffc446"/></linearGradient><linearGradient id="G" x1=".456" y1="347.401" x2="205.525" y2="347.401" href="#T"><stop stop-color="#fcf0d6"/><stop offset="1" stop-color="#ffc446"/></linearGradient><linearGradient id="H" x1="66.031" y1="392.089" x2="87.282" y2="392.089" href="#T"><stop stop-color="#3c3024"/><stop offset="1" stop-color="#bd7b49"/></linearGradient><linearGradient id="I" x1="78.777" y1="381.296" x2="100.782" y2="381.296" href="#T"><stop stop-color="#3c3024"/><stop offset="1" stop-color="#bd7b49"/></linearGradient><linearGradient id="J" x1="301.025" y1="485.884" x2="419.391" y2="318.424" href="#T"><stop stop-color="#fcf0d6"/><stop offset="1" stop-color="#ffc446"/></linearGradient><linearGradient id="K" x1="375.465" y1="456.877" x2="387.342" y2="439.255" href="#T"><stop stop-color="#3c3024"/><stop offset="1" stop-color="#bd7b49"/></linearGradient><linearGradient id="L" x1="373.643" y1="440.278" x2="385.942" y2="422.031" href="#T"><stop stop-color="#3c3024"/><stop offset="1" stop-color="#bd7b49"/></linearGradient><linearGradient id="M" x1="337.301" y1="220.385" x2="390.78" y2="225.208" href="#T"><stop stop-color="#fcf0d6"/><stop offset="1" stop-color="#ffc446"/></linearGradient><linearGradient id="N" x1="351.487" y1="219.728" x2="395.482" y2="219.728" href="#T"><stop stop-color="#3c3024"/><stop offset="1" stop-color="#bd7b49"/></linearGradient><linearGradient id="O" x1="187.032" y1="214.907" x2="147.052" y2="233.269" href="#T"><stop stop-color="#3c3024"/><stop offset="1" stop-color="#bd7b49"/></linearGradient><path id="P" d="M359.6 234.794l-.811-7.027c-.9-1.981-2.161-5.945 0-5.945 2.702 0 2.703 5.945 3.243 12.161s2.162 4.053 2.703 9.999.27 8.647 5.134 11.079 1.892-1.081 0-2.432-2.972-3.783-1.351-7.566-.54-6.756-2.432-11.08 1.081-3.783 0-11.62-14.323-8.108-14.593 1.621c-.216 7.783 5.315 10.449 8.107 10.81z"/><path id="Q" d="M363.654 210.472c-3.892-.432-.211-6.025 2.432-7.837.584-.4 1.621-.81 1.621-.81-.36-.09-1.405-.487-2.702-1.352-1.622-1.081-2.702-2.432-1.351-10.809s4.053-6.216 10.269-4.594c4.972 1.297 5.495 6.125 5.134 8.377.18.18 1.405.433 4.865 0 4.323-.54 7.296-1.621 7.296 3.243 0 3.891-1.802 5.585-2.702 5.945.9 1.351 3.351 5.891 5.945 13.242 2.54 7.198-.24 9.8-2.048 10.244.497-.033 1.449.826 2.048 4.619.648 4.108-1.892 5.315-3.243 5.405-.09 1.441-.757 5.242-2.702 8.918-2.433 4.594-6.486 7.566-8.918 9.998s-1.081-4.053 0-5.945-1.622-3.243-1.081-6.756 5.675-1.891 2.432-4.053c-2.594-1.73-3.783-5.765-4.054-7.567-1.621 1.802-5.08 5.135-5.945 4.054-1.081-1.352 2.703-7.027-1.081-12.431-2.912-4.161-2.221-9.99-1.443-12.671-.318.527-1.535 1.14-4.772.78z"/><path id="R" d="M185.947 231.984l-2.196-6.724c-.008-2.177-.516-6.305-2.481-5.402-2.456 1.127.025 6.53 2.128 12.404s-.272 4.586 1.718 10.214 3.363 7.971-.042 12.212-2.17-.193-1.015-2.21 1.122-4.679-1.93-7.44-2.329-6.365-2.414-11.084-2.562-2.987-4.85-10.56 9.632-13.345 13.938-4.617c3.445 6.982-.469 11.714-2.856 13.207z"/><path id="S" d="M172.112 211.574c3.356-2.017-2.323-5.563-5.481-6.107-.697-.12-1.811-.06-1.811-.06.29-.232 1.074-1.028 1.891-2.356 1.023-1.659 1.441-3.338-3.283-10.387s-6.278-3.956-11.249.111c-3.978 3.254-2.437 7.86-1.17 9.756-.088.239-1.096.98-4.42 2.03-4.155 1.314-7.308 1.572-5.277 5.993 1.624 3.536 3.968 4.323 4.937 4.274-.255 1.604-.587 6.752.124 14.515.695 7.601 4.308 8.806 6.136 8.454-.465.178-.972 1.355.067 5.053 1.125 4.003 3.937 4.04 5.202 3.558.684 1.272 2.876 4.448 6.178 6.976 4.128 3.159 9.052 4.169 12.277 5.364s-.709-4.135-2.481-5.403.12-3.623-1.837-6.59-5.947.649-3.902-2.669c1.635-2.654 1.032-6.818.525-8.568 2.226.961 6.76 2.546 7.095 1.203.418-1.679-5.388-5.257-4.206-11.748.91-4.996-2.151-10.005-3.977-12.117.509.347 1.871.395 4.662-1.282z"/><linearGradient id="T" gradientUnits="userSpaceOnUse"/></defs></svg>