<svg xmlns="http://www.w3.org/2000/svg" width="167" height="175" fill="none" viewBox="0 0 167 175"><path fill="url(#a)" stroke="url(#b)" d="M147.41 76.5c8.03 4.85 8.04 16.49.02 21.37l-86.29 52.5c-8.33 5.06-18.99-.93-19-10.67l-.12-104.78C42 25.17 52.65 19.16 60.99 24.21z"/><g filter="url(#c)"><path stroke="url(#d)" stroke-width="14" d="M144.04 82.06c3.86 2.33 3.86 7.92.02 10.26l-86.3 52.49c-4 2.43-9.11-.44-9.12-5.12l-.12-104.78c-.01-4.68 5.1-7.56 9.1-5.14z"/></g><defs><linearGradient id="a" x1="82.95" x2="83.16" y1=".1" y2="174.42" gradientUnits="userSpaceOnUse"><stop stop-color="#3c3024"/><stop offset="1" stop-color="#bd7b49"/></linearGradient><linearGradient id="b" x1="82.95" x2="83.16" y1=".1" y2="174.42" gradientUnits="userSpaceOnUse"><stop stop-color="#3c3024"/><stop offset="1" stop-color="#bd7b49"/></linearGradient><linearGradient id="d" x1="82.95" x2="83.16" y1=".1" y2="174.42" gradientUnits="userSpaceOnUse"><stop stop-color="#3c3024"/><stop offset="1" stop-color="#bd7b49"/></linearGradient><filter id="c" width="113.55" height="131.95" x="40.39" y="20.76" color-interpolation-filters="sRGB" filterUnits="userSpaceOnUse"><feFlood flood-opacity="0" result="BackgroundImageFix"/><feBlend in="SourceGraphic" in2="BackgroundImageFix" result="shape"/><feColorMatrix in="SourceAlpha" result="hardAlpha" values="0 0 0 0 0 0 0 0 0 0 0 0 0 0 0 0 0 0 127 0"/><feOffset dx="-1.12" dy="-1.12"/><feGaussianBlur stdDeviation=".79"/><feComposite in2="hardAlpha" k2="-1" k3="1" operator="arithmetic"/><feColorMatrix values="0 0 0 0 0.91 0 0 0 0 0.48 0 0 0 0 0 0 0 0 1 0"/><feBlend in2="shape" result="effect1_innerShadow_24_8279"/><feColorMatrix in="SourceAlpha" result="hardAlpha" values="0 0 0 0 0 0 0 0 0 0 0 0 0 0 0 0 0 0 127 0"/><feOffset dx="-1.12" dy="1.12"/><feComposite in2="hardAlpha" k2="-1" k3="1" operator="arithmetic"/><feColorMatrix values="0 0 0 0 1 0 0 0 0 1 0 0 0 0 1 0 0 0 1 0"/><feBlend in2="effect1_innerShadow_24_8279" result="effect2_innerShadow_24_8279"/></filter></defs></svg>