<svg xmlns="http://www.w3.org/2000/svg" width="974" height="564" fill="none" viewBox="0 0 974 564"><g filter="url(#a)"><g filter="url(#b)"><mask id="e" width="909" height="506" x="33" y="23" maskUnits="userSpaceOnUse" style="mask-type:alpha"><mask id="c" width="909" height="507" x="32.66" y="22.68" fill="#000" maskUnits="userSpaceOnUse"><path fill="#fff" d="M32.66 22.68h909v507h-909z"/><path d="M894.28 29.08c0 16.75 18.41 30.33 41.17 30.4v433.7c-22.57.07-40.87 13.44-41.16 30H79.45c-.29-16.47-18.39-29.78-40.79-29.99V59.48c22.59-.22 40.8-13.74 40.8-30.4 0-.13 0-.27-.01-.4h814.84c-.01.13-.01.27-.01.4"/></mask><path fill="#d9d9d9" d="M894.28 29.08c0 16.75 18.41 30.33 41.17 30.4v433.7c-22.57.07-40.87 13.44-41.16 30H79.45c-.29-16.47-18.39-29.78-40.79-29.99V59.48c22.59-.22 40.8-13.74 40.8-30.4 0-.13 0-.27-.01-.4h814.84c-.01.13-.01.27-.01.4"/><path fill="#fde0a3" d="M894.28 29.08h-5.62zm41.17 30.4h5.61c0-3.09-2.5-5.6-5.6-5.61zm0 433.7.01 5.62c3.1-.01 5.6-2.52 5.6-5.62zm-41.16 30v5.61c3.06 0 5.56-2.45 5.61-5.51zm-814.84 0-5.61.1a5.607 5.607 0 0 0 5.61 5.51zm-40.79-29.99h-5.61a5.61 5.61 0 0 0 5.56 5.61zm0-433.71-.05-5.62a5.62 5.62 0 0 0-5.56 5.62zm40.8-30.4h5.62zm-.01-.4v-5.62c-1.5 0-2.95.61-4 1.68a5.6 5.6 0 0 0-1.61 4.04zm814.84 0 5.61.1a5.6 5.6 0 0 0-1.61-4.04 5.62 5.62 0 0 0-4-1.68zm-.01.4h-5.62c0 10.58 5.83 19.7 14.34 25.97 8.5 6.28 19.98 10.01 32.43 10.05l.02-5.62.01-5.61c-10.3-.04-19.4-3.14-25.8-7.85-6.39-4.72-9.77-10.77-9.77-16.94zm41.17 30.4h-5.62v433.7h11.23V59.48zm0 433.7-.02-5.61c-12.35.04-23.74 3.71-32.22 9.89s-14.35 15.16-14.54 25.62l5.62.1 5.61.1c.11-6.11 3.53-12.09 9.92-16.75 6.38-4.65 15.42-7.7 25.64-7.73zm-41.16 30v-5.62H79.45v11.23h814.84zm-814.84 0 5.62-.1c-.19-10.4-5.99-19.34-14.4-25.52-8.4-6.18-19.7-9.87-31.95-9.99l-.06 5.62-.05 5.61c10.14.1 19.1 3.17 25.41 7.81 6.32 4.65 9.71 10.6 9.82 16.67zm-40.79-29.99h5.62V59.48H33.05v433.71zm0-433.71.06 5.61c12.35-.12 23.73-3.87 32.16-10.14s14.2-15.35 14.2-25.87H73.85c0 6.14-3.35 12.15-9.67 16.86-6.33 4.71-15.34 7.82-25.57 7.92zm40.8-30.4h5.62c0-.19-.01-.48-.01-.5l-5.62.1-5.61.1c0 .25.01.23.01.3zm-.01-.4v5.61h814.84V23.06H79.45zm814.84 0-5.62-.1c0 .02-.01.31-.01.5h11.23c0-.07 0-.05.01-.3z" mask="url(#c)"/><path fill="url(#d)" d="M894.28 29.08h-5.62zm41.17 30.4h5.61c0-3.09-2.5-5.6-5.6-5.61zm0 433.7.01 5.62c3.1-.01 5.6-2.52 5.6-5.62zm-41.16 30v5.61c3.06 0 5.56-2.45 5.61-5.51zm-814.84 0-5.61.1a5.607 5.607 0 0 0 5.61 5.51zm-40.79-29.99h-5.61a5.61 5.61 0 0 0 5.56 5.61zm0-433.71-.05-5.62a5.62 5.62 0 0 0-5.56 5.62zm40.8-30.4h5.62zm-.01-.4v-5.62c-1.5 0-2.95.61-4 1.68a5.6 5.6 0 0 0-1.61 4.04zm814.84 0 5.61.1a5.6 5.6 0 0 0-1.61-4.04 5.62 5.62 0 0 0-4-1.68zm-.01.4h-5.62c0 10.58 5.83 19.7 14.34 25.97 8.5 6.28 19.98 10.01 32.43 10.05l.02-5.62.01-5.61c-10.3-.04-19.4-3.14-25.8-7.85-6.39-4.72-9.77-10.77-9.77-16.94zm41.17 30.4h-5.62v433.7h11.23V59.48zm0 433.7-.02-5.61c-12.35.04-23.74 3.71-32.22 9.89s-14.35 15.16-14.54 25.62l5.62.1 5.61.1c.11-6.11 3.53-12.09 9.92-16.75 6.38-4.65 15.42-7.7 25.64-7.73zm-41.16 30v-5.62H79.45v11.23h814.84zm-814.84 0 5.62-.1c-.19-10.4-5.99-19.34-14.4-25.52-8.4-6.18-19.7-9.87-31.95-9.99l-.06 5.62-.05 5.61c10.14.1 19.1 3.17 25.41 7.81 6.32 4.65 9.71 10.6 9.82 16.67zm-40.79-29.99h5.62V59.48H33.05v433.71zm0-433.71.06 5.61c12.35-.12 23.73-3.87 32.16-10.14s14.2-15.35 14.2-25.87H73.85c0 6.14-3.35 12.15-9.67 16.86-6.33 4.71-15.34 7.82-25.57 7.92zm40.8-30.4h5.62c0-.19-.01-.48-.01-.5l-5.62.1-5.61.1c0 .25.01.23.01.3zm-.01-.4v5.61h814.84V23.06H79.45zm814.84 0-5.62-.1c0 .02-.01.31-.01.5h11.23c0-.07 0-.05.01-.3z" mask="url(#c)"/></mask><g mask="url(#e)"><mask id="f" width="125" height="103" x="-38.09" y="-31.69" fill="#000" maskUnits="userSpaceOnUse"><path fill="#fff" d="M-38.09-31.69h125v103h-125z"/><path d="M24.47-11.69c23.51 0 42.57 14.12 42.57 31.54 0 17.41-19.06 31.53-42.57 31.53s-42.56-14.12-42.56-31.53c0-17.42 19.05-31.54 42.56-31.54"/></mask><path fill="#fde0a3" d="M24.47-11.69c23.51 0 42.57 14.12 42.57 31.54 0 17.41-19.06 31.53-42.57 31.53s-42.56-14.12-42.56-31.53c0-17.42 19.05-31.54 42.56-31.54"/><path fill="#fde0a3" d="M24.47-11.69v-19.09zm42.57 31.54h19.09zM24.47 51.38v19.09zm-42.56-31.53h-19.09zm42.56-31.54V7.4c8.08 0 14.64 2.45 18.74 5.49 4.1 3.03 4.74 5.71 4.74 6.96h38.18c0-16.17-8.88-29.26-20.19-37.64S39.91-30.78 24.47-30.78zm42.57 31.54H47.95c0 1.25-.64 3.92-4.74 6.96-4.1 3.03-10.66 5.48-18.74 5.48v38.18c15.44 0 30.16-4.6 41.47-12.98s20.19-21.48 20.19-37.64zM24.47 51.38V32.29c-8.07 0-14.64-2.45-18.73-5.48C1.64 23.77 1 21.1 1 19.85h-38.18c0 16.16 8.88 29.26 20.19 37.64S9.04 70.47 24.47 70.47zm-42.56-31.53H1c0-1.25.64-3.93 4.74-6.96C9.83 9.85 16.4 7.4 24.47 7.4v-38.18c-15.43 0-30.15 4.61-41.46 12.99S-37.18 3.68-37.18 19.85z" mask="url(#f)"/><path fill="url(#g)" d="M24.47-11.69v-19.09zm42.57 31.54h19.09zM24.47 51.38v19.09zm-42.56-31.53h-19.09zm42.56-31.54V7.4c8.08 0 14.64 2.45 18.74 5.49 4.1 3.03 4.74 5.71 4.74 6.96h38.18c0-16.17-8.88-29.26-20.19-37.64S39.91-30.78 24.47-30.78zm42.57 31.54H47.95c0 1.25-.64 3.92-4.74 6.96-4.1 3.03-10.66 5.48-18.74 5.48v38.18c15.44 0 30.16-4.6 41.47-12.98s20.19-21.48 20.19-37.64zM24.47 51.38V32.29c-8.07 0-14.64-2.45-18.73-5.48C1.64 23.77 1 21.1 1 19.85h-38.18c0 16.16 8.88 29.26 20.19 37.64S9.04 70.47 24.47 70.47zm-42.56-31.53H1c0-1.25.64-3.93 4.74-6.96C9.83 9.85 16.4 7.4 24.47 7.4v-38.18c-15.43 0-30.15 4.61-41.46 12.99S-37.18 3.68-37.18 19.85z" mask="url(#f)"/><path d="M947.17 20.57v510.71H26.18V20.57z"/><path stroke="#fde0a3" stroke-width="2.28" d="M947.17 20.57v510.71H26.18V20.57z"/><path stroke="url(#h)" stroke-width="2.28" d="M947.17 20.57v510.71H26.18V20.57z"/></g></g><g filter="url(#i)"><mask id="j" width="935" height="525" x="19.04" y="13.43" fill="#000" maskUnits="userSpaceOnUse"><path fill="#fff" d="M19.04 13.43h935v525h-935z"/><path d="M905.93 19.85c0 17.37 18.96 31.46 42.38 31.53v449.93c-23.23.08-42.07 13.94-42.37 31.12H67.04c-.31-17.09-18.94-30.89-42-31.11V51.38c23.25-.23 42-14.26 42-31.53v-.42h838.9c0 .14-.01.28-.01.42"/></mask><path fill="#fcf0d6" d="M905.93 19.85h-5.61zm42.38 31.53h5.62c0-3.09-2.51-5.6-5.6-5.61zm0 449.93.02 5.62a5.62 5.62 0 0 0 5.6-5.62zm-42.37 31.12v5.61c3.06 0 5.56-2.45 5.61-5.51zm-838.9 0-5.62.1a5.615 5.615 0 0 0 5.62 5.51zm-42-31.11h-5.61c0 3.07 2.48 5.58 5.56 5.61zm0-449.94-.05-5.62a5.62 5.62 0 0 0-5.56 5.62zm42-31.53h5.62zm0-.42v-5.62c-1.51 0-2.95.61-4.01 1.68a5.68 5.68 0 0 0-1.61 4.04zm838.9 0 5.61.1a5.6 5.6 0 0 0-1.61-4.04 5.6 5.6 0 0 0-4-1.68zm-.01.42h-5.61c0 10.87 5.94 20.27 14.67 26.76 8.72 6.49 20.51 10.35 33.3 10.39l.02-5.62.02-5.61c-10.63-.04-20.03-3.26-26.64-8.17-6.61-4.92-10.14-11.25-10.14-17.75zm42.38 31.53h-5.61v449.93h11.23V51.38zm0 449.93-.02-5.61c-12.68.04-24.39 3.84-33.09 10.23s-14.69 15.65-14.88 26.4l5.62.1 5.61.1c.12-6.43 3.7-12.7 10.3-17.55s15.93-8.02 26.48-8.05zm-42.37 31.12v-5.62H67.04v11.23h838.9zm-838.9 0 5.61-.1c-.19-10.69-6.11-19.91-14.73-26.29-8.63-6.39-20.23-10.22-32.82-10.34l-.06 5.62-.05 5.61c10.46.1 19.71 3.29 26.24 8.13 6.54 4.84 10.08 11.07 10.19 17.47zm-42-31.11h5.62V51.38H19.43v449.94zm0-449.94.06 5.61c12.69-.12 24.38-4.01 33.03-10.49s14.53-15.84 14.53-26.65H61.43c0 6.46-3.5 12.76-10.04 17.67-6.54 4.9-15.85 8.14-26.4 8.24zm42-31.53h5.62c0-.21-.01-.49-.01-.52l-5.61.1-5.62.1c.01.24.01.24.01.32zm0-.42v5.61h838.9V13.81H67.04zm838.9 0-5.62-.1v.52h11.23v-.32z" mask="url(#j)"/><path fill="url(#k)" d="M905.93 19.85h-5.61zm42.38 31.53h5.62c0-3.09-2.51-5.6-5.6-5.61zm0 449.93.02 5.62a5.62 5.62 0 0 0 5.6-5.62zm-42.37 31.12v5.61c3.06 0 5.56-2.45 5.61-5.51zm-838.9 0-5.62.1a5.615 5.615 0 0 0 5.62 5.51zm-42-31.11h-5.61c0 3.07 2.48 5.58 5.56 5.61zm0-449.94-.05-5.62a5.62 5.62 0 0 0-5.56 5.62zm42-31.53h5.62zm0-.42v-5.62c-1.51 0-2.95.61-4.01 1.68a5.68 5.68 0 0 0-1.61 4.04zm838.9 0 5.61.1a5.6 5.6 0 0 0-1.61-4.04 5.6 5.6 0 0 0-4-1.68zm-.01.42h-5.61c0 10.87 5.94 20.27 14.67 26.76 8.72 6.49 20.51 10.35 33.3 10.39l.02-5.62.02-5.61c-10.63-.04-20.03-3.26-26.64-8.17-6.61-4.92-10.14-11.25-10.14-17.75zm42.38 31.53h-5.61v449.93h11.23V51.38zm0 449.93-.02-5.61c-12.68.04-24.39 3.84-33.09 10.23s-14.69 15.65-14.88 26.4l5.62.1 5.61.1c.12-6.43 3.7-12.7 10.3-17.55s15.93-8.02 26.48-8.05zm-42.37 31.12v-5.62H67.04v11.23h838.9zm-838.9 0 5.61-.1c-.19-10.69-6.11-19.91-14.73-26.29-8.63-6.39-20.23-10.22-32.82-10.34l-.06 5.62-.05 5.61c10.46.1 19.71 3.29 26.24 8.13 6.54 4.84 10.08 11.07 10.19 17.47zm-42-31.11h5.62V51.38H19.43v449.94zm0-449.94.06 5.61c12.69-.12 24.38-4.01 33.03-10.49s14.53-15.84 14.53-26.65H61.43c0 6.46-3.5 12.76-10.04 17.67-6.54 4.9-15.85 8.14-26.4 8.24zm42-31.53h5.62c0-.21-.01-.49-.01-.52l-5.61.1-5.62.1c.01.24.01.24.01.32zm0-.42v5.61h838.9V13.81H67.04zm838.9 0-5.62-.1v.52h11.23v-.32z" mask="url(#j)"/></g><g filter="url(#l)"><mask id="m" width="909" height="507" x="32.66" y="22.68" fill="#000" maskUnits="userSpaceOnUse"><path fill="#fff" d="M32.66 22.68h909v507h-909z"/><path d="M894.28 29.08c0 16.75 18.41 30.33 41.17 30.4v433.7c-22.57.07-40.87 13.44-41.16 30H79.45c-.29-16.47-18.39-29.78-40.79-29.99V59.48c22.59-.22 40.8-13.74 40.8-30.4 0-.13 0-.27-.01-.4h814.84c-.01.13-.01.27-.01.4"/></mask><path fill="#fcf0d6" d="M894.28 29.08h-5.62zm41.17 30.4h5.61c0-3.09-2.5-5.6-5.6-5.61zm0 433.7.01 5.62c3.1-.01 5.6-2.52 5.6-5.62zm-41.16 30v5.61c3.06 0 5.56-2.45 5.61-5.51zm-814.84 0-5.61.1a5.607 5.607 0 0 0 5.61 5.51zm-40.79-29.99h-5.61a5.61 5.61 0 0 0 5.56 5.61zm0-433.71-.05-5.62a5.62 5.62 0 0 0-5.56 5.62zm40.8-30.4h5.62zm-.01-.4v-5.62c-1.5 0-2.95.61-4 1.68a5.6 5.6 0 0 0-1.61 4.04zm814.84 0 5.61.1a5.6 5.6 0 0 0-1.61-4.04 5.62 5.62 0 0 0-4-1.68zm-.01.4h-5.62c0 10.58 5.83 19.7 14.34 25.97 8.5 6.28 19.98 10.01 32.43 10.05l.02-5.62.01-5.61c-10.3-.04-19.4-3.14-25.8-7.85-6.39-4.72-9.77-10.77-9.77-16.94zm41.17 30.4h-5.62v433.7h11.23V59.48zm0 433.7-.02-5.61c-12.35.04-23.74 3.7-32.22 9.89-8.48 6.18-14.35 15.16-14.54 25.62l5.62.1 5.61.1c.11-6.11 3.53-12.09 9.92-16.75 6.38-4.65 15.42-7.7 25.64-7.73zm-41.16 30v-5.62H79.45v11.23h814.84zm-814.84 0 5.62-.1c-.19-10.4-5.99-19.34-14.4-25.52-8.4-6.18-19.7-9.87-31.95-9.99l-.06 5.62-.05 5.61c10.14.1 19.1 3.17 25.41 7.81 6.32 4.65 9.71 10.6 9.82 16.67zm-40.79-29.99h5.62V59.48H33.05v433.71zm0-433.71.06 5.61c12.35-.12 23.73-3.87 32.16-10.14s14.2-15.35 14.2-25.87H73.85c0 6.14-3.35 12.15-9.67 16.86-6.33 4.71-15.34 7.82-25.57 7.92zm40.8-30.4h5.62c0-.19-.01-.48-.01-.5l-5.62.1-5.61.1c0 .25.01.23.01.3zm-.01-.4v5.61h814.84V23.06H79.45zm814.84 0-5.62-.1c0 .02-.01.31-.01.5h11.23c0-.07 0-.05.01-.3z" mask="url(#m)"/><path fill="url(#n)" d="M894.28 29.08h-5.62zm41.17 30.4h5.61c0-3.09-2.5-5.6-5.6-5.61zm0 433.7.01 5.62c3.1-.01 5.6-2.52 5.6-5.62zm-41.16 30v5.61c3.06 0 5.56-2.45 5.61-5.51zm-814.84 0-5.61.1a5.607 5.607 0 0 0 5.61 5.51zm-40.79-29.99h-5.61a5.61 5.61 0 0 0 5.56 5.61zm0-433.71-.05-5.62a5.62 5.62 0 0 0-5.56 5.62zm40.8-30.4h5.62zm-.01-.4v-5.62c-1.5 0-2.95.61-4 1.68a5.6 5.6 0 0 0-1.61 4.04zm814.84 0 5.61.1a5.6 5.6 0 0 0-1.61-4.04 5.62 5.62 0 0 0-4-1.68zm-.01.4h-5.62c0 10.58 5.83 19.7 14.34 25.97 8.5 6.28 19.98 10.01 32.43 10.05l.02-5.62.01-5.61c-10.3-.04-19.4-3.14-25.8-7.85-6.39-4.72-9.77-10.77-9.77-16.94zm41.17 30.4h-5.62v433.7h11.23V59.48zm0 433.7-.02-5.61c-12.35.04-23.74 3.7-32.22 9.89-8.48 6.18-14.35 15.16-14.54 25.62l5.62.1 5.61.1c.11-6.11 3.53-12.09 9.92-16.75 6.38-4.65 15.42-7.7 25.64-7.73zm-41.16 30v-5.62H79.45v11.23h814.84zm-814.84 0 5.62-.1c-.19-10.4-5.99-19.34-14.4-25.52-8.4-6.18-19.7-9.87-31.95-9.99l-.06 5.62-.05 5.61c10.14.1 19.1 3.17 25.41 7.81 6.32 4.65 9.71 10.6 9.82 16.67zm-40.79-29.99h5.62V59.48H33.05v433.71zm0-433.71.06 5.61c12.35-.12 23.73-3.87 32.16-10.14s14.2-15.35 14.2-25.87H73.85c0 6.14-3.35 12.15-9.67 16.86-6.33 4.71-15.34 7.82-25.57 7.92zm40.8-30.4h5.62c0-.19-.01-.48-.01-.5l-5.62.1-5.61.1c0 .25.01.23.01.3zm-.01-.4v5.61h814.84V23.06H79.45zm814.84 0-5.62-.1c0 .02-.01.31-.01.5h11.23c0-.07 0-.05.01-.3z" mask="url(#m)"/></g></g><defs><linearGradient id="d" x1="38.66" x2="935.45" y1="275.93" y2="275.93" gradientUnits="userSpaceOnUse"><stop stop-color="#3c3024"/><stop offset="1" stop-color="#bd7b49"/></linearGradient><linearGradient id="g" x1="-18.09" x2="67.04" y1="19.85" y2="19.85" gradientUnits="userSpaceOnUse"><stop stop-color="#3c3024"/><stop offset="1" stop-color="#bd7b49"/></linearGradient><linearGradient id="h" x1="25.04" x2="948.31" y1="275.93" y2="275.93" gradientUnits="userSpaceOnUse"><stop stop-color="#3c3024"/><stop offset="1" stop-color="#bd7b49"/></linearGradient><linearGradient id="k" x1="25.04" x2="948.31" y1="275.93" y2="275.93" gradientUnits="userSpaceOnUse"><stop stop-color="#3c3024"/><stop offset="1" stop-color="#bd7b49"/></linearGradient><linearGradient id="n" x1="38.66" x2="935.45" y1="275.93" y2="275.93" gradientUnits="userSpaceOnUse"><stop stop-color="#3c3024"/><stop offset="1" stop-color="#bd7b49"/></linearGradient><filter id="a" width="973.35" height="563.08" x="0" y="0" color-interpolation-filters="sRGB" filterUnits="userSpaceOnUse"><feFlood flood-opacity="0" result="BackgroundImageFix"/><feColorMatrix in="SourceAlpha" result="hardAlpha" values="0 0 0 0 0 0 0 0 0 0 0 0 0 0 0 0 0 0 127 0"/><feOffset dy="5.61"/><feGaussianBlur stdDeviation="9.71"/><feComposite in2="hardAlpha" operator="out"/><feColorMatrix values="0 0 0 0 1 0 0 0 0 0.97 0 0 0 0 0.85 0 0 0 0.82 0"/><feBlend in2="BackgroundImageFix" result="effect1_dropShadow_24_8247"/><feBlend in="SourceGraphic" in2="effect1_dropShadow_24_8247" result="shape"/></filter><filter id="b" width="921.49" height="516.96" x="27.43" y="17.45" color-interpolation-filters="sRGB" filterUnits="userSpaceOnUse"><feFlood flood-opacity="0" result="BackgroundImageFix"/><feBlend in="SourceGraphic" in2="BackgroundImageFix" result="shape"/><feColorMatrix in="SourceAlpha" result="hardAlpha" values="0 0 0 0 0 0 0 0 0 0 0 0 0 0 0 0 0 0 127 0"/><feOffset dx="7.86" dy="-5.61"/><feGaussianBlur stdDeviation="4.32"/><feComposite in2="hardAlpha" k2="-1" k3="1" operator="arithmetic"/><feColorMatrix values="0 0 0 0 0 0 0 0 0 0 0 0 0 0 0 0 0 0 0.59 0"/><feBlend in2="shape" result="effect1_innerShadow_24_8247"/><feColorMatrix in="SourceAlpha" result="hardAlpha" values="0 0 0 0 0 0 0 0 0 0 0 0 0 0 0 0 0 0 127 0"/><feOffset dx="-5.61" dy="5.61"/><feGaussianBlur stdDeviation="5.17"/><feComposite in2="hardAlpha" k2="-1" k3="1" operator="arithmetic"/><feColorMatrix values="0 0 0 0 0 0 0 0 0 0 0 0 0 0 0 0 0 0 1 0"/><feBlend in2="effect1_innerShadow_24_8247" result="effect2_innerShadow_24_8247"/></filter><filter id="i" width="935.62" height="525.35" x="18.3" y="12.69" color-interpolation-filters="sRGB" filterUnits="userSpaceOnUse"><feFlood flood-opacity="0" result="BackgroundImageFix"/><feBlend in="SourceGraphic" in2="BackgroundImageFix" result="shape"/><feColorMatrix in="SourceAlpha" result="hardAlpha" values="0 0 0 0 0 0 0 0 0 0 0 0 0 0 0 0 0 0 127 0"/><feOffset dx="-1.12" dy="-1.12"/><feGaussianBlur stdDeviation=".79"/><feComposite in2="hardAlpha" k2="-1" k3="1" operator="arithmetic"/><feColorMatrix values="0 0 0 0 0.91 0 0 0 0 0.48 0 0 0 0 0 0 0 0 1 0"/><feBlend in2="shape" result="effect1_innerShadow_24_8247"/><feColorMatrix in="SourceAlpha" result="hardAlpha" values="0 0 0 0 0 0 0 0 0 0 0 0 0 0 0 0 0 0 127 0"/><feOffset dx="-1.12" dy="1.12"/><feComposite in2="hardAlpha" k2="-1" k3="1" operator="arithmetic"/><feColorMatrix values="0 0 0 0 1 0 0 0 0 1 0 0 0 0 1 0 0 0 1 0"/><feBlend in2="effect1_innerShadow_24_8247" result="effect2_innerShadow_24_8247"/></filter><filter id="l" width="909.13" height="506.85" x="31.93" y="21.94" color-interpolation-filters="sRGB" filterUnits="userSpaceOnUse"><feFlood flood-opacity="0" result="BackgroundImageFix"/><feBlend in="SourceGraphic" in2="BackgroundImageFix" result="shape"/><feColorMatrix in="SourceAlpha" result="hardAlpha" values="0 0 0 0 0 0 0 0 0 0 0 0 0 0 0 0 0 0 127 0"/><feOffset dx="-1.12" dy="-1.12"/><feGaussianBlur stdDeviation=".79"/><feComposite in2="hardAlpha" k2="-1" k3="1" operator="arithmetic"/><feColorMatrix values="0 0 0 0 0.91 0 0 0 0 0.48 0 0 0 0 0 0 0 0 1 0"/><feBlend in2="shape" result="effect1_innerShadow_24_8247"/><feColorMatrix in="SourceAlpha" result="hardAlpha" values="0 0 0 0 0 0 0 0 0 0 0 0 0 0 0 0 0 0 127 0"/><feOffset dx="-1.12" dy="1.12"/><feComposite in2="hardAlpha" k2="-1" k3="1" operator="arithmetic"/><feColorMatrix values="0 0 0 0 1 0 0 0 0 1 0 0 0 0 1 0 0 0 1 0"/><feBlend in2="effect1_innerShadow_24_8247" result="effect2_innerShadow_24_8247"/></filter></defs></svg>