<svg width="974" height="564" viewBox="0 0 974 564" fill="none" xmlns="http://www.w3.org/2000/svg">
<g filter="url(#filter0_d_24_8247)">
<g filter="url(#filter1_ii_24_8247)">
<mask id="mask0_24_8247" style="mask-type:alpha" maskUnits="userSpaceOnUse" x="33" y="23" width="909" height="506">
<mask id="path-1-outside-1_24_8247" maskUnits="userSpaceOnUse" x="32.664" y="22.6777" width="909" height="507" fill="black">
<rect fill="white" x="32.664" y="22.6777" width="909" height="507"/>
<path d="M894.279 29.083C894.279 45.8278 912.694 59.4089 935.446 59.4805V493.184C912.878 493.255 894.581 506.619 894.286 523.177H79.454C79.1611 506.709 61.0622 493.402 38.664 493.188V59.4766C61.2457 59.2599 79.4607 45.7369 79.4609 29.083C79.4609 28.9478 79.4564 28.8125 79.454 28.6777H894.286C894.284 28.8125 894.279 28.9478 894.279 29.083Z"/>
</mask>
<path d="M894.279 29.083C894.279 45.8278 912.694 59.4089 935.446 59.4805V493.184C912.878 493.255 894.581 506.619 894.286 523.177H79.454C79.1611 506.709 61.0622 493.402 38.664 493.188V59.4766C61.2457 59.2599 79.4607 45.7369 79.4609 29.083C79.4609 28.9478 79.4564 28.8125 79.454 28.6777H894.286C894.284 28.8125 894.279 28.9478 894.279 29.083Z" fill="#D9D9D9"/>
<path d="M894.279 29.083H888.664V29.0831L894.279 29.083ZM935.446 59.4805H941.061C941.061 56.3864 938.558 53.8755 935.464 53.8657L935.446 59.4805ZM935.446 493.184L935.464 498.798C938.558 498.789 941.061 496.278 941.061 493.184H935.446ZM894.286 523.177V528.792C897.348 528.792 899.845 526.338 899.9 523.277L894.286 523.177ZM79.454 523.177L73.8402 523.277C73.8946 526.338 76.392 528.792 79.454 528.792V523.177ZM38.664 493.188H33.0492C33.0492 496.267 35.5303 498.772 38.6101 498.802L38.664 493.188ZM38.664 59.4766L38.6101 53.8621C35.5303 53.8916 33.0492 56.3966 33.0492 59.4766H38.664ZM79.4609 29.083L85.0756 29.0831V29.083H79.4609ZM79.454 28.6777V23.063C77.9476 23.063 76.5044 23.6683 75.4487 24.7429C74.393 25.8175 73.8134 27.2713 73.8402 28.7774L79.454 28.6777ZM894.286 28.6777L899.9 28.7774C899.927 27.2713 899.347 25.8175 898.291 24.7429C897.236 23.6683 895.792 23.063 894.286 23.063V28.6777ZM894.279 29.083L888.664 29.0831C888.665 39.6614 894.493 48.7754 902.996 55.0516C911.501 61.3293 922.984 65.0561 935.429 65.0952L935.446 59.4805L935.464 53.8657C925.156 53.8333 916.056 50.7338 909.665 46.0168C903.273 41.2983 899.894 35.2494 899.894 29.0829L894.279 29.083ZM935.446 59.4805H929.831V493.184H935.446H941.061V59.4805H935.446ZM935.446 493.184L935.429 487.569C923.083 487.608 911.687 491.276 903.205 497.461C894.728 503.642 888.858 512.621 888.672 523.077L894.286 523.177L899.9 523.277C900.008 517.174 903.434 511.192 909.822 506.534C916.204 501.88 925.241 498.83 935.464 498.798L935.446 493.184ZM894.286 523.177V517.562H79.454V523.177V528.792H894.286V523.177ZM79.454 523.177L85.0679 523.077C84.8829 512.679 79.0757 503.741 70.6744 497.564C62.2693 491.384 50.9717 487.691 38.7179 487.573L38.664 493.188L38.6101 498.802C48.7545 498.899 57.7055 501.967 64.0226 506.611C70.3435 511.258 73.7322 517.207 73.8402 523.277L79.454 523.177ZM38.664 493.188H44.2788V59.4766H38.664H33.0492V493.188H38.664ZM38.664 59.4766L38.7179 65.0911C51.0709 64.9725 62.4549 61.2199 70.8826 54.948C79.3096 48.6767 85.0755 39.6033 85.0756 29.0831L79.4609 29.083L73.8461 29.0829C73.846 35.2166 70.5044 41.2316 64.1784 45.9394C57.8531 50.6467 48.8388 53.7639 38.6101 53.8621L38.664 59.4766ZM79.4609 29.083H85.0756C85.0756 28.8854 85.0682 28.5959 85.0679 28.578L79.454 28.6777L73.8402 28.7774C73.8446 29.0292 73.8461 29.0102 73.8461 29.083H79.4609ZM79.454 28.6777V34.2925H894.286V28.6777V23.063H79.454V28.6777ZM894.286 28.6777L888.672 28.578C888.672 28.5959 888.664 28.8854 888.664 29.083H894.279H899.894C899.894 29.0102 899.895 29.0292 899.9 28.7774L894.286 28.6777Z" fill="#FDE0A3" mask="url(#path-1-outside-1_24_8247)"/>
<path d="M894.279 29.083H888.664V29.0831L894.279 29.083ZM935.446 59.4805H941.061C941.061 56.3864 938.558 53.8755 935.464 53.8657L935.446 59.4805ZM935.446 493.184L935.464 498.798C938.558 498.789 941.061 496.278 941.061 493.184H935.446ZM894.286 523.177V528.792C897.348 528.792 899.845 526.338 899.9 523.277L894.286 523.177ZM79.454 523.177L73.8402 523.277C73.8946 526.338 76.392 528.792 79.454 528.792V523.177ZM38.664 493.188H33.0492C33.0492 496.267 35.5303 498.772 38.6101 498.802L38.664 493.188ZM38.664 59.4766L38.6101 53.8621C35.5303 53.8916 33.0492 56.3966 33.0492 59.4766H38.664ZM79.4609 29.083L85.0756 29.0831V29.083H79.4609ZM79.454 28.6777V23.063C77.9476 23.063 76.5044 23.6683 75.4487 24.7429C74.393 25.8175 73.8134 27.2713 73.8402 28.7774L79.454 28.6777ZM894.286 28.6777L899.9 28.7774C899.927 27.2713 899.347 25.8175 898.291 24.7429C897.236 23.6683 895.792 23.063 894.286 23.063V28.6777ZM894.279 29.083L888.664 29.0831C888.665 39.6614 894.493 48.7754 902.996 55.0516C911.501 61.3293 922.984 65.0561 935.429 65.0952L935.446 59.4805L935.464 53.8657C925.156 53.8333 916.056 50.7338 909.665 46.0168C903.273 41.2983 899.894 35.2494 899.894 29.0829L894.279 29.083ZM935.446 59.4805H929.831V493.184H935.446H941.061V59.4805H935.446ZM935.446 493.184L935.429 487.569C923.083 487.608 911.687 491.276 903.205 497.461C894.728 503.642 888.858 512.621 888.672 523.077L894.286 523.177L899.9 523.277C900.008 517.174 903.434 511.192 909.822 506.534C916.204 501.88 925.241 498.83 935.464 498.798L935.446 493.184ZM894.286 523.177V517.562H79.454V523.177V528.792H894.286V523.177ZM79.454 523.177L85.0679 523.077C84.8829 512.679 79.0757 503.741 70.6744 497.564C62.2693 491.384 50.9717 487.691 38.7179 487.573L38.664 493.188L38.6101 498.802C48.7545 498.899 57.7055 501.967 64.0226 506.611C70.3435 511.258 73.7322 517.207 73.8402 523.277L79.454 523.177ZM38.664 493.188H44.2788V59.4766H38.664H33.0492V493.188H38.664ZM38.664 59.4766L38.7179 65.0911C51.0709 64.9725 62.4549 61.2199 70.8826 54.948C79.3096 48.6767 85.0755 39.6033 85.0756 29.0831L79.4609 29.083L73.8461 29.0829C73.846 35.2166 70.5044 41.2316 64.1784 45.9394C57.8531 50.6467 48.8388 53.7639 38.6101 53.8621L38.664 59.4766ZM79.4609 29.083H85.0756C85.0756 28.8854 85.0682 28.5959 85.0679 28.578L79.454 28.6777L73.8402 28.7774C73.8446 29.0292 73.8461 29.0102 73.8461 29.083H79.4609ZM79.454 28.6777V34.2925H894.286V28.6777V23.063H79.454V28.6777ZM894.286 28.6777L888.672 28.578C888.672 28.5959 888.664 28.8854 888.664 29.083H894.279H899.894C899.894 29.0102 899.895 29.0292 899.9 28.7774L894.286 28.6777Z" fill="url(#paint0_linear_24_8247)" mask="url(#path-1-outside-1_24_8247)"/>
</mask>
<g mask="url(#mask0_24_8247)">
<mask id="path-3-outside-2_24_8247" maskUnits="userSpaceOnUse" x="-38.0942" y="-31.6895" width="125" height="103" fill="black">
<rect fill="white" x="-38.0942" y="-31.6895" width="125" height="103"/>
<path d="M24.4742 -11.6895C47.9842 -11.6895 67.0435 2.43032 67.0435 19.8477C67.0433 37.2649 47.9841 51.3848 24.4742 51.3848C0.964359 51.3846 -18.094 37.2648 -18.0942 19.8477C-18.0942 2.43041 0.964258 -11.6893 24.4742 -11.6895Z"/>
</mask>
<path d="M24.4742 -11.6895C47.9842 -11.6895 67.0435 2.43032 67.0435 19.8477C67.0433 37.2649 47.9841 51.3848 24.4742 51.3848C0.964359 51.3846 -18.094 37.2648 -18.0942 19.8477C-18.0942 2.43041 0.964258 -11.6893 24.4742 -11.6895Z" fill="#FDE0A3"/>
<path d="M24.4742 -11.6895V-30.7796H24.474L24.4742 -11.6895ZM67.0435 19.8477L86.1337 19.8478V19.8477H67.0435ZM24.4742 51.3848L24.474 70.4749H24.4742V51.3848ZM-18.0942 19.8477H-37.1844V19.8478L-18.0942 19.8477ZM24.4742 -11.6895V7.40071C32.5523 7.40071 39.1143 9.85184 43.2111 12.8869C47.311 15.9243 47.9533 18.5968 47.9533 19.8477H67.0435H86.1337C86.1337 3.68121 77.2463 -9.41485 65.9391 -17.7917C54.6287 -26.1709 39.906 -30.7796 24.4742 -30.7796V-11.6895ZM67.0435 19.8477L47.9533 19.8475C47.9533 21.0984 47.3109 23.771 43.211 26.8084C39.1142 29.8435 32.5522 32.2946 24.4742 32.2946V51.3848V70.4749C39.906 70.4749 54.6287 65.8661 65.939 57.487C77.2462 49.1101 86.1335 36.0141 86.1337 19.8478L67.0435 19.8477ZM24.4742 51.3848L24.4743 32.2946C16.3963 32.2945 9.83462 29.8434 5.73805 26.8084C1.63841 23.7712 0.995968 21.0986 0.995956 19.8475L-18.0942 19.8477L-37.1844 19.8478C-37.1842 36.0138 -28.2974 49.1098 -16.9903 57.4867C-5.68021 65.866 9.04223 70.4748 24.474 70.4749L24.4742 51.3848ZM-18.0942 19.8477H0.995956C0.995956 18.5965 1.63834 15.9241 5.73793 12.8869C9.83448 9.8519 16.3962 7.40077 24.4743 7.40071L24.4742 -11.6895L24.474 -30.7796C9.04224 -30.7795 -5.68025 -26.1707 -16.9904 -17.7915C-28.2975 -9.41449 -37.1844 3.68153 -37.1844 19.8477H-18.0942Z" fill="#FDE0A3" mask="url(#path-3-outside-2_24_8247)"/>
<path d="M24.4742 -11.6895V-30.7796H24.474L24.4742 -11.6895ZM67.0435 19.8477L86.1337 19.8478V19.8477H67.0435ZM24.4742 51.3848L24.474 70.4749H24.4742V51.3848ZM-18.0942 19.8477H-37.1844V19.8478L-18.0942 19.8477ZM24.4742 -11.6895V7.40071C32.5523 7.40071 39.1143 9.85184 43.2111 12.8869C47.311 15.9243 47.9533 18.5968 47.9533 19.8477H67.0435H86.1337C86.1337 3.68121 77.2463 -9.41485 65.9391 -17.7917C54.6287 -26.1709 39.906 -30.7796 24.4742 -30.7796V-11.6895ZM67.0435 19.8477L47.9533 19.8475C47.9533 21.0984 47.3109 23.771 43.211 26.8084C39.1142 29.8435 32.5522 32.2946 24.4742 32.2946V51.3848V70.4749C39.906 70.4749 54.6287 65.8661 65.939 57.487C77.2462 49.1101 86.1335 36.0141 86.1337 19.8478L67.0435 19.8477ZM24.4742 51.3848L24.4743 32.2946C16.3963 32.2945 9.83462 29.8434 5.73805 26.8084C1.63841 23.7712 0.995968 21.0986 0.995956 19.8475L-18.0942 19.8477L-37.1844 19.8478C-37.1842 36.0138 -28.2974 49.1098 -16.9903 57.4867C-5.68021 65.866 9.04223 70.4748 24.474 70.4749L24.4742 51.3848ZM-18.0942 19.8477H0.995956C0.995956 18.5965 1.63834 15.9241 5.73793 12.8869C9.83448 9.8519 16.3962 7.40077 24.4743 7.40071L24.4742 -11.6895L24.474 -30.7796C9.04224 -30.7795 -5.68025 -26.1707 -16.9904 -17.7915C-28.2975 -9.41449 -37.1844 3.68153 -37.1844 19.8477H-18.0942Z" fill="url(#paint1_linear_24_8247)" mask="url(#path-3-outside-2_24_8247)"/>
<path d="M947.169 20.5686V531.285H26.1835V20.5686H947.169Z"/>
<path d="M947.169 20.5686V531.285H26.1835V20.5686H947.169Z" stroke="#FDE0A3" stroke-width="2.28333"/>
<path d="M947.169 20.5686V531.285H26.1835V20.5686H947.169Z" stroke="url(#paint2_linear_24_8247)" stroke-width="2.28333"/>
</g>
</g>
<g filter="url(#filter2_ii_24_8247)">
<mask id="path-6-outside-3_24_8247" maskUnits="userSpaceOnUse" x="19.0418" y="13.427" width="935" height="525" fill="black">
<rect fill="white" x="19.0418" y="13.427" width="935" height="525"/>
<path d="M905.931 19.8479C905.932 37.2183 924.888 51.3066 948.311 51.3821V501.312C925.078 501.387 906.241 515.25 905.938 532.427H67.0359C66.7346 515.343 48.1015 501.539 25.0418 501.316V51.3782C48.2902 51.1532 67.0424 37.1247 67.0428 19.8479C67.0428 19.7075 67.0384 19.5669 67.0359 19.427H905.938C905.936 19.5669 905.931 19.7075 905.931 19.8479Z"/>
</mask>
<path d="M905.931 19.8479H900.317V19.848L905.931 19.8479ZM948.311 51.3821H953.926C953.926 48.2882 951.423 45.7773 948.329 45.7674L948.311 51.3821ZM948.311 501.312L948.329 506.926C951.423 506.917 953.926 504.406 953.926 501.312H948.311ZM905.938 532.427V538.042C909.001 538.042 911.498 535.588 911.552 532.526L905.938 532.427ZM67.0359 532.427L61.4221 532.526C61.4761 535.588 63.9736 538.042 67.0359 538.042V532.427ZM25.0418 501.316H19.4271C19.4271 504.395 21.9079 506.9 24.9875 506.93L25.0418 501.316ZM25.0418 51.3782L24.9875 45.7637C21.9079 45.7935 19.4271 48.2984 19.4271 51.3782H25.0418ZM67.0428 19.8479L72.6575 19.848V19.8479H67.0428ZM67.0359 19.427V13.8122C65.5297 13.8122 64.0865 14.4175 63.0309 15.4919C61.9752 16.5664 61.3955 18.02 61.4221 19.526L67.0359 19.427ZM905.938 19.427L911.552 19.526C911.579 18.02 910.999 16.5664 909.943 15.4919C908.888 14.4175 907.445 13.8122 905.938 13.8122V19.427ZM905.931 19.8479L900.317 19.848C900.317 30.7205 906.262 40.1163 914.987 46.6058C923.712 53.0954 935.504 56.9556 948.293 56.9968L948.311 51.3821L948.329 45.7674C937.696 45.7331 928.298 42.5114 921.689 37.5955C915.079 32.6793 911.546 26.3458 911.546 19.8478L905.931 19.8479ZM948.311 51.3821H942.697V501.312H948.311H953.926V51.3821H948.311ZM948.311 501.312L948.293 495.697C935.606 495.738 923.903 499.537 915.201 505.932C906.502 512.324 900.514 521.581 900.324 532.328L905.938 532.427L911.552 532.526C911.666 526.096 915.247 519.833 921.851 514.981C928.451 510.13 937.783 506.96 948.329 506.926L948.311 501.312ZM905.938 532.427V526.812H67.0359V532.427V538.042H905.938V532.427ZM67.0359 532.427L72.6498 532.328C72.4613 521.64 66.5367 512.424 57.9156 506.037C49.2925 499.649 37.6903 495.823 25.0961 495.701L25.0418 501.316L24.9875 506.93C35.453 507.031 44.6972 510.22 51.2309 515.06C57.7666 519.902 61.3093 526.131 61.4221 532.526L67.0359 532.427ZM25.0418 501.316H30.6566V51.3782H25.0418H19.4271V501.316H25.0418ZM25.0418 51.3782L25.0961 56.9927C37.7922 56.8698 49.4829 52.9831 58.1289 46.4995C66.7758 40.0151 72.6573 30.6611 72.6575 19.848L67.0428 19.8479L61.428 19.8478C61.4279 26.3115 57.9331 32.6101 51.3917 37.5154C44.8494 42.4215 35.5398 45.6616 24.9875 45.7637L25.0418 51.3782ZM67.0428 19.8479H72.6575C72.6575 19.6438 72.6505 19.365 72.6498 19.328L67.0359 19.427L61.4221 19.526C61.4264 19.7689 61.428 19.7713 61.428 19.8479H67.0428ZM67.0359 19.427V25.0418H905.938V19.427V13.8122H67.0359V19.427ZM905.938 19.427L900.324 19.328C900.324 19.365 900.317 19.6438 900.317 19.8479H905.931H911.546C911.546 19.7713 911.548 19.7689 911.552 19.526L905.938 19.427Z" fill="#FCF0D6" mask="url(#path-6-outside-3_24_8247)"/>
<path d="M905.931 19.8479H900.317V19.848L905.931 19.8479ZM948.311 51.3821H953.926C953.926 48.2882 951.423 45.7773 948.329 45.7674L948.311 51.3821ZM948.311 501.312L948.329 506.926C951.423 506.917 953.926 504.406 953.926 501.312H948.311ZM905.938 532.427V538.042C909.001 538.042 911.498 535.588 911.552 532.526L905.938 532.427ZM67.0359 532.427L61.4221 532.526C61.4761 535.588 63.9736 538.042 67.0359 538.042V532.427ZM25.0418 501.316H19.4271C19.4271 504.395 21.9079 506.9 24.9875 506.93L25.0418 501.316ZM25.0418 51.3782L24.9875 45.7637C21.9079 45.7935 19.4271 48.2984 19.4271 51.3782H25.0418ZM67.0428 19.8479L72.6575 19.848V19.8479H67.0428ZM67.0359 19.427V13.8122C65.5297 13.8122 64.0865 14.4175 63.0309 15.4919C61.9752 16.5664 61.3955 18.02 61.4221 19.526L67.0359 19.427ZM905.938 19.427L911.552 19.526C911.579 18.02 910.999 16.5664 909.943 15.4919C908.888 14.4175 907.445 13.8122 905.938 13.8122V19.427ZM905.931 19.8479L900.317 19.848C900.317 30.7205 906.262 40.1163 914.987 46.6058C923.712 53.0954 935.504 56.9556 948.293 56.9968L948.311 51.3821L948.329 45.7674C937.696 45.7331 928.298 42.5114 921.689 37.5955C915.079 32.6793 911.546 26.3458 911.546 19.8478L905.931 19.8479ZM948.311 51.3821H942.697V501.312H948.311H953.926V51.3821H948.311ZM948.311 501.312L948.293 495.697C935.606 495.738 923.903 499.537 915.201 505.932C906.502 512.324 900.514 521.581 900.324 532.328L905.938 532.427L911.552 532.526C911.666 526.096 915.247 519.833 921.851 514.981C928.451 510.13 937.783 506.96 948.329 506.926L948.311 501.312ZM905.938 532.427V526.812H67.0359V532.427V538.042H905.938V532.427ZM67.0359 532.427L72.6498 532.328C72.4613 521.64 66.5367 512.424 57.9156 506.037C49.2925 499.649 37.6903 495.823 25.0961 495.701L25.0418 501.316L24.9875 506.93C35.453 507.031 44.6972 510.22 51.2309 515.06C57.7666 519.902 61.3093 526.131 61.4221 532.526L67.0359 532.427ZM25.0418 501.316H30.6566V51.3782H25.0418H19.4271V501.316H25.0418ZM25.0418 51.3782L25.0961 56.9927C37.7922 56.8698 49.4829 52.9831 58.1289 46.4995C66.7758 40.0151 72.6573 30.6611 72.6575 19.848L67.0428 19.8479L61.428 19.8478C61.4279 26.3115 57.9331 32.6101 51.3917 37.5154C44.8494 42.4215 35.5398 45.6616 24.9875 45.7637L25.0418 51.3782ZM67.0428 19.8479H72.6575C72.6575 19.6438 72.6505 19.365 72.6498 19.328L67.0359 19.427L61.4221 19.526C61.4264 19.7689 61.428 19.7713 61.428 19.8479H67.0428ZM67.0359 19.427V25.0418H905.938V19.427V13.8122H67.0359V19.427ZM905.938 19.427L900.324 19.328C900.324 19.365 900.317 19.6438 900.317 19.8479H905.931H911.546C911.546 19.7713 911.548 19.7689 911.552 19.526L905.938 19.427Z" fill="url(#paint3_linear_24_8247)" mask="url(#path-6-outside-3_24_8247)"/>
</g>
<g filter="url(#filter3_ii_24_8247)">
<mask id="path-8-outside-4_24_8247" maskUnits="userSpaceOnUse" x="32.664" y="22.6777" width="909" height="507" fill="black">
<rect fill="white" x="32.664" y="22.6777" width="909" height="507"/>
<path d="M894.279 29.083C894.279 45.8278 912.694 59.4089 935.446 59.4805V493.184C912.878 493.255 894.581 506.618 894.286 523.176H79.454C79.1604 506.709 61.0618 493.402 38.664 493.188V59.4766C61.2457 59.2599 79.4607 45.7369 79.4609 29.083C79.4609 28.9478 79.4564 28.8125 79.454 28.6777H894.286C894.284 28.8125 894.279 28.9478 894.279 29.083Z"/>
</mask>
<path d="M894.279 29.083H888.664V29.0831L894.279 29.083ZM935.446 59.4805H941.061C941.061 56.3864 938.558 53.8755 935.464 53.8657L935.446 59.4805ZM935.446 493.184L935.464 498.798C938.558 498.789 941.061 496.278 941.061 493.184H935.446ZM894.286 523.176V528.791C897.348 528.791 899.845 526.337 899.9 523.276L894.286 523.176ZM79.454 523.176L73.8402 523.276C73.8948 526.337 76.3921 528.791 79.454 528.791V523.176ZM38.664 493.188H33.0492C33.0492 496.267 35.5303 498.772 38.6101 498.802L38.664 493.188ZM38.664 59.4766L38.6101 53.8621C35.5303 53.8916 33.0492 56.3966 33.0492 59.4766H38.664ZM79.4609 29.083L85.0756 29.0831V29.083H79.4609ZM79.454 28.6777V23.063C77.9476 23.063 76.5044 23.6683 75.4487 24.7429C74.393 25.8175 73.8134 27.2713 73.8402 28.7774L79.454 28.6777ZM894.286 28.6777L899.9 28.7774C899.927 27.2713 899.347 25.8175 898.291 24.7429C897.236 23.6683 895.792 23.063 894.286 23.063V28.6777ZM894.279 29.083L888.664 29.0831C888.665 39.6614 894.493 48.7754 902.996 55.0516C911.501 61.3293 922.984 65.0561 935.429 65.0952L935.446 59.4805L935.464 53.8657C925.156 53.8333 916.056 50.7338 909.665 46.0168C903.273 41.2983 899.894 35.2494 899.894 29.0829L894.279 29.083ZM935.446 59.4805H929.831V493.184H935.446H941.061V59.4805H935.446ZM935.446 493.184L935.429 487.569C923.084 487.608 911.688 491.275 903.206 497.46C894.729 503.642 888.859 512.62 888.672 523.076L894.286 523.176L899.9 523.276C900.009 517.174 903.435 511.191 909.822 506.534C916.204 501.88 925.241 498.83 935.464 498.798L935.446 493.184ZM894.286 523.176V517.561H79.454V523.176V528.791H894.286V523.176ZM79.454 523.176L85.0679 523.076C84.8825 512.678 79.0752 503.74 70.6739 497.563C62.2688 491.384 50.9715 487.691 38.7179 487.573L38.664 493.188L38.6101 498.802C48.7543 498.899 57.7051 501.967 64.0222 506.611C70.3432 511.258 73.732 517.207 73.8402 523.276L79.454 523.176ZM38.664 493.188H44.2788V59.4766H38.664H33.0492V493.188H38.664ZM38.664 59.4766L38.7179 65.0911C51.0709 64.9725 62.4549 61.2199 70.8826 54.948C79.3096 48.6767 85.0755 39.6033 85.0756 29.0831L79.4609 29.083L73.8461 29.0829C73.846 35.2166 70.5044 41.2316 64.1784 45.9394C57.8531 50.6467 48.8388 53.7639 38.6101 53.8621L38.664 59.4766ZM79.4609 29.083H85.0756C85.0756 28.8854 85.0682 28.5959 85.0679 28.578L79.454 28.6777L73.8402 28.7774C73.8446 29.0292 73.8461 29.0102 73.8461 29.083H79.4609ZM79.454 28.6777V34.2925H894.286V28.6777V23.063H79.454V28.6777ZM894.286 28.6777L888.672 28.578C888.672 28.5959 888.664 28.8854 888.664 29.083H894.279H899.894C899.894 29.0102 899.895 29.0292 899.9 28.7774L894.286 28.6777Z" fill="#FCF0D6" mask="url(#path-8-outside-4_24_8247)"/>
<path d="M894.279 29.083H888.664V29.0831L894.279 29.083ZM935.446 59.4805H941.061C941.061 56.3864 938.558 53.8755 935.464 53.8657L935.446 59.4805ZM935.446 493.184L935.464 498.798C938.558 498.789 941.061 496.278 941.061 493.184H935.446ZM894.286 523.176V528.791C897.348 528.791 899.845 526.337 899.9 523.276L894.286 523.176ZM79.454 523.176L73.8402 523.276C73.8948 526.337 76.3921 528.791 79.454 528.791V523.176ZM38.664 493.188H33.0492C33.0492 496.267 35.5303 498.772 38.6101 498.802L38.664 493.188ZM38.664 59.4766L38.6101 53.8621C35.5303 53.8916 33.0492 56.3966 33.0492 59.4766H38.664ZM79.4609 29.083L85.0756 29.0831V29.083H79.4609ZM79.454 28.6777V23.063C77.9476 23.063 76.5044 23.6683 75.4487 24.7429C74.393 25.8175 73.8134 27.2713 73.8402 28.7774L79.454 28.6777ZM894.286 28.6777L899.9 28.7774C899.927 27.2713 899.347 25.8175 898.291 24.7429C897.236 23.6683 895.792 23.063 894.286 23.063V28.6777ZM894.279 29.083L888.664 29.0831C888.665 39.6614 894.493 48.7754 902.996 55.0516C911.501 61.3293 922.984 65.0561 935.429 65.0952L935.446 59.4805L935.464 53.8657C925.156 53.8333 916.056 50.7338 909.665 46.0168C903.273 41.2983 899.894 35.2494 899.894 29.0829L894.279 29.083ZM935.446 59.4805H929.831V493.184H935.446H941.061V59.4805H935.446ZM935.446 493.184L935.429 487.569C923.084 487.608 911.688 491.275 903.206 497.46C894.729 503.642 888.859 512.62 888.672 523.076L894.286 523.176L899.9 523.276C900.009 517.174 903.435 511.191 909.822 506.534C916.204 501.88 925.241 498.83 935.464 498.798L935.446 493.184ZM894.286 523.176V517.561H79.454V523.176V528.791H894.286V523.176ZM79.454 523.176L85.0679 523.076C84.8825 512.678 79.0752 503.74 70.6739 497.563C62.2688 491.384 50.9715 487.691 38.7179 487.573L38.664 493.188L38.6101 498.802C48.7543 498.899 57.7051 501.967 64.0222 506.611C70.3432 511.258 73.732 517.207 73.8402 523.276L79.454 523.176ZM38.664 493.188H44.2788V59.4766H38.664H33.0492V493.188H38.664ZM38.664 59.4766L38.7179 65.0911C51.0709 64.9725 62.4549 61.2199 70.8826 54.948C79.3096 48.6767 85.0755 39.6033 85.0756 29.0831L79.4609 29.083L73.8461 29.0829C73.846 35.2166 70.5044 41.2316 64.1784 45.9394C57.8531 50.6467 48.8388 53.7639 38.6101 53.8621L38.664 59.4766ZM79.4609 29.083H85.0756C85.0756 28.8854 85.0682 28.5959 85.0679 28.578L79.454 28.6777L73.8402 28.7774C73.8446 29.0292 73.8461 29.0102 73.8461 29.083H79.4609ZM79.454 28.6777V34.2925H894.286V28.6777V23.063H79.454V28.6777ZM894.286 28.6777L888.672 28.578C888.672 28.5959 888.664 28.8854 888.664 29.083H894.279H899.894C899.894 29.0102 899.895 29.0292 899.9 28.7774L894.286 28.6777Z" fill="url(#paint4_linear_24_8247)" mask="url(#path-8-outside-4_24_8247)"/>
</g>
</g>
<defs>
<filter id="filter0_d_24_8247" x="1.52588e-05" y="-3.8147e-05" width="973.353" height="563.084" filterUnits="userSpaceOnUse" color-interpolation-filters="sRGB">
<feFlood flood-opacity="0" result="BackgroundImageFix"/>
<feColorMatrix in="SourceAlpha" type="matrix" values="0 0 0 0 0 0 0 0 0 0 0 0 0 0 0 0 0 0 127 0" result="hardAlpha"/>
<feOffset dy="5.61475"/>
<feGaussianBlur stdDeviation="9.71352"/>
<feComposite in2="hardAlpha" operator="out"/>
<feColorMatrix type="matrix" values="0 0 0 0 1 0 0 0 0 0.972549 0 0 0 0 0.85098 0 0 0 0.82 0"/>
<feBlend mode="normal" in2="BackgroundImageFix" result="effect1_dropShadow_24_8247"/>
<feBlend mode="normal" in="SourceGraphic" in2="effect1_dropShadow_24_8247" result="shape"/>
</filter>
<filter id="filter1_ii_24_8247" x="27.4345" y="17.4482" width="921.487" height="516.958" filterUnits="userSpaceOnUse" color-interpolation-filters="sRGB">
<feFlood flood-opacity="0" result="BackgroundImageFix"/>
<feBlend mode="normal" in="SourceGraphic" in2="BackgroundImageFix" result="shape"/>
<feColorMatrix in="SourceAlpha" type="matrix" values="0 0 0 0 0 0 0 0 0 0 0 0 0 0 0 0 0 0 127 0" result="hardAlpha"/>
<feOffset dx="7.86066" dy="-5.61475"/>
<feGaussianBlur stdDeviation="4.32336"/>
<feComposite in2="hardAlpha" operator="arithmetic" k2="-1" k3="1"/>
<feColorMatrix type="matrix" values="0 0 0 0 0 0 0 0 0 0 0 0 0 0 0 0 0 0 0.59 0"/>
<feBlend mode="normal" in2="shape" result="effect1_innerShadow_24_8247"/>
<feColorMatrix in="SourceAlpha" type="matrix" values="0 0 0 0 0 0 0 0 0 0 0 0 0 0 0 0 0 0 127 0" result="hardAlpha"/>
<feOffset dx="-5.61475" dy="5.61475"/>
<feGaussianBlur stdDeviation="5.16557"/>
<feComposite in2="hardAlpha" operator="arithmetic" k2="-1" k3="1"/>
<feColorMatrix type="matrix" values="0 0 0 0 0 0 0 0 0 0 0 0 0 0 0 0 0 0 1 0"/>
<feBlend mode="normal" in2="effect1_innerShadow_24_8247" result="effect2_innerShadow_24_8247"/>
</filter>
<filter id="filter2_ii_24_8247" x="18.3041" y="12.6893" width="935.622" height="525.352" filterUnits="userSpaceOnUse" color-interpolation-filters="sRGB">
<feFlood flood-opacity="0" result="BackgroundImageFix"/>
<feBlend mode="normal" in="SourceGraphic" in2="BackgroundImageFix" result="shape"/>
<feColorMatrix in="SourceAlpha" type="matrix" values="0 0 0 0 0 0 0 0 0 0 0 0 0 0 0 0 0 0 127 0" result="hardAlpha"/>
<feOffset dx="-1.12295" dy="-1.12295"/>
<feGaussianBlur stdDeviation="0.786066"/>
<feComposite in2="hardAlpha" operator="arithmetic" k2="-1" k3="1"/>
<feColorMatrix type="matrix" values="0 0 0 0 0.908373 0 0 0 0 0.479621 0 0 0 0 0 0 0 0 1 0"/>
<feBlend mode="normal" in2="shape" result="effect1_innerShadow_24_8247"/>
<feColorMatrix in="SourceAlpha" type="matrix" values="0 0 0 0 0 0 0 0 0 0 0 0 0 0 0 0 0 0 127 0" result="hardAlpha"/>
<feOffset dx="-1.12295" dy="1.12295"/>
<feComposite in2="hardAlpha" operator="arithmetic" k2="-1" k3="1"/>
<feColorMatrix type="matrix" values="0 0 0 0 1 0 0 0 0 1 0 0 0 0 1 0 0 0 1 0"/>
<feBlend mode="normal" in2="effect1_innerShadow_24_8247" result="effect2_innerShadow_24_8247"/>
</filter>
<filter id="filter3_ii_24_8247" x="31.9263" y="21.94" width="909.135" height="506.85" filterUnits="userSpaceOnUse" color-interpolation-filters="sRGB">
<feFlood flood-opacity="0" result="BackgroundImageFix"/>
<feBlend mode="normal" in="SourceGraphic" in2="BackgroundImageFix" result="shape"/>
<feColorMatrix in="SourceAlpha" type="matrix" values="0 0 0 0 0 0 0 0 0 0 0 0 0 0 0 0 0 0 127 0" result="hardAlpha"/>
<feOffset dx="-1.12295" dy="-1.12295"/>
<feGaussianBlur stdDeviation="0.786066"/>
<feComposite in2="hardAlpha" operator="arithmetic" k2="-1" k3="1"/>
<feColorMatrix type="matrix" values="0 0 0 0 0.908373 0 0 0 0 0.479621 0 0 0 0 0 0 0 0 1 0"/>
<feBlend mode="normal" in2="shape" result="effect1_innerShadow_24_8247"/>
<feColorMatrix in="SourceAlpha" type="matrix" values="0 0 0 0 0 0 0 0 0 0 0 0 0 0 0 0 0 0 127 0" result="hardAlpha"/>
<feOffset dx="-1.12295" dy="1.12295"/>
<feComposite in2="hardAlpha" operator="arithmetic" k2="-1" k3="1"/>
<feColorMatrix type="matrix" values="0 0 0 0 1 0 0 0 0 1 0 0 0 0 1 0 0 0 1 0"/>
<feBlend mode="normal" in2="effect1_innerShadow_24_8247" result="effect2_innerShadow_24_8247"/>
</filter>
<linearGradient id="paint0_linear_24_8247" x1="38.664" y1="275.927" x2="935.446" y2="275.927" gradientUnits="userSpaceOnUse">
<stop stop-color="#3C3024"/>
<stop offset="1" stop-color="#BD7B49"/>
</linearGradient>
<linearGradient id="paint1_linear_24_8247" x1="-18.0942" y1="19.8477" x2="67.0434" y2="19.8477" gradientUnits="userSpaceOnUse">
<stop stop-color="#3C3024"/>
<stop offset="1" stop-color="#BD7B49"/>
</linearGradient>
<linearGradient id="paint2_linear_24_8247" x1="25.0419" y1="275.927" x2="948.311" y2="275.927" gradientUnits="userSpaceOnUse">
<stop stop-color="#3C3024"/>
<stop offset="1" stop-color="#BD7B49"/>
</linearGradient>
<linearGradient id="paint3_linear_24_8247" x1="25.0418" y1="275.927" x2="948.311" y2="275.927" gradientUnits="userSpaceOnUse">
<stop stop-color="#3C3024"/>
<stop offset="1" stop-color="#BD7B49"/>
</linearGradient>
<linearGradient id="paint4_linear_24_8247" x1="38.664" y1="275.927" x2="935.446" y2="275.927" gradientUnits="userSpaceOnUse">
<stop stop-color="#3C3024"/>
<stop offset="1" stop-color="#BD7B49"/>
</linearGradient>
</defs>
</svg>
