<svg xmlns="http://www.w3.org/2000/svg" width="962" height="556" fill="none" viewBox="0 0 962 556"><g filter="url(#a)"><mask id="c" width="963" height="553" x="-.91" y="-.91" fill="#000" maskUnits="userSpaceOnUse"><path fill="#fff" d="M-.91-.91h963v553h-963z"/><path d="M899.98 19.51c0 17.37 18.96 31.46 42.38 31.54v449.93c-23.23.07-42.07 13.93-42.37 31.11H61.08c-.3-17.08-18.93-30.89-41.99-31.11V51.04c23.25-.22 42-14.25 42-31.53 0-.14 0-.28-.01-.42h838.91c-.01.14-.01.28-.01.42"/></mask><path fill="#fde0a3" d="M899.98 19.51c0 17.37 18.96 31.46 42.38 31.54v449.93c-23.23.07-42.07 13.93-42.37 31.11H61.08c-.3-17.08-18.93-30.89-41.99-31.11V51.04c23.25-.22 42-14.25 42-31.53 0-.14 0-.28-.01-.42h838.91c-.01.14-.01.28-.01.42"/><path fill="url(#b)" d="M899.98 19.51c0 17.37 18.96 31.46 42.38 31.54v449.93c-23.23.07-42.07 13.93-42.37 31.11H61.08c-.3-17.08-18.93-30.89-41.99-31.11V51.04c23.25-.22 42-14.25 42-31.53 0-.14 0-.28-.01-.42h838.91c-.01.14-.01.28-.01.42"/><path fill="#fde0a3" d="M899.98 19.51h-19.09zm42.38 31.54h19.09c0-10.52-8.51-19.06-19.03-19.09zm0 449.93.06 19.09c10.52-.04 19.03-8.58 19.03-19.09zm-42.37 31.11v19.09c10.41 0 18.9-8.34 19.08-18.75zm-838.91 0-19.08.34c.18 10.41 8.67 18.75 19.08 18.75zm-41.99-31.11H0c0 10.47 8.43 18.99 18.91 19.09zm0-449.94-.18-19.09C8.43 32.05 0 40.57 0 51.04zm42-31.53h19.09zm-.01-.42V0A19.09 19.09 0 0 0 42 19.43zm838.91 0 19.08.34A19.09 19.09 0 0 0 899.99 0zm-.01.42h-19.09c0 16.12 8.84 29.19 20.1 37.57 11.27 8.38 25.93 13.01 41.31 13.06l.06-19.09.06-19.09c-8.04-.03-14.57-2.49-18.64-5.51-4.07-3.03-4.71-5.69-4.71-6.94zm42.38 31.54h-19.09v449.93h38.18V51.05zm0 449.93-.06-19.1c-15.26.05-29.81 4.61-41.03 12.86-11.21 8.24-20.09 21.09-20.37 37.01l19.09.34 19.08.34c.03-1.25.72-3.92 4.81-6.93 4.08-2.99 10.56-5.41 18.54-5.43zm-42.37 31.11V513H61.08v38.18h838.91zm-838.91 0 19.09-.34c-.28-15.84-9.06-28.64-20.18-36.88-11.13-8.24-25.57-12.83-40.72-12.98l-.18 19.09-.18 19.09c7.91.07 14.32 2.5 18.35 5.48 4.03 2.99 4.72 5.63 4.74 6.88zm-41.99-31.11h19.09V51.04H0v449.94zm0-449.94.18 19.09c15.27-.15 29.82-4.81 40.99-13.19 11.18-8.38 19.92-21.4 19.92-37.43H42c0 1.25-.63 3.88-4.64 6.89-4.02 3.01-10.47 5.47-18.45 5.55zm42-31.53h19.09c0-.26 0-.47-.01-.59v-.17l-19.09.34-19.08.34v.25-.17zm-.01-.42v19.09h838.91V0H61.08zm838.91 0-19.09-.34v.17c-.01.12-.01.33-.01.59h38.18v.17-.25z" mask="url(#c)"/><path fill="url(#d)" d="M899.98 19.51h-19.09zm42.38 31.54h19.09c0-10.52-8.51-19.06-19.03-19.09zm0 449.93.06 19.09c10.52-.04 19.03-8.58 19.03-19.09zm-42.37 31.11v19.09c10.41 0 18.9-8.34 19.08-18.75zm-838.91 0-19.08.34c.18 10.41 8.67 18.75 19.08 18.75zm-41.99-31.11H0c0 10.47 8.43 18.99 18.91 19.09zm0-449.94-.18-19.09C8.43 32.05 0 40.57 0 51.04zm42-31.53h19.09zm-.01-.42V0A19.09 19.09 0 0 0 42 19.43zm838.91 0 19.08.34A19.09 19.09 0 0 0 899.99 0zm-.01.42h-19.09c0 16.12 8.84 29.19 20.1 37.57 11.27 8.38 25.93 13.01 41.31 13.06l.06-19.09.06-19.09c-8.04-.03-14.57-2.49-18.64-5.51-4.07-3.03-4.71-5.69-4.71-6.94zm42.38 31.54h-19.09v449.93h38.18V51.05zm0 449.93-.06-19.1c-15.26.05-29.81 4.61-41.03 12.86-11.21 8.24-20.09 21.09-20.37 37.01l19.09.34 19.08.34c.03-1.25.72-3.92 4.81-6.93 4.08-2.99 10.56-5.41 18.54-5.43zm-42.37 31.11V513H61.08v38.18h838.91zm-838.91 0 19.09-.34c-.28-15.84-9.06-28.64-20.18-36.88-11.13-8.24-25.57-12.83-40.72-12.98l-.18 19.09-.18 19.09c7.91.07 14.32 2.5 18.35 5.48 4.03 2.99 4.72 5.63 4.74 6.88zm-41.99-31.11h19.09V51.04H0v449.94zm0-449.94.18 19.09c15.27-.15 29.82-4.81 40.99-13.19 11.18-8.38 19.92-21.4 19.92-37.43H42c0 1.25-.63 3.88-4.64 6.89-4.02 3.01-10.47 5.47-18.45 5.55zm42-31.53h19.09c0-.26 0-.47-.01-.59v-.17l-19.09.34-19.08.34v.25-.17zm-.01-.42v19.09h838.91V0H61.08zm838.91 0-19.09-.34v.17c-.01.12-.01.33-.01.59h38.18v.17-.25z" mask="url(#c)"/></g><defs><linearGradient id="b" x1="19.09" x2="942.36" y1="275.59" y2="275.59" gradientUnits="userSpaceOnUse"><stop stop-color="#3c3024"/><stop offset="1" stop-color="#bd7b49"/></linearGradient><linearGradient id="d" x1="19.09" x2="942.36" y1="275.59" y2="275.59" gradientUnits="userSpaceOnUse"><stop stop-color="#3c3024"/><stop offset="1" stop-color="#bd7b49"/></linearGradient><filter id="a" width="961.45" height="555.67" x="0" y="0" color-interpolation-filters="sRGB" filterUnits="userSpaceOnUse"><feFlood flood-opacity="0" result="BackgroundImageFix"/><feColorMatrix in="SourceAlpha" result="hardAlpha" values="0 0 0 0 0 0 0 0 0 0 0 0 0 0 0 0 0 0 127 0"/><feOffset dy="4.49"/><feComposite in2="hardAlpha" operator="out"/><feColorMatrix values="0 0 0 0 0.91 0 0 0 0 0.50 0 0 0 0 0.04 0 0 0 1 0"/><feBlend in2="BackgroundImageFix" result="effect1_dropShadow_24_8248"/><feBlend in="SourceGraphic" in2="effect1_dropShadow_24_8248" result="shape"/></filter></defs></svg>