<svg xmlns="http://www.w3.org/2000/svg" width="661" height="362" fill="none" viewBox="0 0 661 362"><path fill="url(#a)" stroke="#fcf0d6" d="M537.57 228.76c16.45 19.68 42.35 32.9 64.76 33.2h1.07c15.45-.08 28.23-6.06 38.06-17.76l.46-.56c6.84-8.36 9.73-17.74 8.42-27.16-.53-3.79-1.78-7.47-3.62-10.94-.54 6.04-3.61 11.42-8.02 15.75-4.82 4.75-11.28 8.28-17.84 10.11-20.98 5.84-44.36-2.04-58.2-19.62-4.02-5.11-7.59-12.38-9.74-20.11-2.08-7.49-2.85-15.46-1.36-22.36l.16-.67c1.54-6.43 5-11.49 10.09-14.82-7.21-4.19-12.9-10.31-17.98-16.45-30.62-37.04-50.3-83.17-67.65-123.81-19.29-45.18-49.68-84.1-85.57-109.57-3.97-2.83-8.07-5.48-12.28-7.95 7.78 6.04 15.14 12.82 22.03 20.31l.84.92c47.2 52.02 68.69 124.6 85.92 182.8h-.01c2.03 6.83 3.95 13.89 5.81 20.88l1.85 6.95c9.48 35.81 19.25 72.68 42.8 100.86Z"/><path fill="url(#b)" stroke="#fcf0d6" d="M524.99 303.11c14.49 5.7 29.77 6.52 46.08 7.42 10.67.58 21.72 1.19 32.45 3.31 8.3 1.64 13.87 6.56 19.11 11.2 3.49 3.08 6.72 5.95 10.56 7.75l.37.17c7.85 3.5 16.41 5.86 25.46 6.99 19.85 2.48 37.9-1.51 50.85-11.14 14.23-10.59 18.23-25.97 22.51-42.45 2.5-9.62 5.1-19.64 9.9-28.98 2.51-4.86 5.93-8.75 9.34-12.4l1.45-1.55c4.06-4.3 7.83-8.28 9.96-13.32 3.55-8.4 4.53-18.99 2.71-29.22l-.19-.99c-3.12-15.9-14.07-30.43-28.54-37.91-7.65-3.95-16.26-4.95-25.48-6.01-7.18-.82-14.68-1.69-21.83-4.1-10.19-3.44-15.53-10.6-20.35-17.64l-.96-1.41c-3.17-4.67-6.14-9.02-10.33-12.4l-.41-.32c-8.59-6.66-23.28-9.82-39.36-8.39-5.13.46-8.11 2.09-10.24 4.7-2.16 2.66-3.47 6.39-5.15 11.17v.01l-.61 1.72c-.51 1.46-1.05 2.95-1.66 4.47l-.38.91c-2.96 7.07-6.8 11.65-11.28 15.05-4.46 3.39-9.54 5.6-14.91 7.94-1.76.76-3.59 1.55-5.46 2.43l-.01.01-.4.19c-4.14 2.04-6.72 5.43-7.92 10.39-1.29 5.41-.63 12.2 1.2 18.72 1.77 6.31 4.63 12.31 7.8 16.48l.3.39c11.66 14.82 31.31 21.48 48.88 16.58 4.33-1.2 9.44-3.81 13.35-7.37 3.92-3.58 6.56-8.05 6.11-13-.37-4.1-2.69-7.99-6.03-10.83-3.35-2.84-7.68-4.6-12.02-4.47a4.423 4.423 0 0 1-4.55-4.29 4.436 4.436 0 0 1 4.28-4.56c5.53-.17 10.94 1.65 15.45 4.69 1.17-.28 2.47-.09 3.55.66 11.46 8.01 18.75 19.2 20.46 31.52 1.65 11.79-2.04 23.86-10.33 33.98-11.46 14.02-27.14 21.47-45.33 21.58-25.19.13-54.37-14.49-72.65-36.38-24.82-29.7-34.88-67.68-44.57-104.27-2.42-9.14-4.92-18.59-7.59-27.6-17.02-57.47-38.17-128.85-83.99-179.36-25.84-28.49-58.66-46.3-95.15-51.83-4.58-.34-9.19-.52-13.79-.52-28.25.06-55.96 9.43-82.38 27.89l.04.01-.85.6a526 526 0 0 0-5.27 3.78l-5.32 3.87c-14.63 10.66-29.8 21.75-46.99 28.68-25.28 10.18-52.58 5.28-76.06-12.78 9.5 13.72 23.7 26.32 40.72 30.8 15.18 4.03 33.98 3.48 51.56-1.53 14.43-4.11 26.03-12.36 38.4-21.17 7.27-5.18 14.81-10.56 23.03-15.03 15.2-8.28 30.17-12.92 44.52-13.73 14.1-.81 27.48.6 40.13 4.2 28.21 8.03 52.62 26.99 72.92 56.64 29.89 43.65 41.42 97 45.63 124.9.39 2.64.79 5.28 1.18 7.92l1.16 7.92c1.27 8.57 2.53 17.13 3.87 25.68 3.87 24.72 8.98 53.68 17.42 81.19.3 1 .86 2.08 1.48 3.27.67 1.29 1.46 2.81 2.01 4.52 6.03 18.38 16.57 31.48 28.85 46.74l.44.54c12.8 15.89 25.63 30.61 42.85 37.37Z"/><path fill="url(#c)" stroke="#fcf0d6" d="M293.63 204.53c14.03 6.8 29.97 6.04 44.25.6 14.06-5.35 26.45-15.21 33.73-26.74l.35-.55c5.27-8.57 13.36-13.52 21.07-18.24 6.01-3.69 11.62-7.12 15.97-12.08 5.28-6.02 8.57-11.57 10.15-17.55s1.46-12.43-.16-20.28c-.25-1.16 0-2.3.58-3.23-.07-.46-.13-.92-.21-1.38l.49-.08-.5.08v-.01c-.78-5.28-1.55-10.54-2.35-15.8-4.11-27.19-15.31-79.05-44.19-121.24-27.58-40.27-63-59.42-105.25-56.99-13.01.75-26.72 5-40.8 12.67-6.78 3.7-13.22 8.15-19.47 12.57l-2.66 1.9c-12.35 8.78-25.18 17.93-41.11 22.47l-1.58.44c-15.5 4.17-31.84 5.14-46.25 2.87 12.88 7.89 27.07 12.59 41.82 13.93.32-.06.64-.1.98-.09h.01c15.32.64 26.04-.95 35.98-4.6 9.96-3.65 19.17-9.37 31.5-17.03 5.07-3.15 10.71-6.66 17.11-10.45l2.79-1.64c21.47-12.56 41.72-16.15 61.86-10.91l.01.01c.27.07.54.15.82.22.28.08.56.15.83.23 18.19 5.18 34.16 17.08 45.11 33.64C375.5-.99 379.18 44.3 363.92 82.63l-.11.24c-.06.14-.13.26-.21.38 4.81 8.15 7.05 17.98 5.85 26.96l-.13.87c-1.52 9.43-6.58 16.84-14.64 21.4-6.32 3.57-14.54 4.7-22.69 3.66-8.16-1.03-16.31-4.23-22.49-9.37-8.93-7.42-12-17.73-8.39-28.29.79-2.31 3.24-3.55 5.62-2.75 2.32.79 3.53 3.31 2.76 5.62h-.01l-.13.42c-1.38 4.31-1.01 7.92.21 10.9 1.26 3.08 3.44 5.5 5.6 7.3 4.7 3.91 11.17 6.43 17.65 7.31 6.49.88 12.91.11 17.52-2.5 7.13-4.02 9.51-10.41 10.27-15.11 1.47-9.11-1.92-20.08-8.44-27.26-4.07-4.48-9-5.83-14.89-7.42-4.89-1.32-10.02-2.71-14.94-6.14h-.01c-4.21-2.94-7.39-6.12-10.43-9.17-5.21-5.2-9.57-9.59-17.98-11.29-4.87-.97-10.66-.9-16.09.45-5.26 1.3-10.14 3.78-13.5 7.58l-.32.38c-1.78 2.12-2.6 4.64-2.93 7.45s-.17 5.88.01 9.08c.38 6.93.85 15.09-5.09 20.93l-.29.28c-4.72 4.43-8.47 9.8-10.79 15.04-2.31 5.26-3.16 10.32-2.16 14.15 2.37 9.06 4.96 14.68 7.68 18.61 2.73 3.92 5.59 6.2 8.6 8.58l1.06.83-.07.01c3.8 3.03 7.71 6.45 11.21 12.99l.37.7c2.63 5.1 3.2 10.02 3.74 14.69.53 4.5 1.01 8.57 3.37 12.53 2.3 3.83 6.39 7.6 14.16 11.49z"/><path fill="url(#d)" stroke="#fcf0d6" d="M357.26 75.06c11.91-33.83 8.35-73.87-9.26-101.58l-.86-1.32c-10.09-15.26-24.86-26.05-41.63-30.43-16.3-4.24-32.9-1.83-50.58 7.45 12.79-4.03 26.26-5.63 40.93-1.45.99.28 1.98.58 2.99.92 19.9 6.66 35.14 21.4 42.9 41.46 9.17 23.67 7.02 52.49-5.56 75.38 1.11.33 2.22.64 3.36.95 5.68 1.56 12.15 3.34 17.71 8.62Z"/><defs><linearGradient id="a" x1="331.33" x2="677.59" y1="33.99" y2="132.59" gradientUnits="userSpaceOnUse"><stop stop-color="#fcf0d6"/><stop offset="1" stop-color="#ffc446"/></linearGradient><linearGradient id="b" x1="48.77" x2="775.25" y1="-16.74" y2="190.13" gradientUnits="userSpaceOnUse"><stop stop-color="#fcf0d6"/><stop offset="1" stop-color="#ffc446"/></linearGradient><linearGradient id="c" x1="101.66" x2="429.03" y1="3.87" y2="97.09" gradientUnits="userSpaceOnUse"><stop stop-color="#fcf0d6"/><stop offset="1" stop-color="#ffc446"/></linearGradient><linearGradient id="d" x1="240.92" x2="373.53" y1="-17.21" y2="20.55" gradientUnits="userSpaceOnUse"><stop stop-color="#fcf0d6"/><stop offset="1" stop-color="#ffc446"/></linearGradient></defs></svg>