<svg xmlns="http://www.w3.org/2000/svg" width="453" height="357" fill="none" viewBox="0 0 453 357"><path fill="url(#a)" stroke="#fcf0d6" d="M234.35 75.82c21.21-14.42 49.75-20.04 71.38-14.19l1.02.28c14.85 4.32 25.5 13.57 31.75 27.51l.29.67c4.28 9.92 4.5 19.73.65 28.42v.01c-1.54 3.5-3.75 6.69-6.47 9.52 1.14-5.95-.35-11.96-3.4-17.34-3.34-5.89-8.58-11.05-14.39-14.61-18.58-11.36-43.23-10.18-61.35 2.94-5.27 3.81-10.69 9.82-14.88 16.67-4.05 6.63-6.97 14.09-7.42 21.13l-.04.68c-.28 6.62 1.67 12.43 5.65 17.02-8.09 2.06-15.23 6.38-21.8 10.9-39.59 27.24-71.15 66.22-98.97 100.55-30.93 38.17-70.82 67.28-112.3 81.95-4.6 1.63-9.27 3.06-13.99 4.28 9.13-3.68 18.07-8.18 26.75-13.5l1.06-.66c59.64-37.1 100.18-101.02 132.69-152.27v-.01c3.82-6.02 7.6-12.28 11.3-18.48l3.68-6.19c18.93-31.84 38.43-64.62 68.79-85.28Z"/><path fill="url(#b)" stroke="#fcf0d6" d="M242.62.87c15.49-1.51 30.41 1.88 46.35 5.48 10.41 2.36 21.21 4.8 32.1 5.71 8.43.69 15.14-2.52 21.46-5.55 4.19-2 8.09-3.87 12.27-4.55l.41-.06c8.51-1.23 17.38-1.15 26.4.25 19.77 3.04 36.04 11.82 45.85 24.63 10.79 14.08 10.42 29.97 10.02 47-.23 9.93-.47 20.28 1.59 30.58 1.08 5.36 3.31 10.04 5.59 14.48l.97 1.89c2.73 5.24 5.26 10.11 5.93 15.53 1.11 9.06-.84 19.52-5.4 28.86l-.45.9c-7.35 14.43-21.86 25.41-37.83 28.64-8.44 1.7-16.99.3-26.15-1.2-7.14-1.18-14.58-2.39-22.12-2.04-10.74.53-17.84 5.94-24.4 11.4l-1.31 1.09c-4.33 3.62-8.38 7-13.34 9.1l-.48.2c-10.08 4.04-25.08 3.07-40.15-2.72-4.81-1.85-7.23-4.23-8.56-7.32-1.35-3.16-1.59-7.09-1.89-12.16l-.12-1.83c-.09-1.54-.2-3.12-.37-4.75l-.12-.98c-.91-7.61-3.35-13.07-6.72-17.56-3.36-4.49-7.64-8-12.17-11.72-1.49-1.22-3.03-2.48-4.59-3.84l-.34-.3c-3.41-3.09-4.97-7.06-4.77-12.16.24-5.56 2.74-11.91 6.28-17.68 3.44-5.58 7.83-10.57 12.01-13.71l.41-.3c15.26-11.06 35.99-12.07 51.55-2.56 3.83 2.35 8.04 6.25 10.82 10.76 2.79 4.5 4.1 9.53 2.31 14.17-1.47 3.84-4.77 6.94-8.76 8.76-4 1.82-8.65 2.32-12.78 1.01-2.35-.73-4.81.55-5.56 2.87v.01c-.73 2.33.54 4.8 2.87 5.55 5.27 1.68 10.97 1.42 16.14-.28 1.06.6 2.36.77 3.59.35h.01c13.21-4.57 23.29-13.33 28.31-24.72 4.81-10.88 4.57-23.5-.63-35.5-7.18-16.63-20.22-28.09-37.68-33.17-24.2-7.03-56.27-.96-79.84 15.08-32.01 21.77-52.08 55.55-71.42 88.09-4.83 8.12-9.82 16.53-14.86 24.46-32.11 50.61-72 113.47-129.9 149.5-32.66 20.32-69.1 28.47-105.71 23.8-4.5-.93-8.97-2.03-13.41-3.29h.01c-27.16-7.79-51.24-24.39-71.6-49.38h.05l-.66-.81c-1.34-1.67-2.69-3.37-4.03-5.08l-4.06-5.17c-11.15-14.26-22.71-29.08-37.33-40.45-21.53-16.72-49.13-19.48-76.66-8.55 12.89-10.59 30-18.82 47.6-18.47 15.7.28 33.63 5.96 49.17 15.6 12.75 7.9 21.64 19.01 31.13 30.87 5.57 6.98 11.35 14.21 18.04 20.76 12.35 12.13 25.48 20.69 39.05 25.4 13.34 4.65 26.6 6.95 39.75 6.95 29.33 0 58-11.55 85.64-34.5 40.71-33.79 66.41-81.95 78.09-107.64 1.11-2.43 2.21-4.86 3.31-7.29l3.29-7.29c3.56-7.9 7.12-15.79 10.75-23.65 10.49-22.71 23.33-49.16 38.98-73.3l.01-.01c.56-.88 1.39-1.76 2.32-2.74.99-1.06 2.17-2.3 3.16-3.79 10.84-16.03 24.56-25.75 40.56-37.06l.57-.4C207.83 13.29 224.2 2.65 242.62.87Z"/><path fill="url(#c)" stroke="#fcf0d6" d="M-6.9 32.32c15.35-2.7 30.48 2.4 42.72 11.54 12.06 8.99 21.27 21.87 25.12 34.95l.18.63c2.72 9.69 9.15 16.67 15.27 23.31 4.77 5.19 9.23 10.03 12.06 16 3.42 7.23 5.07 13.47 4.95 19.65-.12 6.19-2 12.36-5.71 19.47a4.38 4.38 0 0 0-.33 3.26c-.19.43-.38.85-.58 1.27l.45.21-.45-.21v.01c-2.2 4.86-4.38 9.71-6.6 14.55-11.39 25.02-36.37 71.83-75.7 104.5-37.55 31.18-76.86 39.9-116.83 25.99-12.31-4.28-24.33-12.13-35.77-23.36-5.51-5.42-10.48-11.46-15.28-17.42l-2.04-2.56c-9.47-11.83-19.31-24.14-33.39-32.86l-1.4-.86c-13.76-8.26-29.21-13.67-43.69-15.43 14.54-4.06 29.48-4.69 44.04-1.94.29.14.58.26.91.35h.01c14.92 3.58 24.78 8.05 33.34 14.28 8.58 6.24 15.87 14.26 25.64 25.01 4.01 4.41 8.48 9.34 13.6 14.73l2.23 2.35c17.21 17.95 35.7 26.96 56.5 27.43h.87c.28.01.57.01.86.01 18.91 0 37.53-7.07 52.6-20 28.88-24.78 44.81-67.33 40.63-108.37l-.03-.27c-.02-.14-.06-.28-.1-.42 6.86-6.52 11.71-15.36 13.01-24.32l.11-.88c1.12-9.48-1.71-18-8.21-24.59-5.1-5.16-12.7-8.5-20.83-9.74s-16.84-.39-24.19 2.86c-10.62 4.69-16.4 13.77-15.82 24.91.13 2.44 2.14 4.3 4.65 4.19 2.45-.13 4.3-2.22 4.19-4.65v-.01l-.02-.44c-.14-4.52 1.2-7.89 3.19-10.42 2.06-2.62 4.82-4.35 7.39-5.49 5.59-2.47 12.5-3.12 18.98-2.2 6.48.93 12.44 3.44 16.17 7.21 5.75 5.81 6.29 12.62 5.73 17.34-1.08 9.17-7.35 18.79-15.58 23.91-5.14 3.2-10.26 3.14-16.35 3.06-5.07-.07-10.39-.14-16.06 1.81-4.86 1.68-8.79 3.86-12.55 5.96-6.43 3.58-11.82 6.6-20.38 5.93-4.95-.39-10.5-2.05-15.36-4.83-4.7-2.69-8.71-6.41-10.9-10.99l-.2-.45c-1.13-2.53-1.24-5.18-.79-7.97.46-2.8 1.46-5.7 2.5-8.73 2.26-6.56 4.95-14.28.84-21.53l-.2-.34c-3.33-5.56-5.47-11.75-6.26-17.42-.79-5.69-.21-10.79 1.8-14.21 4.76-8.06 8.79-12.75 12.48-15.79 3.69-3.03 7.08-4.43 10.62-5.9l1.24-.51-.05-.02c4.48-1.88 9.17-4.09 14.33-9.42l.55-.58c3.93-4.18 5.82-8.76 7.62-13.1 1.74-4.18 3.31-7.97 6.68-11.13 3.25-3.05 8.22-5.56 16.75-7.17z"/><path fill="url(#d)" stroke="#fcf0d6" d="M18.84 174.27c2.19 35.79-12.2 73.32-36.73 95.15l-1.18 1.04c-13.88 11.91-31.05 18.24-48.37 17.86-16.85-.38-32.14-7.25-46.62-21.01 11.21 7.37 23.72 12.6 38.98 12.6 1.02 0 2.06-.01 3.12-.06 20.97-.96 39.66-10.96 52.61-28.13 15.31-20.25 21.14-48.56 15.31-74.02 1.15-.01 2.31-.01 3.49 0 5.89.07 12.6.12 19.39-3.43Z"/><defs><linearGradient id="a" x1="-17.35" x2="342.67" y1="206.66" y2="206.66" gradientUnits="userSpaceOnUse"><stop stop-color="#fcf0d6"/><stop offset="1" stop-color="#ffc446"/></linearGradient><linearGradient id="b" x1="-303" x2="452.37" y1="178.07" y2="178.07" gradientUnits="userSpaceOnUse"><stop stop-color="#fcf0d6"/><stop offset="1" stop-color="#ffc446"/></linearGradient><linearGradient id="c" x1="-246.48" x2="93.9" y1="172.73" y2="172.73" gradientUnits="userSpaceOnUse"><stop stop-color="#fcf0d6"/><stop offset="1" stop-color="#ffc446"/></linearGradient><linearGradient id="d" x1="-118.33" x2="19.56" y1="231.15" y2="231.15" gradientUnits="userSpaceOnUse"><stop stop-color="#fcf0d6"/><stop offset="1" stop-color="#ffc446"/></linearGradient></defs></svg>