<svg xmlns="http://www.w3.org/2000/svg" width="1920" height="1109" fill="none" viewBox="0 0 1920 1109"><g opacity=".18" style="mix-blend-mode:color-dodge"><path fill="#e0bf88" d="M1414.02 895.44c-106.11-49.79-142.96-100.34-142.96-100.34s31.97 46.6 73.88 88.26c55.9 55.57 210.86 123.64 339.2 110.86 74.91-7.46 175.13-11.19 257.84-72.8 71.62-53.35 130.03-113.12 205.19-218.91l-100.87 27.94-11.65-155.02s-32.21 157.49-98.96 215.67c-55.21 48.12-170.2 107.88-209.48 119.73-87.72 26.47-218.26 28.68-312.19-15.39"/><path fill="url(#a)" d="M1414.02 895.44c-106.11-49.79-142.96-100.34-142.96-100.34s31.97 46.6 73.88 88.26c55.9 55.57 210.86 123.64 339.2 110.86 74.91-7.46 175.13-11.19 257.84-72.8 71.62-53.35 130.03-113.12 205.19-218.91l-100.87 27.94-11.65-155.02s-32.21 157.49-98.96 215.67c-55.21 48.12-170.2 107.88-209.48 119.73-87.72 26.47-218.26 28.68-312.19-15.39"/><path stroke="#000" stroke-width=".32" d="M1414.02 895.44c-106.11-49.79-142.96-100.34-142.96-100.34s31.97 46.6 73.88 88.26c55.9 55.57 210.86 123.64 339.2 110.86 74.91-7.46 175.13-11.19 257.84-72.8 71.62-53.35 130.03-113.12 205.19-218.91l-100.87 27.94-11.65-155.02s-32.21 157.49-98.96 215.67c-55.21 48.12-170.2 107.88-209.48 119.73-87.72 26.47-218.26 28.68-312.19-15.39Z"/><path fill="#9d9393" d="M1328.89 902.21c-117.31-73.15-162.55-171.63-162.55-171.63l48.78 17.45 20.23-83.12s39.49 162.33 124.51 229.62c35.63 28.2 73.44 44.81 106.04 54.6 47.77 9.88 86.69 13.98 86.69 13.98s-37.4.82-86.69-13.98c-46.53-9.63-101.46-24.74-137.01-46.92"/><path fill="#fcf0d6" d="M1049.9 444.22c-22.82 27.31-71.9 55.99-71.9 55.99l5.38-19.95s27.48-21.3 42.56-37.54c48-51.68 23.97-118.17 74.75-164.4 73.01-66.47 181.6-31.83 266.76-59.56 58.11-18.92 170.23-147.14 205.23-243.96 38.52-106.55 64.94-268.73 64.94-268.73l119.92 208.92s-126.6 245.03-268.52 333.37c-133.97 83.41-301.19-32.52-392.48 96.21-24.86 35.05-19.09 66.68-46.64 99.65"/><path fill="#bca9a9" d="M-179.59 413.43c-63.84-22.08-153.37-75.03-153.37-75.03l42.04 89.84s60.68 13.5 100.21 19.58c82.22 12.67 212.55 2.38 212.55 2.38s-126.07-10.7-201.43-36.77"/><path fill="#fcf0d6" d="M248.56 473.76c-37.24-35.33-132.97 3.66-283.27 0-29.97-.72-120.36-43.63-120.36-43.63s80.76 7.14 107.56 6.4c29.31-.81 73.91-13.23 73.91-13.23s69.22-22.2 112.65-24.82c48.43-2.92 85.81-4.79 122.66 26.24 17.06 14.38 22.71 39.92 22.71 39.92l8.11 128.7c3.9 32.38 3.64 57.76 3.64 57.76l-3.64-57.76c-4.95-41.15-16.59-93.59-43.97-119.58"/><path fill="#e0bf88" d="M484.43 686.97c30.89-13.75 76.42-89.61 76.42-89.61l13.47 51.55 51.86-6.9s-35.47 97.41-168.54 110.95c-76.48 7.78-122.14-19.51-144.36-52.87-22.95-34.47-21.36-96.35-23.23-152.28-3.33-27.75-3.44-48.27-3.44-48.27 1.98 14.92 2.87 31.32 3.44 48.27 5.61 46.89 20.38 114.41 59.22 138.41 46.98 29.05 96.56 17.94 135.16.75"/><path fill="url(#b)" d="M484.43 686.97c30.89-13.75 76.42-89.61 76.42-89.61l13.47 51.55 51.86-6.9s-35.47 97.41-168.54 110.95c-76.48 7.78-122.14-19.51-144.36-52.87-22.95-34.47-21.36-96.35-23.23-152.28-3.33-27.75-3.44-48.27-3.44-48.27 1.98 14.92 2.87 31.32 3.44 48.27 5.61 46.89 20.38 114.41 59.22 138.41 46.98 29.05 96.56 17.94 135.16.75"/><path stroke="#000" stroke-width=".38" d="M484.43 686.97c30.89-13.75 76.42-89.61 76.42-89.61l13.47 51.55 51.86-6.9s-35.47 97.41-168.54 110.95c-76.48 7.78-122.14-19.51-144.36-52.87-22.95-34.47-21.36-96.35-23.23-152.28-3.33-27.75-3.44-48.27-3.44-48.27 1.98 14.92 2.87 31.32 3.44 48.27 5.61 46.89 20.38 114.41 59.22 138.41 46.98 29.05 96.56 17.94 135.16.75Z"/><path fill="#fcf0d6" stroke="#000" stroke-width=".4" d="M1318.58 1165.55c130.88 10.09 221.84-86.93 221.84-86.93l-103.25-12.21-4.11-57.85s-29.43 60.31-89.46 82.89c-79.54 29.93-210.11 3.21-270.28-85.08-44.72-65.62-4.41-174.1-4.41-174.1l-30.54-58.68s-8.53 156.94 29.12 250.32c40.16 99.59 151.92 134 251.09 141.64Z"/><path fill="url(#c)" d="M599.95 371.26c-22.02-24.22-20.96-76.87-20.96-76.87 4.95 21.92 11.63 49.59 25.47 63.17 13.85 13.57 36.86 27.33 72.44 20.14 22.36-4.52 43.55-37.79 76.81-57.64 33.28-19.87 70.3-6.59 85.2 29.18 18.31 43.92 8.96 114.45 24.96 130.45s46.09 19.25 46.09 19.25l-20.93 7.48 11.32 14.57s-30.8-16.56-45.39-34.36c-21.26-25.94-25.68-66.93-31.83-78.23-11.75-21.6-28-23.72-43.47-22.11-29.54 3.08-66.66 29.78-96.45 29.1-29.8-.69-53.68-11.57-83.26-44.13"/><path fill="url(#d)" d="M411.29-30.75c-64.05-22.37-210.28 2.23-210.28 2.23l43.1-119.03-75.99-120.27s128.43 20.88 202.38 56.42C483.18-157.24 567.53-111.28 611.52-.7c23.51 59.09 18.41 119.95 4.38 156.1-14.04 36.15-35.96 77.59-36.62 124.34-.78 55.26 13.57 82.18 18.99 90.35 1.24 1.71 2.04 2.78 2.04 2.78s-.78-.88-2.04-2.78c-2.74-3.78-7.65-10.67-10.84-15.87-27.9-45.44-39.31-79.5-34.98-128.68 4.88-55.41 21.65-103.83-.22-145.2-30.26-57.23-76.9-88.73-140.94-111.09"/><path fill="#e0bf88" d="M1760.76 377.29c-29.3 4.76-75.61-7.86-75.61-7.86s-1.49 9.79 2.7 10.58c54.86 10.39 77.51 35.75 130.39 47.72 79.33 17.95 170.75-27.67 170.75-27.67L1878.3 231.17s-9.94 80.05-44.67 111.67c-23.28 21.19-41.8 29.41-72.87 34.45"/><path fill="url(#e)" d="M1760.76 377.29c-29.3 4.76-75.61-7.86-75.61-7.86s-1.49 9.79 2.7 10.58c54.86 10.39 77.51 35.75 130.39 47.72 79.33 17.95 170.75-27.67 170.75-27.67L1878.3 231.17s-9.94 80.05-44.67 111.67c-23.28 21.19-41.8 29.41-72.87 34.45"/><path stroke="#000" stroke-width=".45" d="M1760.76 377.29c-29.3 4.76-75.61-7.86-75.61-7.86s-1.49 9.79 2.7 10.58c54.86 10.39 77.51 35.75 130.39 47.72 79.33 17.95 170.75-27.67 170.75-27.67L1878.3 231.17s-9.94 80.05-44.67 111.67c-23.28 21.19-41.8 29.41-72.87 34.45Z"/><path fill="#e0bf88" d="M1363.65 501.32c-32.14 32.82-92.26 72.97-92.26 72.97s60.75-30.09 90.37-60.53c68.16-70.05 113.95-132.35 214.25-145.71 80.58-10.74 202.4 48.68 202.4 48.68s-142.18-113.79-213.99-109.44c-35.18 2.13-52.91 5.29-84.22 21.47-71.75 37.09-60.05 114.86-116.55 172.56"/><path fill="url(#f)" d="M1363.65 501.32c-32.14 32.82-92.26 72.97-92.26 72.97s60.75-30.09 90.37-60.53c68.16-70.05 113.95-132.35 214.25-145.71 80.58-10.74 202.4 48.68 202.4 48.68s-142.18-113.79-213.99-109.44c-35.18 2.13-52.91 5.29-84.22 21.47-71.75 37.09-60.05 114.86-116.55 172.56"/><path stroke="#000" stroke-width=".45" d="M1363.65 501.32c-32.14 32.82-92.26 72.97-92.26 72.97s60.75-30.09 90.37-60.53c68.16-70.05 113.95-132.35 214.25-145.71 80.58-10.74 202.4 48.68 202.4 48.68s-142.18-113.79-213.99-109.44c-35.18 2.13-52.91 5.29-84.22 21.47-71.75 37.09-60.05 114.86-116.55 172.56Z"/><path fill="#e0bf88" d="M522.92 1156.36c24.67-16.52 72.02-24.34 72.02-24.34s-2.72-9.52-6.86-8.49c-54.21 13.39-85.35-.23-138.42 10.91-79.6 16.71-143.72 96.25-143.72 96.25l170.97 107.47s-24.3-76.92-5.89-120.14c12.34-28.95 25.75-44.14 51.9-61.66"/><path fill="url(#g)" d="M522.92 1156.36c24.67-16.52 72.02-24.34 72.02-24.34s-2.72-9.52-6.86-8.49c-54.21 13.39-85.35-.23-138.42 10.91-79.6 16.71-143.72 96.25-143.72 96.25l170.97 107.47s-24.3-76.92-5.89-120.14c12.34-28.95 25.75-44.14 51.9-61.66"/><path stroke="#000" stroke-width=".45" d="M522.92 1156.36c24.67-16.52 72.02-24.34 72.02-24.34s-2.72-9.52-6.86-8.49c-54.21 13.39-85.35-.23-138.42 10.91-79.6 16.71-143.72 96.25-143.72 96.25l170.97 107.47s-24.3-76.92-5.89-120.14c12.34-28.95 25.75-44.14 51.9-61.66Z"/><path fill="#e0bf88" d="M832.33 878.24c15.55-43.23 53.49-104.76 53.49-104.76s-42.7 52.65-56.96 92.66c-32.8 92.07-48.48 167.78-134.11 221.69-68.8 43.32-204.29 40.02-204.29 40.02s176.65 44.26 240.12 10.4c31.1-16.59 45.9-26.84 67.63-54.6 49.79-63.58 6.77-129.42 34.12-205.41"/><path fill="url(#h)" d="M832.33 878.24c15.55-43.23 53.49-104.76 53.49-104.76s-42.7 52.65-56.96 92.66c-32.8 92.07-48.48 167.78-134.11 221.69-68.8 43.32-204.29 40.02-204.29 40.02s176.65 44.26 240.12 10.4c31.1-16.59 45.9-26.84 67.63-54.6 49.79-63.58 6.77-129.42 34.12-205.41"/><path stroke="#000" stroke-width=".45" d="M832.33 878.24c15.55-43.23 53.49-104.76 53.49-104.76s-42.7 52.65-56.96 92.66c-32.8 92.07-48.48 167.78-134.11 221.69-68.8 43.32-204.29 40.02-204.29 40.02s176.65 44.26 240.12 10.4c31.1-16.59 45.9-26.84 67.63-54.6 49.79-63.58 6.77-129.42 34.12-205.41Z"/><path fill="#e0bf88" d="M396.13 857.34c24.93-1.33 62.53 13.41 62.53 13.41s2.13-8.05-1.3-9.09c-44.95-13.65-61.6-36.91-104.76-51.7-64.73-22.18-199.84 44.63-199.84 44.63l76.72 34.66 13.01 107.43s57.66-93.8 89.57-117.11c21.39-15.62 37.62-20.82 64.07-22.23"/><path fill="url(#i)" d="M396.13 857.34c24.93-1.33 62.53 13.41 62.53 13.41s2.13-8.05-1.3-9.09c-44.95-13.65-61.6-36.91-104.76-51.7-64.73-22.18-199.84 44.63-199.84 44.63l76.72 34.66 13.01 107.43s57.66-93.8 89.57-117.11c21.39-15.62 37.62-20.82 64.07-22.23"/><path stroke="#000" stroke-width=".38" d="M396.13 857.34c24.93-1.33 62.53 13.41 62.53 13.41s2.13-8.05-1.3-9.09c-44.95-13.65-61.6-36.91-104.76-51.7-64.73-22.18-199.84 44.63-199.84 44.63l76.72 34.66 13.01 107.43s57.66-93.8 89.57-117.11c21.39-15.62 37.62-20.82 64.07-22.23Z"/><path fill="#fcf0d6" stroke="#000" stroke-width=".38" d="M739.49 749.7c29.85-24.55 83.76-52.7 83.76-52.7s-53.53 19.68-81.05 42.47c-63.35 52.43-107.27 100.4-192.38 102.51-68.37 1.7-164.89-59-164.89-59S493.57 891 554.02 893.85c29.62 1.4 44.74.36 72.39-10.35 63.36-24.53 60.61-90.64 113.08-133.8Z"/><path fill="#fff8d9" d="M1630.53 653.72c-91.98 14.82-152.61 63.82-152.61 63.82s81.15-42.5 143.34-61.12c3.13-.94 6.22-1.83 9.27-2.7 30.87-4.97 65.28-6.09 102.11-.22 211.94 33.82 203.57 222.16 203.57 222.16l19.41-171.62s-68.17-37.04-116.68-49.77c-78.87-20.7-132.21-22.1-208.41-.55"/><path fill="#000" fill-opacity=".2" d="M1630.53 653.72c-91.98 14.82-152.61 63.82-152.61 63.82s81.15-42.5 143.34-61.12c3.13-.94 6.22-1.83 9.27-2.7 30.87-4.97 65.28-6.09 102.11-.22 211.94 33.82 203.57 222.16 203.57 222.16l19.41-171.62s-68.17-37.04-116.68-49.77c-78.87-20.7-132.21-22.1-208.41-.55"/><path fill="url(#j)" d="M1630.53 653.72c-91.98 14.82-152.61 63.82-152.61 63.82s81.15-42.5 143.34-61.12c3.13-.94 6.22-1.83 9.27-2.7 30.87-4.97 65.28-6.09 102.11-.22 211.94 33.82 203.57 222.16 203.57 222.16l19.41-171.62s-68.17-37.04-116.68-49.77c-78.87-20.7-132.21-22.1-208.41-.55"/><path stroke="#000" stroke-width=".49" d="M1477.92 717.54s108.16-87.42 254.72-64.04c211.94 33.82 203.57 222.16 203.57 222.16l19.41-171.62s-68.17-37.04-116.68-49.77c-82.02-21.53-136.44-22.17-217.68 2.15-62.19 18.62-143.34 61.12-143.34 61.12Z"/><path fill="#fff8d9" d="M1424.68 716.04C1343.3 688.29 1278 583.14 1278 583.14s72.4 105.74 195.67 59.2c64.5-24.34 125.75-72.4 223.39-72.02 97.64.37 321.61 168.96 321.61 168.96s-175.1-92.24-307.31-76.88c-132.21 15.35-166.77 94.52-286.68 53.64"/></g><defs><linearGradient id="a" x1="1837.99" x2="1356.96" y1="885.29" y2="970" gradientUnits="userSpaceOnUse"><stop offset="0" stop-color="#a7713b"/><stop offset=".29" stop-color="#e0bf88"/><stop offset="1" stop-color="#a7713b"/></linearGradient><linearGradient id="b" x1="586.21" x2="295.72" y1="635.13" y2="750.19" gradientUnits="userSpaceOnUse"><stop stop-color="#a7713b"/><stop offset=".29" stop-color="#e0bf88"/><stop offset="1" stop-color="#a7713b"/></linearGradient><linearGradient id="c" x1="713.11" x2="790.52" y1="264.11" y2="477.8" gradientUnits="userSpaceOnUse"><stop stop-color="#fcf0d6"/><stop offset="1" stop-color="#fde0a3"/></linearGradient><linearGradient id="d" x1="396.94" x2="515.18" y1="-161.94" y2="325.45" gradientUnits="userSpaceOnUse"><stop stop-color="#a7713b"/><stop offset=".29" stop-color="#e0bf88"/><stop offset="1" stop-color="#a7713b"/></linearGradient><linearGradient id="e" x1="1873.06" x2="1688.56" y1="296.21" y2="398.56" gradientUnits="userSpaceOnUse"><stop stop-color="#a7713b"/><stop offset=".29" stop-color="#e0bf88"/><stop offset="1" stop-color="#a7713b"/></linearGradient><linearGradient id="f" x1="1598.3" x2="1326.1" y1="354.94" y2="589.07" gradientUnits="userSpaceOnUse"><stop stop-color="#a7713b"/><stop offset=".29" stop-color="#e0bf88"/><stop offset="1" stop-color="#a7713b"/></linearGradient><linearGradient id="g" x1="454.58" x2="579.71" y1="1276.84" y2="1106.96" gradientUnits="userSpaceOnUse"><stop stop-color="#a7713b"/><stop offset=".29" stop-color="#e0bf88"/><stop offset="1" stop-color="#a7713b"/></linearGradient><linearGradient id="h" x1="679.94" x2="829.93" y1="1109.03" y2="782.83" gradientUnits="userSpaceOnUse"><stop stop-color="#a7713b"/><stop offset=".29" stop-color="#e0bf88"/><stop offset="1" stop-color="#a7713b"/></linearGradient><linearGradient id="i" x1="217.25" x2="388.36" y1="923.37" y2="803.29" gradientUnits="userSpaceOnUse"><stop stop-color="#a7713b"/><stop offset=".56" stop-color="#e0bf88"/><stop offset="1" stop-color="#a7713b"/></linearGradient><linearGradient id="j" x1="1804.76" x2="1520.95" y1="789.31" y2="614.51" gradientUnits="userSpaceOnUse"><stop stop-color="#a7713b"/><stop offset=".29" stop-color="#e0bf88"/><stop offset="1" stop-color="#a7713b"/></linearGradient></defs></svg>