<svg width="1920" height="1109" viewBox="0 0 1920 1109" fill="none" xmlns="http://www.w3.org/2000/svg">
<g style="mix-blend-mode:color-dodge" opacity="0.18">
<path d="M1414.02 895.439C1307.91 845.648 1271.06 795.097 1271.06 795.097C1271.06 795.097 1303.03 841.7 1344.94 883.356C1400.84 938.926 1555.8 1007 1684.14 994.221C1759.05 986.764 1859.27 983.026 1941.98 921.418C2013.6 868.067 2072.01 808.305 2147.17 702.515L2046.3 730.449L2034.65 575.434C2034.65 575.434 2002.44 732.917 1935.69 791.097C1880.48 839.222 1765.49 898.979 1726.21 910.832C1638.49 937.299 1507.95 939.513 1414.02 895.439Z" fill="#E0BF88"/>
<path d="M1414.02 895.439C1307.91 845.648 1271.06 795.097 1271.06 795.097C1271.06 795.097 1303.03 841.7 1344.94 883.356C1400.84 938.926 1555.8 1007 1684.14 994.221C1759.05 986.764 1859.27 983.026 1941.98 921.418C2013.6 868.067 2072.01 808.305 2147.17 702.515L2046.3 730.449L2034.65 575.434C2034.65 575.434 2002.44 732.917 1935.69 791.097C1880.48 839.222 1765.49 898.979 1726.21 910.832C1638.49 937.299 1507.95 939.513 1414.02 895.439Z" fill="url(#paint0_linear_24_5454)"/>
<path d="M1414.02 895.439C1307.91 845.648 1271.06 795.097 1271.06 795.097C1271.06 795.097 1303.03 841.7 1344.94 883.356C1400.84 938.926 1555.8 1007 1684.14 994.221C1759.05 986.764 1859.27 983.026 1941.98 921.418C2013.6 868.067 2072.01 808.305 2147.17 702.515L2046.3 730.449L2034.65 575.434C2034.65 575.434 2002.44 732.917 1935.69 791.097C1880.48 839.222 1765.49 898.979 1726.21 910.832C1638.49 937.299 1507.95 939.513 1414.02 895.439Z" stroke="black" stroke-width="0.317695"/>
<path d="M1328.89 902.214C1211.58 829.06 1166.34 730.581 1166.34 730.581L1215.12 748.029L1235.35 664.912C1235.35 664.912 1274.84 827.244 1359.86 894.532C1395.49 922.728 1433.3 939.343 1465.9 949.129C1513.67 959.014 1552.59 963.11 1552.59 963.11C1552.59 963.11 1515.19 963.927 1465.9 949.129C1419.37 939.503 1364.44 924.386 1328.89 902.214Z" fill="#9D9393"/>
<path d="M1049.9 444.223C1027.08 471.533 978 500.212 978 500.212L983.384 480.259C983.384 480.259 1010.86 458.96 1025.94 442.722C1073.94 391.044 1049.91 324.547 1100.69 278.319C1173.7 211.85 1282.29 246.49 1367.45 218.761C1425.56 199.838 1537.68 71.6156 1572.68 -25.2009C1611.2 -131.754 1637.62 -293.926 1637.62 -293.926L1757.54 -85.0069C1757.54 -85.0069 1630.94 160.017 1489.02 248.363C1355.05 331.766 1187.83 215.84 1096.54 344.566C1071.68 379.616 1077.45 411.248 1049.9 444.223Z" fill="#FCF0D6"/>
<path d="M-179.585 413.431C-243.434 391.346 -332.957 338.404 -332.957 338.404L-290.922 428.24C-290.922 428.24 -230.244 441.737 -190.711 447.825C-108.492 460.485 21.8407 450.197 21.8407 450.197C21.8407 450.197 -104.231 439.496 -179.585 413.431Z" fill="#BCA9A9"/>
<path d="M248.561 473.763C211.325 438.425 115.586 477.417 -34.7134 473.763C-64.681 473.035 -155.068 430.128 -155.068 430.128C-155.068 430.128 -74.3051 437.273 -47.5065 436.533C-18.1975 435.724 26.3967 423.299 26.3967 423.299C26.3967 423.299 95.6219 401.096 139.05 398.479C187.476 395.56 224.858 393.686 261.711 424.724C278.774 439.096 284.423 464.643 284.423 464.643L292.531 593.335C296.425 625.715 296.171 651.104 296.171 651.104L292.531 593.335C287.583 552.186 275.937 499.745 248.561 473.763Z" fill="#FCF0D6"/>
<path d="M484.426 686.973C515.321 673.217 560.845 597.362 560.845 597.362L574.322 648.913L626.18 642.015C626.18 642.015 590.711 739.421 457.641 752.958C381.158 760.739 335.498 733.453 313.28 700.09C290.326 665.621 291.921 603.74 290.046 547.81C286.722 520.06 286.605 499.536 286.605 499.536C288.59 514.462 289.477 530.863 290.046 547.81C295.662 594.698 310.434 662.216 349.267 686.224C396.248 715.268 445.827 704.16 484.426 686.973Z" fill="#E0BF88"/>
<path d="M484.426 686.973C515.321 673.217 560.845 597.362 560.845 597.362L574.322 648.913L626.18 642.015C626.18 642.015 590.711 739.421 457.641 752.958C381.158 760.739 335.498 733.453 313.28 700.09C290.326 665.621 291.921 603.74 290.046 547.81C286.722 520.06 286.605 499.536 286.605 499.536C288.59 514.462 289.477 530.863 290.046 547.81C295.662 594.698 310.434 662.216 349.267 686.224C396.248 715.268 445.827 704.16 484.426 686.973Z" fill="url(#paint1_linear_24_5454)"/>
<path d="M484.426 686.973C515.321 673.217 560.845 597.362 560.845 597.362L574.322 648.913L626.18 642.015C626.18 642.015 590.711 739.421 457.641 752.958C381.158 760.739 335.498 733.453 313.28 700.09C290.326 665.621 291.921 603.74 290.046 547.81C286.722 520.06 286.605 499.536 286.605 499.536C288.59 514.462 289.477 530.863 290.046 547.81C295.662 594.698 310.434 662.216 349.267 686.224C396.248 715.268 445.827 704.16 484.426 686.973Z" stroke="black" stroke-width="0.375015"/>
<path d="M1318.58 1165.55C1449.46 1175.64 1540.42 1078.62 1540.42 1078.62L1437.17 1066.41L1433.06 1008.56C1433.06 1008.56 1403.63 1068.87 1343.6 1091.45C1264.06 1121.38 1133.49 1094.66 1073.32 1006.37C1028.6 940.745 1068.91 832.269 1068.91 832.269L1038.37 773.585C1038.37 773.585 1029.84 930.528 1067.49 1023.91C1107.65 1123.5 1219.41 1157.91 1318.58 1165.55Z" fill="#FCF0D6" stroke="black" stroke-width="0.396137"/>
<path d="M599.945 371.265C577.928 347.036 578.993 294.387 578.993 294.387C583.944 316.314 590.615 343.984 604.461 357.56C618.308 371.135 641.317 384.888 676.9 377.697C699.265 373.177 720.453 339.907 753.712 320.055C786.988 300.194 824.009 313.467 838.915 349.238C857.217 393.159 847.871 463.693 863.869 479.691C879.867 495.689 909.961 498.944 909.961 498.944L889.027 506.419L900.35 520.987C900.35 520.987 869.553 504.43 854.959 486.626C833.702 460.694 829.276 419.697 823.131 408.399C811.384 386.801 795.129 384.68 779.66 386.29C750.122 389.366 713.003 416.071 683.209 415.388C653.415 414.705 629.532 403.823 599.945 371.265Z" fill="url(#paint2_linear_24_5454)"/>
<path d="M411.286 -30.7536C347.24 -53.1188 201.006 -28.5184 201.006 -28.5184L244.109 -147.554L168.116 -267.819C168.116 -267.819 296.548 -246.943 370.499 -211.399C483.179 -157.239 567.527 -111.275 611.521 -0.698919C635.031 58.3916 629.935 119.247 615.899 155.397C601.862 191.548 579.938 232.988 579.278 279.735C578.499 334.998 592.848 361.922 598.273 370.094C599.511 371.8 600.308 372.874 600.308 372.874C600.308 372.874 599.53 371.987 598.273 370.094C595.53 366.311 590.62 359.417 587.427 354.218C559.531 308.783 548.124 274.718 552.453 225.537C557.33 170.131 574.098 121.706 552.228 80.3429C521.971 23.1147 475.332 -8.38829 411.286 -30.7536Z" fill="url(#paint3_linear_24_5454)"/>
<path d="M1760.76 377.292C1731.46 382.045 1685.15 369.429 1685.15 369.429C1685.15 369.429 1683.66 379.217 1687.85 380.011C1742.71 390.404 1765.36 415.759 1818.24 427.728C1897.57 445.682 1988.99 400.063 1988.99 400.063L1878.3 231.167C1878.3 231.167 1868.36 311.22 1833.63 342.841C1810.35 364.031 1791.83 372.251 1760.76 377.292Z" fill="#E0BF88"/>
<path d="M1760.76 377.292C1731.46 382.045 1685.15 369.429 1685.15 369.429C1685.15 369.429 1683.66 379.217 1687.85 380.011C1742.71 390.404 1765.36 415.759 1818.24 427.728C1897.57 445.682 1988.99 400.063 1988.99 400.063L1878.3 231.167C1878.3 231.167 1868.36 311.22 1833.63 342.841C1810.35 364.031 1791.83 372.251 1760.76 377.292Z" fill="url(#paint4_linear_24_5454)"/>
<path d="M1760.76 377.292C1731.46 382.045 1685.15 369.429 1685.15 369.429C1685.15 369.429 1683.66 379.217 1687.85 380.011C1742.71 390.404 1765.36 415.759 1818.24 427.728C1897.57 445.682 1988.99 400.063 1988.99 400.063L1878.3 231.167C1878.3 231.167 1868.36 311.22 1833.63 342.841C1810.35 364.031 1791.83 372.251 1760.76 377.292Z" stroke="black" stroke-width="0.445757"/>
<path d="M1363.65 501.318C1331.51 534.139 1271.39 574.294 1271.39 574.294C1271.39 574.294 1332.14 544.204 1361.76 513.76C1429.92 443.708 1475.71 381.408 1576.01 368.048C1656.59 357.314 1778.41 416.725 1778.41 416.725C1778.41 416.725 1636.23 302.936 1564.42 307.289C1529.24 309.421 1511.51 312.578 1480.2 328.765C1408.45 365.846 1420.15 443.618 1363.65 501.318Z" fill="#E0BF88"/>
<path d="M1363.65 501.318C1331.51 534.139 1271.39 574.294 1271.39 574.294C1271.39 574.294 1332.14 544.204 1361.76 513.76C1429.92 443.708 1475.71 381.408 1576.01 368.048C1656.59 357.314 1778.41 416.725 1778.41 416.725C1778.41 416.725 1636.23 302.936 1564.42 307.289C1529.24 309.421 1511.51 312.578 1480.2 328.765C1408.45 365.846 1420.15 443.618 1363.65 501.318Z" fill="url(#paint5_linear_24_5454)"/>
<path d="M1363.65 501.318C1331.51 534.139 1271.39 574.294 1271.39 574.294C1271.39 574.294 1332.14 544.204 1361.76 513.76C1429.92 443.708 1475.71 381.408 1576.01 368.048C1656.59 357.314 1778.41 416.725 1778.41 416.725C1778.41 416.725 1636.23 302.936 1564.42 307.289C1529.24 309.421 1511.51 312.578 1480.2 328.765C1408.45 365.846 1420.15 443.618 1363.65 501.318Z" stroke="black" stroke-width="0.445757"/>
<path d="M522.924 1156.36C547.586 1139.84 594.939 1132.02 594.939 1132.02C594.939 1132.02 592.22 1122.5 588.079 1123.53C533.872 1136.92 502.728 1123.3 449.661 1134.44C370.058 1151.15 305.944 1230.69 305.944 1230.69L476.906 1338.16C476.906 1338.16 452.606 1261.24 471.018 1218.02C483.356 1189.07 496.773 1173.88 522.924 1156.36Z" fill="#E0BF88"/>
<path d="M522.924 1156.36C547.586 1139.84 594.939 1132.02 594.939 1132.02C594.939 1132.02 592.22 1122.5 588.079 1123.53C533.872 1136.92 502.728 1123.3 449.661 1134.44C370.058 1151.15 305.944 1230.69 305.944 1230.69L476.906 1338.16C476.906 1338.16 452.606 1261.24 471.018 1218.02C483.356 1189.07 496.773 1173.88 522.924 1156.36Z" fill="url(#paint6_linear_24_5454)"/>
<path d="M522.924 1156.36C547.586 1139.84 594.939 1132.02 594.939 1132.02C594.939 1132.02 592.22 1122.5 588.079 1123.53C533.872 1136.92 502.728 1123.3 449.661 1134.44C370.058 1151.15 305.944 1230.69 305.944 1230.69L476.906 1338.16C476.906 1338.16 452.606 1261.24 471.018 1218.02C483.356 1189.07 496.773 1173.88 522.924 1156.36Z" stroke="black" stroke-width="0.445757"/>
<path d="M832.327 878.239C847.882 835.015 885.819 773.475 885.819 773.475C885.819 773.475 843.118 826.127 828.863 866.141C796.061 958.213 780.376 1033.92 694.748 1087.83C625.952 1131.15 490.461 1127.85 490.461 1127.85C490.461 1127.85 667.108 1172.11 730.578 1138.25C761.681 1121.66 776.483 1111.41 798.214 1083.65C847.999 1020.07 804.983 954.226 832.327 878.239Z" fill="#E0BF88"/>
<path d="M832.327 878.239C847.882 835.015 885.819 773.475 885.819 773.475C885.819 773.475 843.118 826.127 828.863 866.141C796.061 958.213 780.376 1033.92 694.748 1087.83C625.952 1131.15 490.461 1127.85 490.461 1127.85C490.461 1127.85 667.108 1172.11 730.578 1138.25C761.681 1121.66 776.483 1111.41 798.214 1083.65C847.999 1020.07 804.983 954.226 832.327 878.239Z" fill="url(#paint7_linear_24_5454)"/>
<path d="M832.327 878.239C847.882 835.015 885.819 773.475 885.819 773.475C885.819 773.475 843.118 826.127 828.863 866.141C796.061 958.213 780.376 1033.92 694.748 1087.83C625.952 1131.15 490.461 1127.85 490.461 1127.85C490.461 1127.85 667.108 1172.11 730.578 1138.25C761.681 1121.66 776.483 1111.41 798.214 1083.65C847.999 1020.07 804.983 954.226 832.327 878.239Z" stroke="black" stroke-width="0.445757"/>
<path d="M396.125 857.343C421.065 856.015 458.656 870.752 458.656 870.752C458.656 870.752 460.788 862.699 457.355 861.657C412.406 848.007 395.757 824.753 352.603 809.962C287.871 787.776 152.757 854.593 152.757 854.593L229.477 889.252L242.486 996.676C242.486 996.676 300.153 902.884 332.062 879.574C353.446 863.953 369.681 858.751 396.125 857.343Z" fill="#E0BF88"/>
<path d="M396.125 857.343C421.065 856.015 458.656 870.752 458.656 870.752C458.656 870.752 460.788 862.699 457.355 861.657C412.406 848.007 395.757 824.753 352.603 809.962C287.871 787.776 152.757 854.593 152.757 854.593L229.477 889.252L242.486 996.676C242.486 996.676 300.153 902.884 332.062 879.574C353.446 863.953 369.681 858.751 396.125 857.343Z" fill="url(#paint8_linear_24_5454)"/>
<path d="M396.125 857.343C421.065 856.015 458.656 870.752 458.656 870.752C458.656 870.752 460.788 862.699 457.355 861.657C412.406 848.007 395.757 824.753 352.603 809.962C287.871 787.776 152.757 854.593 152.757 854.593L229.477 889.252L242.486 996.676C242.486 996.676 300.153 902.884 332.062 879.574C353.446 863.953 369.681 858.751 396.125 857.343Z" stroke="black" stroke-width="0.375015"/>
<path d="M739.491 749.702C769.341 725.154 823.253 697 823.253 697C823.253 697 769.723 716.679 742.195 739.466C678.852 791.9 634.926 839.872 549.824 841.983C481.452 843.679 384.93 782.978 384.93 782.978C384.93 782.978 493.57 891.003 554.021 893.851C583.645 895.247 598.757 894.208 626.413 883.499C689.77 858.966 687.017 792.858 739.491 749.702Z" fill="#FCF0D6" stroke="black" stroke-width="0.375015"/>
<path d="M1630.53 653.722C1538.55 668.538 1477.92 717.54 1477.92 717.54C1477.92 717.54 1559.07 675.043 1621.26 656.42C1624.39 655.484 1627.48 654.585 1630.53 653.722C1661.4 648.749 1695.81 647.628 1732.64 653.505C1944.58 687.324 1936.21 875.658 1936.21 875.658L1955.62 704.04C1955.62 704.04 1887.45 666.998 1838.94 654.267C1760.07 633.57 1706.73 632.175 1630.53 653.722Z" fill="#FFF8D9"/>
<path d="M1630.53 653.722C1538.55 668.538 1477.92 717.54 1477.92 717.54C1477.92 717.54 1559.07 675.043 1621.26 656.42C1624.39 655.484 1627.48 654.585 1630.53 653.722C1661.4 648.749 1695.81 647.628 1732.64 653.505C1944.58 687.324 1936.21 875.658 1936.21 875.658L1955.62 704.04C1955.62 704.04 1887.45 666.998 1838.94 654.267C1760.07 633.57 1706.73 632.175 1630.53 653.722Z" fill="black" fill-opacity="0.2"/>
<path d="M1630.53 653.722C1538.55 668.538 1477.92 717.54 1477.92 717.54C1477.92 717.54 1559.07 675.043 1621.26 656.42C1624.39 655.484 1627.48 654.585 1630.53 653.722C1661.4 648.749 1695.81 647.628 1732.64 653.505C1944.58 687.324 1936.21 875.658 1936.21 875.658L1955.62 704.04C1955.62 704.04 1887.45 666.998 1838.94 654.267C1760.07 633.57 1706.73 632.175 1630.53 653.722Z" fill="url(#paint9_linear_24_5454)"/>
<path d="M1477.92 717.54C1477.92 717.54 1586.08 630.119 1732.64 653.505C1944.58 687.324 1936.21 875.658 1936.21 875.658L1955.62 704.04C1955.62 704.04 1887.45 666.998 1838.94 654.267C1756.92 632.741 1702.5 632.095 1621.26 656.42C1559.07 675.043 1477.92 717.54 1477.92 717.54Z" stroke="black" stroke-width="0.492248"/>
<path d="M1424.68 716.037C1343.3 688.29 1278 583.144 1278 583.144C1278 583.144 1350.4 688.878 1473.67 642.344C1538.17 618 1599.42 569.939 1697.06 570.316C1794.7 570.693 2018.67 739.282 2018.67 739.282C2018.67 739.282 1843.57 647.041 1711.36 662.398C1579.15 677.754 1544.59 756.92 1424.68 716.037Z" fill="#FFF8D9"/>
</g>
<defs>
<linearGradient id="paint0_linear_24_5454" x1="1837.99" y1="885.289" x2="1356.96" y2="969.996" gradientUnits="userSpaceOnUse">
<stop offset="0.00110428" stop-color="#A7713B"/>
<stop offset="0.294188" stop-color="#E0BF88"/>
<stop offset="1" stop-color="#A7713B"/>
</linearGradient>
<linearGradient id="paint1_linear_24_5454" x1="586.205" y1="635.131" x2="295.722" y2="750.188" gradientUnits="userSpaceOnUse">
<stop stop-color="#A7713B"/>
<stop offset="0.294188" stop-color="#E0BF88"/>
<stop offset="1" stop-color="#A7713B"/>
</linearGradient>
<linearGradient id="paint2_linear_24_5454" x1="713.114" y1="264.105" x2="790.519" y2="477.804" gradientUnits="userSpaceOnUse">
<stop stop-color="#FCF0D6"/>
<stop offset="1" stop-color="#FDE0A3"/>
</linearGradient>
<linearGradient id="paint3_linear_24_5454" x1="396.942" y1="-161.935" x2="515.18" y2="325.451" gradientUnits="userSpaceOnUse">
<stop stop-color="#A7713B"/>
<stop offset="0.294188" stop-color="#E0BF88"/>
<stop offset="1" stop-color="#A7713B"/>
</linearGradient>
<linearGradient id="paint4_linear_24_5454" x1="1873.06" y1="296.213" x2="1688.56" y2="398.557" gradientUnits="userSpaceOnUse">
<stop stop-color="#A7713B"/>
<stop offset="0.290005" stop-color="#E0BF88"/>
<stop offset="1" stop-color="#A7713B"/>
</linearGradient>
<linearGradient id="paint5_linear_24_5454" x1="1598.3" y1="354.939" x2="1326.1" y2="589.065" gradientUnits="userSpaceOnUse">
<stop stop-color="#A7713B"/>
<stop offset="0.290005" stop-color="#E0BF88"/>
<stop offset="1" stop-color="#A7713B"/>
</linearGradient>
<linearGradient id="paint6_linear_24_5454" x1="454.581" y1="1276.84" x2="579.71" y2="1106.96" gradientUnits="userSpaceOnUse">
<stop stop-color="#A7713B"/>
<stop offset="0.290005" stop-color="#E0BF88"/>
<stop offset="1" stop-color="#A7713B"/>
</linearGradient>
<linearGradient id="paint7_linear_24_5454" x1="679.936" y1="1109.03" x2="829.929" y2="782.825" gradientUnits="userSpaceOnUse">
<stop stop-color="#A7713B"/>
<stop offset="0.290005" stop-color="#E0BF88"/>
<stop offset="1" stop-color="#A7713B"/>
</linearGradient>
<linearGradient id="paint8_linear_24_5454" x1="217.247" y1="923.373" x2="388.359" y2="803.29" gradientUnits="userSpaceOnUse">
<stop stop-color="#A7713B"/>
<stop offset="0.55975" stop-color="#E0BF88"/>
<stop offset="1" stop-color="#A7713B"/>
</linearGradient>
<linearGradient id="paint9_linear_24_5454" x1="1804.76" y1="789.306" x2="1520.95" y2="614.508" gradientUnits="userSpaceOnUse">
<stop stop-color="#A7713B"/>
<stop offset="0.290005" stop-color="#E0BF88"/>
<stop offset="1" stop-color="#A7713B"/>
</linearGradient>
</defs>
</svg>
