<svg xmlns="http://www.w3.org/2000/svg" width="579" height="471" fill="none" viewBox="0 0 579 471"><g stroke="#f0af1f" stroke-width=".66" filter="url(#a)"><path fill="url(#b)" d="M250.33 477.02 192 526.81v-55.97h-53.97v-23.83h49.26l.1-.09 60.96-56z"/><path fill="url(#c)" d="m250.99 478.01-.02-8.05h38.74l.1 113.66h-38.82z"/><path fill="url(#d)" d="m407.42 517.55-.04-.07-26.87-47.92 1.74-86.56 30.46 61.08-.04 20.71-.27 120.48-4.98.02z"/><path fill="url(#e)" d="m434.85 442.58-21.61 1.1-30.77-61.69 20.67-.12z"/><path fill="url(#f)" d="m439.87 463 .01.35.35-.03 4.81-.34.15-.01-1.15 122.24-30.98.07.26-120.47.05-20.48 25.98-1.32z"/><path fill="url(#g)" d="m474.26 462.59.34 122.51-29.9.09 1.15-122.27 12.24-.81z"/><path fill="url(#h)" d="M406.77 517.72v87.72l-28.14 2.39 1.87-136.97z"/><path fill="url(#i)" d="M369.84 181.15h-.46v125.72l.02.06 6.69 17.47-1.47 144.79-18.42-.37.95-76.05v-.01l-.66-138.77-.29-58.43-.05-11.07 7.69-6.89z"/><path fill="url(#j)" d="m406.51 386.84-2.85-5.49-.09-.18h-.2l-21.43.12h-.32v.32l-1.76 87.66-4.59-.08 1.47-144.52 29.37-.29zm-35.58-205.03 19.97 11.82 7.56 5.04-.02 7.86-.22 99.95h-28.19V181.81z"/><path fill="url(#k)" d="m355.54 195.75.21 41.21-26.49-27.14 18.33-19.38z"/><path fill="url(#l)" d="M274.19 178.31 257 206.48l-37.32-29.04 16.54-29.2z"/><path fill="url(#m)" d="m265.02 133.16-12.12 16.46-.2.28.27.19 14.38 10.01.25.18.2-.25 12.16-15.76 7.83 5.81 7.32 5.44-20.53 22.26-37.95-30.06 21.91-19.37z"/><path fill="url(#n)" d="m288.87 125.72-21.4 34.49-13.87-10.46 21.38-34.38z"/><path fill="url(#o)" d="m330.98 126.64-9.86 5.05-.09.04-.04.08-13.07 22.03-22.28-15.51 6.43-10.23 3.09 2.31.2.15.2-.16 19.98-15.37z"/><path fill="url(#p)" d="m314.05 97.97-18.79 31.69-5.76-4.29-14.42-10.75-15.55-11.59 17.32-33.13z"/><path fill="url(#q)" d="m313.58 60.41 14.47 10.34 7.86 5.62-21.46 21.08-37.19-28.07 21.5-19.56z"/><path fill="url(#r)" d="m329.3 96.67-2.14-1.55-.18-.13-.19.12-9.99 6.49-.06.04-.04.06-5.76 9.5-.15.26.24.18 3.96 2.97-18.48 14.22 18.23-30.75 20.94-20.56z"/><path fill="url(#s)" d="m329.27 97.47 44.98 32.66-4.48 6.84-7.89 12.02-26.17-19.65-18.9-14.15-5.15-3.89 5.56-9.18 9.74-6.33z"/><path fill="url(#t)" d="m404.11 125.52 13.12 9.53 10.67 7.73-18.08 22.97-39.3-28.67 19.28-21.91z"/><path fill="url(#u)" d="m409.44 166.27-20.32 28.88-38.46-27.88 11.58-17.64 7.89-12.03z"/><path fill="url(#v)" d="m454.91 114.81-20.12 28.83-15.13-10.61 8.71-8.68.27-.28-.32-.22-13.41-9.58-.25-.17-.19.23-8.18 9.61-7.71-5.66 11.58-17.51 8.72-12.27z"/><path fill="url(#w)" d="m427.65 124.18-9.05 11.07-13.03-9.45 9.2-10.82z"/><path fill="url(#x)" d="m303.16 136.51-12.31 15.01-10.47-7.75 12.7-14.67z"/><path fill="url(#y)" d="m471.89 92.81-16.59 21.48-36.04-26.32 2.98-4.17 14.68-17.1z"/><path fill="url(#z)" d="m375.35 50.89 46.18 32.77-11.71 16.45-44.91-34.01h-.01l-3.33-2.46 4.18-8.27 7.85-5.65z"/><path fill="url(#A)" d="m375.39 50.13-1.61-1.08-.19-.13-.19.13-8.1 5.83-.07.05-.03.07-4.34 8.6-.12.25.22.16.71.51 2.51 1.86-15.8 13.4 16.44-28.43 18.53-19.51z"/><path fill="url(#B)" d="m383.88 30.33-19.37 20.4-36.61-26.5 18.55-19.54z"/><path fill="url(#C)" d="m364.13 51.26-17.09 29.53-14.8-10.06 4.79-6.29.08-.11-.02-.13-.49-4.11-.01-.15-.13-.08-13.08-8.84-.24-.17-.19.22-7.28 8.39-5.73-4.56 17.57-30.15z"/><path fill="url(#D)" d="m335.96 60.31.45 3.77-7.06 4.96-.02.01-.01.02-1.11.99-12.91-9.21 7.95-9.13z"/><path fill="url(#E)" d="m399.12 198.34-.14-.1-7.41-4.93 10.15-12.01 8.66 7.31-11.26 15.99z"/><path fill="url(#F)" d="m429.3 168.33-18.5 19.75-8.65-7.3 16.71-19.8z"/><path fill="url(#G)" d="m418.54 186.07-19.42 19.66 11.95-16.99 16.78-17.9z"/><path fill="url(#H)" d="m418.53 160.36-17.1 20.25-7.62 9.02 16.33-23.22 16.17-20.53z"/><path fill="url(#I)" d="m286.48 174.93 45.33 31.27-5.88 7.26-.01.01v.01l-6.26 9.02-29.49-19.44-14.5-9.62 3.02-5-.49-.42-4.98 3.97-.93-.61 5.55-9.67 6.92-7.96z"/><path fill="url(#J)" d="m286.53 174.17-1.64-1.13-.24-.16-.19.22-7.13 8.2-.02.02-.02.03-5.73 9.97-.15.27.26.17 1.04.67-14.17 12.77 16.34-26.77 19.53-21.17z"/><path fill="url(#K)" d="m325.73 213.76-6 8.81-31.37-20.68-16.08-10.51 5.41-9.4z"/><path fill="url(#L)" d="m355.71 232.18.12 20.8-11.09 16.7-36.97-28.33 21.1-31.06z"/><path fill="url(#M)" d="m375.23 130.75-5.43 6.18-.01.02-.02.02-1.52 2.28-50.75-37.39 8.95-8.34z"/><path fill="url(#N)" d="m367.88 139.78-6 9.2-30.09-22.56-14.98-11.25-5.15-3.88 5.41-8.94z"/><path fill="url(#O)" d="M375.32 50.88h.01l.01.01 46.19 32.77-5.18 7.28-44.82-31.84h.01l-5.53-3.98 6.86-6.22z"/><path fill="url(#P)" d="M457.75 444.18v17.31l-17.23 1.15-.52-19.62z"/><path fill="url(#Q)" d="m398.34 307.14 7.59 16.59-29.3.28-6.45-16.87z"/><path fill="url(#R)" d="m379.86 470.11-1.88 137.69-22.83-4.64v-21.43l1.04-112.24z"/><path fill="url(#S)" d="m336.43 64.15-5.85 7.67-2.16-1.61 7.62-9.27z"/><path fill="url(#T)" d="m425.37 130.92-4.74 5.77-1.5-1.07 8.07-9.85z"/><path fill="url(#U)" d="m300.33 143.52-7.75 9.3-1.21-.91 11.1-13.54z"/><path fill="url(#V)" d="m291.54 127.7-16.34 26.02-6.93 5.56 21.12-33.17z"/><path fill="url(#W)" d="m457.13 115.99-16.6 20.56 15.09-21.61 12.53-16.22z"/><path fill="url(#X)" d="m355.83 255.07-4.82 6.36 4.82-7.24z"/><path fill="url(#Y)" d="m289.32 189.97.39 279.35h-38.9l-1.83-79.13.46-69.45 16.4-14.03.11-.1v-.15l-.2-111.32 11.88-13.19z"/><path fill="url(#Z)" d="m355.63 216.69-6.97-6.31 6.91-10.25z"/><path fill="url(#aa)" d="m331.16 126.76-7.56 11.76-14.01 13.78 11.93-20.11 8.27-6.47z"/><path fill="url(#ab)" d="m329.25 125.32-7.99 6.24-13.73-10.38 8.01-6.15z"/><path fill="url(#ac)" d="m359.45 153.3-3.9 5.35-32.96-24.36 5.8-4.62z"/><path fill="url(#ad)" d="m355.17 159.19-3.48 5.3-20.37-15.05h.01l-9.29-6.98-3.11-2.34 3.21-5.34z"/></g><defs><linearGradient id="b" x1="194.18" x2="194.18" y1="390.19" y2="527.52" gradientUnits="userSpaceOnUse"><stop stop-color="#fcf0d6"/><stop offset="1" stop-color="#ffc446"/></linearGradient><linearGradient id="c" x1="270.39" x2="270.39" y1="469.64" y2="583.95" gradientUnits="userSpaceOnUse"><stop stop-color="#fcf0d6"/><stop offset="1" stop-color="#ffc446"/></linearGradient><linearGradient id="d" x1="396.61" x2="396.61" y1="381.65" y2="585.62" gradientUnits="userSpaceOnUse"><stop stop-color="#fcf0d6"/><stop offset="1" stop-color="#ffc446"/></linearGradient><linearGradient id="e" x1="408.66" x2="408.66" y1="381.54" y2="444.01" gradientUnits="userSpaceOnUse"><stop stop-color="#fcf0d6"/><stop offset="1" stop-color="#ffc446"/></linearGradient><linearGradient id="f" x1="429.12" x2="429.12" y1="442.67" y2="585.61" gradientUnits="userSpaceOnUse"><stop stop-color="#fcf0d6"/><stop offset="1" stop-color="#ffc446"/></linearGradient><linearGradient id="g" x1="459.65" x2="459.65" y1="461.78" y2="585.52" gradientUnits="userSpaceOnUse"><stop stop-color="#fcf0d6"/><stop offset="1" stop-color="#ffc446"/></linearGradient><linearGradient id="h" x1="392.7" x2="392.7" y1="469.64" y2="608.19" gradientUnits="userSpaceOnUse"><stop stop-color="#fcf0d6"/><stop offset="1" stop-color="#ffc446"/></linearGradient><linearGradient id="i" x1="373.45" x2="373.45" y1="177.19" y2="469.63" gradientUnits="userSpaceOnUse"><stop stop-color="#fcf0d6"/><stop offset="1" stop-color="#ffc446"/></linearGradient><linearGradient id="j" x1="388.27" x2="388.27" y1="181.48" y2="469.61" gradientUnits="userSpaceOnUse"><stop stop-color="#fcf0d6"/><stop offset="1" stop-color="#ffc446"/></linearGradient><linearGradient id="k" x1="342.45" x2="342.45" y1="190.02" y2="237.77" gradientUnits="userSpaceOnUse"><stop stop-color="#fcf0d6"/><stop offset="1" stop-color="#ffc446"/></linearGradient><linearGradient id="l" x1="246.94" x2="246.94" y1="147.75" y2="206.96" gradientUnits="userSpaceOnUse"><stop stop-color="#fcf0d6"/><stop offset="1" stop-color="#ffc446"/></linearGradient><linearGradient id="m" x1="265.86" x2="265.86" y1="127.92" y2="178.22" gradientUnits="userSpaceOnUse"><stop stop-color="#fcf0d6"/><stop offset="1" stop-color="#ffc446"/></linearGradient><linearGradient id="n" x1="271.24" x2="271.24" y1="114.89" y2="160.68" gradientUnits="userSpaceOnUse"><stop stop-color="#fcf0d6"/><stop offset="1" stop-color="#ffc446"/></linearGradient><linearGradient id="o" x1="308.4" x2="308.4" y1="114.62" y2="154.31" gradientUnits="userSpaceOnUse"><stop stop-color="#fcf0d6"/><stop offset="1" stop-color="#ffc446"/></linearGradient><linearGradient id="p" x1="286.79" x2="286.79" y1="69.41" y2="130.14" gradientUnits="userSpaceOnUse"><stop stop-color="#fcf0d6"/><stop offset="1" stop-color="#ffc446"/></linearGradient><linearGradient id="q" x1="306.58" x2="306.58" y1="49.4" y2="97.88" gradientUnits="userSpaceOnUse"><stop stop-color="#fcf0d6"/><stop offset="1" stop-color="#ffc446"/></linearGradient><linearGradient id="r" x1="315.89" x2="315.89" y1="76.33" y2="130.13" gradientUnits="userSpaceOnUse"><stop stop-color="#fcf0d6"/><stop offset="1" stop-color="#ffc446"/></linearGradient><linearGradient id="s" x1="342.96" x2="342.96" y1="95.39" y2="149.46" gradientUnits="userSpaceOnUse"><stop stop-color="#fcf0d6"/><stop offset="1" stop-color="#ffc446"/></linearGradient><linearGradient id="t" x1="399.21" x2="399.21" y1="114.73" y2="166.2" gradientUnits="userSpaceOnUse"><stop stop-color="#fcf0d6"/><stop offset="1" stop-color="#ffc446"/></linearGradient><linearGradient id="u" x1="380.05" x2="380.05" y1="137.13" y2="195.61" gradientUnits="userSpaceOnUse"><stop stop-color="#fcf0d6"/><stop offset="1" stop-color="#ffc446"/></linearGradient><linearGradient id="v" x1="426.75" x2="426.75" y1="88.04" y2="144.1" gradientUnits="userSpaceOnUse"><stop stop-color="#fcf0d6"/><stop offset="1" stop-color="#ffc446"/></linearGradient><linearGradient id="w" x1="416.61" x2="416.61" y1="114.54" y2="135.7" gradientUnits="userSpaceOnUse"><stop stop-color="#fcf0d6"/><stop offset="1" stop-color="#ffc446"/></linearGradient><linearGradient id="x" x1="291.77" x2="291.77" y1="128.66" y2="151.97" gradientUnits="userSpaceOnUse"><stop stop-color="#fcf0d6"/><stop offset="1" stop-color="#ffc446"/></linearGradient><linearGradient id="y" x1="445.58" x2="445.58" y1="66.25" y2="114.74" gradientUnits="userSpaceOnUse"><stop stop-color="#fcf0d6"/><stop offset="1" stop-color="#ffc446"/></linearGradient><linearGradient id="z" x1="391.57" x2="391.57" y1="49.32" y2="100.58" gradientUnits="userSpaceOnUse"><stop stop-color="#fcf0d6"/><stop offset="1" stop-color="#ffc446"/></linearGradient><linearGradient id="A" x1="365.77" x2="365.77" y1="30.27" y2="81.25" gradientUnits="userSpaceOnUse"><stop stop-color="#fcf0d6"/><stop offset="1" stop-color="#ffc446"/></linearGradient><linearGradient id="B" x1="355.9" x2="355.9" y1="4.27" y2="51.16" gradientUnits="userSpaceOnUse"><stop stop-color="#fcf0d6"/><stop offset="1" stop-color="#ffc446"/></linearGradient><linearGradient id="C" x1="337.04" x2="337.04" y1="24.28" y2="81.26" gradientUnits="userSpaceOnUse"><stop stop-color="#fcf0d6"/><stop offset="1" stop-color="#ffc446"/></linearGradient><linearGradient id="D" x1="325.79" x2="325.79" y1="51.29" y2="70.49" gradientUnits="userSpaceOnUse"><stop stop-color="#fcf0d6"/><stop offset="1" stop-color="#ffc446"/></linearGradient><linearGradient id="E" x1="400.95" x2="400.95" y1="180.84" y2="205.64" gradientUnits="userSpaceOnUse"><stop stop-color="#fcf0d6"/><stop offset="1" stop-color="#ffc446"/></linearGradient><linearGradient id="F" x1="415.75" x2="415.75" y1="160.54" y2="188.53" gradientUnits="userSpaceOnUse"><stop stop-color="#fcf0d6"/><stop offset="1" stop-color="#ffc446"/></linearGradient><linearGradient id="G" x1="414.3" x2="414.3" y1="168.28" y2="206.53" gradientUnits="userSpaceOnUse"><stop stop-color="#fcf0d6"/><stop offset="1" stop-color="#ffc446"/></linearGradient><linearGradient id="H" x1="408.79" x2="408.79" y1="142.72" y2="195.62" gradientUnits="userSpaceOnUse"><stop stop-color="#fcf0d6"/><stop offset="1" stop-color="#ffc446"/></linearGradient><linearGradient id="I" x1="302.06" x2="302.06" y1="173.31" y2="222.95" gradientUnits="userSpaceOnUse"><stop stop-color="#fcf0d6"/><stop offset="1" stop-color="#ffc446"/></linearGradient><linearGradient id="J" x1="276.34" x2="276.34" y1="155.48" y2="206.96" gradientUnits="userSpaceOnUse"><stop stop-color="#fcf0d6"/><stop offset="1" stop-color="#ffc446"/></linearGradient><linearGradient id="K" x1="299.02" x2="299.02" y1="181.52" y2="223.03" gradientUnits="userSpaceOnUse"><stop stop-color="#fcf0d6"/><stop offset="1" stop-color="#ffc446"/></linearGradient><linearGradient id="L" x1="331.74" x2="331.74" y1="209.81" y2="270.15" gradientUnits="userSpaceOnUse"><stop stop-color="#fcf0d6"/><stop offset="1" stop-color="#ffc446"/></linearGradient><linearGradient id="M" x1="346.34" x2="346.34" y1="93.09" y2="139.72" gradientUnits="userSpaceOnUse"><stop stop-color="#fcf0d6"/><stop offset="1" stop-color="#ffc446"/></linearGradient><linearGradient id="N" x1="339.78" x2="339.78" y1="101.87" y2="149.45" gradientUnits="userSpaceOnUse"><stop stop-color="#fcf0d6"/><stop offset="1" stop-color="#ffc446"/></linearGradient><linearGradient id="O" x1="393.74" x2="393.74" y1="48.47" y2="91.39" gradientUnits="userSpaceOnUse"><stop stop-color="#fcf0d6"/><stop offset="1" stop-color="#ffc446"/></linearGradient><linearGradient id="P" x1="448.87" x2="448.87" y1="442.67" y2="462.99" gradientUnits="userSpaceOnUse"><stop stop-color="#fcf0d6"/><stop offset="1" stop-color="#ffc446"/></linearGradient><linearGradient id="Q" x1="388.07" x2="388.07" y1="306.81" y2="324.35" gradientUnits="userSpaceOnUse"><stop stop-color="#fcf0d6"/><stop offset="1" stop-color="#ffc446"/></linearGradient><linearGradient id="R" x1="367.5" x2="367.5" y1="469.16" y2="608.2" gradientUnits="userSpaceOnUse"><stop stop-color="#fcf0d6"/><stop offset="1" stop-color="#ffc446"/></linearGradient><linearGradient id="S" x1="332.36" x2="332.36" y1="60.13" y2="72.28" gradientUnits="userSpaceOnUse"><stop stop-color="#fcf0d6"/><stop offset="1" stop-color="#ffc446"/></linearGradient><linearGradient id="T" x1="423.4" x2="423.4" y1="124.1" y2="137.13" gradientUnits="userSpaceOnUse"><stop stop-color="#fcf0d6"/><stop offset="1" stop-color="#ffc446"/></linearGradient><linearGradient id="U" x1="297.26" x2="297.26" y1="136.45" y2="153.27" gradientUnits="userSpaceOnUse"><stop stop-color="#fcf0d6"/><stop offset="1" stop-color="#ffc446"/></linearGradient><linearGradient id="V" x1="279.45" x2="279.45" y1="125.63" y2="160.78" gradientUnits="userSpaceOnUse"><stop stop-color="#fcf0d6"/><stop offset="1" stop-color="#ffc446"/></linearGradient><linearGradient id="W" x1="453.61" x2="453.61" y1="92.74" y2="144.09" gradientUnits="userSpaceOnUse"><stop stop-color="#fcf0d6"/><stop offset="1" stop-color="#ffc446"/></linearGradient><linearGradient id="X" x1="350.49" x2="350.49" y1="253.1" y2="270.17" gradientUnits="userSpaceOnUse"><stop stop-color="#fcf0d6"/><stop offset="1" stop-color="#ffc446"/></linearGradient><linearGradient id="Y" x1="269.35" x2="269.35" y1="181.52" y2="477.17" gradientUnits="userSpaceOnUse"><stop stop-color="#fcf0d6"/><stop offset="1" stop-color="#ffc446"/></linearGradient><linearGradient id="Z" x1="352.09" x2="352.09" y1="199.07" y2="217.44" gradientUnits="userSpaceOnUse"><stop stop-color="#fcf0d6"/><stop offset="1" stop-color="#ffc446"/></linearGradient><linearGradient id="aa" x1="319.81" x2="319.81" y1="125.31" y2="154.3" gradientUnits="userSpaceOnUse"><stop stop-color="#fcf0d6"/><stop offset="1" stop-color="#ffc446"/></linearGradient><linearGradient id="ab" x1="318.39" x2="318.39" y1="114.62" y2="131.98" gradientUnits="userSpaceOnUse"><stop stop-color="#fcf0d6"/><stop offset="1" stop-color="#ffc446"/></linearGradient><linearGradient id="ac" x1="340.98" x2="340.98" y1="129.26" y2="159.11" gradientUnits="userSpaceOnUse"><stop stop-color="#fcf0d6"/><stop offset="1" stop-color="#ffc446"/></linearGradient><linearGradient id="ad" x1="337.06" x2="337.06" y1="134.3" y2="164.96" gradientUnits="userSpaceOnUse"><stop stop-color="#fcf0d6"/><stop offset="1" stop-color="#ffc446"/></linearGradient><filter id="a" width="578.98" height="714.34" x="0" y="0" color-interpolation-filters="sRGB" filterUnits="userSpaceOnUse"><feFlood flood-opacity="0" result="BackgroundImageFix"/><feColorMatrix in="SourceAlpha" result="hardAlpha" values="0 0 0 0 0 0 0 0 0 0 0 0 0 0 0 0 0 0 127 0"/><feOffset dx="3.28" dy="-2.63"/><feGaussianBlur stdDeviation=".82"/><feComposite in2="hardAlpha" operator="out"/><feColorMatrix values="0 0 0 0 0 0 0 0 0 0 0 0 0 0 0 0 0 0 0.25 0"/><feBlend in2="BackgroundImageFix" result="effect1_dropShadow_24_5479"/><feBlend in="SourceGraphic" in2="effect1_dropShadow_24_5479" result="shape"/></filter></defs></svg>