<svg width="579" height="471" viewBox="0 0 579 471" fill="none" xmlns="http://www.w3.org/2000/svg">
<g filter="url(#filter0_d_24_5479)">
<path d="M250.333 477.021L192.001 526.806V470.842H138.028V447.01H187.295L187.389 446.923L248.346 390.917L250.333 477.021Z" fill="url(#paint0_linear_24_5479)" stroke="#F0AF1F" stroke-width="0.656272"/>
<path d="M250.992 478.011L250.969 469.965H289.713L289.811 583.62H250.992V478.011Z" fill="url(#paint1_linear_24_5479)" stroke="#F0AF1F" stroke-width="0.656272"/>
<path d="M407.422 517.554L407.38 517.479L380.51 469.559L382.245 382.995L412.715 444.078L412.667 464.793L412.398 585.268L407.422 585.289V517.554Z" fill="url(#paint2_linear_24_5479)" stroke="#F0AF1F" stroke-width="0.656272"/>
<path d="M434.845 442.585L413.238 443.675L382.469 381.991L403.144 381.873L434.845 442.585Z" fill="url(#paint3_linear_24_5479)" stroke="#F0AF1F" stroke-width="0.656272"/>
<path d="M439.874 463.002L439.884 463.345L440.226 463.32L445.042 462.978L445.043 462.979L445.185 462.971L444.04 585.205L413.055 585.277L413.324 464.807L413.372 444.326L439.345 443.013L439.874 463.002Z" fill="url(#paint4_linear_24_5479)" stroke="#F0AF1F" stroke-width="0.656272"/>
<path d="M474.261 462.589L474.603 585.096L444.702 585.191L445.847 462.921L458.086 462.109L474.261 462.589Z" fill="url(#paint5_linear_24_5479)" stroke="#F0AF1F" stroke-width="0.656272"/>
<path d="M406.771 517.72V605.441L378.634 607.834L380.497 470.862L406.771 517.72Z" fill="url(#paint6_linear_24_5479)" stroke="#F0AF1F" stroke-width="0.656272"/>
<path d="M369.84 181.151H369.378V306.872L369.399 306.929L376.087 324.404L374.621 469.194L356.202 468.823L357.153 392.77V392.765L356.492 253.988L356.198 195.559L356.149 184.491L363.844 177.599L369.84 181.151Z" fill="url(#paint7_linear_24_5479)" stroke="#F0AF1F" stroke-width="0.656272"/>
<path d="M406.511 386.843L403.664 381.347L403.571 381.169L403.371 381.17L381.943 381.292L381.624 381.294L381.617 381.614L379.86 469.272L375.272 469.188L376.735 324.666L406.107 324.379L406.511 386.843ZM370.933 181.805L390.896 193.627H390.897L398.464 198.671L398.44 206.527L398.221 306.48H370.029V181.805H370.933Z" fill="url(#paint8_linear_24_5479)" stroke="#F0AF1F" stroke-width="0.656272"/>
<path d="M355.537 195.75L355.753 236.958L329.26 209.822L347.587 190.441L355.537 195.75Z" fill="url(#paint9_linear_24_5479)" stroke="#F0AF1F" stroke-width="0.656272"/>
<path d="M274.189 178.312L256.998 206.476L219.677 177.44L236.221 148.242L274.189 178.312Z" fill="url(#paint10_linear_24_5479)" stroke="#F0AF1F" stroke-width="0.656272"/>
<path d="M265.02 133.16L252.896 149.623L252.697 149.895L252.973 150.087L267.347 160.103L267.604 160.281L267.796 160.034L279.965 144.272L287.788 150.081L295.111 155.52L274.578 177.777L236.628 147.722L258.541 128.347L265.02 133.16Z" fill="url(#paint11_linear_24_5479)" stroke="#F0AF1F" stroke-width="0.656272"/>
<path d="M288.871 125.724L267.473 160.205L253.601 149.753L274.976 115.366L288.871 125.724Z" fill="url(#paint12_linear_24_5479)" stroke="#F0AF1F" stroke-width="0.656272"/>
<path d="M330.984 126.637L321.118 131.688L321.034 131.73L320.985 131.812L307.917 153.842L285.64 138.329L292.067 128.096L295.163 130.406L295.362 130.555L295.558 130.403L315.539 115.028L330.984 126.637Z" fill="url(#paint13_linear_24_5479)" stroke="#F0AF1F" stroke-width="0.656272"/>
<path d="M314.045 97.9727L295.256 129.658L289.5 125.37L275.077 114.62L259.531 103.032L276.853 69.9033L314.045 97.9727Z" fill="url(#paint14_linear_24_5479)" stroke="#F0AF1F" stroke-width="0.656272"/>
<path d="M313.58 60.415L328.053 70.749L335.913 76.374L314.452 97.4521L277.257 69.3809L298.759 49.8174L313.58 60.415Z" fill="url(#paint15_linear_24_5479)" stroke="#F0AF1F" stroke-width="0.656272"/>
<path d="M329.297 96.666L327.162 95.1172L326.979 94.9854L326.79 95.1074L316.798 101.598L316.736 101.639L316.697 101.702L310.942 111.204L310.788 111.458L311.026 111.637L314.99 114.609L296.507 128.83L314.74 98.085L335.678 77.5195L329.297 96.666Z" fill="url(#paint16_linear_24_5479)" stroke="#F0AF1F" stroke-width="0.656272"/>
<path d="M329.274 97.4707L374.25 130.125L369.77 136.965L361.88 148.99L335.712 129.341V129.34L316.807 115.186L311.656 111.299L317.218 102.116L326.958 95.79L329.274 97.4707Z" fill="url(#paint17_linear_24_5479)" stroke="#F0AF1F" stroke-width="0.656272"/>
<path d="M404.108 125.521V125.522L417.234 135.048L427.903 142.781L409.822 165.749L370.525 137.08L389.804 115.167L404.108 125.521Z" fill="url(#paint18_linear_24_5479)" stroke="#F0AF1F" stroke-width="0.656272"/>
<path d="M409.435 166.273L389.119 195.147L350.657 167.268L362.24 149.629L370.132 137.599L409.435 166.273Z" fill="url(#paint19_linear_24_5479)" stroke="#F0AF1F" stroke-width="0.656272"/>
<path d="M454.913 114.809L434.788 143.639L419.656 133.032L428.367 124.346L428.641 124.071L428.325 123.847L414.906 114.271L414.661 114.097L414.466 114.326L406.288 123.938L398.582 118.278L410.158 100.771L418.88 88.502L454.913 114.809Z" fill="url(#paint20_linear_24_5479)" stroke="#F0AF1F" stroke-width="0.656272"/>
<path d="M427.655 124.179L418.596 135.25L405.568 125.796L414.767 114.982L427.655 124.179Z" fill="url(#paint21_linear_24_5479)" stroke="#F0AF1F" stroke-width="0.656272"/>
<path d="M303.162 136.507L290.845 151.523L280.385 143.766L293.081 129.104L303.162 136.507Z" fill="url(#paint22_linear_24_5479)" stroke="#F0AF1F" stroke-width="0.656272"/>
<path d="M471.893 92.8135L455.298 114.287L419.257 87.9746L422.239 83.7998L436.923 66.6992L471.893 92.8135Z" fill="url(#paint23_linear_24_5479)" stroke="#F0AF1F" stroke-width="0.656272"/>
<path d="M375.349 50.8906L421.529 83.6562L409.818 100.108L364.906 66.1025L364.903 66.1006L361.574 63.6436L365.747 55.3691L373.604 49.7197L375.349 50.8906Z" fill="url(#paint24_linear_24_5479)" stroke="#F0AF1F" stroke-width="0.656272"/>
<path d="M375.387 50.126L373.779 49.0479L373.59 48.9209L373.405 49.0537L365.299 54.8828L365.234 54.9297L365.198 55.001L360.864 63.5967L360.738 63.8457L360.964 64.0098L361.671 64.5215V64.5225L364.178 66.3809L348.381 79.7773L364.825 51.3545L383.351 31.8447L375.387 50.126Z" fill="url(#paint25_linear_24_5479)" stroke="#F0AF1F" stroke-width="0.656272"/>
<path d="M383.885 30.3252L364.512 50.7266L327.9 24.2266L346.452 4.69336L383.885 30.3252Z" fill="url(#paint26_linear_24_5479)" stroke="#F0AF1F" stroke-width="0.656272"/>
<path d="M364.128 51.2559L347.043 80.79L332.243 70.7275L337.029 64.4404L337.109 64.335L337.093 64.2031L336.604 60.0889L336.586 59.9395L336.461 59.8555L323.385 51.0156L323.144 50.8525L322.954 51.0723L315.666 59.4551L309.938 54.9043L327.514 24.7539L364.128 51.2559Z" fill="url(#paint27_linear_24_5479)" stroke="#F0AF1F" stroke-width="0.656272"/>
<path d="M335.962 60.3145L336.411 64.084L329.348 69.042L329.331 69.0537L329.316 69.0674L328.213 70.0645L315.303 60.8535L323.251 51.7217L335.962 60.3145Z" fill="url(#paint28_linear_24_5479)" stroke="#F0AF1F" stroke-width="0.656272"/>
<path d="M399.122 198.341L398.976 198.243L391.568 193.305L401.722 181.298L410.377 188.606L399.122 204.605V198.341Z" fill="url(#paint29_linear_24_5479)" stroke="#F0AF1F" stroke-width="0.656272"/>
<path d="M429.303 168.332L410.796 188.081L402.151 180.78L418.863 160.984L429.303 168.332Z" fill="url(#paint30_linear_24_5479)" stroke="#F0AF1F" stroke-width="0.656272"/>
<path d="M418.541 186.074L399.124 205.729V205.727L411.073 188.738L427.852 170.836L418.541 186.074Z" fill="url(#paint31_linear_24_5479)" stroke="#F0AF1F" stroke-width="0.656272"/>
<path d="M418.527 160.364L401.433 180.613L393.811 189.625L410.145 166.409L426.307 145.88L418.527 160.364Z" fill="url(#paint32_linear_24_5479)" stroke="#F0AF1F" stroke-width="0.656272"/>
<path d="M286.475 174.93V174.931L331.806 206.197L325.932 213.464L325.924 213.474L325.917 213.483L319.659 222.501L290.173 203.062H290.174L275.669 193.441L278.69 188.445L278.205 188.02L273.223 191.985L272.285 191.378L277.844 181.71L284.759 173.749L286.475 174.93Z" fill="url(#paint33_linear_24_5479)" stroke="#F0AF1F" stroke-width="0.656272"/>
<path d="M286.53 174.168L284.891 173.041L284.65 172.875L284.458 173.096L277.332 181.3L277.311 181.323L277.294 181.351L271.565 191.317L271.41 191.587L271.67 191.757L272.707 192.43L258.538 205.203L274.878 178.432L294.414 157.256L286.53 174.168Z" fill="url(#paint34_linear_24_5479)" stroke="#F0AF1F" stroke-width="0.656272"/>
<path d="M325.727 213.762L319.729 222.575L288.361 201.89L288.36 201.889L272.284 191.381L277.686 181.984L325.727 213.762Z" fill="url(#paint35_linear_24_5479)" stroke="#F0AF1F" stroke-width="0.656272"/>
<path d="M355.707 232.178L355.829 252.984L344.74 269.677L307.773 241.354L328.874 210.292L355.707 232.178Z" fill="url(#paint36_linear_24_5479)" stroke="#F0AF1F" stroke-width="0.656272"/>
<path d="M375.226 130.755L369.802 136.932L369.788 136.948L369.775 136.967L368.251 139.251L317.495 101.855L326.455 93.5225L375.226 130.755Z" fill="url(#paint37_linear_24_5479)" stroke="#F0AF1F" stroke-width="0.656272"/>
<path d="M367.885 139.785L361.879 148.979L331.794 126.415L316.807 115.175L311.656 111.288L317.072 102.348L367.885 139.785Z" fill="url(#paint38_linear_24_5479)" stroke="#F0AF1F" stroke-width="0.656272"/>
<path d="M375.324 50.876L375.332 50.8828L375.34 50.8887L421.526 83.6592L416.348 90.9365L371.534 59.0967H371.535L366.01 55.1211L372.874 48.8975L375.324 50.876Z" fill="url(#paint39_linear_24_5479)" stroke="#F0AF1F" stroke-width="0.656272"/>
<path d="M457.752 444.175V461.486L440.522 462.643L440.002 443.018L457.752 444.175Z" fill="url(#paint40_linear_24_5479)" stroke="#F0AF1F" stroke-width="0.656272"/>
<path d="M398.338 307.14L405.925 323.729L376.635 324.015L370.178 307.14H398.338Z" fill="url(#paint41_linear_24_5479)" stroke="#F0AF1F" stroke-width="0.656272"/>
<path d="M379.855 470.114L377.979 607.803L355.146 603.159V581.734L356.195 469.494L379.855 470.114Z" fill="url(#paint42_linear_24_5479)" stroke="#F0AF1F" stroke-width="0.656272"/>
<path d="M336.426 64.1533L330.581 71.8223L328.424 70.2139L336.043 60.9355L336.426 64.1533Z" fill="url(#paint43_linear_24_5479)" stroke="#F0AF1F" stroke-width="0.656272"/>
<path d="M425.371 130.918L420.631 136.687L419.134 135.622L427.197 125.769L425.371 130.918Z" fill="url(#paint44_linear_24_5479)" stroke="#F0AF1F" stroke-width="0.656272"/>
<path d="M300.335 143.521L292.582 152.821L291.368 151.915L302.474 138.373L300.335 143.521Z" fill="url(#paint45_linear_24_5479)" stroke="#F0AF1F" stroke-width="0.656272"/>
<path d="M291.536 127.699L275.198 153.721L268.267 159.277L289.395 126.107L291.536 127.699Z" fill="url(#paint46_linear_24_5479)" stroke="#F0AF1F" stroke-width="0.656272"/>
<path d="M457.128 115.988L440.531 136.554L455.624 114.935L468.149 98.7246L457.128 115.988Z" fill="url(#paint47_linear_24_5479)" stroke="#F0AF1F" stroke-width="0.656272"/>
<path d="M355.832 255.068L351.015 261.434L355.832 254.185V255.068Z" fill="url(#paint48_linear_24_5479)" stroke="#F0AF1F" stroke-width="0.656272"/>
<path d="M289.318 189.97L289.71 469.322H250.808L248.981 390.188L249.443 320.741L265.836 306.709L265.951 306.61V306.459L265.755 195.139L277.625 181.952L289.318 189.97Z" fill="url(#paint49_linear_24_5479)" stroke="#F0AF1F" stroke-width="0.656272"/>
<path d="M355.631 216.692L348.656 210.379L355.566 200.134L355.631 216.692Z" fill="url(#paint50_linear_24_5479)" stroke="#F0AF1F" stroke-width="0.656272"/>
<path d="M331.162 126.759L323.604 138.522L309.589 152.3L321.518 132.189L329.792 125.724L331.162 126.759Z" fill="url(#paint51_linear_24_5479)" stroke="#F0AF1F" stroke-width="0.656272"/>
<path d="M329.246 125.323L321.261 131.565L307.528 121.178L315.535 115.029L329.246 125.323Z" fill="url(#paint52_linear_24_5479)" stroke="#F0AF1F" stroke-width="0.656272"/>
<path d="M359.451 153.299L355.55 158.65L322.586 134.293L328.394 129.674L359.451 153.299Z" fill="url(#paint53_linear_24_5479)" stroke="#F0AF1F" stroke-width="0.656272"/>
<path d="M355.172 159.187L351.688 164.49L331.325 149.441H331.326L322.044 142.463L318.926 140.118L322.138 134.778L355.172 159.187Z" fill="url(#paint54_linear_24_5479)" stroke="#F0AF1F" stroke-width="0.656272"/>
</g>
<defs>
<filter id="filter0_d_24_5479" x="0" y="-0.00014329" width="578.981" height="714.335" filterUnits="userSpaceOnUse" color-interpolation-filters="sRGB">
<feFlood flood-opacity="0" result="BackgroundImageFix"/>
<feColorMatrix in="SourceAlpha" type="matrix" values="0 0 0 0 0 0 0 0 0 0 0 0 0 0 0 0 0 0 127 0" result="hardAlpha"/>
<feOffset dx="3.28136" dy="-2.62509"/>
<feGaussianBlur stdDeviation="0.82034"/>
<feComposite in2="hardAlpha" operator="out"/>
<feColorMatrix type="matrix" values="0 0 0 0 0 0 0 0 0 0 0 0 0 0 0 0 0 0 0.25 0"/>
<feBlend mode="normal" in2="BackgroundImageFix" result="effect1_dropShadow_24_5479"/>
<feBlend mode="normal" in="SourceGraphic" in2="effect1_dropShadow_24_5479" result="shape"/>
</filter>
<linearGradient id="paint0_linear_24_5479" x1="194.183" y1="390.187" x2="194.183" y2="527.518" gradientUnits="userSpaceOnUse">
<stop stop-color="#FCF0D6"/>
<stop offset="1" stop-color="#FFC446"/>
</linearGradient>
<linearGradient id="paint1_linear_24_5479" x1="270.389" y1="469.637" x2="270.389" y2="583.949" gradientUnits="userSpaceOnUse">
<stop stop-color="#FCF0D6"/>
<stop offset="1" stop-color="#FFC446"/>
</linearGradient>
<linearGradient id="paint2_linear_24_5479" x1="396.613" y1="381.655" x2="396.613" y2="585.619" gradientUnits="userSpaceOnUse">
<stop stop-color="#FCF0D6"/>
<stop offset="1" stop-color="#FFC446"/>
</linearGradient>
<linearGradient id="paint3_linear_24_5479" x1="408.657" y1="381.544" x2="408.657" y2="444.014" gradientUnits="userSpaceOnUse">
<stop stop-color="#FCF0D6"/>
<stop offset="1" stop-color="#FFC446"/>
</linearGradient>
<linearGradient id="paint4_linear_24_5479" x1="429.122" y1="442.668" x2="429.122" y2="585.607" gradientUnits="userSpaceOnUse">
<stop stop-color="#FCF0D6"/>
<stop offset="1" stop-color="#FFC446"/>
</linearGradient>
<linearGradient id="paint5_linear_24_5479" x1="459.652" y1="461.781" x2="459.652" y2="585.521" gradientUnits="userSpaceOnUse">
<stop stop-color="#FCF0D6"/>
<stop offset="1" stop-color="#FFC446"/>
</linearGradient>
<linearGradient id="paint6_linear_24_5479" x1="392.7" y1="469.637" x2="392.7" y2="608.192" gradientUnits="userSpaceOnUse">
<stop stop-color="#FCF0D6"/>
<stop offset="1" stop-color="#FFC446"/>
</linearGradient>
<linearGradient id="paint7_linear_24_5479" x1="373.453" y1="177.194" x2="373.453" y2="469.635" gradientUnits="userSpaceOnUse">
<stop stop-color="#FCF0D6"/>
<stop offset="1" stop-color="#FFC446"/>
</linearGradient>
<linearGradient id="paint8_linear_24_5479" x1="388.275" y1="181.477" x2="388.275" y2="469.607" gradientUnits="userSpaceOnUse">
<stop stop-color="#FCF0D6"/>
<stop offset="1" stop-color="#FFC446"/>
</linearGradient>
<linearGradient id="paint9_linear_24_5479" x1="342.446" y1="190.016" x2="342.446" y2="237.768" gradientUnits="userSpaceOnUse">
<stop stop-color="#FCF0D6"/>
<stop offset="1" stop-color="#FFC446"/>
</linearGradient>
<linearGradient id="paint10_linear_24_5479" x1="246.937" y1="147.748" x2="246.937" y2="206.961" gradientUnits="userSpaceOnUse">
<stop stop-color="#FCF0D6"/>
<stop offset="1" stop-color="#FFC446"/>
</linearGradient>
<linearGradient id="paint11_linear_24_5479" x1="265.858" y1="127.925" x2="265.858" y2="178.224" gradientUnits="userSpaceOnUse">
<stop stop-color="#FCF0D6"/>
<stop offset="1" stop-color="#FFC446"/>
</linearGradient>
<linearGradient id="paint12_linear_24_5479" x1="271.237" y1="114.891" x2="271.237" y2="160.684" gradientUnits="userSpaceOnUse">
<stop stop-color="#FCF0D6"/>
<stop offset="1" stop-color="#FFC446"/>
</linearGradient>
<linearGradient id="paint13_linear_24_5479" x1="308.399" y1="114.617" x2="308.399" y2="154.313" gradientUnits="userSpaceOnUse">
<stop stop-color="#FCF0D6"/>
<stop offset="1" stop-color="#FFC446"/>
</linearGradient>
<linearGradient id="paint14_linear_24_5479" x1="286.794" y1="69.4082" x2="286.794" y2="130.139" gradientUnits="userSpaceOnUse">
<stop stop-color="#FCF0D6"/>
<stop offset="1" stop-color="#FFC446"/>
</linearGradient>
<linearGradient id="paint15_linear_24_5479" x1="306.584" y1="49.3975" x2="306.584" y2="97.8845" gradientUnits="userSpaceOnUse">
<stop stop-color="#FCF0D6"/>
<stop offset="1" stop-color="#FFC446"/>
</linearGradient>
<linearGradient id="paint16_linear_24_5479" x1="315.888" y1="76.3311" x2="315.888" y2="130.132" gradientUnits="userSpaceOnUse">
<stop stop-color="#FCF0D6"/>
<stop offset="1" stop-color="#FFC446"/>
</linearGradient>
<linearGradient id="paint17_linear_24_5479" x1="342.96" y1="95.3926" x2="342.96" y2="149.463" gradientUnits="userSpaceOnUse">
<stop stop-color="#FCF0D6"/>
<stop offset="1" stop-color="#FFC446"/>
</linearGradient>
<linearGradient id="paint18_linear_24_5479" x1="399.207" y1="114.727" x2="399.207" y2="166.201" gradientUnits="userSpaceOnUse">
<stop stop-color="#FCF0D6"/>
<stop offset="1" stop-color="#FFC446"/>
</linearGradient>
<linearGradient id="paint19_linear_24_5479" x1="380.051" y1="137.131" x2="380.051" y2="195.609" gradientUnits="userSpaceOnUse">
<stop stop-color="#FCF0D6"/>
<stop offset="1" stop-color="#FFC446"/>
</linearGradient>
<linearGradient id="paint20_linear_24_5479" x1="426.751" y1="88.042" x2="426.751" y2="144.096" gradientUnits="userSpaceOnUse">
<stop stop-color="#FCF0D6"/>
<stop offset="1" stop-color="#FFC446"/>
</linearGradient>
<linearGradient id="paint21_linear_24_5479" x1="416.61" y1="114.54" x2="416.61" y2="135.698" gradientUnits="userSpaceOnUse">
<stop stop-color="#FCF0D6"/>
<stop offset="1" stop-color="#FFC446"/>
</linearGradient>
<linearGradient id="paint22_linear_24_5479" x1="291.771" y1="128.66" x2="291.771" y2="151.973" gradientUnits="userSpaceOnUse">
<stop stop-color="#FCF0D6"/>
<stop offset="1" stop-color="#FFC446"/>
</linearGradient>
<linearGradient id="paint23_linear_24_5479" x1="445.58" y1="66.2539" x2="445.58" y2="114.741" gradientUnits="userSpaceOnUse">
<stop stop-color="#FCF0D6"/>
<stop offset="1" stop-color="#FFC446"/>
</linearGradient>
<linearGradient id="paint24_linear_24_5479" x1="391.572" y1="49.3203" x2="391.572" y2="100.575" gradientUnits="userSpaceOnUse">
<stop stop-color="#FCF0D6"/>
<stop offset="1" stop-color="#FFC446"/>
</linearGradient>
<linearGradient id="paint25_linear_24_5479" x1="365.772" y1="30.2686" x2="365.772" y2="81.2535" gradientUnits="userSpaceOnUse">
<stop stop-color="#FCF0D6"/>
<stop offset="1" stop-color="#FFC446"/>
</linearGradient>
<linearGradient id="paint26_linear_24_5479" x1="355.897" y1="4.26562" x2="355.897" y2="51.1609" gradientUnits="userSpaceOnUse">
<stop stop-color="#FCF0D6"/>
<stop offset="1" stop-color="#FFC446"/>
</linearGradient>
<linearGradient id="paint27_linear_24_5479" x1="337.037" y1="24.2764" x2="337.037" y2="81.261" gradientUnits="userSpaceOnUse">
<stop stop-color="#FCF0D6"/>
<stop offset="1" stop-color="#FFC446"/>
</linearGradient>
<linearGradient id="paint28_linear_24_5479" x1="325.789" y1="51.2871" x2="325.789" y2="70.4861" gradientUnits="userSpaceOnUse">
<stop stop-color="#FCF0D6"/>
<stop offset="1" stop-color="#FFC446"/>
</linearGradient>
<linearGradient id="paint29_linear_24_5479" x1="400.949" y1="180.836" x2="400.949" y2="205.643" gradientUnits="userSpaceOnUse">
<stop stop-color="#FCF0D6"/>
<stop offset="1" stop-color="#FFC446"/>
</linearGradient>
<linearGradient id="paint30_linear_24_5479" x1="415.745" y1="160.543" x2="415.745" y2="188.533" gradientUnits="userSpaceOnUse">
<stop stop-color="#FCF0D6"/>
<stop offset="1" stop-color="#FFC446"/>
</linearGradient>
<linearGradient id="paint31_linear_24_5479" x1="414.297" y1="168.278" x2="414.297" y2="206.529" gradientUnits="userSpaceOnUse">
<stop stop-color="#FCF0D6"/>
<stop offset="1" stop-color="#FFC446"/>
</linearGradient>
<linearGradient id="paint32_linear_24_5479" x1="408.786" y1="142.722" x2="408.786" y2="195.617" gradientUnits="userSpaceOnUse">
<stop stop-color="#FCF0D6"/>
<stop offset="1" stop-color="#FFC446"/>
</linearGradient>
<linearGradient id="paint33_linear_24_5479" x1="302.065" y1="173.313" x2="302.065" y2="222.951" gradientUnits="userSpaceOnUse">
<stop stop-color="#FCF0D6"/>
<stop offset="1" stop-color="#FFC446"/>
</linearGradient>
<linearGradient id="paint34_linear_24_5479" x1="276.343" y1="155.483" x2="276.343" y2="206.958" gradientUnits="userSpaceOnUse">
<stop stop-color="#FCF0D6"/>
<stop offset="1" stop-color="#FFC446"/>
</linearGradient>
<linearGradient id="paint35_linear_24_5479" x1="299.016" y1="181.52" x2="299.016" y2="223.027" gradientUnits="userSpaceOnUse">
<stop stop-color="#FCF0D6"/>
<stop offset="1" stop-color="#FFC446"/>
</linearGradient>
<linearGradient id="paint36_linear_24_5479" x1="331.743" y1="209.812" x2="331.743" y2="270.151" gradientUnits="userSpaceOnUse">
<stop stop-color="#FCF0D6"/>
<stop offset="1" stop-color="#FFC446"/>
</linearGradient>
<linearGradient id="paint37_linear_24_5479" x1="346.344" y1="93.0938" x2="346.344" y2="139.72" gradientUnits="userSpaceOnUse">
<stop stop-color="#FCF0D6"/>
<stop offset="1" stop-color="#FFC446"/>
</linearGradient>
<linearGradient id="paint38_linear_24_5479" x1="339.776" y1="101.871" x2="339.776" y2="149.452" gradientUnits="userSpaceOnUse">
<stop stop-color="#FCF0D6"/>
<stop offset="1" stop-color="#FFC446"/>
</linearGradient>
<linearGradient id="paint39_linear_24_5479" x1="393.737" y1="48.4658" x2="393.737" y2="91.394" gradientUnits="userSpaceOnUse">
<stop stop-color="#FCF0D6"/>
<stop offset="1" stop-color="#FFC446"/>
</linearGradient>
<linearGradient id="paint40_linear_24_5479" x1="448.873" y1="442.668" x2="448.873" y2="462.993" gradientUnits="userSpaceOnUse">
<stop stop-color="#FCF0D6"/>
<stop offset="1" stop-color="#FFC446"/>
</linearGradient>
<linearGradient id="paint41_linear_24_5479" x1="388.067" y1="306.812" x2="388.067" y2="324.345" gradientUnits="userSpaceOnUse">
<stop stop-color="#FCF0D6"/>
<stop offset="1" stop-color="#FFC446"/>
</linearGradient>
<linearGradient id="paint42_linear_24_5479" x1="367.503" y1="469.158" x2="367.503" y2="608.203" gradientUnits="userSpaceOnUse">
<stop stop-color="#FCF0D6"/>
<stop offset="1" stop-color="#FFC446"/>
</linearGradient>
<linearGradient id="paint43_linear_24_5479" x1="332.36" y1="60.1338" x2="332.36" y2="72.28" gradientUnits="userSpaceOnUse">
<stop stop-color="#FCF0D6"/>
<stop offset="1" stop-color="#FFC446"/>
</linearGradient>
<linearGradient id="paint44_linear_24_5479" x1="423.397" y1="124.104" x2="423.397" y2="137.131" gradientUnits="userSpaceOnUse">
<stop stop-color="#FCF0D6"/>
<stop offset="1" stop-color="#FFC446"/>
</linearGradient>
<linearGradient id="paint45_linear_24_5479" x1="297.264" y1="136.447" x2="297.264" y2="153.271" gradientUnits="userSpaceOnUse">
<stop stop-color="#FCF0D6"/>
<stop offset="1" stop-color="#FFC446"/>
</linearGradient>
<linearGradient id="paint46_linear_24_5479" x1="279.451" y1="125.634" x2="279.451" y2="160.775" gradientUnits="userSpaceOnUse">
<stop stop-color="#FCF0D6"/>
<stop offset="1" stop-color="#FFC446"/>
</linearGradient>
<linearGradient id="paint47_linear_24_5479" x1="453.613" y1="92.7432" x2="453.613" y2="144.095" gradientUnits="userSpaceOnUse">
<stop stop-color="#FCF0D6"/>
<stop offset="1" stop-color="#FFC446"/>
</linearGradient>
<linearGradient id="paint48_linear_24_5479" x1="350.491" y1="253.098" x2="350.491" y2="270.166" gradientUnits="userSpaceOnUse">
<stop stop-color="#FCF0D6"/>
<stop offset="1" stop-color="#FFC446"/>
</linearGradient>
<linearGradient id="paint49_linear_24_5479" x1="269.345" y1="181.52" x2="269.345" y2="477.168" gradientUnits="userSpaceOnUse">
<stop stop-color="#FCF0D6"/>
<stop offset="1" stop-color="#FFC446"/>
</linearGradient>
<linearGradient id="paint50_linear_24_5479" x1="352.094" y1="199.068" x2="352.094" y2="217.435" gradientUnits="userSpaceOnUse">
<stop stop-color="#FCF0D6"/>
<stop offset="1" stop-color="#FFC446"/>
</linearGradient>
<linearGradient id="paint51_linear_24_5479" x1="319.81" y1="125.31" x2="319.81" y2="154.304" gradientUnits="userSpaceOnUse">
<stop stop-color="#FCF0D6"/>
<stop offset="1" stop-color="#FFC446"/>
</linearGradient>
<linearGradient id="paint52_linear_24_5479" x1="318.387" y1="114.617" x2="318.387" y2="131.979" gradientUnits="userSpaceOnUse">
<stop stop-color="#FCF0D6"/>
<stop offset="1" stop-color="#FFC446"/>
</linearGradient>
<linearGradient id="paint53_linear_24_5479" x1="340.977" y1="129.259" x2="340.977" y2="159.11" gradientUnits="userSpaceOnUse">
<stop stop-color="#FCF0D6"/>
<stop offset="1" stop-color="#FFC446"/>
</linearGradient>
<linearGradient id="paint54_linear_24_5479" x1="337.055" y1="134.301" x2="337.055" y2="164.96" gradientUnits="userSpaceOnUse">
<stop stop-color="#FCF0D6"/>
<stop offset="1" stop-color="#FFC446"/>
</linearGradient>
</defs>
</svg>
